<?xml version="1.0" encoding="UTF-8" standalone="no"?><svg xmlns="http://www.w3.org/2000/svg" xmlns:xlink="http://www.w3.org/1999/xlink" clip-rule="evenodd" stroke-miterlimit="10" viewBox="0 0 275 160"><desc>SVG generated by Keynote</desc><defs></defs><g transform="matrix(1.00, 0.00, -0.00, -1.00, 0.0, 160.0)"><g><clipPath id="clip0x7fd058a90c60"><path d="M 273.3 152.2 L 10.2 152.7 L 10.2 159.7 L 273.3 159.2 Z M 273.3 152.2 "></path></clipPath><g clip-path="url(#clip0x7fd058a90c60)"><path d="M 0.0 0.0 L 261.1 0.0 " fill="none" stroke="#000000" stroke-width="5.00" transform="matrix(-1.00, 0.00, 0.00, 1.00, 272.3, 155.7)"></path></g></g><g><clipPath id="clip0x7fd058a91f30"><path d="M 267.7 120.5 L 266.9 157.7 L 273.9 157.9 L 274.7 120.7 Z M 267.7 120.5 "></path></clipPath><g clip-path="url(#clip0x7fd058a91f30)"><path d="M 0.0 0.0 L 35.2 0.0 " fill="none" stroke="#000000" stroke-width="5.00" transform="matrix(-0.02, 1.00, 1.00, 0.02, 271.2, 121.6)"></path></g></g><g><clipPath id="clip0x7fd058a92fc0"><path d="M 22.4 157.8 L 22.4 120.6 L 0.0 120.6 L 0.0 157.8 Z M 22.4 157.8 "></path></clipPath><g clip-path="url(#clip0x7fd058a92fc0)"><path d="M -0.2 -0.3 L 14.8 -0.3 L 17.8 -0.3 " fill="none" stroke="#000000" stroke-width="5.00" transform="matrix(0.00, -1.00, -1.00, 0.00, 11.2, 156.8)"></path><path d="M 1.3 141.5 L 11.5 121.1 L 21.7 141.5 Z M 1.3 141.5 " fill="#000000"></path></g></g><g><clipPath id="clip0x7fd058a94530"><path d="M 273.3 0.8 L 10.2 1.3 L 10.2 8.3 L 273.3 7.8 Z M 273.3 0.8 "></path></clipPath><g clip-path="url(#clip0x7fd058a94530)"><path d="M 0.0 0.0 L 261.1 0.0 " fill="none" stroke="#000000" stroke-width="5.00" transform="matrix(-1.00, 0.00, 0.00, 1.00, 272.3, 4.3)"></path></g></g><g><clipPath id="clip0x7fd058a95530"><path d="M 267.7 1.1 L 266.9 38.3 L 273.9 38.5 L 274.7 1.3 Z M 267.7 1.1 "></path></clipPath><g clip-path="url(#clip0x7fd058a95530)"><path d="M 0.0 0.0 L 35.2 0.0 " fill="none" stroke="#000000" stroke-width="5.00" transform="matrix(-0.02, 1.00, 1.00, 0.02, 271.2, 2.2)"></path></g></g><g><clipPath id="clip0x7fd058a96570"><path d="M 0.0 4.4 L 0.0 40.5 L 22.4 40.5 L 22.4 4.4 Z M 0.0 4.4 "></path></clipPath><g clip-path="url(#clip0x7fd058a96570)"><path d="M -0.4 0.3 L 13.7 0.3 L 16.6 0.3 " fill="none" stroke="#000000" stroke-width="5.00" transform="matrix(0.00, 1.00, 1.00, 0.00, 11.2, 5.4)"></path><path d="M 21.7 19.5 L 11.5 39.9 L 1.3 19.5 Z M 21.7 19.5 " fill="#000000"></path></g></g></g></svg>