<?xml version="1.0" encoding="UTF-8" standalone="no"?><svg xmlns="http://www.w3.org/2000/svg" xmlns:xlink="http://www.w3.org/1999/xlink" clip-rule="evenodd" stroke-miterlimit="10" viewBox="0 0 238 56"><desc>SVG generated by Keynote</desc><defs></defs><g transform="matrix(1.00, 0.00, -0.00, -1.00, 0.0, 56.0)"><g><clipPath id="clip0x7fd057625090"><path d="M 91.4 1.0 L 146.6 1.0 L 146.6 55.6 L 91.4 55.6 Z M 91.4 1.0 "></path></clipPath><g clip-path="url(#clip0x7fd057625090)"><path d="M 94.5 11.0 L 94.5 45.4 C 94.5 49.1 97.9 52.5 101.6 52.5 L 136.4 52.5 C 140.1 52.5 143.5 49.1 143.5 45.4 L 143.5 11.2 C 143.5 7.5 140.1 4.5 136.4 4.5 L 101.6 4.5 C 97.9 4.5 94.5 7.3 94.5 11.0 Z M 94.9 11.2 " fill="#51A7F9"></path><path d="M -0.4 41.1 L -0.4 6.7 C -0.4 3.0 3.0 -0.4 6.7 -0.4 L 41.5 -0.4 C 45.3 -0.4 48.6 3.0 48.6 6.7 L 48.6 40.9 C 48.6 44.6 45.3 47.6 41.5 47.6 L 6.7 47.6 C 3.0 47.6 -0.4 44.8 -0.4 41.1 Z M 0.0 40.9 " fill="none" stroke="#164E86" stroke-width="5.00" transform="matrix(1.00, 0.00, 0.00, -1.00, 94.9, 52.1)"></path></g></g><g><clipPath id="clip0x7fd057643300"><path d="M 94.9 4.5 L 143.1 4.5 L 143.1 52.1 L 94.9 52.1 Z M 94.9 4.5 "></path></clipPath><g clip-path="url(#clip0x7fd057643300)"><text xml:space="preserve" font-family="Helvetica-Bold,Helvetica" font-weight="bold" font-size="24.0" fill="#FEFFFE" transform="matrix(1.00, 0.00, -0.00, -1.00, 110.3, 19.3)">B</text></g></g><g><clipPath id="clip0x7fd057644990"><path d="M 0.9 1.0 L 56.1 1.0 L 56.1 55.6 L 0.9 55.6 Z M 0.9 1.0 "></path></clipPath><g clip-path="url(#clip0x7fd057644990)"><path d="M 4.5 11.0 L 4.5 45.4 C 4.5 49.1 7.4 52.5 11.1 52.5 L 45.9 52.5 C 49.6 52.5 52.5 49.1 52.5 45.4 L 52.5 11.2 C 52.5 7.5 49.6 4.5 45.9 4.5 L 11.1 4.5 C 7.4 4.5 4.5 7.3 4.5 11.0 Z M 4.4 11.2 " fill="#51A7F9"></path><path d="M 0.1 41.1 L 0.1 6.7 C 0.1 3.0 3.0 -0.4 6.7 -0.4 L 41.5 -0.4 C 45.3 -0.4 48.1 3.0 48.1 6.7 L 48.1 40.9 C 48.1 44.6 45.3 47.6 41.5 47.6 L 6.7 47.6 C 3.0 47.6 0.1 44.8 0.1 41.1 Z M 0.0 40.9 " fill="none" stroke="#164E86" stroke-width="5.00" transform="matrix(1.00, 0.00, 0.00, -1.00, 4.4, 52.1)"></path></g></g><g><clipPath id="clip0x7fd057646750"><path d="M 4.4 4.5 L 52.6 4.5 L 52.6 52.1 L 4.4 52.1 Z M 4.4 4.5 "></path></clipPath><g clip-path="url(#clip0x7fd057646750)"><text xml:space="preserve" font-family="Helvetica-Bold,Helvetica" font-weight="bold" font-size="24.0" fill="#FEFFFE" transform="matrix(1.00, 0.00, -0.00, -1.00, 19.8, 19.3)">A</text></g></g><g><clipPath id="clip0x7fd0576479d0"><path d="M 181.9 1.0 L 237.1 1.0 L 237.1 55.6 L 181.9 55.6 Z M 181.9 1.0 "></path></clipPath><g clip-path="url(#clip0x7fd0576479d0)"><path d="M 185.5 11.0 L 185.5 45.4 C 185.5 49.1 188.4 52.5 192.1 52.5 L 226.9 52.5 C 230.6 52.5 233.5 49.1 233.5 45.4 L 233.5 11.2 C 233.5 7.5 230.6 4.5 226.9 4.5 L 192.1 4.5 C 188.4 4.5 185.5 7.3 185.5 11.0 Z M 185.4 11.2 " fill="#51A7F9"></path><path d="M 0.1 41.1 L 0.1 6.7 C 0.1 3.0 3.0 -0.4 6.7 -0.4 L 41.5 -0.4 C 45.3 -0.4 48.1 3.0 48.1 6.7 L 48.1 40.9 C 48.1 44.6 45.3 47.6 41.5 47.6 L 6.7 47.6 C 3.0 47.6 0.1 44.8 0.1 41.1 Z M 0.0 40.9 " fill="none" stroke="#164E86" stroke-width="5.00" transform="matrix(1.00, 0.00, 0.00, -1.00, 185.4, 52.1)"></path></g></g><g><clipPath id="clip0x7fd0576497e0"><path d="M 185.4 4.5 L 233.6 4.5 L 233.6 52.1 L 185.4 52.1 Z M 185.4 4.5 "></path></clipPath><g clip-path="url(#clip0x7fd0576497e0)"><text xml:space="preserve" font-family="Helvetica-Bold,Helvetica" font-weight="bold" font-size="24.0" fill="#FEFFFE" transform="matrix(1.00, 0.00, -0.00, -1.00, 200.8, 19.3)">C</text></g></g><g><clipPath id="clip0x7fd05764aa30"><path d="M 51.9 17.1 L 95.7 17.1 L 95.7 39.5 L 51.9 39.5 Z M 51.9 17.1 "></path></clipPath><g clip-path="url(#clip0x7fd05764aa30)"><path d="M 0.1 -0.2 L 21.4 -0.2 L 24.1 -0.2 " fill="none" stroke="#000000" stroke-width="5.00" transform="matrix(1.00, 0.00, 0.00, -1.00, 52.9, 28.3)"></path><path d="M 74.5 18.3 L 94.9 28.5 L 74.5 38.7 Z M 74.5 18.3 " fill="#000000"></path></g></g><g><clipPath id="clip0x7fd05764c010"><path d="M 142.3 17.1 L 186.1 17.1 L 186.1 39.5 L 142.3 39.5 Z M 142.3 17.1 "></path></clipPath><g clip-path="url(#clip0x7fd05764c010)"><path d="M -0.3 -0.2 L 21.4 -0.2 L 23.7 -0.2 " fill="none" stroke="#000000" stroke-width="5.00" transform="matrix(1.00, 0.00, 0.00, -1.00, 143.3, 28.3)"></path><path d="M 164.5 18.3 L 184.9 28.5 L 164.5 38.7 Z M 164.5 18.3 " fill="#000000"></path></g></g></g></svg>