<?xml version="1.0" encoding="UTF-8" standalone="no"?><svg xmlns="http://www.w3.org/2000/svg" xmlns:xlink="http://www.w3.org/1999/xlink" clip-rule="evenodd" stroke-miterlimit="4.00" viewBox="0 0 144 71"><desc>SVG generated by Keynote</desc><defs></defs><g transform="matrix(1.00, 0.00, -0.00, -1.00, 0.0, 71.0)"><image xlink:href="../../90424130-BDDF-4A61-86DC-E4D9B7F50571/assets/DD44891F92DB8B92F8C4091EDA238BBD.png" width="141.00" height="64.00" transform="matrix(1.00, 0.00, -0.00, -1.01, 1.4, 65.7)" opacity="0.50"></image><path d="M 6.9 19.4 L 6.9 51.5 C 6.9 57.4 11.7 62.2 17.7 62.2 L 126.3 62.2 C 132.2 62.2 137.0 57.4 137.0 51.5 L 137.0 19.4 C 137.0 13.5 132.2 8.7 126.3 8.7 L 17.7 8.7 C 11.7 8.7 6.9 13.5 6.9 19.4 Z M 6.9 19.4 " fill="#51A7F9"></path><path d="M 0.0 42.7 L 0.0 10.7 C 0.0 4.8 4.8 0.0 10.7 0.0 L 119.3 0.0 C 125.3 0.0 130.1 4.8 130.1 10.7 L 130.1 42.7 C 130.1 48.7 125.3 53.5 119.3 53.5 L 10.7 53.5 C 4.8 53.5 0.0 48.7 0.0 42.7 Z M 0.0 42.7 " fill="none" stroke="#164E86" stroke-width="5.00" transform="matrix(1.00, 0.00, 0.00, -1.00, 6.9, 62.2)"></path><g><clipPath id="clip-526"><path d="M 6.9 8.7 L 137.0 8.7 L 137.0 62.2 L 6.9 62.2 Z M 6.9 8.7 "></path></clipPath><g clip-path="url(#clip-526)"><text xml:space="preserve" font-family="Helvetica-Bold" font-weight="bold" font-size="24.0" fill="#FEFFFE" transform="matrix(1.00, 0.00, -0.00, -1.00, 31.0, 26.0)">A</text><text xml:space="preserve" font-family="Helvetica-Bold" font-weight="bold" font-size="24.0" fill="#FEFFFE" transform="matrix(1.00, 0.00, -0.00, -1.00, 48.3, 26.0)">r</text><text xml:space="preserve" font-family="Helvetica-Bold" font-weight="bold" font-size="24.0" fill="#FEFFFE" transform="matrix(1.00, 0.00, -0.00, -1.00, 57.7, 26.0)">g</text><text xml:space="preserve" font-family="Helvetica-Bold" font-weight="bold" font-size="24.0" fill="#FEFFFE" transform="matrix(1.00, 0.00, -0.00, -1.00, 72.3, 26.0)">M</text><text xml:space="preserve" font-family="Helvetica-Bold" font-weight="bold" font-size="24.0" fill="#FEFFFE" transform="matrix(1.00, 0.00, -0.00, -1.00, 92.3, 26.0)">i</text><text xml:space="preserve" font-family="Helvetica-Bold" font-weight="bold" font-size="24.0" fill="#FEFFFE" transform="matrix(1.00, 0.00, -0.00, -1.00, 99.0, 26.0)">n</text></g></g></g></svg>