<?xml version="1.0" encoding="UTF-8" standalone="no"?><svg xmlns="http://www.w3.org/2000/svg" xmlns:xlink="http://www.w3.org/1999/xlink" clip-rule="evenodd" stroke-miterlimit="4.00" viewBox="0 0 523 118"><desc>SVG generated by Keynote</desc><defs></defs><g transform="matrix(1.00, 0.00, -0.00, -1.00, 0.0, 118.0)"><text xml:space="preserve" font-family="Helvetica-Light" font-size="34.0" fill="#000000" transform="matrix(1.00, 0.00, -0.00, -1.00, 1.0, 91.0)">I</text><text xml:space="preserve" font-family="Helvetica-Light" font-size="34.0" fill="#000000" transform="matrix(1.00, 0.00, -0.00, -1.00, 10.5, 91.0)">m</text><text xml:space="preserve" font-family="Helvetica-Light" font-size="34.0" fill="#000000" transform="matrix(1.00, 0.00, -0.00, -1.00, 38.8, 91.0)">a</text><text xml:space="preserve" font-family="Helvetica-Light" font-size="34.0" fill="#000000" transform="matrix(1.00, 0.00, -0.00, -1.00, 57.7, 91.0)">g</text><text xml:space="preserve" font-family="Helvetica-Light" font-size="34.0" fill="#000000" transform="matrix(1.00, 0.00, -0.00, -1.00, 78.5, 91.0)">i</text><text xml:space="preserve" font-family="Helvetica-Light" font-size="34.0" fill="#000000" transform="matrix(1.00, 0.00, -0.00, -1.00, 86.0, 91.0)">n</text><text xml:space="preserve" font-family="Helvetica-Light" font-size="34.0" fill="#000000" transform="matrix(1.00, 0.00, -0.00, -1.00, 104.9, 91.0)">e</text><text xml:space="preserve" font-family="Helvetica-Light" font-size="34.0" fill="#000000" transform="matrix(1.00, 0.00, -0.00, -1.00, 123.8, 91.0)"> </text><text xml:space="preserve" font-family="Helvetica-Light" font-size="34.0" fill="#000000" transform="matrix(1.00, 0.00, -0.00, -1.00, 133.3, 91.0)">w</text><text xml:space="preserve" font-family="Helvetica-Light" font-size="34.0" fill="#000000" transform="matrix(1.00, 0.00, -0.00, -1.00, 157.8, 91.0)">e</text><text xml:space="preserve" font-family="Helvetica-Light" font-size="34.0" fill="#000000" transform="matrix(1.00, 0.00, -0.00, -1.00, 176.7, 91.0)"> </text><text xml:space="preserve" font-family="Helvetica-Light" font-size="34.0" fill="#000000" transform="matrix(1.00, 0.00, -0.00, -1.00, 186.2, 91.0)">m</text><text xml:space="preserve" font-family="Helvetica-Light" font-size="34.0" fill="#000000" transform="matrix(1.00, 0.00, -0.00, -1.00, 214.5, 91.0)">a</text><text xml:space="preserve" font-family="Helvetica-Light" font-size="34.0" fill="#000000" transform="matrix(1.00, 0.00, -0.00, -1.00, 233.4, 91.0)">i</text><text xml:space="preserve" font-family="Helvetica-Light" font-size="34.0" fill="#000000" transform="matrix(1.00, 0.00, -0.00, -1.00, 240.9, 91.0)">n</text><text xml:space="preserve" font-family="Helvetica-Light" font-size="34.0" fill="#000000" transform="matrix(1.00, 0.00, -0.00, -1.00, 259.8, 91.0)">t</text><text xml:space="preserve" font-family="Helvetica-Light" font-size="34.0" fill="#000000" transform="matrix(1.00, 0.00, -0.00, -1.00, 269.3, 91.0)">a</text><text xml:space="preserve" font-family="Helvetica-Light" font-size="34.0" fill="#000000" transform="matrix(1.00, 0.00, -0.00, -1.00, 288.2, 91.0)">i</text><text xml:space="preserve" font-family="Helvetica-Light" font-size="34.0" fill="#000000" transform="matrix(1.00, 0.00, -0.00, -1.00, 295.7, 91.0)">n</text><text xml:space="preserve" font-family="Helvetica-Light" font-size="34.0" fill="#000000" transform="matrix(1.00, 0.00, -0.00, -1.00, 314.6, 91.0)"> </text><text xml:space="preserve" font-family="Helvetica-Light" font-size="34.0" fill="#000000" transform="matrix(1.00, 0.00, -0.00, -1.00, 324.1, 91.0)">t</text><text xml:space="preserve" font-family="Helvetica-Light" font-size="34.0" fill="#000000" transform="matrix(1.00, 0.00, -0.00, -1.00, 333.6, 91.0)">h</text><text xml:space="preserve" font-family="Helvetica-Light" font-size="34.0" fill="#000000" transform="matrix(1.00, 0.00, -0.00, -1.00, 352.5, 91.0)">e</text><text xml:space="preserve" font-family="Helvetica-Light" font-size="34.0" fill="#000000" transform="matrix(1.00, 0.00, -0.00, -1.00, 371.4, 91.0)"> </text><text xml:space="preserve" font-family="Helvetica-Light" font-size="34.0" fill="#000000" transform="matrix(1.00, 0.00, -0.00, -1.00, 380.8, 91.0)">i</text><text xml:space="preserve" font-family="Helvetica-Light" font-size="34.0" fill="#000000" transform="matrix(1.00, 0.00, -0.00, -1.00, 388.4, 91.0)">n</text><text xml:space="preserve" font-family="Helvetica-Light" font-size="34.0" fill="#000000" transform="matrix(1.00, 0.00, -0.00, -1.00, 407.3, 91.0)">v</text><text xml:space="preserve" font-family="Helvetica-Light" font-size="34.0" fill="#000000" transform="matrix(1.00, 0.00, -0.00, -1.00, 424.3, 91.0)">a</text><text xml:space="preserve" font-family="Helvetica-Light" font-size="34.0" fill="#000000" transform="matrix(1.00, 0.00, -0.00, -1.00, 443.2, 91.0)">r</text><text xml:space="preserve" font-family="Helvetica-Light" font-size="34.0" fill="#000000" transform="matrix(1.00, 0.00, -0.00, -1.00, 454.5, 91.0)">i</text><text xml:space="preserve" font-family="Helvetica-Light" font-size="34.0" fill="#000000" transform="matrix(1.00, 0.00, -0.00, -1.00, 462.0, 91.0)">a</text><text xml:space="preserve" font-family="Helvetica-Light" font-size="34.0" fill="#000000" transform="matrix(1.00, 0.00, -0.00, -1.00, 480.9, 91.0)">n</text><text xml:space="preserve" font-family="Helvetica-Light" font-size="34.0" fill="#000000" transform="matrix(1.00, 0.00, -0.00, -1.00, 499.8, 91.0)">t</text><text xml:space="preserve" font-family="Helvetica-Light" font-size="34.0" fill="#000000" transform="matrix(1.00, 0.00, -0.00, -1.00, 509.3, 91.0)"> </text><text xml:space="preserve" font-family="Helvetica-Light" font-size="34.0" fill="#000000" transform="matrix(1.00, 0.00, -0.00, -1.00, 1.0, 50.0)">t</text><text xml:space="preserve" font-family="Helvetica-Light" font-size="34.0" fill="#000000" transform="matrix(1.00, 0.00, -0.00, -1.00, 10.5, 50.0)">h</text><text xml:space="preserve" font-family="Helvetica-Light" font-size="34.0" fill="#000000" transform="matrix(1.00, 0.00, -0.00, -1.00, 29.4, 50.0)">a</text><text xml:space="preserve" font-family="Helvetica-Light" font-size="34.0" fill="#000000" transform="matrix(1.00, 0.00, -0.00, -1.00, 48.3, 50.0)">t</text><text xml:space="preserve" font-family="Helvetica-Light" font-size="34.0" fill="#000000" transform="matrix(1.00, 0.00, -0.00, -1.00, 57.7, 50.0)"> </text><text xml:space="preserve" font-family="Helvetica-Light" font-size="34.0" fill="#000000" transform="matrix(1.00, 0.00, -0.00, -1.00, 67.2, 50.0)">e</text><text xml:space="preserve" font-family="Helvetica-Light" font-size="34.0" fill="#000000" transform="matrix(1.00, 0.00, -0.00, -1.00, 86.1, 50.0)">a</text><text xml:space="preserve" font-family="Helvetica-Light" font-size="34.0" fill="#000000" transform="matrix(1.00, 0.00, -0.00, -1.00, 105.0, 50.0)">c</text><text xml:space="preserve" font-family="Helvetica-Light" font-size="34.0" fill="#000000" transform="matrix(1.00, 0.00, -0.00, -1.00, 123.9, 50.0)">h</text><text xml:space="preserve" font-family="Helvetica-Light" font-size="34.0" fill="#000000" transform="matrix(1.00, 0.00, -0.00, -1.00, 142.8, 50.0)"> </text><text xml:space="preserve" font-family="Helvetica-Light" font-size="34.0" fill="#000000" transform="matrix(1.00, 0.00, -0.00, -1.00, 152.2, 50.0)">o</text><text xml:space="preserve" font-family="Helvetica-Light" font-size="34.0" fill="#000000" transform="matrix(1.00, 0.00, -0.00, -1.00, 171.1, 50.0)">p</text><text xml:space="preserve" font-family="Helvetica-Light" font-size="34.0" fill="#000000" transform="matrix(1.00, 0.00, -0.00, -1.00, 191.9, 50.0)">e</text><text xml:space="preserve" font-family="Helvetica-Light" font-size="34.0" fill="#000000" transform="matrix(1.00, 0.00, -0.00, -1.00, 210.8, 50.0)">r</text><text xml:space="preserve" font-family="Helvetica-Light" font-size="34.0" fill="#000000" transform="matrix(1.00, 0.00, -0.00, -1.00, 222.1, 50.0)">a</text><text xml:space="preserve" font-family="Helvetica-Light" font-size="34.0" fill="#000000" transform="matrix(1.00, 0.00, -0.00, -1.00, 241.0, 50.0)">t</text><text xml:space="preserve" font-family="Helvetica-Light" font-size="34.0" fill="#000000" transform="matrix(1.00, 0.00, -0.00, -1.00, 250.5, 50.0)">o</text><text xml:space="preserve" font-family="Helvetica-Light" font-size="34.0" fill="#000000" transform="matrix(1.00, 0.00, -0.00, -1.00, 269.4, 50.0)">r</text><text xml:space="preserve" font-family="Helvetica-Light" font-size="34.0" fill="#000000" transform="matrix(1.00, 0.00, -0.00, -1.00, 280.7, 50.0)">’</text><text xml:space="preserve" font-family="Helvetica-Light" font-size="34.0" fill="#000000" transform="matrix(1.00, 0.00, -0.00, -1.00, 285.8, 50.0)">s</text><text xml:space="preserve" font-family="Helvetica-Light" font-size="34.0" fill="#000000" transform="matrix(1.00, 0.00, -0.00, -1.00, 302.8, 50.0)"> </text><text xml:space="preserve" font-family="Helvetica-Light" font-size="34.0" fill="#000000" transform="matrix(1.00, 0.00, -0.00, -1.00, 312.2, 50.0)">o</text><text xml:space="preserve" font-family="Helvetica-Light" font-size="34.0" fill="#000000" transform="matrix(1.00, 0.00, -0.00, -1.00, 331.1, 50.0)">u</text><text xml:space="preserve" font-family="Helvetica-Light" font-size="34.0" fill="#000000" transform="matrix(1.00, 0.00, -0.00, -1.00, 350.0, 50.0)">t</text><text xml:space="preserve" font-family="Helvetica-Light" font-size="34.0" fill="#000000" transform="matrix(1.00, 0.00, -0.00, -1.00, 359.5, 50.0)">p</text><text xml:space="preserve" font-family="Helvetica-Light" font-size="34.0" fill="#000000" transform="matrix(1.00, 0.00, -0.00, -1.00, 380.2, 50.0)">u</text><text xml:space="preserve" font-family="Helvetica-Light" font-size="34.0" fill="#000000" transform="matrix(1.00, 0.00, -0.00, -1.00, 399.1, 50.0)">t</text><text xml:space="preserve" font-family="Helvetica-Light" font-size="34.0" fill="#000000" transform="matrix(1.00, 0.00, -0.00, -1.00, 408.6, 50.0)"> </text><text xml:space="preserve" font-family="Helvetica-Light" font-size="34.0" fill="#000000" transform="matrix(1.00, 0.00, -0.00, -1.00, 418.0, 50.0)">e</text><text xml:space="preserve" font-family="Helvetica-Light" font-size="34.0" fill="#000000" transform="matrix(1.00, 0.00, -0.00, -1.00, 436.9, 50.0)">q</text><text xml:space="preserve" font-family="Helvetica-Light" font-size="34.0" fill="#000000" transform="matrix(1.00, 0.00, -0.00, -1.00, 457.7, 50.0)">u</text><text xml:space="preserve" font-family="Helvetica-Light" font-size="34.0" fill="#000000" transform="matrix(1.00, 0.00, -0.00, -1.00, 476.6, 50.0)">a</text><text xml:space="preserve" font-family="Helvetica-Light" font-size="34.0" fill="#000000" transform="matrix(1.00, 0.00, -0.00, -1.00, 495.5, 50.0)">l</text><text xml:space="preserve" font-family="Helvetica-Light" font-size="34.0" fill="#000000" transform="matrix(1.00, 0.00, -0.00, -1.00, 503.1, 50.0)">s</text><text xml:space="preserve" font-family="Helvetica-Light" font-size="34.0" fill="#000000" transform="matrix(1.00, 0.00, -0.00, -1.00, 520.1, 50.0)"> </text><text xml:space="preserve" font-family="Helvetica-Light" font-size="34.0" fill="#000000" transform="matrix(1.00, 0.00, -0.00, -1.00, 1.0, 9.0)">i</text><text xml:space="preserve" font-family="Helvetica-Light" font-size="34.0" fill="#000000" transform="matrix(1.00, 0.00, -0.00, -1.00, 8.5, 9.0)">t</text><text xml:space="preserve" font-family="Helvetica-Light" font-size="34.0" fill="#000000" transform="matrix(1.00, 0.00, -0.00, -1.00, 18.0, 9.0)">s</text><text xml:space="preserve" font-family="Helvetica-Light" font-size="34.0" fill="#000000" transform="matrix(1.00, 0.00, -0.00, -1.00, 35.0, 9.0)"> </text><text xml:space="preserve" font-family="Helvetica-Light" font-size="34.0" fill="#000000" transform="matrix(1.00, 0.00, -0.00, -1.00, 44.5, 9.0)">l</text><text xml:space="preserve" font-family="Helvetica-Light" font-size="34.0" fill="#000000" transform="matrix(1.00, 0.00, -0.00, -1.00, 52.0, 9.0)">o</text><text xml:space="preserve" font-family="Helvetica-Light" font-size="34.0" fill="#000000" transform="matrix(1.00, 0.00, -0.00, -1.00, 70.9, 9.0)">g</text><text xml:space="preserve" font-family="Helvetica-Light" font-size="34.0" fill="#000000" transform="matrix(1.00, 0.00, -0.00, -1.00, 91.7, 9.0)">i</text><text xml:space="preserve" font-family="Helvetica-Light" font-size="34.0" fill="#000000" transform="matrix(1.00, 0.00, -0.00, -1.00, 99.2, 9.0)">c</text><text xml:space="preserve" font-family="Helvetica-Light" font-size="34.0" fill="#000000" transform="matrix(1.00, 0.00, -0.00, -1.00, 118.1, 9.0)"> </text><text xml:space="preserve" font-family="Helvetica-Light" font-size="34.0" fill="#000000" transform="matrix(1.00, 0.00, -0.00, -1.00, 127.6, 9.0)">a</text><text xml:space="preserve" font-family="Helvetica-Light" font-size="34.0" fill="#000000" transform="matrix(1.00, 0.00, -0.00, -1.00, 146.5, 9.0)">p</text><text xml:space="preserve" font-family="Helvetica-Light" font-size="34.0" fill="#000000" transform="matrix(1.00, 0.00, -0.00, -1.00, 167.3, 9.0)">p</text><text xml:space="preserve" font-family="Helvetica-Light" font-size="34.0" fill="#000000" transform="matrix(1.00, 0.00, -0.00, -1.00, 188.0, 9.0)">l</text><text xml:space="preserve" font-family="Helvetica-Light" font-size="34.0" fill="#000000" transform="matrix(1.00, 0.00, -0.00, -1.00, 195.6, 9.0)">i</text><text xml:space="preserve" font-family="Helvetica-Light" font-size="34.0" fill="#000000" transform="matrix(1.00, 0.00, -0.00, -1.00, 203.1, 9.0)">e</text><text xml:space="preserve" font-family="Helvetica-Light" font-size="34.0" fill="#000000" transform="matrix(1.00, 0.00, -0.00, -1.00, 222.0, 9.0)">d</text><text xml:space="preserve" font-family="Helvetica-Light" font-size="34.0" fill="#000000" transform="matrix(1.00, 0.00, -0.00, -1.00, 242.8, 9.0)"> </text><text xml:space="preserve" font-family="Helvetica-Light" font-size="34.0" fill="#000000" transform="matrix(1.00, 0.00, -0.00, -1.00, 252.3, 9.0)">t</text><text xml:space="preserve" font-family="Helvetica-Light" font-size="34.0" fill="#000000" transform="matrix(1.00, 0.00, -0.00, -1.00, 261.7, 9.0)">o</text><text xml:space="preserve" font-family="Helvetica-Light" font-size="34.0" fill="#000000" transform="matrix(1.00, 0.00, -0.00, -1.00, 280.6, 9.0)"> </text><text xml:space="preserve" font-family="Helvetica-Light" font-size="34.0" fill="#000000" transform="matrix(1.00, 0.00, -0.00, -1.00, 290.1, 9.0)">i</text><text xml:space="preserve" font-family="Helvetica-Light" font-size="34.0" fill="#000000" transform="matrix(1.00, 0.00, -0.00, -1.00, 297.6, 9.0)">t</text><text xml:space="preserve" font-family="Helvetica-Light" font-size="34.0" fill="#000000" transform="matrix(1.00, 0.00, -0.00, -1.00, 307.1, 9.0)">s</text><text xml:space="preserve" font-family="Helvetica-Light" font-size="34.0" fill="#000000" transform="matrix(1.00, 0.00, -0.00, -1.00, 324.1, 9.0)"> </text><text xml:space="preserve" font-family="Helvetica-Light" font-size="34.0" fill="#000000" transform="matrix(1.00, 0.00, -0.00, -1.00, 333.5, 9.0)">i</text><text xml:space="preserve" font-family="Helvetica-Light" font-size="34.0" fill="#000000" transform="matrix(1.00, 0.00, -0.00, -1.00, 341.1, 9.0)">n</text><text xml:space="preserve" font-family="Helvetica-Light" font-size="34.0" fill="#000000" transform="matrix(1.00, 0.00, -0.00, -1.00, 360.0, 9.0)">p</text><text xml:space="preserve" font-family="Helvetica-Light" font-size="34.0" fill="#000000" transform="matrix(1.00, 0.00, -0.00, -1.00, 380.7, 9.0)">u</text><text xml:space="preserve" font-family="Helvetica-Light" font-size="34.0" fill="#000000" transform="matrix(1.00, 0.00, -0.00, -1.00, 399.6, 9.0)">t</text><text xml:space="preserve" font-family="Helvetica-Light" font-size="34.0" fill="#000000" transform="matrix(1.00, 0.00, -0.00, -1.00, 409.1, 9.0)">.</text></g></svg>