<?xml version="1.0" encoding="UTF-8" standalone="no"?><svg xmlns="http://www.w3.org/2000/svg" xmlns:xlink="http://www.w3.org/1999/xlink" clip-rule="evenodd" stroke-miterlimit="4.00" viewBox="0 0 1024 768"><desc>SVG generated by Keynote</desc><defs></defs><g transform="matrix(1.00, 0.00, -0.00, -1.00, 0.0, 768.0)"><path d="M 0.0 768.0 L 1024.0 768.0 L 1024.0 0.0 L 0.0 0.0 Z M 0.0 768.0 " fill="#FEFFFF"></path><path d="M 0.0 0.0 L 394.5 0.0 L 397.0 0.0 " fill="none" stroke="#164E86" stroke-width="5.00" transform="matrix(1.00, 0.00, 0.00, -1.00, 522.6, 377.5)"></path><path d="M 917.1 367.3 L 937.5 377.5 L 917.1 387.7 Z M 917.1 367.3 " fill="#164E86"></path><path d="M 527.3 400.0 C 539.7 387.6 539.7 367.4 527.3 355.0 C 514.9 342.6 494.8 342.6 482.4 355.0 C 470.0 367.4 470.0 387.6 482.4 400.0 C 494.8 412.4 514.9 412.4 527.3 400.0 Z M 527.3 400.0 " fill="#51A7F9"></path><path d="M 54.2 9.3 C 66.6 21.7 66.6 41.8 54.2 54.2 C 41.8 66.6 21.7 66.6 9.3 54.2 C -3.1 41.8 -3.1 21.7 9.3 9.3 C 21.7 -3.1 41.8 -3.1 54.2 9.3 Z M 54.2 9.3 " fill="none" stroke="#164E86" stroke-width="5.00" transform="matrix(1.00, 0.00, 0.00, -1.00, 473.1, 409.3)"></path><g><clipPath id="clip-738"><path d="M 473.1 345.7 L 536.6 345.7 L 536.6 409.3 L 473.1 409.3 Z M 473.1 345.7 "></path></clipPath><g clip-path="url(#clip-738)"><text xml:space="preserve" font-family="Helvetica-Bold" font-weight="bold" font-size="24.0" fill="#FEFFFE" transform="matrix(1.00, 0.00, -0.00, -1.00, 488.0, 368.0)">O</text><text xml:space="preserve" font-family="Helvetica-Bold" font-weight="bold" font-size="24.0" fill="#FEFFFE" transform="matrix(1.00, 0.00, -0.00, -1.00, 506.7, 368.0)">p</text></g></g><path d="M 0.0 0.0 L 368.5 0.0 L 371.0 0.0 " fill="none" stroke="#164E86" stroke-width="5.00" transform="matrix(1.00, 0.00, 0.00, -1.00, 86.5, 377.5)"></path><path d="M 455.0 367.3 L 475.4 377.5 L 455.0 387.7 Z M 455.0 367.3 " fill="#164E86"></path><path d="M 350.0 363.6 L 350.0 391.3 C 350.0 399.6 356.7 406.3 365.0 406.3 L 389.3 406.3 C 397.6 406.3 404.3 399.6 404.3 391.3 L 404.3 363.6 C 404.3 355.3 397.6 348.6 389.3 348.6 L 365.0 348.6 C 356.7 348.6 350.0 355.3 350.0 363.6 Z M 350.0 363.6 " fill="#6FBF40"></path><path d="M 0.0 42.8 L 0.0 15.0 C 0.0 6.7 6.7 0.0 15.0 0.0 L 39.3 0.0 C 47.6 0.0 54.3 6.7 54.3 15.0 L 54.3 42.8 C 54.3 51.0 47.6 57.8 39.3 57.8 L 15.0 57.8 C 6.7 57.8 0.0 51.0 0.0 42.8 Z M 0.0 42.8 " fill="none" stroke="#0B5C18" stroke-width="5.00" transform="matrix(1.00, 0.00, 0.00, -1.00, 350.0, 406.3)"></path><g><clipPath id="clip-739"><path d="M 350.0 348.6 L 404.3 348.6 L 404.3 406.3 L 350.0 406.3 Z M 350.0 348.6 "></path></clipPath><g clip-path="url(#clip-739)"><text xml:space="preserve" font-family="Helvetica-Bold" font-weight="bold" font-size="24.0" fill="#FEFFFE" transform="matrix(1.00, 0.00, -0.00, -1.00, 370.0, 369.0)">x</text></g></g><path d="M 591.4 363.6 L 591.4 391.3 C 591.4 399.6 598.1 406.3 606.4 406.3 L 630.7 406.3 C 639.0 406.3 645.7 399.6 645.7 391.3 L 645.7 363.6 C 645.7 355.3 639.0 348.6 630.7 348.6 L 606.4 348.6 C 598.1 348.6 591.4 355.3 591.4 363.6 Z M 591.4 363.6 " fill="#B26AE1"></path><path d="M 0.0 42.8 L 0.0 15.0 C 0.0 6.7 6.7 0.0 15.0 0.0 L 39.3 0.0 C 47.6 0.0 54.3 6.7 54.3 15.0 L 54.3 42.8 C 54.3 51.0 47.6 57.8 39.3 57.8 L 15.0 57.8 C 6.7 57.8 0.0 51.0 0.0 42.8 Z M 0.0 42.8 " fill="none" stroke="#5E317B" stroke-width="5.00" transform="matrix(1.00, 0.00, 0.00, -1.00, 591.4, 406.3)"></path><g><clipPath id="clip-740"><path d="M 591.4 348.6 L 645.7 348.6 L 645.7 406.3 L 591.4 406.3 Z M 591.4 348.6 "></path></clipPath><g clip-path="url(#clip-740)"><text xml:space="preserve" font-family="Helvetica-Bold" font-weight="bold" font-size="24.0" fill="#FEFFFE" transform="matrix(1.00, 0.00, -0.00, -1.00, 612.0, 369.0)">y</text></g></g><text xml:space="preserve" font-family="Helvetica-Light" font-size="64.0" fill="#000000" transform="matrix(1.00, 0.00, -0.00, -1.00, 219.0, 604.0)">D</text><text xml:space="preserve" font-family="Helvetica-Light" font-size="64.0" fill="#000000" transform="matrix(1.00, 0.00, -0.00, -1.00, 265.2, 604.0)">i</text><text xml:space="preserve" font-family="Helvetica-Light" font-size="64.0" fill="#000000" transform="matrix(1.00, 0.00, -0.00, -1.00, 279.4, 604.0)">f</text><text xml:space="preserve" font-family="Helvetica-Light" font-size="64.0" fill="#000000" transform="matrix(1.00, 0.00, -0.00, -1.00, 296.1, 604.0)">f</text><text xml:space="preserve" font-family="Helvetica-Light" font-size="64.0" fill="#000000" transform="matrix(1.00, 0.00, -0.00, -1.00, 313.8, 604.0)">e</text><text xml:space="preserve" font-family="Helvetica-Light" font-size="64.0" fill="#000000" transform="matrix(1.00, 0.00, -0.00, -1.00, 349.4, 604.0)">r</text><text xml:space="preserve" font-family="Helvetica-Light" font-size="64.0" fill="#000000" transform="matrix(1.00, 0.00, -0.00, -1.00, 369.6, 604.0)">e</text><text xml:space="preserve" font-family="Helvetica-Light" font-size="64.0" fill="#000000" transform="matrix(1.00, 0.00, -0.00, -1.00, 405.2, 604.0)">n</text><text xml:space="preserve" font-family="Helvetica-Light" font-size="64.0" fill="#000000" transform="matrix(1.00, 0.00, -0.00, -1.00, 440.8, 604.0)">t</text><text xml:space="preserve" font-family="Helvetica-Light" font-size="64.0" fill="#000000" transform="matrix(1.00, 0.00, -0.00, -1.00, 458.6, 604.0)">i</text><text xml:space="preserve" font-family="Helvetica-Light" font-size="64.0" fill="#000000" transform="matrix(1.00, 0.00, -0.00, -1.00, 472.8, 604.0)">a</text><text xml:space="preserve" font-family="Helvetica-Light" font-size="64.0" fill="#000000" transform="matrix(1.00, 0.00, -0.00, -1.00, 508.3, 604.0)">l</text><text xml:space="preserve" font-family="Helvetica-Light" font-size="64.0" fill="#000000" transform="matrix(1.00, 0.00, -0.00, -1.00, 522.6, 604.0)"> </text><text xml:space="preserve" font-family="Helvetica-Light" font-size="64.0" fill="#000000" transform="matrix(1.00, 0.00, -0.00, -1.00, 540.3, 604.0)">D</text><text xml:space="preserve" font-family="Helvetica-Light" font-size="64.0" fill="#000000" transform="matrix(1.00, 0.00, -0.00, -1.00, 586.6, 604.0)">a</text><text xml:space="preserve" font-family="Helvetica-Light" font-size="64.0" fill="#000000" transform="matrix(1.00, 0.00, -0.00, -1.00, 622.1, 604.0)">t</text><text xml:space="preserve" font-family="Helvetica-Light" font-size="64.0" fill="#000000" transform="matrix(1.00, 0.00, -0.00, -1.00, 639.9, 604.0)">a</text><text xml:space="preserve" font-family="Helvetica-Light" font-size="64.0" fill="#000000" transform="matrix(1.00, 0.00, -0.00, -1.00, 675.5, 604.0)">ﬂ</text><text xml:space="preserve" font-family="Helvetica-Light" font-size="64.0" fill="#000000" transform="matrix(1.00, 0.00, -0.00, -1.00, 707.5, 604.0)">o</text><text xml:space="preserve" font-family="Helvetica-Light" font-size="64.0" fill="#000000" transform="matrix(1.00, 0.00, -0.00, -1.00, 743.1, 604.0)">w</text><g><clipPath id="clip-741"><path d="M 521.7 278.2 L 938.6 278.2 L 938.6 300.6 L 521.7 300.6 Z M 521.7 278.2 "></path></clipPath><g clip-path="url(#clip-741)"><path d="M 0.0 0.0 L 394.5 0.0 L 397.0 0.0 " fill="none" stroke="#164E86" stroke-width="5.00" transform="matrix(1.00, 0.00, 0.00, -1.00, 522.7, 289.4)"></path><path d="M 917.2 279.2 L 937.6 289.4 L 917.2 299.6 Z M 917.2 279.2 " fill="#164E86"></path></g></g><g><clipPath id="clip-742"><path d="M 469.7 254.1 L 540.2 254.1 L 540.2 324.6 L 469.7 324.6 Z M 469.7 254.1 "></path></clipPath><g clip-path="url(#clip-742)"><path d="M 527.4 311.8 C 539.8 299.4 539.8 279.3 527.4 266.9 C 515.0 254.5 494.9 254.5 482.5 266.9 C 470.1 279.3 470.1 299.4 482.5 311.8 C 494.9 324.2 515.0 324.2 527.4 311.8 Z M 527.4 311.8 " fill="#51A7F9"></path><path d="M 54.2 9.3 C 66.6 21.7 66.6 41.8 54.2 54.2 C 41.8 66.6 21.7 66.6 9.3 54.2 C -3.1 41.8 -3.1 21.7 9.3 9.3 C 21.7 -3.1 41.8 -3.1 54.2 9.3 Z M 54.2 9.3 " fill="none" stroke="#164E86" stroke-width="5.00" transform="matrix(1.00, 0.00, 0.00, -1.00, 473.2, 321.1)"></path></g></g><g><clipPath id="clip-743"><path d="M 473.2 257.6 L 536.7 257.6 L 536.7 321.1 L 473.2 321.1 Z M 473.2 257.6 "></path></clipPath><g clip-path="url(#clip-743)"><text xml:space="preserve" font-family="Helvetica-Bold" font-weight="bold" font-size="24.0" fill="#FEFFFE" transform="matrix(1.00, 0.00, -0.00, -1.00, 488.0, 280.0)">O</text><text xml:space="preserve" font-family="Helvetica-Bold" font-weight="bold" font-size="24.0" fill="#FEFFFE" transform="matrix(1.00, 0.00, -0.00, -1.00, 506.7, 280.0)">p</text></g></g><g><clipPath id="clip-744"><path d="M 85.6 278.2 L 476.4 278.2 L 476.4 300.6 L 85.6 300.6 Z M 85.6 278.2 "></path></clipPath><g clip-path="url(#clip-744)"><path d="M 0.0 0.0 L 368.5 0.0 L 371.0 0.0 " fill="none" stroke="#164E86" stroke-width="5.00" transform="matrix(1.00, 0.00, 0.00, -1.00, 86.6, 289.4)"></path><path d="M 455.0 279.2 L 475.4 289.4 L 455.0 299.6 Z M 455.0 279.2 " fill="#164E86"></path></g></g><g><clipPath id="clip-745"><path d="M 346.6 257.0 L 407.9 257.0 L 407.9 321.7 L 346.6 321.7 Z M 346.6 257.0 "></path></clipPath><g clip-path="url(#clip-745)"><path d="M 350.1 275.5 L 350.1 303.2 C 350.1 311.5 356.8 318.2 365.1 318.2 L 389.4 318.2 C 397.7 318.2 404.4 311.5 404.4 303.2 L 404.4 275.5 C 404.4 267.2 397.7 260.5 389.4 260.5 L 365.1 260.5 C 356.8 260.5 350.1 267.2 350.1 275.5 Z M 350.1 275.5 " fill="#6FBF40"></path><path d="M 0.0 42.8 L 0.0 15.0 C 0.0 6.7 6.7 0.0 15.0 0.0 L 39.3 0.0 C 47.6 0.0 54.3 6.7 54.3 15.0 L 54.3 42.8 C 54.3 51.0 47.6 57.8 39.3 57.8 L 15.0 57.8 C 6.7 57.8 0.0 51.0 0.0 42.8 Z M 0.0 42.8 " fill="none" stroke="#0B5C18" stroke-width="5.00" transform="matrix(1.00, 0.00, 0.00, -1.00, 350.1, 318.2)"></path></g></g><g><clipPath id="clip-746"><path d="M 350.1 260.5 L 404.4 260.5 L 404.4 318.2 L 350.1 318.2 Z M 350.1 260.5 "></path></clipPath><g clip-path="url(#clip-746)"><text xml:space="preserve" font-family="Helvetica-Bold" font-weight="bold" font-size="24.0" fill="#FEFFFE" transform="matrix(1.00, 0.00, -0.00, -1.00, 371.0, 280.0)">x</text></g></g><g><clipPath id="clip-747"><path d="M 588.0 257.0 L 649.3 257.0 L 649.3 321.7 L 588.0 321.7 Z M 588.0 257.0 "></path></clipPath><g clip-path="url(#clip-747)"><path d="M 591.5 275.5 L 591.5 303.2 C 591.5 311.5 598.2 318.2 606.5 318.2 L 630.8 318.2 C 639.1 318.2 645.8 311.5 645.8 303.2 L 645.8 275.5 C 645.8 267.2 639.1 260.5 630.8 260.5 L 606.5 260.5 C 598.2 260.5 591.5 267.2 591.5 275.5 Z M 591.5 275.5 " fill="#B26AE1"></path><path d="M 0.0 42.8 L 0.0 15.0 C 0.0 6.7 6.7 0.0 15.0 0.0 L 39.3 0.0 C 47.6 0.0 54.3 6.7 54.3 15.0 L 54.3 42.8 C 54.3 51.0 47.6 57.8 39.3 57.8 L 15.0 57.8 C 6.7 57.8 0.0 51.0 0.0 42.8 Z M 0.0 42.8 " fill="none" stroke="#5E317B" stroke-width="5.00" transform="matrix(1.00, 0.00, 0.00, -1.00, 591.5, 318.2)"></path></g></g><g><clipPath id="clip-748"><path d="M 591.5 260.5 L 645.8 260.5 L 645.8 318.2 L 591.5 318.2 Z M 591.5 260.5 "></path></clipPath><g clip-path="url(#clip-748)"><text xml:space="preserve" font-family="Helvetica-Bold" font-weight="bold" font-size="24.0" fill="#FEFFFE" transform="matrix(1.00, 0.00, -0.00, -1.00, 612.0, 280.0)">y</text></g></g><g><clipPath id="clip-749"><path d="M 520.9 190.3 L 937.8 190.3 L 937.8 212.7 L 520.9 212.7 Z M 520.9 190.3 "></path></clipPath><g clip-path="url(#clip-749)"><path d="M 0.0 0.0 L 394.5 0.0 L 397.0 0.0 " fill="none" stroke="#164E86" stroke-width="5.00" transform="matrix(1.00, 0.00, 0.00, -1.00, 521.9, 201.5)"></path><path d="M 916.4 191.3 L 936.8 201.5 L 916.4 211.7 Z M 916.4 191.3 " fill="#164E86"></path></g></g><g><clipPath id="clip-750"><path d="M 468.9 166.3 L 539.4 166.3 L 539.4 236.8 L 468.9 236.8 Z M 468.9 166.3 "></path></clipPath><g clip-path="url(#clip-750)"><path d="M 526.6 224.0 C 539.0 211.6 539.0 191.5 526.6 179.1 C 514.2 166.7 494.1 166.7 481.7 179.1 C 469.3 191.5 469.3 211.6 481.7 224.0 C 494.1 236.4 514.2 236.4 526.6 224.0 Z M 526.6 224.0 " fill="#51A7F9"></path><path d="M 54.2 9.3 C 66.6 21.7 66.6 41.8 54.2 54.2 C 41.8 66.6 21.7 66.6 9.3 54.2 C -3.1 41.8 -3.1 21.7 9.3 9.3 C 21.7 -3.1 41.8 -3.1 54.2 9.3 Z M 54.2 9.3 " fill="none" stroke="#164E86" stroke-width="5.00" transform="matrix(1.00, 0.00, 0.00, -1.00, 472.4, 233.3)"></path></g></g><g><clipPath id="clip-751"><path d="M 472.4 169.8 L 535.9 169.8 L 535.9 233.3 L 472.4 233.3 Z M 472.4 169.8 "></path></clipPath><g clip-path="url(#clip-751)"><text xml:space="preserve" font-family="Helvetica-Bold" font-weight="bold" font-size="24.0" fill="#FEFFFE" transform="matrix(1.00, 0.00, -0.00, -1.00, 487.0, 192.0)">O</text><text xml:space="preserve" font-family="Helvetica-Bold" font-weight="bold" font-size="24.0" fill="#FEFFFE" transform="matrix(1.00, 0.00, -0.00, -1.00, 505.7, 192.0)">p</text></g></g><g><clipPath id="clip-752"><path d="M 84.8 190.3 L 475.7 190.3 L 475.7 212.7 L 84.8 212.7 Z M 84.8 190.3 "></path></clipPath><g clip-path="url(#clip-752)"><path d="M 0.0 0.0 L 368.5 0.0 L 371.0 0.0 " fill="none" stroke="#164E86" stroke-width="5.00" transform="matrix(1.00, 0.00, 0.00, -1.00, 85.8, 201.5)"></path><path d="M 454.3 191.3 L 474.7 201.5 L 454.3 211.7 Z M 454.3 191.3 " fill="#164E86"></path></g></g><g><clipPath id="clip-753"><path d="M 345.8 169.1 L 407.1 169.1 L 407.1 233.9 L 345.8 233.9 Z M 345.8 169.1 "></path></clipPath><g clip-path="url(#clip-753)"><path d="M 349.3 187.6 L 349.3 215.4 C 349.3 223.6 356.0 230.4 364.3 230.4 L 388.6 230.4 C 396.9 230.4 403.6 223.6 403.6 215.4 L 403.6 187.6 C 403.6 179.3 396.9 172.6 388.6 172.6 L 364.3 172.6 C 356.0 172.6 349.3 179.3 349.3 187.6 Z M 349.3 187.6 " fill="#6FBF40"></path><path d="M 0.0 42.8 L 0.0 15.0 C 0.0 6.7 6.7 0.0 15.0 0.0 L 39.3 0.0 C 47.6 0.0 54.3 6.7 54.3 15.0 L 54.3 42.8 C 54.3 51.0 47.6 57.8 39.3 57.8 L 15.0 57.8 C 6.7 57.8 0.0 51.0 0.0 42.8 Z M 0.0 42.8 " fill="none" stroke="#0B5C18" stroke-width="5.00" transform="matrix(1.00, 0.00, 0.00, -1.00, 349.3, 230.4)"></path></g></g><g><clipPath id="clip-754"><path d="M 349.3 172.6 L 403.6 172.6 L 403.6 230.4 L 349.3 230.4 Z M 349.3 172.6 "></path></clipPath><g clip-path="url(#clip-754)"><text xml:space="preserve" font-family="Helvetica-Bold" font-weight="bold" font-size="24.0" fill="#FEFFFE" transform="matrix(1.00, 0.00, -0.00, -1.00, 370.0, 193.0)">x</text></g></g><g><clipPath id="clip-755"><path d="M 587.2 169.1 L 648.5 169.1 L 648.5 233.9 L 587.2 233.9 Z M 587.2 169.1 "></path></clipPath><g clip-path="url(#clip-755)"><path d="M 590.7 187.6 L 590.7 215.4 C 590.7 223.6 597.4 230.4 605.7 230.4 L 630.0 230.4 C 638.3 230.4 645.0 223.6 645.0 215.4 L 645.0 187.6 C 645.0 179.3 638.3 172.6 630.0 172.6 L 605.7 172.6 C 597.4 172.6 590.7 179.3 590.7 187.6 Z M 590.7 187.6 " fill="#B26AE1"></path><path d="M 0.0 42.8 L 0.0 15.0 C 0.0 6.7 6.7 0.0 15.0 0.0 L 39.3 0.0 C 47.6 0.0 54.3 6.7 54.3 15.0 L 54.3 42.8 C 54.3 51.0 47.6 57.8 39.3 57.8 L 15.0 57.8 C 6.7 57.8 0.0 51.0 0.0 42.8 Z M 0.0 42.8 " fill="none" stroke="#5E317B" stroke-width="5.00" transform="matrix(1.00, 0.00, 0.00, -1.00, 590.7, 230.4)"></path></g></g><g><clipPath id="clip-756"><path d="M 590.7 172.6 L 645.0 172.6 L 645.0 230.4 L 590.7 230.4 Z M 590.7 172.6 "></path></clipPath><g clip-path="url(#clip-756)"><text xml:space="preserve" font-family="Helvetica-Bold" font-weight="bold" font-size="24.0" fill="#FEFFFE" transform="matrix(1.00, 0.00, -0.00, -1.00, 611.0, 193.0)">y</text></g></g><text xml:space="preserve" font-family="Helvetica-Light" font-size="36.0" fill="#000000" transform="matrix(1.00, 0.00, -0.00, -1.00, 284.0, 533.0)">w</text><text xml:space="preserve" font-family="Helvetica-Light" font-size="36.0" fill="#000000" transform="matrix(1.00, 0.00, -0.00, -1.00, 310.0, 533.0)">i</text><text xml:space="preserve" font-family="Helvetica-Light" font-size="36.0" fill="#000000" transform="matrix(1.00, 0.00, -0.00, -1.00, 318.0, 533.0)">t</text><text xml:space="preserve" font-family="Helvetica-Light" font-size="36.0" fill="#000000" transform="matrix(1.00, 0.00, -0.00, -1.00, 328.0, 533.0)">h</text><text xml:space="preserve" font-family="Helvetica-Light" font-size="36.0" fill="#000000" transform="matrix(1.00, 0.00, -0.00, -1.00, 348.0, 533.0)"> </text><text xml:space="preserve" font-family="Helvetica-Light" font-size="36.0" fill="#000000" transform="matrix(1.00, 0.00, -0.00, -1.00, 358.0, 533.0)">d</text><text xml:space="preserve" font-family="Helvetica-Light" font-size="36.0" fill="#000000" transform="matrix(1.00, 0.00, -0.00, -1.00, 380.0, 533.0)">a</text><text xml:space="preserve" font-family="Helvetica-Light" font-size="36.0" fill="#000000" transform="matrix(1.00, 0.00, -0.00, -1.00, 400.0, 533.0)">t</text><text xml:space="preserve" font-family="Helvetica-Light" font-size="36.0" fill="#000000" transform="matrix(1.00, 0.00, -0.00, -1.00, 410.0, 533.0)">a</text><text xml:space="preserve" font-family="Helvetica-Light" font-size="36.0" fill="#000000" transform="matrix(1.00, 0.00, -0.00, -1.00, 430.1, 533.0)">-</text><text xml:space="preserve" font-family="Helvetica-Light" font-size="36.0" fill="#000000" transform="matrix(1.00, 0.00, -0.00, -1.00, 442.0, 533.0)">p</text><text xml:space="preserve" font-family="Helvetica-Light" font-size="36.0" fill="#000000" transform="matrix(1.00, 0.00, -0.00, -1.00, 464.0, 533.0)">a</text><text xml:space="preserve" font-family="Helvetica-Light" font-size="36.0" fill="#000000" transform="matrix(1.00, 0.00, -0.00, -1.00, 484.1, 533.0)">r</text><text xml:space="preserve" font-family="Helvetica-Light" font-size="36.0" fill="#000000" transform="matrix(1.00, 0.00, -0.00, -1.00, 496.0, 533.0)">a</text><text xml:space="preserve" font-family="Helvetica-Light" font-size="36.0" fill="#000000" transform="matrix(1.00, 0.00, -0.00, -1.00, 516.1, 533.0)">l</text><text xml:space="preserve" font-family="Helvetica-Light" font-size="36.0" fill="#000000" transform="matrix(1.00, 0.00, -0.00, -1.00, 524.0, 533.0)">l</text><text xml:space="preserve" font-family="Helvetica-Light" font-size="36.0" fill="#000000" transform="matrix(1.00, 0.00, -0.00, -1.00, 532.0, 533.0)">e</text><text xml:space="preserve" font-family="Helvetica-Light" font-size="36.0" fill="#000000" transform="matrix(1.00, 0.00, -0.00, -1.00, 552.1, 533.0)">l</text><text xml:space="preserve" font-family="Helvetica-Light" font-size="36.0" fill="#000000" transform="matrix(1.00, 0.00, -0.00, -1.00, 560.0, 533.0)"> </text><text xml:space="preserve" font-family="Helvetica-Light" font-size="36.0" fill="#000000" transform="matrix(1.00, 0.00, -0.00, -1.00, 570.1, 533.0)">o</text><text xml:space="preserve" font-family="Helvetica-Light" font-size="36.0" fill="#000000" transform="matrix(1.00, 0.00, -0.00, -1.00, 590.1, 533.0)">p</text><text xml:space="preserve" font-family="Helvetica-Light" font-size="36.0" fill="#000000" transform="matrix(1.00, 0.00, -0.00, -1.00, 612.1, 533.0)">e</text><text xml:space="preserve" font-family="Helvetica-Light" font-size="36.0" fill="#000000" transform="matrix(1.00, 0.00, -0.00, -1.00, 632.1, 533.0)">r</text><text xml:space="preserve" font-family="Helvetica-Light" font-size="36.0" fill="#000000" transform="matrix(1.00, 0.00, -0.00, -1.00, 644.1, 533.0)">a</text><text xml:space="preserve" font-family="Helvetica-Light" font-size="36.0" fill="#000000" transform="matrix(1.00, 0.00, -0.00, -1.00, 664.1, 533.0)">t</text><text xml:space="preserve" font-family="Helvetica-Light" font-size="36.0" fill="#000000" transform="matrix(1.00, 0.00, -0.00, -1.00, 674.1, 533.0)">o</text><text xml:space="preserve" font-family="Helvetica-Light" font-size="36.0" fill="#000000" transform="matrix(1.00, 0.00, -0.00, -1.00, 694.1, 533.0)">r</text><text xml:space="preserve" font-family="Helvetica-Light" font-size="36.0" fill="#000000" transform="matrix(1.00, 0.00, -0.00, -1.00, 706.1, 533.0)">s</text></g></svg>