<?xml version="1.0" encoding="UTF-8" standalone="no"?><svg xmlns="http://www.w3.org/2000/svg" xmlns:xlink="http://www.w3.org/1999/xlink" clip-rule="evenodd" stroke-miterlimit="4.00" viewBox="0 0 1024 768"><desc>SVG generated by Keynote</desc><defs></defs><g transform="matrix(1.00, 0.00, -0.00, -1.00, 0.0, 768.0)"><path d="M 0.0 768.0 L 1024.0 768.0 L 1024.0 0.0 L 0.0 0.0 Z M 0.0 768.0 " fill="#FEFFFF"></path><path d="M 0.0 0.0 L 394.5 0.0 L 397.0 0.0 " fill="none" stroke="#164E86" stroke-width="5.00" transform="matrix(1.00, 0.00, 0.00, -1.00, 522.6, 377.5)"></path><path d="M 917.1 367.3 L 937.5 377.5 L 917.1 387.7 Z M 917.1 367.3 " fill="#164E86"></path><path d="M 527.3 400.0 C 539.7 387.6 539.7 367.4 527.3 355.0 C 514.9 342.6 494.8 342.6 482.4 355.0 C 470.0 367.4 470.0 387.6 482.4 400.0 C 494.8 412.4 514.9 412.4 527.3 400.0 Z M 527.3 400.0 " fill="#51A7F9"></path><path d="M 54.2 9.3 C 66.6 21.7 66.6 41.8 54.2 54.2 C 41.8 66.6 21.7 66.6 9.3 54.2 C -3.1 41.8 -3.1 21.7 9.3 9.3 C 21.7 -3.1 41.8 -3.1 54.2 9.3 Z M 54.2 9.3 " fill="none" stroke="#164E86" stroke-width="5.00" transform="matrix(1.00, 0.00, 0.00, -1.00, 473.1, 409.3)"></path><g><clipPath id="clip-757"><path d="M 473.1 345.7 L 536.6 345.7 L 536.6 409.3 L 473.1 409.3 Z M 473.1 345.7 "></path></clipPath><g clip-path="url(#clip-757)"><text xml:space="preserve" font-family="Helvetica-Bold" font-weight="bold" font-size="24.0" fill="#FEFFFE" transform="matrix(1.00, 0.00, -0.00, -1.00, 488.0, 368.0)">O</text><text xml:space="preserve" font-family="Helvetica-Bold" font-weight="bold" font-size="24.0" fill="#FEFFFE" transform="matrix(1.00, 0.00, -0.00, -1.00, 506.7, 368.0)">p</text></g></g><path d="M 0.0 0.0 L 368.5 0.0 L 371.0 0.0 " fill="none" stroke="#164E86" stroke-width="5.00" transform="matrix(1.00, 0.00, 0.00, -1.00, 86.5, 377.5)"></path><path d="M 455.0 367.3 L 475.4 377.5 L 455.0 387.7 Z M 455.0 367.3 " fill="#164E86"></path><path d="M 350.0 363.6 L 350.0 391.3 C 350.0 399.6 356.7 406.3 365.0 406.3 L 389.3 406.3 C 397.6 406.3 404.3 399.6 404.3 391.3 L 404.3 363.6 C 404.3 355.3 397.6 348.6 389.3 348.6 L 365.0 348.6 C 356.7 348.6 350.0 355.3 350.0 363.6 Z M 350.0 363.6 " fill="#6FBF40"></path><path d="M 0.0 42.8 L 0.0 15.0 C 0.0 6.7 6.7 0.0 15.0 0.0 L 39.3 0.0 C 47.6 0.0 54.3 6.7 54.3 15.0 L 54.3 42.8 C 54.3 51.0 47.6 57.8 39.3 57.8 L 15.0 57.8 C 6.7 57.8 0.0 51.0 0.0 42.8 Z M 0.0 42.8 " fill="none" stroke="#0B5C18" stroke-width="5.00" transform="matrix(1.00, 0.00, 0.00, -1.00, 350.0, 406.3)"></path><g><clipPath id="clip-758"><path d="M 350.0 348.6 L 404.3 348.6 L 404.3 406.3 L 350.0 406.3 Z M 350.0 348.6 "></path></clipPath><g clip-path="url(#clip-758)"><text xml:space="preserve" font-family="Helvetica-Bold" font-weight="bold" font-size="24.0" fill="#FEFFFE" transform="matrix(1.00, 0.00, -0.00, -1.00, 370.0, 369.0)">x</text></g></g><path d="M 591.4 363.6 L 591.4 391.3 C 591.4 399.6 598.1 406.3 606.4 406.3 L 630.7 406.3 C 639.0 406.3 645.7 399.6 645.7 391.3 L 645.7 363.6 C 645.7 355.3 639.0 348.6 630.7 348.6 L 606.4 348.6 C 598.1 348.6 591.4 355.3 591.4 363.6 Z M 591.4 363.6 " fill="#B26AE1"></path><path d="M 0.0 42.8 L 0.0 15.0 C 0.0 6.7 6.7 0.0 15.0 0.0 L 39.3 0.0 C 47.6 0.0 54.3 6.7 54.3 15.0 L 54.3 42.8 C 54.3 51.0 47.6 57.8 39.3 57.8 L 15.0 57.8 C 6.7 57.8 0.0 51.0 0.0 42.8 Z M 0.0 42.8 " fill="none" stroke="#5E317B" stroke-width="5.00" transform="matrix(1.00, 0.00, 0.00, -1.00, 591.4, 406.3)"></path><g><clipPath id="clip-759"><path d="M 591.4 348.6 L 645.7 348.6 L 645.7 406.3 L 591.4 406.3 Z M 591.4 348.6 "></path></clipPath><g clip-path="url(#clip-759)"><text xml:space="preserve" font-family="Helvetica-Bold" font-weight="bold" font-size="24.0" fill="#FEFFFE" transform="matrix(1.00, 0.00, -0.00, -1.00, 612.0, 369.0)">y</text></g></g><text xml:space="preserve" font-family="Helvetica-Light" font-size="64.0" fill="#000000" transform="matrix(1.00, 0.00, -0.00, -1.00, 219.0, 604.0)">D</text><text xml:space="preserve" font-family="Helvetica-Light" font-size="64.0" fill="#000000" transform="matrix(1.00, 0.00, -0.00, -1.00, 265.2, 604.0)">i</text><text xml:space="preserve" font-family="Helvetica-Light" font-size="64.0" fill="#000000" transform="matrix(1.00, 0.00, -0.00, -1.00, 279.4, 604.0)">f</text><text xml:space="preserve" font-family="Helvetica-Light" font-size="64.0" fill="#000000" transform="matrix(1.00, 0.00, -0.00, -1.00, 296.1, 604.0)">f</text><text xml:space="preserve" font-family="Helvetica-Light" font-size="64.0" fill="#000000" transform="matrix(1.00, 0.00, -0.00, -1.00, 313.8, 604.0)">e</text><text xml:space="preserve" font-family="Helvetica-Light" font-size="64.0" fill="#000000" transform="matrix(1.00, 0.00, -0.00, -1.00, 349.4, 604.0)">r</text><text xml:space="preserve" font-family="Helvetica-Light" font-size="64.0" fill="#000000" transform="matrix(1.00, 0.00, -0.00, -1.00, 369.6, 604.0)">e</text><text xml:space="preserve" font-family="Helvetica-Light" font-size="64.0" fill="#000000" transform="matrix(1.00, 0.00, -0.00, -1.00, 405.2, 604.0)">n</text><text xml:space="preserve" font-family="Helvetica-Light" font-size="64.0" fill="#000000" transform="matrix(1.00, 0.00, -0.00, -1.00, 440.8, 604.0)">t</text><text xml:space="preserve" font-family="Helvetica-Light" font-size="64.0" fill="#000000" transform="matrix(1.00, 0.00, -0.00, -1.00, 458.6, 604.0)">i</text><text xml:space="preserve" font-family="Helvetica-Light" font-size="64.0" fill="#000000" transform="matrix(1.00, 0.00, -0.00, -1.00, 472.8, 604.0)">a</text><text xml:space="preserve" font-family="Helvetica-Light" font-size="64.0" fill="#000000" transform="matrix(1.00, 0.00, -0.00, -1.00, 508.3, 604.0)">l</text><text xml:space="preserve" font-family="Helvetica-Light" font-size="64.0" fill="#000000" transform="matrix(1.00, 0.00, -0.00, -1.00, 522.6, 604.0)"> </text><text xml:space="preserve" font-family="Helvetica-Light" font-size="64.0" fill="#000000" transform="matrix(1.00, 0.00, -0.00, -1.00, 540.3, 604.0)">D</text><text xml:space="preserve" font-family="Helvetica-Light" font-size="64.0" fill="#000000" transform="matrix(1.00, 0.00, -0.00, -1.00, 586.6, 604.0)">a</text><text xml:space="preserve" font-family="Helvetica-Light" font-size="64.0" fill="#000000" transform="matrix(1.00, 0.00, -0.00, -1.00, 622.1, 604.0)">t</text><text xml:space="preserve" font-family="Helvetica-Light" font-size="64.0" fill="#000000" transform="matrix(1.00, 0.00, -0.00, -1.00, 639.9, 604.0)">a</text><text xml:space="preserve" font-family="Helvetica-Light" font-size="64.0" fill="#000000" transform="matrix(1.00, 0.00, -0.00, -1.00, 675.5, 604.0)">ﬂ</text><text xml:space="preserve" font-family="Helvetica-Light" font-size="64.0" fill="#000000" transform="matrix(1.00, 0.00, -0.00, -1.00, 707.5, 604.0)">o</text><text xml:space="preserve" font-family="Helvetica-Light" font-size="64.0" fill="#000000" transform="matrix(1.00, 0.00, -0.00, -1.00, 743.1, 604.0)">w</text><path d="M 0.0 0.0 L 394.5 0.0 L 397.0 0.0 " fill="none" stroke="#164E86" stroke-width="5.00" transform="matrix(1.00, 0.00, 0.00, -1.00, 522.6, 288.5)"></path><path d="M 917.1 278.3 L 937.5 288.5 L 917.1 298.7 Z M 917.1 278.3 " fill="#164E86"></path><path d="M 527.3 311.0 C 539.7 298.6 539.7 278.4 527.3 266.0 C 514.9 253.6 494.8 253.6 482.4 266.0 C 470.0 278.4 470.0 298.6 482.4 311.0 C 494.8 323.4 514.9 323.4 527.3 311.0 Z M 527.3 311.0 " fill="#51A7F9"></path><path d="M 54.2 9.3 C 66.6 21.7 66.6 41.8 54.2 54.2 C 41.8 66.6 21.7 66.6 9.3 54.2 C -3.1 41.8 -3.1 21.7 9.3 9.3 C 21.7 -3.1 41.8 -3.1 54.2 9.3 Z M 54.2 9.3 " fill="none" stroke="#164E86" stroke-width="5.00" transform="matrix(1.00, 0.00, 0.00, -1.00, 473.1, 320.3)"></path><g><clipPath id="clip-760"><path d="M 473.1 256.7 L 536.6 256.7 L 536.6 320.3 L 473.1 320.3 Z M 473.1 256.7 "></path></clipPath><g clip-path="url(#clip-760)"><text xml:space="preserve" font-family="Helvetica-Bold" font-weight="bold" font-size="24.0" fill="#FEFFFE" transform="matrix(1.00, 0.00, -0.00, -1.00, 488.0, 279.0)">O</text><text xml:space="preserve" font-family="Helvetica-Bold" font-weight="bold" font-size="24.0" fill="#FEFFFE" transform="matrix(1.00, 0.00, -0.00, -1.00, 506.7, 279.0)">p</text></g></g><path d="M 0.0 0.0 L 368.5 0.0 L 371.0 0.0 " fill="none" stroke="#164E86" stroke-width="5.00" transform="matrix(1.00, 0.00, 0.00, -1.00, 86.5, 288.5)"></path><path d="M 455.0 278.3 L 475.4 288.5 L 455.0 298.7 Z M 455.0 278.3 " fill="#164E86"></path><path d="M 350.0 274.6 L 350.0 302.3 C 350.0 310.6 356.7 317.3 365.0 317.3 L 389.3 317.3 C 397.6 317.3 404.3 310.6 404.3 302.3 L 404.3 274.6 C 404.3 266.3 397.6 259.6 389.3 259.6 L 365.0 259.6 C 356.7 259.6 350.0 266.3 350.0 274.6 Z M 350.0 274.6 " fill="#6FBF40"></path><path d="M 0.0 42.8 L 0.0 15.0 C 0.0 6.7 6.7 0.0 15.0 0.0 L 39.3 0.0 C 47.6 0.0 54.3 6.7 54.3 15.0 L 54.3 42.8 C 54.3 51.0 47.6 57.8 39.3 57.8 L 15.0 57.8 C 6.7 57.8 0.0 51.0 0.0 42.8 Z M 0.0 42.8 " fill="none" stroke="#0B5C18" stroke-width="5.00" transform="matrix(1.00, 0.00, 0.00, -1.00, 350.0, 317.3)"></path><g><clipPath id="clip-761"><path d="M 350.0 259.6 L 404.3 259.6 L 404.3 317.3 L 350.0 317.3 Z M 350.0 259.6 "></path></clipPath><g clip-path="url(#clip-761)"><text xml:space="preserve" font-family="Helvetica-Bold" font-weight="bold" font-size="24.0" fill="#FEFFFE" transform="matrix(1.00, 0.00, -0.00, -1.00, 370.0, 280.0)">x</text></g></g><path d="M 591.4 274.6 L 591.4 302.3 C 591.4 310.6 598.1 317.3 606.4 317.3 L 630.7 317.3 C 639.0 317.3 645.7 310.6 645.7 302.3 L 645.7 274.6 C 645.7 266.3 639.0 259.6 630.7 259.6 L 606.4 259.6 C 598.1 259.6 591.4 266.3 591.4 274.6 Z M 591.4 274.6 " fill="#B26AE1"></path><path d="M 0.0 42.8 L 0.0 15.0 C 0.0 6.7 6.7 0.0 15.0 0.0 L 39.3 0.0 C 47.6 0.0 54.3 6.7 54.3 15.0 L 54.3 42.8 C 54.3 51.0 47.6 57.8 39.3 57.8 L 15.0 57.8 C 6.7 57.8 0.0 51.0 0.0 42.8 Z M 0.0 42.8 " fill="none" stroke="#5E317B" stroke-width="5.00" transform="matrix(1.00, 0.00, 0.00, -1.00, 591.4, 317.3)"></path><g><clipPath id="clip-762"><path d="M 591.4 259.6 L 645.7 259.6 L 645.7 317.3 L 591.4 317.3 Z M 591.4 259.6 "></path></clipPath><g clip-path="url(#clip-762)"><text xml:space="preserve" font-family="Helvetica-Bold" font-weight="bold" font-size="24.0" fill="#FEFFFE" transform="matrix(1.00, 0.00, -0.00, -1.00, 612.0, 280.0)">y</text></g></g><path d="M 0.0 0.0 L 394.5 0.0 L 397.0 0.0 " fill="none" stroke="#164E86" stroke-width="5.00" transform="matrix(1.00, 0.00, 0.00, -1.00, 522.6, 200.5)"></path><path d="M 917.1 190.3 L 937.5 200.5 L 917.1 210.7 Z M 917.1 190.3 " fill="#164E86"></path><path d="M 527.3 223.0 C 539.7 210.6 539.7 190.4 527.3 178.0 C 514.9 165.6 494.8 165.6 482.4 178.0 C 470.0 190.4 470.0 210.6 482.4 223.0 C 494.8 235.4 514.9 235.4 527.3 223.0 Z M 527.3 223.0 " fill="#51A7F9"></path><path d="M 54.2 9.3 C 66.6 21.7 66.6 41.8 54.2 54.2 C 41.8 66.6 21.7 66.6 9.3 54.2 C -3.1 41.8 -3.1 21.7 9.3 9.3 C 21.7 -3.1 41.8 -3.1 54.2 9.3 Z M 54.2 9.3 " fill="none" stroke="#164E86" stroke-width="5.00" transform="matrix(1.00, 0.00, 0.00, -1.00, 473.1, 232.3)"></path><g><clipPath id="clip-763"><path d="M 473.1 168.7 L 536.6 168.7 L 536.6 232.3 L 473.1 232.3 Z M 473.1 168.7 "></path></clipPath><g clip-path="url(#clip-763)"><text xml:space="preserve" font-family="Helvetica-Bold" font-weight="bold" font-size="24.0" fill="#FEFFFE" transform="matrix(1.00, 0.00, -0.00, -1.00, 488.0, 191.0)">O</text><text xml:space="preserve" font-family="Helvetica-Bold" font-weight="bold" font-size="24.0" fill="#FEFFFE" transform="matrix(1.00, 0.00, -0.00, -1.00, 506.7, 191.0)">p</text></g></g><path d="M 0.0 0.0 L 368.5 0.0 L 371.0 0.0 " fill="none" stroke="#164E86" stroke-width="5.00" transform="matrix(1.00, 0.00, 0.00, -1.00, 86.5, 200.5)"></path><path d="M 455.0 190.3 L 475.4 200.5 L 455.0 210.7 Z M 455.0 190.3 " fill="#164E86"></path><path d="M 350.0 186.6 L 350.0 214.3 C 350.0 222.6 356.7 229.3 365.0 229.3 L 389.3 229.3 C 397.6 229.3 404.3 222.6 404.3 214.3 L 404.3 186.6 C 404.3 178.3 397.6 171.6 389.3 171.6 L 365.0 171.6 C 356.7 171.6 350.0 178.3 350.0 186.6 Z M 350.0 186.6 " fill="#6FBF40"></path><path d="M 0.0 42.8 L 0.0 15.0 C 0.0 6.7 6.7 0.0 15.0 0.0 L 39.3 0.0 C 47.6 0.0 54.3 6.7 54.3 15.0 L 54.3 42.8 C 54.3 51.0 47.6 57.8 39.3 57.8 L 15.0 57.8 C 6.7 57.8 0.0 51.0 0.0 42.8 Z M 0.0 42.8 " fill="none" stroke="#0B5C18" stroke-width="5.00" transform="matrix(1.00, 0.00, 0.00, -1.00, 350.0, 229.3)"></path><g><clipPath id="clip-764"><path d="M 350.0 171.6 L 404.3 171.6 L 404.3 229.3 L 350.0 229.3 Z M 350.0 171.6 "></path></clipPath><g clip-path="url(#clip-764)"><text xml:space="preserve" font-family="Helvetica-Bold" font-weight="bold" font-size="24.0" fill="#FEFFFE" transform="matrix(1.00, 0.00, -0.00, -1.00, 370.0, 192.0)">x</text></g></g><path d="M 591.4 186.6 L 591.4 214.3 C 591.4 222.6 598.1 229.3 606.4 229.3 L 630.7 229.3 C 639.0 229.3 645.7 222.6 645.7 214.3 L 645.7 186.6 C 645.7 178.3 639.0 171.6 630.7 171.6 L 606.4 171.6 C 598.1 171.6 591.4 178.3 591.4 186.6 Z M 591.4 186.6 " fill="#B26AE1"></path><path d="M 0.0 42.8 L 0.0 15.0 C 0.0 6.7 6.7 0.0 15.0 0.0 L 39.3 0.0 C 47.6 0.0 54.3 6.7 54.3 15.0 L 54.3 42.8 C 54.3 51.0 47.6 57.8 39.3 57.8 L 15.0 57.8 C 6.7 57.8 0.0 51.0 0.0 42.8 Z M 0.0 42.8 " fill="none" stroke="#5E317B" stroke-width="5.00" transform="matrix(1.00, 0.00, 0.00, -1.00, 591.4, 229.3)"></path><g><clipPath id="clip-765"><path d="M 591.4 171.6 L 645.7 171.6 L 645.7 229.3 L 591.4 229.3 Z M 591.4 171.6 "></path></clipPath><g clip-path="url(#clip-765)"><text xml:space="preserve" font-family="Helvetica-Bold" font-weight="bold" font-size="24.0" fill="#FEFFFE" transform="matrix(1.00, 0.00, -0.00, -1.00, 612.0, 192.0)">y</text></g></g><text xml:space="preserve" font-family="Helvetica-Light" font-size="36.0" fill="#000000" transform="matrix(1.00, 0.00, -0.00, -1.00, 284.0, 533.0)">w</text><text xml:space="preserve" font-family="Helvetica-Light" font-size="36.0" fill="#000000" transform="matrix(1.00, 0.00, -0.00, -1.00, 310.0, 533.0)">i</text><text xml:space="preserve" font-family="Helvetica-Light" font-size="36.0" fill="#000000" transform="matrix(1.00, 0.00, -0.00, -1.00, 318.0, 533.0)">t</text><text xml:space="preserve" font-family="Helvetica-Light" font-size="36.0" fill="#000000" transform="matrix(1.00, 0.00, -0.00, -1.00, 328.0, 533.0)">h</text><text xml:space="preserve" font-family="Helvetica-Light" font-size="36.0" fill="#000000" transform="matrix(1.00, 0.00, -0.00, -1.00, 348.0, 533.0)"> </text><text xml:space="preserve" font-family="Helvetica-Light" font-size="36.0" fill="#000000" transform="matrix(1.00, 0.00, -0.00, -1.00, 358.0, 533.0)">d</text><text xml:space="preserve" font-family="Helvetica-Light" font-size="36.0" fill="#000000" transform="matrix(1.00, 0.00, -0.00, -1.00, 380.0, 533.0)">a</text><text xml:space="preserve" font-family="Helvetica-Light" font-size="36.0" fill="#000000" transform="matrix(1.00, 0.00, -0.00, -1.00, 400.0, 533.0)">t</text><text xml:space="preserve" font-family="Helvetica-Light" font-size="36.0" fill="#000000" transform="matrix(1.00, 0.00, -0.00, -1.00, 410.0, 533.0)">a</text><text xml:space="preserve" font-family="Helvetica-Light" font-size="36.0" fill="#000000" transform="matrix(1.00, 0.00, -0.00, -1.00, 430.1, 533.0)">-</text><text xml:space="preserve" font-family="Helvetica-Light" font-size="36.0" fill="#000000" transform="matrix(1.00, 0.00, -0.00, -1.00, 442.0, 533.0)">p</text><text xml:space="preserve" font-family="Helvetica-Light" font-size="36.0" fill="#000000" transform="matrix(1.00, 0.00, -0.00, -1.00, 464.0, 533.0)">a</text><text xml:space="preserve" font-family="Helvetica-Light" font-size="36.0" fill="#000000" transform="matrix(1.00, 0.00, -0.00, -1.00, 484.1, 533.0)">r</text><text xml:space="preserve" font-family="Helvetica-Light" font-size="36.0" fill="#000000" transform="matrix(1.00, 0.00, -0.00, -1.00, 496.0, 533.0)">a</text><text xml:space="preserve" font-family="Helvetica-Light" font-size="36.0" fill="#000000" transform="matrix(1.00, 0.00, -0.00, -1.00, 516.1, 533.0)">l</text><text xml:space="preserve" font-family="Helvetica-Light" font-size="36.0" fill="#000000" transform="matrix(1.00, 0.00, -0.00, -1.00, 524.0, 533.0)">l</text><text xml:space="preserve" font-family="Helvetica-Light" font-size="36.0" fill="#000000" transform="matrix(1.00, 0.00, -0.00, -1.00, 532.0, 533.0)">e</text><text xml:space="preserve" font-family="Helvetica-Light" font-size="36.0" fill="#000000" transform="matrix(1.00, 0.00, -0.00, -1.00, 552.1, 533.0)">l</text><text xml:space="preserve" font-family="Helvetica-Light" font-size="36.0" fill="#000000" transform="matrix(1.00, 0.00, -0.00, -1.00, 560.0, 533.0)"> </text><text xml:space="preserve" font-family="Helvetica-Light" font-size="36.0" fill="#000000" transform="matrix(1.00, 0.00, -0.00, -1.00, 570.1, 533.0)">o</text><text xml:space="preserve" font-family="Helvetica-Light" font-size="36.0" fill="#000000" transform="matrix(1.00, 0.00, -0.00, -1.00, 590.1, 533.0)">p</text><text xml:space="preserve" font-family="Helvetica-Light" font-size="36.0" fill="#000000" transform="matrix(1.00, 0.00, -0.00, -1.00, 612.1, 533.0)">e</text><text xml:space="preserve" font-family="Helvetica-Light" font-size="36.0" fill="#000000" transform="matrix(1.00, 0.00, -0.00, -1.00, 632.1, 533.0)">r</text><text xml:space="preserve" font-family="Helvetica-Light" font-size="36.0" fill="#000000" transform="matrix(1.00, 0.00, -0.00, -1.00, 644.1, 533.0)">a</text><text xml:space="preserve" font-family="Helvetica-Light" font-size="36.0" fill="#000000" transform="matrix(1.00, 0.00, -0.00, -1.00, 664.1, 533.0)">t</text><text xml:space="preserve" font-family="Helvetica-Light" font-size="36.0" fill="#000000" transform="matrix(1.00, 0.00, -0.00, -1.00, 674.1, 533.0)">o</text><text xml:space="preserve" font-family="Helvetica-Light" font-size="36.0" fill="#000000" transform="matrix(1.00, 0.00, -0.00, -1.00, 694.1, 533.0)">r</text><text xml:space="preserve" font-family="Helvetica-Light" font-size="36.0" fill="#000000" transform="matrix(1.00, 0.00, -0.00, -1.00, 706.1, 533.0)">s</text></g></svg>