<?xml version="1.0" encoding="UTF-8" standalone="no"?><svg xmlns="http://www.w3.org/2000/svg" xmlns:xlink="http://www.w3.org/1999/xlink" clip-rule="evenodd" stroke-miterlimit="4.00" viewBox="0 0 72 71"><desc>SVG generated by Keynote</desc><defs></defs><g transform="matrix(1.00, 0.00, -0.00, -1.00, 0.0, 71.0)"><path d="M 58.3 58.0 C 70.7 45.6 70.7 25.4 58.3 13.0 C 45.9 0.6 25.8 0.6 13.4 13.0 C 1.0 25.4 1.0 45.6 13.4 58.0 C 25.8 70.4 45.9 70.4 58.3 58.0 Z M 58.3 58.0 " fill="#51A7F9"></path><path d="M 54.2 9.3 C 66.6 21.7 66.6 41.8 54.2 54.2 C 41.8 66.6 21.7 66.6 9.3 54.2 C -3.1 41.8 -3.1 21.7 9.3 9.3 C 21.7 -3.1 41.8 -3.1 54.2 9.3 Z M 54.2 9.3 " fill="none" stroke="#164E86" stroke-width="5.00" transform="matrix(1.00, 0.00, 0.00, -1.00, 4.1, 67.3)"></path><g><clipPath id="clip-719"><path d="M 4.1 3.7 L 67.6 3.7 L 67.6 67.3 L 4.1 67.3 Z M 4.1 3.7 "></path></clipPath><g clip-path="url(#clip-719)"><text xml:space="preserve" font-family="Helvetica-Bold" font-weight="bold" font-size="24.0" fill="#FEFFFE" transform="matrix(1.00, 0.00, -0.00, -1.00, 19.0, 26.0)">O</text><text xml:space="preserve" font-family="Helvetica-Bold" font-weight="bold" font-size="24.0" fill="#FEFFFE" transform="matrix(1.00, 0.00, -0.00, -1.00, 37.7, 26.0)">p</text></g></g></g></svg>