<?xml version="1.0" encoding="UTF-8" standalone="no"?><svg xmlns="http://www.w3.org/2000/svg" xmlns:xlink="http://www.w3.org/1999/xlink" clip-rule="evenodd" stroke-miterlimit="4.00" viewBox="0 0 144 71"><desc>SVG generated by Keynote</desc><defs></defs><g transform="matrix(1.00, 0.00, -0.00, -1.00, 0.0, 71.0)"><image xlink:href="../../90424130-BDDF-4A61-86DC-E4D9B7F50571/assets/DD44891F92DB8B92F8C4091EDA238BBD.png" width="141.00" height="64.00" transform="matrix(1.00, 0.00, -0.00, -1.01, 1.4, 65.6)" opacity="0.50"></image><path d="M 6.9 19.3 L 6.9 51.3 C 6.9 57.3 11.7 62.1 17.7 62.1 L 126.3 62.1 C 132.2 62.1 137.0 57.3 137.0 51.3 L 137.0 19.3 C 137.0 13.4 132.2 8.6 126.3 8.6 L 17.7 8.6 C 11.7 8.6 6.9 13.4 6.9 19.3 Z M 6.9 19.3 " fill="#51A7F9"></path><path d="M 0.0 42.7 L 0.0 10.7 C 0.0 4.8 4.8 0.0 10.7 0.0 L 119.3 0.0 C 125.3 0.0 130.1 4.8 130.1 10.7 L 130.1 42.7 C 130.1 48.7 125.3 53.5 119.3 53.5 L 10.7 53.5 C 4.8 53.5 0.0 48.7 0.0 42.7 Z M 0.0 42.7 " fill="none" stroke="#164E86" stroke-width="5.00" transform="matrix(1.00, 0.00, 0.00, -1.00, 6.9, 62.1)"></path></g></svg>