<?xml version="1.0" encoding="UTF-8" standalone="no"?><svg xmlns="http://www.w3.org/2000/svg" xmlns:xlink="http://www.w3.org/1999/xlink" clip-rule="evenodd" stroke-miterlimit="4.00" viewBox="0 0 144 72"><desc>SVG generated by Keynote</desc><defs></defs><g transform="matrix(1.00, 0.00, -0.00, -1.00, 0.0, 72.0)"><image xlink:href="../../90424130-BDDF-4A61-86DC-E4D9B7F50571/assets/DD44891F92DB8B92F8C4091EDA238BBD.png" width="141.00" height="64.00" transform="matrix(1.00, 0.00, -0.00, -1.01, 1.4, 66.2)" opacity="0.50"></image><path d="M 6.9 20.0 L 6.9 52.0 C 6.9 57.9 11.7 62.7 17.7 62.7 L 126.3 62.7 C 132.2 62.7 137.0 57.9 137.0 52.0 L 137.0 20.0 C 137.0 14.1 132.2 9.3 126.3 9.3 L 17.7 9.3 C 11.7 9.3 6.9 14.1 6.9 20.0 Z M 6.9 20.0 " fill="#6FBF40"></path><path d="M 0.0 42.7 L 0.0 10.7 C 0.0 4.8 4.8 0.0 10.7 0.0 L 119.3 0.0 C 125.3 0.0 130.1 4.8 130.1 10.7 L 130.1 42.7 C 130.1 48.7 125.3 53.5 119.3 53.5 L 10.7 53.5 C 4.8 53.5 0.0 48.7 0.0 42.7 Z M 0.0 42.7 " fill="none" stroke="#0B5C18" stroke-width="5.00" transform="matrix(1.00, 0.00, 0.00, -1.00, 6.9, 62.7)"></path></g></svg>