<?xml version="1.0" encoding="UTF-8" standalone="no"?><svg xmlns="http://www.w3.org/2000/svg" xmlns:xlink="http://www.w3.org/1999/xlink" clip-rule="evenodd" stroke-miterlimit="4.00" viewBox="0 0 172 284"><desc>SVG generated by Keynote</desc><defs></defs><g transform="matrix(1.00, 0.00, -0.00, -1.00, 0.0, 284.0)"><path d="M 83.3 281.6 L 73.4 240.5 L 8.6 240.5 C 5.9 240.5 3.6 238.3 3.6 235.5 L 3.6 8.6 C 3.6 5.8 5.9 3.6 8.6 3.6 L 163.4 3.6 C 166.1 3.6 168.4 5.8 168.4 8.6 L 168.4 235.5 C 168.4 238.3 166.1 240.5 163.4 240.5 L 93.3 240.5 L 83.3 281.6 Z M 83.3 281.6 " fill="#51A7F9"></path><path d="M 79.7 -41.1 L 69.7 0.0 L 5.0 0.0 C 2.2 0.0 0.0 2.2 0.0 5.0 L 0.0 231.9 C 0.0 234.7 2.2 236.9 5.0 236.9 L 159.7 236.9 C 162.5 236.9 164.7 234.7 164.7 231.9 L 164.7 5.0 C 164.7 2.2 162.5 0.0 159.7 0.0 L 89.7 0.0 L 79.7 -41.1 Z M 79.7 -41.1 " fill="none" stroke="#164E86" stroke-width="5.00" transform="matrix(1.00, 0.00, 0.00, -1.00, 3.6, 240.5)"></path></g></svg>