<?xml version="1.0" encoding="UTF-8" standalone="no"?><svg xmlns="http://www.w3.org/2000/svg" xmlns:xlink="http://www.w3.org/1999/xlink" clip-rule="evenodd" stroke-miterlimit="4.00" viewBox="0 0 62 66"><desc>SVG generated by Keynote</desc><defs></defs><g transform="matrix(1.00, 0.00, -0.00, -1.00, 0.0, 66.0)"><path d="M 3.8 19.1 L 3.8 46.9 C 3.8 55.2 10.5 61.9 18.8 61.9 L 43.1 61.9 C 51.4 61.9 58.1 55.2 58.1 46.9 L 58.1 19.1 C 58.1 10.8 51.4 4.1 43.1 4.1 L 18.8 4.1 C 10.5 4.1 3.8 10.8 3.8 19.1 Z M 3.8 19.1 " fill="#6FBF40"></path><path d="M 0.0 42.8 L 0.0 15.0 C 0.0 6.7 6.7 0.0 15.0 0.0 L 39.3 0.0 C 47.6 0.0 54.3 6.7 54.3 15.0 L 54.3 42.8 C 54.3 51.0 47.6 57.8 39.3 57.8 L 15.0 57.8 C 6.7 57.8 0.0 51.0 0.0 42.8 Z M 0.0 42.8 " fill="none" stroke="#0B5C18" stroke-width="5.00" transform="matrix(1.00, 0.00, 0.00, -1.00, 3.8, 61.9)"></path><g><clipPath id="clip-845"><path d="M 3.8 4.1 L 58.1 4.1 L 58.1 61.9 L 3.8 61.9 Z M 3.8 4.1 "></path></clipPath><g clip-path="url(#clip-845)"><text xml:space="preserve" font-family="Helvetica-Bold" font-weight="bold" font-size="24.0" fill="#FEFFFE" transform="matrix(1.00, 0.00, -0.00, -1.00, 17.0, 24.0)">d</text><text xml:space="preserve" font-family="Helvetica-Bold" font-weight="bold" font-size="24.0" fill="#FEFFFE" transform="matrix(1.00, 0.00, -0.00, -1.00, 31.7, 24.0)">x</text></g></g></g></svg>