<?xml version="1.0" encoding="UTF-8" standalone="no"?><svg xmlns="http://www.w3.org/2000/svg" xmlns:xlink="http://www.w3.org/1999/xlink" clip-rule="evenodd" stroke-miterlimit="4.00" viewBox="0 0 63 65"><desc>SVG generated by Keynote</desc><defs></defs><g transform="matrix(1.00, 0.00, -0.00, -1.00, 0.0, 65.0)"><path d="M 4.4 18.6 L 4.4 46.3 C 4.4 54.6 11.1 61.3 19.4 61.3 L 43.7 61.3 C 52.0 61.3 58.7 54.6 58.7 46.3 L 58.7 18.6 C 58.7 10.3 52.0 3.6 43.7 3.6 L 19.4 3.6 C 11.1 3.6 4.4 10.3 4.4 18.6 Z M 4.4 18.6 " fill="#B26AE1"></path><path d="M 0.0 42.8 L 0.0 15.0 C 0.0 6.7 6.7 0.0 15.0 0.0 L 39.3 0.0 C 47.6 0.0 54.3 6.7 54.3 15.0 L 54.3 42.8 C 54.3 51.0 47.6 57.8 39.3 57.8 L 15.0 57.8 C 6.7 57.8 0.0 51.0 0.0 42.8 Z M 0.0 42.8 " fill="none" stroke="#5E317B" stroke-width="5.00" transform="matrix(1.00, 0.00, 0.00, -1.00, 4.4, 61.3)"></path><g><clipPath id="clip-844"><path d="M 4.4 3.6 L 58.7 3.6 L 58.7 61.3 L 4.4 61.3 Z M 4.4 3.6 "></path></clipPath><g clip-path="url(#clip-844)"><text xml:space="preserve" font-family="Helvetica-Bold" font-weight="bold" font-size="24.0" fill="#FEFFFE" transform="matrix(1.00, 0.00, -0.00, -1.00, 25.0, 24.0)">y</text></g></g></g></svg>