<?xml version="1.0" encoding="UTF-8" standalone="no"?><svg xmlns="http://www.w3.org/2000/svg" xmlns:xlink="http://www.w3.org/1999/xlink" clip-rule="evenodd" stroke-miterlimit="4.00" viewBox="0 0 63 67"><desc>SVG generated by Keynote</desc><defs></defs><g transform="matrix(1.00, 0.00, -0.00, -1.00, 0.0, 67.0)"><path d="M 5.6 30.1 C 5.4 29.8 5.7 29.1 5.5 28.8 M 5.6 30.1 C 6.7 29.3 6.8 28.0 7.0 26.3 C 7.0 24.4 5.9 26.3 5.5 26.1 C 5.1 23.6 5.8 23.6 7.0 24.0 C 6.2 23.0 7.7 20.2 6.2 20.8 C 6.2 24.8 5.8 17.9 5.0 21.3 C 4.7 21.7 4.3 20.7 4.3 20.3 C 3.7 21.4 3.0 19.5 2.6 21.3 C 1.6 21.6 2.0 21.2 1.3 22.4 C 1.2 22.9 1.5 22.7 1.7 22.6 C 2.8 22.8 1.1 24.0 1.8 24.9 C 0.4 25.8 2.1 26.7 2.7 25.9 C 2.5 26.7 1.0 27.7 2.0 28.6 C 1.3 29.1 1.8 31.4 2.7 30.0 C 3.3 29.0 3.7 30.1 4.0 30.3 C 4.3 29.9 3.9 28.5 4.2 28.3 C 4.4 28.8 4.9 30.5 4.9 28.6 C 5.4 29.2 5.7 28.3 5.6 30.1 C 5.6 30.1 5.6 30.1 5.6 30.1 Z M 6.4 23.3 C 6.8 23.3 6.4 23.9 6.4 23.3 C 6.4 23.3 6.4 23.3 6.4 23.3 Z M 1.3 27.9 C 1.7 27.9 1.3 28.5 1.3 27.9 C 1.3 27.9 1.3 27.9 1.3 27.9 Z M 1.7 22.9 C 2.1 22.9 1.7 23.6 1.7 22.9 C 1.7 22.9 1.7 22.9 1.7 22.9 Z M 6.2 25.0 C 5.8 26.1 5.6 24.1 6.0 24.0 C 5.9 24.2 6.5 24.8 6.2 25.0 C 6.2 25.0 6.2 25.0 6.2 25.0 Z M 4.0 25.2 C 4.1 25.3 4.1 25.7 3.8 25.7 C 3.7 25.4 3.8 25.1 4.0 25.2 C 4.0 25.2 4.0 25.2 4.0 25.2 Z M 5.5 19.9 C 5.6 20.0 5.7 20.4 5.3 20.4 C 5.2 20.1 5.4 19.8 5.5 19.9 C 5.5 19.9 5.5 19.9 5.5 19.9 Z M 5.1 26.3 C 5.1 26.5 4.7 26.6 4.7 26.3 C 4.9 26.2 4.9 25.4 5.1 26.3 C 5.1 26.3 5.1 26.3 5.1 26.3 Z M 6.4 27.9 C 6.2 28.8 5.7 27.0 5.8 27.0 C 6.1 26.7 6.7 27.4 6.4 27.9 C 6.4 27.9 6.4 27.9 6.4 27.9 Z M 4.6 26.8 C 4.4 27.5 4.3 26.5 4.6 26.8 C 4.6 26.8 4.6 26.8 4.6 26.8 Z M 2.7 20.6 C 2.5 21.4 2.4 20.3 2.7 20.6 C 2.7 20.6 2.7 20.6 2.7 20.6 Z M 1.5 24.5 C 1.3 25.3 1.2 24.2 1.5 24.5 C 1.5 24.5 1.5 24.5 1.5 24.5 Z M 5.4 23.1 C 5.4 21.8 6.4 22.9 5.4 23.1 C 5.4 23.1 5.4 23.1 5.4 23.1 Z M 6.5 30.0 C 6.5 28.7 7.5 29.8 6.5 30.0 C 6.5 30.0 6.5 30.0 6.5 30.0 Z M 6.2 18.1 C 6.3 19.1 8.3 15.5 6.5 16.6 C 5.2 16.8 6.1 14.1 6.9 15.1 C 7.3 14.4 7.4 14.5 7.1 13.8 C 8.0 14.1 9.2 12.9 9.2 12.1 C 8.8 11.3 8.4 13.0 8.3 11.7 C 9.6 9.7 7.5 11.4 7.3 9.9 C 7.4 9.8 7.8 10.1 7.8 9.7 C 7.1 9.1 5.6 9.9 5.5 8.9 C 5.3 9.3 3.2 10.6 4.4 10.3 C 5.3 10.5 2.3 11.9 3.7 12.4 C 2.8 12.8 3.4 13.8 2.4 14.2 C 2.0 14.8 2.8 15.0 3.0 14.9 C 3.7 15.1 1.3 15.2 2.3 16.3 C 1.9 16.4 1.7 18.9 2.5 17.1 C 2.3 17.6 1.8 20.4 3.2 19.0 C 3.9 17.1 4.5 20.9 4.7 18.8 C 4.9 17.3 4.7 17.0 5.3 18.2 C 5.2 18.5 5.2 20.2 5.9 18.8 C 5.7 18.5 5.9 17.9 6.2 18.1 C 6.2 18.1 6.2 18.1 6.2 18.1 Z M 4.3 18.2 C 4.3 17.3 4.8 18.2 4.3 18.2 C 4.3 18.2 4.3 18.2 4.3 18.2 Z M 2.1 14.0 C 2.4 13.0 2.6 14.1 2.1 14.0 C 2.1 14.0 2.1 14.0 2.1 14.0 Z M 7.1 15.8 C 6.8 15.3 8.2 15.6 7.1 15.8 C 7.1 15.8 7.1 15.8 7.1 15.8 Z M 2.7 16.0 C 2.7 15.9 2.8 16.2 2.9 16.4 C 2.8 16.4 2.7 16.1 2.7 16.0 C 2.7 16.0 2.7 16.0 2.7 16.0 Z M 7.5 14.6 C 7.4 13.3 8.6 14.8 7.5 14.6 C 7.5 14.6 7.5 14.6 7.5 14.6 Z M 7.6 11.9 C 6.5 11.0 8.5 11.0 7.6 11.9 C 7.6 11.9 7.6 11.9 7.6 11.9 Z M 4.0 12.0 C 4.1 12.4 3.7 12.1 4.0 12.0 C 4.0 12.0 4.0 12.0 4.0 12.0 Z M 2.0 18.4 C 2.3 18.7 1.8 18.7 2.0 18.4 C 2.0 18.4 2.0 18.4 2.0 18.4 Z M 5.0 10.4 C 5.4 10.8 4.5 10.8 5.0 10.4 C 5.0 10.4 5.0 10.4 5.0 10.4 Z M 6.6 15.4 C 7.3 16.8 4.7 16.1 6.6 15.4 C 6.6 15.4 6.6 15.4 6.6 15.4 Z M 6.3 17.3 C 6.4 18.1 5.6 17.0 5.8 16.7 C 5.9 16.8 6.2 17.2 6.3 17.3 C 6.3 17.3 6.3 17.3 6.3 17.3 Z M 6.9 14.3 C 7.1 15.2 6.4 14.8 6.9 14.3 C 6.9 14.3 6.9 14.3 6.9 14.3 Z M 6.9 16.2 C 6.7 16.5 6.8 15.9 6.9 16.2 C 6.9 16.2 6.9 16.2 6.9 16.2 Z M 8.6 13.5 C 8.3 13.8 8.6 13.2 8.6 13.5 C 8.6 13.5 8.6 13.5 8.6 13.5 Z M 6.7 18.3 C 6.5 18.6 6.6 18.0 6.7 18.3 C 6.7 18.3 6.7 18.3 6.7 18.3 Z M 7.8 13.4 C 7.4 13.1 5.9 13.4 7.7 12.3 C 8.2 12.2 8.4 13.2 7.8 13.4 C 7.8 13.4 7.8 13.4 7.8 13.4 Z M 5.5 33.4 C 7.1 28.5 4.4 29.7 3.9 29.5 C 3.2 28.8 2.7 29.5 2.2 30.4 C 0.5 31.5 3.9 32.0 2.3 32.7 C -0.0 34.0 4.2 34.2 1.8 34.7 C 1.2 34.5 1.7 36.4 1.9 36.3 C 0.7 37.2 2.8 38.6 3.0 38.6 C 2.7 39.2 0.5 39.3 2.1 41.2 C 2.7 42.7 0.6 43.4 2.0 43.0 C 0.4 44.1 2.5 43.8 2.0 44.9 C 1.1 45.6 3.4 44.9 1.6 46.3 C 3.0 46.9 0.3 45.5 1.9 49.8 C 1.7 47.7 3.3 51.6 2.2 50.9 C 1.0 49.7 3.0 52.8 3.3 54.8 C 4.0 55.1 6.2 56.3 4.8 56.7 C 4.6 59.2 6.7 57.7 6.3 59.2 C 6.3 60.0 7.4 59.4 7.6 59.7 C 7.4 60.9 8.3 61.0 10.3 62.5 C 14.7 65.6 12.1 60.7 13.9 61.1 C 14.3 60.7 13.5 56.9 13.3 59.4 C 13.3 58.7 9.2 59.0 12.0 57.8 C 10.4 57.9 12.9 57.3 10.2 56.5 C 11.3 60.2 7.0 54.2 9.9 56.0 C 9.9 55.2 9.1 54.3 9.3 55.3 C 8.2 56.6 8.5 52.9 7.7 55.2 C 6.8 53.0 5.6 54.3 6.5 53.2 C 8.3 51.8 6.0 53.5 6.2 52.2 C 5.2 49.7 8.4 51.1 6.4 49.9 C 7.0 47.2 5.3 49.5 5.0 48.5 C 3.4 48.4 6.1 45.8 6.3 47.8 C 5.5 46.8 7.1 47.6 6.1 46.3 C 4.7 47.3 7.6 44.6 6.5 45.0 C 6.1 43.8 5.2 44.4 5.2 44.0 C 5.2 42.2 6.6 42.8 5.5 42.4 C 5.0 42.0 6.8 41.2 6.4 40.9 C 6.3 42.8 4.9 39.4 5.6 39.2 C 5.7 40.4 7.5 38.7 6.4 38.0 C 3.3 38.9 7.2 36.4 6.1 35.5 C 4.4 36.3 5.9 31.6 6.7 33.4 C 6.5 33.2 5.5 33.4 5.5 33.4 M 6.1 40.4 C 6.0 41.9 5.8 38.8 6.1 40.4 M 6.6 40.4 C 6.0 41.0 7.0 38.9 6.8 40.4 C 6.7 40.5 6.6 40.3 6.6 40.4 M 6.6 46.6 C 6.1 46.4 6.9 45.7 6.6 46.6 M 5.6 47.7 C 5.1 48.7 5.4 46.5 5.6 47.7 M 11.2 58.0 C 8.7 59.3 11.1 56.1 11.2 58.0 M 7.1 51.6 C 6.4 50.4 8.3 51.7 7.1 51.6 M 6.4 51.4 C 5.8 50.9 6.9 51.1 6.4 51.4 M 9.5 56.5 C 9.6 56.6 9.6 56.6 9.5 56.5 C 9.5 56.5 9.5 56.5 9.5 56.5 Z M 12.2 58.7 C 12.3 58.7 12.3 58.7 12.2 58.7 C 12.2 58.7 12.2 58.7 12.2 58.7 Z M 7.3 53.9 C 7.3 52.6 8.4 55.4 7.3 53.9 C 7.3 53.9 7.3 53.9 7.3 53.9 Z M 8.4 60.8 C 8.3 60.8 8.3 60.8 8.4 60.8 C 8.4 60.8 8.4 60.8 8.4 60.8 Z M 4.9 39.2 C 4.9 39.2 4.9 39.2 4.9 39.2 C 4.9 39.2 4.9 39.2 4.9 39.2 Z M 5.9 34.6 C 5.6 34.7 6.2 33.8 5.9 34.6 C 5.9 34.6 5.9 34.6 5.9 34.6 Z M 3.0 30.8 C 2.9 30.8 2.9 30.8 3.0 30.8 C 3.0 30.8 3.0 30.8 3.0 30.8 Z M 3.6 37.7 C 3.5 37.6 3.5 37.6 3.6 37.7 C 3.6 37.7 3.6 37.7 3.6 37.7 Z M 5.5 38.3 C 6.9 37.6 5.1 40.1 5.5 38.3 C 5.5 38.3 5.5 38.3 5.5 38.3 Z M 3.4 54.1 C 4.0 53.9 3.7 55.3 3.4 54.1 C 3.4 54.1 3.4 54.1 3.4 54.1 Z M 5.0 47.9 C 5.3 48.1 4.9 48.6 5.0 47.9 C 5.0 47.9 5.0 47.9 5.0 47.9 Z M 6.9 45.4 C 7.2 45.6 6.8 46.1 6.9 45.4 C 6.9 45.4 6.9 45.4 6.9 45.4 Z M 6.3 34.7 C 6.4 34.8 6.4 34.8 6.3 34.7 C 6.3 34.7 6.3 34.7 6.3 34.7 Z M 5.2 36.3 C 6.5 35.2 4.5 38.1 5.2 36.3 C 5.2 36.3 5.2 36.3 5.2 36.3 Z M 4.8 34.4 C 4.3 35.0 5.1 32.9 4.8 34.4 M 2.8 35.5 C 3.4 36.9 0.4 34.2 2.8 35.5 C 2.8 35.5 2.8 35.5 2.8 35.5 Z M 2.3 42.6 C 2.2 42.7 2.2 42.7 2.3 42.6 C 2.3 42.6 2.3 42.6 2.3 42.6 Z M 6.2 41.9 C 6.1 43.1 5.8 41.1 6.2 41.9 C 6.2 41.9 6.2 41.9 6.2 41.9 Z M 6.5 31.1 C 6.4 32.4 6.1 30.3 6.5 31.1 C 6.5 31.1 6.5 31.1 6.5 31.1 Z M 3.6 46.8 C 3.8 48.8 2.9 45.5 3.6 46.8 C 3.6 46.8 3.6 46.8 3.6 46.8 Z M 6.6 53.6 C 6.6 53.6 6.6 53.6 6.6 53.6 C 6.6 53.6 6.6 53.6 6.6 53.6 Z M 7.6 54.4 C 7.6 54.4 7.6 54.4 7.6 54.4 C 7.6 54.4 7.6 54.4 7.6 54.4 Z M 10.2 59.2 C 10.2 59.3 10.2 59.3 10.2 59.2 C 10.2 59.2 10.2 59.2 10.2 59.2 Z M 8.8 54.9 C 8.8 55.0 8.8 55.0 8.8 54.9 C 8.8 54.9 8.8 54.9 8.8 54.9 Z M 10.8 57.6 C 10.8 57.7 10.8 57.7 10.8 57.6 C 10.8 57.6 10.8 57.6 10.8 57.6 Z M 11.2 56.4 C 11.2 56.5 11.2 56.5 11.2 56.4 C 11.2 56.4 11.2 56.4 11.2 56.4 Z M 2.0 52.2 C 2.0 52.3 2.0 52.3 2.0 52.2 C 2.0 52.2 2.0 52.2 2.0 52.2 Z M 6.7 36.9 C 6.6 37.0 6.6 37.0 6.7 36.9 C 6.7 36.9 6.7 36.9 6.7 36.9 Z M 10.3 57.8 C 10.3 57.9 10.3 57.9 10.3 57.8 C 10.3 57.8 10.3 57.8 10.3 57.8 Z M 4.8 50.8 C 3.7 51.1 6.0 49.6 4.9 51.0 C 4.8 51.0 4.9 50.7 4.8 50.8 M 3.4 52.6 C 3.3 52.5 3.3 52.5 3.4 52.6 C 3.4 52.6 3.4 52.6 3.4 52.6 Z M 1.8 47.7 C 1.8 47.7 1.8 47.7 1.8 47.7 C 1.8 47.7 1.8 47.7 1.8 47.7 Z M 8.6 54.3 C 9.1 53.9 8.7 55.3 8.5 54.2 M 9.0 60.8 C 9.2 60.2 9.7 61.9 8.9 60.7 M 6.0 29.7 C 5.5 29.6 6.3 28.9 6.0 29.7 M 1.2 46.7 C 0.7 46.5 1.5 45.9 1.2 46.7 M 2.7 48.9 C 3.3 48.7 2.3 50.2 2.7 48.7 M 6.6 58.5 C 6.7 58.6 6.7 58.6 6.6 58.5 C 6.6 58.5 6.6 58.5 6.6 58.5 Z M 6.0 43.8 C 6.0 43.8 6.0 43.8 6.0 43.8 C 6.0 43.8 6.0 43.8 6.0 43.8 Z M 4.8 49.2 C 5.6 48.3 4.4 50.2 4.8 49.2 M 4.5 42.2 C 5.6 41.1 4.2 43.9 4.5 42.2 M 11.0 62.4 C 10.4 60.6 11.5 63.5 11.0 62.4 M 8.5 56.2 C 8.8 54.5 8.4 57.2 8.5 56.2 M 5.5 44.9 C 6.2 44.8 5.1 46.1 5.5 44.9 M 6.1 32.5 C 6.3 31.4 6.7 34.0 6.1 32.5 M 4.7 56.0 C 4.7 56.1 4.7 56.1 4.7 56.0 C 4.7 56.0 4.7 56.0 4.7 56.0 Z M 1.2 36.2 C 1.1 36.3 1.1 36.3 1.2 36.2 C 1.2 36.2 1.2 36.2 1.2 36.2 Z M 14.2 59.2 C 14.2 59.2 14.2 59.2 14.2 59.2 C 14.2 59.2 14.2 59.2 14.2 59.2 Z M 7.6 56.0 C 7.5 56.1 7.5 56.1 7.6 56.0 C 7.6 56.0 7.6 56.0 7.6 56.0 Z M 12.6 58.2 C 12.6 58.3 12.6 58.3 12.6 58.2 C 12.6 58.2 12.6 58.2 12.6 58.2 Z M 4.9 53.4 C 4.9 53.4 4.9 53.4 4.9 53.4 C 4.9 53.4 4.9 53.4 4.9 53.4 Z M 7.7 51.5 C 7.7 51.6 7.7 51.6 7.7 51.5 C 7.7 51.5 7.7 51.5 7.7 51.5 Z M 5.6 48.4 C 5.6 48.4 5.6 48.4 5.6 48.4 C 5.6 48.4 5.6 48.4 5.6 48.4 Z M 8.1 53.0 C 9.2 54.7 6.7 52.6 8.1 53.0 C 8.1 53.0 8.1 53.0 8.1 53.0 Z M 3.7 50.4 C 3.7 50.4 3.7 50.4 3.7 50.4 C 3.7 50.4 3.7 50.4 3.7 50.4 Z M 6.0 49.6 C 7.1 50.8 4.5 50.6 6.0 49.6 M 6.6 43.1 C 7.1 43.5 5.8 43.3 6.6 43.1 M 2.2 40.3 C 2.2 40.3 2.2 40.3 2.2 40.3 C 2.2 40.3 2.2 40.3 2.2 40.3 Z M 2.6 41.1 C 2.5 41.1 2.5 41.1 2.6 41.1 C 2.6 41.1 2.6 41.1 2.6 41.1 Z M 6.7 41.4 C 6.7 41.4 6.7 41.4 6.7 41.4 C 6.7 41.4 6.7 41.4 6.7 41.4 Z M 1.3 41.2 C 1.3 41.2 1.3 41.2 1.3 41.2 C 1.3 41.2 1.3 41.2 1.3 41.2 Z M 7.4 50.8 C 7.4 50.9 7.4 50.9 7.4 50.8 C 7.4 50.8 7.4 50.8 7.4 50.8 Z M 13.6 58.2 C 13.6 58.3 13.6 58.3 13.6 58.2 C 13.6 58.2 13.6 58.2 13.6 58.2 Z M 2.7 32.9 C 2.6 33.0 2.6 33.0 2.7 32.9 C 2.7 32.9 2.7 32.9 2.7 32.9 Z M 6.5 52.3 C 6.5 52.4 6.5 52.4 6.5 52.3 C 6.5 52.3 6.5 52.3 6.5 52.3 Z M 2.4 38.6 C 2.4 38.6 2.4 38.6 2.4 38.6 C 2.4 38.6 2.4 38.6 2.4 38.6 Z M 6.6 51.6 C 6.5 51.6 6.5 51.6 6.6 51.6 C 6.6 51.6 6.6 51.6 6.6 51.6 Z M 4.3 55.8 C 4.3 55.8 4.3 55.8 4.3 55.8 C 4.3 55.8 4.3 55.8 4.3 55.8 Z M 5.4 58.7 C 5.4 58.7 5.4 58.7 5.4 58.7 C 5.4 58.7 5.4 58.7 5.4 58.7 Z M 6.2 54.5 C 6.2 54.5 6.2 54.5 6.2 54.5 C 6.2 54.5 6.2 54.5 6.2 54.5 Z M 3.8 37.7 C 5.0 32.8 4.4 41.6 3.8 37.7 M 6.3 55.3 C 4.8 52.3 8.9 56.9 6.3 55.3 C 6.8 55.4 6.4 55.3 6.3 55.3 M 15.3 59.0 C 13.8 59.8 13.2 60.8 13.4 62.2 C 13.8 63.1 14.6 60.7 14.0 62.7 C 12.3 62.5 13.9 65.9 14.6 63.3 C 16.9 63.6 14.6 65.1 16.2 64.3 C 18.9 64.5 17.8 65.1 19.5 64.9 C 20.5 63.5 20.5 65.7 21.0 64.3 C 20.1 65.8 22.8 63.9 22.9 64.6 C 21.3 65.5 29.0 64.6 24.8 64.1 C 26.5 63.4 26.2 64.7 26.8 64.9 C 27.5 64.0 29.5 65.5 30.6 64.7 C 30.4 64.5 29.9 64.4 29.7 64.1 C 29.4 63.6 30.9 64.3 30.7 64.2 C 31.4 63.9 34.2 63.0 31.2 64.6 C 31.1 65.3 33.6 64.2 33.5 64.9 C 36.1 64.9 34.2 63.4 35.3 64.5 C 37.1 64.5 38.4 64.5 38.4 64.4 C 39.5 64.5 39.7 65.4 40.7 64.6 C 42.9 66.1 42.3 61.5 43.1 64.6 C 43.8 63.9 44.6 65.8 44.4 64.0 C 43.6 64.9 48.9 64.8 46.5 63.8 C 47.0 63.2 50.8 64.5 49.6 62.9 C 50.2 61.2 49.2 60.2 47.0 59.4 C 47.5 60.4 44.7 58.8 46.6 60.3 C 48.4 60.5 43.5 61.4 44.5 60.6 C 44.6 58.4 42.0 62.1 40.9 60.5 C 41.8 61.4 37.4 61.8 38.7 60.1 C 37.8 60.0 37.7 60.8 36.8 59.8 C 39.4 60.0 35.7 61.6 35.9 60.5 C 36.4 59.9 32.4 59.4 32.8 60.3 C 34.2 62.7 31.8 59.9 31.1 60.8 C 28.9 61.3 31.5 58.8 29.8 60.5 C 29.4 60.2 26.5 60.2 28.3 59.7 C 29.0 60.0 26.6 62.3 26.3 60.3 C 29.4 59.2 22.8 59.7 23.8 60.3 C 28.6 61.4 18.8 61.5 22.5 60.4 C 20.4 59.4 23.1 60.0 20.5 60.5 C 20.8 61.1 18.8 61.7 19.3 60.5 C 18.9 58.6 18.2 63.0 17.2 60.3 C 17.1 59.1 14.3 60.4 15.6 59.5 C 15.7 59.4 15.4 59.0 15.3 59.0 M 16.0 59.5 C 15.6 59.8 15.7 58.8 16.0 59.5 M 15.6 59.8 C 15.6 59.7 15.6 59.7 15.6 59.8 C 15.6 59.8 15.6 59.8 15.6 59.8 Z M 20.1 60.6 C 20.1 60.5 20.1 60.5 20.1 60.6 C 20.1 60.6 20.1 60.6 20.1 60.6 Z M 24.1 65.3 C 24.1 65.2 24.1 65.2 24.1 65.3 C 24.1 65.3 24.1 65.3 24.1 65.3 Z M 23.5 60.7 C 23.4 60.7 23.4 60.7 23.5 60.7 C 23.5 60.7 23.5 60.7 23.5 60.7 Z M 18.3 60.8 C 18.3 60.8 18.3 60.8 18.3 60.8 C 18.3 60.8 18.3 60.8 18.3 60.8 Z M 23.2 60.0 C 23.4 60.7 22.0 59.4 23.2 59.9 C 23.3 59.9 23.1 59.9 23.2 60.0 M 27.6 59.7 C 27.6 59.8 27.6 59.8 27.6 59.7 M 37.3 65.3 C 37.4 65.3 37.4 65.3 37.3 65.3 M 38.1 59.6 C 38.2 59.7 38.2 59.7 38.1 59.6 M 32.0 60.4 C 33.3 60.3 32.3 60.8 32.0 60.4 M 41.7 60.0 C 40.0 59.6 43.5 59.6 41.7 60.0 M 43.3 59.6 C 43.5 59.7 43.5 59.7 43.3 59.6 M 35.7 59.9 C 35.6 59.9 35.6 59.9 35.7 59.9 C 35.7 59.9 35.7 59.9 35.7 59.9 Z M 31.4 60.1 C 29.6 59.7 33.2 59.5 31.4 60.1 M 20.7 59.9 C 21.7 59.5 20.7 60.8 20.7 59.9 M 18.7 60.3 C 18.7 60.3 18.7 60.3 18.7 60.3 C 18.7 60.3 18.7 60.3 18.7 60.3 Z M 39.0 60.0 C 38.9 60.0 38.9 60.0 39.0 60.0 C 39.0 60.0 39.0 60.0 39.0 60.0 Z M 40.9 59.9 C 40.9 59.9 40.9 59.9 40.9 59.9 C 40.9 59.9 40.9 59.9 40.9 59.9 Z M 44.4 65.0 C 44.3 65.1 44.3 65.1 44.4 65.0 C 44.4 65.0 44.4 65.0 44.4 65.0 Z M 20.2 62.4 C 18.9 62.1 21.5 60.7 21.3 62.0 C 21.4 62.5 20.3 62.3 20.2 62.4 M 30.1 61.7 C 30.5 63.5 28.8 59.3 30.1 61.7 M 43.6 60.8 C 44.8 62.9 42.0 59.3 43.6 60.8 M 45.9 60.2 C 46.7 60.4 41.7 61.0 45.1 60.0 C 45.4 59.6 45.7 60.0 45.9 60.2 M 27.7 60.5 C 28.0 61.5 25.6 60.1 27.7 60.5 M 35.8 63.5 C 36.4 62.9 38.1 62.3 37.4 63.4 C 37.3 64.8 35.0 64.0 35.8 63.5 M 16.1 60.5 C 17.4 59.2 15.8 61.8 16.1 60.5 M 21.0 61.0 C 21.0 60.9 21.0 60.9 21.0 61.0 C 21.0 61.0 21.0 61.0 21.0 61.0 Z M 23.0 60.7 C 23.1 60.9 23.1 60.9 23.0 60.7 M 17.1 59.3 C 17.1 59.4 17.1 59.4 17.1 59.3 M 35.7 61.9 C 35.8 62.0 35.8 62.0 35.7 61.9 M 31.6 60.8 C 33.6 62.4 30.5 61.1 31.6 60.8 M 26.8 63.8 C 27.4 64.5 25.5 63.9 26.8 63.8 M 34.9 60.2 C 36.3 61.7 32.9 61.6 34.9 60.2 M 30.6 60.7 C 30.7 60.7 30.7 60.7 30.6 60.7 C 30.6 60.7 30.6 60.7 30.6 60.7 Z M 36.3 63.7 C 36.3 63.7 36.3 63.7 36.3 63.7 C 36.3 63.7 36.3 63.7 36.3 63.7 Z M 36.9 63.6 C 36.8 63.6 36.8 63.6 36.9 63.6 C 36.9 63.6 36.9 63.6 36.9 63.6 Z M 36.6 60.1 C 36.5 60.1 36.5 60.1 36.6 60.1 C 36.6 60.1 36.6 60.1 36.6 60.1 Z M 18.5 64.3 C 20.1 64.5 17.2 64.5 18.5 64.3 C 18.5 64.3 18.5 64.3 18.5 64.3 Z M 24.8 60.0 C 27.1 61.2 23.2 61.1 24.8 60.0 C 24.8 60.0 24.8 60.0 24.8 60.0 Z M 27.4 61.9 C 27.4 62.0 27.4 62.0 27.4 61.9 C 27.4 61.9 27.4 61.9 27.4 61.9 Z M 34.0 59.3 C 34.0 59.4 34.0 59.4 34.0 59.3 C 34.0 59.3 34.0 59.3 34.0 59.3 Z M 19.3 64.5 C 19.3 64.6 19.3 64.6 19.3 64.5 C 19.3 64.5 19.3 64.5 19.3 64.5 Z M 40.6 60.9 C 40.6 60.9 40.6 60.9 40.6 60.9 C 40.6 60.9 40.6 60.9 40.6 60.9 Z M 32.5 63.9 C 33.0 63.3 32.6 64.3 32.5 63.9 C 32.5 63.9 32.5 63.9 32.5 63.9 Z M 34.6 63.9 C 34.7 63.9 34.7 63.9 34.6 63.9 C 34.6 63.9 34.6 63.9 34.6 63.9 Z M 43.8 59.5 C 43.8 59.5 43.8 59.5 43.8 59.5 C 43.8 59.5 43.8 59.5 43.8 59.5 Z M 39.9 65.3 C 40.0 65.3 40.0 65.3 39.9 65.3 C 39.9 65.3 39.9 65.3 39.9 65.3 Z M 41.7 63.6 C 41.7 63.6 41.7 63.6 41.7 63.6 C 41.7 63.6 41.7 63.6 41.7 63.6 Z M 36.2 60.4 C 38.3 60.1 35.7 61.1 36.2 60.4 C 36.2 60.4 36.2 60.4 36.2 60.4 Z M 47.1 62.6 C 47.2 62.7 47.2 62.7 47.1 62.6 C 47.1 62.6 47.1 62.6 47.1 62.6 Z M 47.6 60.4 C 47.6 60.5 47.6 60.5 47.6 60.4 C 47.6 60.4 47.6 60.4 47.6 60.4 Z M 47.6 59.2 C 47.7 59.3 47.7 59.3 47.6 59.2 C 47.6 59.2 47.6 59.2 47.6 59.2 Z M 22.9 62.9 C 22.9 62.8 22.9 62.8 22.9 62.9 C 22.9 62.9 22.9 62.9 22.9 62.9 Z M 22.1 59.6 C 22.1 59.6 22.1 59.6 22.1 59.6 C 22.1 59.6 22.1 59.6 22.1 59.6 Z M 25.0 59.5 C 24.9 59.4 24.9 59.4 25.0 59.5 C 25.0 59.5 25.0 59.5 25.0 59.5 Z M 22.4 64.9 C 22.4 64.9 22.4 64.9 22.4 64.9 C 22.4 64.9 22.4 64.9 22.4 64.9 Z M 33.1 62.1 C 33.0 62.0 33.0 62.0 33.1 62.1 C 33.1 62.1 33.1 62.1 33.1 62.1 Z M 34.1 63.4 C 34.0 63.4 34.0 63.4 34.1 63.4 C 34.1 63.4 34.1 63.4 34.1 63.4 Z M 31.6 65.2 C 31.6 65.2 31.6 65.2 31.6 65.2 C 31.6 65.2 31.6 65.2 31.6 65.2 Z M 34.8 64.6 C 34.8 64.6 34.8 64.6 34.8 64.6 C 34.8 64.6 34.8 64.6 34.8 64.6 Z M 14.8 63.7 C 14.8 63.8 14.8 63.8 14.8 63.7 C 14.8 63.7 14.8 63.7 14.8 63.7 Z M 15.2 61.2 C 15.1 61.3 15.1 61.3 15.2 61.2 C 15.2 61.2 15.2 61.2 15.2 61.2 Z M 33.4 60.3 C 33.9 59.7 34.4 61.0 33.4 60.3 M 29.3 60.6 C 29.3 60.6 29.3 60.6 29.3 60.6 C 29.3 60.6 29.3 60.6 29.3 60.6 Z M 40.2 60.4 C 40.7 61.4 38.3 59.9 40.2 60.4 C 40.2 60.4 40.2 60.4 40.2 60.4 Z M 38.1 64.6 C 38.1 64.6 38.1 64.6 38.1 64.6 C 38.1 64.6 38.1 64.6 38.1 64.6 Z M 39.1 64.1 C 39.2 64.2 39.2 64.2 39.1 64.1 C 39.1 64.1 39.1 64.1 39.1 64.1 Z M 44.9 61.3 C 45.1 61.4 45.1 61.4 44.9 61.3 M 28.8 59.7 C 29.4 60.1 29.3 60.1 28.8 59.7 M 41.6 60.4 C 41.5 60.4 41.5 60.4 41.6 60.4 C 41.6 60.4 41.6 60.4 41.6 60.4 Z M 46.1 60.6 C 46.0 60.6 46.0 60.6 46.1 60.6 C 46.1 60.6 46.1 60.6 46.1 60.6 Z M 25.9 60.4 C 26.1 61.6 25.5 61.3 25.9 60.4 M 18.0 60.7 C 18.0 60.8 18.0 60.8 18.0 60.7 C 18.0 60.7 18.0 60.7 18.0 60.7 Z M 50.7 57.6 C 48.5 57.6 49.4 59.1 49.5 59.1 C 48.5 56.8 48.3 60.8 48.8 61.1 C 48.9 61.4 52.8 64.6 52.7 61.4 C 52.9 60.9 53.6 61.4 53.9 61.2 C 56.2 59.3 51.7 61.4 54.2 59.1 C 54.8 59.0 56.0 61.0 56.2 58.4 C 56.5 58.5 58.6 57.0 57.2 57.2 C 58.7 56.8 58.1 55.5 58.4 54.4 C 59.3 53.8 59.8 55.8 59.7 52.1 C 61.8 51.1 58.9 50.0 60.9 48.7 C 61.0 47.7 57.9 46.2 59.6 48.4 C 59.4 48.1 57.9 49.2 58.4 46.7 C 58.8 47.0 62.1 48.4 60.5 44.5 C 60.6 43.8 59.8 42.3 60.1 42.0 C 60.5 44.0 61.6 39.2 60.6 39.7 C 61.3 36.6 59.8 38.4 60.9 36.1 C 60.9 34.3 59.4 36.7 60.3 34.4 C 60.1 32.7 60.9 33.9 60.9 34.0 C 61.0 32.5 60.4 32.0 60.5 31.5 C 60.6 31.1 61.3 30.4 60.5 30.1 C 59.0 28.5 57.6 29.9 56.1 29.2 C 55.4 30.4 57.2 29.7 56.1 30.5 C 57.0 31.1 56.0 30.6 56.2 33.8 C 56.5 33.7 57.1 33.0 57.2 33.7 C 57.1 35.0 54.6 34.1 56.4 36.1 C 56.9 33.7 57.1 39.5 57.7 37.3 C 58.0 40.1 57.5 38.1 56.9 40.1 C 58.5 40.0 55.1 40.3 56.4 41.0 C 55.7 41.2 56.0 44.4 57.1 42.1 C 57.5 45.4 56.5 43.3 55.7 44.5 C 55.6 46.0 58.4 44.6 56.3 45.6 C 55.4 47.5 57.3 45.6 55.7 47.1 C 57.2 46.4 55.7 48.4 57.3 48.0 C 57.3 51.2 55.8 47.4 56.5 49.7 C 56.7 49.1 54.6 48.9 55.7 50.5 C 58.2 50.5 53.1 51.4 56.5 51.5 C 56.1 55.9 55.2 51.8 54.1 53.6 C 53.8 54.0 55.3 53.6 55.1 54.0 C 53.2 56.4 53.9 53.7 54.2 55.9 C 52.7 58.5 52.7 55.7 51.6 56.5 C 52.1 57.1 51.9 58.9 50.7 57.6 M 53.1 56.6 C 53.2 55.8 53.8 56.7 53.1 56.6 M 48.1 59.1 C 48.4 58.4 48.6 59.5 48.1 59.1 M 54.2 54.5 C 54.2 53.5 55.0 54.7 54.2 54.5 M 57.1 38.2 C 57.1 39.5 56.7 37.7 57.1 38.2 M 50.0 58.0 C 50.3 57.1 50.6 58.7 50.0 58.0 M 49.7 59.7 C 49.8 59.7 49.8 59.7 49.7 59.7 M 55.8 36.5 C 55.8 36.4 55.8 36.4 55.8 36.5 M 55.8 41.3 C 55.8 40.2 56.1 41.8 55.8 41.3 M 61.1 41.4 C 61.2 40.4 61.5 42.0 61.1 41.4 M 55.7 33.9 C 55.3 32.9 56.3 33.6 55.7 33.9 M 56.9 31.2 C 56.4 30.3 57.4 30.6 56.9 31.2 M 54.1 58.3 C 54.1 58.4 54.1 58.4 54.1 58.3 C 54.1 58.3 54.1 58.3 54.1 58.3 Z M 59.6 51.1 C 58.8 52.1 60.5 49.8 59.6 51.1 M 55.8 51.6 C 57.0 51.4 55.3 52.7 55.8 51.6 C 55.8 51.6 55.8 51.6 55.8 51.6 Z M 55.7 53.1 C 55.8 53.1 55.8 53.1 55.7 53.1 C 55.7 53.1 55.7 53.1 55.7 53.1 Z M 57.0 48.8 C 57.0 48.8 57.0 48.8 57.0 48.8 C 57.0 48.8 57.0 48.8 57.0 48.8 Z M 56.9 49.7 C 57.1 50.1 56.6 50.2 56.9 49.7 C 56.9 49.7 56.9 49.7 56.9 49.7 Z M 60.6 42.7 C 60.8 43.1 60.4 43.2 60.6 42.7 C 60.6 42.7 60.6 42.7 60.6 42.7 Z M 57.0 51.2 C 58.0 51.6 56.1 51.7 57.0 51.2 C 57.0 51.2 57.0 51.2 57.0 51.2 Z M 60.1 46.1 C 59.8 45.7 61.1 45.2 60.1 46.1 M 56.0 35.5 C 55.7 35.0 57.0 34.6 56.0 35.5 M 55.7 45.9 C 55.4 45.5 56.7 45.0 55.7 45.9 M 53.1 55.9 C 53.2 55.9 53.2 55.9 53.1 55.9 M 60.0 53.3 C 59.9 52.4 60.6 53.1 60.0 53.3 M 53.0 61.8 C 53.4 61.0 53.6 62.0 53.0 61.8 M 61.0 37.0 C 60.7 37.0 61.2 35.9 61.0 37.0 M 57.4 44.7 C 57.5 43.8 58.1 42.9 58.1 44.8 C 57.8 44.9 57.7 44.3 57.4 44.7 C 57.4 44.7 57.4 44.7 57.4 44.7 Z M 59.9 41.4 C 60.0 41.3 60.0 41.3 59.9 41.4 M 56.4 43.1 C 56.5 43.0 56.5 43.0 56.4 43.1 M 56.5 37.7 C 56.7 37.6 56.7 37.6 56.5 37.7 M 56.2 37.1 C 56.2 37.1 56.2 37.1 56.2 37.1 C 56.2 37.1 56.2 37.1 56.2 37.1 Z M 55.8 31.2 C 55.8 31.2 55.8 31.2 55.8 31.2 C 55.8 31.2 55.8 31.2 55.8 31.2 Z M 56.6 39.4 C 56.7 39.5 56.7 39.5 56.6 39.4 C 56.6 39.4 56.6 39.4 56.6 39.4 Z M 60.8 34.6 C 60.9 34.6 60.9 34.6 60.8 34.6 C 60.8 34.6 60.8 34.6 60.8 34.6 Z M 60.2 35.2 C 60.2 35.2 60.2 35.2 60.2 35.2 C 60.2 35.2 60.2 35.2 60.2 35.2 Z M 51.1 57.4 C 51.1 56.4 52.5 58.7 51.1 57.4 M 60.2 32.6 C 60.9 31.8 60.3 34.0 60.2 32.6 C 60.2 32.6 60.2 32.6 60.2 32.6 Z M 57.6 40.1 C 57.7 40.0 57.7 40.0 57.6 40.1 M 56.3 36.7 C 56.4 36.7 56.4 36.7 56.3 36.7 M 54.8 51.3 C 55.0 51.3 55.0 51.3 54.8 51.3 M 56.5 32.6 C 56.8 30.1 58.1 33.7 56.5 32.6 M 55.4 52.6 C 55.3 52.6 55.3 52.6 55.4 52.6 M 58.5 47.9 C 58.5 46.1 59.1 48.5 58.5 47.9 M 57.2 43.6 C 57.2 43.6 57.2 43.6 57.2 43.6 C 57.2 43.6 57.2 43.6 57.2 43.6 Z M 57.2 46.1 C 57.3 47.3 56.9 46.4 57.2 46.1 C 57.2 46.1 57.2 46.1 57.2 46.1 Z M 52.5 57.5 C 53.6 56.7 51.6 58.8 52.5 57.5 C 52.5 57.5 52.5 57.5 52.5 57.5 Z M 59.0 33.7 C 59.1 33.8 59.1 33.8 59.0 33.7 C 59.0 33.7 59.0 33.7 59.0 33.7 Z M 55.9 39.7 C 56.2 40.5 55.6 40.1 55.9 39.7 C 55.9 39.7 55.9 39.7 55.9 39.7 Z M 55.8 30.3 C 56.0 31.0 55.4 30.7 55.8 30.3 C 55.8 30.3 55.8 30.3 55.8 30.3 Z M 51.0 58.4 C 56.2 57.0 45.2 61.9 51.0 58.4 C 51.0 58.4 51.0 58.4 51.0 58.4 Z M 56.4 45.1 C 56.5 45.1 56.5 45.1 56.4 45.1 C 56.4 45.1 56.4 45.1 56.4 45.1 Z M 53.8 53.9 C 53.9 54.0 53.9 54.0 53.8 53.9 C 53.8 53.9 53.8 53.9 53.8 53.9 Z M 53.8 55.7 C 53.8 55.8 53.8 55.8 53.8 55.7 C 53.8 55.7 53.8 55.7 53.8 55.7 Z M 57.4 57.9 C 57.5 58.0 57.5 58.0 57.4 57.9 C 57.4 57.9 57.4 57.9 57.4 57.9 Z M 56.2 56.2 C 56.3 56.4 56.3 56.4 56.2 56.2 C 56.2 56.2 56.2 56.2 56.2 56.2 Z M 54.2 59.6 C 54.2 59.7 54.2 59.7 54.2 59.6 C 54.2 59.6 54.2 59.6 54.2 59.6 Z M 54.7 60.0 C 54.7 60.0 54.7 60.0 54.7 60.0 C 54.7 60.0 54.7 60.0 54.7 60.0 Z M 57.5 36.7 C 57.6 36.8 57.6 36.8 57.5 36.7 C 57.5 36.7 57.5 36.7 57.5 36.7 Z M 59.3 38.7 C 58.6 37.4 60.2 39.1 59.3 38.7 C 59.3 38.7 59.3 38.7 59.3 38.7 Z M 58.0 50.7 C 58.1 49.5 58.4 51.6 58.0 50.7 C 58.0 50.7 58.0 50.7 58.0 50.7 Z M 60.6 49.7 C 60.6 49.7 60.6 49.7 60.6 49.7 C 60.6 49.7 60.6 49.7 60.6 49.7 Z M 52.9 55.1 C 53.0 55.2 53.0 55.2 52.9 55.1 C 52.9 55.1 52.9 55.1 52.9 55.1 Z M 52.2 56.9 C 52.8 57.6 51.5 57.0 52.2 56.9 M 55.8 48.2 C 55.9 48.2 55.9 48.2 55.8 48.2 C 55.8 48.2 55.8 48.2 55.8 48.2 Z M 57.3 41.1 C 57.3 41.1 57.3 41.1 57.3 41.1 C 57.3 41.1 57.3 41.1 57.3 41.1 Z M 56.7 33.9 C 56.8 33.9 56.8 33.9 56.7 33.9 C 56.7 33.9 56.7 33.9 56.7 33.9 Z M 56.0 43.9 C 56.1 43.9 56.1 43.9 56.0 43.9 C 56.0 43.9 56.0 43.9 56.0 43.9 Z M 56.8 47.3 C 56.9 47.3 56.9 47.3 56.8 47.3 C 56.8 47.3 56.8 47.3 56.8 47.3 Z M 58.0 32.3 C 58.0 32.4 58.0 32.4 58.0 32.3 C 58.0 32.3 58.0 32.3 58.0 32.3 Z M 55.8 43.0 C 55.9 43.1 55.9 43.1 55.8 43.0 C 55.8 43.0 55.8 43.0 55.8 43.0 Z M 58.7 41.0 C 58.8 41.0 58.8 41.0 58.7 41.0 C 58.7 41.0 58.7 41.0 58.7 41.0 Z M 51.5 55.8 C 51.5 55.9 51.5 55.9 51.5 55.8 C 51.5 55.8 51.5 55.8 51.5 55.8 Z M 56.8 32.3 C 56.8 32.3 56.8 32.3 56.8 32.3 C 56.8 32.3 56.8 32.3 56.8 32.3 Z M 56.0 31.8 C 56.0 31.8 56.0 31.8 56.0 31.8 C 56.0 31.8 56.0 31.8 56.0 31.8 Z M 60.2 36.9 C 59.7 39.5 60.0 34.6 59.1 36.5 C 58.8 32.8 60.3 36.4 60.2 36.9 C 60.2 36.9 60.2 36.9 60.2 36.9 Z M 55.6 28.4 C 56.8 29.8 58.0 29.8 59.3 29.2 C 59.9 28.5 57.5 28.5 59.5 28.5 C 59.9 30.1 62.6 27.8 60.0 27.8 C 59.6 25.7 61.6 27.5 60.6 26.2 C 60.3 23.9 61.1 25.1 60.9 23.4 C 59.5 22.3 61.7 22.3 60.3 21.9 C 61.8 22.8 59.9 20.0 60.6 20.0 C 61.5 21.6 60.0 13.1 60.0 17.8 C 59.1 16.0 60.3 16.2 60.4 15.5 C 59.3 14.9 60.0 12.1 58.6 11.5 C 58.6 11.7 58.8 12.3 58.6 12.6 C 58.2 13.1 58.1 11.4 58.1 11.5 C 57.5 11.0 55.1 8.9 58.2 10.9 C 58.9 10.6 56.4 8.9 56.9 8.6 C 55.1 6.3 55.5 9.0 55.4 7.4 C 53.9 5.9 52.7 5.2 52.6 5.3 C 51.6 4.5 51.7 3.7 50.4 3.9 C 48.8 1.5 48.0 6.2 47.8 3.0 C 46.9 3.5 46.7 1.4 46.4 3.3 C 47.4 2.6 42.2 1.4 44.4 2.9 C 43.8 3.4 40.9 0.9 41.3 2.9 C 40.3 4.3 40.4 5.7 42.7 7.1 C 42.4 6.0 45.0 8.2 43.4 6.3 C 41.4 5.7 46.6 6.0 45.5 6.5 C 44.9 8.7 48.4 5.7 48.6 7.6 C 48.2 6.5 51.9 7.9 50.1 8.8 C 50.6 9.3 51.2 8.7 51.2 9.9 C 49.6 8.5 53.0 9.2 52.2 9.8 C 51.5 10.1 53.2 12.8 53.8 11.9 C 55.0 9.6 53.9 12.8 55.0 12.9 C 56.4 14.3 53.1 13.5 55.2 14.0 C 55.1 14.5 56.0 16.7 55.0 15.4 C 55.0 14.8 57.9 16.3 56.0 16.9 C 54.4 14.5 55.7 20.1 56.3 19.1 C 57.2 14.8 57.5 24.1 56.4 20.4 C 55.4 22.5 56.0 19.7 56.5 22.4 C 57.1 22.0 57.7 24.1 56.5 23.6 C 54.6 24.0 59.0 24.3 56.4 25.9 C 55.3 26.2 57.2 29.1 56.0 28.0 C 55.8 27.9 55.6 28.3 55.6 28.4 M 55.9 27.5 C 56.3 27.8 55.3 28.0 55.9 27.5 M 56.3 27.8 C 56.2 27.9 56.2 27.9 56.3 27.8 C 56.3 27.8 56.3 27.8 56.3 27.8 Z M 56.6 22.8 C 56.5 22.8 56.5 22.8 56.6 22.8 C 56.6 22.8 56.6 22.8 56.6 22.8 Z M 61.3 18.5 C 61.2 18.6 61.2 18.6 61.3 18.5 C 61.3 18.5 61.3 18.5 61.3 18.5 Z M 56.7 19.4 C 56.7 19.4 56.7 19.4 56.7 19.4 C 56.7 19.4 56.7 19.4 56.7 19.4 Z M 56.9 24.6 C 56.8 24.6 56.8 24.6 56.9 24.6 C 56.9 24.6 56.9 24.6 56.9 24.6 Z M 56.0 19.7 C 56.7 19.4 55.4 20.9 55.9 19.6 C 55.9 19.6 55.9 19.8 56.0 19.7 M 55.2 16.0 C 55.2 16.0 55.2 16.0 55.2 16.0 M 54.1 5.3 C 54.1 5.2 54.1 5.2 54.1 5.3 M 50.2 9.4 C 50.2 9.3 50.2 9.3 50.2 9.4 M 54.3 12.5 C 53.5 11.5 54.4 12.0 54.3 12.5 M 47.8 7.8 C 49.0 8.7 46.2 7.6 47.8 7.8 M 46.4 7.8 C 46.3 7.7 46.3 7.7 46.4 7.8 M 51.9 10.5 C 51.9 10.4 51.9 10.4 51.9 10.5 C 51.9 10.5 51.9 10.5 51.9 10.5 Z M 54.3 13.0 C 54.7 14.5 52.9 12.1 54.3 13.0 M 55.9 22.2 C 55.5 21.2 56.8 22.2 55.9 22.2 M 56.3 24.2 C 56.3 24.2 56.3 24.2 56.3 24.2 C 56.3 24.2 56.3 24.2 56.3 24.2 Z M 49.8 8.8 C 49.9 8.8 49.9 8.8 49.8 8.8 C 49.8 8.8 49.8 8.8 49.8 8.8 Z M 48.3 8.1 C 48.4 8.2 48.4 8.2 48.3 8.1 C 48.3 8.1 48.3 8.1 48.3 8.1 Z M 46.7 2.2 C 46.8 2.2 46.8 2.2 46.7 2.2 C 46.7 2.2 46.7 2.2 46.7 2.2 Z M 58.4 22.7 C 58.1 24.0 56.7 21.3 58.0 21.6 C 58.5 21.5 58.3 22.5 58.4 22.7 M 56.2 13.2 C 57.7 12.2 54.6 15.4 56.2 13.2 M 46.4 6.6 C 45.8 4.2 47.6 8.4 46.4 6.6 M 44.0 6.6 C 43.3 6.1 48.4 6.8 44.8 7.0 C 44.5 7.3 44.3 6.8 44.0 6.6 M 56.0 15.7 C 56.8 15.1 56.1 17.6 56.0 15.7 M 54.3 7.7 C 53.3 7.8 51.7 7.2 52.9 6.8 C 53.8 5.7 55.2 7.9 54.3 7.7 M 56.9 27.1 C 55.3 26.0 58.2 27.1 56.9 27.1 M 57.0 21.9 C 56.9 21.9 56.9 21.9 57.0 21.9 C 57.0 21.9 57.0 21.9 57.0 21.9 Z M 56.7 19.9 C 56.9 19.8 56.9 19.8 56.7 19.9 M 55.5 26.2 C 55.6 26.1 55.6 26.1 55.5 26.2 M 53.2 9.0 C 53.2 8.8 53.2 8.8 53.2 9.0 M 54.8 12.5 C 55.2 10.2 55.5 13.1 54.8 12.5 M 59.3 15.7 C 59.9 14.9 59.7 17.0 59.3 15.7 M 52.6 10.7 C 52.9 8.8 54.7 10.9 52.6 10.7 M 55.1 13.3 C 55.0 13.2 55.0 13.2 55.1 13.3 C 55.1 13.3 55.1 13.3 55.1 13.3 Z M 54.0 7.3 C 54.0 7.3 54.0 7.3 54.0 7.3 C 54.0 7.3 54.0 7.3 54.0 7.3 Z M 53.4 6.9 C 53.5 6.9 53.5 6.9 53.4 6.9 C 53.4 6.9 53.4 6.9 53.4 6.9 Z M 51.5 9.8 C 51.5 9.8 51.5 9.8 51.5 9.8 C 51.5 9.8 51.5 9.8 51.5 9.8 Z M 60.3 24.3 C 60.4 22.9 60.6 25.4 60.3 24.3 C 60.3 24.3 60.3 24.3 60.3 24.3 Z M 55.9 18.3 C 56.9 16.2 57.2 19.6 55.9 18.3 C 55.9 18.3 55.9 18.3 55.9 18.3 Z M 57.3 15.6 C 57.4 15.5 57.4 15.5 57.3 15.6 C 57.3 15.6 57.3 15.6 57.3 15.6 Z M 52.4 11.8 C 52.5 11.8 52.5 11.8 52.4 11.8 C 52.4 11.8 52.4 11.8 52.4 11.8 Z M 60.5 23.6 C 60.6 23.6 60.6 23.6 60.5 23.6 C 60.5 23.6 60.5 23.6 60.5 23.6 Z M 49.0 7.4 C 49.0 7.3 49.0 7.3 49.0 7.4 C 49.0 7.4 49.0 7.4 49.0 7.4 Z M 56.8 10.1 C 56.1 10.0 57.2 9.7 56.8 10.1 C 56.8 10.1 56.8 10.1 56.8 10.1 Z M 55.4 8.3 C 55.4 8.3 55.4 8.3 55.4 8.3 C 55.4 8.3 55.4 8.3 55.4 8.3 Z M 45.9 7.8 C 45.9 7.8 45.9 7.8 45.9 7.8 C 45.9 7.8 45.9 7.8 45.9 7.8 Z M 51.5 3.7 C 51.5 3.6 51.5 3.6 51.5 3.7 C 51.5 3.7 51.5 3.7 51.5 3.7 Z M 49.0 4.5 C 49.1 4.4 49.1 4.4 49.0 4.5 C 49.0 4.5 49.0 4.5 49.0 4.5 Z M 51.9 9.8 C 50.4 8.8 52.7 9.5 51.9 9.8 C 51.9 9.8 51.9 9.8 51.9 9.8 Z M 43.5 3.9 C 43.4 3.8 43.4 3.8 43.5 3.9 C 43.5 3.9 43.5 3.9 43.5 3.9 Z M 42.4 5.9 C 42.3 5.8 42.3 5.8 42.4 5.9 C 42.4 5.9 42.4 5.9 42.4 5.9 Z M 41.9 7.0 C 41.8 6.9 41.8 6.9 41.9 7.0 C 41.9 7.0 41.9 7.0 41.9 7.0 Z M 58.9 19.9 C 58.8 20.0 58.8 20.0 58.9 19.9 C 58.9 19.9 58.9 19.9 58.9 19.9 Z M 55.6 20.8 C 55.6 20.8 55.6 20.8 55.6 20.8 C 55.6 20.8 55.6 20.8 55.6 20.8 Z M 55.4 18.2 C 55.4 18.2 55.4 18.2 55.4 18.2 C 55.4 18.2 55.4 18.2 55.4 18.2 Z M 60.9 20.4 C 60.9 20.5 60.9 20.5 60.9 20.4 C 60.9 20.4 60.9 20.4 60.9 20.4 Z M 55.1 10.7 C 55.0 10.7 55.0 10.7 55.1 10.7 C 55.1 10.7 55.1 10.7 55.1 10.7 Z M 55.5 9.1 C 55.5 9.1 55.5 9.1 55.5 9.1 C 55.5 9.1 55.5 9.1 55.5 9.1 Z M 58.5 10.2 C 58.5 10.2 58.5 10.2 58.5 10.2 C 58.5 10.2 58.5 10.2 58.5 10.2 Z M 55.7 7.7 C 55.7 7.7 55.7 7.7 55.7 7.7 C 55.7 7.7 55.7 7.7 55.7 7.7 Z M 60.3 27.6 C 60.3 27.6 60.3 27.6 60.3 27.6 C 60.3 27.6 60.3 27.6 60.3 27.6 Z M 57.8 27.8 C 57.9 27.8 57.9 27.8 57.8 27.8 C 57.8 27.8 57.8 27.8 57.8 27.8 Z M 53.5 11.6 C 52.8 11.6 53.5 10.5 53.5 11.6 M 55.5 14.3 C 55.6 14.3 55.6 14.3 55.5 14.3 C 55.5 14.3 55.5 14.3 55.5 14.3 Z M 49.1 7.9 C 49.1 6.8 50.3 9.1 49.1 7.9 C 49.1 7.9 49.1 7.9 49.1 7.9 Z M 53.0 5.4 C 53.0 5.3 53.0 5.3 53.0 5.4 C 53.0 5.4 53.0 5.4 53.0 5.4 Z M 51.8 5.1 C 51.8 5.0 51.8 5.0 51.8 5.1 C 51.8 5.1 51.8 5.1 51.8 5.1 Z M 45.3 5.7 C 45.2 5.6 45.2 5.6 45.3 5.7 M 54.8 15.1 C 55.1 14.5 55.0 14.6 54.8 15.1 M 48.0 7.4 C 48.1 7.4 48.1 7.4 48.0 7.4 C 48.0 7.4 48.0 7.4 48.0 7.4 Z M 44.0 6.1 C 44.1 6.1 44.1 6.1 44.0 6.1 C 44.0 6.1 44.0 6.1 44.0 6.1 Z M 56.2 17.2 C 57.3 16.9 57.1 17.4 56.2 17.2 M 56.8 25.0 C 56.9 25.0 56.9 25.0 56.8 25.0 C 56.8 25.0 56.8 25.0 56.8 25.0 Z M 37.6 7.0 C 39.8 8.3 39.8 6.4 39.8 6.4 C 39.6 8.9 41.8 5.4 41.4 4.9 C 41.4 4.5 39.7 0.1 38.2 2.8 C 37.8 3.1 37.5 2.3 37.2 2.3 C 34.5 2.4 39.1 3.7 35.8 3.7 C 35.2 3.3 35.9 1.2 33.9 2.6 C 33.9 2.4 31.7 1.7 32.5 2.6 C 31.5 1.6 30.8 2.8 29.8 3.1 C 28.9 2.5 30.5 1.5 27.4 2.7 C 26.0 0.9 25.5 4.0 24.3 2.1 C 23.5 2.0 22.3 5.2 24.1 3.4 C 23.9 3.6 25.0 5.1 22.5 4.6 C 22.9 4.2 24.3 0.9 20.3 2.5 C 19.7 2.4 18.1 3.2 17.7 2.9 C 19.9 2.4 14.2 2.1 15.0 2.9 C 11.3 3.1 13.9 3.8 11.1 4.1 C 9.2 5.0 12.3 4.9 9.7 5.6 C 8.2 6.8 8.9 5.4 9.0 5.3 C 7.6 6.2 7.5 7.1 7.1 7.5 C 6.7 7.6 5.7 7.7 6.0 8.6 C 6.0 10.9 8.1 10.6 8.9 12.0 C 10.1 11.6 8.4 10.9 9.6 11.1 C 9.3 10.1 9.5 10.9 11.5 9.2 C 11.4 9.1 10.4 9.0 10.9 8.5 C 11.9 7.9 12.4 10.4 13.2 8.1 C 11.1 8.6 15.7 6.1 13.5 6.5 C 15.8 5.2 14.3 6.2 16.2 6.4 C 15.8 4.8 16.7 8.1 17.1 6.7 C 17.4 7.4 20.2 6.8 18.0 6.0 C 21.1 5.3 19.2 6.5 20.4 7.3 C 21.9 7.4 20.5 4.6 21.4 6.7 C 23.4 7.6 21.5 5.7 23.0 7.3 C 22.3 5.8 24.4 7.3 23.9 5.7 C 27.3 5.6 23.4 7.4 25.8 6.3 C 25.1 6.2 25.4 8.3 26.9 7.0 C 26.2 4.5 28.8 9.2 27.7 5.9 C 32.4 5.0 28.5 7.2 31.1 7.2 C 31.8 7.2 30.4 6.2 31.0 6.1 C 34.3 6.6 31.5 7.5 33.3 5.9 C 36.6 5.5 34.2 7.2 35.9 7.3 C 36.0 6.6 37.3 5.3 37.6 7.0 M 34.7 6.2 C 34.0 6.7 34.2 5.7 34.7 6.2 M 41.3 7.0 C 40.6 7.5 40.9 6.4 41.3 7.0 M 31.9 6.7 C 31.0 7.2 31.7 5.8 31.9 6.7 M 14.6 6.7 C 15.6 6.3 14.2 7.2 14.6 6.7 M 38.7 7.1 C 37.7 7.7 38.4 6.2 38.7 7.1 M 39.9 5.8 C 39.8 5.8 39.8 5.8 39.9 5.8 M 13.7 8.5 C 13.6 8.5 13.6 8.5 13.7 8.5 M 17.4 7.4 C 16.6 7.4 17.8 7.0 17.4 7.4 M 16.9 2.0 C 15.7 2.1 17.6 1.6 16.9 2.0 M 11.9 9.6 C 11.5 10.4 11.4 9.3 11.9 9.6 M 9.4 10.2 C 9.2 11.1 8.7 10.2 9.4 10.2 M 35.3 4.3 C 35.3 4.3 35.3 4.3 35.3 4.3 C 35.3 4.3 35.3 4.3 35.3 4.3 Z M 26.5 3.0 C 27.6 3.5 25.2 2.3 26.5 3.0 M 28.1 6.5 C 27.4 5.4 29.5 6.6 28.1 6.5 C 28.1 6.5 28.1 6.5 28.1 6.5 Z M 29.7 6.0 C 29.7 6.0 29.7 6.0 29.7 6.0 C 29.7 6.0 29.7 6.0 29.7 6.0 Z M 24.7 6.0 C 24.8 5.9 24.8 5.9 24.7 6.0 C 24.7 6.0 24.7 6.0 24.7 6.0 Z M 25.7 5.9 C 26.1 5.6 26.3 6.1 25.7 5.9 C 25.7 5.9 25.7 5.9 25.7 5.9 Z M 18.4 2.4 C 18.9 2.2 19.1 2.6 18.4 2.4 C 18.4 2.4 18.4 2.4 18.4 2.4 Z M 27.3 5.5 C 27.4 4.4 28.0 6.2 27.3 5.5 C 27.3 5.5 27.3 5.5 27.3 5.5 Z M 22.0 2.9 C 21.5 3.2 21.1 1.9 22.0 2.9 M 12.9 8.7 C 12.7 9.1 11.7 8.1 12.9 8.7 M 21.8 7.3 C 21.4 7.6 20.9 6.3 21.8 7.3 M 34.1 6.7 C 34.0 6.6 34.0 6.6 34.1 6.7 M 28.3 2.0 C 27.6 2.4 27.9 1.5 28.3 2.0 M 38.2 2.3 C 37.5 2.7 37.8 1.8 38.2 2.3 M 11.9 3.5 C 12.0 3.8 10.7 3.9 11.9 3.5 M 20.6 5.6 C 19.7 5.5 18.7 4.9 20.6 4.9 C 20.8 5.2 20.2 5.3 20.6 5.6 C 20.6 5.6 20.6 5.6 20.6 5.6 Z M 17.0 3.2 C 16.9 3.1 16.9 3.1 17.0 3.2 M 19.0 6.6 C 18.8 6.5 18.8 6.5 19.0 6.6 M 14.3 7.4 C 14.2 7.3 14.2 7.3 14.3 7.4 M 13.9 7.9 C 13.9 7.8 13.9 7.8 13.9 7.9 C 13.9 7.9 13.9 7.9 13.9 7.9 Z M 10.2 11.0 C 10.2 10.9 10.2 10.9 10.2 11.0 C 10.2 11.0 10.2 11.0 10.2 11.0 Z M 15.7 6.8 C 15.7 6.7 15.7 6.7 15.7 6.8 C 15.7 6.8 15.7 6.8 15.7 6.8 Z M 9.6 5.0 C 9.6 5.0 9.6 5.0 9.6 5.0 C 9.6 5.0 9.6 5.0 9.6 5.0 Z M 10.5 5.2 C 10.5 5.2 10.5 5.2 10.5 5.2 C 10.5 5.2 10.5 5.2 10.5 5.2 Z M 37.2 7.0 C 36.3 7.8 36.7 5.1 37.2 7.0 M 8.2 6.8 C 7.1 6.8 9.2 5.8 8.2 6.8 C 8.2 6.8 8.2 6.8 8.2 6.8 Z M 16.1 5.8 C 16.0 5.6 16.0 5.6 16.1 5.8 M 13.6 7.9 C 13.5 7.8 13.5 7.8 13.6 7.9 M 28.2 7.5 C 28.1 7.4 28.1 7.4 28.2 7.5 M 10.6 9.6 C 8.8 10.8 10.3 7.8 10.6 9.6 M 29.3 6.5 C 29.4 6.6 29.4 6.6 29.3 6.5 M 23.7 4.5 C 22.0 4.5 24.3 3.8 23.7 4.5 M 19.4 5.8 C 19.5 5.8 19.5 5.8 19.4 5.8 C 19.4 5.8 19.4 5.8 19.4 5.8 Z M 21.9 5.8 C 23.1 5.7 22.2 6.1 21.9 5.8 C 21.9 5.8 21.9 5.8 21.9 5.8 Z M 36.0 6.0 C 34.4 5.8 37.6 5.6 36.0 6.0 C 36.0 6.0 36.0 6.0 36.0 6.0 Z M 9.8 7.0 C 9.8 6.9 9.8 6.9 9.8 7.0 C 9.8 7.0 9.8 7.0 9.8 7.0 Z M 16.1 7.5 C 16.7 7.0 16.5 7.7 16.1 7.5 C 16.1 7.5 16.1 7.5 16.1 7.5 Z M 9.8 11.5 C 9.9 10.9 10.2 11.5 9.8 11.5 C 9.8 11.5 9.8 11.5 9.8 11.5 Z M 37.9 6.2 C 32.1 4.4 45.6 6.6 37.9 6.2 C 37.9 6.2 37.9 6.2 37.9 6.2 Z M 20.9 6.6 C 21.0 6.5 21.0 6.5 20.9 6.6 C 20.9 6.6 20.9 6.6 20.9 6.6 Z M 31.6 7.3 C 31.6 7.3 31.6 7.3 31.6 7.3 C 31.6 7.3 31.6 7.3 31.6 7.3 Z M 33.4 6.3 C 33.5 6.3 33.5 6.3 33.4 6.3 C 33.4 6.3 33.4 6.3 33.4 6.3 Z M 32.9 2.1 C 33.0 2.0 33.0 2.0 32.9 2.1 C 32.9 2.1 32.9 2.1 32.9 2.1 Z M 32.3 4.0 C 32.4 3.9 32.4 3.9 32.3 4.0 C 32.3 4.0 32.3 4.0 32.3 4.0 Z M 36.0 3.3 C 36.1 3.2 36.1 3.2 36.0 3.3 C 36.0 3.3 36.0 3.3 36.0 3.3 Z M 36.0 2.7 C 36.0 2.7 36.0 2.7 36.0 2.7 C 36.0 2.7 36.0 2.7 36.0 2.7 Z M 13.1 6.8 C 13.1 6.7 13.1 6.7 13.1 6.8 C 13.1 6.8 13.1 6.8 13.1 6.8 Z M 14.3 4.4 C 13.1 5.5 14.4 3.4 14.3 4.4 C 14.3 4.4 14.3 4.4 14.3 4.4 Z M 26.5 4.6 C 25.3 4.8 27.3 4.0 26.5 4.6 C 26.5 4.6 26.5 4.6 26.5 4.6 Z M 25.2 2.3 C 25.2 2.3 25.2 2.3 25.2 2.3 C 25.2 2.3 25.2 2.3 25.2 2.3 Z M 33.4 7.3 C 33.5 7.2 33.5 7.2 33.4 7.3 C 33.4 7.3 33.4 7.3 33.4 7.3 Z M 35.7 6.6 C 35.8 5.7 36.4 7.1 35.7 6.6 M 24.2 7.1 C 24.2 7.0 24.2 7.0 24.2 7.1 C 24.2 7.1 24.2 7.1 24.2 7.1 Z M 17.1 5.9 C 17.1 5.8 17.1 5.8 17.1 5.9 C 17.1 5.9 17.1 5.9 17.1 5.9 Z M 11.4 8.8 C 11.3 8.7 11.3 8.7 11.4 8.8 C 11.4 8.8 11.4 8.8 11.4 8.8 Z M 19.7 7.0 C 19.8 6.9 19.8 6.9 19.7 7.0 C 19.7 7.0 19.7 7.0 19.7 7.0 Z M 23.2 6.2 C 23.2 6.1 23.2 6.1 23.2 6.2 C 23.2 6.2 23.2 6.2 23.2 6.2 Z M 9.4 8.7 C 9.4 8.6 9.4 8.6 9.4 8.7 C 9.4 8.7 9.4 8.7 9.4 8.7 Z M 18.9 7.2 C 19.0 7.1 19.0 7.1 18.9 7.2 C 18.9 7.2 18.9 7.2 18.9 7.2 Z M 16.7 4.5 C 16.8 4.4 16.8 4.4 16.7 4.5 C 16.7 4.5 16.7 4.5 16.7 4.5 Z M 35.4 7.9 C 35.4 7.9 35.4 7.9 35.4 7.9 C 35.4 7.9 35.4 7.9 35.4 7.9 Z M 10.2 9.6 C 10.2 9.6 10.2 9.6 10.2 9.6 C 10.2 9.6 10.2 9.6 10.2 9.6 Z M 10.5 10.5 C 10.4 10.4 10.4 10.4 10.5 10.5 C 10.5 10.5 10.5 10.5 10.5 10.5 Z M 12.1 4.3 C 14.9 3.6 10.1 5.5 12.2 5.5 C 9.0 7.4 11.6 4.5 12.1 4.3 C 12.1 4.3 12.1 4.3 12.1 4.3 Z M 12.1 4.3 " fill="#0B5C18"></path></g></svg>