<?xml version="1.0" encoding="UTF-8" standalone="no"?><svg xmlns="http://www.w3.org/2000/svg" xmlns:xlink="http://www.w3.org/1999/xlink" clip-rule="evenodd" stroke-miterlimit="10" viewBox="0 0 163 130"><desc>SVG generated by Keynote</desc><defs></defs><g transform="matrix(1.00, 0.00, -0.00, -1.00, 0.0, 130.0)"><image xlink:href="0406CA9DDC69F348EAE0E2499FD9BF9E.png" width="160.00" height="123.00" transform="matrix(1.00, 0.00, -0.00, -1.00, 1.0, 124.7)" opacity="0.50"></image><path d="M 6.6 124.0 C 5.2 123.7 4.0 122.5 4.0 121.1 L 4.0 85.8 C 4.0 84.4 5.2 83.0 6.6 83.0 L 60.1 83.0 L 65.8 6.4 L 71.3 83.0 L 155.8 83.0 C 157.3 83.0 158.0 84.4 158.0 85.8 L 158.0 121.1 C 158.0 122.5 157.3 124.0 155.8 124.0 L 6.6 124.0 Z M 6.6 123.7 " fill="#DCDDE0"></path><g><clipPath id="clip0x7fd056f206c0"><path d="M 2.4 83.2 L 160.0 83.2 L 160.0 123.7 L 2.4 123.7 Z M 2.4 83.2 "></path></clipPath><g clip-path="url(#clip0x7fd056f206c0)"><text xml:space="preserve" font-family="Monaco,Monaco" font-size="18.0" fill="#002451" transform="matrix(1.00, 0.00, -0.00, -1.00, 26.0, 96.7)">d</text><text xml:space="preserve" font-family="Monaco,Monaco" font-size="18.0" fill="#002451" transform="matrix(1.00, 0.00, -0.00, -1.00, 36.8, 96.7)">a</text><text xml:space="preserve" font-family="Monaco,Monaco" font-size="18.0" fill="#002451" transform="matrix(1.00, 0.00, -0.00, -1.00, 47.6, 96.7)">t</text><text xml:space="preserve" font-family="Monaco,Monaco" font-size="18.0" fill="#002451" transform="matrix(1.00, 0.00, -0.00, -1.00, 58.4, 96.7)">a</text><text xml:space="preserve" font-family="Monaco,Monaco" font-size="18.0" fill="#002451" transform="matrix(1.00, 0.00, -0.00, -1.00, 69.2, 96.7)">,</text><text xml:space="preserve" font-family="Monaco,Monaco" font-size="18.0" fill="#002451" transform="matrix(1.00, 0.00, -0.00, -1.00, 80.0, 96.7)"> </text><text xml:space="preserve" font-family="Monaco,Monaco" font-size="18.0" fill="#002451" transform="matrix(1.00, 0.00, -0.00, -1.00, 90.8, 96.7)">i</text><text xml:space="preserve" font-family="Monaco,Monaco" font-size="18.0" fill="#002451" transform="matrix(1.00, 0.00, -0.00, -1.00, 101.6, 96.7)">t</text><text xml:space="preserve" font-family="Monaco,Monaco" font-size="18.0" fill="#002451" transform="matrix(1.00, 0.00, -0.00, -1.00, 112.4, 96.7)">e</text><text xml:space="preserve" font-family="Monaco,Monaco" font-size="18.0" fill="#002451" transform="matrix(1.00, 0.00, -0.00, -1.00, 123.2, 96.7)">r</text></g></g></g></svg>