<?xml version="1.0" encoding="UTF-8" standalone="no"?><svg xmlns="http://www.w3.org/2000/svg" xmlns:xlink="http://www.w3.org/1999/xlink" clip-rule="evenodd" stroke-miterlimit="10" viewBox="0 0 1024 768"><desc>SVG generated by Keynote</desc><defs></defs><g transform="matrix(1.00, 0.00, -0.00, -1.00, 0.0, 768.0)"><path d="M 0.0 768.0 L 1024.0 768.0 L 1024.0 0.0 L 0.0 0.0 Z M 0.0 768.0 " fill="#FEFFFF"></path><path d="M 261.5 343.0 L 261.5 456.7 C 261.5 469.0 271.7 478.5 283.9 478.5 L 729.4 478.5 C 741.7 478.5 751.5 469.0 751.5 456.7 L 751.5 342.5 C 751.5 330.2 741.7 320.5 729.4 320.5 L 283.9 320.5 C 271.7 320.5 261.5 330.7 261.5 343.0 Z M 261.7 342.5 " fill="#92D894"></path><path d="M -0.2 135.9 L -0.2 22.2 C -0.2 10.0 10.0 0.4 22.2 0.4 L 467.7 0.4 C 480.0 0.4 489.8 10.0 489.8 22.2 L 489.8 136.4 C 489.8 148.7 480.0 158.4 467.7 158.4 L 22.2 158.4 C 10.0 158.4 -0.2 148.2 -0.2 135.9 Z M 0.0 136.4 " fill="none" stroke="#00872A" stroke-width="5.00" transform="matrix(1.00, 0.00, 0.00, -1.00, 261.7, 478.9)"></path><path d="M 0.0 0.0 L 444.3 0.0 " fill="none" stroke="#000000" stroke-width="5.00" transform="matrix(-1.00, 0.00, 0.00, 1.00, 728.8, 444.0)"></path><path d="M 472.5 356.0 L 472.5 412.3 C 472.5 418.5 477.0 423.5 483.1 423.5 L 540.9 423.5 C 547.0 423.5 552.5 418.5 552.5 412.3 L 552.5 355.7 C 552.5 349.5 547.0 344.5 540.9 344.5 L 483.1 344.5 C 477.0 344.5 472.5 349.8 472.5 356.0 Z M 472.0 355.7 " fill="#51A7F9"></path><path d="M 0.5 67.5 L 0.5 11.2 C 0.5 5.0 5.0 -0.0 11.2 -0.0 L 68.9 -0.0 C 75.0 -0.0 80.5 5.0 80.5 11.2 L 80.5 67.8 C 80.5 74.0 75.0 79.0 68.9 79.0 L 11.2 79.0 C 5.0 79.0 0.5 73.7 0.5 67.5 Z M 0.0 67.8 " fill="none" stroke="#164E86" stroke-width="5.00" transform="matrix(1.00, 0.00, 0.00, -1.00, 472.0, 423.5)"></path><g><clipPath id="clip0x7fd056f4b350"><path d="M 472.0 344.5 L 552.0 344.5 L 552.0 423.5 L 472.0 423.5 Z M 472.0 344.5 "></path></clipPath><g clip-path="url(#clip0x7fd056f4b350)"><text xml:space="preserve" font-family="Helvetica-Bold,Helvetica" font-weight="bold" font-size="24.0" fill="#FEFFFE" transform="matrix(1.00, 0.00, -0.00, -1.00, 503.3, 375.0)">B</text></g></g><path d="M 322.5 356.0 L 322.5 412.3 C 322.5 418.5 327.0 423.5 333.1 423.5 L 390.9 423.5 C 397.0 423.5 402.5 418.5 402.5 412.3 L 402.5 355.7 C 402.5 349.5 397.0 344.5 390.9 344.5 L 333.1 344.5 C 327.0 344.5 322.5 349.8 322.5 356.0 Z M 322.0 355.7 " fill="#51A7F9"></path><path d="M 0.5 67.5 L 0.5 11.2 C 0.5 5.0 5.0 -0.0 11.2 -0.0 L 68.9 -0.0 C 75.0 -0.0 80.5 5.0 80.5 11.2 L 80.5 67.8 C 80.5 74.0 75.0 79.0 68.9 79.0 L 11.2 79.0 C 5.0 79.0 0.5 73.7 0.5 67.5 Z M 0.0 67.8 " fill="none" stroke="#164E86" stroke-width="5.00" transform="matrix(1.00, 0.00, 0.00, -1.00, 322.0, 423.5)"></path><g><clipPath id="clip0x7fd056f51d20"><path d="M 322.0 344.5 L 402.0 344.5 L 402.0 423.5 L 322.0 423.5 Z M 322.0 344.5 "></path></clipPath><g clip-path="url(#clip0x7fd056f51d20)"><text xml:space="preserve" font-family="Helvetica-Bold,Helvetica" font-weight="bold" font-size="24.0" fill="#FEFFFE" transform="matrix(1.00, 0.00, -0.00, -1.00, 353.3, 375.0)">A</text></g></g><path d="M 622.5 356.0 L 622.5 412.3 C 622.5 418.5 627.0 423.5 633.1 423.5 L 690.9 423.5 C 697.0 423.5 702.5 418.5 702.5 412.3 L 702.5 355.7 C 702.5 349.5 697.0 344.5 690.9 344.5 L 633.1 344.5 C 627.0 344.5 622.5 349.8 622.5 356.0 Z M 622.0 355.7 " fill="#51A7F9"></path><path d="M 0.5 67.5 L 0.5 11.2 C 0.5 5.0 5.0 -0.0 11.2 -0.0 L 68.9 -0.0 C 75.0 -0.0 80.5 5.0 80.5 11.2 L 80.5 67.8 C 80.5 74.0 75.0 79.0 68.9 79.0 L 11.2 79.0 C 5.0 79.0 0.5 73.7 0.5 67.5 Z M 0.0 67.8 " fill="none" stroke="#164E86" stroke-width="5.00" transform="matrix(1.00, 0.00, 0.00, -1.00, 622.0, 423.5)"></path><g><clipPath id="clip0x7fd056f54680"><path d="M 622.0 344.5 L 702.0 344.5 L 702.0 423.5 L 622.0 423.5 Z M 622.0 344.5 "></path></clipPath><g clip-path="url(#clip0x7fd056f54680)"><text xml:space="preserve" font-family="Helvetica-Bold,Helvetica" font-weight="bold" font-size="24.0" fill="#FEFFFE" transform="matrix(1.00, 0.00, -0.00, -1.00, 653.3, 375.0)">C</text></g></g><path d="M -0.4 0.5 L 48.9 0.5 L 51.6 0.5 " fill="none" stroke="#000000" stroke-width="5.00" transform="matrix(1.00, 0.00, 0.00, -1.00, 402.4, 384.0)"></path><path d="M 451.5 373.3 L 471.9 383.5 L 451.5 393.7 Z M 451.5 373.3 " fill="#000000"></path><path d="M -0.4 0.5 L 48.9 0.5 L 51.6 0.5 " fill="none" stroke="#000000" stroke-width="5.00" transform="matrix(1.00, 0.00, 0.00, -1.00, 552.4, 384.0)"></path><path d="M 601.5 373.3 L 621.9 383.5 L 601.5 393.7 Z M 601.5 373.3 " fill="#000000"></path><path d="M -0.4 0.5 L 64.6 0.5 L 66.6 0.5 " fill="none" stroke="#000000" stroke-width="5.00" transform="matrix(1.00, 0.00, 0.00, -1.00, 702.4, 384.0)"></path><path d="M 766.5 373.3 L 786.9 383.5 L 766.5 393.7 Z M 766.5 373.3 " fill="#000000"></path><path d="M -0.3 0.5 L 74.9 0.5 L 77.7 0.5 " fill="none" stroke="#000000" stroke-width="5.00" transform="matrix(1.00, 0.00, 0.00, -1.00, 226.3, 384.0)"></path><path d="M 301.5 373.3 L 321.9 383.5 L 301.5 393.7 Z M 301.5 373.3 " fill="#000000"></path><image xlink:href="../../397CEA9A-5F37-47D2-9D06-403FBA9C3B80/assets/D5F74321EFF07D94D465B93248306651.png" width="504.00" height="176.00" transform="matrix(1.00, 0.00, -0.00, -1.00, 284.0, 336.1)" opacity="0.50"></image><path d="M 666.8 335.1 L 654.0 304.0 L 293.4 304.0 C 289.9 304.0 287.0 301.1 287.0 297.6 L 287.0 171.5 C 287.0 167.9 289.9 165.0 293.4 165.0 L 778.2 165.0 C 781.7 165.0 785.0 167.9 785.0 171.5 L 785.0 297.6 C 785.0 301.1 781.7 304.0 778.2 304.0 L 679.6 304.0 L 666.8 335.1 Z M 666.8 335.1 " fill="#DCDDE0"></path><g><clipPath id="clip0x7fd056e95630"><path d="M 285.4 165.1 L 786.2 165.1 L 786.2 304.0 L 285.4 304.0 Z M 285.4 165.1 "></path></clipPath><g clip-path="url(#clip0x7fd056e95630)"><text xml:space="preserve" font-family="Monaco,Monaco" font-size="18.0" fill="#002451" transform="matrix(1.00, 0.00, -0.00, -1.00, 309.0, 265.7)">R</text><text xml:space="preserve" font-family="Monaco,Monaco" font-size="18.0" fill="#002451" transform="matrix(1.00, 0.00, -0.00, -1.00, 319.8, 265.7)">e</text><text xml:space="preserve" font-family="Monaco,Monaco" font-size="18.0" fill="#002451" transform="matrix(1.00, 0.00, -0.00, -1.00, 330.6, 265.7)">c</text><text xml:space="preserve" font-family="Monaco,Monaco" font-size="18.0" fill="#002451" transform="matrix(1.00, 0.00, -0.00, -1.00, 341.4, 265.7)">v</text><text xml:space="preserve" font-family="Monaco,Monaco" font-size="18.0" fill="#002451" transform="matrix(1.00, 0.00, -0.00, -1.00, 352.2, 265.7)">(</text><text xml:space="preserve" font-family="Monaco,Monaco" font-size="18.0" fill="#002451" transform="matrix(1.00, 0.00, -0.00, -1.00, 363.0, 265.7)">d</text><text xml:space="preserve" font-family="Monaco,Monaco" font-size="18.0" fill="#002451" transform="matrix(1.00, 0.00, -0.00, -1.00, 373.8, 265.7)">a</text><text xml:space="preserve" font-family="Monaco,Monaco" font-size="18.0" fill="#002451" transform="matrix(1.00, 0.00, -0.00, -1.00, 384.6, 265.7)">t</text><text xml:space="preserve" font-family="Monaco,Monaco" font-size="18.0" fill="#002451" transform="matrix(1.00, 0.00, -0.00, -1.00, 395.4, 265.7)">a</text><text xml:space="preserve" font-family="Monaco,Monaco" font-size="18.0" fill="#002451" transform="matrix(1.00, 0.00, -0.00, -1.00, 406.2, 265.7)">,</text><text xml:space="preserve" font-family="Monaco,Monaco" font-size="18.0" fill="#002451" transform="matrix(1.00, 0.00, -0.00, -1.00, 417.0, 265.7)"> </text><text xml:space="preserve" font-family="Monaco,Monaco" font-size="18.0" fill="#002451" transform="matrix(1.00, 0.00, -0.00, -1.00, 427.8, 265.7)">i</text><text xml:space="preserve" font-family="Monaco,Monaco" font-size="18.0" fill="#002451" transform="matrix(1.00, 0.00, -0.00, -1.00, 438.6, 265.7)">t</text><text xml:space="preserve" font-family="Monaco,Monaco" font-size="18.0" fill="#002451" transform="matrix(1.00, 0.00, -0.00, -1.00, 449.4, 265.7)">e</text><text xml:space="preserve" font-family="Monaco,Monaco" font-size="18.0" fill="#002451" transform="matrix(1.00, 0.00, -0.00, -1.00, 460.2, 265.7)">r</text><text xml:space="preserve" font-family="Monaco,Monaco" font-size="18.0" fill="#002451" transform="matrix(1.00, 0.00, -0.00, -1.00, 471.1, 265.7)">)</text><text xml:space="preserve" font-family="Monaco,Monaco" font-size="18.0" fill="#002451" transform="matrix(1.00, 0.00, -0.00, -1.00, 481.9, 265.7)">:</text><text xml:space="preserve" font-family="Monaco,Monaco" font-size="18.0" fill="#002451" transform="matrix(1.00, 0.00, -0.00, -1.00, 492.7, 265.7)"> </text><text xml:space="preserve" font-family="Monaco,Monaco" font-size="18.0" fill="#002451" transform="matrix(1.00, 0.00, -0.00, -1.00, 503.5, 265.7)"> </text><text xml:space="preserve" font-family="Monaco,Monaco" font-size="18.0" fill="#002451" transform="matrix(1.00, 0.00, -0.00, -1.00, 514.3, 265.7)"> </text><text xml:space="preserve" font-family="Monaco,Monaco" font-size="18.0" fill="#00872A" transform="matrix(1.00, 0.00, -0.00, -1.00, 525.0, 265.7)">/</text><text xml:space="preserve" font-family="Monaco,Monaco" font-size="18.0" fill="#00872A" transform="matrix(1.00, 0.00, -0.00, -1.00, 535.8, 265.7)">*</text><text xml:space="preserve" font-family="Monaco,Monaco" font-size="18.0" fill="#00872A" transform="matrix(1.00, 0.00, -0.00, -1.00, 546.6, 265.7)"> </text><text xml:space="preserve" font-family="Monaco,Monaco" font-size="18.0" fill="#00872A" transform="matrix(1.00, 0.00, -0.00, -1.00, 557.4, 265.7)">y</text><text xml:space="preserve" font-family="Monaco,Monaco" font-size="18.0" fill="#00872A" transform="matrix(1.00, 0.00, -0.00, -1.00, 568.2, 265.7)">o</text><text xml:space="preserve" font-family="Monaco,Monaco" font-size="18.0" fill="#00872A" transform="matrix(1.00, 0.00, -0.00, -1.00, 579.1, 265.7)">u</text><text xml:space="preserve" font-family="Monaco,Monaco" font-size="18.0" fill="#00872A" transform="matrix(1.00, 0.00, -0.00, -1.00, 589.9, 265.7)">r</text><text xml:space="preserve" font-family="Monaco,Monaco" font-size="18.0" fill="#00872A" transform="matrix(1.00, 0.00, -0.00, -1.00, 600.7, 265.7)"> </text><text xml:space="preserve" font-family="Monaco,Monaco" font-size="18.0" fill="#00872A" transform="matrix(1.00, 0.00, -0.00, -1.00, 611.5, 265.7)">c</text><text xml:space="preserve" font-family="Monaco,Monaco" font-size="18.0" fill="#00872A" transform="matrix(1.00, 0.00, -0.00, -1.00, 622.3, 265.7)">o</text><text xml:space="preserve" font-family="Monaco,Monaco" font-size="18.0" fill="#00872A" transform="matrix(1.00, 0.00, -0.00, -1.00, 633.1, 265.7)">d</text><text xml:space="preserve" font-family="Monaco,Monaco" font-size="18.0" fill="#00872A" transform="matrix(1.00, 0.00, -0.00, -1.00, 643.9, 265.7)">e</text><text xml:space="preserve" font-family="Monaco,Monaco" font-size="18.0" fill="#00872A" transform="matrix(1.00, 0.00, -0.00, -1.00, 654.7, 265.7)"> </text><text xml:space="preserve" font-family="Monaco,Monaco" font-size="18.0" fill="#00872A" transform="matrix(1.00, 0.00, -0.00, -1.00, 665.5, 265.7)">h</text><text xml:space="preserve" font-family="Monaco,Monaco" font-size="18.0" fill="#00872A" transform="matrix(1.00, 0.00, -0.00, -1.00, 676.3, 265.7)">e</text><text xml:space="preserve" font-family="Monaco,Monaco" font-size="18.0" fill="#00872A" transform="matrix(1.00, 0.00, -0.00, -1.00, 687.1, 265.7)">r</text><text xml:space="preserve" font-family="Monaco,Monaco" font-size="18.0" fill="#00872A" transform="matrix(1.00, 0.00, -0.00, -1.00, 697.9, 265.7)">e</text><text xml:space="preserve" font-family="Monaco,Monaco" font-size="18.0" fill="#00872A" transform="matrix(1.00, 0.00, -0.00, -1.00, 708.7, 265.7)"> </text><text xml:space="preserve" font-family="Monaco,Monaco" font-size="18.0" fill="#00872A" transform="matrix(1.00, 0.00, -0.00, -1.00, 719.5, 265.7)"> </text><text xml:space="preserve" font-family="Monaco,Monaco" font-size="18.0" fill="#00872A" transform="matrix(1.00, 0.00, -0.00, -1.00, 730.3, 265.7)">*</text><text xml:space="preserve" font-family="Monaco,Monaco" font-size="18.0" fill="#00872A" transform="matrix(1.00, 0.00, -0.00, -1.00, 741.1, 265.7)">/</text><text xml:space="preserve" font-family="Monaco,Monaco" font-size="18.0" fill="#002451" transform="matrix(1.00, 0.00, -0.00, -1.00, 309.0, 240.7)">S</text><text xml:space="preserve" font-family="Monaco,Monaco" font-size="18.0" fill="#002451" transform="matrix(1.00, 0.00, -0.00, -1.00, 319.8, 240.7)">e</text><text xml:space="preserve" font-family="Monaco,Monaco" font-size="18.0" fill="#002451" transform="matrix(1.00, 0.00, -0.00, -1.00, 330.6, 240.7)">n</text><text xml:space="preserve" font-family="Monaco,Monaco" font-size="18.0" fill="#002451" transform="matrix(1.00, 0.00, -0.00, -1.00, 341.4, 240.7)">d</text><text xml:space="preserve" font-family="Monaco,Monaco" font-size="18.0" fill="#002451" transform="matrix(1.00, 0.00, -0.00, -1.00, 352.2, 240.7)">(</text><text xml:space="preserve" font-family="Monaco,Monaco" font-size="18.0" fill="#002451" transform="matrix(1.00, 0.00, -0.00, -1.00, 363.0, 240.7)">d</text><text xml:space="preserve" font-family="Monaco,Monaco" font-size="18.0" fill="#002451" transform="matrix(1.00, 0.00, -0.00, -1.00, 373.8, 240.7)">a</text><text xml:space="preserve" font-family="Monaco,Monaco" font-size="18.0" fill="#002451" transform="matrix(1.00, 0.00, -0.00, -1.00, 384.6, 240.7)">t</text><text xml:space="preserve" font-family="Monaco,Monaco" font-size="18.0" fill="#002451" transform="matrix(1.00, 0.00, -0.00, -1.00, 395.4, 240.7)">a</text><text xml:space="preserve" font-family="Monaco,Monaco" font-size="18.0" fill="#002451" transform="matrix(1.00, 0.00, -0.00, -1.00, 406.2, 240.7)">,</text><text xml:space="preserve" font-family="Monaco,Monaco" font-size="18.0" fill="#002451" transform="matrix(1.00, 0.00, -0.00, -1.00, 417.0, 240.7)"> </text><text xml:space="preserve" font-family="Monaco,Monaco" font-size="18.0" fill="#002451" transform="matrix(1.00, 0.00, -0.00, -1.00, 427.8, 240.7)">i</text><text xml:space="preserve" font-family="Monaco,Monaco" font-size="18.0" fill="#002451" transform="matrix(1.00, 0.00, -0.00, -1.00, 438.6, 240.7)">t</text><text xml:space="preserve" font-family="Monaco,Monaco" font-size="18.0" fill="#002451" transform="matrix(1.00, 0.00, -0.00, -1.00, 449.4, 240.7)">e</text><text xml:space="preserve" font-family="Monaco,Monaco" font-size="18.0" fill="#002451" transform="matrix(1.00, 0.00, -0.00, -1.00, 460.2, 240.7)">r</text><text xml:space="preserve" font-family="Monaco,Monaco" font-size="18.0" fill="#002451" transform="matrix(1.00, 0.00, -0.00, -1.00, 471.1, 240.7)">)</text><text xml:space="preserve" font-family="Monaco,Monaco" font-size="18.0" fill="#002451" transform="matrix(1.00, 0.00, -0.00, -1.00, 481.9, 240.7)">:</text><text xml:space="preserve" font-family="Monaco,Monaco" font-size="18.0" fill="#002451" transform="matrix(1.00, 0.00, -0.00, -1.00, 492.7, 240.7)"> </text><text xml:space="preserve" font-family="Monaco,Monaco" font-size="18.0" fill="#002451" transform="matrix(1.00, 0.00, -0.00, -1.00, 503.5, 240.7)"> </text><text xml:space="preserve" font-family="Monaco,Monaco" font-size="18.0" fill="#002451" transform="matrix(1.00, 0.00, -0.00, -1.00, 514.3, 240.7)"> </text><text xml:space="preserve" font-family="Monaco,Monaco" font-size="18.0" fill="#00872A" transform="matrix(1.00, 0.00, -0.00, -1.00, 525.0, 240.7)">/</text><text xml:space="preserve" font-family="Monaco,Monaco" font-size="18.0" fill="#00872A" transform="matrix(1.00, 0.00, -0.00, -1.00, 535.8, 240.7)">*</text><text xml:space="preserve" font-family="Monaco,Monaco" font-size="18.0" fill="#00872A" transform="matrix(1.00, 0.00, -0.00, -1.00, 546.6, 240.7)"> </text><text xml:space="preserve" font-family="Monaco,Monaco" font-size="18.0" fill="#00872A" transform="matrix(1.00, 0.00, -0.00, -1.00, 557.4, 240.7)">y</text><text xml:space="preserve" font-family="Monaco,Monaco" font-size="18.0" fill="#00872A" transform="matrix(1.00, 0.00, -0.00, -1.00, 568.2, 240.7)">o</text><text xml:space="preserve" font-family="Monaco,Monaco" font-size="18.0" fill="#00872A" transform="matrix(1.00, 0.00, -0.00, -1.00, 579.1, 240.7)">u</text><text xml:space="preserve" font-family="Monaco,Monaco" font-size="18.0" fill="#00872A" transform="matrix(1.00, 0.00, -0.00, -1.00, 589.9, 240.7)">r</text><text xml:space="preserve" font-family="Monaco,Monaco" font-size="18.0" fill="#00872A" transform="matrix(1.00, 0.00, -0.00, -1.00, 600.7, 240.7)"> </text><text xml:space="preserve" font-family="Monaco,Monaco" font-size="18.0" fill="#00872A" transform="matrix(1.00, 0.00, -0.00, -1.00, 611.5, 240.7)">c</text><text xml:space="preserve" font-family="Monaco,Monaco" font-size="18.0" fill="#00872A" transform="matrix(1.00, 0.00, -0.00, -1.00, 622.3, 240.7)">o</text><text xml:space="preserve" font-family="Monaco,Monaco" font-size="18.0" fill="#00872A" transform="matrix(1.00, 0.00, -0.00, -1.00, 633.1, 240.7)">d</text><text xml:space="preserve" font-family="Monaco,Monaco" font-size="18.0" fill="#00872A" transform="matrix(1.00, 0.00, -0.00, -1.00, 643.9, 240.7)">e</text><text xml:space="preserve" font-family="Monaco,Monaco" font-size="18.0" fill="#00872A" transform="matrix(1.00, 0.00, -0.00, -1.00, 654.7, 240.7)"> </text><text xml:space="preserve" font-family="Monaco,Monaco" font-size="18.0" fill="#00872A" transform="matrix(1.00, 0.00, -0.00, -1.00, 665.5, 240.7)">c</text><text xml:space="preserve" font-family="Monaco,Monaco" font-size="18.0" fill="#00872A" transform="matrix(1.00, 0.00, -0.00, -1.00, 676.3, 240.7)">a</text><text xml:space="preserve" font-family="Monaco,Monaco" font-size="18.0" fill="#00872A" transform="matrix(1.00, 0.00, -0.00, -1.00, 687.1, 240.7)">l</text><text xml:space="preserve" font-family="Monaco,Monaco" font-size="18.0" fill="#00872A" transform="matrix(1.00, 0.00, -0.00, -1.00, 697.9, 240.7)">l</text><text xml:space="preserve" font-family="Monaco,Monaco" font-size="18.0" fill="#00872A" transform="matrix(1.00, 0.00, -0.00, -1.00, 708.7, 240.7)">s</text><text xml:space="preserve" font-family="Monaco,Monaco" font-size="18.0" fill="#00872A" transform="matrix(1.00, 0.00, -0.00, -1.00, 719.5, 240.7)"> </text><text xml:space="preserve" font-family="Monaco,Monaco" font-size="18.0" fill="#00872A" transform="matrix(1.00, 0.00, -0.00, -1.00, 730.3, 240.7)">*</text><text xml:space="preserve" font-family="Monaco,Monaco" font-size="18.0" fill="#00872A" transform="matrix(1.00, 0.00, -0.00, -1.00, 741.1, 240.7)">/</text><text xml:space="preserve" font-family="Monaco,Monaco" font-size="18.0" fill="#002451" transform="matrix(1.00, 0.00, -0.00, -1.00, 309.0, 190.7)">N</text><text xml:space="preserve" font-family="Monaco,Monaco" font-size="18.0" fill="#002451" transform="matrix(1.00, 0.00, -0.00, -1.00, 319.8, 190.7)">o</text><text xml:space="preserve" font-family="Monaco,Monaco" font-size="18.0" fill="#002451" transform="matrix(1.00, 0.00, -0.00, -1.00, 330.6, 190.7)">t</text><text xml:space="preserve" font-family="Monaco,Monaco" font-size="18.0" fill="#002451" transform="matrix(1.00, 0.00, -0.00, -1.00, 341.4, 190.7)">i</text><text xml:space="preserve" font-family="Monaco,Monaco" font-size="18.0" fill="#002451" transform="matrix(1.00, 0.00, -0.00, -1.00, 352.2, 190.7)">f</text><text xml:space="preserve" font-family="Monaco,Monaco" font-size="18.0" fill="#002451" transform="matrix(1.00, 0.00, -0.00, -1.00, 363.0, 190.7)">y</text><text xml:space="preserve" font-family="Monaco,Monaco" font-size="18.0" fill="#002451" transform="matrix(1.00, 0.00, -0.00, -1.00, 373.8, 190.7)">(</text><text xml:space="preserve" font-family="Monaco,Monaco" font-size="18.0" fill="#002451" transform="matrix(1.00, 0.00, -0.00, -1.00, 384.6, 190.7)">i</text><text xml:space="preserve" font-family="Monaco,Monaco" font-size="18.0" fill="#002451" transform="matrix(1.00, 0.00, -0.00, -1.00, 395.4, 190.7)">t</text><text xml:space="preserve" font-family="Monaco,Monaco" font-size="18.0" fill="#002451" transform="matrix(1.00, 0.00, -0.00, -1.00, 406.2, 190.7)">e</text><text xml:space="preserve" font-family="Monaco,Monaco" font-size="18.0" fill="#002451" transform="matrix(1.00, 0.00, -0.00, -1.00, 417.0, 190.7)">r</text><text xml:space="preserve" font-family="Monaco,Monaco" font-size="18.0" fill="#002451" transform="matrix(1.00, 0.00, -0.00, -1.00, 427.8, 190.7)">)</text><text xml:space="preserve" font-family="Monaco,Monaco" font-size="18.0" fill="#002451" transform="matrix(1.00, 0.00, -0.00, -1.00, 438.6, 190.7)">:</text><text xml:space="preserve" font-family="Monaco,Monaco" font-size="18.0" fill="#002451" transform="matrix(1.00, 0.00, -0.00, -1.00, 449.4, 190.7)"> </text><text xml:space="preserve" font-family="Monaco,Monaco" font-size="18.0" fill="#002451" transform="matrix(1.00, 0.00, -0.00, -1.00, 460.2, 190.7)"> </text><text xml:space="preserve" font-family="Monaco,Monaco" font-size="18.0" fill="#002451" transform="matrix(1.00, 0.00, -0.00, -1.00, 471.1, 190.7)"> </text><text xml:space="preserve" font-family="Monaco,Monaco" font-size="18.0" fill="#002451" transform="matrix(1.00, 0.00, -0.00, -1.00, 481.9, 190.7)"> </text><text xml:space="preserve" font-family="Monaco,Monaco" font-size="18.0" fill="#002451" transform="matrix(1.00, 0.00, -0.00, -1.00, 492.7, 190.7)"> </text><text xml:space="preserve" font-family="Monaco,Monaco" font-size="18.0" fill="#002451" transform="matrix(1.00, 0.00, -0.00, -1.00, 503.5, 190.7)"> </text><text xml:space="preserve" font-family="Monaco,Monaco" font-size="18.0" fill="#002451" transform="matrix(1.00, 0.00, -0.00, -1.00, 514.3, 190.7)"> </text><text xml:space="preserve" font-family="Monaco,Monaco" font-size="18.0" fill="#00872A" transform="matrix(1.00, 0.00, -0.00, -1.00, 525.0, 190.7)">/</text><text xml:space="preserve" font-family="Monaco,Monaco" font-size="18.0" fill="#00872A" transform="matrix(1.00, 0.00, -0.00, -1.00, 535.8, 190.7)">*</text><text xml:space="preserve" font-family="Monaco,Monaco" font-size="18.0" fill="#00872A" transform="matrix(1.00, 0.00, -0.00, -1.00, 546.6, 190.7)"> </text><text xml:space="preserve" font-family="Monaco,Monaco" font-size="18.0" fill="#00872A" transform="matrix(1.00, 0.00, -0.00, -1.00, 557.4, 190.7)">y</text><text xml:space="preserve" font-family="Monaco,Monaco" font-size="18.0" fill="#00872A" transform="matrix(1.00, 0.00, -0.00, -1.00, 568.2, 190.7)">o</text><text xml:space="preserve" font-family="Monaco,Monaco" font-size="18.0" fill="#00872A" transform="matrix(1.00, 0.00, -0.00, -1.00, 579.1, 190.7)">u</text><text xml:space="preserve" font-family="Monaco,Monaco" font-size="18.0" fill="#00872A" transform="matrix(1.00, 0.00, -0.00, -1.00, 589.9, 190.7)">r</text><text xml:space="preserve" font-family="Monaco,Monaco" font-size="18.0" fill="#00872A" transform="matrix(1.00, 0.00, -0.00, -1.00, 600.7, 190.7)"> </text><text xml:space="preserve" font-family="Monaco,Monaco" font-size="18.0" fill="#00872A" transform="matrix(1.00, 0.00, -0.00, -1.00, 611.5, 190.7)">c</text><text xml:space="preserve" font-family="Monaco,Monaco" font-size="18.0" fill="#00872A" transform="matrix(1.00, 0.00, -0.00, -1.00, 622.3, 190.7)">o</text><text xml:space="preserve" font-family="Monaco,Monaco" font-size="18.0" fill="#00872A" transform="matrix(1.00, 0.00, -0.00, -1.00, 633.1, 190.7)">d</text><text xml:space="preserve" font-family="Monaco,Monaco" font-size="18.0" fill="#00872A" transform="matrix(1.00, 0.00, -0.00, -1.00, 643.9, 190.7)">e</text><text xml:space="preserve" font-family="Monaco,Monaco" font-size="18.0" fill="#00872A" transform="matrix(1.00, 0.00, -0.00, -1.00, 654.7, 190.7)"> </text><text xml:space="preserve" font-family="Monaco,Monaco" font-size="18.0" fill="#00872A" transform="matrix(1.00, 0.00, -0.00, -1.00, 665.5, 190.7)">h</text><text xml:space="preserve" font-family="Monaco,Monaco" font-size="18.0" fill="#00872A" transform="matrix(1.00, 0.00, -0.00, -1.00, 676.3, 190.7)">e</text><text xml:space="preserve" font-family="Monaco,Monaco" font-size="18.0" fill="#00872A" transform="matrix(1.00, 0.00, -0.00, -1.00, 687.1, 190.7)">r</text><text xml:space="preserve" font-family="Monaco,Monaco" font-size="18.0" fill="#00872A" transform="matrix(1.00, 0.00, -0.00, -1.00, 697.9, 190.7)">e</text><text xml:space="preserve" font-family="Monaco,Monaco" font-size="18.0" fill="#00872A" transform="matrix(1.00, 0.00, -0.00, -1.00, 708.7, 190.7)"> </text><text xml:space="preserve" font-family="Monaco,Monaco" font-size="18.0" fill="#00872A" transform="matrix(1.00, 0.00, -0.00, -1.00, 719.5, 190.7)"> </text><text xml:space="preserve" font-family="Monaco,Monaco" font-size="18.0" fill="#00872A" transform="matrix(1.00, 0.00, -0.00, -1.00, 730.3, 190.7)">*</text><text xml:space="preserve" font-family="Monaco,Monaco" font-size="18.0" fill="#00872A" transform="matrix(1.00, 0.00, -0.00, -1.00, 741.1, 190.7)">/</text></g></g><image xlink:href="../../397CEA9A-5F37-47D2-9D06-403FBA9C3B80/assets/0406CA9DDC69F348EAE0E2499FD9BF9E.png" width="160.00" height="123.00" transform="matrix(1.00, 0.00, -0.00, -1.00, 365.0, 508.7)" opacity="0.50"></image><path d="M 370.6 508.0 C 369.2 507.7 368.0 506.5 368.0 505.1 L 368.0 469.8 C 368.0 468.4 369.2 467.0 370.6 467.0 L 424.1 467.0 L 429.8 390.4 L 435.3 467.0 L 519.8 467.0 C 521.3 467.0 522.0 468.4 522.0 469.8 L 522.0 505.1 C 522.0 506.5 521.3 508.0 519.8 508.0 L 370.6 508.0 Z M 370.6 507.7 " fill="#DCDDE0"></path><g><clipPath id="clip0x7fd056f5a6a0"><path d="M 366.4 467.2 L 524.0 467.2 L 524.0 507.7 L 366.4 507.7 Z M 366.4 467.2 "></path></clipPath><g clip-path="url(#clip0x7fd056f5a6a0)"><text xml:space="preserve" font-family="Monaco,Monaco" font-size="18.0" fill="#002451" transform="matrix(1.00, 0.00, -0.00, -1.00, 390.0, 480.7)">d</text><text xml:space="preserve" font-family="Monaco,Monaco" font-size="18.0" fill="#002451" transform="matrix(1.00, 0.00, -0.00, -1.00, 400.8, 480.7)">a</text><text xml:space="preserve" font-family="Monaco,Monaco" font-size="18.0" fill="#002451" transform="matrix(1.00, 0.00, -0.00, -1.00, 411.6, 480.7)">t</text><text xml:space="preserve" font-family="Monaco,Monaco" font-size="18.0" fill="#002451" transform="matrix(1.00, 0.00, -0.00, -1.00, 422.4, 480.7)">a</text><text xml:space="preserve" font-family="Monaco,Monaco" font-size="18.0" fill="#002451" transform="matrix(1.00, 0.00, -0.00, -1.00, 433.2, 480.7)">,</text><text xml:space="preserve" font-family="Monaco,Monaco" font-size="18.0" fill="#002451" transform="matrix(1.00, 0.00, -0.00, -1.00, 444.0, 480.7)"> </text><text xml:space="preserve" font-family="Monaco,Monaco" font-size="18.0" fill="#002451" transform="matrix(1.00, 0.00, -0.00, -1.00, 454.8, 480.7)">i</text><text xml:space="preserve" font-family="Monaco,Monaco" font-size="18.0" fill="#002451" transform="matrix(1.00, 0.00, -0.00, -1.00, 465.6, 480.7)">t</text><text xml:space="preserve" font-family="Monaco,Monaco" font-size="18.0" fill="#002451" transform="matrix(1.00, 0.00, -0.00, -1.00, 476.4, 480.7)">e</text><text xml:space="preserve" font-family="Monaco,Monaco" font-size="18.0" fill="#002451" transform="matrix(1.00, 0.00, -0.00, -1.00, 487.2, 480.7)">r</text></g></g><path d="M 0.0 0.0 L 60.0 0.0 " fill="none" stroke="#000000" stroke-width="5.00" transform="matrix(-0.02, 1.00, 1.00, 0.02, 727.0, 386.0)"></path><path d="M -0.0 0.2 L 39.6 0.2 L 42.0 0.2 " fill="none" stroke="#000000" stroke-width="5.00" transform="matrix(0.00, -1.00, -1.00, 0.00, 284.7, 446.0)"></path><path d="M 274.3 406.5 L 284.5 386.1 L 294.7 406.5 Z M 274.3 406.5 " fill="#000000"></path><g><clipPath id="clip0x7fd056f60750"><path d="M 160.0 372.4 L 322.5 372.4 L 322.5 543.5 L 160.0 543.5 Z M 160.0 372.4 "></path></clipPath><g clip-path="url(#clip0x7fd056f60750)"><image xlink:href="../../397CEA9A-5F37-47D2-9D06-403FBA9C3B80/assets/AF7F0C018C8D5B8695E1A4A6D0C84AC7.png" width="160.00" height="169.00" transform="matrix(1.00, 0.00, -0.00, -1.00, 161.0, 542.5)" opacity="0.50"></image><path d="M 166.6 542.0 C 165.2 541.5 164.0 540.4 164.0 538.9 L 164.0 503.6 C 164.0 502.2 165.2 501.0 166.6 501.0 L 237.8 501.0 L 243.4 378.4 L 249.0 501.0 L 315.9 501.0 C 317.3 501.0 318.0 502.2 318.0 503.6 L 318.0 538.9 C 318.0 540.4 317.3 542.0 315.9 542.0 L 166.6 542.0 Z M 166.6 541.5 " fill="#DCDDE0"></path></g></g><g><clipPath id="clip0x7fd056f619e0"><path d="M 162.4 501.0 L 320.1 501.0 L 320.1 541.5 L 162.4 541.5 Z M 162.4 501.0 "></path></clipPath><g clip-path="url(#clip0x7fd056f619e0)"><text xml:space="preserve" font-family="Monaco,Monaco" font-size="18.0" fill="#002451" transform="matrix(1.00, 0.00, -0.00, -1.00, 186.0, 514.5)">d</text><text xml:space="preserve" font-family="Monaco,Monaco" font-size="18.0" fill="#002451" transform="matrix(1.00, 0.00, -0.00, -1.00, 196.8, 514.5)">a</text><text xml:space="preserve" font-family="Monaco,Monaco" font-size="18.0" fill="#002451" transform="matrix(1.00, 0.00, -0.00, -1.00, 207.7, 514.5)">t</text><text xml:space="preserve" font-family="Monaco,Monaco" font-size="18.0" fill="#002451" transform="matrix(1.00, 0.00, -0.00, -1.00, 218.5, 514.5)">a</text><text xml:space="preserve" font-family="Monaco,Monaco" font-size="18.0" fill="#002451" transform="matrix(1.00, 0.00, -0.00, -1.00, 229.3, 514.5)">,</text><text xml:space="preserve" font-family="Monaco,Monaco" font-size="18.0" fill="#002451" transform="matrix(1.00, 0.00, -0.00, -1.00, 240.1, 514.5)"> </text><text xml:space="preserve" font-family="Monaco,Monaco" font-size="18.0" fill="#002451" transform="matrix(1.00, 0.00, -0.00, -1.00, 250.9, 514.5)">t</text><text xml:space="preserve" font-family="Monaco,Monaco" font-size="18.0" fill="#002451" transform="matrix(1.00, 0.00, -0.00, -1.00, 261.7, 514.5)">i</text><text xml:space="preserve" font-family="Monaco,Monaco" font-size="18.0" fill="#002451" transform="matrix(1.00, 0.00, -0.00, -1.00, 272.5, 514.5)">m</text><text xml:space="preserve" font-family="Monaco,Monaco" font-size="18.0" fill="#002451" transform="matrix(1.00, 0.00, -0.00, -1.00, 283.3, 514.5)">e</text></g></g><g><clipPath id="clip0x7fd056f67550"><path d="M 72.0 316.8 L 228.4 316.8 L 228.4 482.4 L 72.0 482.4 Z M 72.0 316.8 "></path></clipPath><g clip-path="url(#clip0x7fd056f67550)"><path d="M 75.5 343.0 L 75.5 456.7 C 75.5 469.0 85.5 478.5 97.7 478.5 L 202.7 478.5 C 215.0 478.5 224.5 469.0 224.5 456.7 L 224.5 342.5 C 224.5 330.2 215.0 320.5 202.7 320.5 L 97.7 320.5 C 85.5 320.5 75.5 330.7 75.5 343.0 Z M 75.5 342.5 " fill="#92D894"></path><path d="M -0.0 135.9 L -0.0 22.2 C -0.0 10.0 10.0 0.4 22.2 0.4 L 127.2 0.4 C 139.5 0.4 149.0 10.0 149.0 22.2 L 149.0 136.4 C 149.0 148.7 139.5 158.4 127.2 158.4 L 22.2 158.4 C 10.0 158.4 -0.0 148.2 -0.0 135.9 Z M 0.0 136.4 " fill="none" stroke="#00872A" stroke-width="5.00" transform="matrix(1.00, 0.00, 0.00, -1.00, 75.5, 478.9)"></path></g></g><g><clipPath id="clip0x7fd056f692f0"><path d="M 73.0 320.3 L 227.4 320.3 L 227.4 478.9 L 73.0 478.9 Z M 73.0 320.3 "></path></clipPath><g clip-path="url(#clip0x7fd056f692f0)"><text xml:space="preserve" font-family="Helvetica-Bold,Helvetica" font-weight="bold" font-size="36.0" fill="#FEFFFE" transform="matrix(1.00, 0.00, -0.00, -1.00, 126.2, 386.3)">U</text><text xml:space="preserve" font-family="Helvetica-Bold,Helvetica" font-weight="bold" font-size="36.0" fill="#FEFFFE" transform="matrix(1.00, 0.00, -0.00, -1.00, 152.2, 386.3)">p</text></g></g></g></svg>