<?xml version="1.0" encoding="UTF-8" standalone="no"?><svg xmlns="http://www.w3.org/2000/svg" xmlns:xlink="http://www.w3.org/1999/xlink" clip-rule="evenodd" stroke-miterlimit="10" viewBox="0 0 154 62"><desc>SVG generated by Keynote</desc><defs></defs><g transform="matrix(1.00, 0.00, -0.00, -1.00, 0.0, 62.0)"><g><clipPath id="clip0x7fd057606e10"><path d="M 0.5 0.0 L 58.8 0.0 L 58.8 62.0 L 0.5 62.0 Z M 0.5 0.0 "></path></clipPath><g clip-path="url(#clip0x7fd057606e10)"><path d="M 4.5 11.0 L 4.5 50.7 C 4.5 55.0 7.5 58.5 11.8 58.5 L 47.5 58.5 C 51.8 58.5 55.5 55.0 55.5 50.7 L 55.5 11.3 C 55.5 7.0 51.8 3.5 47.5 3.5 L 11.8 3.5 C 7.5 3.5 4.5 6.7 4.5 11.0 Z M 4.0 11.3 " fill="#51A7F9"></path><path d="M 0.5 47.5 L 0.5 7.8 C 0.5 3.5 3.5 -0.0 7.8 -0.0 L 43.5 -0.0 C 47.8 -0.0 51.5 3.5 51.5 7.8 L 51.5 47.2 C 51.5 51.5 47.8 55.0 43.5 55.0 L 7.8 55.0 C 3.5 55.0 0.5 51.8 0.5 47.5 Z M 0.0 47.2 " fill="none" stroke="#164E86" stroke-width="5.00" transform="matrix(1.00, 0.00, 0.00, -1.00, 4.0, 58.5)"></path></g></g><g><clipPath id="clip0x7fd057608e50"><path d="M 4.0 3.5 L 55.3 3.5 L 55.3 58.5 L 4.0 58.5 Z M 4.0 3.5 "></path></clipPath><g clip-path="url(#clip0x7fd057608e50)"><text xml:space="preserve" font-family="Helvetica-Bold,Helvetica" font-weight="bold" font-size="24.0" fill="#FEFFFE" transform="matrix(1.00, 0.00, -0.00, -1.00, 21.0, 22.5)">B</text></g></g><g><clipPath id="clip0x7fd05760a460"><path d="M 51.0 0.0 L 153.8 0.0 L 153.8 62.0 L 51.0 62.0 Z M 51.0 0.0 "></path></clipPath><g clip-path="url(#clip0x7fd05760a460)"><path d="M 54.5 11.0 L 54.5 50.7 C 54.5 55.0 58.0 58.5 62.3 58.5 L 142.5 58.5 C 146.8 58.5 150.5 55.0 150.5 50.7 L 150.5 11.3 C 150.5 7.0 146.8 3.5 142.5 3.5 L 62.3 3.5 C 58.0 3.5 54.5 6.7 54.5 11.0 Z M 54.5 11.3 " fill="#B26AE1"></path><path d="M -0.0 47.5 L -0.0 7.8 C -0.0 3.5 3.5 -0.0 7.8 -0.0 L 88.0 -0.0 C 92.3 -0.0 96.0 3.5 96.0 7.8 L 96.0 47.2 C 96.0 51.5 92.3 55.0 88.0 55.0 L 7.8 55.0 C 3.5 55.0 -0.0 51.8 -0.0 47.5 Z M 0.0 47.2 " fill="none" stroke="#164E86" stroke-width="5.00" transform="matrix(1.00, 0.00, 0.00, -1.00, 54.5, 58.5)"></path></g></g><g><clipPath id="clip0x7fd05760c220"><path d="M 54.5 3.5 L 150.3 3.5 L 150.3 58.5 L 54.5 58.5 Z M 54.5 3.5 "></path></clipPath><g clip-path="url(#clip0x7fd05760c220)"><text xml:space="preserve" font-family="Helvetica-Bold,Helvetica" font-weight="bold" font-size="24.0" fill="#FEFFFE" transform="matrix(1.00, 0.00, -0.00, -1.00, 77.7, 22.5)">t</text><text xml:space="preserve" font-family="Helvetica-Bold,Helvetica" font-weight="bold" font-size="24.0" fill="#FEFFFE" transform="matrix(1.00, 0.00, -0.00, -1.00, 85.7, 22.5)">i</text><text xml:space="preserve" font-family="Helvetica-Bold,Helvetica" font-weight="bold" font-size="24.0" fill="#FEFFFE" transform="matrix(1.00, 0.00, -0.00, -1.00, 92.4, 22.5)">m</text><text xml:space="preserve" font-family="Helvetica-Bold,Helvetica" font-weight="bold" font-size="24.0" fill="#FEFFFE" transform="matrix(1.00, 0.00, -0.00, -1.00, 113.7, 22.5)">e</text></g></g></g></svg>