<?xml version="1.0" encoding="UTF-8" standalone="no"?><svg xmlns="http://www.w3.org/2000/svg" xmlns:xlink="http://www.w3.org/1999/xlink" clip-rule="evenodd" stroke-miterlimit="4.00" viewBox="0 0 108 108"><desc>SVG generated by Keynote</desc><defs></defs><g transform="matrix(1.00, 0.00, -0.00, -1.00, 0.0, 108.0)"><path d="M 89.8 89.9 C 109.4 70.3 109.4 38.7 89.8 19.1 C 70.3 -0.4 38.7 -0.4 19.1 19.1 C -0.4 38.7 -0.4 70.3 19.1 89.9 C 38.7 109.4 70.3 109.4 89.8 89.9 Z M 89.8 89.9 " fill="#51A7F9"></path><path d="M 85.4 14.6 C 104.9 34.2 104.9 65.8 85.4 85.4 C 65.8 104.9 34.2 104.9 14.6 85.4 C -4.9 65.8 -4.9 34.2 14.6 14.6 C 34.2 -4.9 65.8 -4.9 85.4 14.6 Z M 85.4 14.6 " fill="none" stroke="#164E86" stroke-width="5.00" transform="matrix(1.00, 0.00, 0.00, -1.00, 4.5, 104.5)"></path></g></svg>