<?xml version="1.0" encoding="UTF-8" standalone="no"?><svg xmlns="http://www.w3.org/2000/svg" xmlns:xlink="http://www.w3.org/1999/xlink" clip-rule="evenodd" stroke-miterlimit="4.00" viewBox="0 0 826 569"><desc>SVG generated by Keynote</desc><defs></defs><g transform="matrix(1.00, 0.00, -0.00, -1.00, 0.0, 569.0)"><g><clipPath id="clip-1"><path d="M 1.0 568.0 L 825.0 568.0 L 825.0 0.0 L 1.0 0.0 Z M 1.0 568.0 "></path></clipPath><g clip-path="url(#clip-1)"><path d="M 1.0 568.0 L 207.0 568.0 L 207.0 473.3 L 1.0 473.3 Z M 1.0 568.0 " fill="#0264C0"></path><path d="M 207.0 568.0 L 413.0 568.0 L 413.0 473.3 L 207.0 473.3 Z M 207.0 568.0 " fill="#0264C0"></path><path d="M 413.0 568.0 L 619.0 568.0 L 619.0 473.3 L 413.0 473.3 Z M 413.0 568.0 " fill="#0264C0"></path><path d="M 619.0 568.0 L 825.0 568.0 L 825.0 473.3 L 619.0 473.3 Z M 619.0 568.0 " fill="#0264C0"></path><path d="M 1.0 473.3 L 207.0 473.3 L 207.0 378.7 L 1.0 378.7 Z M 1.0 473.3 " fill="#388CCE"></path><path d="M 207.0 473.3 L 413.0 473.3 L 413.0 378.7 L 207.0 378.7 Z M 207.0 473.3 " fill="#FEFFFF"></path><path d="M 413.0 473.3 L 619.0 473.3 L 619.0 378.7 L 413.0 378.7 Z M 413.0 473.3 " fill="#FEFFFF"></path><path d="M 619.0 473.3 L 825.0 473.3 L 825.0 378.7 L 619.0 378.7 Z M 619.0 473.3 " fill="#FEFFFF"></path><path d="M 1.0 378.7 L 207.0 378.7 L 207.0 284.0 L 1.0 284.0 Z M 1.0 378.7 " fill="#388CCE"></path><path d="M 207.0 378.7 L 413.0 378.7 L 413.0 284.0 L 207.0 284.0 Z M 207.0 378.7 " fill="#E2E5E8"></path><path d="M 413.0 378.7 L 619.0 378.7 L 619.0 284.0 L 413.0 284.0 Z M 413.0 378.7 " fill="#E2E5E8"></path><path d="M 619.0 378.7 L 825.0 378.7 L 825.0 284.0 L 619.0 284.0 Z M 619.0 378.7 " fill="#E2E5E8"></path><path d="M 1.0 284.0 L 207.0 284.0 L 207.0 189.3 L 1.0 189.3 Z M 1.0 284.0 " fill="#388CCE"></path><path d="M 207.0 284.0 L 413.0 284.0 L 413.0 189.3 L 207.0 189.3 Z M 207.0 284.0 " fill="#FEFFFF"></path><path d="M 413.0 284.0 L 619.0 284.0 L 619.0 189.3 L 413.0 189.3 Z M 413.0 284.0 " fill="#FEFFFF"></path><path d="M 619.0 284.0 L 825.0 284.0 L 825.0 189.3 L 619.0 189.3 Z M 619.0 284.0 " fill="#FEFFFF"></path><path d="M 1.0 189.3 L 207.0 189.3 L 207.0 94.7 L 1.0 94.7 Z M 1.0 189.3 " fill="#388CCE"></path><path d="M 207.0 189.3 L 413.0 189.3 L 413.0 94.7 L 207.0 94.7 Z M 207.0 189.3 " fill="#E2E5E8"></path><path d="M 413.0 189.3 L 619.0 189.3 L 619.0 94.7 L 413.0 94.7 Z M 413.0 189.3 " fill="#E2E5E8"></path><path d="M 619.0 189.3 L 825.0 189.3 L 825.0 94.7 L 619.0 94.7 Z M 619.0 189.3 " fill="#E2E5E8"></path><path d="M 1.0 94.7 L 207.0 94.7 L 207.0 0.0 L 1.0 0.0 Z M 1.0 94.7 " fill="#FEFFFE"></path><path d="M 207.0 94.7 L 413.0 94.7 L 413.0 0.0 L 207.0 0.0 Z M 207.0 94.7 " fill="#FEFFFF"></path><path d="M 413.0 94.7 L 619.0 94.7 L 619.0 0.0 L 413.0 0.0 Z M 413.0 94.7 " fill="#FEFFFF"></path><path d="M 619.0 94.7 L 825.0 94.7 L 825.0 0.0 L 619.0 0.0 Z M 619.0 94.7 " fill="#FEFFFF"></path></g></g><g><clipPath id="clip-2"><path d="M 1.0 568.0 L 825.0 568.0 L 825.0 0.0 L 1.0 0.0 Z M 1.0 568.0 "></path></clipPath><g clip-path="url(#clip-2)"><g><clipPath id="clip-3"><path d="M 1.0 473.8 L 207.0 473.8 L 207.0 568.0 L 1.0 568.0 Z M 1.0 473.8 "></path></clipPath><g clip-path="url(#clip-3)"><text xml:space="preserve" font-family="Helvetica-Bold" font-weight="bold" font-size="31.2" fill="#FEFFFE" transform="matrix(1.00, 0.00, -0.00, -1.00, 56.0, 509.0)">2</text><text xml:space="preserve" font-family="Helvetica-Bold" font-weight="bold" font-size="31.2" fill="#FEFFFE" transform="matrix(1.00, 0.00, -0.00, -1.00, 73.4, 509.0)">0</text><text xml:space="preserve" font-family="Helvetica-Bold" font-weight="bold" font-size="31.2" fill="#FEFFFE" transform="matrix(1.00, 0.00, -0.00, -1.00, 90.7, 509.0)">x</text><text xml:space="preserve" font-family="Helvetica-Bold" font-weight="bold" font-size="31.2" fill="#FEFFFE" transform="matrix(1.00, 0.00, -0.00, -1.00, 108.1, 509.0)">P</text><text xml:space="preserve" font-family="Helvetica-Bold" font-weight="bold" font-size="31.2" fill="#FEFFFE" transform="matrix(1.00, 0.00, -0.00, -1.00, 128.9, 509.0)">R</text></g></g></g></g><g><clipPath id="clip-4"><path d="M 1.0 568.0 L 825.0 568.0 L 825.0 0.0 L 1.0 0.0 Z M 1.0 568.0 "></path></clipPath><g clip-path="url(#clip-4)"><g><clipPath id="clip-5"><path d="M 207.0 473.8 L 413.0 473.8 L 413.0 568.0 L 207.0 568.0 Z M 207.0 473.8 "></path></clipPath><g clip-path="url(#clip-5)"><text xml:space="preserve" font-family="Helvetica-Bold" font-weight="bold" font-size="31.2" fill="#FEFFFE" transform="matrix(1.00, 0.00, -0.00, -1.00, 268.0, 509.0)">c</text><text xml:space="preserve" font-family="Helvetica-Bold" font-weight="bold" font-size="31.2" fill="#FEFFFE" transform="matrix(1.00, 0.00, -0.00, -1.00, 285.4, 509.0)">o</text><text xml:space="preserve" font-family="Helvetica-Bold" font-weight="bold" font-size="31.2" fill="#FEFFFE" transform="matrix(1.00, 0.00, -0.00, -1.00, 304.4, 509.0)">r</text><text xml:space="preserve" font-family="Helvetica-Bold" font-weight="bold" font-size="31.2" fill="#FEFFFE" transform="matrix(1.00, 0.00, -0.00, -1.00, 316.6, 509.0)">e</text><text xml:space="preserve" font-family="Helvetica-Bold" font-weight="bold" font-size="31.2" fill="#FEFFFE" transform="matrix(1.00, 0.00, -0.00, -1.00, 333.9, 509.0)">s</text></g></g></g></g><g><clipPath id="clip-6"><path d="M 1.0 568.0 L 825.0 568.0 L 825.0 0.0 L 1.0 0.0 Z M 1.0 568.0 "></path></clipPath><g clip-path="url(#clip-6)"><g><clipPath id="clip-7"><path d="M 413.0 473.8 L 619.0 473.8 L 619.0 568.0 L 413.0 568.0 Z M 413.0 473.8 "></path></clipPath><g clip-path="url(#clip-7)"><text xml:space="preserve" font-family="Helvetica-Bold" font-weight="bold" font-size="31.2" fill="#FEFFFE" transform="matrix(1.00, 0.00, -0.00, -1.00, 446.0, 509.0)">t</text><text xml:space="preserve" font-family="Helvetica-Bold" font-weight="bold" font-size="31.2" fill="#FEFFFE" transform="matrix(1.00, 0.00, -0.00, -1.00, 456.4, 509.0)">w</text><text xml:space="preserve" font-family="Helvetica-Bold" font-weight="bold" font-size="31.2" fill="#FEFFFE" transform="matrix(1.00, 0.00, -0.00, -1.00, 480.7, 509.0)">i</text><text xml:space="preserve" font-family="Helvetica-Bold" font-weight="bold" font-size="31.2" fill="#FEFFFE" transform="matrix(1.00, 0.00, -0.00, -1.00, 489.3, 509.0)">t</text><text xml:space="preserve" font-family="Helvetica-Bold" font-weight="bold" font-size="31.2" fill="#FEFFFE" transform="matrix(1.00, 0.00, -0.00, -1.00, 499.7, 509.0)">t</text><text xml:space="preserve" font-family="Helvetica-Bold" font-weight="bold" font-size="31.2" fill="#FEFFFE" transform="matrix(1.00, 0.00, -0.00, -1.00, 510.1, 509.0)">e</text><text xml:space="preserve" font-family="Helvetica-Bold" font-weight="bold" font-size="31.2" fill="#FEFFFE" transform="matrix(1.00, 0.00, -0.00, -1.00, 527.5, 509.0)">r</text><text xml:space="preserve" font-family="Helvetica-Bold" font-weight="bold" font-size="31.2" fill="#FEFFFE" transform="matrix(1.00, 0.00, -0.00, -1.00, 539.6, 509.0)">_</text><text xml:space="preserve" font-family="Helvetica-Bold" font-weight="bold" font-size="31.2" fill="#FEFFFE" transform="matrix(1.00, 0.00, -0.00, -1.00, 557.0, 509.0)">r</text><text xml:space="preserve" font-family="Helvetica-Bold" font-weight="bold" font-size="31.2" fill="#FEFFFE" transform="matrix(1.00, 0.00, -0.00, -1.00, 569.1, 509.0)">v</text></g></g></g></g><g><clipPath id="clip-8"><path d="M 1.0 568.0 L 825.0 568.0 L 825.0 0.0 L 1.0 0.0 Z M 1.0 568.0 "></path></clipPath><g clip-path="url(#clip-8)"><g><clipPath id="clip-9"><path d="M 619.0 473.8 L 825.0 473.8 L 825.0 568.0 L 619.0 568.0 Z M 619.0 473.8 "></path></clipPath><g clip-path="url(#clip-9)"><text xml:space="preserve" font-family="Helvetica-Bold" font-weight="bold" font-size="31.2" fill="#FEFFFE" transform="matrix(1.00, 0.00, -0.00, -1.00, 634.0, 509.0)">u</text><text xml:space="preserve" font-family="Helvetica-Bold" font-weight="bold" font-size="31.2" fill="#FEFFFE" transform="matrix(1.00, 0.00, -0.00, -1.00, 653.1, 509.0)">k</text><text xml:space="preserve" font-family="Helvetica-Bold" font-weight="bold" font-size="31.2" fill="#FEFFFE" transform="matrix(1.00, 0.00, -0.00, -1.00, 670.4, 509.0)">_</text><text xml:space="preserve" font-family="Helvetica-Bold" font-weight="bold" font-size="31.2" fill="#FEFFFE" transform="matrix(1.00, 0.00, -0.00, -1.00, 687.7, 509.0)">2</text><text xml:space="preserve" font-family="Helvetica-Bold" font-weight="bold" font-size="31.2" fill="#FEFFFE" transform="matrix(1.00, 0.00, -0.00, -1.00, 705.1, 509.0)">0</text><text xml:space="preserve" font-family="Helvetica-Bold" font-weight="bold" font-size="31.2" fill="#FEFFFE" transform="matrix(1.00, 0.00, -0.00, -1.00, 722.4, 509.0)">0</text><text xml:space="preserve" font-family="Helvetica-Bold" font-weight="bold" font-size="31.2" fill="#FEFFFE" transform="matrix(1.00, 0.00, -0.00, -1.00, 739.8, 509.0)">7</text><text xml:space="preserve" font-family="Helvetica-Bold" font-weight="bold" font-size="31.2" fill="#FEFFFE" transform="matrix(1.00, 0.00, -0.00, -1.00, 757.1, 509.0)">_</text><text xml:space="preserve" font-family="Helvetica-Bold" font-weight="bold" font-size="31.2" fill="#FEFFFE" transform="matrix(1.00, 0.00, -0.00, -1.00, 774.5, 509.0)">0</text><text xml:space="preserve" font-family="Helvetica-Bold" font-weight="bold" font-size="31.2" fill="#FEFFFE" transform="matrix(1.00, 0.00, -0.00, -1.00, 791.8, 509.0)">5</text></g></g></g></g><g><clipPath id="clip-10"><path d="M 1.0 568.0 L 825.0 568.0 L 825.0 0.0 L 1.0 0.0 Z M 1.0 568.0 "></path></clipPath><g clip-path="url(#clip-10)"><g><clipPath id="clip-11"><path d="M 1.0 378.7 L 206.5 378.7 L 206.5 472.8 L 1.0 472.8 Z M 1.0 378.7 "></path></clipPath><g clip-path="url(#clip-11)"><text xml:space="preserve" font-family="Helvetica-Bold" font-weight="bold" font-size="31.2" fill="#FEFFFE" transform="matrix(1.00, 0.00, -0.00, -1.00, 60.0, 414.0)">S</text><text xml:space="preserve" font-family="Helvetica-Bold" font-weight="bold" font-size="31.2" fill="#FEFFFE" transform="matrix(1.00, 0.00, -0.00, -1.00, 80.8, 414.0)">p</text><text xml:space="preserve" font-family="Helvetica-Bold" font-weight="bold" font-size="31.2" fill="#FEFFFE" transform="matrix(1.00, 0.00, -0.00, -1.00, 99.9, 414.0)">a</text><text xml:space="preserve" font-family="Helvetica-Bold" font-weight="bold" font-size="31.2" fill="#FEFFFE" transform="matrix(1.00, 0.00, -0.00, -1.00, 117.2, 414.0)">r</text><text xml:space="preserve" font-family="Helvetica-Bold" font-weight="bold" font-size="31.2" fill="#FEFFFE" transform="matrix(1.00, 0.00, -0.00, -1.00, 129.4, 414.0)">k</text></g></g></g></g><g><clipPath id="clip-12"><path d="M 1.0 568.0 L 825.0 568.0 L 825.0 0.0 L 1.0 0.0 Z M 1.0 568.0 "></path></clipPath><g clip-path="url(#clip-12)"><g><clipPath id="clip-13"><path d="M 207.5 378.7 L 413.0 378.7 L 413.0 472.8 L 207.5 472.8 Z M 207.5 378.7 "></path></clipPath><g clip-path="url(#clip-13)"><text xml:space="preserve" font-family="Helvetica-Light" font-size="31.2" fill="#000000" transform="matrix(1.00, 0.00, -0.00, -1.00, 284.0, 414.0)">1</text><text xml:space="preserve" font-family="Helvetica-Light" font-size="31.2" fill="#000000" transform="matrix(1.00, 0.00, -0.00, -1.00, 301.3, 414.0)">2</text><text xml:space="preserve" font-family="Helvetica-Light" font-size="31.2" fill="#000000" transform="matrix(1.00, 0.00, -0.00, -1.00, 318.7, 414.0)">8</text></g></g></g></g><g><clipPath id="clip-14"><path d="M 1.0 568.0 L 825.0 568.0 L 825.0 0.0 L 1.0 0.0 Z M 1.0 568.0 "></path></clipPath><g clip-path="url(#clip-14)"><g><clipPath id="clip-15"><path d="M 413.0 378.7 L 619.0 378.7 L 619.0 472.8 L 413.0 472.8 Z M 413.0 378.7 "></path></clipPath><g clip-path="url(#clip-15)"><text xml:space="preserve" font-family="Helvetica-Light" font-size="31.2" fill="#000000" transform="matrix(1.00, 0.00, -0.00, -1.00, 482.0, 414.0)">8</text><text xml:space="preserve" font-family="Helvetica-Light" font-size="31.2" fill="#000000" transform="matrix(1.00, 0.00, -0.00, -1.00, 499.3, 414.0)">5</text><text xml:space="preserve" font-family="Helvetica-Light" font-size="31.2" fill="#000000" transform="matrix(1.00, 0.00, -0.00, -1.00, 516.7, 414.0)">7</text><text xml:space="preserve" font-family="Helvetica-Light" font-size="31.2" fill="#000000" transform="matrix(1.00, 0.00, -0.00, -1.00, 534.0, 414.0)">s</text></g></g></g></g><g><clipPath id="clip-16"><path d="M 1.0 568.0 L 825.0 568.0 L 825.0 0.0 L 1.0 0.0 Z M 1.0 568.0 "></path></clipPath><g clip-path="url(#clip-16)"><g><clipPath id="clip-17"><path d="M 619.0 378.7 L 825.0 378.7 L 825.0 472.8 L 619.0 472.8 Z M 619.0 378.7 "></path></clipPath><g clip-path="url(#clip-17)"><text xml:space="preserve" font-family="Helvetica-Light" font-size="31.2" fill="#000000" transform="matrix(1.00, 0.00, -0.00, -1.00, 680.0, 414.0)">1</text><text xml:space="preserve" font-family="Helvetica-Light" font-size="31.2" fill="#000000" transform="matrix(1.00, 0.00, -0.00, -1.00, 697.3, 414.0)">7</text><text xml:space="preserve" font-family="Helvetica-Light" font-size="31.2" fill="#000000" transform="matrix(1.00, 0.00, -0.00, -1.00, 714.7, 414.0)">5</text><text xml:space="preserve" font-family="Helvetica-Light" font-size="31.2" fill="#000000" transform="matrix(1.00, 0.00, -0.00, -1.00, 732.0, 414.0)">9</text><text xml:space="preserve" font-family="Helvetica-Light" font-size="31.2" fill="#000000" transform="matrix(1.00, 0.00, -0.00, -1.00, 749.4, 414.0)">s</text></g></g></g></g><g><clipPath id="clip-18"><path d="M 1.0 568.0 L 825.0 568.0 L 825.0 0.0 L 1.0 0.0 Z M 1.0 568.0 "></path></clipPath><g clip-path="url(#clip-18)"><g><clipPath id="clip-19"><path d="M 1.0 284.0 L 206.5 284.0 L 206.5 378.7 L 1.0 378.7 Z M 1.0 284.0 "></path></clipPath><g clip-path="url(#clip-19)"><text xml:space="preserve" font-family="Helvetica-Bold" font-weight="bold" font-size="31.2" fill="#FEFFFE" transform="matrix(1.00, 0.00, -0.00, -1.00, 53.0, 320.0)">G</text><text xml:space="preserve" font-family="Helvetica-Bold" font-weight="bold" font-size="31.2" fill="#FEFFFE" transform="matrix(1.00, 0.00, -0.00, -1.00, 77.3, 320.0)">i</text><text xml:space="preserve" font-family="Helvetica-Bold" font-weight="bold" font-size="31.2" fill="#FEFFFE" transform="matrix(1.00, 0.00, -0.00, -1.00, 85.9, 320.0)">r</text><text xml:space="preserve" font-family="Helvetica-Bold" font-weight="bold" font-size="31.2" fill="#FEFFFE" transform="matrix(1.00, 0.00, -0.00, -1.00, 98.1, 320.0)">a</text><text xml:space="preserve" font-family="Helvetica-Bold" font-weight="bold" font-size="31.2" fill="#FEFFFE" transform="matrix(1.00, 0.00, -0.00, -1.00, 115.4, 320.0)">p</text><text xml:space="preserve" font-family="Helvetica-Bold" font-weight="bold" font-size="31.2" fill="#FEFFFE" transform="matrix(1.00, 0.00, -0.00, -1.00, 134.5, 320.0)">h</text></g></g></g></g><g><clipPath id="clip-20"><path d="M 1.0 568.0 L 825.0 568.0 L 825.0 0.0 L 1.0 0.0 Z M 1.0 568.0 "></path></clipPath><g clip-path="url(#clip-20)"><g><clipPath id="clip-21"><path d="M 207.5 284.0 L 413.0 284.0 L 413.0 378.7 L 207.5 378.7 Z M 207.5 284.0 "></path></clipPath><g clip-path="url(#clip-21)"><text xml:space="preserve" font-family="Helvetica-Light" font-size="31.2" fill="#000000" transform="matrix(1.00, 0.00, -0.00, -1.00, 284.0, 320.0)">1</text><text xml:space="preserve" font-family="Helvetica-Light" font-size="31.2" fill="#000000" transform="matrix(1.00, 0.00, -0.00, -1.00, 301.3, 320.0)">2</text><text xml:space="preserve" font-family="Helvetica-Light" font-size="31.2" fill="#000000" transform="matrix(1.00, 0.00, -0.00, -1.00, 318.7, 320.0)">8</text></g></g></g></g><g><clipPath id="clip-22"><path d="M 1.0 568.0 L 825.0 568.0 L 825.0 0.0 L 1.0 0.0 Z M 1.0 568.0 "></path></clipPath><g clip-path="url(#clip-22)"><g><clipPath id="clip-23"><path d="M 413.0 284.0 L 619.0 284.0 L 619.0 378.7 L 413.0 378.7 Z M 413.0 284.0 "></path></clipPath><g clip-path="url(#clip-23)"><text xml:space="preserve" font-family="Helvetica-Light" font-size="31.2" fill="#000000" transform="matrix(1.00, 0.00, -0.00, -1.00, 482.0, 320.0)">5</text><text xml:space="preserve" font-family="Helvetica-Light" font-size="31.2" fill="#000000" transform="matrix(1.00, 0.00, -0.00, -1.00, 499.3, 320.0)">9</text><text xml:space="preserve" font-family="Helvetica-Light" font-size="31.2" fill="#000000" transform="matrix(1.00, 0.00, -0.00, -1.00, 516.7, 320.0)">6</text><text xml:space="preserve" font-family="Helvetica-Light" font-size="31.2" fill="#000000" transform="matrix(1.00, 0.00, -0.00, -1.00, 534.0, 320.0)">s</text></g></g></g></g><g><clipPath id="clip-24"><path d="M 1.0 568.0 L 825.0 568.0 L 825.0 0.0 L 1.0 0.0 Z M 1.0 568.0 "></path></clipPath><g clip-path="url(#clip-24)"><g><clipPath id="clip-25"><path d="M 619.0 284.0 L 825.0 284.0 L 825.0 378.7 L 619.0 378.7 Z M 619.0 284.0 "></path></clipPath><g clip-path="url(#clip-25)"><text xml:space="preserve" font-family="Helvetica-Light" font-size="31.2" fill="#000000" transform="matrix(1.00, 0.00, -0.00, -1.00, 680.0, 320.0)">1</text><text xml:space="preserve" font-family="Helvetica-Light" font-size="31.2" fill="#000000" transform="matrix(1.00, 0.00, -0.00, -1.00, 697.3, 320.0)">2</text><text xml:space="preserve" font-family="Helvetica-Light" font-size="31.2" fill="#000000" transform="matrix(1.00, 0.00, -0.00, -1.00, 714.7, 320.0)">3</text><text xml:space="preserve" font-family="Helvetica-Light" font-size="31.2" fill="#000000" transform="matrix(1.00, 0.00, -0.00, -1.00, 732.0, 320.0)">5</text><text xml:space="preserve" font-family="Helvetica-Light" font-size="31.2" fill="#000000" transform="matrix(1.00, 0.00, -0.00, -1.00, 749.4, 320.0)">s</text></g></g></g></g><g><clipPath id="clip-26"><path d="M 1.0 568.0 L 825.0 568.0 L 825.0 0.0 L 1.0 0.0 Z M 1.0 568.0 "></path></clipPath><g clip-path="url(#clip-26)"><g><clipPath id="clip-27"><path d="M 1.0 189.3 L 206.5 189.3 L 206.5 284.0 L 1.0 284.0 Z M 1.0 189.3 "></path></clipPath><g clip-path="url(#clip-27)"><text xml:space="preserve" font-family="Helvetica-Bold" font-weight="bold" font-size="31.2" fill="#FEFFFE" transform="matrix(1.00, 0.00, -0.00, -1.00, 30.0, 225.0)">G</text><text xml:space="preserve" font-family="Helvetica-Bold" font-weight="bold" font-size="31.2" fill="#FEFFFE" transform="matrix(1.00, 0.00, -0.00, -1.00, 54.3, 225.0)">r</text><text xml:space="preserve" font-family="Helvetica-Bold" font-weight="bold" font-size="31.2" fill="#FEFFFE" transform="matrix(1.00, 0.00, -0.00, -1.00, 66.4, 225.0)">a</text><text xml:space="preserve" font-family="Helvetica-Bold" font-weight="bold" font-size="31.2" fill="#FEFFFE" transform="matrix(1.00, 0.00, -0.00, -1.00, 83.7, 225.0)">p</text><text xml:space="preserve" font-family="Helvetica-Bold" font-weight="bold" font-size="31.2" fill="#FEFFFE" transform="matrix(1.00, 0.00, -0.00, -1.00, 102.8, 225.0)">h</text><text xml:space="preserve" font-family="Helvetica-Bold" font-weight="bold" font-size="31.2" fill="#FEFFFE" transform="matrix(1.00, 0.00, -0.00, -1.00, 121.8, 225.0)">L</text><text xml:space="preserve" font-family="Helvetica-Bold" font-weight="bold" font-size="31.2" fill="#FEFFFE" transform="matrix(1.00, 0.00, -0.00, -1.00, 140.9, 225.0)">a</text><text xml:space="preserve" font-family="Helvetica-Bold" font-weight="bold" font-size="31.2" fill="#FEFFFE" transform="matrix(1.00, 0.00, -0.00, -1.00, 158.2, 225.0)">b</text></g></g></g></g><g><clipPath id="clip-28"><path d="M 1.0 568.0 L 825.0 568.0 L 825.0 0.0 L 1.0 0.0 Z M 1.0 568.0 "></path></clipPath><g clip-path="url(#clip-28)"><g><clipPath id="clip-29"><path d="M 207.5 189.3 L 413.0 189.3 L 413.0 284.0 L 207.5 284.0 Z M 207.5 189.3 "></path></clipPath><g clip-path="url(#clip-29)"><text xml:space="preserve" font-family="Helvetica-Light" font-size="31.2" fill="#000000" transform="matrix(1.00, 0.00, -0.00, -1.00, 284.0, 225.0)">1</text><text xml:space="preserve" font-family="Helvetica-Light" font-size="31.2" fill="#000000" transform="matrix(1.00, 0.00, -0.00, -1.00, 301.3, 225.0)">2</text><text xml:space="preserve" font-family="Helvetica-Light" font-size="31.2" fill="#000000" transform="matrix(1.00, 0.00, -0.00, -1.00, 318.7, 225.0)">8</text></g></g></g></g><g><clipPath id="clip-30"><path d="M 1.0 568.0 L 825.0 568.0 L 825.0 0.0 L 1.0 0.0 Z M 1.0 568.0 "></path></clipPath><g clip-path="url(#clip-30)"><g><clipPath id="clip-31"><path d="M 413.0 189.3 L 619.0 189.3 L 619.0 284.0 L 413.0 284.0 Z M 413.0 189.3 "></path></clipPath><g clip-path="url(#clip-31)"><text xml:space="preserve" font-family="Helvetica-Light" font-size="31.2" fill="#000000" transform="matrix(1.00, 0.00, -0.00, -1.00, 482.0, 225.0)">2</text><text xml:space="preserve" font-family="Helvetica-Light" font-size="31.2" fill="#000000" transform="matrix(1.00, 0.00, -0.00, -1.00, 499.3, 225.0)">4</text><text xml:space="preserve" font-family="Helvetica-Light" font-size="31.2" fill="#000000" transform="matrix(1.00, 0.00, -0.00, -1.00, 516.7, 225.0)">9</text><text xml:space="preserve" font-family="Helvetica-Light" font-size="31.2" fill="#000000" transform="matrix(1.00, 0.00, -0.00, -1.00, 534.0, 225.0)">s</text></g></g></g></g><g><clipPath id="clip-32"><path d="M 1.0 568.0 L 825.0 568.0 L 825.0 0.0 L 1.0 0.0 Z M 1.0 568.0 "></path></clipPath><g clip-path="url(#clip-32)"><g><clipPath id="clip-33"><path d="M 619.0 189.3 L 825.0 189.3 L 825.0 284.0 L 619.0 284.0 Z M 619.0 189.3 "></path></clipPath><g clip-path="url(#clip-33)"><text xml:space="preserve" font-family="Helvetica-Light" font-size="31.2" fill="#000000" transform="matrix(1.00, 0.00, -0.00, -1.00, 688.0, 225.0)">8</text><text xml:space="preserve" font-family="Helvetica-Light" font-size="31.2" fill="#000000" transform="matrix(1.00, 0.00, -0.00, -1.00, 705.3, 225.0)">3</text><text xml:space="preserve" font-family="Helvetica-Light" font-size="31.2" fill="#000000" transform="matrix(1.00, 0.00, -0.00, -1.00, 722.7, 225.0)">3</text><text xml:space="preserve" font-family="Helvetica-Light" font-size="31.2" fill="#000000" transform="matrix(1.00, 0.00, -0.00, -1.00, 740.0, 225.0)">s</text></g></g></g></g><g><clipPath id="clip-34"><path d="M 1.0 568.0 L 825.0 568.0 L 825.0 0.0 L 1.0 0.0 Z M 1.0 568.0 "></path></clipPath><g clip-path="url(#clip-34)"><g><clipPath id="clip-35"><path d="M 1.0 94.7 L 206.5 94.7 L 206.5 189.3 L 1.0 189.3 Z M 1.0 94.7 "></path></clipPath><g clip-path="url(#clip-35)"><text xml:space="preserve" font-family="Helvetica-Bold" font-weight="bold" font-size="31.2" fill="#FEFFFE" transform="matrix(1.00, 0.00, -0.00, -1.00, 47.0, 131.0)">G</text><text xml:space="preserve" font-family="Helvetica-Bold" font-weight="bold" font-size="31.2" fill="#FEFFFE" transform="matrix(1.00, 0.00, -0.00, -1.00, 71.3, 131.0)">r</text><text xml:space="preserve" font-family="Helvetica-Bold" font-weight="bold" font-size="31.2" fill="#FEFFFE" transform="matrix(1.00, 0.00, -0.00, -1.00, 83.4, 131.0)">a</text><text xml:space="preserve" font-family="Helvetica-Bold" font-weight="bold" font-size="31.2" fill="#FEFFFE" transform="matrix(1.00, 0.00, -0.00, -1.00, 100.7, 131.0)">p</text><text xml:space="preserve" font-family="Helvetica-Bold" font-weight="bold" font-size="31.2" fill="#FEFFFE" transform="matrix(1.00, 0.00, -0.00, -1.00, 119.8, 131.0)">h</text><text xml:space="preserve" font-family="Helvetica-Bold" font-weight="bold" font-size="31.2" fill="#FEFFFE" transform="matrix(1.00, 0.00, -0.00, -1.00, 138.8, 131.0)">X</text></g></g></g></g><g><clipPath id="clip-36"><path d="M 1.0 568.0 L 825.0 568.0 L 825.0 0.0 L 1.0 0.0 Z M 1.0 568.0 "></path></clipPath><g clip-path="url(#clip-36)"><g><clipPath id="clip-37"><path d="M 207.5 94.7 L 413.0 94.7 L 413.0 189.3 L 207.5 189.3 Z M 207.5 94.7 "></path></clipPath><g clip-path="url(#clip-37)"><text xml:space="preserve" font-family="Helvetica-Light" font-size="31.2" fill="#000000" transform="matrix(1.00, 0.00, -0.00, -1.00, 284.0, 131.0)">1</text><text xml:space="preserve" font-family="Helvetica-Light" font-size="31.2" fill="#000000" transform="matrix(1.00, 0.00, -0.00, -1.00, 301.3, 131.0)">2</text><text xml:space="preserve" font-family="Helvetica-Light" font-size="31.2" fill="#000000" transform="matrix(1.00, 0.00, -0.00, -1.00, 318.7, 131.0)">8</text></g></g></g></g><g><clipPath id="clip-38"><path d="M 1.0 568.0 L 825.0 568.0 L 825.0 0.0 L 1.0 0.0 Z M 1.0 568.0 "></path></clipPath><g clip-path="url(#clip-38)"><g><clipPath id="clip-39"><path d="M 413.0 94.7 L 619.0 94.7 L 619.0 189.3 L 413.0 189.3 Z M 413.0 94.7 "></path></clipPath><g clip-path="url(#clip-39)"><text xml:space="preserve" font-family="Helvetica-Light" font-size="31.2" fill="#000000" transform="matrix(1.00, 0.00, -0.00, -1.00, 482.0, 131.0)">4</text><text xml:space="preserve" font-family="Helvetica-Light" font-size="31.2" fill="#000000" transform="matrix(1.00, 0.00, -0.00, -1.00, 499.3, 131.0)">1</text><text xml:space="preserve" font-family="Helvetica-Light" font-size="31.2" fill="#000000" transform="matrix(1.00, 0.00, -0.00, -1.00, 516.7, 131.0)">9</text><text xml:space="preserve" font-family="Helvetica-Light" font-size="31.2" fill="#000000" transform="matrix(1.00, 0.00, -0.00, -1.00, 534.0, 131.0)">s</text></g></g></g></g><g><clipPath id="clip-40"><path d="M 1.0 568.0 L 825.0 568.0 L 825.0 0.0 L 1.0 0.0 Z M 1.0 568.0 "></path></clipPath><g clip-path="url(#clip-40)"><g><clipPath id="clip-41"><path d="M 619.0 94.7 L 825.0 94.7 L 825.0 189.3 L 619.0 189.3 Z M 619.0 94.7 "></path></clipPath><g clip-path="url(#clip-41)"><text xml:space="preserve" font-family="Helvetica-Light" font-size="31.2" fill="#000000" transform="matrix(1.00, 0.00, -0.00, -1.00, 688.0, 131.0)">4</text><text xml:space="preserve" font-family="Helvetica-Light" font-size="31.2" fill="#000000" transform="matrix(1.00, 0.00, -0.00, -1.00, 705.3, 131.0)">6</text><text xml:space="preserve" font-family="Helvetica-Light" font-size="31.2" fill="#000000" transform="matrix(1.00, 0.00, -0.00, -1.00, 722.7, 131.0)">2</text><text xml:space="preserve" font-family="Helvetica-Light" font-size="31.2" fill="#000000" transform="matrix(1.00, 0.00, -0.00, -1.00, 740.0, 131.0)">s</text></g></g></g></g></g></svg>