<?xml version="1.0" encoding="UTF-8" standalone="no"?><svg xmlns="http://www.w3.org/2000/svg" xmlns:xlink="http://www.w3.org/1999/xlink" clip-rule="evenodd" stroke-miterlimit="10" viewBox="0 0 402 22"><desc>SVG generated by Keynote</desc><defs></defs><g transform="matrix(1.00, 0.00, -0.00, -1.00, 0.0, 22.0)"><text xml:space="preserve" font-family="Monaco,Monaco" font-size="18.0" fill="#002451" transform="matrix(1.00, 0.00, -0.00, -1.00, 1.0, 6.0)">O</text><text xml:space="preserve" font-family="Monaco,Monaco" font-size="18.0" fill="#002451" transform="matrix(1.00, 0.00, -0.00, -1.00, 11.8, 6.0)">n</text><text xml:space="preserve" font-family="Monaco,Monaco" font-size="18.0" fill="#002451" transform="matrix(1.00, 0.00, -0.00, -1.00, 22.6, 6.0)">N</text><text xml:space="preserve" font-family="Monaco,Monaco" font-size="18.0" fill="#002451" transform="matrix(1.00, 0.00, -0.00, -1.00, 33.4, 6.0)">o</text><text xml:space="preserve" font-family="Monaco,Monaco" font-size="18.0" fill="#002451" transform="matrix(1.00, 0.00, -0.00, -1.00, 44.2, 6.0)">t</text><text xml:space="preserve" font-family="Monaco,Monaco" font-size="18.0" fill="#002451" transform="matrix(1.00, 0.00, -0.00, -1.00, 55.0, 6.0)">i</text><text xml:space="preserve" font-family="Monaco,Monaco" font-size="18.0" fill="#002451" transform="matrix(1.00, 0.00, -0.00, -1.00, 65.8, 6.0)">f</text><text xml:space="preserve" font-family="Monaco,Monaco" font-size="18.0" fill="#002451" transform="matrix(1.00, 0.00, -0.00, -1.00, 76.6, 6.0)">y</text><text xml:space="preserve" font-family="Monaco,Monaco" font-size="18.0" fill="#002451" transform="matrix(1.00, 0.00, -0.00, -1.00, 87.4, 6.0)">(</text><text xml:space="preserve" font-family="Monaco,Monaco" font-size="18.0" fill="#002451" transform="matrix(1.00, 0.00, -0.00, -1.00, 98.2, 6.0)">“</text><text xml:space="preserve" font-family="Monaco,Monaco" font-size="18.0" fill="#002451" transform="matrix(1.00, 0.00, -0.00, -1.00, 109.0, 6.0)">t</text><text xml:space="preserve" font-family="Monaco,Monaco" font-size="18.0" fill="#002451" transform="matrix(1.00, 0.00, -0.00, -1.00, 119.8, 6.0)">i</text><text xml:space="preserve" font-family="Monaco,Monaco" font-size="18.0" fill="#002451" transform="matrix(1.00, 0.00, -0.00, -1.00, 130.6, 6.0)">m</text><text xml:space="preserve" font-family="Monaco,Monaco" font-size="18.0" fill="#002451" transform="matrix(1.00, 0.00, -0.00, -1.00, 141.4, 6.0)">e</text><text xml:space="preserve" font-family="Monaco,Monaco" font-size="18.0" fill="#002451" transform="matrix(1.00, 0.00, -0.00, -1.00, 152.2, 6.0)">”</text><text xml:space="preserve" font-family="Monaco,Monaco" font-size="18.0" fill="#002451" transform="matrix(1.00, 0.00, -0.00, -1.00, 163.1, 6.0)">)</text><text xml:space="preserve" font-family="Monaco,Monaco" font-size="18.0" fill="#002451" transform="matrix(1.00, 0.00, -0.00, -1.00, 173.9, 6.0)">:</text><text xml:space="preserve" font-family="Monaco,Monaco" font-size="18.0" fill="#002451" transform="matrix(1.00, 0.00, -0.00, -1.00, 184.7, 6.0)"> </text><text xml:space="preserve" font-family="Monaco,Monaco" font-size="18.0" fill="#002451" transform="matrix(1.00, 0.00, -0.00, -1.00, 195.5, 6.0)"> </text><text xml:space="preserve" font-family="Monaco,Monaco" font-size="18.0" fill="#002451" transform="matrix(1.00, 0.00, -0.00, -1.00, 206.3, 6.0)"> </text><text xml:space="preserve" font-family="Monaco,Monaco" font-size="18.0" fill="#002451" transform="matrix(1.00, 0.00, -0.00, -1.00, 217.1, 6.0)"> </text><text xml:space="preserve" font-family="Monaco,Monaco" font-size="18.0" fill="#002451" transform="matrix(1.00, 0.00, -0.00, -1.00, 227.9, 6.0)"> </text><text xml:space="preserve" font-family="Monaco,Monaco" font-size="18.0" fill="#00872A" transform="matrix(1.00, 0.00, -0.00, -1.00, 238.6, 6.0)">/</text><text xml:space="preserve" font-family="Monaco,Monaco" font-size="18.0" fill="#00872A" transform="matrix(1.00, 0.00, -0.00, -1.00, 249.4, 6.0)">*</text><text xml:space="preserve" font-family="Monaco,Monaco" font-size="18.0" fill="#00872A" transform="matrix(1.00, 0.00, -0.00, -1.00, 260.2, 6.0)"> </text><text xml:space="preserve" font-family="Monaco,Monaco" font-size="18.0" fill="#00872A" transform="matrix(1.00, 0.00, -0.00, -1.00, 271.0, 6.0)">y</text><text xml:space="preserve" font-family="Monaco,Monaco" font-size="18.0" fill="#00872A" transform="matrix(1.00, 0.00, -0.00, -1.00, 281.9, 6.0)">o</text><text xml:space="preserve" font-family="Monaco,Monaco" font-size="18.0" fill="#00872A" transform="matrix(1.00, 0.00, -0.00, -1.00, 292.7, 6.0)">u</text><text xml:space="preserve" font-family="Monaco,Monaco" font-size="18.0" fill="#00872A" transform="matrix(1.00, 0.00, -0.00, -1.00, 303.5, 6.0)">r</text><text xml:space="preserve" font-family="Monaco,Monaco" font-size="18.0" fill="#00872A" transform="matrix(1.00, 0.00, -0.00, -1.00, 314.3, 6.0)"> </text><text xml:space="preserve" font-family="Monaco,Monaco" font-size="18.0" fill="#00872A" transform="matrix(1.00, 0.00, -0.00, -1.00, 325.1, 6.0)">c</text><text xml:space="preserve" font-family="Monaco,Monaco" font-size="18.0" fill="#00872A" transform="matrix(1.00, 0.00, -0.00, -1.00, 335.9, 6.0)">o</text><text xml:space="preserve" font-family="Monaco,Monaco" font-size="18.0" fill="#00872A" transform="matrix(1.00, 0.00, -0.00, -1.00, 346.7, 6.0)">d</text><text xml:space="preserve" font-family="Monaco,Monaco" font-size="18.0" fill="#00872A" transform="matrix(1.00, 0.00, -0.00, -1.00, 357.5, 6.0)">e</text><text xml:space="preserve" font-family="Monaco,Monaco" font-size="18.0" fill="#00872A" transform="matrix(1.00, 0.00, -0.00, -1.00, 368.3, 6.0)"> </text><text xml:space="preserve" font-family="Monaco,Monaco" font-size="18.0" fill="#00872A" transform="matrix(1.00, 0.00, -0.00, -1.00, 379.1, 6.0)">*</text><text xml:space="preserve" font-family="Monaco,Monaco" font-size="18.0" fill="#00872A" transform="matrix(1.00, 0.00, -0.00, -1.00, 389.9, 6.0)">/</text></g></svg>