<?xml version="1.0" encoding="UTF-8" standalone="no"?><svg xmlns="http://www.w3.org/2000/svg" xmlns:xlink="http://www.w3.org/1999/xlink" clip-rule="evenodd" stroke-miterlimit="10" viewBox="0 0 498 166"><desc>SVG generated by Keynote</desc><defs></defs><g transform="matrix(1.00, 0.00, -0.00, -1.00, 0.0, 166.0)"><path d="M 3.5 26.0 L 3.5 140.0 C 3.5 152.3 13.8 162.5 26.1 162.5 L 471.6 162.5 C 483.8 162.5 493.5 152.3 493.5 140.0 L 493.5 25.8 C 493.5 13.6 483.8 3.5 471.6 3.5 L 26.1 3.5 C 13.8 3.5 3.5 13.7 3.5 26.0 Z M 3.9 25.8 " fill="#92D894"></path><path d="M -0.4 136.3 L -0.4 22.2 C -0.4 10.0 10.0 -0.2 22.2 -0.2 L 467.7 -0.2 C 480.0 -0.2 489.6 10.0 489.6 22.2 L 489.6 136.4 C 489.6 148.7 480.0 158.8 467.7 158.8 L 22.2 158.8 C 10.0 158.8 -0.4 148.5 -0.4 136.3 Z M 0.0 136.4 " fill="none" stroke="#00872A" stroke-width="5.00" transform="matrix(1.00, 0.00, 0.00, -1.00, 3.9, 162.3)"></path></g></svg>