<?xml version="1.0" encoding="UTF-8" standalone="no"?><svg xmlns="http://www.w3.org/2000/svg" xmlns:xlink="http://www.w3.org/1999/xlink" clip-rule="evenodd" stroke-miterlimit="10" viewBox="0 0 88 87"><desc>SVG generated by Keynote</desc><defs></defs><g transform="matrix(1.00, 0.00, -0.00, -1.00, 0.0, 87.0)"><path d="M 4.5 15.0 L 4.5 71.7 C 4.5 77.8 9.1 82.5 15.3 82.5 L 73.0 82.5 C 79.2 82.5 84.5 77.8 84.5 71.7 L 84.5 15.0 C 84.5 8.8 79.2 3.5 73.0 3.5 L 15.3 3.5 C 9.1 3.5 4.5 8.8 4.5 15.0 Z M 4.1 15.0 " fill="#51A7F9"></path><path d="M 0.4 67.8 L 0.4 11.2 C 0.4 5.0 5.0 0.3 11.2 0.3 L 68.9 0.3 C 75.0 0.3 80.4 5.0 80.4 11.2 L 80.4 67.8 C 80.4 74.0 75.0 79.3 68.9 79.3 L 11.2 79.3 C 5.0 79.3 0.4 74.0 0.4 67.8 Z M 0.0 67.8 " fill="none" stroke="#164E86" stroke-width="5.00" transform="matrix(1.00, 0.00, 0.00, -1.00, 4.1, 82.8)"></path><g><clipPath id="clip0x7fd058e9a9b0"><path d="M 4.1 3.8 L 84.2 3.8 L 84.2 82.8 L 4.1 82.8 Z M 4.1 3.8 "></path></clipPath><g clip-path="url(#clip0x7fd058e9a9b0)"><text xml:space="preserve" font-family="Helvetica-Bold,Helvetica" font-weight="bold" font-size="24.0" fill="#FEFFFE" transform="matrix(1.00, 0.00, -0.00, -1.00, 35.5, 34.3)">B</text></g></g></g></svg>