<?xml version="1.0" encoding="UTF-8" standalone="no"?><svg xmlns="http://www.w3.org/2000/svg" xmlns:xlink="http://www.w3.org/1999/xlink" clip-rule="evenodd" stroke-miterlimit="10" viewBox="0 0 401 22"><desc>SVG generated by Keynote</desc><defs></defs><g transform="matrix(1.00, 0.00, -0.00, -1.00, 0.0, 22.0)"><text xml:space="preserve" font-family="Monaco,Monaco" font-size="18.0" fill="#002451" transform="matrix(1.00, 0.00, -0.00, -1.00, 0.0, 6.0)">N</text><text xml:space="preserve" font-family="Monaco,Monaco" font-size="18.0" fill="#002451" transform="matrix(1.00, 0.00, -0.00, -1.00, 10.8, 6.0)">o</text><text xml:space="preserve" font-family="Monaco,Monaco" font-size="18.0" fill="#002451" transform="matrix(1.00, 0.00, -0.00, -1.00, 21.6, 6.0)">t</text><text xml:space="preserve" font-family="Monaco,Monaco" font-size="18.0" fill="#002451" transform="matrix(1.00, 0.00, -0.00, -1.00, 32.4, 6.0)">i</text><text xml:space="preserve" font-family="Monaco,Monaco" font-size="18.0" fill="#002451" transform="matrix(1.00, 0.00, -0.00, -1.00, 43.2, 6.0)">f</text><text xml:space="preserve" font-family="Monaco,Monaco" font-size="18.0" fill="#002451" transform="matrix(1.00, 0.00, -0.00, -1.00, 54.0, 6.0)">y</text><text xml:space="preserve" font-family="Monaco,Monaco" font-size="18.0" fill="#002451" transform="matrix(1.00, 0.00, -0.00, -1.00, 64.8, 6.0)">A</text><text xml:space="preserve" font-family="Monaco,Monaco" font-size="18.0" fill="#002451" transform="matrix(1.00, 0.00, -0.00, -1.00, 75.6, 6.0)">t</text><text xml:space="preserve" font-family="Monaco,Monaco" font-size="18.0" fill="#002451" transform="matrix(1.00, 0.00, -0.00, -1.00, 86.4, 6.0)">(</text><text xml:space="preserve" font-family="Monaco,Monaco" font-size="18.0" fill="#002451" transform="matrix(1.00, 0.00, -0.00, -1.00, 97.2, 6.0)">“</text><text xml:space="preserve" font-family="Monaco,Monaco" font-size="18.0" fill="#002451" transform="matrix(1.00, 0.00, -0.00, -1.00, 108.0, 6.0)">t</text><text xml:space="preserve" font-family="Monaco,Monaco" font-size="18.0" fill="#002451" transform="matrix(1.00, 0.00, -0.00, -1.00, 118.8, 6.0)">i</text><text xml:space="preserve" font-family="Monaco,Monaco" font-size="18.0" fill="#002451" transform="matrix(1.00, 0.00, -0.00, -1.00, 129.6, 6.0)">m</text><text xml:space="preserve" font-family="Monaco,Monaco" font-size="18.0" fill="#002451" transform="matrix(1.00, 0.00, -0.00, -1.00, 140.4, 6.0)">e</text><text xml:space="preserve" font-family="Monaco,Monaco" font-size="18.0" fill="#002451" transform="matrix(1.00, 0.00, -0.00, -1.00, 151.2, 6.0)">”</text><text xml:space="preserve" font-family="Monaco,Monaco" font-size="18.0" fill="#002451" transform="matrix(1.00, 0.00, -0.00, -1.00, 162.1, 6.0)">)</text><text xml:space="preserve" font-family="Monaco,Monaco" font-size="18.0" fill="#002451" transform="matrix(1.00, 0.00, -0.00, -1.00, 172.9, 6.0)">:</text><text xml:space="preserve" font-family="Monaco,Monaco" font-size="18.0" fill="#002451" transform="matrix(1.00, 0.00, -0.00, -1.00, 183.7, 6.0)"> </text><text xml:space="preserve" font-family="Monaco,Monaco" font-size="18.0" fill="#002451" transform="matrix(1.00, 0.00, -0.00, -1.00, 194.5, 6.0)"> </text><text xml:space="preserve" font-family="Monaco,Monaco" font-size="18.0" fill="#002451" transform="matrix(1.00, 0.00, -0.00, -1.00, 205.3, 6.0)"> </text><text xml:space="preserve" font-family="Monaco,Monaco" font-size="18.0" fill="#002451" transform="matrix(1.00, 0.00, -0.00, -1.00, 216.1, 6.0)"> </text><text xml:space="preserve" font-family="Monaco,Monaco" font-size="18.0" fill="#002451" transform="matrix(1.00, 0.00, -0.00, -1.00, 226.9, 6.0)"> </text><text xml:space="preserve" font-family="Monaco,Monaco" font-size="18.0" fill="#00872A" transform="matrix(1.00, 0.00, -0.00, -1.00, 237.6, 6.0)">/</text><text xml:space="preserve" font-family="Monaco,Monaco" font-size="18.0" fill="#00872A" transform="matrix(1.00, 0.00, -0.00, -1.00, 248.4, 6.0)">*</text><text xml:space="preserve" font-family="Monaco,Monaco" font-size="18.0" fill="#00872A" transform="matrix(1.00, 0.00, -0.00, -1.00, 259.2, 6.0)"> </text><text xml:space="preserve" font-family="Monaco,Monaco" font-size="18.0" fill="#00872A" transform="matrix(1.00, 0.00, -0.00, -1.00, 270.0, 6.0)">y</text><text xml:space="preserve" font-family="Monaco,Monaco" font-size="18.0" fill="#00872A" transform="matrix(1.00, 0.00, -0.00, -1.00, 280.9, 6.0)">o</text><text xml:space="preserve" font-family="Monaco,Monaco" font-size="18.0" fill="#00872A" transform="matrix(1.00, 0.00, -0.00, -1.00, 291.7, 6.0)">u</text><text xml:space="preserve" font-family="Monaco,Monaco" font-size="18.0" fill="#00872A" transform="matrix(1.00, 0.00, -0.00, -1.00, 302.5, 6.0)"> </text><text xml:space="preserve" font-family="Monaco,Monaco" font-size="18.0" fill="#00872A" transform="matrix(1.00, 0.00, -0.00, -1.00, 313.3, 6.0)">c</text><text xml:space="preserve" font-family="Monaco,Monaco" font-size="18.0" fill="#00872A" transform="matrix(1.00, 0.00, -0.00, -1.00, 324.1, 6.0)">a</text><text xml:space="preserve" font-family="Monaco,Monaco" font-size="18.0" fill="#00872A" transform="matrix(1.00, 0.00, -0.00, -1.00, 334.9, 6.0)">l</text><text xml:space="preserve" font-family="Monaco,Monaco" font-size="18.0" fill="#00872A" transform="matrix(1.00, 0.00, -0.00, -1.00, 345.7, 6.0)">l</text><text xml:space="preserve" font-family="Monaco,Monaco" font-size="18.0" fill="#00872A" transform="matrix(1.00, 0.00, -0.00, -1.00, 356.5, 6.0)"> </text><text xml:space="preserve" font-family="Monaco,Monaco" font-size="18.0" fill="#00872A" transform="matrix(1.00, 0.00, -0.00, -1.00, 367.3, 6.0)"> </text><text xml:space="preserve" font-family="Monaco,Monaco" font-size="18.0" fill="#00872A" transform="matrix(1.00, 0.00, -0.00, -1.00, 378.1, 6.0)">*</text><text xml:space="preserve" font-family="Monaco,Monaco" font-size="18.0" fill="#00872A" transform="matrix(1.00, 0.00, -0.00, -1.00, 388.9, 6.0)">/</text></g></svg>