<?xml version="1.0" encoding="UTF-8" standalone="no"?><svg xmlns="http://www.w3.org/2000/svg" xmlns:xlink="http://www.w3.org/1999/xlink" clip-rule="evenodd" stroke-miterlimit="4.00" viewBox="0 0 1024 768"><desc>SVG generated by Keynote</desc><defs></defs><g transform="matrix(1.00, 0.00, -0.00, -1.00, 0.0, 768.0)"><path d="M 0.0 768.0 L 1024.0 768.0 L 1024.0 0.0 L 0.0 0.0 Z M 0.0 768.0 " fill="#FEFFFF"></path><g><clipPath id="clip-364"><path d="M 100.0 668.0 L 924.0 668.0 L 924.0 100.0 L 100.0 100.0 Z M 100.0 668.0 "></path></clipPath><g clip-path="url(#clip-364)"><path d="M 100.0 668.0 L 306.0 668.0 L 306.0 573.3 L 100.0 573.3 Z M 100.0 668.0 " fill="#0264C0"></path><path d="M 306.0 668.0 L 512.0 668.0 L 512.0 573.3 L 306.0 573.3 Z M 306.0 668.0 " fill="#0264C0"></path><path d="M 512.0 668.0 L 718.0 668.0 L 718.0 573.3 L 512.0 573.3 Z M 512.0 668.0 " fill="#0264C0"></path><path d="M 718.0 668.0 L 924.0 668.0 L 924.0 573.3 L 718.0 573.3 Z M 718.0 668.0 " fill="#0264C0"></path><path d="M 100.0 573.3 L 306.0 573.3 L 306.0 478.7 L 100.0 478.7 Z M 100.0 573.3 " fill="#388CCE"></path><path d="M 306.0 573.3 L 512.0 573.3 L 512.0 478.7 L 306.0 478.7 Z M 306.0 573.3 " fill="#FEFFFF"></path><path d="M 512.0 573.3 L 718.0 573.3 L 718.0 478.7 L 512.0 478.7 Z M 512.0 573.3 " fill="#FEFFFF"></path><path d="M 718.0 573.3 L 924.0 573.3 L 924.0 478.7 L 718.0 478.7 Z M 718.0 573.3 " fill="#FEFFFF"></path><path d="M 100.0 478.7 L 306.0 478.7 L 306.0 384.0 L 100.0 384.0 Z M 100.0 478.7 " fill="#388CCE"></path><path d="M 306.0 478.7 L 512.0 478.7 L 512.0 384.0 L 306.0 384.0 Z M 306.0 478.7 " fill="#E2E5E8"></path><path d="M 512.0 478.7 L 718.0 478.7 L 718.0 384.0 L 512.0 384.0 Z M 512.0 478.7 " fill="#E2E5E8"></path><path d="M 718.0 478.7 L 924.0 478.7 L 924.0 384.0 L 718.0 384.0 Z M 718.0 478.7 " fill="#E2E5E8"></path><path d="M 100.0 384.0 L 306.0 384.0 L 306.0 289.3 L 100.0 289.3 Z M 100.0 384.0 " fill="#388CCE"></path><path d="M 306.0 384.0 L 512.0 384.0 L 512.0 289.3 L 306.0 289.3 Z M 306.0 384.0 " fill="#FEFFFF"></path><path d="M 512.0 384.0 L 718.0 384.0 L 718.0 289.3 L 512.0 289.3 Z M 512.0 384.0 " fill="#FEFFFF"></path><path d="M 718.0 384.0 L 924.0 384.0 L 924.0 289.3 L 718.0 289.3 Z M 718.0 384.0 " fill="#FEFFFF"></path><path d="M 100.0 289.3 L 306.0 289.3 L 306.0 194.7 L 100.0 194.7 Z M 100.0 289.3 " fill="#388CCE"></path><path d="M 306.0 289.3 L 512.0 289.3 L 512.0 194.7 L 306.0 194.7 Z M 306.0 289.3 " fill="#E2E5E8"></path><path d="M 512.0 289.3 L 718.0 289.3 L 718.0 194.7 L 512.0 194.7 Z M 512.0 289.3 " fill="#E2E5E8"></path><path d="M 718.0 289.3 L 924.0 289.3 L 924.0 194.7 L 718.0 194.7 Z M 718.0 289.3 " fill="#E2E5E8"></path><path d="M 100.0 194.7 L 306.0 194.7 L 306.0 100.0 L 100.0 100.0 Z M 100.0 194.7 " fill="#388CCE"></path><path d="M 306.0 194.7 L 512.0 194.7 L 512.0 100.0 L 306.0 100.0 Z M 306.0 194.7 " fill="#FEFFFF"></path><path d="M 512.0 194.7 L 718.0 194.7 L 718.0 100.0 L 512.0 100.0 Z M 512.0 194.7 " fill="#FEFFFF"></path><path d="M 718.0 194.7 L 924.0 194.7 L 924.0 100.0 L 718.0 100.0 Z M 718.0 194.7 " fill="#FEFFFF"></path></g></g><g><clipPath id="clip-365"><path d="M 100.0 668.0 L 924.0 668.0 L 924.0 100.0 L 100.0 100.0 Z M 100.0 668.0 "></path></clipPath><g clip-path="url(#clip-365)"><g><clipPath id="clip-366"><path d="M 100.0 573.8 L 306.0 573.8 L 306.0 668.0 L 100.0 668.0 Z M 100.0 573.8 "></path></clipPath><g clip-path="url(#clip-366)"><text xml:space="preserve" font-family="Helvetica-Bold" font-weight="bold" font-size="31.2" fill="#FEFFFE" transform="matrix(1.00, 0.00, -0.00, -1.00, 155.0, 609.0)">2</text><text xml:space="preserve" font-family="Helvetica-Bold" font-weight="bold" font-size="31.2" fill="#FEFFFE" transform="matrix(1.00, 0.00, -0.00, -1.00, 172.4, 609.0)">0</text><text xml:space="preserve" font-family="Helvetica-Bold" font-weight="bold" font-size="31.2" fill="#FEFFFE" transform="matrix(1.00, 0.00, -0.00, -1.00, 189.7, 609.0)">x</text><text xml:space="preserve" font-family="Helvetica-Bold" font-weight="bold" font-size="31.2" fill="#FEFFFE" transform="matrix(1.00, 0.00, -0.00, -1.00, 207.1, 609.0)">P</text><text xml:space="preserve" font-family="Helvetica-Bold" font-weight="bold" font-size="31.2" fill="#FEFFFE" transform="matrix(1.00, 0.00, -0.00, -1.00, 227.9, 609.0)">R</text></g></g></g></g><g><clipPath id="clip-367"><path d="M 100.0 668.0 L 924.0 668.0 L 924.0 100.0 L 100.0 100.0 Z M 100.0 668.0 "></path></clipPath><g clip-path="url(#clip-367)"><g><clipPath id="clip-368"><path d="M 306.0 573.8 L 512.0 573.8 L 512.0 668.0 L 306.0 668.0 Z M 306.0 573.8 "></path></clipPath><g clip-path="url(#clip-368)"><text xml:space="preserve" font-family="Helvetica-Bold" font-weight="bold" font-size="31.2" fill="#FEFFFE" transform="matrix(1.00, 0.00, -0.00, -1.00, 367.0, 609.0)">c</text><text xml:space="preserve" font-family="Helvetica-Bold" font-weight="bold" font-size="31.2" fill="#FEFFFE" transform="matrix(1.00, 0.00, -0.00, -1.00, 384.4, 609.0)">o</text><text xml:space="preserve" font-family="Helvetica-Bold" font-weight="bold" font-size="31.2" fill="#FEFFFE" transform="matrix(1.00, 0.00, -0.00, -1.00, 403.4, 609.0)">r</text><text xml:space="preserve" font-family="Helvetica-Bold" font-weight="bold" font-size="31.2" fill="#FEFFFE" transform="matrix(1.00, 0.00, -0.00, -1.00, 415.6, 609.0)">e</text><text xml:space="preserve" font-family="Helvetica-Bold" font-weight="bold" font-size="31.2" fill="#FEFFFE" transform="matrix(1.00, 0.00, -0.00, -1.00, 432.9, 609.0)">s</text></g></g></g></g><g><clipPath id="clip-369"><path d="M 100.0 668.0 L 924.0 668.0 L 924.0 100.0 L 100.0 100.0 Z M 100.0 668.0 "></path></clipPath><g clip-path="url(#clip-369)"><g><clipPath id="clip-370"><path d="M 512.0 573.8 L 718.0 573.8 L 718.0 668.0 L 512.0 668.0 Z M 512.0 573.8 "></path></clipPath><g clip-path="url(#clip-370)"><text xml:space="preserve" font-family="Helvetica-Bold" font-weight="bold" font-size="31.2" fill="#FEFFFE" transform="matrix(1.00, 0.00, -0.00, -1.00, 545.0, 609.0)">t</text><text xml:space="preserve" font-family="Helvetica-Bold" font-weight="bold" font-size="31.2" fill="#FEFFFE" transform="matrix(1.00, 0.00, -0.00, -1.00, 555.4, 609.0)">w</text><text xml:space="preserve" font-family="Helvetica-Bold" font-weight="bold" font-size="31.2" fill="#FEFFFE" transform="matrix(1.00, 0.00, -0.00, -1.00, 579.7, 609.0)">i</text><text xml:space="preserve" font-family="Helvetica-Bold" font-weight="bold" font-size="31.2" fill="#FEFFFE" transform="matrix(1.00, 0.00, -0.00, -1.00, 588.3, 609.0)">t</text><text xml:space="preserve" font-family="Helvetica-Bold" font-weight="bold" font-size="31.2" fill="#FEFFFE" transform="matrix(1.00, 0.00, -0.00, -1.00, 598.7, 609.0)">t</text><text xml:space="preserve" font-family="Helvetica-Bold" font-weight="bold" font-size="31.2" fill="#FEFFFE" transform="matrix(1.00, 0.00, -0.00, -1.00, 609.1, 609.0)">e</text><text xml:space="preserve" font-family="Helvetica-Bold" font-weight="bold" font-size="31.2" fill="#FEFFFE" transform="matrix(1.00, 0.00, -0.00, -1.00, 626.5, 609.0)">r</text><text xml:space="preserve" font-family="Helvetica-Bold" font-weight="bold" font-size="31.2" fill="#FEFFFE" transform="matrix(1.00, 0.00, -0.00, -1.00, 638.6, 609.0)">_</text><text xml:space="preserve" font-family="Helvetica-Bold" font-weight="bold" font-size="31.2" fill="#FEFFFE" transform="matrix(1.00, 0.00, -0.00, -1.00, 656.0, 609.0)">r</text><text xml:space="preserve" font-family="Helvetica-Bold" font-weight="bold" font-size="31.2" fill="#FEFFFE" transform="matrix(1.00, 0.00, -0.00, -1.00, 668.1, 609.0)">v</text></g></g></g></g><g><clipPath id="clip-371"><path d="M 100.0 668.0 L 924.0 668.0 L 924.0 100.0 L 100.0 100.0 Z M 100.0 668.0 "></path></clipPath><g clip-path="url(#clip-371)"><g><clipPath id="clip-372"><path d="M 718.0 573.8 L 924.0 573.8 L 924.0 668.0 L 718.0 668.0 Z M 718.0 573.8 "></path></clipPath><g clip-path="url(#clip-372)"><text xml:space="preserve" font-family="Helvetica-Bold" font-weight="bold" font-size="31.2" fill="#FEFFFE" transform="matrix(1.00, 0.00, -0.00, -1.00, 733.0, 609.0)">u</text><text xml:space="preserve" font-family="Helvetica-Bold" font-weight="bold" font-size="31.2" fill="#FEFFFE" transform="matrix(1.00, 0.00, -0.00, -1.00, 752.1, 609.0)">k</text><text xml:space="preserve" font-family="Helvetica-Bold" font-weight="bold" font-size="31.2" fill="#FEFFFE" transform="matrix(1.00, 0.00, -0.00, -1.00, 769.4, 609.0)">_</text><text xml:space="preserve" font-family="Helvetica-Bold" font-weight="bold" font-size="31.2" fill="#FEFFFE" transform="matrix(1.00, 0.00, -0.00, -1.00, 786.7, 609.0)">2</text><text xml:space="preserve" font-family="Helvetica-Bold" font-weight="bold" font-size="31.2" fill="#FEFFFE" transform="matrix(1.00, 0.00, -0.00, -1.00, 804.1, 609.0)">0</text><text xml:space="preserve" font-family="Helvetica-Bold" font-weight="bold" font-size="31.2" fill="#FEFFFE" transform="matrix(1.00, 0.00, -0.00, -1.00, 821.4, 609.0)">0</text><text xml:space="preserve" font-family="Helvetica-Bold" font-weight="bold" font-size="31.2" fill="#FEFFFE" transform="matrix(1.00, 0.00, -0.00, -1.00, 838.8, 609.0)">7</text><text xml:space="preserve" font-family="Helvetica-Bold" font-weight="bold" font-size="31.2" fill="#FEFFFE" transform="matrix(1.00, 0.00, -0.00, -1.00, 856.1, 609.0)">_</text><text xml:space="preserve" font-family="Helvetica-Bold" font-weight="bold" font-size="31.2" fill="#FEFFFE" transform="matrix(1.00, 0.00, -0.00, -1.00, 873.5, 609.0)">0</text><text xml:space="preserve" font-family="Helvetica-Bold" font-weight="bold" font-size="31.2" fill="#FEFFFE" transform="matrix(1.00, 0.00, -0.00, -1.00, 890.8, 609.0)">5</text></g></g></g></g><g><clipPath id="clip-373"><path d="M 100.0 668.0 L 924.0 668.0 L 924.0 100.0 L 100.0 100.0 Z M 100.0 668.0 "></path></clipPath><g clip-path="url(#clip-373)"><g><clipPath id="clip-374"><path d="M 100.0 478.7 L 305.5 478.7 L 305.5 572.8 L 100.0 572.8 Z M 100.0 478.7 "></path></clipPath><g clip-path="url(#clip-374)"><text xml:space="preserve" font-family="Helvetica-Bold" font-weight="bold" font-size="31.2" fill="#FEFFFE" transform="matrix(1.00, 0.00, -0.00, -1.00, 159.0, 514.0)">S</text><text xml:space="preserve" font-family="Helvetica-Bold" font-weight="bold" font-size="31.2" fill="#FEFFFE" transform="matrix(1.00, 0.00, -0.00, -1.00, 179.8, 514.0)">p</text><text xml:space="preserve" font-family="Helvetica-Bold" font-weight="bold" font-size="31.2" fill="#FEFFFE" transform="matrix(1.00, 0.00, -0.00, -1.00, 198.9, 514.0)">a</text><text xml:space="preserve" font-family="Helvetica-Bold" font-weight="bold" font-size="31.2" fill="#FEFFFE" transform="matrix(1.00, 0.00, -0.00, -1.00, 216.2, 514.0)">r</text><text xml:space="preserve" font-family="Helvetica-Bold" font-weight="bold" font-size="31.2" fill="#FEFFFE" transform="matrix(1.00, 0.00, -0.00, -1.00, 228.4, 514.0)">k</text></g></g></g></g><g><clipPath id="clip-375"><path d="M 100.0 668.0 L 924.0 668.0 L 924.0 100.0 L 100.0 100.0 Z M 100.0 668.0 "></path></clipPath><g clip-path="url(#clip-375)"><g><clipPath id="clip-376"><path d="M 306.5 478.7 L 512.0 478.7 L 512.0 572.8 L 306.5 572.8 Z M 306.5 478.7 "></path></clipPath><g clip-path="url(#clip-376)"><text xml:space="preserve" font-family="Helvetica-Light" font-size="31.2" fill="#000000" transform="matrix(1.00, 0.00, -0.00, -1.00, 383.0, 514.0)">1</text><text xml:space="preserve" font-family="Helvetica-Light" font-size="31.2" fill="#000000" transform="matrix(1.00, 0.00, -0.00, -1.00, 400.3, 514.0)">2</text><text xml:space="preserve" font-family="Helvetica-Light" font-size="31.2" fill="#000000" transform="matrix(1.00, 0.00, -0.00, -1.00, 417.7, 514.0)">8</text></g></g></g></g><g><clipPath id="clip-377"><path d="M 100.0 668.0 L 924.0 668.0 L 924.0 100.0 L 100.0 100.0 Z M 100.0 668.0 "></path></clipPath><g clip-path="url(#clip-377)"><g><clipPath id="clip-378"><path d="M 512.0 478.7 L 718.0 478.7 L 718.0 572.8 L 512.0 572.8 Z M 512.0 478.7 "></path></clipPath><g clip-path="url(#clip-378)"><text xml:space="preserve" font-family="Helvetica-Light" font-size="31.2" fill="#000000" transform="matrix(1.00, 0.00, -0.00, -1.00, 581.0, 514.0)">8</text><text xml:space="preserve" font-family="Helvetica-Light" font-size="31.2" fill="#000000" transform="matrix(1.00, 0.00, -0.00, -1.00, 598.3, 514.0)">5</text><text xml:space="preserve" font-family="Helvetica-Light" font-size="31.2" fill="#000000" transform="matrix(1.00, 0.00, -0.00, -1.00, 615.7, 514.0)">7</text><text xml:space="preserve" font-family="Helvetica-Light" font-size="31.2" fill="#000000" transform="matrix(1.00, 0.00, -0.00, -1.00, 633.0, 514.0)">s</text></g></g></g></g><g><clipPath id="clip-379"><path d="M 100.0 668.0 L 924.0 668.0 L 924.0 100.0 L 100.0 100.0 Z M 100.0 668.0 "></path></clipPath><g clip-path="url(#clip-379)"><g><clipPath id="clip-380"><path d="M 718.0 478.7 L 924.0 478.7 L 924.0 572.8 L 718.0 572.8 Z M 718.0 478.7 "></path></clipPath><g clip-path="url(#clip-380)"><text xml:space="preserve" font-family="Helvetica-Light" font-size="31.2" fill="#000000" transform="matrix(1.00, 0.00, -0.00, -1.00, 779.0, 514.0)">1</text><text xml:space="preserve" font-family="Helvetica-Light" font-size="31.2" fill="#000000" transform="matrix(1.00, 0.00, -0.00, -1.00, 796.3, 514.0)">7</text><text xml:space="preserve" font-family="Helvetica-Light" font-size="31.2" fill="#000000" transform="matrix(1.00, 0.00, -0.00, -1.00, 813.7, 514.0)">5</text><text xml:space="preserve" font-family="Helvetica-Light" font-size="31.2" fill="#000000" transform="matrix(1.00, 0.00, -0.00, -1.00, 831.0, 514.0)">9</text><text xml:space="preserve" font-family="Helvetica-Light" font-size="31.2" fill="#000000" transform="matrix(1.00, 0.00, -0.00, -1.00, 848.4, 514.0)">s</text></g></g></g></g><g><clipPath id="clip-381"><path d="M 100.0 668.0 L 924.0 668.0 L 924.0 100.0 L 100.0 100.0 Z M 100.0 668.0 "></path></clipPath><g clip-path="url(#clip-381)"><g><clipPath id="clip-382"><path d="M 100.0 384.0 L 305.5 384.0 L 305.5 478.7 L 100.0 478.7 Z M 100.0 384.0 "></path></clipPath><g clip-path="url(#clip-382)"><text xml:space="preserve" font-family="Helvetica-Bold" font-weight="bold" font-size="31.2" fill="#FEFFFE" transform="matrix(1.00, 0.00, -0.00, -1.00, 152.0, 420.0)">G</text><text xml:space="preserve" font-family="Helvetica-Bold" font-weight="bold" font-size="31.2" fill="#FEFFFE" transform="matrix(1.00, 0.00, -0.00, -1.00, 176.3, 420.0)">i</text><text xml:space="preserve" font-family="Helvetica-Bold" font-weight="bold" font-size="31.2" fill="#FEFFFE" transform="matrix(1.00, 0.00, -0.00, -1.00, 184.9, 420.0)">r</text><text xml:space="preserve" font-family="Helvetica-Bold" font-weight="bold" font-size="31.2" fill="#FEFFFE" transform="matrix(1.00, 0.00, -0.00, -1.00, 197.1, 420.0)">a</text><text xml:space="preserve" font-family="Helvetica-Bold" font-weight="bold" font-size="31.2" fill="#FEFFFE" transform="matrix(1.00, 0.00, -0.00, -1.00, 214.4, 420.0)">p</text><text xml:space="preserve" font-family="Helvetica-Bold" font-weight="bold" font-size="31.2" fill="#FEFFFE" transform="matrix(1.00, 0.00, -0.00, -1.00, 233.5, 420.0)">h</text></g></g></g></g><g><clipPath id="clip-383"><path d="M 100.0 668.0 L 924.0 668.0 L 924.0 100.0 L 100.0 100.0 Z M 100.0 668.0 "></path></clipPath><g clip-path="url(#clip-383)"><g><clipPath id="clip-384"><path d="M 306.5 384.0 L 512.0 384.0 L 512.0 478.7 L 306.5 478.7 Z M 306.5 384.0 "></path></clipPath><g clip-path="url(#clip-384)"><text xml:space="preserve" font-family="Helvetica-Light" font-size="31.2" fill="#000000" transform="matrix(1.00, 0.00, -0.00, -1.00, 383.0, 420.0)">1</text><text xml:space="preserve" font-family="Helvetica-Light" font-size="31.2" fill="#000000" transform="matrix(1.00, 0.00, -0.00, -1.00, 400.3, 420.0)">2</text><text xml:space="preserve" font-family="Helvetica-Light" font-size="31.2" fill="#000000" transform="matrix(1.00, 0.00, -0.00, -1.00, 417.7, 420.0)">8</text></g></g></g></g><g><clipPath id="clip-385"><path d="M 100.0 668.0 L 924.0 668.0 L 924.0 100.0 L 100.0 100.0 Z M 100.0 668.0 "></path></clipPath><g clip-path="url(#clip-385)"><g><clipPath id="clip-386"><path d="M 512.0 384.0 L 718.0 384.0 L 718.0 478.7 L 512.0 478.7 Z M 512.0 384.0 "></path></clipPath><g clip-path="url(#clip-386)"><text xml:space="preserve" font-family="Helvetica-Light" font-size="31.2" fill="#000000" transform="matrix(1.00, 0.00, -0.00, -1.00, 581.0, 420.0)">5</text><text xml:space="preserve" font-family="Helvetica-Light" font-size="31.2" fill="#000000" transform="matrix(1.00, 0.00, -0.00, -1.00, 598.3, 420.0)">9</text><text xml:space="preserve" font-family="Helvetica-Light" font-size="31.2" fill="#000000" transform="matrix(1.00, 0.00, -0.00, -1.00, 615.7, 420.0)">6</text><text xml:space="preserve" font-family="Helvetica-Light" font-size="31.2" fill="#000000" transform="matrix(1.00, 0.00, -0.00, -1.00, 633.0, 420.0)">s</text></g></g></g></g><g><clipPath id="clip-387"><path d="M 100.0 668.0 L 924.0 668.0 L 924.0 100.0 L 100.0 100.0 Z M 100.0 668.0 "></path></clipPath><g clip-path="url(#clip-387)"><g><clipPath id="clip-388"><path d="M 718.0 384.0 L 924.0 384.0 L 924.0 478.7 L 718.0 478.7 Z M 718.0 384.0 "></path></clipPath><g clip-path="url(#clip-388)"><text xml:space="preserve" font-family="Helvetica-Light" font-size="31.2" fill="#000000" transform="matrix(1.00, 0.00, -0.00, -1.00, 779.0, 420.0)">1</text><text xml:space="preserve" font-family="Helvetica-Light" font-size="31.2" fill="#000000" transform="matrix(1.00, 0.00, -0.00, -1.00, 796.3, 420.0)">2</text><text xml:space="preserve" font-family="Helvetica-Light" font-size="31.2" fill="#000000" transform="matrix(1.00, 0.00, -0.00, -1.00, 813.7, 420.0)">3</text><text xml:space="preserve" font-family="Helvetica-Light" font-size="31.2" fill="#000000" transform="matrix(1.00, 0.00, -0.00, -1.00, 831.0, 420.0)">5</text><text xml:space="preserve" font-family="Helvetica-Light" font-size="31.2" fill="#000000" transform="matrix(1.00, 0.00, -0.00, -1.00, 848.4, 420.0)">s</text></g></g></g></g><g><clipPath id="clip-389"><path d="M 100.0 668.0 L 924.0 668.0 L 924.0 100.0 L 100.0 100.0 Z M 100.0 668.0 "></path></clipPath><g clip-path="url(#clip-389)"><g><clipPath id="clip-390"><path d="M 100.0 289.3 L 305.5 289.3 L 305.5 384.0 L 100.0 384.0 Z M 100.0 289.3 "></path></clipPath><g clip-path="url(#clip-390)"><text xml:space="preserve" font-family="Helvetica-Bold" font-weight="bold" font-size="31.2" fill="#FEFFFE" transform="matrix(1.00, 0.00, -0.00, -1.00, 129.0, 325.0)">G</text><text xml:space="preserve" font-family="Helvetica-Bold" font-weight="bold" font-size="31.2" fill="#FEFFFE" transform="matrix(1.00, 0.00, -0.00, -1.00, 153.3, 325.0)">r</text><text xml:space="preserve" font-family="Helvetica-Bold" font-weight="bold" font-size="31.2" fill="#FEFFFE" transform="matrix(1.00, 0.00, -0.00, -1.00, 165.4, 325.0)">a</text><text xml:space="preserve" font-family="Helvetica-Bold" font-weight="bold" font-size="31.2" fill="#FEFFFE" transform="matrix(1.00, 0.00, -0.00, -1.00, 182.7, 325.0)">p</text><text xml:space="preserve" font-family="Helvetica-Bold" font-weight="bold" font-size="31.2" fill="#FEFFFE" transform="matrix(1.00, 0.00, -0.00, -1.00, 201.8, 325.0)">h</text><text xml:space="preserve" font-family="Helvetica-Bold" font-weight="bold" font-size="31.2" fill="#FEFFFE" transform="matrix(1.00, 0.00, -0.00, -1.00, 220.8, 325.0)">L</text><text xml:space="preserve" font-family="Helvetica-Bold" font-weight="bold" font-size="31.2" fill="#FEFFFE" transform="matrix(1.00, 0.00, -0.00, -1.00, 239.9, 325.0)">a</text><text xml:space="preserve" font-family="Helvetica-Bold" font-weight="bold" font-size="31.2" fill="#FEFFFE" transform="matrix(1.00, 0.00, -0.00, -1.00, 257.2, 325.0)">b</text></g></g></g></g><g><clipPath id="clip-391"><path d="M 100.0 668.0 L 924.0 668.0 L 924.0 100.0 L 100.0 100.0 Z M 100.0 668.0 "></path></clipPath><g clip-path="url(#clip-391)"><g><clipPath id="clip-392"><path d="M 306.5 289.3 L 512.0 289.3 L 512.0 384.0 L 306.5 384.0 Z M 306.5 289.3 "></path></clipPath><g clip-path="url(#clip-392)"><text xml:space="preserve" font-family="Helvetica-Light" font-size="31.2" fill="#000000" transform="matrix(1.00, 0.00, -0.00, -1.00, 383.0, 325.0)">1</text><text xml:space="preserve" font-family="Helvetica-Light" font-size="31.2" fill="#000000" transform="matrix(1.00, 0.00, -0.00, -1.00, 400.3, 325.0)">2</text><text xml:space="preserve" font-family="Helvetica-Light" font-size="31.2" fill="#000000" transform="matrix(1.00, 0.00, -0.00, -1.00, 417.7, 325.0)">8</text></g></g></g></g><g><clipPath id="clip-393"><path d="M 100.0 668.0 L 924.0 668.0 L 924.0 100.0 L 100.0 100.0 Z M 100.0 668.0 "></path></clipPath><g clip-path="url(#clip-393)"><g><clipPath id="clip-394"><path d="M 512.0 289.3 L 718.0 289.3 L 718.0 384.0 L 512.0 384.0 Z M 512.0 289.3 "></path></clipPath><g clip-path="url(#clip-394)"><text xml:space="preserve" font-family="Helvetica-Light" font-size="31.2" fill="#000000" transform="matrix(1.00, 0.00, -0.00, -1.00, 581.0, 325.0)">2</text><text xml:space="preserve" font-family="Helvetica-Light" font-size="31.2" fill="#000000" transform="matrix(1.00, 0.00, -0.00, -1.00, 598.3, 325.0)">4</text><text xml:space="preserve" font-family="Helvetica-Light" font-size="31.2" fill="#000000" transform="matrix(1.00, 0.00, -0.00, -1.00, 615.7, 325.0)">9</text><text xml:space="preserve" font-family="Helvetica-Light" font-size="31.2" fill="#000000" transform="matrix(1.00, 0.00, -0.00, -1.00, 633.0, 325.0)">s</text></g></g></g></g><g><clipPath id="clip-395"><path d="M 100.0 668.0 L 924.0 668.0 L 924.0 100.0 L 100.0 100.0 Z M 100.0 668.0 "></path></clipPath><g clip-path="url(#clip-395)"><g><clipPath id="clip-396"><path d="M 718.0 289.3 L 924.0 289.3 L 924.0 384.0 L 718.0 384.0 Z M 718.0 289.3 "></path></clipPath><g clip-path="url(#clip-396)"><text xml:space="preserve" font-family="Helvetica-Light" font-size="31.2" fill="#000000" transform="matrix(1.00, 0.00, -0.00, -1.00, 787.0, 325.0)">8</text><text xml:space="preserve" font-family="Helvetica-Light" font-size="31.2" fill="#000000" transform="matrix(1.00, 0.00, -0.00, -1.00, 804.3, 325.0)">3</text><text xml:space="preserve" font-family="Helvetica-Light" font-size="31.2" fill="#000000" transform="matrix(1.00, 0.00, -0.00, -1.00, 821.7, 325.0)">3</text><text xml:space="preserve" font-family="Helvetica-Light" font-size="31.2" fill="#000000" transform="matrix(1.00, 0.00, -0.00, -1.00, 839.0, 325.0)">s</text></g></g></g></g><g><clipPath id="clip-397"><path d="M 100.0 668.0 L 924.0 668.0 L 924.0 100.0 L 100.0 100.0 Z M 100.0 668.0 "></path></clipPath><g clip-path="url(#clip-397)"><g><clipPath id="clip-398"><path d="M 100.0 194.7 L 305.5 194.7 L 305.5 289.3 L 100.0 289.3 Z M 100.0 194.7 "></path></clipPath><g clip-path="url(#clip-398)"><text xml:space="preserve" font-family="Helvetica-Bold" font-weight="bold" font-size="31.2" fill="#FEFFFE" transform="matrix(1.00, 0.00, -0.00, -1.00, 146.0, 231.0)">G</text><text xml:space="preserve" font-family="Helvetica-Bold" font-weight="bold" font-size="31.2" fill="#FEFFFE" transform="matrix(1.00, 0.00, -0.00, -1.00, 170.3, 231.0)">r</text><text xml:space="preserve" font-family="Helvetica-Bold" font-weight="bold" font-size="31.2" fill="#FEFFFE" transform="matrix(1.00, 0.00, -0.00, -1.00, 182.4, 231.0)">a</text><text xml:space="preserve" font-family="Helvetica-Bold" font-weight="bold" font-size="31.2" fill="#FEFFFE" transform="matrix(1.00, 0.00, -0.00, -1.00, 199.7, 231.0)">p</text><text xml:space="preserve" font-family="Helvetica-Bold" font-weight="bold" font-size="31.2" fill="#FEFFFE" transform="matrix(1.00, 0.00, -0.00, -1.00, 218.8, 231.0)">h</text><text xml:space="preserve" font-family="Helvetica-Bold" font-weight="bold" font-size="31.2" fill="#FEFFFE" transform="matrix(1.00, 0.00, -0.00, -1.00, 237.8, 231.0)">X</text></g></g></g></g><g><clipPath id="clip-399"><path d="M 100.0 668.0 L 924.0 668.0 L 924.0 100.0 L 100.0 100.0 Z M 100.0 668.0 "></path></clipPath><g clip-path="url(#clip-399)"><g><clipPath id="clip-400"><path d="M 306.5 194.7 L 512.0 194.7 L 512.0 289.3 L 306.5 289.3 Z M 306.5 194.7 "></path></clipPath><g clip-path="url(#clip-400)"><text xml:space="preserve" font-family="Helvetica-Light" font-size="31.2" fill="#000000" transform="matrix(1.00, 0.00, -0.00, -1.00, 383.0, 231.0)">1</text><text xml:space="preserve" font-family="Helvetica-Light" font-size="31.2" fill="#000000" transform="matrix(1.00, 0.00, -0.00, -1.00, 400.3, 231.0)">2</text><text xml:space="preserve" font-family="Helvetica-Light" font-size="31.2" fill="#000000" transform="matrix(1.00, 0.00, -0.00, -1.00, 417.7, 231.0)">8</text></g></g></g></g><g><clipPath id="clip-401"><path d="M 100.0 668.0 L 924.0 668.0 L 924.0 100.0 L 100.0 100.0 Z M 100.0 668.0 "></path></clipPath><g clip-path="url(#clip-401)"><g><clipPath id="clip-402"><path d="M 512.0 194.7 L 718.0 194.7 L 718.0 289.3 L 512.0 289.3 Z M 512.0 194.7 "></path></clipPath><g clip-path="url(#clip-402)"><text xml:space="preserve" font-family="Helvetica-Light" font-size="31.2" fill="#000000" transform="matrix(1.00, 0.00, -0.00, -1.00, 581.0, 231.0)">4</text><text xml:space="preserve" font-family="Helvetica-Light" font-size="31.2" fill="#000000" transform="matrix(1.00, 0.00, -0.00, -1.00, 598.3, 231.0)">1</text><text xml:space="preserve" font-family="Helvetica-Light" font-size="31.2" fill="#000000" transform="matrix(1.00, 0.00, -0.00, -1.00, 615.7, 231.0)">9</text><text xml:space="preserve" font-family="Helvetica-Light" font-size="31.2" fill="#000000" transform="matrix(1.00, 0.00, -0.00, -1.00, 633.0, 231.0)">s</text></g></g></g></g><g><clipPath id="clip-403"><path d="M 100.0 668.0 L 924.0 668.0 L 924.0 100.0 L 100.0 100.0 Z M 100.0 668.0 "></path></clipPath><g clip-path="url(#clip-403)"><g><clipPath id="clip-404"><path d="M 718.0 194.7 L 924.0 194.7 L 924.0 289.3 L 718.0 289.3 Z M 718.0 194.7 "></path></clipPath><g clip-path="url(#clip-404)"><text xml:space="preserve" font-family="Helvetica-Light" font-size="31.2" fill="#000000" transform="matrix(1.00, 0.00, -0.00, -1.00, 787.0, 231.0)">4</text><text xml:space="preserve" font-family="Helvetica-Light" font-size="31.2" fill="#000000" transform="matrix(1.00, 0.00, -0.00, -1.00, 804.3, 231.0)">6</text><text xml:space="preserve" font-family="Helvetica-Light" font-size="31.2" fill="#000000" transform="matrix(1.00, 0.00, -0.00, -1.00, 821.7, 231.0)">2</text><text xml:space="preserve" font-family="Helvetica-Light" font-size="31.2" fill="#000000" transform="matrix(1.00, 0.00, -0.00, -1.00, 839.0, 231.0)">s</text></g></g></g></g><g><clipPath id="clip-405"><path d="M 100.0 668.0 L 924.0 668.0 L 924.0 100.0 L 100.0 100.0 Z M 100.0 668.0 "></path></clipPath><g clip-path="url(#clip-405)"><g><clipPath id="clip-406"><path d="M 100.0 100.0 L 305.5 100.0 L 305.5 194.7 L 100.0 194.7 Z M 100.0 100.0 "></path></clipPath><g clip-path="url(#clip-406)"><text xml:space="preserve" font-family="Helvetica-Bold" font-weight="bold" font-size="31.2" fill="#FEFFFE" transform="matrix(1.00, 0.00, -0.00, -1.00, 154.0, 136.0)">T</text><text xml:space="preserve" font-family="Helvetica-Bold" font-weight="bold" font-size="31.2" fill="#FEFFFE" transform="matrix(1.00, 0.00, -0.00, -1.00, 172.5, 136.0)">i</text><text xml:space="preserve" font-family="Helvetica-Bold" font-weight="bold" font-size="31.2" fill="#FEFFFE" transform="matrix(1.00, 0.00, -0.00, -1.00, 181.2, 136.0)">m</text><text xml:space="preserve" font-family="Helvetica-Bold" font-weight="bold" font-size="31.2" fill="#FEFFFE" transform="matrix(1.00, 0.00, -0.00, -1.00, 208.9, 136.0)">e</text><text xml:space="preserve" font-family="Helvetica-Bold" font-weight="bold" font-size="31.2" fill="#FEFFFE" transform="matrix(1.00, 0.00, -0.00, -1.00, 226.3, 136.0)">l</text><text xml:space="preserve" font-family="Helvetica-Bold" font-weight="bold" font-size="31.2" fill="#FEFFFE" transform="matrix(1.00, 0.00, -0.00, -1.00, 235.0, 136.0)">y</text></g></g></g></g><g><clipPath id="clip-407"><path d="M 100.0 668.0 L 924.0 668.0 L 924.0 100.0 L 100.0 100.0 Z M 100.0 668.0 "></path></clipPath><g clip-path="url(#clip-407)"><g><clipPath id="clip-408"><path d="M 306.5 100.0 L 512.0 100.0 L 512.0 194.7 L 306.5 194.7 Z M 306.5 100.0 "></path></clipPath><g clip-path="url(#clip-408)"><text xml:space="preserve" font-family="Helvetica-Light" font-size="31.2" fill="#000000" transform="matrix(1.00, 0.00, -0.00, -1.00, 383.0, 136.0)">1</text><text xml:space="preserve" font-family="Helvetica-Light" font-size="31.2" fill="#000000" transform="matrix(1.00, 0.00, -0.00, -1.00, 400.3, 136.0)">2</text><text xml:space="preserve" font-family="Helvetica-Light" font-size="31.2" fill="#000000" transform="matrix(1.00, 0.00, -0.00, -1.00, 417.7, 136.0)">8</text></g></g></g></g></g></svg>