<?xml version="1.0" encoding="UTF-8" standalone="no"?><svg xmlns="http://www.w3.org/2000/svg" xmlns:xlink="http://www.w3.org/1999/xlink" clip-rule="evenodd" stroke-miterlimit="10" viewBox="0 0 1024 768"><desc>SVG generated by Keynote</desc><defs></defs><g transform="matrix(1.00, 0.00, -0.00, -1.00, 0.0, 768.0)"><path d="M 0.0 768.0 L 1024.0 768.0 L 1024.0 0.0 L 0.0 0.0 Z M 0.0 768.0 " fill="#FEFFFF"></path><text xml:space="preserve" font-family="Helvetica-Light,Helvetica" font-size="77.6" fill="#000000" transform="matrix(1.00, 0.00, -0.00, -1.00, 82.9, 618.8)">D</text><text xml:space="preserve" font-family="Helvetica-Light,Helvetica" font-size="77.6" fill="#000000" transform="matrix(1.00, 0.00, -0.00, -1.00, 139.0, 618.8)">i</text><text xml:space="preserve" font-family="Helvetica-Light,Helvetica" font-size="77.6" fill="#000000" transform="matrix(1.00, 0.00, -0.00, -1.00, 156.2, 618.8)">s</text><text xml:space="preserve" font-family="Helvetica-Light,Helvetica" font-size="77.6" fill="#000000" transform="matrix(1.00, 0.00, -0.00, -1.00, 195.0, 618.8)">t</text><text xml:space="preserve" font-family="Helvetica-Light,Helvetica" font-size="77.6" fill="#000000" transform="matrix(1.00, 0.00, -0.00, -1.00, 216.6, 618.8)">r</text><text xml:space="preserve" font-family="Helvetica-Light,Helvetica" font-size="77.6" fill="#000000" transform="matrix(1.00, 0.00, -0.00, -1.00, 242.4, 618.8)">i</text><text xml:space="preserve" font-family="Helvetica-Light,Helvetica" font-size="77.6" fill="#000000" transform="matrix(1.00, 0.00, -0.00, -1.00, 259.6, 618.8)">b</text><text xml:space="preserve" font-family="Helvetica-Light,Helvetica" font-size="77.6" fill="#000000" transform="matrix(1.00, 0.00, -0.00, -1.00, 307.1, 618.8)">u</text><text xml:space="preserve" font-family="Helvetica-Light,Helvetica" font-size="77.6" fill="#000000" transform="matrix(1.00, 0.00, -0.00, -1.00, 350.2, 618.8)">t</text><text xml:space="preserve" font-family="Helvetica-Light,Helvetica" font-size="77.6" fill="#000000" transform="matrix(1.00, 0.00, -0.00, -1.00, 371.8, 618.8)">e</text><text xml:space="preserve" font-family="Helvetica-Light,Helvetica" font-size="77.6" fill="#000000" transform="matrix(1.00, 0.00, -0.00, -1.00, 414.9, 618.8)">d</text><text xml:space="preserve" font-family="Helvetica-Light,Helvetica" font-size="77.6" fill="#000000" transform="matrix(1.00, 0.00, -0.00, -1.00, 462.3, 618.8)"> </text><text xml:space="preserve" font-family="Helvetica-Light,Helvetica" font-size="77.6" fill="#000000" transform="matrix(1.00, 0.00, -0.00, -1.00, 483.9, 618.8)">R</text><text xml:space="preserve" font-family="Helvetica-Light,Helvetica" font-size="77.6" fill="#000000" transform="matrix(1.00, 0.00, -0.00, -1.00, 535.7, 618.8)">e</text><text xml:space="preserve" font-family="Helvetica-Light,Helvetica" font-size="77.6" fill="#000000" transform="matrix(1.00, 0.00, -0.00, -1.00, 578.8, 618.8)">f</text><text xml:space="preserve" font-family="Helvetica-Light,Helvetica" font-size="77.6" fill="#000000" transform="matrix(1.00, 0.00, -0.00, -1.00, 600.4, 618.8)">-</text><text xml:space="preserve" font-family="Helvetica-Light,Helvetica" font-size="77.6" fill="#000000" transform="matrix(1.00, 0.00, -0.00, -1.00, 626.2, 618.8)">C</text><text xml:space="preserve" font-family="Helvetica-Light,Helvetica" font-size="77.6" fill="#000000" transform="matrix(1.00, 0.00, -0.00, -1.00, 682.3, 618.8)">o</text><text xml:space="preserve" font-family="Helvetica-Light,Helvetica" font-size="77.6" fill="#000000" transform="matrix(1.00, 0.00, -0.00, -1.00, 725.4, 618.8)">u</text><text xml:space="preserve" font-family="Helvetica-Light,Helvetica" font-size="77.6" fill="#000000" transform="matrix(1.00, 0.00, -0.00, -1.00, 768.5, 618.8)">n</text><text xml:space="preserve" font-family="Helvetica-Light,Helvetica" font-size="77.6" fill="#000000" transform="matrix(1.00, 0.00, -0.00, -1.00, 811.7, 618.8)">t</text><text xml:space="preserve" font-family="Helvetica-Light,Helvetica" font-size="77.6" fill="#000000" transform="matrix(1.00, 0.00, -0.00, -1.00, 833.3, 618.8)">i</text><text xml:space="preserve" font-family="Helvetica-Light,Helvetica" font-size="77.6" fill="#000000" transform="matrix(1.00, 0.00, -0.00, -1.00, 850.5, 618.8)">n</text><text xml:space="preserve" font-family="Helvetica-Light,Helvetica" font-size="77.6" fill="#000000" transform="matrix(1.00, 0.00, -0.00, -1.00, 893.6, 618.8)">g</text><g><clipPath id="clip0x7fd059a36a40"><path d="M 234.5 353.0 L 292.8 353.0 L 292.8 415.0 L 234.5 415.0 Z M 234.5 353.0 "></path></clipPath><g clip-path="url(#clip0x7fd059a36a40)"><path d="M 238.5 364.0 L 238.5 403.7 C 238.5 408.0 241.5 411.5 245.8 411.5 L 281.5 411.5 C 285.8 411.5 289.5 408.0 289.5 403.7 L 289.5 364.3 C 289.5 360.0 285.8 356.5 281.5 356.5 L 245.8 356.5 C 241.5 356.5 238.5 359.7 238.5 364.0 Z M 238.0 364.3 " fill="#51A7F9"></path><path d="M 0.5 47.5 L 0.5 7.8 C 0.5 3.5 3.5 -0.0 7.8 -0.0 L 43.5 -0.0 C 47.8 -0.0 51.5 3.5 51.5 7.8 L 51.5 47.2 C 51.5 51.5 47.8 55.0 43.5 55.0 L 7.8 55.0 C 3.5 55.0 0.5 51.8 0.5 47.5 Z M 0.0 47.2 " fill="none" stroke="#164E86" stroke-width="5.00" transform="matrix(1.00, 0.00, 0.00, -1.00, 238.0, 411.5)"></path></g></g><g><clipPath id="clip0x7fd059a38870"><path d="M 238.0 356.5 L 289.3 356.5 L 289.3 411.5 L 238.0 411.5 Z M 238.0 356.5 "></path></clipPath><g clip-path="url(#clip0x7fd059a38870)"><text xml:space="preserve" font-family="Helvetica-Bold,Helvetica" font-weight="bold" font-size="24.0" fill="#FEFFFE" transform="matrix(1.00, 0.00, -0.00, -1.00, 255.0, 375.5)">C</text></g></g><g><clipPath id="clip0x7fd059a3a4a0"><path d="M 285.0 353.0 L 387.8 353.0 L 387.8 415.0 L 285.0 415.0 Z M 285.0 353.0 "></path></clipPath><g clip-path="url(#clip0x7fd059a3a4a0)"><path d="M 288.5 364.0 L 288.5 403.7 C 288.5 408.0 292.0 411.5 296.3 411.5 L 376.5 411.5 C 380.8 411.5 384.5 408.0 384.5 403.7 L 384.5 364.3 C 384.5 360.0 380.8 356.5 376.5 356.5 L 296.3 356.5 C 292.0 356.5 288.5 359.7 288.5 364.0 Z M 288.5 364.3 " fill="#B26AE1"></path><path d="M -0.0 47.5 L -0.0 7.8 C -0.0 3.5 3.5 -0.0 7.8 -0.0 L 88.0 -0.0 C 92.3 -0.0 96.0 3.5 96.0 7.8 L 96.0 47.2 C 96.0 51.5 92.3 55.0 88.0 55.0 L 7.8 55.0 C 3.5 55.0 -0.0 51.8 -0.0 47.5 Z M 0.0 47.2 " fill="none" stroke="#164E86" stroke-width="5.00" transform="matrix(1.00, 0.00, 0.00, -1.00, 288.5, 411.5)"></path></g></g><g><clipPath id="clip0x7fd059b58750"><path d="M 288.5 356.5 L 384.3 356.5 L 384.3 411.5 L 288.5 411.5 Z M 288.5 356.5 "></path></clipPath><g clip-path="url(#clip0x7fd059b58750)"><text xml:space="preserve" font-family="Helvetica-Bold,Helvetica" font-weight="bold" font-size="24.0" fill="#FEFFFE" transform="matrix(1.00, 0.00, -0.00, -1.00, 311.7, 375.5)">t</text><text xml:space="preserve" font-family="Helvetica-Bold,Helvetica" font-weight="bold" font-size="24.0" fill="#FEFFFE" transform="matrix(1.00, 0.00, -0.00, -1.00, 319.7, 375.5)">i</text><text xml:space="preserve" font-family="Helvetica-Bold,Helvetica" font-weight="bold" font-size="24.0" fill="#FEFFFE" transform="matrix(1.00, 0.00, -0.00, -1.00, 326.4, 375.5)">m</text><text xml:space="preserve" font-family="Helvetica-Bold,Helvetica" font-weight="bold" font-size="24.0" fill="#FEFFFE" transform="matrix(1.00, 0.00, -0.00, -1.00, 347.7, 375.5)">e</text></g></g><text xml:space="preserve" font-family="Helvetica-Light,Helvetica" font-size="36.0" fill="#000000" transform="matrix(1.00, 0.00, -0.00, -1.00, 239.5, 481.4)">W</text><text xml:space="preserve" font-family="Helvetica-Light,Helvetica" font-size="36.0" fill="#000000" transform="matrix(1.00, 0.00, -0.00, -1.00, 270.8, 481.4)">o</text><text xml:space="preserve" font-family="Helvetica-Light,Helvetica" font-size="36.0" fill="#000000" transform="matrix(1.00, 0.00, -0.00, -1.00, 290.8, 481.4)">r</text><text xml:space="preserve" font-family="Helvetica-Light,Helvetica" font-size="36.0" fill="#000000" transform="matrix(1.00, 0.00, -0.00, -1.00, 302.8, 481.4)">k</text><text xml:space="preserve" font-family="Helvetica-Light,Helvetica" font-size="36.0" fill="#000000" transform="matrix(1.00, 0.00, -0.00, -1.00, 320.8, 481.4)">e</text><text xml:space="preserve" font-family="Helvetica-Light,Helvetica" font-size="36.0" fill="#000000" transform="matrix(1.00, 0.00, -0.00, -1.00, 340.8, 481.4)">r</text><text xml:space="preserve" font-family="Helvetica-Light,Helvetica" font-size="36.0" fill="#000000" transform="matrix(1.00, 0.00, -0.00, -1.00, 352.8, 481.4)"> </text><text xml:space="preserve" font-family="Helvetica-Light,Helvetica" font-size="36.0" fill="#000000" transform="matrix(1.00, 0.00, -0.00, -1.00, 362.8, 481.4)">1</text><text xml:space="preserve" font-family="Helvetica-Light,Helvetica" font-size="36.0" fill="#000000" transform="matrix(1.00, 0.00, -0.00, -1.00, 645.1, 481.4)">W</text><text xml:space="preserve" font-family="Helvetica-Light,Helvetica" font-size="36.0" fill="#000000" transform="matrix(1.00, 0.00, -0.00, -1.00, 676.5, 481.4)">o</text><text xml:space="preserve" font-family="Helvetica-Light,Helvetica" font-size="36.0" fill="#000000" transform="matrix(1.00, 0.00, -0.00, -1.00, 696.5, 481.4)">r</text><text xml:space="preserve" font-family="Helvetica-Light,Helvetica" font-size="36.0" fill="#000000" transform="matrix(1.00, 0.00, -0.00, -1.00, 708.5, 481.4)">k</text><text xml:space="preserve" font-family="Helvetica-Light,Helvetica" font-size="36.0" fill="#000000" transform="matrix(1.00, 0.00, -0.00, -1.00, 726.5, 481.4)">e</text><text xml:space="preserve" font-family="Helvetica-Light,Helvetica" font-size="36.0" fill="#000000" transform="matrix(1.00, 0.00, -0.00, -1.00, 746.5, 481.4)">r</text><text xml:space="preserve" font-family="Helvetica-Light,Helvetica" font-size="36.0" fill="#000000" transform="matrix(1.00, 0.00, -0.00, -1.00, 758.5, 481.4)"> </text><text xml:space="preserve" font-family="Helvetica-Light,Helvetica" font-size="36.0" fill="#000000" transform="matrix(1.00, 0.00, -0.00, -1.00, 768.5, 481.4)">2</text><g><clipPath id="clip0x7fd059b5b760"><path d="M 640.2 353.0 L 698.4 353.0 L 698.4 415.0 L 640.2 415.0 Z M 640.2 353.0 "></path></clipPath><g clip-path="url(#clip0x7fd059b5b760)"><path d="M 643.5 364.0 L 643.5 403.7 C 643.5 408.0 647.2 411.5 651.5 411.5 L 687.2 411.5 C 691.5 411.5 694.5 408.0 694.5 403.7 L 694.5 364.3 C 694.5 360.0 691.5 356.5 687.2 356.5 L 651.5 356.5 C 647.2 356.5 643.5 359.7 643.5 364.0 Z M 643.7 364.3 " fill="#51A7F9"></path><path d="M -0.2 47.5 L -0.2 7.8 C -0.2 3.5 3.5 -0.0 7.8 -0.0 L 43.5 -0.0 C 47.8 -0.0 50.8 3.5 50.8 7.8 L 50.8 47.2 C 50.8 51.5 47.8 55.0 43.5 55.0 L 7.8 55.0 C 3.5 55.0 -0.2 51.8 -0.2 47.5 Z M 0.0 47.2 " fill="none" stroke="#164E86" stroke-width="5.00" transform="matrix(1.00, 0.00, 0.00, -1.00, 643.7, 411.5)"></path></g></g><g><clipPath id="clip0x7fd059b64020"><path d="M 643.7 356.5 L 694.9 356.5 L 694.9 411.5 L 643.7 411.5 Z M 643.7 356.5 "></path></clipPath><g clip-path="url(#clip0x7fd059b64020)"><text xml:space="preserve" font-family="Helvetica-Bold,Helvetica" font-weight="bold" font-size="24.0" fill="#FEFFFE" transform="matrix(1.00, 0.00, -0.00, -1.00, 660.7, 375.5)">C</text></g></g><g><clipPath id="clip0x7fd059b652a0"><path d="M 690.7 353.0 L 793.4 353.0 L 793.4 415.0 L 690.7 415.0 Z M 690.7 353.0 "></path></clipPath><g clip-path="url(#clip0x7fd059b652a0)"><path d="M 694.5 364.0 L 694.5 403.7 C 694.5 408.0 697.6 411.5 701.9 411.5 L 782.2 411.5 C 786.4 411.5 789.5 408.0 789.5 403.7 L 789.5 364.3 C 789.5 360.0 786.4 356.5 782.2 356.5 L 701.9 356.5 C 697.6 356.5 694.5 359.7 694.5 364.0 Z M 694.2 364.3 " fill="#B26AE1"></path><path d="M 0.3 47.5 L 0.3 7.8 C 0.3 3.5 3.5 -0.0 7.8 -0.0 L 88.0 -0.0 C 92.3 -0.0 95.3 3.5 95.3 7.8 L 95.3 47.2 C 95.3 51.5 92.3 55.0 88.0 55.0 L 7.8 55.0 C 3.5 55.0 0.3 51.8 0.3 47.5 Z M 0.0 47.2 " fill="none" stroke="#164E86" stroke-width="5.00" transform="matrix(1.00, 0.00, 0.00, -1.00, 694.2, 411.5)"></path></g></g><g><clipPath id="clip0x7fd059b674e0"><path d="M 694.2 356.5 L 789.9 356.5 L 789.9 411.5 L 694.2 411.5 Z M 694.2 356.5 "></path></clipPath><g clip-path="url(#clip0x7fd059b674e0)"><text xml:space="preserve" font-family="Helvetica-Bold,Helvetica" font-weight="bold" font-size="24.0" fill="#FEFFFE" transform="matrix(1.00, 0.00, -0.00, -1.00, 717.4, 375.5)">t</text><text xml:space="preserve" font-family="Helvetica-Bold,Helvetica" font-weight="bold" font-size="24.0" fill="#FEFFFE" transform="matrix(1.00, 0.00, -0.00, -1.00, 725.4, 375.5)">i</text><text xml:space="preserve" font-family="Helvetica-Bold,Helvetica" font-weight="bold" font-size="24.0" fill="#FEFFFE" transform="matrix(1.00, 0.00, -0.00, -1.00, 732.0, 375.5)">m</text><text xml:space="preserve" font-family="Helvetica-Bold,Helvetica" font-weight="bold" font-size="24.0" fill="#FEFFFE" transform="matrix(1.00, 0.00, -0.00, -1.00, 753.4, 375.5)">e</text></g></g><text xml:space="preserve" font-family="Helvetica-Light,Helvetica" font-size="36.0" fill="#000000" transform="matrix(1.00, 0.00, -0.00, -1.00, 182.9, 370.8)">1</text><text xml:space="preserve" font-family="Helvetica-Light,Helvetica" font-size="36.0" fill="#000000" transform="matrix(1.00, 0.00, -0.00, -1.00, 202.9, 370.8)">x</text><text xml:space="preserve" font-family="Helvetica-Light,Helvetica" font-size="36.0" fill="#000000" transform="matrix(1.00, 0.00, -0.00, -1.00, 589.7, 370.8)">1</text><text xml:space="preserve" font-family="Helvetica-Light,Helvetica" font-size="36.0" fill="#000000" transform="matrix(1.00, 0.00, -0.00, -1.00, 609.7, 370.8)">x</text></g></svg>