<?xml version="1.0" encoding="UTF-8" standalone="no"?><svg xmlns="http://www.w3.org/2000/svg" xmlns:xlink="http://www.w3.org/1999/xlink" clip-rule="evenodd" stroke-miterlimit="4.00" viewBox="0 0 64 245"><desc>SVG generated by Keynote</desc><defs></defs><g transform="matrix(1.00, 0.00, -0.00, -1.00, 0.0, 245.0)"><g><clipPath id="clip-790"><path d="M 1.4 179.6 L 62.7 179.6 L 62.7 244.4 L 1.4 244.4 Z M 1.4 179.6 "></path></clipPath><g clip-path="url(#clip-790)"><path d="M 4.9 198.1 L 4.9 225.9 C 4.9 234.2 11.6 240.9 19.9 240.9 L 44.2 240.9 C 52.5 240.9 59.2 234.2 59.2 225.9 L 59.2 198.1 C 59.2 189.8 52.5 183.1 44.2 183.1 L 19.9 183.1 C 11.6 183.1 4.9 189.8 4.9 198.1 Z M 4.9 198.1 " fill="#6FBF40"></path><path d="M 0.0 42.8 L 0.0 15.0 C 0.0 6.7 6.7 0.0 15.0 0.0 L 39.3 0.0 C 47.6 0.0 54.3 6.7 54.3 15.0 L 54.3 42.8 C 54.3 51.0 47.6 57.8 39.3 57.8 L 15.0 57.8 C 6.7 57.8 0.0 51.0 0.0 42.8 Z M 0.0 42.8 " fill="none" stroke="#0B5C18" stroke-width="5.00" transform="matrix(1.00, 0.00, 0.00, -1.00, 4.9, 240.9)"></path></g></g><g><clipPath id="clip-791"><path d="M 4.9 183.1 L 59.2 183.1 L 59.2 240.9 L 4.9 240.9 Z M 4.9 183.1 "></path></clipPath><g clip-path="url(#clip-791)"><text xml:space="preserve" font-family="Helvetica-Bold" font-weight="bold" font-size="24.0" fill="#FEFFFE" transform="matrix(1.00, 0.00, -0.00, -1.00, 18.0, 203.0)">d</text><text xml:space="preserve" font-family="Helvetica-Bold" font-weight="bold" font-size="24.0" fill="#FEFFFE" transform="matrix(1.00, 0.00, -0.00, -1.00, 32.7, 203.0)">x</text></g></g><g><clipPath id="clip-792"><path d="M 0.9 0.5 L 63.2 0.5 L 63.2 66.3 L 0.9 66.3 Z M 0.9 0.5 "></path></clipPath><g clip-path="url(#clip-792)"><path d="M 6.4 30.0 C 6.2 29.7 6.4 29.0 6.3 28.7 M 6.4 30.0 C 7.5 29.2 7.5 27.9 7.8 26.2 C 7.8 24.3 6.7 26.2 6.3 26.0 C 5.8 23.5 6.6 23.5 7.8 23.9 C 7.0 22.9 8.4 20.1 7.0 20.7 C 7.0 24.7 6.6 17.9 5.7 21.2 C 5.5 21.6 5.1 20.6 5.1 20.2 C 4.5 21.3 3.8 19.4 3.3 21.2 C 2.4 21.5 2.8 21.1 2.1 22.3 C 2.0 22.8 2.3 22.6 2.5 22.5 C 3.6 22.7 1.9 23.9 2.6 24.8 C 1.2 25.7 2.9 26.6 3.5 25.8 C 3.3 26.7 1.8 27.7 2.8 28.5 C 2.1 29.0 2.6 31.3 3.5 29.9 C 4.1 28.9 4.5 30.0 4.8 30.2 C 5.1 29.8 4.7 28.4 4.9 28.2 C 5.2 28.7 5.7 30.5 5.7 28.6 C 6.1 29.2 6.4 28.2 6.4 30.0 C 6.4 30.0 6.4 30.0 6.4 30.0 Z M 7.2 23.2 C 7.6 23.2 7.2 23.8 7.2 23.2 C 7.2 23.2 7.2 23.2 7.2 23.2 Z M 2.1 27.8 C 2.5 27.8 2.1 28.4 2.1 27.8 C 2.1 27.8 2.1 27.8 2.1 27.8 Z M 2.5 22.8 C 2.9 22.8 2.5 23.5 2.5 22.8 C 2.5 22.8 2.5 22.8 2.5 22.8 Z M 6.9 24.9 C 6.6 26.0 6.4 24.1 6.8 23.9 C 6.7 24.1 7.3 24.7 6.9 24.9 C 6.9 24.9 6.9 24.9 6.9 24.9 Z M 4.7 25.1 C 4.9 25.2 4.9 25.6 4.5 25.6 C 4.4 25.3 4.6 25.0 4.7 25.1 C 4.7 25.1 4.7 25.1 4.7 25.1 Z M 6.3 19.8 C 6.4 19.9 6.5 20.3 6.1 20.3 C 6.0 20.0 6.2 19.7 6.3 19.8 C 6.3 19.8 6.3 19.8 6.3 19.8 Z M 5.9 26.2 C 5.9 26.4 5.5 26.5 5.5 26.2 C 5.6 26.1 5.7 25.3 5.9 26.2 C 5.9 26.2 5.9 26.2 5.9 26.2 Z M 7.2 27.8 C 7.0 28.7 6.4 26.9 6.6 26.9 C 6.9 26.6 7.5 27.3 7.2 27.8 C 7.2 27.8 7.2 27.8 7.2 27.8 Z M 5.4 26.7 C 5.2 27.4 5.1 26.4 5.4 26.7 C 5.4 26.7 5.4 26.7 5.4 26.7 Z M 3.5 20.5 C 3.3 21.3 3.2 20.2 3.5 20.5 C 3.5 20.5 3.5 20.5 3.5 20.5 Z M 2.3 24.4 C 2.1 25.2 2.0 24.1 2.3 24.4 C 2.3 24.4 2.3 24.4 2.3 24.4 Z M 6.2 23.0 C 6.2 21.7 7.2 22.8 6.2 23.0 C 6.2 23.0 6.2 23.0 6.2 23.0 Z M 7.3 29.9 C 7.3 28.6 8.3 29.7 7.3 29.9 C 7.3 29.9 7.3 29.9 7.3 29.9 Z M 7.0 18.0 C 7.1 19.0 9.1 15.4 7.3 16.5 C 6.0 16.7 6.9 14.0 7.7 15.1 C 8.1 14.3 8.2 14.4 7.9 13.8 C 8.7 14.0 10.0 12.8 10.0 12.0 C 9.6 11.2 9.2 13.0 9.1 11.6 C 10.3 9.6 8.3 11.3 8.1 9.8 C 8.2 9.7 8.6 10.0 8.6 9.7 C 7.9 9.0 6.3 9.9 6.3 8.8 C 6.1 9.2 4.0 10.5 5.2 10.2 C 6.1 10.4 3.1 11.9 4.5 12.3 C 3.6 12.7 4.2 13.7 3.1 14.2 C 2.8 14.7 3.6 14.9 3.8 14.8 C 4.4 15.0 2.1 15.2 3.1 16.3 C 2.7 16.3 2.5 18.8 3.3 17.0 C 3.1 17.5 2.6 20.4 4.0 18.9 C 4.7 17.0 5.3 20.8 5.4 18.7 C 5.7 17.2 5.5 16.9 6.1 18.1 C 5.9 18.4 6.0 20.1 6.7 18.7 C 6.5 18.4 6.7 17.8 7.0 18.0 C 7.0 18.0 7.0 18.0 7.0 18.0 Z M 5.1 18.1 C 5.1 17.2 5.6 18.1 5.1 18.1 C 5.1 18.1 5.1 18.1 5.1 18.1 Z M 2.9 13.9 C 3.2 12.9 3.4 14.0 2.9 13.9 C 2.9 13.9 2.9 13.9 2.9 13.9 Z M 7.9 15.7 C 7.6 15.2 9.0 15.5 7.9 15.7 C 7.9 15.7 7.9 15.7 7.9 15.7 Z M 3.5 15.9 C 3.5 15.8 3.6 16.1 3.7 16.3 C 3.6 16.3 3.5 16.0 3.5 15.9 C 3.5 15.9 3.5 15.9 3.5 15.9 Z M 8.3 14.5 C 8.2 13.2 9.4 14.7 8.3 14.5 C 8.3 14.5 8.3 14.5 8.3 14.5 Z M 8.3 11.8 C 7.3 10.9 9.3 10.9 8.3 11.8 C 8.3 11.8 8.3 11.8 8.3 11.8 Z M 4.8 11.9 C 4.9 12.3 4.5 12.1 4.8 11.9 C 4.8 11.9 4.8 11.9 4.8 11.9 Z M 2.8 18.3 C 3.1 18.6 2.6 18.6 2.8 18.3 C 2.8 18.3 2.8 18.3 2.8 18.3 Z M 5.8 10.3 C 6.2 10.7 5.3 10.7 5.8 10.3 C 5.8 10.3 5.8 10.3 5.8 10.3 Z M 7.4 15.3 C 8.1 16.7 5.5 16.0 7.4 15.3 C 7.4 15.3 7.4 15.3 7.4 15.3 Z M 7.1 17.2 C 7.1 18.0 6.4 16.9 6.6 16.6 C 6.7 16.7 7.0 17.1 7.1 17.2 C 7.1 17.2 7.1 17.2 7.1 17.2 Z M 7.7 14.2 C 7.9 15.1 7.2 14.7 7.7 14.2 C 7.7 14.2 7.7 14.2 7.7 14.2 Z M 7.7 16.1 C 7.5 16.4 7.6 15.8 7.7 16.1 C 7.7 16.1 7.7 16.1 7.7 16.1 Z M 9.4 13.5 C 9.1 13.7 9.4 13.1 9.4 13.5 C 9.4 13.5 9.4 13.5 9.4 13.5 Z M 7.5 18.2 C 7.3 18.5 7.4 17.9 7.5 18.2 C 7.5 18.2 7.5 18.2 7.5 18.2 Z M 8.6 13.3 C 8.2 13.0 6.7 13.3 8.5 12.2 C 9.0 12.1 9.2 13.1 8.6 13.3 C 8.6 13.3 8.6 13.3 8.6 13.3 Z M 6.3 33.3 C 7.9 28.4 5.2 29.6 4.7 29.4 C 4.0 28.7 3.5 29.4 3.0 30.3 C 1.3 31.4 4.7 31.9 3.0 32.6 C 0.8 33.9 5.0 34.1 2.6 34.7 C 2.0 34.4 2.5 36.3 2.7 36.2 C 1.5 37.1 3.6 38.5 3.8 38.5 C 3.5 39.1 1.3 39.2 2.9 41.2 C 3.5 42.6 1.4 43.3 2.8 42.9 C 1.2 44.0 3.3 43.7 2.8 44.8 C 1.9 45.6 4.1 44.8 2.4 46.2 C 3.8 46.8 1.1 45.4 2.7 49.7 C 2.5 47.6 4.1 51.5 3.0 50.9 C 1.8 49.6 3.8 52.7 4.1 54.7 C 4.8 55.0 6.9 56.2 5.6 56.6 C 5.4 59.1 7.5 57.6 7.1 59.1 C 7.1 59.9 8.2 59.3 8.4 59.7 C 8.2 60.8 9.0 60.9 11.1 62.4 C 15.5 65.5 12.9 60.6 14.7 61.0 C 15.1 60.6 14.3 56.8 14.1 59.3 C 14.1 58.6 10.0 58.9 12.8 57.7 C 11.2 57.8 13.7 57.2 11.0 56.4 C 12.1 60.1 7.8 54.1 10.7 55.9 C 10.7 55.1 9.8 54.2 10.1 55.2 C 9.0 56.5 9.3 52.8 8.4 55.2 C 7.6 53.0 6.4 54.3 7.3 53.1 C 9.1 51.7 6.8 53.5 7.0 52.1 C 6.0 49.6 9.2 51.0 7.2 49.8 C 7.8 47.1 6.1 49.4 5.8 48.5 C 4.2 48.3 6.9 45.7 7.1 47.7 C 6.3 46.7 7.8 47.5 6.9 46.2 C 5.5 47.2 8.4 44.5 7.2 44.9 C 6.9 43.7 6.0 44.3 6.0 43.9 C 6.0 42.1 7.4 42.7 6.3 42.3 C 5.8 41.9 7.6 41.1 7.2 40.8 C 7.1 42.7 5.6 39.3 6.4 39.2 C 6.5 40.3 8.3 38.6 7.2 37.9 C 4.1 38.8 8.0 36.3 6.9 35.5 C 5.1 36.2 6.7 31.5 7.5 33.3 C 7.3 33.2 6.3 33.3 6.3 33.3 M 6.9 40.3 C 6.8 41.8 6.6 38.7 6.9 40.3 M 7.4 40.3 C 6.8 40.9 7.8 38.8 7.5 40.3 C 7.5 40.4 7.4 40.2 7.4 40.3 M 7.4 46.5 C 6.9 46.3 7.7 45.6 7.4 46.5 M 6.3 47.6 C 5.9 48.6 6.2 46.4 6.3 47.6 M 12.0 57.9 C 9.5 59.2 11.9 56.0 12.0 57.9 M 7.9 51.5 C 7.1 50.3 9.1 51.6 7.9 51.5 M 7.2 51.3 C 6.6 50.8 7.7 51.0 7.2 51.3 M 10.3 56.4 C 10.4 56.5 10.4 56.5 10.3 56.4 C 10.3 56.4 10.3 56.4 10.3 56.4 Z M 13.0 58.6 C 13.0 58.6 13.0 58.6 13.0 58.6 C 13.0 58.6 13.0 58.6 13.0 58.6 Z M 8.1 53.8 C 8.1 52.5 9.2 55.3 8.1 53.8 C 8.1 53.8 8.1 53.8 8.1 53.8 Z M 9.2 60.7 C 9.1 60.7 9.1 60.7 9.2 60.7 C 9.2 60.7 9.2 60.7 9.2 60.7 Z M 5.7 39.1 C 5.7 39.1 5.7 39.1 5.7 39.1 C 5.7 39.1 5.7 39.1 5.7 39.1 Z M 6.7 34.5 C 6.3 34.6 7.0 33.7 6.7 34.5 C 6.7 34.5 6.7 34.5 6.7 34.5 Z M 3.8 30.8 C 3.7 30.7 3.7 30.7 3.8 30.8 C 3.8 30.8 3.8 30.8 3.8 30.8 Z M 4.4 37.6 C 4.3 37.5 4.3 37.5 4.4 37.6 C 4.4 37.6 4.4 37.6 4.4 37.6 Z M 6.3 38.2 C 7.7 37.5 5.9 40.0 6.3 38.2 C 6.3 38.2 6.3 38.2 6.3 38.2 Z M 4.2 54.0 C 4.8 53.8 4.5 55.2 4.2 54.0 C 4.2 54.0 4.2 54.0 4.2 54.0 Z M 5.8 47.8 C 6.1 48.0 5.7 48.5 5.8 47.8 C 5.8 47.8 5.8 47.8 5.8 47.8 Z M 7.7 45.3 C 8.0 45.5 7.5 46.0 7.7 45.3 C 7.7 45.3 7.7 45.3 7.7 45.3 Z M 7.1 34.6 C 7.2 34.7 7.2 34.7 7.1 34.6 C 7.1 34.6 7.1 34.6 7.1 34.6 Z M 6.0 36.2 C 7.3 35.1 5.3 38.0 6.0 36.2 C 6.0 36.2 6.0 36.2 6.0 36.2 Z M 5.6 34.3 C 5.1 34.9 5.9 32.8 5.6 34.3 M 3.6 35.4 C 4.2 36.8 1.2 34.1 3.6 35.4 C 3.6 35.4 3.6 35.4 3.6 35.4 Z M 3.1 42.5 C 3.0 42.6 3.0 42.6 3.1 42.5 C 3.1 42.5 3.1 42.5 3.1 42.5 Z M 6.9 41.8 C 6.9 43.0 6.6 41.0 6.9 41.8 C 6.9 41.8 6.9 41.8 6.9 41.8 Z M 7.2 31.0 C 7.2 32.3 6.9 30.2 7.2 31.0 C 7.2 31.0 7.2 31.0 7.2 31.0 Z M 4.4 46.7 C 4.6 48.7 3.7 45.4 4.4 46.7 C 4.4 46.7 4.4 46.7 4.4 46.7 Z M 7.4 53.5 C 7.3 53.6 7.3 53.6 7.4 53.5 C 7.4 53.5 7.4 53.5 7.4 53.5 Z M 8.4 54.3 C 8.4 54.4 8.4 54.4 8.4 54.3 C 8.4 54.3 8.4 54.3 8.4 54.3 Z M 11.0 59.1 C 11.0 59.2 11.0 59.2 11.0 59.1 C 11.0 59.1 11.0 59.1 11.0 59.1 Z M 9.6 54.8 C 9.6 54.9 9.6 54.9 9.6 54.8 C 9.6 54.8 9.6 54.8 9.6 54.8 Z M 11.6 57.5 C 11.6 57.6 11.6 57.6 11.6 57.5 C 11.6 57.5 11.6 57.5 11.6 57.5 Z M 12.0 56.3 C 12.0 56.4 12.0 56.4 12.0 56.3 C 12.0 56.3 12.0 56.3 12.0 56.3 Z M 2.8 52.1 C 2.7 52.2 2.7 52.2 2.8 52.1 C 2.8 52.1 2.8 52.1 2.8 52.1 Z M 7.5 36.8 C 7.4 36.9 7.4 36.9 7.5 36.8 C 7.5 36.8 7.5 36.8 7.5 36.8 Z M 11.1 57.7 C 11.1 57.8 11.1 57.8 11.1 57.7 C 11.1 57.7 11.1 57.7 11.1 57.7 Z M 5.6 50.7 C 4.5 51.0 6.8 49.5 5.7 50.9 C 5.6 50.9 5.7 50.6 5.6 50.7 M 4.1 52.5 C 4.1 52.5 4.1 52.5 4.1 52.5 C 4.1 52.5 4.1 52.5 4.1 52.5 Z M 2.6 47.6 C 2.6 47.6 2.6 47.6 2.6 47.6 C 2.6 47.6 2.6 47.6 2.6 47.6 Z M 9.4 54.2 C 9.8 53.8 9.5 55.3 9.3 54.1 M 9.8 60.7 C 10.0 60.1 10.5 61.8 9.6 60.6 M 6.8 29.6 C 6.3 29.5 7.1 28.8 6.8 29.6 M 2.0 46.6 C 1.5 46.4 2.3 45.8 2.0 46.6 M 3.5 48.8 C 4.1 48.6 3.1 50.1 3.5 48.7 M 7.4 58.4 C 7.5 58.5 7.5 58.5 7.4 58.4 C 7.4 58.4 7.4 58.4 7.4 58.4 Z M 6.8 43.7 C 6.8 43.7 6.8 43.7 6.8 43.7 C 6.8 43.7 6.8 43.7 6.8 43.7 Z M 5.6 49.1 C 6.4 48.2 5.1 50.1 5.6 49.1 M 5.3 42.1 C 6.4 41.0 5.0 43.8 5.3 42.1 M 11.8 62.3 C 11.2 60.5 12.3 63.4 11.8 62.3 M 9.3 56.1 C 9.6 54.4 9.2 57.1 9.3 56.1 M 6.3 44.8 C 6.9 44.7 5.9 46.0 6.3 44.8 M 6.9 32.4 C 7.0 31.3 7.4 33.9 6.9 32.4 M 5.5 55.9 C 5.5 56.0 5.5 56.0 5.5 55.9 C 5.5 55.9 5.5 55.9 5.5 55.9 Z M 2.0 36.2 C 1.9 36.2 1.9 36.2 2.0 36.2 C 2.0 36.2 2.0 36.2 2.0 36.2 Z M 15.0 59.1 C 15.0 59.2 15.0 59.2 15.0 59.1 C 15.0 59.1 15.0 59.1 15.0 59.1 Z M 8.4 55.9 C 8.3 56.0 8.3 56.0 8.4 55.9 C 8.4 55.9 8.4 55.9 8.4 55.9 Z M 13.4 58.1 C 13.4 58.2 13.4 58.2 13.4 58.1 C 13.4 58.1 13.4 58.1 13.4 58.1 Z M 5.7 53.3 C 5.7 53.3 5.7 53.3 5.7 53.3 C 5.7 53.3 5.7 53.3 5.7 53.3 Z M 8.5 51.4 C 8.5 51.5 8.5 51.5 8.5 51.4 C 8.5 51.4 8.5 51.4 8.5 51.4 Z M 6.4 48.3 C 6.4 48.3 6.4 48.3 6.4 48.3 C 6.4 48.3 6.4 48.3 6.4 48.3 Z M 8.9 52.9 C 10.0 54.6 7.4 52.5 8.9 52.9 C 8.9 52.9 8.9 52.9 8.9 52.9 Z M 4.5 50.3 C 4.5 50.3 4.5 50.3 4.5 50.3 C 4.5 50.3 4.5 50.3 4.5 50.3 Z M 6.8 49.5 C 7.9 50.8 5.3 50.5 6.8 49.5 M 7.3 43.0 C 7.8 43.4 6.6 43.2 7.3 43.0 M 3.0 40.2 C 2.9 40.2 2.9 40.2 3.0 40.2 C 3.0 40.2 3.0 40.2 3.0 40.2 Z M 3.3 41.0 C 3.3 41.0 3.3 41.0 3.3 41.0 C 3.3 41.0 3.3 41.0 3.3 41.0 Z M 7.5 41.3 C 7.5 41.3 7.5 41.3 7.5 41.3 C 7.5 41.3 7.5 41.3 7.5 41.3 Z M 2.1 41.1 C 2.1 41.1 2.1 41.1 2.1 41.1 C 2.1 41.1 2.1 41.1 2.1 41.1 Z M 8.2 50.8 C 8.2 50.8 8.2 50.8 8.2 50.8 C 8.2 50.8 8.2 50.8 8.2 50.8 Z M 14.4 58.1 C 14.4 58.2 14.4 58.2 14.4 58.1 C 14.4 58.1 14.4 58.1 14.4 58.1 Z M 3.5 32.8 C 3.4 32.9 3.4 32.9 3.5 32.8 C 3.5 32.8 3.5 32.8 3.5 32.8 Z M 7.3 52.2 C 7.3 52.3 7.3 52.3 7.3 52.2 C 7.3 52.2 7.3 52.2 7.3 52.2 Z M 3.2 38.5 C 3.2 38.5 3.2 38.5 3.2 38.5 C 3.2 38.5 3.2 38.5 3.2 38.5 Z M 7.3 51.5 C 7.3 51.5 7.3 51.5 7.3 51.5 C 7.3 51.5 7.3 51.5 7.3 51.5 Z M 5.0 55.7 C 5.0 55.7 5.0 55.7 5.0 55.7 C 5.0 55.7 5.0 55.7 5.0 55.7 Z M 6.2 58.6 C 6.2 58.6 6.2 58.6 6.2 58.6 C 6.2 58.6 6.2 58.6 6.2 58.6 Z M 7.0 54.4 C 7.0 54.4 7.0 54.4 7.0 54.4 C 7.0 54.4 7.0 54.4 7.0 54.4 Z M 4.6 37.6 C 5.8 32.7 5.1 41.5 4.6 37.6 M 7.1 55.2 C 5.6 52.2 9.6 56.8 7.1 55.2 C 7.6 55.4 7.2 55.2 7.1 55.2 M 16.1 58.9 C 14.6 59.7 14.0 60.7 14.2 62.1 C 14.6 63.0 15.4 60.6 14.8 62.6 C 13.0 62.4 14.7 65.8 15.4 63.2 C 17.7 63.5 15.4 65.0 17.0 64.3 C 19.7 64.4 18.5 65.0 20.3 64.9 C 21.3 63.4 21.3 65.6 21.8 64.2 C 20.9 65.7 23.6 63.8 23.7 64.5 C 22.1 65.4 29.7 64.5 25.6 64.0 C 27.3 63.3 27.0 64.6 27.5 64.8 C 28.3 63.9 30.3 65.5 31.4 64.6 C 31.2 64.4 30.6 64.3 30.5 64.0 C 30.2 63.5 31.7 64.2 31.5 64.1 C 32.2 63.8 35.0 62.9 32.0 64.5 C 31.9 65.2 34.4 64.1 34.3 64.8 C 36.9 64.8 34.9 63.4 36.1 64.4 C 37.9 64.5 39.2 64.5 39.2 64.3 C 40.3 64.4 40.5 65.3 41.5 64.5 C 43.7 66.0 43.1 61.4 43.9 64.5 C 44.5 63.8 45.4 65.8 45.2 63.9 C 44.4 64.8 49.7 64.7 47.3 63.7 C 47.8 63.1 51.6 64.4 50.4 62.8 C 50.9 61.1 50.0 60.1 47.8 59.3 C 48.3 60.3 45.5 58.7 47.4 60.2 C 49.2 60.4 44.3 61.3 45.3 60.5 C 45.4 58.3 42.8 62.0 41.6 60.4 C 42.6 61.3 38.2 61.7 39.5 60.0 C 38.6 59.9 38.4 60.7 37.5 59.7 C 40.2 59.9 36.5 61.5 36.7 60.4 C 37.1 59.8 33.2 59.3 33.6 60.2 C 35.0 62.6 32.6 59.8 31.9 60.7 C 29.7 61.2 32.2 58.7 30.6 60.4 C 30.2 60.1 27.3 60.1 29.1 59.6 C 29.8 59.9 27.4 62.2 27.1 60.2 C 30.2 59.1 23.6 59.6 24.6 60.2 C 29.4 61.3 19.5 61.4 23.3 60.4 C 21.2 59.3 23.9 59.9 21.3 60.4 C 21.6 61.0 19.6 61.6 20.1 60.4 C 19.7 58.5 19.0 62.9 18.0 60.2 C 17.9 59.0 15.1 60.3 16.4 59.4 C 16.4 59.3 16.2 59.0 16.1 58.9 M 16.8 59.4 C 16.4 59.7 16.4 58.7 16.8 59.4 M 16.4 59.7 C 16.3 59.6 16.3 59.6 16.4 59.7 C 16.4 59.7 16.4 59.7 16.4 59.7 Z M 20.9 60.5 C 20.9 60.4 20.9 60.4 20.9 60.5 C 20.9 60.5 20.9 60.5 20.9 60.5 Z M 24.9 65.2 C 24.9 65.2 24.9 65.2 24.9 65.2 C 24.9 65.2 24.9 65.2 24.9 65.2 Z M 24.3 60.6 C 24.2 60.6 24.2 60.6 24.3 60.6 C 24.3 60.6 24.3 60.6 24.3 60.6 Z M 19.1 60.7 C 19.1 60.7 19.1 60.7 19.1 60.7 C 19.1 60.7 19.1 60.7 19.1 60.7 Z M 24.0 59.9 C 24.2 60.6 22.8 59.4 24.0 59.8 C 24.1 59.8 23.8 59.8 24.0 59.9 M 28.4 59.6 C 28.4 59.7 28.4 59.7 28.4 59.6 M 38.1 65.2 C 38.1 65.2 38.1 65.2 38.1 65.2 M 38.9 59.5 C 39.0 59.6 39.0 59.6 38.9 59.5 M 32.8 60.3 C 34.1 60.2 33.1 60.7 32.8 60.3 M 42.5 59.9 C 40.8 59.5 44.3 59.6 42.5 59.9 M 44.1 59.5 C 44.3 59.6 44.3 59.6 44.1 59.5 M 36.5 59.8 C 36.4 59.8 36.4 59.8 36.5 59.8 C 36.5 59.8 36.5 59.8 36.5 59.8 Z M 32.2 60.0 C 30.4 59.6 34.0 59.4 32.2 60.0 M 21.5 59.8 C 22.5 59.4 21.5 60.7 21.5 59.8 M 19.5 60.2 C 19.5 60.2 19.5 60.2 19.5 60.2 C 19.5 60.2 19.5 60.2 19.5 60.2 Z M 39.8 59.9 C 39.7 59.9 39.7 59.9 39.8 59.9 C 39.8 59.9 39.8 59.9 39.8 59.9 Z M 41.7 59.8 C 41.6 59.8 41.6 59.8 41.7 59.8 C 41.7 59.8 41.7 59.8 41.7 59.8 Z M 45.1 65.0 C 45.1 65.0 45.1 65.0 45.1 65.0 C 45.1 65.0 45.1 65.0 45.1 65.0 Z M 21.0 62.3 C 19.7 62.0 22.3 60.6 22.1 61.9 C 22.2 62.4 21.1 62.2 21.0 62.3 M 30.9 61.6 C 31.3 63.4 29.6 59.2 30.9 61.6 M 44.4 60.7 C 45.6 62.8 42.8 59.2 44.4 60.7 M 46.7 60.1 C 47.5 60.4 42.5 60.9 45.9 59.9 C 46.1 59.5 46.4 59.9 46.7 60.1 M 28.4 60.5 C 28.8 61.4 26.3 60.0 28.4 60.5 M 36.6 63.4 C 37.2 62.8 38.9 62.2 38.2 63.3 C 38.1 64.7 35.8 63.9 36.6 63.4 M 16.9 60.4 C 18.2 59.1 16.5 61.7 16.9 60.4 M 21.7 60.9 C 21.8 60.8 21.8 60.8 21.7 60.9 C 21.7 60.9 21.7 60.9 21.7 60.9 Z M 23.8 60.6 C 23.9 60.8 23.9 60.8 23.8 60.6 M 17.8 59.2 C 17.9 59.3 17.9 59.3 17.8 59.2 M 36.5 61.8 C 36.6 61.9 36.6 61.9 36.5 61.8 M 32.4 60.7 C 34.4 62.3 31.3 61.0 32.4 60.7 M 27.5 63.7 C 28.1 64.5 26.3 63.8 27.5 63.7 M 35.6 60.1 C 37.0 61.6 33.7 61.5 35.6 60.1 M 31.4 60.6 C 31.5 60.6 31.5 60.6 31.4 60.6 C 31.4 60.6 31.4 60.6 31.4 60.6 Z M 37.1 63.6 C 37.1 63.6 37.1 63.6 37.1 63.6 C 37.1 63.6 37.1 63.6 37.1 63.6 Z M 37.7 63.5 C 37.6 63.5 37.6 63.5 37.7 63.5 C 37.7 63.5 37.7 63.5 37.7 63.5 Z M 37.4 60.0 C 37.3 60.0 37.3 60.0 37.4 60.0 C 37.4 60.0 37.4 60.0 37.4 60.0 Z M 19.3 64.2 C 20.9 64.4 18.0 64.4 19.3 64.2 C 19.3 64.2 19.3 64.2 19.3 64.2 Z M 25.6 59.9 C 27.9 61.1 24.0 61.0 25.6 59.9 C 25.6 59.9 25.6 59.9 25.6 59.9 Z M 28.2 61.8 C 28.2 61.9 28.2 61.9 28.2 61.8 C 28.2 61.8 28.2 61.8 28.2 61.8 Z M 34.7 59.2 C 34.7 59.3 34.7 59.3 34.7 59.2 C 34.7 59.2 34.7 59.2 34.7 59.2 Z M 20.1 64.4 C 20.1 64.5 20.1 64.5 20.1 64.4 C 20.1 64.4 20.1 64.4 20.1 64.4 Z M 41.4 60.8 C 41.4 60.8 41.4 60.8 41.4 60.8 C 41.4 60.8 41.4 60.8 41.4 60.8 Z M 33.3 63.8 C 33.8 63.2 33.4 64.3 33.3 63.8 C 33.3 63.8 33.3 63.8 33.3 63.8 Z M 35.4 63.8 C 35.4 63.8 35.4 63.8 35.4 63.8 C 35.4 63.8 35.4 63.8 35.4 63.8 Z M 44.6 59.4 C 44.6 59.4 44.6 59.4 44.6 59.4 C 44.6 59.4 44.6 59.4 44.6 59.4 Z M 40.7 65.2 C 40.8 65.2 40.8 65.2 40.7 65.2 C 40.7 65.2 40.7 65.2 40.7 65.2 Z M 42.5 63.5 C 42.5 63.5 42.5 63.5 42.5 63.5 C 42.5 63.5 42.5 63.5 42.5 63.5 Z M 37.0 60.3 C 39.1 60.0 36.5 61.0 37.0 60.3 C 37.0 60.3 37.0 60.3 37.0 60.3 Z M 47.9 62.5 C 48.0 62.6 48.0 62.6 47.9 62.5 C 47.9 62.5 47.9 62.5 47.9 62.5 Z M 48.3 60.3 C 48.4 60.4 48.4 60.4 48.3 60.3 C 48.3 60.3 48.3 60.3 48.3 60.3 Z M 48.4 59.2 C 48.5 59.2 48.5 59.2 48.4 59.2 C 48.4 59.2 48.4 59.2 48.4 59.2 Z M 23.7 62.8 C 23.7 62.7 23.7 62.7 23.7 62.8 C 23.7 62.8 23.7 62.8 23.7 62.8 Z M 22.9 59.5 C 22.9 59.5 22.9 59.5 22.9 59.5 C 22.9 59.5 22.9 59.5 22.9 59.5 Z M 25.7 59.4 C 25.7 59.3 25.7 59.3 25.7 59.4 C 25.7 59.4 25.7 59.4 25.7 59.4 Z M 23.2 64.8 C 23.2 64.8 23.2 64.8 23.2 64.8 C 23.2 64.8 23.2 64.8 23.2 64.8 Z M 33.9 62.0 C 33.8 62.0 33.8 62.0 33.9 62.0 C 33.9 62.0 33.9 62.0 33.9 62.0 Z M 34.9 63.3 C 34.8 63.3 34.8 63.3 34.9 63.3 C 34.9 63.3 34.9 63.3 34.9 63.3 Z M 32.4 65.1 C 32.4 65.1 32.4 65.1 32.4 65.1 C 32.4 65.1 32.4 65.1 32.4 65.1 Z M 35.6 64.5 C 35.6 64.5 35.6 64.5 35.6 64.5 C 35.6 64.5 35.6 64.5 35.6 64.5 Z M 15.6 63.6 C 15.5 63.7 15.5 63.7 15.6 63.6 C 15.6 63.6 15.6 63.6 15.6 63.6 Z M 16.0 61.1 C 15.9 61.2 15.9 61.2 16.0 61.1 C 16.0 61.1 16.0 61.1 16.0 61.1 Z M 34.2 60.2 C 34.7 59.7 35.2 60.9 34.2 60.2 M 30.1 60.5 C 30.1 60.5 30.1 60.5 30.1 60.5 C 30.1 60.5 30.1 60.5 30.1 60.5 Z M 41.0 60.3 C 41.5 61.3 39.1 59.8 41.0 60.3 C 41.0 60.3 41.0 60.3 41.0 60.3 Z M 38.9 64.5 C 38.9 64.5 38.9 64.5 38.9 64.5 C 38.9 64.5 38.9 64.5 38.9 64.5 Z M 39.9 64.1 C 40.0 64.2 40.0 64.2 39.9 64.1 C 39.9 64.1 39.9 64.1 39.9 64.1 Z M 45.7 61.3 C 45.8 61.3 45.8 61.3 45.7 61.3 M 29.6 59.6 C 30.2 60.1 30.1 60.0 29.6 59.6 M 42.4 60.3 C 42.3 60.3 42.3 60.3 42.4 60.3 C 42.4 60.3 42.4 60.3 42.4 60.3 Z M 46.8 60.5 C 46.8 60.6 46.8 60.6 46.8 60.5 C 46.8 60.5 46.8 60.5 46.8 60.5 Z M 26.7 60.3 C 26.8 61.5 26.3 61.2 26.7 60.3 M 18.8 60.6 C 18.8 60.7 18.8 60.7 18.8 60.6 C 18.8 60.6 18.8 60.6 18.8 60.6 Z M 51.5 57.5 C 49.3 57.5 50.2 59.0 50.3 59.0 C 49.3 56.7 49.0 60.7 49.6 61.0 C 49.7 61.3 53.6 64.5 53.5 61.3 C 53.7 60.8 54.3 61.3 54.7 61.1 C 57.0 59.2 52.4 61.4 54.9 59.1 C 55.6 58.9 56.8 60.9 57.0 58.4 C 57.2 58.4 59.4 56.9 58.0 57.1 C 59.5 56.7 58.9 55.4 59.2 54.4 C 60.1 53.7 60.6 55.7 60.4 52.0 C 62.6 51.0 59.7 49.9 61.7 48.6 C 61.8 47.6 58.7 46.1 60.4 48.3 C 60.2 48.0 58.7 49.1 59.2 46.6 C 59.6 46.9 62.9 48.3 61.3 44.4 C 61.4 43.7 60.6 42.2 60.9 41.9 C 61.3 43.9 62.3 39.1 61.4 39.6 C 62.0 36.5 60.6 38.3 61.7 36.0 C 61.7 34.2 60.2 36.6 61.1 34.3 C 60.9 32.6 61.7 33.8 61.6 33.9 C 61.8 32.4 61.2 31.9 61.3 31.4 C 61.4 31.0 62.1 30.3 61.3 30.0 C 59.8 28.4 58.3 29.8 56.9 29.1 C 56.2 30.3 58.0 29.6 56.9 30.4 C 57.8 31.0 56.8 30.5 57.0 33.7 C 57.3 33.6 57.9 32.9 58.0 33.6 C 57.9 34.9 55.4 34.0 57.1 36.0 C 57.7 33.6 57.9 39.4 58.5 37.2 C 58.8 40.0 58.3 38.0 57.7 40.0 C 59.3 39.9 55.9 40.2 57.2 40.9 C 56.5 41.1 56.8 44.3 57.8 42.0 C 58.3 45.3 57.3 43.2 56.5 44.4 C 56.3 45.9 59.2 44.5 57.1 45.5 C 56.2 47.5 58.1 45.6 56.5 47.0 C 58.0 46.4 56.5 48.3 58.1 47.9 C 58.0 51.2 56.6 47.3 57.3 49.6 C 57.5 49.0 55.4 48.8 56.4 50.4 C 59.0 50.4 53.9 51.3 57.3 51.4 C 56.9 55.8 55.9 51.7 54.9 53.5 C 54.6 54.0 56.1 53.5 55.9 53.9 C 54.0 56.3 54.7 53.6 55.0 55.8 C 53.5 58.4 53.4 55.6 52.4 56.4 C 52.8 57.0 52.7 58.8 51.5 57.5 M 53.9 56.5 C 53.9 55.7 54.5 56.6 53.9 56.5 M 48.9 59.0 C 49.2 58.3 49.4 59.4 48.9 59.0 M 55.0 54.4 C 55.0 53.4 55.8 54.6 55.0 54.4 M 57.9 38.2 C 57.9 39.4 57.5 37.6 57.9 38.2 M 50.8 58.0 C 51.1 57.0 51.4 58.6 50.8 58.0 M 50.5 59.6 C 50.5 59.6 50.5 59.6 50.5 59.6 M 56.6 36.4 C 56.6 36.3 56.6 36.3 56.6 36.4 M 56.5 41.2 C 56.6 40.2 56.9 41.7 56.5 41.2 M 61.9 41.3 C 62.0 40.3 62.3 41.9 61.9 41.3 M 56.5 33.8 C 56.1 32.8 57.1 33.5 56.5 33.8 M 57.7 31.1 C 57.2 30.2 58.2 30.5 57.7 31.1 M 54.9 58.2 C 54.9 58.3 54.9 58.3 54.9 58.2 C 54.9 58.2 54.9 58.2 54.9 58.2 Z M 60.4 51.0 C 59.6 52.0 61.3 49.7 60.4 51.0 M 56.6 51.5 C 57.8 51.3 56.1 52.6 56.6 51.5 C 56.6 51.5 56.6 51.5 56.6 51.5 Z M 56.5 53.0 C 56.6 53.0 56.6 53.0 56.5 53.0 C 56.5 53.0 56.5 53.0 56.5 53.0 Z M 57.8 48.7 C 57.8 48.7 57.8 48.7 57.8 48.7 C 57.8 48.7 57.8 48.7 57.8 48.7 Z M 57.7 49.6 C 57.9 50.0 57.4 50.1 57.7 49.6 C 57.7 49.6 57.7 49.6 57.7 49.6 Z M 61.4 42.6 C 61.6 43.0 61.2 43.1 61.4 42.6 C 61.4 42.6 61.4 42.6 61.4 42.6 Z M 57.8 51.1 C 58.8 51.5 56.9 51.6 57.8 51.1 C 57.8 51.1 57.8 51.1 57.8 51.1 Z M 60.9 46.0 C 60.6 45.6 61.9 45.1 60.9 46.0 M 56.8 35.4 C 56.5 35.0 57.8 34.5 56.8 35.4 M 56.5 45.9 C 56.2 45.4 57.5 44.9 56.5 45.9 M 53.9 55.8 C 54.0 55.8 54.0 55.8 53.9 55.8 M 60.8 53.2 C 60.7 52.3 61.4 53.0 60.8 53.2 M 53.8 61.7 C 54.2 60.9 54.3 61.9 53.8 61.7 M 61.8 36.9 C 61.5 36.9 61.9 35.8 61.8 36.9 M 58.2 44.6 C 58.3 43.7 58.9 42.8 58.9 44.7 C 58.6 44.8 58.4 44.2 58.2 44.6 C 58.2 44.6 58.2 44.6 58.2 44.6 Z M 60.7 41.3 C 60.8 41.2 60.8 41.2 60.7 41.3 M 57.2 43.0 C 57.3 42.9 57.3 42.9 57.2 43.0 M 57.3 37.6 C 57.5 37.5 57.5 37.5 57.3 37.6 M 57.0 37.0 C 57.0 37.0 57.0 37.0 57.0 37.0 C 57.0 37.0 57.0 37.0 57.0 37.0 Z M 56.5 31.1 C 56.6 31.1 56.6 31.1 56.5 31.1 C 56.5 31.1 56.5 31.1 56.5 31.1 Z M 57.4 39.3 C 57.5 39.4 57.5 39.4 57.4 39.3 C 57.4 39.3 57.4 39.3 57.4 39.3 Z M 61.6 34.5 C 61.6 34.5 61.6 34.5 61.6 34.5 C 61.6 34.5 61.6 34.5 61.6 34.5 Z M 60.9 35.1 C 61.0 35.1 61.0 35.1 60.9 35.1 C 60.9 35.1 60.9 35.1 60.9 35.1 Z M 51.8 57.3 C 51.9 56.3 53.3 58.6 51.8 57.3 M 61.0 32.5 C 61.7 31.7 61.1 33.9 61.0 32.5 C 61.0 32.5 61.0 32.5 61.0 32.5 Z M 58.4 40.0 C 58.5 39.9 58.5 39.9 58.4 40.0 M 57.1 36.6 C 57.2 36.6 57.2 36.6 57.1 36.6 M 55.6 51.2 C 55.8 51.2 55.8 51.2 55.6 51.2 M 57.3 32.5 C 57.6 30.0 58.9 33.6 57.3 32.5 M 56.2 52.5 C 56.1 52.5 56.1 52.5 56.2 52.5 M 59.3 47.8 C 59.3 46.0 59.9 48.4 59.3 47.8 M 58.0 43.5 C 58.0 43.5 58.0 43.5 58.0 43.5 C 58.0 43.5 58.0 43.5 58.0 43.5 Z M 58.0 46.0 C 58.1 47.2 57.7 46.3 58.0 46.0 C 58.0 46.0 58.0 46.0 58.0 46.0 Z M 53.2 57.5 C 54.4 56.6 52.4 58.7 53.2 57.5 C 53.2 57.5 53.2 57.5 53.2 57.5 Z M 59.8 33.7 C 59.9 33.7 59.9 33.7 59.8 33.7 C 59.8 33.7 59.8 33.7 59.8 33.7 Z M 56.7 39.7 C 57.0 40.4 56.4 40.0 56.7 39.7 C 56.7 39.7 56.7 39.7 56.7 39.7 Z M 56.6 30.2 C 56.8 31.0 56.2 30.6 56.6 30.2 C 56.6 30.2 56.6 30.2 56.6 30.2 Z M 51.8 58.3 C 57.0 56.9 46.0 61.8 51.8 58.3 C 51.8 58.3 51.8 58.3 51.8 58.3 Z M 57.2 45.0 C 57.3 45.0 57.3 45.0 57.2 45.0 C 57.2 45.0 57.2 45.0 57.2 45.0 Z M 54.6 53.8 C 54.6 53.9 54.6 53.9 54.6 53.8 C 54.6 53.8 54.6 53.8 54.6 53.8 Z M 54.5 55.6 C 54.6 55.7 54.6 55.7 54.5 55.6 C 54.5 55.6 54.5 55.6 54.5 55.6 Z M 58.2 57.8 C 58.2 57.9 58.2 57.9 58.2 57.8 C 58.2 57.8 58.2 57.8 58.2 57.8 Z M 57.0 56.1 C 57.1 56.3 57.1 56.3 57.0 56.1 C 57.0 56.1 57.0 56.1 57.0 56.1 Z M 55.0 59.5 C 55.0 59.6 55.0 59.6 55.0 59.5 C 55.0 59.5 55.0 59.5 55.0 59.5 Z M 55.5 59.9 C 55.5 59.9 55.5 59.9 55.5 59.9 C 55.5 59.9 55.5 59.9 55.5 59.9 Z M 58.3 36.6 C 58.4 36.7 58.4 36.7 58.3 36.6 C 58.3 36.6 58.3 36.6 58.3 36.6 Z M 60.1 38.6 C 59.4 37.3 61.0 39.0 60.1 38.6 C 60.1 38.6 60.1 38.6 60.1 38.6 Z M 58.8 50.6 C 58.9 49.4 59.2 51.6 58.8 50.6 C 58.8 50.6 58.8 50.6 58.8 50.6 Z M 61.4 49.6 C 61.4 49.6 61.4 49.6 61.4 49.6 C 61.4 49.6 61.4 49.6 61.4 49.6 Z M 53.7 55.0 C 53.8 55.1 53.8 55.1 53.7 55.0 C 53.7 55.0 53.7 55.0 53.7 55.0 Z M 53.0 56.8 C 53.6 57.5 52.3 56.9 53.0 56.8 M 56.6 48.1 C 56.7 48.2 56.7 48.2 56.6 48.1 C 56.6 48.1 56.6 48.1 56.6 48.1 Z M 58.1 41.0 C 58.1 41.0 58.1 41.0 58.1 41.0 C 58.1 41.0 58.1 41.0 58.1 41.0 Z M 57.5 33.8 C 57.6 33.9 57.6 33.9 57.5 33.8 C 57.5 33.8 57.5 33.8 57.5 33.8 Z M 56.8 43.8 C 56.9 43.8 56.9 43.8 56.8 43.8 C 56.8 43.8 56.8 43.8 56.8 43.8 Z M 57.6 47.2 C 57.7 47.2 57.7 47.2 57.6 47.2 C 57.6 47.2 57.6 47.2 57.6 47.2 Z M 58.7 32.2 C 58.8 32.3 58.8 32.3 58.7 32.2 C 58.7 32.2 58.7 32.2 58.7 32.2 Z M 56.6 43.0 C 56.7 43.0 56.7 43.0 56.6 43.0 C 56.6 43.0 56.6 43.0 56.6 43.0 Z M 59.5 40.9 C 59.6 40.9 59.6 40.9 59.5 40.9 C 59.5 40.9 59.5 40.9 59.5 40.9 Z M 52.3 55.7 C 52.3 55.8 52.3 55.8 52.3 55.7 C 52.3 55.7 52.3 55.7 52.3 55.7 Z M 57.5 32.2 C 57.6 32.2 57.6 32.2 57.5 32.2 C 57.5 32.2 57.5 32.2 57.5 32.2 Z M 56.7 31.7 C 56.8 31.7 56.8 31.7 56.7 31.7 C 56.7 31.7 56.7 31.7 56.7 31.7 Z M 61.0 36.8 C 60.5 39.4 60.8 34.5 59.8 36.4 C 59.6 32.7 61.1 36.3 61.0 36.8 C 61.0 36.8 61.0 36.8 61.0 36.8 Z M 56.4 28.3 C 57.6 29.7 58.8 29.7 60.1 29.1 C 60.7 28.4 58.2 28.4 60.3 28.4 C 60.7 30.0 63.4 27.7 60.7 27.7 C 60.4 25.6 62.4 27.4 61.4 26.1 C 61.1 23.9 61.9 25.0 61.7 23.3 C 60.3 22.3 62.4 22.3 61.1 21.8 C 62.6 22.7 60.7 19.9 61.3 19.9 C 62.3 21.5 60.8 13.0 60.8 17.7 C 59.9 15.9 61.1 16.1 61.1 15.4 C 60.1 14.8 60.7 12.0 59.4 11.4 C 59.4 11.7 59.6 12.2 59.4 12.5 C 59.0 13.0 58.9 11.3 58.9 11.4 C 58.3 10.9 55.9 8.8 59.0 10.8 C 59.6 10.6 57.2 8.8 57.7 8.5 C 55.9 6.2 56.3 8.9 56.1 7.3 C 54.7 5.8 53.5 5.1 53.4 5.2 C 52.4 4.4 52.5 3.6 51.2 3.9 C 49.6 1.4 48.8 6.1 48.6 2.9 C 47.7 3.4 47.5 1.3 47.2 3.2 C 48.2 2.5 43.0 1.3 45.2 2.9 C 44.6 3.3 41.7 0.9 42.1 2.8 C 41.0 4.2 41.2 5.6 43.4 7.0 C 43.2 5.9 45.8 8.1 44.1 6.2 C 42.2 5.6 47.4 5.9 46.3 6.4 C 45.7 8.6 49.2 5.7 49.4 7.5 C 49.0 6.4 52.7 7.8 50.9 8.7 C 51.4 9.2 52.0 8.6 52.0 9.9 C 50.4 8.4 53.8 9.1 53.0 9.8 C 52.3 10.0 54.0 12.7 54.6 11.8 C 55.8 9.5 54.7 12.7 55.8 12.8 C 57.1 14.2 53.9 13.4 56.0 13.9 C 55.9 14.4 56.7 16.6 55.8 15.4 C 55.8 14.7 58.7 16.2 56.8 16.8 C 55.2 14.4 56.5 20.0 57.1 19.0 C 58.0 14.7 58.3 24.0 57.2 20.3 C 56.1 22.4 56.8 19.7 57.3 22.3 C 57.9 21.9 58.5 24.0 57.2 23.5 C 55.4 23.9 59.8 24.2 57.2 25.8 C 56.1 26.1 58.0 29.0 56.8 27.9 C 56.6 27.8 56.4 28.2 56.4 28.3 M 56.6 27.4 C 57.1 27.7 56.1 27.9 56.6 27.4 M 57.1 27.8 C 57.0 27.8 57.0 27.8 57.1 27.8 C 57.1 27.8 57.1 27.8 57.1 27.8 Z M 57.3 22.7 C 57.3 22.7 57.3 22.7 57.3 22.7 C 57.3 22.7 57.3 22.7 57.3 22.7 Z M 62.1 18.4 C 62.0 18.5 62.0 18.5 62.1 18.4 C 62.1 18.4 62.1 18.4 62.1 18.4 Z M 57.4 19.3 C 57.4 19.3 57.4 19.3 57.4 19.3 C 57.4 19.3 57.4 19.3 57.4 19.3 Z M 57.6 24.5 C 57.6 24.5 57.6 24.5 57.6 24.5 C 57.6 24.5 57.6 24.5 57.6 24.5 Z M 56.8 19.6 C 57.5 19.3 56.2 20.8 56.6 19.5 C 56.7 19.5 56.7 19.7 56.8 19.6 M 55.9 15.9 C 56.0 15.9 56.0 15.9 55.9 15.9 M 54.9 5.2 C 54.9 5.1 54.9 5.1 54.9 5.2 M 51.0 9.3 C 51.0 9.2 51.0 9.2 51.0 9.3 M 55.0 12.4 C 54.3 11.4 55.2 11.9 55.0 12.4 M 48.6 7.7 C 49.8 8.6 47.0 7.5 48.6 7.7 M 47.2 7.7 C 47.1 7.6 47.1 7.6 47.2 7.7 M 52.7 10.4 C 52.7 10.3 52.7 10.3 52.7 10.4 C 52.7 10.4 52.7 10.4 52.7 10.4 Z M 55.1 12.9 C 55.5 14.4 53.7 12.0 55.1 12.9 M 56.7 22.1 C 56.3 21.1 57.6 22.1 56.7 22.1 M 57.1 24.1 C 57.1 24.1 57.1 24.1 57.1 24.1 C 57.1 24.1 57.1 24.1 57.1 24.1 Z M 50.6 8.7 C 50.7 8.7 50.7 8.7 50.6 8.7 C 50.6 8.7 50.6 8.7 50.6 8.7 Z M 49.1 8.1 C 49.2 8.1 49.2 8.1 49.1 8.1 C 49.1 8.1 49.1 8.1 49.1 8.1 Z M 47.5 2.1 C 47.6 2.1 47.6 2.1 47.5 2.1 C 47.5 2.1 47.5 2.1 47.5 2.1 Z M 59.2 22.6 C 58.9 23.9 57.5 21.3 58.8 21.5 C 59.3 21.4 59.1 22.4 59.2 22.6 M 57.0 13.1 C 58.4 12.1 55.4 15.3 57.0 13.1 M 47.2 6.5 C 46.6 4.2 48.3 8.3 47.2 6.5 M 44.8 6.5 C 44.1 6.1 49.2 6.7 45.6 6.9 C 45.2 7.2 45.0 6.7 44.8 6.5 M 56.8 15.6 C 57.6 15.0 56.9 17.5 56.8 15.6 M 55.0 7.6 C 54.1 7.7 52.5 7.1 53.7 6.7 C 54.6 5.6 56.0 7.8 55.0 7.6 M 57.6 27.0 C 56.1 25.9 59.0 27.0 57.6 27.0 M 57.8 21.8 C 57.7 21.8 57.7 21.8 57.8 21.8 C 57.8 21.8 57.8 21.8 57.8 21.8 Z M 57.5 19.8 C 57.7 19.7 57.7 19.7 57.5 19.8 M 56.3 26.1 C 56.4 26.0 56.4 26.0 56.3 26.1 M 54.0 8.9 C 54.0 8.7 54.0 8.7 54.0 8.9 M 55.6 12.4 C 56.0 10.1 56.3 13.0 55.6 12.4 M 60.1 15.6 C 60.7 14.8 60.5 16.9 60.1 15.6 M 53.4 10.6 C 53.6 8.7 55.5 10.8 53.4 10.6 M 55.9 13.2 C 55.8 13.1 55.8 13.1 55.9 13.2 C 55.9 13.2 55.9 13.2 55.9 13.2 Z M 54.8 7.2 C 54.8 7.2 54.8 7.2 54.8 7.2 C 54.8 7.2 54.8 7.2 54.8 7.2 Z M 54.2 6.8 C 54.3 6.8 54.3 6.8 54.2 6.8 C 54.2 6.8 54.2 6.8 54.2 6.8 Z M 52.2 9.8 C 52.3 9.8 52.3 9.8 52.2 9.8 C 52.2 9.8 52.2 9.8 52.2 9.8 Z M 61.1 24.2 C 61.2 22.8 61.4 25.3 61.1 24.2 C 61.1 24.2 61.1 24.2 61.1 24.2 Z M 56.7 18.2 C 57.7 16.1 58.0 19.5 56.7 18.2 C 56.7 18.2 56.7 18.2 56.7 18.2 Z M 58.1 15.5 C 58.2 15.4 58.2 15.4 58.1 15.5 C 58.1 15.5 58.1 15.5 58.1 15.5 Z M 53.2 11.7 C 53.3 11.7 53.3 11.7 53.2 11.7 C 53.2 11.7 53.2 11.7 53.2 11.7 Z M 61.3 23.5 C 61.4 23.5 61.4 23.5 61.3 23.5 C 61.3 23.5 61.3 23.5 61.3 23.5 Z M 49.8 7.3 C 49.8 7.2 49.8 7.2 49.8 7.3 C 49.8 7.3 49.8 7.3 49.8 7.3 Z M 57.6 10.0 C 56.9 9.9 57.9 9.6 57.6 10.0 C 57.6 10.0 57.6 10.0 57.6 10.0 Z M 56.2 8.2 C 56.2 8.2 56.2 8.2 56.2 8.2 C 56.2 8.2 56.2 8.2 56.2 8.2 Z M 46.7 7.7 C 46.7 7.7 46.7 7.7 46.7 7.7 C 46.7 7.7 46.7 7.7 46.7 7.7 Z M 52.3 3.6 C 52.2 3.6 52.2 3.6 52.3 3.6 C 52.3 3.6 52.3 3.6 52.3 3.6 Z M 49.8 4.4 C 49.8 4.4 49.8 4.4 49.8 4.4 C 49.8 4.4 49.8 4.4 49.8 4.4 Z M 52.7 9.7 C 51.2 8.7 53.5 9.4 52.7 9.7 C 52.7 9.7 52.7 9.7 52.7 9.7 Z M 44.3 3.8 C 44.2 3.7 44.2 3.7 44.3 3.8 C 44.3 3.8 44.3 3.8 44.3 3.8 Z M 43.2 5.8 C 43.1 5.8 43.1 5.8 43.2 5.8 C 43.2 5.8 43.2 5.8 43.2 5.8 Z M 42.7 6.9 C 42.6 6.8 42.6 6.8 42.7 6.9 C 42.7 6.9 42.7 6.9 42.7 6.9 Z M 59.7 19.8 C 59.6 19.9 59.6 19.9 59.7 19.8 C 59.7 19.8 59.7 19.8 59.7 19.8 Z M 56.4 20.7 C 56.4 20.7 56.4 20.7 56.4 20.7 C 56.4 20.7 56.4 20.7 56.4 20.7 Z M 56.2 18.1 C 56.2 18.1 56.2 18.1 56.2 18.1 C 56.2 18.1 56.2 18.1 56.2 18.1 Z M 61.7 20.3 C 61.6 20.4 61.6 20.4 61.7 20.3 C 61.7 20.3 61.7 20.3 61.7 20.3 Z M 55.9 10.6 C 55.8 10.6 55.8 10.6 55.9 10.6 C 55.9 10.6 55.9 10.6 55.9 10.6 Z M 56.3 9.0 C 56.2 9.0 56.2 9.0 56.3 9.0 C 56.3 9.0 56.3 9.0 56.3 9.0 Z M 59.3 10.1 C 59.3 10.1 59.3 10.1 59.3 10.1 C 59.3 10.1 59.3 10.1 59.3 10.1 Z M 56.5 7.6 C 56.5 7.6 56.5 7.6 56.5 7.6 C 56.5 7.6 56.5 7.6 56.5 7.6 Z M 61.1 27.5 C 61.1 27.5 61.1 27.5 61.1 27.5 C 61.1 27.5 61.1 27.5 61.1 27.5 Z M 58.6 27.7 C 58.6 27.7 58.6 27.7 58.6 27.7 C 58.6 27.7 58.6 27.7 58.6 27.7 Z M 54.2 11.5 C 53.6 11.5 54.3 10.4 54.2 11.5 M 56.3 14.3 C 56.3 14.3 56.3 14.3 56.3 14.3 C 56.3 14.3 56.3 14.3 56.3 14.3 Z M 49.9 7.8 C 49.9 6.8 51.1 9.0 49.9 7.8 C 49.9 7.8 49.9 7.8 49.9 7.8 Z M 53.8 5.3 C 53.8 5.2 53.8 5.2 53.8 5.3 C 53.8 5.3 53.8 5.3 53.8 5.3 Z M 52.6 5.0 C 52.5 4.9 52.5 4.9 52.6 5.0 C 52.6 5.0 52.6 5.0 52.6 5.0 Z M 46.1 5.6 C 46.0 5.5 46.0 5.5 46.1 5.6 M 55.6 15.0 C 55.9 14.4 55.8 14.5 55.6 15.0 M 48.8 7.3 C 48.9 7.3 48.9 7.3 48.8 7.3 C 48.8 7.3 48.8 7.3 48.8 7.3 Z M 44.8 6.0 C 44.9 6.0 44.9 6.0 44.8 6.0 C 44.8 6.0 44.8 6.0 44.8 6.0 Z M 57.0 17.1 C 58.1 16.8 57.9 17.4 57.0 17.1 M 57.6 24.9 C 57.6 24.9 57.6 24.9 57.6 24.9 C 57.6 24.9 57.6 24.9 57.6 24.9 Z M 38.4 6.9 C 40.6 8.2 40.6 6.4 40.6 6.3 C 40.4 8.8 42.6 5.3 42.1 4.8 C 42.2 4.4 40.5 0.0 39.0 2.7 C 38.6 3.0 38.3 2.2 38.0 2.2 C 35.3 2.3 39.9 3.6 36.6 3.6 C 36.0 3.2 36.7 1.1 34.7 2.6 C 34.7 2.4 32.5 1.6 33.3 2.5 C 32.2 1.6 31.6 2.7 30.6 3.0 C 29.7 2.4 31.3 1.4 28.2 2.6 C 26.8 0.8 26.3 3.9 25.1 2.0 C 24.3 1.9 23.1 5.1 24.9 3.3 C 24.7 3.5 25.8 5.0 23.3 4.5 C 23.7 4.1 25.1 0.8 21.1 2.4 C 20.5 2.3 18.9 3.1 18.4 2.8 C 20.7 2.3 15.0 2.0 15.8 2.8 C 12.1 3.0 14.7 3.7 11.9 4.0 C 9.9 4.9 13.1 4.8 10.5 5.5 C 9.0 6.7 9.6 5.3 9.8 5.2 C 8.3 6.1 8.3 7.0 7.9 7.4 C 7.5 7.5 6.5 7.7 6.8 8.5 C 6.8 10.8 8.9 10.5 9.7 11.9 C 10.9 11.5 9.1 10.8 10.4 11.0 C 10.0 10.0 10.3 10.8 12.3 9.1 C 12.1 9.0 11.2 8.9 11.7 8.4 C 12.7 7.8 13.2 10.3 13.9 8.0 C 11.9 8.5 16.4 6.0 14.3 6.4 C 16.6 5.1 15.1 6.1 17.0 6.3 C 16.6 4.7 17.4 8.1 17.9 6.6 C 18.2 7.3 21.0 6.7 18.8 5.9 C 21.9 5.2 20.0 6.4 21.2 7.2 C 22.7 7.3 21.3 4.5 22.2 6.6 C 24.2 7.5 22.3 5.6 23.7 7.2 C 23.1 5.7 25.2 7.2 24.7 5.6 C 28.0 5.5 24.2 7.3 26.6 6.2 C 25.9 6.1 26.2 8.2 27.6 6.9 C 27.0 4.4 29.5 9.1 28.5 5.8 C 33.2 4.9 29.3 7.1 31.9 7.2 C 32.5 7.1 31.2 6.1 31.7 6.1 C 35.1 6.5 32.3 7.4 34.1 5.8 C 37.4 5.4 35.0 7.1 36.7 7.3 C 36.8 6.5 38.1 5.2 38.4 6.9 M 35.5 6.1 C 34.8 6.6 35.0 5.6 35.5 6.1 M 42.1 6.9 C 41.4 7.4 41.7 6.4 42.1 6.9 M 32.7 6.6 C 31.8 7.1 32.4 5.7 32.7 6.6 M 15.3 6.6 C 16.4 6.2 15.0 7.1 15.3 6.6 M 39.5 7.0 C 38.5 7.6 39.2 6.1 39.5 7.0 M 40.7 5.7 C 40.6 5.7 40.6 5.7 40.7 5.7 M 14.5 8.4 C 14.4 8.4 14.4 8.4 14.5 8.4 M 18.2 7.3 C 17.4 7.3 18.6 6.9 18.2 7.3 M 17.7 1.9 C 16.5 2.0 18.4 1.5 17.7 1.9 M 12.7 9.5 C 12.3 10.3 12.1 9.2 12.7 9.5 M 10.2 10.1 C 10.0 11.0 9.5 10.1 10.2 10.1 M 36.1 4.3 C 36.1 4.2 36.1 4.2 36.1 4.3 C 36.1 4.3 36.1 4.3 36.1 4.3 Z M 27.3 2.9 C 28.3 3.4 26.0 2.2 27.3 2.9 M 28.9 6.4 C 28.2 5.3 30.3 6.5 28.9 6.4 C 28.9 6.4 28.9 6.4 28.9 6.4 Z M 30.5 5.9 C 30.5 5.9 30.5 5.9 30.5 5.9 C 30.5 5.9 30.5 5.9 30.5 5.9 Z M 25.5 5.9 C 25.6 5.9 25.6 5.9 25.5 5.9 C 25.5 5.9 25.5 5.9 25.5 5.9 Z M 26.5 5.8 C 26.9 5.5 27.1 6.0 26.5 5.8 C 26.5 5.8 26.5 5.8 26.5 5.8 Z M 19.2 2.3 C 19.7 2.1 19.9 2.5 19.2 2.3 C 19.2 2.3 19.2 2.3 19.2 2.3 Z M 28.1 5.4 C 28.2 4.3 28.8 6.1 28.1 5.4 C 28.1 5.4 28.1 5.4 28.1 5.4 Z M 22.8 2.8 C 22.3 3.1 21.9 1.8 22.8 2.8 M 13.6 8.6 C 13.5 9.0 12.5 8.1 13.6 8.6 M 22.6 7.2 C 22.2 7.5 21.7 6.2 22.6 7.2 M 34.9 6.6 C 34.8 6.5 34.8 6.5 34.9 6.6 M 29.1 1.9 C 28.4 2.3 28.7 1.4 29.1 1.9 M 38.9 2.2 C 38.3 2.6 38.6 1.7 38.9 2.2 M 12.7 3.4 C 12.8 3.7 11.5 3.8 12.7 3.4 M 21.4 5.5 C 20.4 5.4 19.5 4.8 21.4 4.8 C 21.5 5.1 21.0 5.2 21.4 5.5 C 21.4 5.5 21.4 5.5 21.4 5.5 Z M 17.8 3.1 C 17.7 3.0 17.7 3.0 17.8 3.1 M 19.8 6.5 C 19.6 6.4 19.6 6.4 19.8 6.5 M 15.1 7.3 C 15.0 7.2 15.0 7.2 15.1 7.3 M 14.7 7.8 C 14.7 7.7 14.7 7.7 14.7 7.8 C 14.7 7.8 14.7 7.8 14.7 7.8 Z M 11.0 10.9 C 11.0 10.8 11.0 10.8 11.0 10.9 C 11.0 10.9 11.0 10.9 11.0 10.9 Z M 16.5 6.7 C 16.5 6.6 16.5 6.6 16.5 6.7 C 16.5 6.7 16.5 6.7 16.5 6.7 Z M 10.4 4.9 C 10.3 4.9 10.3 4.9 10.4 4.9 C 10.4 4.9 10.4 4.9 10.4 4.9 Z M 11.3 5.1 C 11.3 5.1 11.3 5.1 11.3 5.1 C 11.3 5.1 11.3 5.1 11.3 5.1 Z M 37.9 6.9 C 37.1 7.7 37.5 5.0 37.9 6.9 M 9.0 6.8 C 7.9 6.7 10.0 5.7 9.0 6.8 C 9.0 6.8 9.0 6.8 9.0 6.8 Z M 16.9 5.7 C 16.8 5.5 16.8 5.5 16.9 5.7 M 14.4 7.8 C 14.3 7.7 14.3 7.7 14.4 7.8 M 29.0 7.4 C 28.9 7.3 28.9 7.3 29.0 7.4 M 11.4 9.5 C 9.6 10.7 11.1 7.7 11.4 9.5 M 30.1 6.4 C 30.2 6.5 30.2 6.5 30.1 6.4 M 24.5 4.4 C 22.8 4.4 25.1 3.7 24.5 4.4 M 20.2 5.7 C 20.3 5.7 20.3 5.7 20.2 5.7 C 20.2 5.7 20.2 5.7 20.2 5.7 Z M 22.7 5.7 C 23.9 5.6 23.0 6.0 22.7 5.7 C 22.7 5.7 22.7 5.7 22.7 5.7 Z M 36.8 5.9 C 35.2 5.7 38.4 5.5 36.8 5.9 C 36.8 5.9 36.8 5.9 36.8 5.9 Z M 10.6 6.9 C 10.6 6.8 10.6 6.8 10.6 6.9 C 10.6 6.9 10.6 6.9 10.6 6.9 Z M 16.9 7.4 C 17.5 7.0 17.3 7.6 16.9 7.4 C 16.9 7.4 16.9 7.4 16.9 7.4 Z M 10.6 11.4 C 10.7 10.8 11.0 11.4 10.6 11.4 C 10.6 11.4 10.6 11.4 10.6 11.4 Z M 38.7 6.1 C 32.9 4.3 46.4 6.6 38.7 6.1 C 38.7 6.1 38.7 6.1 38.7 6.1 Z M 21.7 6.5 C 21.7 6.4 21.7 6.4 21.7 6.5 C 21.7 6.5 21.7 6.5 21.7 6.5 Z M 32.4 7.2 C 32.4 7.2 32.4 7.2 32.4 7.2 C 32.4 7.2 32.4 7.2 32.4 7.2 Z M 34.2 6.2 C 34.3 6.2 34.3 6.2 34.2 6.2 C 34.2 6.2 34.2 6.2 34.2 6.2 Z M 33.7 2.0 C 33.7 1.9 33.7 1.9 33.7 2.0 C 33.7 2.0 33.7 2.0 33.7 2.0 Z M 33.1 3.9 C 33.2 3.8 33.2 3.8 33.1 3.9 C 33.1 3.9 33.1 3.9 33.1 3.9 Z M 36.8 3.2 C 36.9 3.1 36.9 3.1 36.8 3.2 C 36.8 3.2 36.8 3.2 36.8 3.2 Z M 36.7 2.6 C 36.8 2.6 36.8 2.6 36.7 2.6 C 36.7 2.6 36.7 2.6 36.7 2.6 Z M 13.9 6.7 C 13.9 6.6 13.9 6.6 13.9 6.7 C 13.9 6.7 13.9 6.7 13.9 6.7 Z M 15.1 4.4 C 13.9 5.4 15.2 3.4 15.1 4.4 C 15.1 4.4 15.1 4.4 15.1 4.4 Z M 27.3 4.5 C 26.1 4.7 28.1 3.9 27.3 4.5 C 27.3 4.5 27.3 4.5 27.3 4.5 Z M 26.0 2.2 C 26.0 2.2 26.0 2.2 26.0 2.2 C 26.0 2.2 26.0 2.2 26.0 2.2 Z M 34.2 7.3 C 34.3 7.1 34.3 7.1 34.2 7.3 C 34.2 7.3 34.2 7.3 34.2 7.3 Z M 36.5 6.5 C 36.6 5.6 37.2 7.0 36.5 6.5 M 25.0 7.0 C 25.0 6.9 25.0 6.9 25.0 7.0 C 25.0 7.0 25.0 7.0 25.0 7.0 Z M 17.9 5.8 C 17.9 5.7 17.9 5.7 17.9 5.8 C 17.9 5.8 17.9 5.8 17.9 5.8 Z M 12.1 8.7 C 12.1 8.6 12.1 8.6 12.1 8.7 C 12.1 8.7 12.1 8.7 12.1 8.7 Z M 20.5 6.9 C 20.5 6.8 20.5 6.8 20.5 6.9 C 20.5 6.9 20.5 6.9 20.5 6.9 Z M 23.9 6.1 C 24.0 6.0 24.0 6.0 23.9 6.1 C 23.9 6.1 23.9 6.1 23.9 6.1 Z M 10.2 8.6 C 10.2 8.5 10.2 8.5 10.2 8.6 C 10.2 8.6 10.2 8.6 10.2 8.6 Z M 19.7 7.1 C 19.8 7.0 19.8 7.0 19.7 7.1 C 19.7 7.1 19.7 7.1 19.7 7.1 Z M 17.5 4.4 C 17.6 4.3 17.6 4.3 17.5 4.4 C 17.5 4.4 17.5 4.4 17.5 4.4 Z M 36.2 7.8 C 36.2 7.8 36.2 7.8 36.2 7.8 C 36.2 7.8 36.2 7.8 36.2 7.8 Z M 11.0 9.5 C 11.0 9.5 11.0 9.5 11.0 9.5 C 11.0 9.5 11.0 9.5 11.0 9.5 Z M 11.3 10.4 C 11.2 10.3 11.2 10.3 11.3 10.4 C 11.3 10.4 11.3 10.4 11.3 10.4 Z M 12.9 4.2 C 15.7 3.5 10.9 5.4 13.0 5.4 C 9.8 7.3 12.4 4.4 12.9 4.2 C 12.9 4.2 12.9 4.2 12.9 4.2 Z M 12.9 4.2 " fill="#0B5C18"></path></g></g><g><clipPath id="clip-793"><path d="M 0.4 90.1 L 62.7 90.1 L 62.7 155.9 L 0.4 155.9 Z M 0.4 90.1 "></path></clipPath><g clip-path="url(#clip-793)"><path d="M 5.9 119.6 C 5.7 119.3 5.9 118.6 5.8 118.3 M 5.9 119.6 C 7.0 118.8 7.0 117.5 7.3 115.8 C 7.3 113.9 6.2 115.8 5.8 115.6 C 5.3 113.1 6.1 113.1 7.3 113.5 C 6.5 112.5 7.9 109.7 6.5 110.3 C 6.5 114.3 6.1 107.4 5.2 110.8 C 5.0 111.2 4.6 110.2 4.6 109.8 C 4.0 110.9 3.3 109.0 2.8 110.8 C 1.9 111.1 2.3 110.7 1.6 111.9 C 1.5 112.4 1.8 112.2 2.0 112.1 C 3.1 112.3 1.4 113.5 2.1 114.4 C 0.7 115.3 2.4 116.2 3.0 115.4 C 2.8 116.2 1.3 117.2 2.3 118.1 C 1.6 118.6 2.1 120.9 3.0 119.5 C 3.6 118.5 4.0 119.6 4.3 119.8 C 4.6 119.4 4.2 118.0 4.4 117.8 C 4.7 118.3 5.2 120.0 5.2 118.1 C 5.6 118.7 5.9 117.8 5.9 119.6 C 5.9 119.6 5.9 119.6 5.9 119.6 Z M 6.7 112.8 C 7.1 112.8 6.7 113.4 6.7 112.8 C 6.7 112.8 6.7 112.8 6.7 112.8 Z M 1.6 117.4 C 2.0 117.4 1.6 118.0 1.6 117.4 C 1.6 117.4 1.6 117.4 1.6 117.4 Z M 2.0 112.4 C 2.4 112.4 2.0 113.1 2.0 112.4 C 2.0 112.4 2.0 112.4 2.0 112.4 Z M 6.4 114.5 C 6.1 115.6 5.9 113.6 6.3 113.5 C 6.2 113.7 6.8 114.3 6.4 114.5 C 6.4 114.5 6.4 114.5 6.4 114.5 Z M 4.2 114.7 C 4.4 114.8 4.4 115.2 4.0 115.2 C 3.9 114.9 4.1 114.6 4.2 114.7 C 4.2 114.7 4.2 114.7 4.2 114.7 Z M 5.8 109.4 C 5.9 109.5 6.0 109.9 5.6 109.9 C 5.5 109.6 5.7 109.3 5.8 109.4 C 5.8 109.4 5.8 109.4 5.8 109.4 Z M 5.4 115.8 C 5.4 116.0 5.0 116.1 5.0 115.8 C 5.1 115.7 5.2 114.9 5.4 115.8 C 5.4 115.8 5.4 115.8 5.4 115.8 Z M 6.7 117.4 C 6.5 118.3 5.9 116.5 6.1 116.5 C 6.4 116.2 7.0 116.9 6.7 117.4 C 6.7 117.4 6.7 117.4 6.7 117.4 Z M 4.9 116.3 C 4.7 117.0 4.6 116.0 4.9 116.3 C 4.9 116.3 4.9 116.3 4.9 116.3 Z M 3.0 110.1 C 2.8 110.9 2.7 109.8 3.0 110.1 C 3.0 110.1 3.0 110.1 3.0 110.1 Z M 1.8 114.0 C 1.6 114.8 1.5 113.7 1.8 114.0 C 1.8 114.0 1.8 114.0 1.8 114.0 Z M 5.7 112.6 C 5.7 111.3 6.7 112.4 5.7 112.6 C 5.7 112.6 5.7 112.6 5.7 112.6 Z M 6.8 119.5 C 6.8 118.2 7.8 119.3 6.8 119.5 C 6.8 119.5 6.8 119.5 6.8 119.5 Z M 6.5 107.6 C 6.6 108.6 8.6 105.0 6.8 106.1 C 5.5 106.3 6.4 103.6 7.2 104.6 C 7.6 103.9 7.7 104.0 7.4 103.3 C 8.2 103.6 9.5 102.4 9.5 101.6 C 9.1 100.8 8.7 102.5 8.6 101.2 C 9.8 99.2 7.8 100.9 7.6 99.4 C 7.7 99.3 8.1 99.6 8.1 99.2 C 7.4 98.6 5.8 99.4 5.8 98.4 C 5.6 98.8 3.5 100.1 4.7 99.8 C 5.6 100.0 2.6 101.4 4.0 101.9 C 3.1 102.3 3.7 103.3 2.6 103.7 C 2.3 104.3 3.1 104.5 3.3 104.4 C 3.9 104.6 1.6 104.7 2.6 105.8 C 2.2 105.9 2.0 108.4 2.8 106.6 C 2.6 107.1 2.1 109.9 3.5 108.5 C 4.2 106.6 4.8 110.4 4.9 108.3 C 5.2 106.8 5.0 106.5 5.6 107.7 C 5.4 108.0 5.5 109.7 6.2 108.3 C 6.0 108.0 6.2 107.4 6.5 107.6 C 6.5 107.6 6.5 107.6 6.5 107.6 Z M 4.6 107.7 C 4.6 106.8 5.1 107.7 4.6 107.7 C 4.6 107.7 4.6 107.7 4.6 107.7 Z M 2.4 103.5 C 2.7 102.5 2.9 103.6 2.4 103.5 C 2.4 103.5 2.4 103.5 2.4 103.5 Z M 7.4 105.3 C 7.1 104.8 8.5 105.1 7.4 105.3 C 7.4 105.3 7.4 105.3 7.4 105.3 Z M 3.0 105.5 C 3.0 105.4 3.1 105.7 3.2 105.9 C 3.1 105.9 3.0 105.6 3.0 105.5 C 3.0 105.5 3.0 105.5 3.0 105.5 Z M 7.8 104.1 C 7.7 102.8 8.9 104.3 7.8 104.1 C 7.8 104.1 7.8 104.1 7.8 104.1 Z M 7.8 101.4 C 6.8 100.5 8.8 100.5 7.8 101.4 C 7.8 101.4 7.8 101.4 7.8 101.4 Z M 4.3 101.5 C 4.4 101.9 4.0 101.6 4.3 101.5 C 4.3 101.5 4.3 101.5 4.3 101.5 Z M 2.3 107.9 C 2.6 108.2 2.1 108.2 2.3 107.9 C 2.3 107.9 2.3 107.9 2.3 107.9 Z M 5.3 99.9 C 5.7 100.3 4.8 100.3 5.3 99.9 C 5.3 99.9 5.3 99.9 5.3 99.9 Z M 6.9 104.9 C 7.6 106.3 5.0 105.6 6.9 104.9 C 6.9 104.9 6.9 104.9 6.9 104.9 Z M 6.6 106.8 C 6.6 107.6 5.9 106.5 6.1 106.2 C 6.2 106.3 6.5 106.7 6.6 106.8 C 6.6 106.8 6.6 106.8 6.6 106.8 Z M 7.2 103.8 C 7.4 104.7 6.7 104.3 7.2 103.8 C 7.2 103.8 7.2 103.8 7.2 103.8 Z M 7.2 105.7 C 7.0 106.0 7.1 105.4 7.2 105.7 C 7.2 105.7 7.2 105.7 7.2 105.7 Z M 8.9 103.0 C 8.6 103.3 8.9 102.7 8.9 103.0 C 8.9 103.0 8.9 103.0 8.9 103.0 Z M 7.0 107.8 C 6.8 108.1 6.9 107.5 7.0 107.8 C 7.0 107.8 7.0 107.8 7.0 107.8 Z M 8.1 102.9 C 7.7 102.6 6.2 102.9 8.0 101.8 C 8.5 101.7 8.7 102.7 8.1 102.9 C 8.1 102.9 8.1 102.9 8.1 102.9 Z M 5.8 122.9 C 7.4 118.0 4.7 119.2 4.2 119.0 C 3.5 118.3 3.0 119.0 2.5 119.9 C 0.8 121.0 4.2 121.5 2.5 122.2 C 0.3 123.5 4.5 123.7 2.1 124.2 C 1.5 124.0 2.0 125.9 2.2 125.8 C 1.0 126.7 3.1 128.1 3.3 128.1 C 3.0 128.7 0.8 128.8 2.4 130.7 C 3.0 132.2 0.9 132.9 2.3 132.5 C 0.7 133.6 2.8 133.3 2.3 134.4 C 1.4 135.1 3.6 134.4 1.9 135.8 C 3.3 136.4 0.6 135.0 2.2 139.3 C 2.0 137.2 3.6 141.1 2.5 140.4 C 1.3 139.2 3.3 142.3 3.6 144.3 C 4.3 144.6 6.4 145.8 5.1 146.2 C 4.9 148.7 7.0 147.2 6.6 148.7 C 6.6 149.5 7.7 148.9 7.9 149.2 C 7.7 150.4 8.5 150.5 10.6 152.0 C 15.0 155.1 12.4 150.2 14.2 150.6 C 14.6 150.2 13.8 146.4 13.6 148.9 C 13.6 148.2 9.5 148.5 12.3 147.3 C 10.7 147.4 13.2 146.8 10.5 146.0 C 11.6 149.7 7.3 143.7 10.2 145.5 C 10.2 144.7 9.3 143.8 9.6 144.8 C 8.5 146.1 8.8 142.4 7.9 144.7 C 7.1 142.5 5.9 143.8 6.8 142.7 C 8.6 141.3 6.3 143.0 6.5 141.7 C 5.5 139.2 8.7 140.6 6.7 139.4 C 7.3 136.7 5.6 139.0 5.3 138.0 C 3.7 137.9 6.4 135.3 6.6 137.3 C 5.8 136.3 7.3 137.1 6.4 135.8 C 5.0 136.8 7.9 134.1 6.7 134.5 C 6.4 133.3 5.5 133.9 5.5 133.5 C 5.5 131.7 6.9 132.3 5.8 131.9 C 5.3 131.5 7.1 130.7 6.7 130.4 C 6.6 132.3 5.1 128.9 5.9 128.7 C 6.0 129.9 7.8 128.2 6.7 127.5 C 3.6 128.4 7.5 125.9 6.4 125.0 C 4.6 125.8 6.2 121.1 7.0 122.9 C 6.8 122.7 5.8 122.9 5.8 122.9 M 6.4 129.9 C 6.3 131.4 6.1 128.3 6.4 129.9 M 6.9 129.9 C 6.3 130.5 7.3 128.4 7.0 129.9 C 7.0 130.0 6.9 129.8 6.9 129.9 M 6.9 136.1 C 6.4 135.9 7.2 135.2 6.9 136.1 M 5.8 137.2 C 5.4 138.2 5.7 136.0 5.8 137.2 M 11.5 147.5 C 9.0 148.8 11.4 145.6 11.5 147.5 M 7.4 141.1 C 6.6 139.9 8.6 141.2 7.4 141.1 M 6.7 140.9 C 6.1 140.4 7.2 140.6 6.7 140.9 M 9.8 146.0 C 9.9 146.1 9.9 146.1 9.8 146.0 C 9.8 146.0 9.8 146.0 9.8 146.0 Z M 12.5 148.2 C 12.5 148.2 12.5 148.2 12.5 148.2 C 12.5 148.2 12.5 148.2 12.5 148.2 Z M 7.6 143.4 C 7.6 142.1 8.7 144.9 7.6 143.4 C 7.6 143.4 7.6 143.4 7.6 143.4 Z M 8.7 150.3 C 8.6 150.3 8.6 150.3 8.7 150.3 C 8.7 150.3 8.7 150.3 8.7 150.3 Z M 5.2 128.7 C 5.2 128.7 5.2 128.7 5.2 128.7 C 5.2 128.7 5.2 128.7 5.2 128.7 Z M 6.2 124.1 C 5.8 124.2 6.5 123.3 6.2 124.1 C 6.2 124.1 6.2 124.1 6.2 124.1 Z M 3.3 120.3 C 3.2 120.3 3.2 120.3 3.3 120.3 C 3.3 120.3 3.3 120.3 3.3 120.3 Z M 3.9 127.2 C 3.8 127.1 3.8 127.1 3.9 127.2 C 3.9 127.2 3.9 127.2 3.9 127.2 Z M 5.8 127.8 C 7.2 127.1 5.4 129.6 5.8 127.8 C 5.8 127.8 5.8 127.8 5.8 127.8 Z M 3.7 143.6 C 4.3 143.4 4.0 144.8 3.7 143.6 C 3.7 143.6 3.7 143.6 3.7 143.6 Z M 5.3 137.4 C 5.6 137.6 5.2 138.1 5.3 137.4 C 5.3 137.4 5.3 137.4 5.3 137.4 Z M 7.2 134.9 C 7.5 135.1 7.0 135.6 7.2 134.9 C 7.2 134.9 7.2 134.9 7.2 134.9 Z M 6.6 124.2 C 6.7 124.3 6.7 124.3 6.6 124.2 C 6.6 124.2 6.6 124.2 6.6 124.2 Z M 5.5 125.8 C 6.8 124.7 4.8 127.6 5.5 125.8 C 5.5 125.8 5.5 125.8 5.5 125.8 Z M 5.1 123.9 C 4.6 124.5 5.4 122.4 5.1 123.9 M 3.1 125.0 C 3.7 126.4 0.7 123.7 3.1 125.0 C 3.1 125.0 3.1 125.0 3.1 125.0 Z M 2.6 132.1 C 2.5 132.2 2.5 132.2 2.6 132.1 C 2.6 132.1 2.6 132.1 2.6 132.1 Z M 6.4 131.4 C 6.4 132.6 6.1 130.6 6.4 131.4 C 6.4 131.4 6.4 131.4 6.4 131.4 Z M 6.7 120.6 C 6.7 121.9 6.4 119.8 6.7 120.6 C 6.7 120.6 6.7 120.6 6.7 120.6 Z M 3.9 136.3 C 4.1 138.3 3.2 135.0 3.9 136.3 C 3.9 136.3 3.9 136.3 3.9 136.3 Z M 6.9 143.1 C 6.8 143.1 6.8 143.1 6.9 143.1 C 6.9 143.1 6.9 143.1 6.9 143.1 Z M 7.9 143.9 C 7.9 143.9 7.9 143.9 7.9 143.9 C 7.9 143.9 7.9 143.9 7.9 143.9 Z M 10.5 148.7 C 10.5 148.8 10.5 148.8 10.5 148.7 C 10.5 148.7 10.5 148.7 10.5 148.7 Z M 9.1 144.4 C 9.1 144.5 9.1 144.5 9.1 144.4 C 9.1 144.4 9.1 144.4 9.1 144.4 Z M 11.1 147.1 C 11.1 147.2 11.1 147.2 11.1 147.1 C 11.1 147.1 11.1 147.1 11.1 147.1 Z M 11.5 145.9 C 11.5 146.0 11.5 146.0 11.5 145.9 C 11.5 145.9 11.5 145.9 11.5 145.9 Z M 2.3 141.7 C 2.2 141.8 2.2 141.8 2.3 141.7 C 2.3 141.7 2.3 141.7 2.3 141.7 Z M 7.0 126.4 C 6.9 126.5 6.9 126.5 7.0 126.4 C 7.0 126.4 7.0 126.4 7.0 126.4 Z M 10.6 147.3 C 10.6 147.4 10.6 147.4 10.6 147.3 C 10.6 147.3 10.6 147.3 10.6 147.3 Z M 5.1 140.3 C 4.0 140.6 6.3 139.1 5.2 140.5 C 5.1 140.5 5.2 140.2 5.1 140.3 M 3.6 142.1 C 3.6 142.0 3.6 142.0 3.6 142.1 C 3.6 142.1 3.6 142.1 3.6 142.1 Z M 2.1 137.2 C 2.1 137.2 2.1 137.2 2.1 137.2 C 2.1 137.2 2.1 137.2 2.1 137.2 Z M 8.9 143.8 C 9.3 143.4 9.0 144.8 8.8 143.7 M 9.3 150.3 C 9.5 149.7 10.0 151.4 9.1 150.2 M 6.3 119.2 C 5.8 119.1 6.6 118.4 6.3 119.2 M 1.5 136.2 C 1.0 136.0 1.8 135.4 1.5 136.2 M 3.0 138.4 C 3.6 138.2 2.6 139.7 3.0 138.2 M 6.9 148.0 C 7.0 148.1 7.0 148.1 6.9 148.0 C 6.9 148.0 6.9 148.0 6.9 148.0 Z M 6.3 133.3 C 6.3 133.3 6.3 133.3 6.3 133.3 C 6.3 133.3 6.3 133.3 6.3 133.3 Z M 5.1 138.7 C 5.9 137.8 4.6 139.7 5.1 138.7 M 4.8 131.7 C 5.9 130.6 4.5 133.4 4.8 131.7 M 11.3 151.9 C 10.7 150.1 11.8 153.0 11.3 151.9 M 8.8 145.7 C 9.1 144.0 8.7 146.7 8.8 145.7 M 5.8 134.4 C 6.4 134.3 5.4 135.6 5.8 134.4 M 6.4 122.0 C 6.5 120.9 6.9 123.5 6.4 122.0 M 5.0 145.5 C 5.0 145.6 5.0 145.6 5.0 145.5 C 5.0 145.5 5.0 145.5 5.0 145.5 Z M 1.5 125.7 C 1.4 125.8 1.4 125.8 1.5 125.7 C 1.5 125.7 1.5 125.7 1.5 125.7 Z M 14.5 148.7 C 14.5 148.7 14.5 148.7 14.5 148.7 C 14.5 148.7 14.5 148.7 14.5 148.7 Z M 7.9 145.5 C 7.8 145.6 7.8 145.6 7.9 145.5 C 7.9 145.5 7.9 145.5 7.9 145.5 Z M 12.9 147.7 C 12.9 147.8 12.9 147.8 12.9 147.7 C 12.9 147.7 12.9 147.7 12.9 147.7 Z M 5.2 142.9 C 5.2 142.9 5.2 142.9 5.2 142.9 C 5.2 142.9 5.2 142.9 5.2 142.9 Z M 8.0 141.0 C 8.0 141.1 8.0 141.1 8.0 141.0 C 8.0 141.0 8.0 141.0 8.0 141.0 Z M 5.9 137.9 C 5.9 137.9 5.9 137.9 5.9 137.9 C 5.9 137.9 5.9 137.9 5.9 137.9 Z M 8.4 142.5 C 9.5 144.2 6.9 142.1 8.4 142.5 C 8.4 142.5 8.4 142.5 8.4 142.5 Z M 4.0 139.9 C 4.0 139.9 4.0 139.9 4.0 139.9 C 4.0 139.9 4.0 139.9 4.0 139.9 Z M 6.3 139.1 C 7.4 140.3 4.8 140.1 6.3 139.1 M 6.8 132.6 C 7.3 133.0 6.1 132.8 6.8 132.6 M 2.5 129.8 C 2.4 129.8 2.4 129.8 2.5 129.8 C 2.5 129.8 2.5 129.8 2.5 129.8 Z M 2.8 130.6 C 2.8 130.6 2.8 130.6 2.8 130.6 C 2.8 130.6 2.8 130.6 2.8 130.6 Z M 7.0 130.9 C 7.0 130.9 7.0 130.9 7.0 130.9 C 7.0 130.9 7.0 130.9 7.0 130.9 Z M 1.6 130.7 C 1.6 130.7 1.6 130.7 1.6 130.7 C 1.6 130.7 1.6 130.7 1.6 130.7 Z M 7.7 140.3 C 7.7 140.4 7.7 140.4 7.7 140.3 C 7.7 140.3 7.7 140.3 7.7 140.3 Z M 13.9 147.7 C 13.9 147.8 13.9 147.8 13.9 147.7 C 13.9 147.7 13.9 147.7 13.9 147.7 Z M 3.0 122.4 C 2.9 122.5 2.9 122.5 3.0 122.4 C 3.0 122.4 3.0 122.4 3.0 122.4 Z M 6.8 141.8 C 6.8 141.9 6.8 141.9 6.8 141.8 C 6.8 141.8 6.8 141.8 6.8 141.8 Z M 2.7 128.1 C 2.7 128.1 2.7 128.1 2.7 128.1 C 2.7 128.1 2.7 128.1 2.7 128.1 Z M 6.8 141.1 C 6.8 141.1 6.8 141.1 6.8 141.1 C 6.8 141.1 6.8 141.1 6.8 141.1 Z M 4.5 145.3 C 4.5 145.3 4.5 145.3 4.5 145.3 C 4.5 145.3 4.5 145.3 4.5 145.3 Z M 5.7 148.2 C 5.7 148.2 5.7 148.2 5.7 148.2 C 5.7 148.2 5.7 148.2 5.7 148.2 Z M 6.5 144.0 C 6.5 144.0 6.5 144.0 6.5 144.0 C 6.5 144.0 6.5 144.0 6.5 144.0 Z M 4.1 127.2 C 5.3 122.3 4.6 131.1 4.1 127.2 M 6.6 144.8 C 5.1 141.8 9.1 146.4 6.6 144.8 C 7.1 144.9 6.7 144.8 6.6 144.8 M 15.6 148.5 C 14.1 149.3 13.5 150.3 13.7 151.7 C 14.1 152.6 14.9 150.2 14.3 152.2 C 12.5 152.0 14.2 155.4 14.9 152.8 C 17.2 153.1 14.9 154.6 16.5 153.8 C 19.2 154.0 18.0 154.6 19.8 154.4 C 20.8 153.0 20.8 155.2 21.3 153.8 C 20.4 155.3 23.1 153.4 23.2 154.1 C 21.6 155.0 29.2 154.1 25.1 153.6 C 26.8 152.9 26.5 154.2 27.0 154.4 C 27.8 153.5 29.8 155.0 30.9 154.2 C 30.7 154.0 30.1 153.9 30.0 153.6 C 29.7 153.1 31.2 153.8 31.0 153.7 C 31.7 153.4 34.5 152.5 31.5 154.1 C 31.4 154.8 33.9 153.7 33.8 154.4 C 36.4 154.4 34.4 152.9 35.6 154.0 C 37.4 154.0 38.7 154.0 38.7 153.9 C 39.8 154.0 40.0 154.9 41.0 154.1 C 43.2 155.6 42.6 151.0 43.4 154.1 C 44.0 153.4 44.9 155.3 44.7 153.5 C 43.9 154.4 49.2 154.3 46.8 153.3 C 47.3 152.7 51.1 154.0 49.9 152.4 C 50.4 150.7 49.5 149.7 47.3 148.9 C 47.8 149.9 45.0 148.3 46.9 149.8 C 48.7 150.0 43.8 150.9 44.8 150.1 C 44.9 147.9 42.3 151.6 41.1 150.0 C 42.1 150.9 37.7 151.3 39.0 149.6 C 38.1 149.5 37.9 150.3 37.0 149.3 C 39.7 149.5 36.0 151.1 36.2 150.0 C 36.6 149.4 32.7 148.9 33.1 149.8 C 34.5 152.2 32.1 149.4 31.4 150.3 C 29.2 150.8 31.7 148.3 30.1 150.0 C 29.7 149.7 26.8 149.7 28.6 149.2 C 29.3 149.5 26.9 151.8 26.6 149.8 C 29.7 148.7 23.1 149.2 24.1 149.8 C 28.9 150.9 19.0 151.0 22.8 149.9 C 20.7 148.9 23.4 149.5 20.8 150.0 C 21.1 150.6 19.1 151.2 19.6 150.0 C 19.2 148.1 18.5 152.5 17.5 149.8 C 17.4 148.6 14.6 149.9 15.9 149.0 C 15.9 148.9 15.7 148.5 15.6 148.5 M 16.3 149.0 C 15.9 149.3 15.9 148.3 16.3 149.0 M 15.9 149.3 C 15.8 149.2 15.8 149.2 15.9 149.3 C 15.9 149.3 15.9 149.3 15.9 149.3 Z M 20.4 150.1 C 20.4 150.0 20.4 150.0 20.4 150.1 C 20.4 150.1 20.4 150.1 20.4 150.1 Z M 24.4 154.8 C 24.4 154.7 24.4 154.7 24.4 154.8 C 24.4 154.8 24.4 154.8 24.4 154.8 Z M 23.8 150.2 C 23.7 150.2 23.7 150.2 23.8 150.2 C 23.8 150.2 23.8 150.2 23.8 150.2 Z M 18.6 150.3 C 18.6 150.3 18.6 150.3 18.6 150.3 C 18.6 150.3 18.6 150.3 18.6 150.3 Z M 23.5 149.5 C 23.7 150.2 22.3 148.9 23.5 149.4 C 23.6 149.4 23.3 149.4 23.5 149.5 M 27.9 149.2 C 27.9 149.3 27.9 149.3 27.9 149.2 M 37.6 154.8 C 37.6 154.8 37.6 154.8 37.6 154.8 M 38.4 149.1 C 38.5 149.2 38.5 149.2 38.4 149.1 M 32.3 149.9 C 33.6 149.8 32.6 150.3 32.3 149.9 M 42.0 149.5 C 40.3 149.1 43.8 149.1 42.0 149.5 M 43.6 149.1 C 43.8 149.2 43.8 149.2 43.6 149.1 M 36.0 149.4 C 35.9 149.4 35.9 149.4 36.0 149.4 C 36.0 149.4 36.0 149.4 36.0 149.4 Z M 31.7 149.6 C 29.9 149.2 33.5 149.0 31.7 149.6 M 21.0 149.4 C 22.0 149.0 21.0 150.3 21.0 149.4 M 19.0 149.8 C 19.0 149.8 19.0 149.8 19.0 149.8 C 19.0 149.8 19.0 149.8 19.0 149.8 Z M 39.3 149.5 C 39.2 149.5 39.2 149.5 39.3 149.5 C 39.3 149.5 39.3 149.5 39.3 149.5 Z M 41.2 149.4 C 41.1 149.4 41.1 149.4 41.2 149.4 C 41.2 149.4 41.2 149.4 41.2 149.4 Z M 44.6 154.5 C 44.6 154.6 44.6 154.6 44.6 154.5 C 44.6 154.5 44.6 154.5 44.6 154.5 Z M 20.5 151.9 C 19.2 151.6 21.8 150.2 21.6 151.5 C 21.7 152.0 20.6 151.8 20.5 151.9 M 30.4 151.2 C 30.8 153.0 29.1 148.8 30.4 151.2 M 43.9 150.3 C 45.1 152.4 42.3 148.8 43.9 150.3 M 46.2 149.7 C 47.0 149.9 42.0 150.5 45.4 149.5 C 45.6 149.1 45.9 149.5 46.2 149.7 M 27.9 150.0 C 28.3 151.0 25.8 149.6 27.9 150.0 M 36.1 153.0 C 36.7 152.4 38.4 151.8 37.7 152.9 C 37.6 154.3 35.3 153.5 36.1 153.0 M 16.4 150.0 C 17.7 148.7 16.0 151.3 16.4 150.0 M 21.2 150.5 C 21.3 150.4 21.3 150.4 21.2 150.5 C 21.2 150.5 21.2 150.5 21.2 150.5 Z M 23.3 150.2 C 23.4 150.4 23.4 150.4 23.3 150.2 M 17.3 148.8 C 17.4 148.9 17.4 148.9 17.3 148.8 M 36.0 151.4 C 36.1 151.5 36.1 151.5 36.0 151.4 M 31.9 150.3 C 33.9 151.9 30.8 150.6 31.9 150.3 M 27.0 153.3 C 27.6 154.0 25.8 153.4 27.0 153.3 M 35.1 149.7 C 36.5 151.2 33.2 151.1 35.1 149.7 M 30.9 150.2 C 31.0 150.2 31.0 150.2 30.9 150.2 C 30.9 150.2 30.9 150.2 30.9 150.2 Z M 36.6 153.2 C 36.6 153.2 36.6 153.2 36.6 153.2 C 36.6 153.2 36.6 153.2 36.6 153.2 Z M 37.2 153.1 C 37.1 153.1 37.1 153.1 37.2 153.1 C 37.2 153.1 37.2 153.1 37.2 153.1 Z M 36.9 149.6 C 36.8 149.6 36.8 149.6 36.9 149.6 C 36.9 149.6 36.9 149.6 36.9 149.6 Z M 18.8 153.8 C 20.4 154.0 17.5 154.0 18.8 153.8 C 18.8 153.8 18.8 153.8 18.8 153.8 Z M 25.1 149.5 C 27.4 150.7 23.5 150.6 25.1 149.5 C 25.1 149.5 25.1 149.5 25.1 149.5 Z M 27.7 151.4 C 27.7 151.5 27.7 151.5 27.7 151.4 C 27.7 151.4 27.7 151.4 27.7 151.4 Z M 34.2 148.8 C 34.2 148.9 34.2 148.9 34.2 148.8 C 34.2 148.8 34.2 148.8 34.2 148.8 Z M 19.6 154.0 C 19.6 154.1 19.6 154.1 19.6 154.0 C 19.6 154.0 19.6 154.0 19.6 154.0 Z M 40.9 150.4 C 40.9 150.4 40.9 150.4 40.9 150.4 C 40.9 150.4 40.9 150.4 40.9 150.4 Z M 32.8 153.4 C 33.3 152.8 32.9 153.8 32.8 153.4 C 32.8 153.4 32.8 153.4 32.8 153.4 Z M 34.9 153.4 C 34.9 153.4 34.9 153.4 34.9 153.4 C 34.9 153.4 34.9 153.4 34.9 153.4 Z M 44.1 149.0 C 44.1 149.0 44.1 149.0 44.1 149.0 C 44.1 149.0 44.1 149.0 44.1 149.0 Z M 40.2 154.8 C 40.3 154.8 40.3 154.8 40.2 154.8 C 40.2 154.8 40.2 154.8 40.2 154.8 Z M 42.0 153.1 C 42.0 153.1 42.0 153.1 42.0 153.1 C 42.0 153.1 42.0 153.1 42.0 153.1 Z M 36.5 149.9 C 38.6 149.6 36.0 150.6 36.5 149.9 C 36.5 149.9 36.5 149.9 36.5 149.9 Z M 47.4 152.1 C 47.5 152.2 47.5 152.2 47.4 152.1 C 47.4 152.1 47.4 152.1 47.4 152.1 Z M 47.8 149.9 C 47.9 150.0 47.9 150.0 47.8 149.9 C 47.8 149.9 47.8 149.9 47.8 149.9 Z M 47.9 148.7 C 48.0 148.8 48.0 148.8 47.9 148.7 C 47.9 148.7 47.9 148.7 47.9 148.7 Z M 23.2 152.4 C 23.2 152.3 23.2 152.3 23.2 152.4 C 23.2 152.4 23.2 152.4 23.2 152.4 Z M 22.4 149.1 C 22.4 149.1 22.4 149.1 22.4 149.1 C 22.4 149.1 22.4 149.1 22.4 149.1 Z M 25.2 149.0 C 25.2 148.9 25.2 148.9 25.2 149.0 C 25.2 149.0 25.2 149.0 25.2 149.0 Z M 22.7 154.4 C 22.7 154.4 22.7 154.4 22.7 154.4 C 22.7 154.4 22.7 154.4 22.7 154.4 Z M 33.4 151.6 C 33.3 151.5 33.3 151.5 33.4 151.6 C 33.4 151.6 33.4 151.6 33.4 151.6 Z M 34.4 152.9 C 34.3 152.9 34.3 152.9 34.4 152.9 C 34.4 152.9 34.4 152.9 34.4 152.9 Z M 31.9 154.7 C 31.9 154.7 31.9 154.7 31.9 154.7 C 31.9 154.7 31.9 154.7 31.9 154.7 Z M 35.1 154.1 C 35.1 154.1 35.1 154.1 35.1 154.1 C 35.1 154.1 35.1 154.1 35.1 154.1 Z M 15.1 153.2 C 15.0 153.3 15.0 153.3 15.1 153.2 C 15.1 153.2 15.1 153.2 15.1 153.2 Z M 15.5 150.7 C 15.4 150.8 15.4 150.8 15.5 150.7 C 15.5 150.7 15.5 150.7 15.5 150.7 Z M 33.7 149.8 C 34.2 149.2 34.7 150.5 33.7 149.8 M 29.6 150.1 C 29.6 150.1 29.6 150.1 29.6 150.1 C 29.6 150.1 29.6 150.1 29.6 150.1 Z M 40.5 149.9 C 41.0 150.9 38.6 149.4 40.5 149.9 C 40.5 149.9 40.5 149.9 40.5 149.9 Z M 38.4 154.1 C 38.4 154.1 38.4 154.1 38.4 154.1 C 38.4 154.1 38.4 154.1 38.4 154.1 Z M 39.4 153.6 C 39.5 153.7 39.5 153.7 39.4 153.6 C 39.4 153.6 39.4 153.6 39.4 153.6 Z M 45.2 150.8 C 45.3 150.9 45.3 150.9 45.2 150.8 M 29.1 149.2 C 29.7 149.6 29.6 149.6 29.1 149.2 M 41.9 149.9 C 41.8 149.9 41.8 149.9 41.9 149.9 C 41.9 149.9 41.9 149.9 41.9 149.9 Z M 46.3 150.1 C 46.3 150.1 46.3 150.1 46.3 150.1 C 46.3 150.1 46.3 150.1 46.3 150.1 Z M 26.2 149.9 C 26.3 151.1 25.8 150.8 26.2 149.9 M 18.3 150.2 C 18.3 150.3 18.3 150.3 18.3 150.2 C 18.3 150.2 18.3 150.2 18.3 150.2 Z M 51.0 147.1 C 48.8 147.1 49.7 148.6 49.8 148.6 C 48.8 146.3 48.5 150.3 49.1 150.6 C 49.2 150.9 53.1 154.1 53.0 150.9 C 53.2 150.4 53.8 150.9 54.2 150.7 C 56.5 148.8 51.9 150.9 54.4 148.6 C 55.1 148.5 56.3 150.5 56.5 147.9 C 56.7 148.0 58.9 146.5 57.5 146.7 C 59.0 146.3 58.4 145.0 58.7 143.9 C 59.6 143.3 60.1 145.3 59.9 141.6 C 62.1 140.6 59.2 139.5 61.2 138.2 C 61.3 137.2 58.2 135.7 59.9 137.9 C 59.7 137.6 58.2 138.7 58.7 136.2 C 59.1 136.5 62.4 137.9 60.8 134.0 C 60.9 133.3 60.1 131.8 60.4 131.5 C 60.8 133.5 61.8 128.7 60.9 129.2 C 61.5 126.1 60.1 127.9 61.2 125.6 C 61.2 123.8 59.7 126.2 60.6 123.9 C 60.4 122.2 61.2 123.4 61.1 123.5 C 61.3 122.0 60.7 121.5 60.8 121.0 C 60.9 120.6 61.6 119.9 60.8 119.6 C 59.3 118.0 57.8 119.4 56.4 118.7 C 55.7 119.9 57.5 119.2 56.4 120.0 C 57.3 120.6 56.3 120.1 56.5 123.3 C 56.8 123.2 57.4 122.5 57.5 123.2 C 57.4 124.5 54.9 123.6 56.6 125.6 C 57.2 123.2 57.4 129.0 58.0 126.8 C 58.3 129.6 57.8 127.6 57.2 129.6 C 58.8 129.5 55.4 129.8 56.7 130.5 C 56.0 130.7 56.3 133.9 57.3 131.6 C 57.8 134.9 56.8 132.8 56.0 134.0 C 55.8 135.5 58.7 134.1 56.6 135.1 C 55.7 137.0 57.6 135.1 56.0 136.6 C 57.5 135.9 56.0 137.9 57.6 137.5 C 57.5 140.7 56.1 136.9 56.8 139.2 C 57.0 138.6 54.9 138.4 55.9 140.0 C 58.5 140.0 53.4 140.9 56.8 141.0 C 56.4 145.4 55.4 141.3 54.4 143.1 C 54.1 143.5 55.6 143.1 55.4 143.5 C 53.5 145.9 54.2 143.2 54.5 145.4 C 53.0 148.0 52.9 145.2 51.9 146.0 C 52.3 146.6 52.2 148.4 51.0 147.1 M 53.4 146.1 C 53.4 145.3 54.0 146.2 53.4 146.1 M 48.4 148.6 C 48.7 147.9 48.9 149.0 48.4 148.6 M 54.5 144.0 C 54.5 143.0 55.3 144.2 54.5 144.0 M 57.4 127.7 C 57.4 129.0 57.0 127.2 57.4 127.7 M 50.3 147.5 C 50.6 146.6 50.9 148.2 50.3 147.5 M 50.0 149.2 C 50.0 149.2 50.0 149.2 50.0 149.2 M 56.1 126.0 C 56.1 125.9 56.1 125.9 56.1 126.0 M 56.0 130.8 C 56.1 129.7 56.4 131.3 56.0 130.8 M 61.4 130.9 C 61.5 129.9 61.8 131.5 61.4 130.9 M 56.0 123.4 C 55.6 122.4 56.6 123.1 56.0 123.4 M 57.2 120.7 C 56.7 119.8 57.7 120.1 57.2 120.7 M 54.4 147.8 C 54.4 147.9 54.4 147.9 54.4 147.8 C 54.4 147.8 54.4 147.8 54.4 147.8 Z M 59.9 140.6 C 59.1 141.6 60.8 139.3 59.9 140.6 M 56.1 141.1 C 57.3 140.9 55.6 142.2 56.1 141.1 C 56.1 141.1 56.1 141.1 56.1 141.1 Z M 56.0 142.6 C 56.1 142.6 56.1 142.6 56.0 142.6 C 56.0 142.6 56.0 142.6 56.0 142.6 Z M 57.3 138.3 C 57.3 138.3 57.3 138.3 57.3 138.3 C 57.3 138.3 57.3 138.3 57.3 138.3 Z M 57.2 139.2 C 57.4 139.6 56.9 139.7 57.2 139.2 C 57.2 139.2 57.2 139.2 57.2 139.2 Z M 60.9 132.2 C 61.1 132.6 60.7 132.7 60.9 132.2 C 60.9 132.2 60.9 132.2 60.9 132.2 Z M 57.3 140.7 C 58.3 141.1 56.4 141.2 57.3 140.7 C 57.3 140.7 57.3 140.7 57.3 140.7 Z M 60.4 135.6 C 60.1 135.2 61.4 134.7 60.4 135.6 M 56.3 125.0 C 56.0 124.5 57.3 124.1 56.3 125.0 M 56.0 135.4 C 55.7 135.0 57.0 134.5 56.0 135.4 M 53.4 145.4 C 53.5 145.4 53.5 145.4 53.4 145.4 M 60.3 142.8 C 60.2 141.9 60.9 142.6 60.3 142.8 M 53.3 151.3 C 53.7 150.5 53.8 151.5 53.3 151.3 M 61.3 126.5 C 61.0 126.5 61.4 125.4 61.3 126.5 M 57.7 134.2 C 57.8 133.3 58.4 132.4 58.4 134.3 C 58.1 134.4 57.9 133.8 57.7 134.2 C 57.7 134.2 57.7 134.2 57.7 134.2 Z M 60.2 130.9 C 60.3 130.8 60.3 130.8 60.2 130.9 M 56.7 132.6 C 56.8 132.5 56.8 132.5 56.7 132.6 M 56.8 127.2 C 57.0 127.1 57.0 127.1 56.8 127.2 M 56.5 126.6 C 56.5 126.6 56.5 126.6 56.5 126.6 C 56.5 126.6 56.5 126.6 56.5 126.6 Z M 56.0 120.7 C 56.1 120.7 56.1 120.7 56.0 120.7 C 56.0 120.7 56.0 120.7 56.0 120.7 Z M 56.9 128.9 C 57.0 129.0 57.0 129.0 56.9 128.9 C 56.9 128.9 56.9 128.9 56.9 128.9 Z M 61.1 124.1 C 61.1 124.1 61.1 124.1 61.1 124.1 C 61.1 124.1 61.1 124.1 61.1 124.1 Z M 60.4 124.7 C 60.5 124.7 60.5 124.7 60.4 124.7 C 60.4 124.7 60.4 124.7 60.4 124.7 Z M 51.3 146.9 C 51.4 145.9 52.8 148.2 51.3 146.9 M 60.5 122.1 C 61.2 121.3 60.6 123.5 60.5 122.1 C 60.5 122.1 60.5 122.1 60.5 122.1 Z M 57.9 129.6 C 58.0 129.5 58.0 129.5 57.9 129.6 M 56.6 126.2 C 56.7 126.2 56.7 126.2 56.6 126.2 M 55.1 140.8 C 55.3 140.8 55.3 140.8 55.1 140.8 M 56.8 122.1 C 57.1 119.6 58.4 123.2 56.8 122.1 M 55.7 142.1 C 55.6 142.1 55.6 142.1 55.7 142.1 M 58.8 137.4 C 58.8 135.6 59.4 138.0 58.8 137.4 M 57.5 133.1 C 57.5 133.1 57.5 133.1 57.5 133.1 C 57.5 133.1 57.5 133.1 57.5 133.1 Z M 57.5 135.6 C 57.6 136.8 57.2 135.9 57.5 135.6 C 57.5 135.6 57.5 135.6 57.5 135.6 Z M 52.7 147.0 C 53.9 146.2 51.9 148.3 52.7 147.0 C 52.7 147.0 52.7 147.0 52.7 147.0 Z M 59.3 123.2 C 59.4 123.3 59.4 123.3 59.3 123.2 C 59.3 123.2 59.3 123.2 59.3 123.2 Z M 56.2 129.2 C 56.5 130.0 55.9 129.6 56.2 129.2 C 56.2 129.2 56.2 129.2 56.2 129.2 Z M 56.1 119.8 C 56.3 120.5 55.7 120.2 56.1 119.8 C 56.1 119.8 56.1 119.8 56.1 119.8 Z M 51.3 147.9 C 56.5 146.5 45.5 151.4 51.3 147.9 C 51.3 147.9 51.3 147.9 51.3 147.9 Z M 56.7 134.6 C 56.8 134.6 56.8 134.6 56.7 134.6 C 56.7 134.6 56.7 134.6 56.7 134.6 Z M 54.1 143.4 C 54.1 143.5 54.1 143.5 54.1 143.4 C 54.1 143.4 54.1 143.4 54.1 143.4 Z M 54.0 145.2 C 54.1 145.3 54.1 145.3 54.0 145.2 C 54.0 145.2 54.0 145.2 54.0 145.2 Z M 57.7 147.4 C 57.7 147.5 57.7 147.5 57.7 147.4 C 57.7 147.4 57.7 147.4 57.7 147.4 Z M 56.5 145.7 C 56.6 145.9 56.6 145.9 56.5 145.7 C 56.5 145.7 56.5 145.7 56.5 145.7 Z M 54.5 149.1 C 54.5 149.2 54.5 149.2 54.5 149.1 C 54.5 149.1 54.5 149.1 54.5 149.1 Z M 55.0 149.5 C 55.0 149.5 55.0 149.5 55.0 149.5 C 55.0 149.5 55.0 149.5 55.0 149.5 Z M 57.8 126.2 C 57.9 126.3 57.9 126.3 57.8 126.2 C 57.8 126.2 57.8 126.2 57.8 126.2 Z M 59.6 128.2 C 58.9 126.9 60.5 128.6 59.6 128.2 C 59.6 128.2 59.6 128.2 59.6 128.2 Z M 58.3 140.2 C 58.4 139.0 58.7 141.1 58.3 140.2 C 58.3 140.2 58.3 140.2 58.3 140.2 Z M 60.9 139.2 C 60.9 139.2 60.9 139.2 60.9 139.2 C 60.9 139.2 60.9 139.2 60.9 139.2 Z M 53.2 144.6 C 53.3 144.7 53.3 144.7 53.2 144.6 C 53.2 144.6 53.2 144.6 53.2 144.6 Z M 52.5 146.4 C 53.1 147.1 51.8 146.5 52.5 146.4 M 56.1 137.7 C 56.2 137.7 56.2 137.7 56.1 137.7 C 56.1 137.7 56.1 137.7 56.1 137.7 Z M 57.6 130.6 C 57.6 130.6 57.6 130.6 57.6 130.6 C 57.6 130.6 57.6 130.6 57.6 130.6 Z M 57.0 123.4 C 57.1 123.4 57.1 123.4 57.0 123.4 C 57.0 123.4 57.0 123.4 57.0 123.4 Z M 56.3 133.4 C 56.4 133.4 56.4 133.4 56.3 133.4 C 56.3 133.4 56.3 133.4 56.3 133.4 Z M 57.1 136.8 C 57.2 136.8 57.2 136.8 57.1 136.8 C 57.1 136.8 57.1 136.8 57.1 136.8 Z M 58.2 121.8 C 58.3 121.9 58.3 121.9 58.2 121.8 C 58.2 121.8 58.2 121.8 58.2 121.8 Z M 56.1 132.5 C 56.2 132.6 56.2 132.6 56.1 132.5 C 56.1 132.5 56.1 132.5 56.1 132.5 Z M 59.0 130.5 C 59.1 130.5 59.1 130.5 59.0 130.5 C 59.0 130.5 59.0 130.5 59.0 130.5 Z M 51.8 145.3 C 51.8 145.4 51.8 145.4 51.8 145.3 C 51.8 145.3 51.8 145.3 51.8 145.3 Z M 57.0 121.8 C 57.1 121.8 57.1 121.8 57.0 121.8 C 57.0 121.8 57.0 121.8 57.0 121.8 Z M 56.2 121.3 C 56.3 121.3 56.3 121.3 56.2 121.3 C 56.2 121.3 56.2 121.3 56.2 121.3 Z M 60.5 126.4 C 60.0 129.0 60.3 124.1 59.3 126.0 C 59.1 122.3 60.6 125.9 60.5 126.4 C 60.5 126.4 60.5 126.4 60.5 126.4 Z M 55.9 117.9 C 57.1 119.3 58.3 119.3 59.6 118.7 C 60.2 118.0 57.7 118.0 59.8 118.0 C 60.2 119.6 62.9 117.3 60.2 117.3 C 59.9 115.2 61.9 117.0 60.9 115.7 C 60.6 113.4 61.4 114.6 61.2 112.9 C 59.8 111.8 61.9 111.8 60.6 111.4 C 62.1 112.3 60.2 109.5 60.8 109.5 C 61.8 111.1 60.3 102.6 60.3 107.3 C 59.4 105.5 60.6 105.7 60.6 105.0 C 59.6 104.4 60.2 101.6 58.9 101.0 C 58.9 101.2 59.1 101.8 58.9 102.1 C 58.5 102.6 58.4 100.9 58.4 101.0 C 57.8 100.5 55.4 98.4 58.5 100.4 C 59.1 100.1 56.7 98.4 57.2 98.1 C 55.4 95.8 55.8 98.5 55.6 96.9 C 54.2 95.4 53.0 94.7 52.9 94.8 C 51.9 94.0 52.0 93.2 50.7 93.4 C 49.1 91.0 48.3 95.7 48.1 92.5 C 47.2 93.0 47.0 90.9 46.7 92.8 C 47.7 92.1 42.5 90.9 44.7 92.4 C 44.1 92.9 41.2 90.4 41.6 92.4 C 40.5 93.8 40.7 95.2 42.9 96.6 C 42.7 95.5 45.3 97.7 43.6 95.8 C 41.7 95.2 46.9 95.5 45.8 96.0 C 45.2 98.2 48.7 95.2 48.9 97.1 C 48.5 96.0 52.2 97.4 50.4 98.3 C 50.9 98.8 51.5 98.2 51.5 99.4 C 49.9 98.0 53.3 98.7 52.5 99.3 C 51.8 99.6 53.5 102.3 54.1 101.4 C 55.3 99.1 54.2 102.3 55.3 102.4 C 56.6 103.8 53.4 103.0 55.5 103.5 C 55.4 104.0 56.2 106.2 55.3 104.9 C 55.3 104.3 58.2 105.8 56.3 106.4 C 54.7 104.0 56.0 109.6 56.6 108.6 C 57.5 104.3 57.8 113.6 56.7 109.9 C 55.6 112.0 56.3 109.2 56.8 111.9 C 57.4 111.5 58.0 113.6 56.7 113.1 C 54.9 113.5 59.3 113.8 56.7 115.4 C 55.6 115.7 57.5 118.6 56.3 117.5 C 56.1 117.4 55.9 117.8 55.9 117.9 M 56.1 117.0 C 56.6 117.3 55.6 117.5 56.1 117.0 M 56.6 117.3 C 56.5 117.4 56.5 117.4 56.6 117.3 C 56.6 117.3 56.6 117.3 56.6 117.3 Z M 56.8 112.3 C 56.8 112.3 56.8 112.3 56.8 112.3 C 56.8 112.3 56.8 112.3 56.8 112.3 Z M 61.6 108.0 C 61.5 108.1 61.5 108.1 61.6 108.0 C 61.6 108.0 61.6 108.0 61.6 108.0 Z M 56.9 108.9 C 56.9 108.9 56.9 108.9 56.9 108.9 C 56.9 108.9 56.9 108.9 56.9 108.9 Z M 57.1 114.1 C 57.1 114.1 57.1 114.1 57.1 114.1 C 57.1 114.1 57.1 114.1 57.1 114.1 Z M 56.3 109.2 C 57.0 108.9 55.7 110.4 56.1 109.1 C 56.2 109.1 56.2 109.3 56.3 109.2 M 55.4 105.5 C 55.5 105.5 55.5 105.5 55.4 105.5 M 54.4 94.8 C 54.4 94.7 54.4 94.7 54.4 94.8 M 50.5 98.9 C 50.5 98.8 50.5 98.8 50.5 98.9 M 54.5 102.0 C 53.8 101.0 54.7 101.5 54.5 102.0 M 48.1 97.3 C 49.3 98.2 46.5 97.1 48.1 97.3 M 46.7 97.3 C 46.6 97.2 46.6 97.2 46.7 97.3 M 52.2 100.0 C 52.2 99.9 52.2 99.9 52.2 100.0 C 52.2 100.0 52.2 100.0 52.2 100.0 Z M 54.6 102.5 C 55.0 104.0 53.2 101.6 54.6 102.5 M 56.2 111.7 C 55.8 110.7 57.1 111.7 56.2 111.7 M 56.6 113.7 C 56.6 113.7 56.6 113.7 56.6 113.7 C 56.6 113.7 56.6 113.7 56.6 113.7 Z M 50.1 98.3 C 50.2 98.3 50.2 98.3 50.1 98.3 C 50.1 98.3 50.1 98.3 50.1 98.3 Z M 48.6 97.6 C 48.7 97.7 48.7 97.7 48.6 97.6 C 48.6 97.6 48.6 97.6 48.6 97.6 Z M 47.0 91.7 C 47.1 91.7 47.1 91.7 47.0 91.7 C 47.0 91.7 47.0 91.7 47.0 91.7 Z M 58.7 112.2 C 58.4 113.5 57.0 110.8 58.3 111.1 C 58.8 111.0 58.6 112.0 58.7 112.2 M 56.5 102.7 C 57.9 101.7 54.9 104.9 56.5 102.7 M 46.7 96.1 C 46.1 93.7 47.8 97.9 46.7 96.1 M 44.3 96.1 C 43.6 95.6 48.7 96.3 45.1 96.5 C 44.7 96.8 44.5 96.3 44.3 96.1 M 56.3 105.2 C 57.1 104.6 56.4 107.1 56.3 105.2 M 54.5 97.2 C 53.6 97.3 52.0 96.7 53.2 96.3 C 54.1 95.2 55.5 97.4 54.5 97.2 M 57.1 116.6 C 55.6 115.5 58.5 116.6 57.1 116.6 M 57.3 111.4 C 57.2 111.4 57.2 111.4 57.3 111.4 C 57.3 111.4 57.3 111.4 57.3 111.4 Z M 57.0 109.4 C 57.2 109.3 57.2 109.3 57.0 109.4 M 55.8 115.7 C 55.9 115.6 55.9 115.6 55.8 115.7 M 53.5 98.5 C 53.5 98.3 53.5 98.3 53.5 98.5 M 55.1 102.0 C 55.5 99.7 55.8 102.6 55.1 102.0 M 59.6 105.2 C 60.2 104.4 60.0 106.5 59.6 105.2 M 52.9 100.2 C 53.1 98.3 55.0 100.4 52.9 100.2 M 55.4 102.8 C 55.3 102.7 55.3 102.7 55.4 102.8 C 55.4 102.8 55.4 102.8 55.4 102.8 Z M 54.3 96.8 C 54.3 96.8 54.3 96.8 54.3 96.8 C 54.3 96.8 54.3 96.8 54.3 96.8 Z M 53.7 96.4 C 53.8 96.4 53.8 96.4 53.7 96.4 C 53.7 96.4 53.7 96.4 53.7 96.4 Z M 51.7 99.3 C 51.8 99.3 51.8 99.3 51.7 99.3 C 51.7 99.3 51.7 99.3 51.7 99.3 Z M 60.6 113.8 C 60.7 112.4 60.9 114.9 60.6 113.8 C 60.6 113.8 60.6 113.8 60.6 113.8 Z M 56.2 107.8 C 57.2 105.7 57.5 109.1 56.2 107.8 C 56.2 107.8 56.2 107.8 56.2 107.8 Z M 57.6 105.1 C 57.7 105.0 57.7 105.0 57.6 105.1 C 57.6 105.1 57.6 105.1 57.6 105.1 Z M 52.7 101.3 C 52.8 101.3 52.8 101.3 52.7 101.3 C 52.7 101.3 52.7 101.3 52.7 101.3 Z M 60.8 113.1 C 60.9 113.1 60.9 113.1 60.8 113.1 C 60.8 113.1 60.8 113.1 60.8 113.1 Z M 49.3 96.9 C 49.3 96.8 49.3 96.8 49.3 96.9 C 49.3 96.9 49.3 96.9 49.3 96.9 Z M 57.1 99.6 C 56.4 99.5 57.4 99.2 57.1 99.6 C 57.1 99.6 57.1 99.6 57.1 99.6 Z M 55.7 97.8 C 55.7 97.8 55.7 97.8 55.7 97.8 C 55.7 97.8 55.7 97.8 55.7 97.8 Z M 46.2 97.3 C 46.2 97.3 46.2 97.3 46.2 97.3 C 46.2 97.3 46.2 97.3 46.2 97.3 Z M 51.8 93.2 C 51.7 93.1 51.7 93.1 51.8 93.2 C 51.8 93.2 51.8 93.2 51.8 93.2 Z M 49.3 94.0 C 49.3 93.9 49.3 93.9 49.3 94.0 C 49.3 94.0 49.3 94.0 49.3 94.0 Z M 52.2 99.3 C 50.7 98.3 53.0 99.0 52.2 99.3 C 52.2 99.3 52.2 99.3 52.2 99.3 Z M 43.8 93.4 C 43.7 93.3 43.7 93.3 43.8 93.4 C 43.8 93.4 43.8 93.4 43.8 93.4 Z M 42.7 95.4 C 42.6 95.3 42.6 95.3 42.7 95.4 C 42.7 95.4 42.7 95.4 42.7 95.4 Z M 42.2 96.5 C 42.1 96.4 42.1 96.4 42.2 96.5 C 42.2 96.5 42.2 96.5 42.2 96.5 Z M 59.2 109.4 C 59.1 109.5 59.1 109.5 59.2 109.4 C 59.2 109.4 59.2 109.4 59.2 109.4 Z M 55.9 110.3 C 55.9 110.3 55.9 110.3 55.9 110.3 C 55.9 110.3 55.9 110.3 55.9 110.3 Z M 55.7 107.7 C 55.7 107.7 55.7 107.7 55.7 107.7 C 55.7 107.7 55.7 107.7 55.7 107.7 Z M 61.2 109.9 C 61.1 110.0 61.1 110.0 61.2 109.9 C 61.2 109.9 61.2 109.9 61.2 109.9 Z M 55.4 100.2 C 55.3 100.2 55.3 100.2 55.4 100.2 C 55.4 100.2 55.4 100.2 55.4 100.2 Z M 55.8 98.6 C 55.7 98.6 55.7 98.6 55.8 98.6 C 55.8 98.6 55.8 98.6 55.8 98.6 Z M 58.8 99.7 C 58.8 99.7 58.8 99.7 58.8 99.7 C 58.8 99.7 58.8 99.7 58.8 99.7 Z M 56.0 97.2 C 56.0 97.2 56.0 97.2 56.0 97.2 C 56.0 97.2 56.0 97.2 56.0 97.2 Z M 60.6 117.1 C 60.6 117.1 60.6 117.1 60.6 117.1 C 60.6 117.1 60.6 117.1 60.6 117.1 Z M 58.1 117.3 C 58.1 117.3 58.1 117.3 58.1 117.3 C 58.1 117.3 58.1 117.3 58.1 117.3 Z M 53.7 101.1 C 53.1 101.1 53.8 100.0 53.7 101.1 M 55.8 103.8 C 55.8 103.8 55.8 103.8 55.8 103.8 C 55.8 103.8 55.8 103.8 55.8 103.8 Z M 49.4 97.4 C 49.4 96.3 50.6 98.6 49.4 97.4 C 49.4 97.4 49.4 97.4 49.4 97.4 Z M 53.3 94.9 C 53.3 94.8 53.3 94.8 53.3 94.9 C 53.3 94.9 53.3 94.9 53.3 94.9 Z M 52.1 94.6 C 52.0 94.5 52.0 94.5 52.1 94.6 C 52.1 94.6 52.1 94.6 52.1 94.6 Z M 45.6 95.2 C 45.5 95.1 45.5 95.1 45.6 95.2 M 55.1 104.6 C 55.4 104.0 55.3 104.1 55.1 104.6 M 48.3 96.9 C 48.4 96.9 48.4 96.9 48.3 96.9 C 48.3 96.9 48.3 96.9 48.3 96.9 Z M 44.3 95.6 C 44.4 95.6 44.4 95.6 44.3 95.6 C 44.3 95.6 44.3 95.6 44.3 95.6 Z M 56.5 106.7 C 57.6 106.4 57.4 106.9 56.5 106.7 M 57.1 114.5 C 57.1 114.5 57.1 114.5 57.1 114.5 C 57.1 114.5 57.1 114.5 57.1 114.5 Z M 37.9 96.5 C 40.1 97.8 40.1 95.9 40.1 95.9 C 39.9 98.4 42.1 94.9 41.6 94.4 C 41.7 94.0 40.0 89.6 38.5 92.3 C 38.1 92.6 37.8 91.8 37.5 91.8 C 34.8 91.9 39.4 93.2 36.1 93.2 C 35.5 92.8 36.2 90.7 34.2 92.1 C 34.2 91.9 32.0 91.2 32.8 92.1 C 31.7 91.1 31.1 92.3 30.1 92.6 C 29.2 92.0 30.8 91.0 27.7 92.2 C 26.3 90.4 25.8 93.5 24.6 91.6 C 23.8 91.5 22.6 94.7 24.4 92.9 C 24.2 93.1 25.3 94.6 22.8 94.1 C 23.2 93.7 24.6 90.4 20.6 92.0 C 20.0 91.9 18.4 92.7 17.9 92.4 C 20.2 91.9 14.5 91.6 15.3 92.4 C 11.6 92.6 14.2 93.3 11.4 93.6 C 9.4 94.5 12.6 94.4 10.0 95.1 C 8.5 96.3 9.1 94.9 9.3 94.8 C 7.8 95.7 7.8 96.6 7.4 97.0 C 7.0 97.1 6.0 97.2 6.3 98.1 C 6.3 100.4 8.4 100.1 9.2 101.5 C 10.4 101.1 8.6 100.4 9.9 100.6 C 9.5 99.6 9.8 100.4 11.8 98.7 C 11.6 98.6 10.7 98.5 11.2 98.0 C 12.2 97.4 12.7 99.9 13.4 97.6 C 11.4 98.1 15.9 95.6 13.8 96.0 C 16.1 94.7 14.6 95.7 16.5 95.9 C 16.1 94.3 16.9 97.6 17.4 96.2 C 17.7 96.9 20.5 96.3 18.3 95.5 C 21.4 94.8 19.5 96.0 20.7 96.8 C 22.2 96.9 20.8 94.1 21.7 96.2 C 23.7 97.1 21.8 95.2 23.2 96.8 C 22.6 95.3 24.7 96.8 24.2 95.2 C 27.5 95.1 23.7 96.9 26.1 95.8 C 25.4 95.7 25.7 97.8 27.1 96.5 C 26.5 94.0 29.0 98.7 28.0 95.4 C 32.7 94.5 28.8 96.7 31.4 96.7 C 32.0 96.7 30.7 95.7 31.2 95.6 C 34.6 96.1 31.8 97.0 33.6 95.4 C 36.9 95.0 34.5 96.7 36.2 96.8 C 36.3 96.1 37.6 94.8 37.9 96.5 M 35.0 95.7 C 34.3 96.2 34.5 95.2 35.0 95.7 M 41.6 96.5 C 40.9 97.0 41.2 95.9 41.6 96.5 M 32.2 96.2 C 31.3 96.7 31.9 95.3 32.2 96.2 M 14.8 96.2 C 15.9 95.8 14.5 96.7 14.8 96.2 M 39.0 96.6 C 38.0 97.2 38.7 95.7 39.0 96.6 M 40.2 95.3 C 40.1 95.3 40.1 95.3 40.2 95.3 M 14.0 98.0 C 13.9 98.0 13.9 98.0 14.0 98.0 M 17.7 96.9 C 16.9 96.9 18.1 96.5 17.7 96.9 M 17.2 91.5 C 16.0 91.6 17.9 91.1 17.2 91.5 M 12.2 99.1 C 11.8 99.9 11.6 98.8 12.2 99.1 M 9.7 99.7 C 9.5 100.6 9.0 99.7 9.7 99.7 M 35.6 93.8 C 35.6 93.8 35.6 93.8 35.6 93.8 C 35.6 93.8 35.6 93.8 35.6 93.8 Z M 26.8 92.5 C 27.8 93.0 25.5 91.8 26.8 92.5 M 28.4 96.0 C 27.7 94.9 29.8 96.1 28.4 96.0 C 28.4 96.0 28.4 96.0 28.4 96.0 Z M 30.0 95.5 C 30.0 95.5 30.0 95.5 30.0 95.5 C 30.0 95.5 30.0 95.5 30.0 95.5 Z M 25.0 95.5 C 25.1 95.4 25.1 95.4 25.0 95.5 C 25.0 95.5 25.0 95.5 25.0 95.5 Z M 26.0 95.4 C 26.4 95.1 26.6 95.6 26.0 95.4 C 26.0 95.4 26.0 95.4 26.0 95.4 Z M 18.7 91.9 C 19.2 91.7 19.4 92.1 18.7 91.9 C 18.7 91.9 18.7 91.9 18.7 91.9 Z M 27.6 95.0 C 27.7 93.9 28.3 95.7 27.6 95.0 C 27.6 95.0 27.6 95.0 27.6 95.0 Z M 22.3 92.4 C 21.8 92.7 21.4 91.4 22.3 92.4 M 13.1 98.2 C 13.0 98.6 12.0 97.6 13.1 98.2 M 22.1 96.8 C 21.7 97.1 21.2 95.8 22.1 96.8 M 34.4 96.2 C 34.3 96.1 34.3 96.1 34.4 96.2 M 28.6 91.5 C 27.9 91.9 28.2 91.0 28.6 91.5 M 38.4 91.8 C 37.8 92.2 38.1 91.3 38.4 91.8 M 12.2 93.0 C 12.3 93.3 11.0 93.4 12.2 93.0 M 20.9 95.1 C 19.9 95.0 19.0 94.4 20.9 94.4 C 21.0 94.7 20.5 94.8 20.9 95.1 C 20.9 95.1 20.9 95.1 20.9 95.1 Z M 17.3 92.7 C 17.2 92.6 17.2 92.6 17.3 92.7 M 19.3 96.1 C 19.1 96.0 19.1 96.0 19.3 96.1 M 14.6 96.9 C 14.5 96.8 14.5 96.8 14.6 96.9 M 14.2 97.4 C 14.2 97.3 14.2 97.3 14.2 97.4 C 14.2 97.4 14.2 97.4 14.2 97.4 Z M 10.5 100.5 C 10.5 100.4 10.5 100.4 10.5 100.5 C 10.5 100.5 10.5 100.5 10.5 100.5 Z M 16.0 96.3 C 16.0 96.2 16.0 96.2 16.0 96.3 C 16.0 96.3 16.0 96.3 16.0 96.3 Z M 9.9 94.5 C 9.8 94.5 9.8 94.5 9.9 94.5 C 9.9 94.5 9.9 94.5 9.9 94.5 Z M 10.8 94.7 C 10.8 94.7 10.8 94.7 10.8 94.7 C 10.8 94.7 10.8 94.7 10.8 94.7 Z M 37.4 96.5 C 36.6 97.3 37.0 94.6 37.4 96.5 M 8.5 96.3 C 7.4 96.3 9.5 95.3 8.5 96.3 C 8.5 96.3 8.5 96.3 8.5 96.3 Z M 16.4 95.3 C 16.3 95.1 16.3 95.1 16.4 95.3 M 13.9 97.4 C 13.8 97.3 13.8 97.3 13.9 97.4 M 28.5 97.0 C 28.4 96.9 28.4 96.9 28.5 97.0 M 10.9 99.1 C 9.1 100.3 10.6 97.3 10.9 99.1 M 29.6 96.0 C 29.7 96.1 29.7 96.1 29.6 96.0 M 24.0 94.0 C 22.3 94.0 24.6 93.3 24.0 94.0 M 19.7 95.3 C 19.8 95.3 19.8 95.3 19.7 95.3 C 19.7 95.3 19.7 95.3 19.7 95.3 Z M 22.2 95.3 C 23.4 95.2 22.5 95.6 22.2 95.3 C 22.2 95.3 22.2 95.3 22.2 95.3 Z M 36.3 95.5 C 34.7 95.3 37.9 95.1 36.3 95.5 C 36.3 95.5 36.3 95.5 36.3 95.5 Z M 10.1 96.5 C 10.1 96.4 10.1 96.4 10.1 96.5 C 10.1 96.5 10.1 96.5 10.1 96.5 Z M 16.4 97.0 C 17.0 96.5 16.8 97.2 16.4 97.0 C 16.4 97.0 16.4 97.0 16.4 97.0 Z M 10.1 101.0 C 10.2 100.4 10.5 101.0 10.1 101.0 C 10.1 101.0 10.1 101.0 10.1 101.0 Z M 38.2 95.7 C 32.4 93.9 45.9 96.1 38.2 95.7 C 38.2 95.7 38.2 95.7 38.2 95.7 Z M 21.2 96.1 C 21.2 96.0 21.2 96.0 21.2 96.1 C 21.2 96.1 21.2 96.1 21.2 96.1 Z M 31.9 96.8 C 31.9 96.8 31.9 96.8 31.9 96.8 C 31.9 96.8 31.9 96.8 31.9 96.8 Z M 33.7 95.8 C 33.8 95.8 33.8 95.8 33.7 95.8 C 33.7 95.8 33.7 95.8 33.7 95.8 Z M 33.2 91.6 C 33.2 91.5 33.2 91.5 33.2 91.6 C 33.2 91.6 33.2 91.6 33.2 91.6 Z M 32.6 93.5 C 32.7 93.4 32.7 93.4 32.6 93.5 C 32.6 93.5 32.6 93.5 32.6 93.5 Z M 36.3 92.8 C 36.4 92.7 36.4 92.7 36.3 92.8 C 36.3 92.8 36.3 92.8 36.3 92.8 Z M 36.2 92.2 C 36.3 92.2 36.3 92.2 36.2 92.2 C 36.2 92.2 36.2 92.2 36.2 92.2 Z M 13.4 96.3 C 13.4 96.2 13.4 96.2 13.4 96.3 C 13.4 96.3 13.4 96.3 13.4 96.3 Z M 14.6 93.9 C 13.4 95.0 14.7 92.9 14.6 93.9 C 14.6 93.9 14.6 93.9 14.6 93.9 Z M 26.8 94.1 C 25.6 94.3 27.6 93.5 26.8 94.1 C 26.8 94.1 26.8 94.1 26.8 94.1 Z M 25.5 91.8 C 25.5 91.8 25.5 91.8 25.5 91.8 C 25.5 91.8 25.5 91.8 25.5 91.8 Z M 33.7 96.8 C 33.8 96.7 33.8 96.7 33.7 96.8 C 33.7 96.8 33.7 96.8 33.7 96.8 Z M 36.0 96.1 C 36.1 95.2 36.7 96.6 36.0 96.1 M 24.5 96.6 C 24.5 96.5 24.5 96.5 24.5 96.6 C 24.5 96.6 24.5 96.6 24.5 96.6 Z M 17.4 95.4 C 17.4 95.3 17.4 95.3 17.4 95.4 C 17.4 95.4 17.4 95.4 17.4 95.4 Z M 11.6 98.3 C 11.6 98.2 11.6 98.2 11.6 98.3 C 11.6 98.3 11.6 98.3 11.6 98.3 Z M 20.0 96.5 C 20.0 96.4 20.0 96.4 20.0 96.5 C 20.0 96.5 20.0 96.5 20.0 96.5 Z M 23.4 95.7 C 23.5 95.6 23.5 95.6 23.4 95.7 C 23.4 95.7 23.4 95.7 23.4 95.7 Z M 9.7 98.2 C 9.7 98.1 9.7 98.1 9.7 98.2 C 9.7 98.2 9.7 98.2 9.7 98.2 Z M 19.2 96.7 C 19.3 96.6 19.3 96.6 19.2 96.7 C 19.2 96.7 19.2 96.7 19.2 96.7 Z M 17.0 94.0 C 17.1 93.9 17.1 93.9 17.0 94.0 C 17.0 94.0 17.0 94.0 17.0 94.0 Z M 35.7 97.4 C 35.7 97.4 35.7 97.4 35.7 97.4 C 35.7 97.4 35.7 97.4 35.7 97.4 Z M 10.5 99.1 C 10.5 99.1 10.5 99.1 10.5 99.1 C 10.5 99.1 10.5 99.1 10.5 99.1 Z M 10.8 100.0 C 10.7 99.9 10.7 99.9 10.8 100.0 C 10.8 100.0 10.8 100.0 10.8 100.0 Z M 12.4 93.8 C 15.2 93.1 10.4 95.0 12.5 95.0 C 9.3 96.9 11.9 94.0 12.4 93.8 C 12.4 93.8 12.4 93.8 12.4 93.8 Z M 12.4 93.8 " fill="#0B5C18"></path></g></g></g></svg>