<?xml version="1.0" encoding="UTF-8" standalone="no"?><svg xmlns="http://www.w3.org/2000/svg" xmlns:xlink="http://www.w3.org/1999/xlink" clip-rule="evenodd" stroke-miterlimit="4.00" viewBox="0 0 63 242"><desc>SVG generated by Keynote</desc><defs></defs><g transform="matrix(1.00, 0.00, -0.00, -1.00, 0.0, 242.0)"><g><clipPath id="clip-776"><path d="M 0.9 177.1 L 62.2 177.1 L 62.2 241.8 L 0.9 241.8 Z M 0.9 177.1 "></path></clipPath><g clip-path="url(#clip-776)"><path d="M 4.4 195.6 L 4.4 223.3 C 4.4 231.6 11.1 238.3 19.4 238.3 L 43.7 238.3 C 52.0 238.3 58.7 231.6 58.7 223.3 L 58.7 195.6 C 58.7 187.3 52.0 180.6 43.7 180.6 L 19.4 180.6 C 11.1 180.6 4.4 187.3 4.4 195.6 Z M 4.4 195.6 " fill="#B26AE1"></path><path d="M 0.0 42.8 L 0.0 15.0 C 0.0 6.7 6.7 0.0 15.0 0.0 L 39.3 0.0 C 47.6 0.0 54.3 6.7 54.3 15.0 L 54.3 42.8 C 54.3 51.0 47.6 57.8 39.3 57.8 L 15.0 57.8 C 6.7 57.8 0.0 51.0 0.0 42.8 Z M 0.0 42.8 " fill="none" stroke="#5E317B" stroke-width="5.00" transform="matrix(1.00, 0.00, 0.00, -1.00, 4.4, 238.3)"></path></g></g><g><clipPath id="clip-777"><path d="M 4.4 180.6 L 58.7 180.6 L 58.7 238.3 L 4.4 238.3 Z M 4.4 180.6 "></path></clipPath><g clip-path="url(#clip-777)"><text xml:space="preserve" font-family="Helvetica-Bold" font-weight="bold" font-size="24.0" fill="#FEFFFE" transform="matrix(1.00, 0.00, -0.00, -1.00, 18.0, 201.0)">d</text><text xml:space="preserve" font-family="Helvetica-Bold" font-weight="bold" font-size="24.0" fill="#FEFFFE" transform="matrix(1.00, 0.00, -0.00, -1.00, 32.7, 201.0)">y</text></g></g><g><clipPath id="clip-778"><path d="M 0.9 88.1 L 62.2 88.1 L 62.2 152.8 L 0.9 152.8 Z M 0.9 88.1 "></path></clipPath><g clip-path="url(#clip-778)"><path d="M 4.4 106.6 L 4.4 134.3 C 4.4 142.6 11.1 149.3 19.4 149.3 L 43.7 149.3 C 52.0 149.3 58.7 142.6 58.7 134.3 L 58.7 106.6 C 58.7 98.3 52.0 91.6 43.7 91.6 L 19.4 91.6 C 11.1 91.6 4.4 98.3 4.4 106.6 Z M 4.4 106.6 " fill="#B26AE1"></path><path d="M 0.0 42.8 L 0.0 15.0 C 0.0 6.7 6.7 0.0 15.0 0.0 L 39.3 0.0 C 47.6 0.0 54.3 6.7 54.3 15.0 L 54.3 42.8 C 54.3 51.0 47.6 57.8 39.3 57.8 L 15.0 57.8 C 6.7 57.8 0.0 51.0 0.0 42.8 Z M 0.0 42.8 " fill="none" stroke="#5E317B" stroke-width="5.00" transform="matrix(1.00, 0.00, 0.00, -1.00, 4.4, 149.3)"></path></g></g><g><clipPath id="clip-779"><path d="M 4.4 91.6 L 58.7 91.6 L 58.7 149.3 L 4.4 149.3 Z M 4.4 91.6 "></path></clipPath><g clip-path="url(#clip-779)"><text xml:space="preserve" font-family="Helvetica-Bold" font-weight="bold" font-size="24.0" fill="#FEFFFE" transform="matrix(1.00, 0.00, -0.00, -1.00, 18.0, 112.0)">d</text><text xml:space="preserve" font-family="Helvetica-Bold" font-weight="bold" font-size="24.0" fill="#FEFFFE" transform="matrix(1.00, 0.00, -0.00, -1.00, 32.7, 112.0)">y</text></g></g><g><clipPath id="clip-780"><path d="M 0.9 0.1 L 62.2 0.1 L 62.2 64.8 L 0.9 64.8 Z M 0.9 0.1 "></path></clipPath><g clip-path="url(#clip-780)"><path d="M 4.4 18.6 L 4.4 46.3 C 4.4 54.6 11.1 61.3 19.4 61.3 L 43.7 61.3 C 52.0 61.3 58.7 54.6 58.7 46.3 L 58.7 18.6 C 58.7 10.3 52.0 3.6 43.7 3.6 L 19.4 3.6 C 11.1 3.6 4.4 10.3 4.4 18.6 Z M 4.4 18.6 " fill="#B26AE1"></path><path d="M 0.0 42.8 L 0.0 15.0 C 0.0 6.7 6.7 0.0 15.0 0.0 L 39.3 0.0 C 47.6 0.0 54.3 6.7 54.3 15.0 L 54.3 42.8 C 54.3 51.0 47.6 57.8 39.3 57.8 L 15.0 57.8 C 6.7 57.8 0.0 51.0 0.0 42.8 Z M 0.0 42.8 " fill="none" stroke="#5E317B" stroke-width="5.00" transform="matrix(1.00, 0.00, 0.00, -1.00, 4.4, 61.3)"></path></g></g><g><clipPath id="clip-781"><path d="M 4.4 3.6 L 58.7 3.6 L 58.7 61.3 L 4.4 61.3 Z M 4.4 3.6 "></path></clipPath><g clip-path="url(#clip-781)"><text xml:space="preserve" font-family="Helvetica-Bold" font-weight="bold" font-size="24.0" fill="#FEFFFE" transform="matrix(1.00, 0.00, -0.00, -1.00, 18.0, 24.0)">d</text><text xml:space="preserve" font-family="Helvetica-Bold" font-weight="bold" font-size="24.0" fill="#FEFFFE" transform="matrix(1.00, 0.00, -0.00, -1.00, 32.7, 24.0)">y</text></g></g></g></svg>