<?xml version="1.0" encoding="UTF-8" standalone="no"?><svg xmlns="http://www.w3.org/2000/svg" xmlns:xlink="http://www.w3.org/1999/xlink" clip-rule="evenodd" stroke-miterlimit="4.00" viewBox="0 0 1024 768"><desc>SVG generated by Keynote</desc><defs></defs><g transform="matrix(1.00, 0.00, -0.00, -1.00, 0.0, 768.0)"><path d="M 0.0 768.0 L 1024.0 768.0 L 1024.0 0.0 L 0.0 0.0 Z M 0.0 768.0 " fill="#FEFFFF"></path><path d="M 0.0 0.0 L 394.5 0.0 L 397.0 0.0 " fill="none" stroke="#164E86" stroke-width="5.00" transform="matrix(1.00, 0.00, 0.00, -1.00, 522.6, 377.5)"></path><path d="M 917.1 367.3 L 937.5 377.5 L 917.1 387.7 Z M 917.1 367.3 " fill="#164E86"></path><path d="M 527.3 400.0 C 539.7 387.6 539.7 367.4 527.3 355.0 C 514.9 342.6 494.8 342.6 482.4 355.0 C 470.0 367.4 470.0 387.6 482.4 400.0 C 494.8 412.4 514.9 412.4 527.3 400.0 Z M 527.3 400.0 " fill="#51A7F9"></path><path d="M 54.2 9.3 C 66.6 21.7 66.6 41.8 54.2 54.2 C 41.8 66.6 21.7 66.6 9.3 54.2 C -3.1 41.8 -3.1 21.7 9.3 9.3 C 21.7 -3.1 41.8 -3.1 54.2 9.3 Z M 54.2 9.3 " fill="none" stroke="#164E86" stroke-width="5.00" transform="matrix(1.00, 0.00, 0.00, -1.00, 473.1, 409.3)"></path><g><clipPath id="clip-835"><path d="M 473.1 345.7 L 536.6 345.7 L 536.6 409.3 L 473.1 409.3 Z M 473.1 345.7 "></path></clipPath><g clip-path="url(#clip-835)"><text xml:space="preserve" font-family="Helvetica-Bold" font-weight="bold" font-size="24.0" fill="#FEFFFE" transform="matrix(1.00, 0.00, -0.00, -1.00, 488.0, 368.0)">O</text><text xml:space="preserve" font-family="Helvetica-Bold" font-weight="bold" font-size="24.0" fill="#FEFFFE" transform="matrix(1.00, 0.00, -0.00, -1.00, 506.7, 368.0)">p</text></g></g><path d="M 0.0 0.0 L 368.5 0.0 L 371.0 0.0 " fill="none" stroke="#164E86" stroke-width="5.00" transform="matrix(1.00, 0.00, 0.00, -1.00, 86.5, 377.5)"></path><path d="M 455.0 367.3 L 475.4 377.5 L 455.0 387.7 Z M 455.0 367.3 " fill="#164E86"></path><path d="M 350.0 363.6 L 350.0 391.3 C 350.0 399.6 356.7 406.3 365.0 406.3 L 389.3 406.3 C 397.6 406.3 404.3 399.6 404.3 391.3 L 404.3 363.6 C 404.3 355.3 397.6 348.6 389.3 348.6 L 365.0 348.6 C 356.7 348.6 350.0 355.3 350.0 363.6 Z M 350.0 363.6 " fill="#6FBF40"></path><path d="M 0.0 42.8 L 0.0 15.0 C 0.0 6.7 6.7 0.0 15.0 0.0 L 39.3 0.0 C 47.6 0.0 54.3 6.7 54.3 15.0 L 54.3 42.8 C 54.3 51.0 47.6 57.8 39.3 57.8 L 15.0 57.8 C 6.7 57.8 0.0 51.0 0.0 42.8 Z M 0.0 42.8 " fill="none" stroke="#0B5C18" stroke-width="5.00" transform="matrix(1.00, 0.00, 0.00, -1.00, 350.0, 406.3)"></path><g><clipPath id="clip-836"><path d="M 350.0 348.6 L 404.3 348.6 L 404.3 406.3 L 350.0 406.3 Z M 350.0 348.6 "></path></clipPath><g clip-path="url(#clip-836)"><text xml:space="preserve" font-family="Helvetica-Bold" font-weight="bold" font-size="24.0" fill="#FEFFFE" transform="matrix(1.00, 0.00, -0.00, -1.00, 370.0, 369.0)">x</text></g></g><path d="M 591.4 363.6 L 591.4 391.3 C 591.4 399.6 598.1 406.3 606.4 406.3 L 630.7 406.3 C 639.0 406.3 645.7 399.6 645.7 391.3 L 645.7 363.6 C 645.7 355.3 639.0 348.6 630.7 348.6 L 606.4 348.6 C 598.1 348.6 591.4 355.3 591.4 363.6 Z M 591.4 363.6 " fill="#B26AE1"></path><path d="M 0.0 42.8 L 0.0 15.0 C 0.0 6.7 6.7 0.0 15.0 0.0 L 39.3 0.0 C 47.6 0.0 54.3 6.7 54.3 15.0 L 54.3 42.8 C 54.3 51.0 47.6 57.8 39.3 57.8 L 15.0 57.8 C 6.7 57.8 0.0 51.0 0.0 42.8 Z M 0.0 42.8 " fill="none" stroke="#5E317B" stroke-width="5.00" transform="matrix(1.00, 0.00, 0.00, -1.00, 591.4, 406.3)"></path><g><clipPath id="clip-837"><path d="M 591.4 348.6 L 645.7 348.6 L 645.7 406.3 L 591.4 406.3 Z M 591.4 348.6 "></path></clipPath><g clip-path="url(#clip-837)"><text xml:space="preserve" font-family="Helvetica-Bold" font-weight="bold" font-size="24.0" fill="#FEFFFE" transform="matrix(1.00, 0.00, -0.00, -1.00, 612.0, 369.0)">y</text></g></g><text xml:space="preserve" font-family="Helvetica-Light" font-size="64.0" fill="#000000" transform="matrix(1.00, 0.00, -0.00, -1.00, 219.0, 604.0)">D</text><text xml:space="preserve" font-family="Helvetica-Light" font-size="64.0" fill="#000000" transform="matrix(1.00, 0.00, -0.00, -1.00, 265.2, 604.0)">i</text><text xml:space="preserve" font-family="Helvetica-Light" font-size="64.0" fill="#000000" transform="matrix(1.00, 0.00, -0.00, -1.00, 279.4, 604.0)">f</text><text xml:space="preserve" font-family="Helvetica-Light" font-size="64.0" fill="#000000" transform="matrix(1.00, 0.00, -0.00, -1.00, 296.1, 604.0)">f</text><text xml:space="preserve" font-family="Helvetica-Light" font-size="64.0" fill="#000000" transform="matrix(1.00, 0.00, -0.00, -1.00, 313.8, 604.0)">e</text><text xml:space="preserve" font-family="Helvetica-Light" font-size="64.0" fill="#000000" transform="matrix(1.00, 0.00, -0.00, -1.00, 349.4, 604.0)">r</text><text xml:space="preserve" font-family="Helvetica-Light" font-size="64.0" fill="#000000" transform="matrix(1.00, 0.00, -0.00, -1.00, 369.6, 604.0)">e</text><text xml:space="preserve" font-family="Helvetica-Light" font-size="64.0" fill="#000000" transform="matrix(1.00, 0.00, -0.00, -1.00, 405.2, 604.0)">n</text><text xml:space="preserve" font-family="Helvetica-Light" font-size="64.0" fill="#000000" transform="matrix(1.00, 0.00, -0.00, -1.00, 440.8, 604.0)">t</text><text xml:space="preserve" font-family="Helvetica-Light" font-size="64.0" fill="#000000" transform="matrix(1.00, 0.00, -0.00, -1.00, 458.6, 604.0)">i</text><text xml:space="preserve" font-family="Helvetica-Light" font-size="64.0" fill="#000000" transform="matrix(1.00, 0.00, -0.00, -1.00, 472.8, 604.0)">a</text><text xml:space="preserve" font-family="Helvetica-Light" font-size="64.0" fill="#000000" transform="matrix(1.00, 0.00, -0.00, -1.00, 508.3, 604.0)">l</text><text xml:space="preserve" font-family="Helvetica-Light" font-size="64.0" fill="#000000" transform="matrix(1.00, 0.00, -0.00, -1.00, 522.6, 604.0)"> </text><text xml:space="preserve" font-family="Helvetica-Light" font-size="64.0" fill="#000000" transform="matrix(1.00, 0.00, -0.00, -1.00, 540.3, 604.0)">D</text><text xml:space="preserve" font-family="Helvetica-Light" font-size="64.0" fill="#000000" transform="matrix(1.00, 0.00, -0.00, -1.00, 586.6, 604.0)">a</text><text xml:space="preserve" font-family="Helvetica-Light" font-size="64.0" fill="#000000" transform="matrix(1.00, 0.00, -0.00, -1.00, 622.1, 604.0)">t</text><text xml:space="preserve" font-family="Helvetica-Light" font-size="64.0" fill="#000000" transform="matrix(1.00, 0.00, -0.00, -1.00, 639.9, 604.0)">a</text><text xml:space="preserve" font-family="Helvetica-Light" font-size="64.0" fill="#000000" transform="matrix(1.00, 0.00, -0.00, -1.00, 675.5, 604.0)">ﬂ</text><text xml:space="preserve" font-family="Helvetica-Light" font-size="64.0" fill="#000000" transform="matrix(1.00, 0.00, -0.00, -1.00, 707.5, 604.0)">o</text><text xml:space="preserve" font-family="Helvetica-Light" font-size="64.0" fill="#000000" transform="matrix(1.00, 0.00, -0.00, -1.00, 743.1, 604.0)">w</text><path d="M 273.8 363.1 L 273.8 390.9 C 273.8 399.2 280.5 405.9 288.8 405.9 L 313.1 405.9 C 321.4 405.9 328.1 399.2 328.1 390.9 L 328.1 363.1 C 328.1 354.8 321.4 348.1 313.1 348.1 L 288.8 348.1 C 280.5 348.1 273.8 354.8 273.8 363.1 Z M 273.8 363.1 " fill="#6FBF40"></path><path d="M 0.0 42.8 L 0.0 15.0 C 0.0 6.7 6.7 0.0 15.0 0.0 L 39.3 0.0 C 47.6 0.0 54.3 6.7 54.3 15.0 L 54.3 42.8 C 54.3 51.0 47.6 57.8 39.3 57.8 L 15.0 57.8 C 6.7 57.8 0.0 51.0 0.0 42.8 Z M 0.0 42.8 " fill="none" stroke="#0B5C18" stroke-width="5.00" transform="matrix(1.00, 0.00, 0.00, -1.00, 273.8, 405.9)"></path><g><clipPath id="clip-838"><path d="M 273.8 348.1 L 328.1 348.1 L 328.1 405.9 L 273.8 405.9 Z M 273.8 348.1 "></path></clipPath><g clip-path="url(#clip-838)"><text xml:space="preserve" font-family="Helvetica-Bold" font-weight="bold" font-size="24.0" fill="#FEFFFE" transform="matrix(1.00, 0.00, -0.00, -1.00, 287.0, 368.0)">d</text><text xml:space="preserve" font-family="Helvetica-Bold" font-weight="bold" font-size="24.0" fill="#FEFFFE" transform="matrix(1.00, 0.00, -0.00, -1.00, 301.7, 368.0)">x</text></g></g><path d="M 671.4 363.6 L 671.4 391.3 C 671.4 399.6 678.1 406.3 686.4 406.3 L 710.7 406.3 C 719.0 406.3 725.7 399.6 725.7 391.3 L 725.7 363.6 C 725.7 355.3 719.0 348.6 710.7 348.6 L 686.4 348.6 C 678.1 348.6 671.4 355.3 671.4 363.6 Z M 671.4 363.6 " fill="#B26AE1"></path><path d="M 0.0 42.8 L 0.0 15.0 C 0.0 6.7 6.7 0.0 15.0 0.0 L 39.3 0.0 C 47.6 0.0 54.3 6.7 54.3 15.0 L 54.3 42.8 C 54.3 51.0 47.6 57.8 39.3 57.8 L 15.0 57.8 C 6.7 57.8 0.0 51.0 0.0 42.8 Z M 0.0 42.8 " fill="none" stroke="#5E317B" stroke-width="5.00" transform="matrix(1.00, 0.00, 0.00, -1.00, 671.4, 406.3)"></path><g><clipPath id="clip-839"><path d="M 671.4 348.6 L 725.7 348.6 L 725.7 406.3 L 671.4 406.3 Z M 671.4 348.6 "></path></clipPath><g clip-path="url(#clip-839)"><text xml:space="preserve" font-family="Helvetica-Bold" font-weight="bold" font-size="24.0" fill="#FEFFFE" transform="matrix(1.00, 0.00, -0.00, -1.00, 685.0, 369.0)">d</text><text xml:space="preserve" font-family="Helvetica-Bold" font-weight="bold" font-size="24.0" fill="#FEFFFE" transform="matrix(1.00, 0.00, -0.00, -1.00, 699.7, 369.0)">y</text></g></g><path d="M 198.6 374.1 C 198.4 373.8 198.7 373.1 198.5 372.8 M 198.6 374.1 C 199.7 373.3 199.8 372.0 200.0 370.3 C 200.0 368.4 198.9 370.3 198.5 370.1 C 198.1 367.6 198.8 367.6 200.0 368.0 C 199.2 367.0 200.7 364.2 199.2 364.8 C 199.2 368.8 198.8 361.9 198.0 365.3 C 197.7 365.7 197.3 364.7 197.3 364.3 C 196.7 365.4 196.0 363.5 195.6 365.3 C 194.6 365.6 195.0 365.2 194.3 366.4 C 194.2 366.9 194.5 366.7 194.7 366.6 C 195.8 366.8 194.1 368.0 194.8 368.9 C 193.4 369.8 195.1 370.7 195.7 369.9 C 195.5 370.7 194.0 371.7 195.0 372.6 C 194.3 373.1 194.8 375.4 195.7 374.0 C 196.3 373.0 196.7 374.1 197.0 374.3 C 197.3 373.9 196.9 372.5 197.2 372.3 C 197.4 372.8 197.9 374.5 197.9 372.6 C 198.4 373.2 198.7 372.3 198.6 374.1 C 198.6 374.1 198.6 374.1 198.6 374.1 Z M 199.4 367.3 C 199.8 367.3 199.4 367.9 199.4 367.3 C 199.4 367.3 199.4 367.3 199.4 367.3 Z M 194.3 371.9 C 194.7 371.9 194.3 372.5 194.3 371.9 C 194.3 371.9 194.3 371.9 194.3 371.9 Z M 194.7 366.9 C 195.1 366.9 194.7 367.6 194.7 366.9 C 194.7 366.9 194.7 366.9 194.7 366.9 Z M 199.2 369.0 C 198.8 370.1 198.6 368.1 199.0 368.0 C 198.9 368.2 199.5 368.8 199.2 369.0 C 199.2 369.0 199.2 369.0 199.2 369.0 Z M 197.0 369.2 C 197.1 369.3 197.1 369.7 196.8 369.7 C 196.7 369.4 196.8 369.1 197.0 369.2 C 197.0 369.2 197.0 369.2 197.0 369.2 Z M 198.5 363.9 C 198.6 364.0 198.7 364.4 198.3 364.4 C 198.2 364.1 198.4 363.8 198.5 363.9 C 198.5 363.9 198.5 363.9 198.5 363.9 Z M 198.1 370.3 C 198.1 370.5 197.7 370.6 197.7 370.3 C 197.9 370.2 197.9 369.4 198.1 370.3 C 198.1 370.3 198.1 370.3 198.1 370.3 Z M 199.4 371.9 C 199.2 372.8 198.7 371.0 198.8 371.0 C 199.1 370.7 199.7 371.4 199.4 371.9 C 199.4 371.9 199.4 371.9 199.4 371.9 Z M 197.6 370.8 C 197.4 371.5 197.3 370.5 197.6 370.8 C 197.6 370.8 197.6 370.8 197.6 370.8 Z M 195.7 364.6 C 195.5 365.4 195.4 364.3 195.7 364.6 C 195.7 364.6 195.7 364.6 195.7 364.6 Z M 194.5 368.5 C 194.3 369.3 194.2 368.2 194.5 368.5 C 194.5 368.5 194.5 368.5 194.5 368.5 Z M 198.4 367.1 C 198.4 365.8 199.4 366.9 198.4 367.1 C 198.4 367.1 198.4 367.1 198.4 367.1 Z M 199.5 374.0 C 199.5 372.7 200.5 373.8 199.5 374.0 C 199.5 374.0 199.5 374.0 199.5 374.0 Z M 199.2 362.1 C 199.3 363.1 201.3 359.5 199.5 360.6 C 198.2 360.8 199.1 358.1 199.9 359.1 C 200.3 358.4 200.4 358.5 200.1 357.8 C 201.0 358.1 202.2 356.9 202.2 356.1 C 201.8 355.3 201.4 357.0 201.3 355.7 C 202.6 353.7 200.5 355.4 200.3 353.9 C 200.4 353.8 200.8 354.1 200.8 353.7 C 200.1 353.1 198.6 353.9 198.5 352.9 C 198.3 353.3 196.2 354.6 197.4 354.3 C 198.3 354.5 195.3 355.9 196.7 356.4 C 195.8 356.8 196.4 357.8 195.4 358.2 C 195.0 358.8 195.8 359.0 196.0 358.9 C 196.7 359.1 194.3 359.2 195.3 360.3 C 194.9 360.4 194.7 362.9 195.5 361.1 C 195.3 361.6 194.8 364.4 196.2 363.0 C 196.9 361.1 197.5 364.9 197.7 362.8 C 197.9 361.3 197.7 361.0 198.3 362.2 C 198.2 362.5 198.2 364.2 198.9 362.8 C 198.7 362.5 198.9 361.9 199.2 362.1 C 199.2 362.1 199.2 362.1 199.2 362.1 Z M 197.3 362.2 C 197.3 361.3 197.8 362.2 197.3 362.2 C 197.3 362.2 197.3 362.2 197.3 362.2 Z M 195.1 358.0 C 195.4 357.0 195.6 358.1 195.1 358.0 C 195.1 358.0 195.1 358.0 195.1 358.0 Z M 200.1 359.8 C 199.8 359.3 201.2 359.6 200.1 359.8 C 200.1 359.8 200.1 359.8 200.1 359.8 Z M 195.7 360.0 C 195.7 359.9 195.8 360.2 195.9 360.4 C 195.8 360.4 195.7 360.1 195.7 360.0 C 195.7 360.0 195.7 360.0 195.7 360.0 Z M 200.5 358.6 C 200.4 357.3 201.6 358.8 200.5 358.6 C 200.5 358.6 200.5 358.6 200.5 358.6 Z M 200.6 355.9 C 199.5 355.0 201.5 355.0 200.6 355.9 C 200.6 355.9 200.6 355.9 200.6 355.9 Z M 197.0 356.0 C 197.1 356.4 196.7 356.1 197.0 356.0 C 197.0 356.0 197.0 356.0 197.0 356.0 Z M 195.0 362.4 C 195.3 362.7 194.8 362.7 195.0 362.4 C 195.0 362.4 195.0 362.4 195.0 362.4 Z M 198.0 354.4 C 198.4 354.8 197.5 354.8 198.0 354.4 C 198.0 354.4 198.0 354.4 198.0 354.4 Z M 199.6 359.4 C 200.3 360.8 197.7 360.1 199.6 359.4 C 199.6 359.4 199.6 359.4 199.6 359.4 Z M 199.3 361.3 C 199.4 362.1 198.6 361.0 198.8 360.7 C 198.9 360.8 199.2 361.2 199.3 361.3 C 199.3 361.3 199.3 361.3 199.3 361.3 Z M 199.9 358.3 C 200.1 359.2 199.4 358.8 199.9 358.3 C 199.9 358.3 199.9 358.3 199.9 358.3 Z M 199.9 360.2 C 199.7 360.5 199.8 359.9 199.9 360.2 C 199.9 360.2 199.9 360.2 199.9 360.2 Z M 201.6 357.5 C 201.3 357.8 201.6 357.2 201.6 357.5 C 201.6 357.5 201.6 357.5 201.6 357.5 Z M 199.7 362.3 C 199.5 362.6 199.6 362.0 199.7 362.3 C 199.7 362.3 199.7 362.3 199.7 362.3 Z M 200.8 357.4 C 200.4 357.1 198.9 357.4 200.7 356.3 C 201.2 356.2 201.4 357.2 200.8 357.4 C 200.8 357.4 200.8 357.4 200.8 357.4 Z M 198.5 377.4 C 200.1 372.5 197.4 373.7 196.9 373.5 C 196.2 372.8 195.7 373.5 195.2 374.4 C 193.5 375.5 196.9 376.0 195.3 376.7 C 193.0 378.0 197.2 378.2 194.8 378.7 C 194.2 378.5 194.7 380.4 194.9 380.3 C 193.7 381.2 195.8 382.6 196.0 382.6 C 195.7 383.2 193.5 383.3 195.1 385.2 C 195.7 386.7 193.6 387.4 195.0 387.0 C 193.4 388.1 195.5 387.8 195.0 388.9 C 194.1 389.6 196.4 388.9 194.6 390.3 C 196.0 390.9 193.3 389.5 194.9 393.8 C 194.7 391.7 196.3 395.6 195.2 394.9 C 194.0 393.7 196.0 396.8 196.3 398.8 C 197.0 399.1 199.2 400.3 197.8 400.7 C 197.6 403.2 199.7 401.7 199.3 403.2 C 199.3 404.0 200.4 403.4 200.6 403.7 C 200.4 404.9 201.3 405.0 203.3 406.5 C 207.7 409.6 205.1 404.7 206.9 405.1 C 207.3 404.7 206.5 400.9 206.3 403.4 C 206.3 402.7 202.2 403.0 205.0 401.8 C 203.4 401.9 205.9 401.3 203.2 400.5 C 204.3 404.2 200.0 398.2 202.9 400.0 C 202.9 399.2 202.1 398.3 202.3 399.3 C 201.2 400.6 201.5 396.9 200.7 399.2 C 199.8 397.0 198.6 398.3 199.5 397.2 C 201.3 395.8 199.0 397.5 199.2 396.2 C 198.2 393.7 201.4 395.1 199.4 393.9 C 200.0 391.2 198.3 393.5 198.0 392.5 C 196.4 392.4 199.1 389.8 199.3 391.8 C 198.5 390.8 200.1 391.6 199.1 390.3 C 197.7 391.3 200.6 388.6 199.5 389.0 C 199.1 387.8 198.2 388.4 198.2 388.0 C 198.2 386.2 199.6 386.8 198.5 386.4 C 198.0 386.0 199.8 385.2 199.4 384.9 C 199.3 386.8 197.9 383.4 198.6 383.2 C 198.7 384.4 200.5 382.7 199.4 382.0 C 196.3 382.9 200.2 380.4 199.1 379.5 C 197.4 380.3 198.9 375.6 199.7 377.4 C 199.5 377.2 198.5 377.4 198.5 377.4 M 199.1 384.4 C 199.0 385.9 198.8 382.8 199.1 384.4 M 199.6 384.4 C 199.0 385.0 200.0 382.9 199.8 384.4 C 199.7 384.5 199.6 384.3 199.6 384.4 M 199.6 390.6 C 199.1 390.4 199.9 389.7 199.6 390.6 M 198.6 391.7 C 198.1 392.7 198.4 390.5 198.6 391.7 M 204.2 402.0 C 201.7 403.3 204.1 400.1 204.2 402.0 M 200.1 395.6 C 199.4 394.4 201.3 395.7 200.1 395.6 M 199.4 395.4 C 198.8 394.9 199.9 395.1 199.4 395.4 M 202.5 400.5 C 202.6 400.6 202.6 400.6 202.5 400.5 C 202.5 400.5 202.5 400.5 202.5 400.5 Z M 205.2 402.7 C 205.3 402.7 205.3 402.7 205.2 402.7 C 205.2 402.7 205.2 402.7 205.2 402.7 Z M 200.3 397.9 C 200.3 396.6 201.4 399.4 200.3 397.9 C 200.3 397.9 200.3 397.9 200.3 397.9 Z M 201.4 404.8 C 201.3 404.8 201.3 404.8 201.4 404.8 C 201.4 404.8 201.4 404.8 201.4 404.8 Z M 197.9 383.2 C 197.9 383.2 197.9 383.2 197.9 383.2 C 197.9 383.2 197.9 383.2 197.9 383.2 Z M 198.9 378.6 C 198.6 378.7 199.2 377.8 198.9 378.6 C 198.9 378.6 198.9 378.6 198.9 378.6 Z M 196.0 374.8 C 195.9 374.8 195.9 374.8 196.0 374.8 C 196.0 374.8 196.0 374.8 196.0 374.8 Z M 196.6 381.7 C 196.5 381.6 196.5 381.6 196.6 381.7 C 196.6 381.7 196.6 381.7 196.6 381.7 Z M 198.5 382.3 C 199.9 381.6 198.1 384.1 198.5 382.3 C 198.5 382.3 198.5 382.3 198.5 382.3 Z M 196.4 398.1 C 197.0 397.9 196.7 399.3 196.4 398.1 C 196.4 398.1 196.4 398.1 196.4 398.1 Z M 198.0 391.9 C 198.3 392.1 197.9 392.6 198.0 391.9 C 198.0 391.9 198.0 391.9 198.0 391.9 Z M 199.9 389.4 C 200.2 389.6 199.8 390.1 199.9 389.4 C 199.9 389.4 199.9 389.4 199.9 389.4 Z M 199.3 378.7 C 199.4 378.8 199.4 378.8 199.3 378.7 C 199.3 378.7 199.3 378.7 199.3 378.7 Z M 198.2 380.3 C 199.5 379.2 197.5 382.1 198.2 380.3 C 198.2 380.3 198.2 380.3 198.2 380.3 Z M 197.8 378.4 C 197.3 379.0 198.1 376.9 197.8 378.4 M 195.8 379.5 C 196.4 380.9 193.4 378.2 195.8 379.5 C 195.8 379.5 195.8 379.5 195.8 379.5 Z M 195.3 386.6 C 195.2 386.7 195.2 386.7 195.3 386.6 C 195.3 386.6 195.3 386.6 195.3 386.6 Z M 199.2 385.9 C 199.1 387.1 198.8 385.1 199.2 385.9 C 199.2 385.9 199.2 385.9 199.2 385.9 Z M 199.5 375.1 C 199.4 376.4 199.1 374.3 199.5 375.1 C 199.5 375.1 199.5 375.1 199.5 375.1 Z M 196.6 390.8 C 196.8 392.8 195.9 389.5 196.6 390.8 C 196.6 390.8 196.6 390.8 196.6 390.8 Z M 199.6 397.6 C 199.6 397.6 199.6 397.6 199.6 397.6 C 199.6 397.6 199.6 397.6 199.6 397.6 Z M 200.6 398.4 C 200.6 398.4 200.6 398.4 200.6 398.4 C 200.6 398.4 200.6 398.4 200.6 398.4 Z M 203.2 403.2 C 203.2 403.3 203.2 403.3 203.2 403.2 C 203.2 403.2 203.2 403.2 203.2 403.2 Z M 201.8 398.9 C 201.8 399.0 201.8 399.0 201.8 398.9 C 201.8 398.9 201.8 398.9 201.8 398.9 Z M 203.8 401.6 C 203.8 401.7 203.8 401.7 203.8 401.6 C 203.8 401.6 203.8 401.6 203.8 401.6 Z M 204.2 400.4 C 204.2 400.5 204.2 400.5 204.2 400.4 C 204.2 400.4 204.2 400.4 204.2 400.4 Z M 195.0 396.2 C 195.0 396.3 195.0 396.3 195.0 396.2 C 195.0 396.2 195.0 396.2 195.0 396.2 Z M 199.7 380.9 C 199.6 381.0 199.6 381.0 199.7 380.9 C 199.7 380.9 199.7 380.9 199.7 380.9 Z M 203.3 401.8 C 203.3 401.9 203.3 401.9 203.3 401.8 C 203.3 401.8 203.3 401.8 203.3 401.8 Z M 197.8 394.8 C 196.7 395.1 199.0 393.6 197.9 395.0 C 197.8 395.0 197.9 394.7 197.8 394.8 M 196.3 396.6 C 196.3 396.5 196.3 396.5 196.3 396.6 C 196.3 396.6 196.3 396.6 196.3 396.6 Z M 194.8 391.7 C 194.8 391.7 194.8 391.7 194.8 391.7 C 194.8 391.7 194.8 391.7 194.8 391.7 Z M 201.6 398.3 C 202.1 397.9 201.7 399.3 201.5 398.2 M 202.0 404.8 C 202.2 404.2 202.7 405.9 201.9 404.7 M 199.0 373.7 C 198.5 373.6 199.3 372.9 199.0 373.7 M 194.2 390.7 C 193.7 390.5 194.5 389.9 194.2 390.7 M 195.7 392.9 C 196.3 392.7 195.3 394.2 195.7 392.7 M 199.6 402.5 C 199.7 402.6 199.7 402.6 199.6 402.5 C 199.6 402.5 199.6 402.5 199.6 402.5 Z M 199.0 387.8 C 199.0 387.8 199.0 387.8 199.0 387.8 C 199.0 387.8 199.0 387.8 199.0 387.8 Z M 197.8 393.2 C 198.6 392.3 197.4 394.2 197.8 393.2 M 197.5 386.2 C 198.6 385.1 197.2 387.9 197.5 386.2 M 204.0 406.4 C 203.4 404.6 204.5 407.5 204.0 406.4 M 201.5 400.2 C 201.8 398.5 201.4 401.2 201.5 400.2 M 198.5 388.9 C 199.2 388.8 198.1 390.1 198.5 388.9 M 199.1 376.5 C 199.3 375.4 199.7 378.0 199.1 376.5 M 197.7 400.0 C 197.7 400.1 197.7 400.1 197.7 400.0 C 197.7 400.0 197.7 400.0 197.7 400.0 Z M 194.2 380.2 C 194.1 380.3 194.1 380.3 194.2 380.2 C 194.2 380.2 194.2 380.2 194.2 380.2 Z M 207.2 403.2 C 207.2 403.2 207.2 403.2 207.2 403.2 C 207.2 403.2 207.2 403.2 207.2 403.2 Z M 200.6 400.0 C 200.5 400.1 200.5 400.1 200.6 400.0 C 200.6 400.0 200.6 400.0 200.6 400.0 Z M 205.6 402.2 C 205.6 402.3 205.6 402.3 205.6 402.2 C 205.6 402.2 205.6 402.2 205.6 402.2 Z M 197.9 397.4 C 197.9 397.4 197.9 397.4 197.9 397.4 C 197.9 397.4 197.9 397.4 197.9 397.4 Z M 200.7 395.5 C 200.7 395.6 200.7 395.6 200.7 395.5 C 200.7 395.5 200.7 395.5 200.7 395.5 Z M 198.6 392.4 C 198.6 392.4 198.6 392.4 198.6 392.4 C 198.6 392.4 198.6 392.4 198.6 392.4 Z M 201.1 397.0 C 202.2 398.7 199.7 396.6 201.1 397.0 C 201.1 397.0 201.1 397.0 201.1 397.0 Z M 196.7 394.4 C 196.7 394.4 196.7 394.4 196.7 394.4 C 196.7 394.4 196.7 394.4 196.7 394.4 Z M 199.0 393.6 C 200.1 394.8 197.5 394.6 199.0 393.6 M 199.6 387.1 C 200.1 387.5 198.8 387.3 199.6 387.1 M 195.2 384.3 C 195.2 384.3 195.2 384.3 195.2 384.3 C 195.2 384.3 195.2 384.3 195.2 384.3 Z M 195.6 385.1 C 195.5 385.1 195.5 385.1 195.6 385.1 C 195.6 385.1 195.6 385.1 195.6 385.1 Z M 199.7 385.4 C 199.7 385.4 199.7 385.4 199.7 385.4 C 199.7 385.4 199.7 385.4 199.7 385.4 Z M 194.3 385.2 C 194.3 385.2 194.3 385.2 194.3 385.2 C 194.3 385.2 194.3 385.2 194.3 385.2 Z M 200.4 394.8 C 200.4 394.9 200.4 394.9 200.4 394.8 C 200.4 394.8 200.4 394.8 200.4 394.8 Z M 206.6 402.2 C 206.6 402.3 206.6 402.3 206.6 402.2 C 206.6 402.2 206.6 402.2 206.6 402.2 Z M 195.7 376.9 C 195.6 377.0 195.6 377.0 195.7 376.9 C 195.7 376.9 195.7 376.9 195.7 376.9 Z M 199.5 396.3 C 199.5 396.4 199.5 396.4 199.5 396.3 C 199.5 396.3 199.5 396.3 199.5 396.3 Z M 195.4 382.6 C 195.4 382.6 195.4 382.6 195.4 382.6 C 195.4 382.6 195.4 382.6 195.4 382.6 Z M 199.6 395.6 C 199.5 395.6 199.5 395.6 199.6 395.6 C 199.6 395.6 199.6 395.6 199.6 395.6 Z M 197.3 399.8 C 197.3 399.8 197.3 399.8 197.3 399.8 C 197.3 399.8 197.3 399.8 197.3 399.8 Z M 198.4 402.7 C 198.4 402.7 198.4 402.7 198.4 402.7 C 198.4 402.7 198.4 402.7 198.4 402.7 Z M 199.2 398.5 C 199.2 398.5 199.2 398.5 199.2 398.5 C 199.2 398.5 199.2 398.5 199.2 398.5 Z M 196.8 381.7 C 198.0 376.8 197.4 385.6 196.8 381.7 M 199.3 399.3 C 197.8 396.3 201.9 400.9 199.3 399.3 C 199.8 399.4 199.4 399.3 199.3 399.3 M 208.3 403.0 C 206.8 403.8 206.2 404.8 206.4 406.2 C 206.8 407.1 207.6 404.7 207.0 406.7 C 205.3 406.5 206.9 409.9 207.6 407.3 C 209.9 407.6 207.6 409.1 209.2 408.3 C 211.9 408.5 210.8 409.1 212.5 408.9 C 213.5 407.5 213.5 409.7 214.0 408.3 C 213.1 409.8 215.8 407.9 215.9 408.6 C 214.3 409.5 222.0 408.6 217.8 408.1 C 219.5 407.4 219.2 408.7 219.8 408.9 C 220.5 408.0 222.5 409.5 223.6 408.7 C 223.4 408.5 222.9 408.4 222.7 408.1 C 222.4 407.6 223.9 408.3 223.7 408.2 C 224.4 407.9 227.2 407.0 224.2 408.6 C 224.1 409.3 226.6 408.2 226.5 408.9 C 229.1 408.9 227.2 407.4 228.3 408.5 C 230.1 408.5 231.4 408.5 231.4 408.4 C 232.5 408.5 232.7 409.4 233.7 408.6 C 235.9 410.1 235.3 405.5 236.1 408.6 C 236.8 407.9 237.6 409.8 237.4 408.0 C 236.6 408.9 241.9 408.8 239.5 407.8 C 240.0 407.2 243.8 408.5 242.6 406.9 C 243.2 405.2 242.2 404.2 240.0 403.4 C 240.5 404.4 237.7 402.8 239.6 404.3 C 241.4 404.5 236.5 405.4 237.5 404.6 C 237.6 402.4 235.0 406.1 233.9 404.5 C 234.8 405.4 230.4 405.8 231.7 404.1 C 230.8 404.0 230.7 404.8 229.8 403.8 C 232.4 404.0 228.7 405.6 228.9 404.5 C 229.4 403.9 225.4 403.4 225.8 404.3 C 227.2 406.7 224.8 403.9 224.1 404.8 C 221.9 405.3 224.5 402.8 222.8 404.5 C 222.4 404.2 219.5 404.2 221.3 403.7 C 222.0 404.0 219.6 406.3 219.3 404.3 C 222.4 403.2 215.8 403.7 216.8 404.3 C 221.6 405.4 211.8 405.5 215.5 404.4 C 213.4 403.4 216.1 404.0 213.5 404.5 C 213.8 405.1 211.8 405.7 212.3 404.5 C 211.9 402.6 211.2 407.0 210.2 404.3 C 210.1 403.1 207.3 404.4 208.6 403.5 C 208.7 403.4 208.4 403.0 208.3 403.0 M 209.0 403.5 C 208.6 403.8 208.7 402.8 209.0 403.5 M 208.6 403.8 C 208.6 403.7 208.6 403.7 208.6 403.8 C 208.6 403.8 208.6 403.8 208.6 403.8 Z M 213.1 404.6 C 213.1 404.5 213.1 404.5 213.1 404.6 C 213.1 404.6 213.1 404.6 213.1 404.6 Z M 217.1 409.3 C 217.1 409.2 217.1 409.2 217.1 409.3 C 217.1 409.3 217.1 409.3 217.1 409.3 Z M 216.5 404.7 C 216.4 404.7 216.4 404.7 216.5 404.7 C 216.5 404.7 216.5 404.7 216.5 404.7 Z M 211.3 404.8 C 211.3 404.8 211.3 404.8 211.3 404.8 C 211.3 404.8 211.3 404.8 211.3 404.8 Z M 216.2 404.0 C 216.4 404.7 215.0 403.4 216.2 403.9 C 216.3 403.9 216.1 403.9 216.2 404.0 M 220.6 403.7 C 220.6 403.8 220.6 403.8 220.6 403.7 M 230.3 409.3 C 230.4 409.3 230.4 409.3 230.3 409.3 M 231.1 403.6 C 231.2 403.7 231.2 403.7 231.1 403.6 M 225.0 404.4 C 226.3 404.3 225.3 404.8 225.0 404.4 M 234.7 404.0 C 233.0 403.6 236.5 403.6 234.7 404.0 M 236.3 403.6 C 236.5 403.7 236.5 403.7 236.3 403.6 M 228.7 403.9 C 228.6 403.9 228.6 403.9 228.7 403.9 C 228.7 403.9 228.7 403.9 228.7 403.9 Z M 224.4 404.1 C 222.6 403.7 226.2 403.5 224.4 404.1 M 213.7 403.9 C 214.7 403.5 213.7 404.8 213.7 403.9 M 211.7 404.3 C 211.7 404.3 211.7 404.3 211.7 404.3 C 211.7 404.3 211.7 404.3 211.7 404.3 Z M 232.0 404.0 C 231.9 404.0 231.9 404.0 232.0 404.0 C 232.0 404.0 232.0 404.0 232.0 404.0 Z M 233.9 403.9 C 233.9 403.9 233.9 403.9 233.9 403.9 C 233.9 403.9 233.9 403.9 233.9 403.9 Z M 237.4 409.0 C 237.3 409.1 237.3 409.1 237.4 409.0 C 237.4 409.0 237.4 409.0 237.4 409.0 Z M 213.2 406.4 C 211.9 406.1 214.5 404.7 214.3 406.0 C 214.4 406.5 213.3 406.3 213.2 406.4 M 223.1 405.7 C 223.5 407.5 221.8 403.3 223.1 405.7 M 236.6 404.8 C 237.8 406.9 235.0 403.3 236.6 404.8 M 238.9 404.2 C 239.7 404.4 234.7 405.0 238.1 404.0 C 238.4 403.6 238.7 404.0 238.9 404.2 M 220.7 404.5 C 221.0 405.5 218.6 404.1 220.7 404.5 M 228.8 407.5 C 229.4 406.9 231.1 406.3 230.4 407.4 C 230.3 408.8 228.0 408.0 228.8 407.5 M 209.1 404.5 C 210.4 403.2 208.8 405.8 209.1 404.5 M 214.0 405.0 C 214.0 404.9 214.0 404.9 214.0 405.0 C 214.0 405.0 214.0 405.0 214.0 405.0 Z M 216.0 404.7 C 216.1 404.9 216.1 404.9 216.0 404.7 M 210.1 403.3 C 210.1 403.4 210.1 403.4 210.1 403.3 M 228.7 405.9 C 228.8 406.0 228.8 406.0 228.7 405.9 M 224.6 404.8 C 226.6 406.4 223.5 405.1 224.6 404.8 M 219.8 407.8 C 220.4 408.5 218.5 407.9 219.8 407.8 M 227.9 404.2 C 229.3 405.7 225.9 405.6 227.9 404.2 M 223.6 404.7 C 223.7 404.7 223.7 404.7 223.6 404.7 C 223.6 404.7 223.6 404.7 223.6 404.7 Z M 229.3 407.7 C 229.3 407.7 229.3 407.7 229.3 407.7 C 229.3 407.7 229.3 407.7 229.3 407.7 Z M 229.9 407.6 C 229.8 407.6 229.8 407.6 229.9 407.6 C 229.9 407.6 229.9 407.6 229.9 407.6 Z M 229.6 404.1 C 229.5 404.1 229.5 404.1 229.6 404.1 C 229.6 404.1 229.6 404.1 229.6 404.1 Z M 211.5 408.3 C 213.1 408.5 210.2 408.5 211.5 408.3 C 211.5 408.3 211.5 408.3 211.5 408.3 Z M 217.8 404.0 C 220.1 405.2 216.2 405.1 217.8 404.0 C 217.8 404.0 217.8 404.0 217.8 404.0 Z M 220.4 405.9 C 220.4 406.0 220.4 406.0 220.4 405.9 C 220.4 405.9 220.4 405.9 220.4 405.9 Z M 227.0 403.3 C 227.0 403.4 227.0 403.4 227.0 403.3 C 227.0 403.3 227.0 403.3 227.0 403.3 Z M 212.3 408.5 C 212.3 408.6 212.3 408.6 212.3 408.5 C 212.3 408.5 212.3 408.5 212.3 408.5 Z M 233.6 404.9 C 233.6 404.9 233.6 404.9 233.6 404.9 C 233.6 404.9 233.6 404.9 233.6 404.9 Z M 225.5 407.9 C 226.0 407.3 225.6 408.3 225.5 407.9 C 225.5 407.9 225.5 407.9 225.5 407.9 Z M 227.6 407.9 C 227.7 407.9 227.7 407.9 227.6 407.9 C 227.6 407.9 227.6 407.9 227.6 407.9 Z M 236.8 403.5 C 236.8 403.5 236.8 403.5 236.8 403.5 C 236.8 403.5 236.8 403.5 236.8 403.5 Z M 232.9 409.3 C 233.0 409.3 233.0 409.3 232.9 409.3 C 232.9 409.3 232.9 409.3 232.9 409.3 Z M 234.7 407.6 C 234.7 407.6 234.7 407.6 234.7 407.6 C 234.7 407.6 234.7 407.6 234.7 407.6 Z M 229.2 404.4 C 231.3 404.1 228.7 405.1 229.2 404.4 C 229.2 404.4 229.2 404.4 229.2 404.4 Z M 240.1 406.6 C 240.2 406.7 240.2 406.7 240.1 406.6 C 240.1 406.6 240.1 406.6 240.1 406.6 Z M 240.6 404.4 C 240.6 404.5 240.6 404.5 240.6 404.4 C 240.6 404.4 240.6 404.4 240.6 404.4 Z M 240.6 403.2 C 240.7 403.3 240.7 403.3 240.6 403.2 C 240.6 403.2 240.6 403.2 240.6 403.2 Z M 215.9 406.9 C 215.9 406.8 215.9 406.8 215.9 406.9 C 215.9 406.9 215.9 406.9 215.9 406.9 Z M 215.1 403.6 C 215.1 403.6 215.1 403.6 215.1 403.6 C 215.1 403.6 215.1 403.6 215.1 403.6 Z M 218.0 403.5 C 217.9 403.4 217.9 403.4 218.0 403.5 C 218.0 403.5 218.0 403.5 218.0 403.5 Z M 215.4 408.9 C 215.4 408.9 215.4 408.9 215.4 408.9 C 215.4 408.9 215.4 408.9 215.4 408.9 Z M 226.1 406.1 C 226.0 406.0 226.0 406.0 226.1 406.1 C 226.1 406.1 226.1 406.1 226.1 406.1 Z M 227.1 407.4 C 227.0 407.4 227.0 407.4 227.1 407.4 C 227.1 407.4 227.1 407.4 227.1 407.4 Z M 224.6 409.2 C 224.6 409.2 224.6 409.2 224.6 409.2 C 224.6 409.2 224.6 409.2 224.6 409.2 Z M 227.8 408.6 C 227.8 408.6 227.8 408.6 227.8 408.6 C 227.8 408.6 227.8 408.6 227.8 408.6 Z M 207.8 407.7 C 207.8 407.8 207.8 407.8 207.8 407.7 C 207.8 407.7 207.8 407.7 207.8 407.7 Z M 208.2 405.2 C 208.1 405.3 208.1 405.3 208.2 405.2 C 208.2 405.2 208.2 405.2 208.2 405.2 Z M 226.4 404.3 C 226.9 403.7 227.4 405.0 226.4 404.3 M 222.3 404.6 C 222.3 404.6 222.3 404.6 222.3 404.6 C 222.3 404.6 222.3 404.6 222.3 404.6 Z M 233.2 404.4 C 233.7 405.4 231.3 403.9 233.2 404.4 C 233.2 404.4 233.2 404.4 233.2 404.4 Z M 231.1 408.6 C 231.1 408.6 231.1 408.6 231.1 408.6 C 231.1 408.6 231.1 408.6 231.1 408.6 Z M 232.1 408.1 C 232.2 408.2 232.2 408.2 232.1 408.1 C 232.1 408.1 232.1 408.1 232.1 408.1 Z M 237.9 405.3 C 238.1 405.4 238.1 405.4 237.9 405.3 M 221.8 403.7 C 222.4 404.1 222.3 404.1 221.8 403.7 M 234.6 404.4 C 234.5 404.4 234.5 404.4 234.6 404.4 C 234.6 404.4 234.6 404.4 234.6 404.4 Z M 239.1 404.6 C 239.0 404.6 239.0 404.6 239.1 404.6 C 239.1 404.6 239.1 404.6 239.1 404.6 Z M 218.9 404.4 C 219.1 405.6 218.5 405.3 218.9 404.4 M 211.0 404.7 C 211.0 404.8 211.0 404.8 211.0 404.7 C 211.0 404.7 211.0 404.7 211.0 404.7 Z M 243.7 401.6 C 241.5 401.6 242.4 403.1 242.5 403.1 C 241.5 400.8 241.3 404.8 241.8 405.1 C 241.9 405.4 245.8 408.6 245.7 405.4 C 245.9 404.9 246.6 405.4 246.9 405.2 C 249.2 403.3 244.7 405.4 247.2 403.1 C 247.8 403.0 249.0 405.0 249.2 402.4 C 249.5 402.5 251.6 401.0 250.2 401.2 C 251.7 400.8 251.1 399.5 251.4 398.4 C 252.3 397.8 252.8 399.8 252.7 396.1 C 254.8 395.1 251.9 394.0 253.9 392.7 C 254.0 391.7 250.9 390.2 252.6 392.4 C 252.4 392.1 250.9 393.2 251.4 390.7 C 251.8 391.0 255.1 392.4 253.5 388.5 C 253.6 387.8 252.8 386.3 253.1 386.0 C 253.5 388.0 254.6 383.2 253.6 383.7 C 254.3 380.6 252.8 382.4 253.9 380.1 C 253.9 378.3 252.4 380.7 253.3 378.4 C 253.1 376.7 253.9 377.9 253.9 378.0 C 254.0 376.5 253.4 376.0 253.5 375.5 C 253.6 375.1 254.3 374.4 253.5 374.1 C 252.0 372.5 250.6 373.9 249.1 373.2 C 248.4 374.4 250.2 373.7 249.1 374.5 C 250.0 375.1 249.0 374.6 249.2 377.8 C 249.5 377.7 250.1 377.0 250.2 377.7 C 250.1 379.0 247.6 378.1 249.4 380.1 C 249.9 377.7 250.1 383.5 250.7 381.3 C 251.0 384.1 250.5 382.1 249.9 384.1 C 251.5 384.0 248.1 384.3 249.4 385.0 C 248.7 385.2 249.0 388.4 250.1 386.1 C 250.5 389.4 249.5 387.3 248.7 388.5 C 248.6 390.0 251.4 388.6 249.3 389.6 C 248.4 391.5 250.3 389.6 248.7 391.1 C 250.2 390.4 248.7 392.4 250.3 392.0 C 250.3 395.2 248.8 391.4 249.5 393.7 C 249.7 393.1 247.6 392.9 248.7 394.5 C 251.2 394.5 246.1 395.4 249.5 395.5 C 249.1 399.9 248.2 395.8 247.1 397.6 C 246.8 398.0 248.3 397.6 248.1 398.0 C 246.2 400.4 246.9 397.7 247.2 399.9 C 245.7 402.5 245.7 399.7 244.6 400.5 C 245.1 401.1 244.9 402.9 243.7 401.6 M 246.1 400.6 C 246.2 399.8 246.8 400.7 246.1 400.6 M 241.1 403.1 C 241.4 402.4 241.6 403.5 241.1 403.1 M 247.2 398.5 C 247.2 397.5 248.0 398.7 247.2 398.5 M 250.1 382.2 C 250.1 383.5 249.7 381.7 250.1 382.2 M 243.0 402.0 C 243.3 401.1 243.6 402.7 243.0 402.0 M 242.7 403.7 C 242.8 403.7 242.8 403.7 242.7 403.7 M 248.8 380.5 C 248.8 380.4 248.8 380.4 248.8 380.5 M 248.8 385.3 C 248.8 384.2 249.1 385.8 248.8 385.3 M 254.1 385.4 C 254.2 384.4 254.5 386.0 254.1 385.4 M 248.7 377.9 C 248.3 376.9 249.3 377.6 248.7 377.9 M 249.9 375.2 C 249.4 374.3 250.4 374.6 249.9 375.2 M 247.1 402.3 C 247.1 402.4 247.1 402.4 247.1 402.3 C 247.1 402.3 247.1 402.3 247.1 402.3 Z M 252.6 395.1 C 251.8 396.1 253.5 393.8 252.6 395.1 M 248.8 395.6 C 250.0 395.4 248.3 396.7 248.8 395.6 C 248.8 395.6 248.8 395.6 248.8 395.6 Z M 248.7 397.1 C 248.8 397.1 248.8 397.1 248.7 397.1 C 248.7 397.1 248.7 397.1 248.7 397.1 Z M 250.0 392.8 C 250.0 392.8 250.0 392.8 250.0 392.8 C 250.0 392.8 250.0 392.8 250.0 392.8 Z M 249.9 393.7 C 250.1 394.1 249.6 394.2 249.9 393.7 C 249.9 393.7 249.9 393.7 249.9 393.7 Z M 253.6 386.7 C 253.8 387.1 253.4 387.2 253.6 386.7 C 253.6 386.7 253.6 386.7 253.6 386.7 Z M 250.0 395.2 C 251.0 395.6 249.1 395.7 250.0 395.2 C 250.0 395.2 250.0 395.2 250.0 395.2 Z M 253.1 390.1 C 252.8 389.7 254.1 389.2 253.1 390.1 M 249.0 379.5 C 248.7 379.0 250.0 378.6 249.0 379.5 M 248.7 389.9 C 248.4 389.5 249.7 389.0 248.7 389.9 M 246.1 399.9 C 246.2 399.9 246.2 399.9 246.1 399.9 M 253.0 397.3 C 252.9 396.4 253.6 397.1 253.0 397.3 M 246.0 405.8 C 246.4 405.0 246.6 406.0 246.0 405.8 M 254.0 381.0 C 253.7 381.0 254.2 379.9 254.0 381.0 M 250.4 388.7 C 250.5 387.8 251.1 386.9 251.1 388.8 C 250.8 388.9 250.7 388.3 250.4 388.7 C 250.4 388.7 250.4 388.7 250.4 388.7 Z M 252.9 385.4 C 253.0 385.3 253.0 385.3 252.9 385.4 M 249.4 387.1 C 249.5 387.0 249.5 387.0 249.4 387.1 M 249.5 381.7 C 249.7 381.6 249.7 381.6 249.5 381.7 M 249.2 381.1 C 249.2 381.1 249.2 381.1 249.2 381.1 C 249.2 381.1 249.2 381.1 249.2 381.1 Z M 248.8 375.2 C 248.8 375.2 248.8 375.2 248.8 375.2 C 248.8 375.2 248.8 375.2 248.8 375.2 Z M 249.6 383.4 C 249.7 383.5 249.7 383.5 249.6 383.4 C 249.6 383.4 249.6 383.4 249.6 383.4 Z M 253.8 378.6 C 253.9 378.6 253.9 378.6 253.8 378.6 C 253.8 378.6 253.8 378.6 253.8 378.6 Z M 253.2 379.2 C 253.2 379.2 253.2 379.2 253.2 379.2 C 253.2 379.2 253.2 379.2 253.2 379.2 Z M 244.1 401.4 C 244.1 400.4 245.5 402.7 244.1 401.4 M 253.2 376.6 C 253.9 375.8 253.3 378.0 253.2 376.6 C 253.2 376.6 253.2 376.6 253.2 376.6 Z M 250.6 384.1 C 250.7 384.0 250.7 384.0 250.6 384.1 M 249.3 380.7 C 249.4 380.7 249.4 380.7 249.3 380.7 M 247.8 395.3 C 248.0 395.3 248.0 395.3 247.8 395.3 M 249.5 376.6 C 249.8 374.1 251.1 377.7 249.5 376.6 M 248.4 396.6 C 248.3 396.6 248.3 396.6 248.4 396.6 M 251.5 391.9 C 251.5 390.1 252.1 392.5 251.5 391.9 M 250.2 387.6 C 250.2 387.6 250.2 387.6 250.2 387.6 C 250.2 387.6 250.2 387.6 250.2 387.6 Z M 250.2 390.1 C 250.3 391.3 249.9 390.4 250.2 390.1 C 250.2 390.1 250.2 390.1 250.2 390.1 Z M 245.5 401.5 C 246.6 400.7 244.6 402.8 245.5 401.5 C 245.5 401.5 245.5 401.5 245.5 401.5 Z M 252.0 377.7 C 252.1 377.8 252.1 377.8 252.0 377.7 C 252.0 377.7 252.0 377.7 252.0 377.7 Z M 248.9 383.7 C 249.2 384.5 248.6 384.1 248.9 383.7 C 248.9 383.7 248.9 383.7 248.9 383.7 Z M 248.8 374.3 C 249.0 375.0 248.4 374.7 248.8 374.3 C 248.8 374.3 248.8 374.3 248.8 374.3 Z M 244.0 402.4 C 249.2 401.0 238.2 405.9 244.0 402.4 C 244.0 402.4 244.0 402.4 244.0 402.4 Z M 249.4 389.1 C 249.5 389.1 249.5 389.1 249.4 389.1 C 249.4 389.1 249.4 389.1 249.4 389.1 Z M 246.8 397.9 C 246.9 398.0 246.9 398.0 246.8 397.9 C 246.8 397.9 246.8 397.9 246.8 397.9 Z M 246.8 399.7 C 246.8 399.8 246.8 399.8 246.8 399.7 C 246.8 399.7 246.8 399.7 246.8 399.7 Z M 250.4 401.9 C 250.5 402.0 250.5 402.0 250.4 401.9 C 250.4 401.9 250.4 401.9 250.4 401.9 Z M 249.2 400.2 C 249.3 400.4 249.3 400.4 249.2 400.2 C 249.2 400.2 249.2 400.2 249.2 400.2 Z M 247.2 403.6 C 247.2 403.7 247.2 403.7 247.2 403.6 C 247.2 403.6 247.2 403.6 247.2 403.6 Z M 247.7 404.0 C 247.7 404.0 247.7 404.0 247.7 404.0 C 247.7 404.0 247.7 404.0 247.7 404.0 Z M 250.5 380.7 C 250.6 380.8 250.6 380.8 250.5 380.7 C 250.5 380.7 250.5 380.7 250.5 380.7 Z M 252.3 382.7 C 251.6 381.4 253.2 383.1 252.3 382.7 C 252.3 382.7 252.3 382.7 252.3 382.7 Z M 251.0 394.7 C 251.1 393.5 251.4 395.6 251.0 394.7 C 251.0 394.7 251.0 394.7 251.0 394.7 Z M 253.6 393.7 C 253.6 393.7 253.6 393.7 253.6 393.7 C 253.6 393.7 253.6 393.7 253.6 393.7 Z M 246.0 399.1 C 246.0 399.2 246.0 399.2 246.0 399.1 C 246.0 399.1 246.0 399.1 246.0 399.1 Z M 245.2 400.9 C 245.8 401.6 244.5 401.0 245.2 400.9 M 248.8 392.2 C 248.9 392.2 248.9 392.2 248.8 392.2 C 248.8 392.2 248.8 392.2 248.8 392.2 Z M 250.3 385.1 C 250.3 385.1 250.3 385.1 250.3 385.1 C 250.3 385.1 250.3 385.1 250.3 385.1 Z M 249.7 377.9 C 249.8 377.9 249.8 377.9 249.7 377.9 C 249.7 377.9 249.7 377.9 249.7 377.9 Z M 249.0 387.9 C 249.1 387.9 249.1 387.9 249.0 387.9 C 249.0 387.9 249.0 387.9 249.0 387.9 Z M 249.8 391.3 C 249.9 391.3 249.9 391.3 249.8 391.3 C 249.8 391.3 249.8 391.3 249.8 391.3 Z M 251.0 376.3 C 251.0 376.4 251.0 376.4 251.0 376.3 C 251.0 376.3 251.0 376.3 251.0 376.3 Z M 248.8 387.0 C 248.9 387.1 248.9 387.1 248.8 387.0 C 248.8 387.0 248.8 387.0 248.8 387.0 Z M 251.7 385.0 C 251.8 385.0 251.8 385.0 251.7 385.0 C 251.7 385.0 251.7 385.0 251.7 385.0 Z M 244.5 399.8 C 244.5 399.9 244.5 399.9 244.5 399.8 C 244.5 399.8 244.5 399.8 244.5 399.8 Z M 249.8 376.3 C 249.8 376.3 249.8 376.3 249.8 376.3 C 249.8 376.3 249.8 376.3 249.8 376.3 Z M 249.0 375.8 C 249.0 375.8 249.0 375.8 249.0 375.8 C 249.0 375.8 249.0 375.8 249.0 375.8 Z M 253.2 380.9 C 252.7 383.5 253.0 378.6 252.1 380.5 C 251.8 376.8 253.3 380.4 253.2 380.9 C 253.2 380.9 253.2 380.9 253.2 380.9 Z M 248.6 372.4 C 249.8 373.8 251.0 373.8 252.3 373.2 C 252.9 372.5 250.5 372.5 252.5 372.5 C 252.9 374.1 255.6 371.8 253.0 371.8 C 252.6 369.7 254.6 371.5 253.6 370.2 C 253.3 367.9 254.1 369.1 253.9 367.4 C 252.5 366.3 254.7 366.3 253.3 365.9 C 254.8 366.8 252.9 364.0 253.6 364.0 C 254.5 365.6 253.0 357.1 253.0 361.8 C 252.1 360.0 253.3 360.2 253.4 359.5 C 252.3 358.9 253.0 356.1 251.6 355.5 C 251.6 355.7 251.8 356.3 251.6 356.6 C 251.2 357.1 251.1 355.4 251.1 355.5 C 250.5 355.0 248.1 352.9 251.2 354.9 C 251.9 354.6 249.4 352.9 249.9 352.6 C 248.1 350.3 248.5 353.0 248.4 351.4 C 246.9 349.9 245.7 349.2 245.6 349.3 C 244.6 348.5 244.7 347.7 243.4 347.9 C 241.8 345.5 241.0 350.2 240.8 347.0 C 239.9 347.5 239.7 345.4 239.4 347.3 C 240.4 346.6 235.2 345.4 237.4 346.9 C 236.8 347.4 233.9 344.9 234.3 346.9 C 233.3 348.3 233.4 349.7 235.7 351.1 C 235.4 350.0 238.0 352.2 236.4 350.3 C 234.4 349.7 239.6 350.0 238.5 350.5 C 237.9 352.7 241.4 349.7 241.6 351.6 C 241.2 350.5 244.9 351.9 243.1 352.8 C 243.6 353.3 244.2 352.7 244.2 353.9 C 242.6 352.5 246.0 353.2 245.2 353.8 C 244.5 354.1 246.2 356.8 246.8 355.9 C 248.0 353.6 246.9 356.8 248.0 356.9 C 249.4 358.3 246.1 357.5 248.2 358.0 C 248.1 358.5 249.0 360.7 248.0 359.4 C 248.0 358.8 250.9 360.3 249.0 360.9 C 247.4 358.5 248.7 364.1 249.3 363.1 C 250.2 358.8 250.5 368.1 249.4 364.4 C 248.4 366.5 249.0 363.7 249.5 366.4 C 250.1 366.0 250.7 368.1 249.5 367.6 C 247.6 368.0 252.0 368.3 249.4 369.9 C 248.3 370.2 250.2 373.1 249.0 372.0 C 248.8 371.9 248.6 372.3 248.6 372.4 M 248.9 371.5 C 249.3 371.8 248.3 372.0 248.9 371.5 M 249.3 371.8 C 249.2 371.9 249.2 371.9 249.3 371.8 C 249.3 371.8 249.3 371.8 249.3 371.8 Z M 249.6 366.8 C 249.5 366.8 249.5 366.8 249.6 366.8 C 249.6 366.8 249.6 366.8 249.6 366.8 Z M 254.3 362.5 C 254.2 362.6 254.2 362.6 254.3 362.5 C 254.3 362.5 254.3 362.5 254.3 362.5 Z M 249.7 363.4 C 249.7 363.4 249.7 363.4 249.7 363.4 C 249.7 363.4 249.7 363.4 249.7 363.4 Z M 249.9 368.6 C 249.8 368.6 249.8 368.6 249.9 368.6 C 249.9 368.6 249.9 368.6 249.9 368.6 Z M 249.0 363.7 C 249.7 363.4 248.4 364.9 248.9 363.6 C 248.9 363.6 248.9 363.8 249.0 363.7 M 248.2 360.0 C 248.2 360.0 248.2 360.0 248.2 360.0 M 247.1 349.3 C 247.1 349.2 247.1 349.2 247.1 349.3 M 243.2 353.4 C 243.2 353.3 243.2 353.3 243.2 353.4 M 247.3 356.5 C 246.5 355.5 247.4 356.0 247.3 356.5 M 240.8 351.8 C 242.0 352.7 239.2 351.6 240.8 351.8 M 239.4 351.8 C 239.3 351.7 239.3 351.7 239.4 351.8 M 244.9 354.5 C 244.9 354.4 244.9 354.4 244.9 354.5 C 244.9 354.5 244.9 354.5 244.9 354.5 Z M 247.3 357.0 C 247.7 358.5 245.9 356.1 247.3 357.0 M 248.9 366.2 C 248.5 365.2 249.8 366.2 248.9 366.2 M 249.3 368.2 C 249.3 368.2 249.3 368.2 249.3 368.2 C 249.3 368.2 249.3 368.2 249.3 368.2 Z M 242.8 352.8 C 242.9 352.8 242.9 352.8 242.8 352.8 C 242.8 352.8 242.8 352.8 242.8 352.8 Z M 241.3 352.1 C 241.4 352.2 241.4 352.2 241.3 352.1 C 241.3 352.1 241.3 352.1 241.3 352.1 Z M 239.7 346.2 C 239.8 346.2 239.8 346.2 239.7 346.2 C 239.7 346.2 239.7 346.2 239.7 346.2 Z M 251.4 366.7 C 251.1 368.0 249.7 365.3 251.0 365.6 C 251.5 365.5 251.3 366.5 251.4 366.7 M 249.2 357.2 C 250.7 356.2 247.6 359.4 249.2 357.2 M 239.4 350.6 C 238.8 348.2 240.6 352.4 239.4 350.6 M 237.0 350.6 C 236.3 350.1 241.4 350.8 237.8 351.0 C 237.5 351.3 237.3 350.8 237.0 350.6 M 249.0 359.7 C 249.8 359.1 249.1 361.6 249.0 359.7 M 247.3 351.7 C 246.3 351.8 244.7 351.2 245.9 350.8 C 246.8 349.7 248.2 351.9 247.3 351.7 M 249.9 371.1 C 248.3 370.0 251.2 371.1 249.9 371.1 M 250.0 365.9 C 249.9 365.9 249.9 365.9 250.0 365.9 C 250.0 365.9 250.0 365.9 250.0 365.9 Z M 249.7 363.9 C 249.9 363.8 249.9 363.8 249.7 363.9 M 248.5 370.2 C 248.6 370.1 248.6 370.1 248.5 370.2 M 246.2 353.0 C 246.2 352.8 246.2 352.8 246.2 353.0 M 247.8 356.5 C 248.2 354.2 248.5 357.1 247.8 356.5 M 252.3 359.7 C 252.9 358.9 252.7 361.0 252.3 359.7 M 245.6 354.7 C 245.9 352.8 247.7 354.9 245.6 354.7 M 248.1 357.3 C 248.0 357.2 248.0 357.2 248.1 357.3 C 248.1 357.3 248.1 357.3 248.1 357.3 Z M 247.0 351.3 C 247.0 351.3 247.0 351.3 247.0 351.3 C 247.0 351.3 247.0 351.3 247.0 351.3 Z M 246.4 350.9 C 246.5 350.9 246.5 350.9 246.4 350.9 C 246.4 350.9 246.4 350.9 246.4 350.9 Z M 244.5 353.8 C 244.5 353.8 244.5 353.8 244.5 353.8 C 244.5 353.8 244.5 353.8 244.5 353.8 Z M 253.3 368.3 C 253.4 366.9 253.6 369.4 253.3 368.3 C 253.3 368.3 253.3 368.3 253.3 368.3 Z M 248.9 362.3 C 249.9 360.2 250.2 363.6 248.9 362.3 C 248.9 362.3 248.9 362.3 248.9 362.3 Z M 250.3 359.6 C 250.4 359.5 250.4 359.5 250.3 359.6 C 250.3 359.6 250.3 359.6 250.3 359.6 Z M 245.4 355.8 C 245.5 355.8 245.5 355.8 245.4 355.8 C 245.4 355.8 245.4 355.8 245.4 355.8 Z M 253.5 367.6 C 253.6 367.6 253.6 367.6 253.5 367.6 C 253.5 367.6 253.5 367.6 253.5 367.6 Z M 242.0 351.4 C 242.0 351.3 242.0 351.3 242.0 351.4 C 242.0 351.4 242.0 351.4 242.0 351.4 Z M 249.8 354.1 C 249.1 354.0 250.2 353.7 249.8 354.1 C 249.8 354.1 249.8 354.1 249.8 354.1 Z M 248.4 352.3 C 248.4 352.3 248.4 352.3 248.4 352.3 C 248.4 352.3 248.4 352.3 248.4 352.3 Z M 238.9 351.8 C 238.9 351.8 238.9 351.8 238.9 351.8 C 238.9 351.8 238.9 351.8 238.9 351.8 Z M 244.5 347.7 C 244.5 347.6 244.5 347.6 244.5 347.7 C 244.5 347.7 244.5 347.7 244.5 347.7 Z M 242.0 348.5 C 242.1 348.4 242.1 348.4 242.0 348.5 C 242.0 348.5 242.0 348.5 242.0 348.5 Z M 244.9 353.8 C 243.4 352.8 245.7 353.5 244.9 353.8 C 244.9 353.8 244.9 353.8 244.9 353.8 Z M 236.5 347.9 C 236.4 347.8 236.4 347.8 236.5 347.9 C 236.5 347.9 236.5 347.9 236.5 347.9 Z M 235.4 349.9 C 235.3 349.8 235.3 349.8 235.4 349.9 C 235.4 349.9 235.4 349.9 235.4 349.9 Z M 234.9 351.0 C 234.8 350.9 234.8 350.9 234.9 351.0 C 234.9 351.0 234.9 351.0 234.9 351.0 Z M 251.9 363.9 C 251.8 364.0 251.8 364.0 251.9 363.9 C 251.9 363.9 251.9 363.9 251.9 363.9 Z M 248.6 364.8 C 248.6 364.8 248.6 364.8 248.6 364.8 C 248.6 364.8 248.6 364.8 248.6 364.8 Z M 248.4 362.2 C 248.4 362.2 248.4 362.2 248.4 362.2 C 248.4 362.2 248.4 362.2 248.4 362.2 Z M 253.9 364.4 C 253.9 364.5 253.9 364.5 253.9 364.4 C 253.9 364.4 253.9 364.4 253.9 364.4 Z M 248.1 354.7 C 248.0 354.7 248.0 354.7 248.1 354.7 C 248.1 354.7 248.1 354.7 248.1 354.7 Z M 248.5 353.1 C 248.5 353.1 248.5 353.1 248.5 353.1 C 248.5 353.1 248.5 353.1 248.5 353.1 Z M 251.5 354.2 C 251.5 354.2 251.5 354.2 251.5 354.2 C 251.5 354.2 251.5 354.2 251.5 354.2 Z M 248.7 351.7 C 248.7 351.7 248.7 351.7 248.7 351.7 C 248.7 351.7 248.7 351.7 248.7 351.7 Z M 253.3 371.6 C 253.3 371.6 253.3 371.6 253.3 371.6 C 253.3 371.6 253.3 371.6 253.3 371.6 Z M 250.8 371.8 C 250.9 371.8 250.9 371.8 250.8 371.8 C 250.8 371.8 250.8 371.8 250.8 371.8 Z M 246.5 355.6 C 245.8 355.6 246.5 354.5 246.5 355.6 M 248.5 358.3 C 248.6 358.3 248.6 358.3 248.5 358.3 C 248.5 358.3 248.5 358.3 248.5 358.3 Z M 242.1 351.9 C 242.1 350.8 243.3 353.1 242.1 351.9 C 242.1 351.9 242.1 351.9 242.1 351.9 Z M 246.0 349.4 C 246.0 349.3 246.0 349.3 246.0 349.4 C 246.0 349.4 246.0 349.4 246.0 349.4 Z M 244.8 349.1 C 244.8 349.0 244.8 349.0 244.8 349.1 C 244.8 349.1 244.8 349.1 244.8 349.1 Z M 238.3 349.7 C 238.2 349.6 238.2 349.6 238.3 349.7 M 247.8 359.1 C 248.1 358.5 248.0 358.6 247.8 359.1 M 241.0 351.4 C 241.1 351.4 241.1 351.4 241.0 351.4 C 241.0 351.4 241.0 351.4 241.0 351.4 Z M 237.0 350.1 C 237.1 350.1 237.1 350.1 237.0 350.1 C 237.0 350.1 237.0 350.1 237.0 350.1 Z M 249.2 361.2 C 250.3 360.9 250.1 361.4 249.2 361.2 M 249.8 369.0 C 249.9 369.0 249.9 369.0 249.8 369.0 C 249.8 369.0 249.8 369.0 249.8 369.0 Z M 230.6 351.0 C 232.8 352.3 232.8 350.4 232.8 350.4 C 232.6 352.9 234.8 349.4 234.4 348.9 C 234.4 348.5 232.7 344.1 231.2 346.8 C 230.8 347.1 230.5 346.3 230.2 346.3 C 227.5 346.4 232.1 347.7 228.8 347.7 C 228.2 347.3 228.9 345.2 226.9 346.6 C 226.9 346.4 224.7 345.7 225.5 346.6 C 224.5 345.6 223.8 346.8 222.8 347.1 C 221.9 346.5 223.5 345.5 220.4 346.7 C 219.0 344.9 218.5 348.0 217.3 346.1 C 216.5 346.0 215.3 349.2 217.1 347.4 C 216.9 347.6 218.0 349.1 215.5 348.6 C 215.9 348.2 217.3 344.9 213.3 346.5 C 212.7 346.4 211.1 347.2 210.7 346.9 C 212.9 346.4 207.2 346.1 208.0 346.9 C 204.3 347.1 206.9 347.8 204.1 348.1 C 202.2 349.0 205.3 348.9 202.7 349.6 C 201.2 350.8 201.9 349.4 202.0 349.3 C 200.6 350.2 200.5 351.1 200.1 351.5 C 199.7 351.6 198.7 351.7 199.0 352.6 C 199.0 354.9 201.1 354.6 201.9 356.0 C 203.1 355.6 201.4 354.9 202.6 355.1 C 202.3 354.1 202.5 354.9 204.5 353.2 C 204.4 353.1 203.4 353.0 203.9 352.5 C 204.9 351.9 205.4 354.4 206.2 352.1 C 204.1 352.6 208.7 350.1 206.5 350.5 C 208.8 349.2 207.3 350.2 209.2 350.4 C 208.8 348.8 209.7 352.1 210.1 350.7 C 210.4 351.4 213.2 350.8 211.0 350.0 C 214.1 349.3 212.2 350.5 213.4 351.3 C 214.9 351.4 213.5 348.6 214.4 350.7 C 216.4 351.6 214.5 349.7 216.0 351.3 C 215.3 349.8 217.4 351.3 216.9 349.7 C 220.3 349.6 216.5 351.4 218.8 350.3 C 218.1 350.2 218.4 352.3 219.9 351.0 C 219.2 348.5 221.8 353.2 220.7 349.9 C 225.4 349.0 221.5 351.2 224.1 351.2 C 224.8 351.2 223.4 350.2 224.0 350.1 C 227.3 350.6 224.5 351.5 226.3 349.9 C 229.6 349.5 227.2 351.2 228.9 351.3 C 229.0 350.6 230.3 349.3 230.6 351.0 M 227.7 350.2 C 227.0 350.7 227.2 349.7 227.7 350.2 M 234.3 351.0 C 233.6 351.5 233.9 350.4 234.3 351.0 M 224.9 350.7 C 224.0 351.2 224.7 349.8 224.9 350.7 M 207.6 350.7 C 208.6 350.3 207.2 351.2 207.6 350.7 M 231.7 351.1 C 230.7 351.7 231.4 350.2 231.7 351.1 M 232.9 349.8 C 232.8 349.8 232.8 349.8 232.9 349.8 M 206.7 352.5 C 206.6 352.5 206.6 352.5 206.7 352.5 M 210.4 351.4 C 209.6 351.4 210.8 351.0 210.4 351.4 M 209.9 346.0 C 208.7 346.1 210.6 345.6 209.9 346.0 M 204.9 353.6 C 204.5 354.4 204.4 353.3 204.9 353.6 M 202.4 354.2 C 202.2 355.1 201.7 354.2 202.4 354.2 M 228.3 348.3 C 228.3 348.3 228.3 348.3 228.3 348.3 C 228.3 348.3 228.3 348.3 228.3 348.3 Z M 219.5 347.0 C 220.6 347.5 218.2 346.3 219.5 347.0 M 221.1 350.5 C 220.4 349.4 222.5 350.6 221.1 350.5 C 221.1 350.5 221.1 350.5 221.1 350.5 Z M 222.7 350.0 C 222.7 350.0 222.7 350.0 222.7 350.0 C 222.7 350.0 222.7 350.0 222.7 350.0 Z M 217.7 350.0 C 217.8 349.9 217.8 349.9 217.7 350.0 C 217.7 350.0 217.7 350.0 217.7 350.0 Z M 218.7 349.9 C 219.1 349.6 219.3 350.1 218.7 349.9 C 218.7 349.9 218.7 349.9 218.7 349.9 Z M 211.4 346.4 C 211.9 346.2 212.1 346.6 211.4 346.4 C 211.4 346.4 211.4 346.4 211.4 346.4 Z M 220.3 349.5 C 220.4 348.4 221.0 350.2 220.3 349.5 C 220.3 349.5 220.3 349.5 220.3 349.5 Z M 215.0 346.9 C 214.5 347.2 214.1 345.9 215.0 346.9 M 205.9 352.7 C 205.7 353.1 204.7 352.1 205.9 352.7 M 214.8 351.3 C 214.4 351.6 213.9 350.3 214.8 351.3 M 227.1 350.7 C 227.0 350.6 227.0 350.6 227.1 350.7 M 221.3 346.0 C 220.6 346.4 220.9 345.5 221.3 346.0 M 231.2 346.3 C 230.5 346.7 230.8 345.8 231.2 346.3 M 204.9 347.5 C 205.0 347.8 203.7 347.9 204.9 347.5 M 213.6 349.6 C 212.7 349.5 211.7 348.9 213.6 348.9 C 213.8 349.2 213.2 349.3 213.6 349.6 C 213.6 349.6 213.6 349.6 213.6 349.6 Z M 210.0 347.2 C 209.9 347.1 209.9 347.1 210.0 347.2 M 212.0 350.6 C 211.8 350.5 211.8 350.5 212.0 350.6 M 207.3 351.4 C 207.2 351.3 207.2 351.3 207.3 351.4 M 206.9 351.9 C 206.9 351.8 206.9 351.8 206.9 351.9 C 206.9 351.9 206.9 351.9 206.9 351.9 Z M 203.2 355.0 C 203.2 354.9 203.2 354.9 203.2 355.0 C 203.2 355.0 203.2 355.0 203.2 355.0 Z M 208.7 350.8 C 208.7 350.7 208.7 350.7 208.7 350.8 C 208.7 350.8 208.7 350.8 208.7 350.8 Z M 202.6 349.0 C 202.6 349.0 202.6 349.0 202.6 349.0 C 202.6 349.0 202.6 349.0 202.6 349.0 Z M 203.5 349.2 C 203.5 349.2 203.5 349.2 203.5 349.2 C 203.5 349.2 203.5 349.2 203.5 349.2 Z M 230.2 351.0 C 229.3 351.8 229.7 349.1 230.2 351.0 M 201.2 350.8 C 200.1 350.8 202.2 349.8 201.2 350.8 C 201.2 350.8 201.2 350.8 201.2 350.8 Z M 209.1 349.8 C 209.0 349.6 209.0 349.6 209.1 349.8 M 206.6 351.9 C 206.5 351.8 206.5 351.8 206.6 351.9 M 221.2 351.5 C 221.1 351.4 221.1 351.4 221.2 351.5 M 203.6 353.6 C 201.8 354.8 203.3 351.8 203.6 353.6 M 222.3 350.5 C 222.4 350.6 222.4 350.6 222.3 350.5 M 216.7 348.5 C 215.0 348.5 217.3 347.8 216.7 348.5 M 212.4 349.8 C 212.5 349.8 212.5 349.8 212.4 349.8 C 212.4 349.8 212.4 349.8 212.4 349.8 Z M 214.9 349.8 C 216.1 349.7 215.2 350.1 214.9 349.8 C 214.9 349.8 214.9 349.8 214.9 349.8 Z M 229.0 350.0 C 227.4 349.8 230.6 349.6 229.0 350.0 C 229.0 350.0 229.0 350.0 229.0 350.0 Z M 202.8 351.0 C 202.8 350.9 202.8 350.9 202.8 351.0 C 202.8 351.0 202.8 351.0 202.8 351.0 Z M 209.1 351.5 C 209.7 351.0 209.5 351.7 209.1 351.5 C 209.1 351.5 209.1 351.5 209.1 351.5 Z M 202.8 355.5 C 202.9 354.9 203.2 355.5 202.8 355.5 C 202.8 355.5 202.8 355.5 202.8 355.5 Z M 230.9 350.2 C 225.1 348.4 238.6 350.6 230.9 350.2 C 230.9 350.2 230.9 350.2 230.9 350.2 Z M 213.9 350.6 C 214.0 350.5 214.0 350.5 213.9 350.6 C 213.9 350.6 213.9 350.6 213.9 350.6 Z M 224.6 351.3 C 224.6 351.3 224.6 351.3 224.6 351.3 C 224.6 351.3 224.6 351.3 224.6 351.3 Z M 226.4 350.3 C 226.5 350.3 226.5 350.3 226.4 350.3 C 226.4 350.3 226.4 350.3 226.4 350.3 Z M 225.9 346.1 C 226.0 346.0 226.0 346.0 225.9 346.1 C 225.9 346.1 225.9 346.1 225.9 346.1 Z M 225.3 348.0 C 225.4 347.9 225.4 347.9 225.3 348.0 C 225.3 348.0 225.3 348.0 225.3 348.0 Z M 229.0 347.3 C 229.1 347.2 229.1 347.2 229.0 347.3 C 229.0 347.3 229.0 347.3 229.0 347.3 Z M 229.0 346.7 C 229.0 346.7 229.0 346.7 229.0 346.7 C 229.0 346.7 229.0 346.7 229.0 346.7 Z M 206.1 350.8 C 206.1 350.7 206.1 350.7 206.1 350.8 C 206.1 350.8 206.1 350.8 206.1 350.8 Z M 207.3 348.4 C 206.1 349.5 207.4 347.4 207.3 348.4 C 207.3 348.4 207.3 348.4 207.3 348.4 Z M 219.5 348.6 C 218.3 348.8 220.3 348.0 219.5 348.6 C 219.5 348.6 219.5 348.6 219.5 348.6 Z M 218.2 346.3 C 218.2 346.3 218.2 346.3 218.2 346.3 C 218.2 346.3 218.2 346.3 218.2 346.3 Z M 226.4 351.3 C 226.5 351.2 226.5 351.2 226.4 351.3 C 226.4 351.3 226.4 351.3 226.4 351.3 Z M 228.7 350.6 C 228.8 349.7 229.4 351.1 228.7 350.6 M 217.2 351.1 C 217.2 351.0 217.2 351.0 217.2 351.1 C 217.2 351.1 217.2 351.1 217.2 351.1 Z M 210.1 349.9 C 210.1 349.8 210.1 349.8 210.1 349.9 C 210.1 349.9 210.1 349.9 210.1 349.9 Z M 204.4 352.8 C 204.3 352.7 204.3 352.7 204.4 352.8 C 204.4 352.8 204.4 352.8 204.4 352.8 Z M 212.7 351.0 C 212.8 350.9 212.8 350.9 212.7 351.0 C 212.7 351.0 212.7 351.0 212.7 351.0 Z M 216.2 350.2 C 216.2 350.1 216.2 350.1 216.2 350.2 C 216.2 350.2 216.2 350.2 216.2 350.2 Z M 202.4 352.7 C 202.4 352.6 202.4 352.6 202.4 352.7 C 202.4 352.7 202.4 352.7 202.4 352.7 Z M 211.9 351.2 C 212.0 351.1 212.0 351.1 211.9 351.2 C 211.9 351.2 211.9 351.2 211.9 351.2 Z M 209.7 348.5 C 209.8 348.4 209.8 348.4 209.7 348.5 C 209.7 348.5 209.7 348.5 209.7 348.5 Z M 228.4 351.9 C 228.4 351.9 228.4 351.9 228.4 351.9 C 228.4 351.9 228.4 351.9 228.4 351.9 Z M 203.2 353.6 C 203.2 353.6 203.2 353.6 203.2 353.6 C 203.2 353.6 203.2 353.6 203.2 353.6 Z M 203.5 354.5 C 203.4 354.4 203.4 354.4 203.5 354.5 C 203.5 354.5 203.5 354.5 203.5 354.5 Z M 205.1 348.3 C 207.9 347.6 203.1 349.5 205.2 349.5 C 202.0 351.4 204.6 348.5 205.1 348.3 C 205.1 348.3 205.1 348.3 205.1 348.3 Z M 205.1 348.3 " fill="#0B5C18"></path><path d="M 752.9 374.5 C 752.7 374.2 753.0 373.5 752.8 373.2 M 752.9 374.5 C 754.0 373.7 754.1 372.4 754.3 370.7 C 754.3 368.8 753.3 370.7 752.8 370.5 C 752.4 368.0 753.2 368.0 754.4 368.4 C 753.6 367.4 755.0 364.6 753.5 365.2 C 753.5 369.2 753.1 362.4 752.3 365.7 C 752.1 366.1 751.7 365.1 751.7 364.7 C 751.0 365.8 750.3 363.9 749.9 365.7 C 749.0 366.0 749.4 365.6 748.6 366.8 C 748.5 367.3 748.9 367.1 749.1 367.0 C 750.2 367.2 748.5 368.4 749.1 369.3 C 747.7 370.2 749.4 371.1 750.0 370.3 C 749.8 371.2 748.3 372.2 749.4 373.0 C 748.7 373.5 749.1 375.8 750.0 374.4 C 750.6 373.4 751.0 374.5 751.4 374.7 C 751.7 374.3 751.2 372.9 751.5 372.7 C 751.7 373.2 752.2 375.0 752.2 373.1 C 752.7 373.7 753.0 372.7 752.9 374.5 C 752.9 374.5 752.9 374.5 752.9 374.5 Z M 753.7 367.7 C 754.1 367.7 753.7 368.3 753.7 367.7 C 753.7 367.7 753.7 367.7 753.7 367.7 Z M 748.6 372.3 C 749.0 372.3 748.6 372.9 748.6 372.3 C 748.6 372.3 748.6 372.3 748.6 372.3 Z M 749.0 367.3 C 749.4 367.3 749.0 368.0 749.0 367.3 C 749.0 367.3 749.0 367.3 749.0 367.3 Z M 753.5 369.4 C 753.2 370.5 752.9 368.6 753.3 368.4 C 753.3 368.6 753.8 369.2 753.5 369.4 C 753.5 369.4 753.5 369.4 753.5 369.4 Z M 751.3 369.6 C 751.4 369.7 751.5 370.1 751.1 370.1 C 751.0 369.8 751.1 369.5 751.3 369.6 C 751.3 369.6 751.3 369.6 751.3 369.6 Z M 752.8 364.3 C 753.0 364.4 753.0 364.8 752.6 364.8 C 752.5 364.5 752.7 364.2 752.8 364.3 C 752.8 364.3 752.8 364.3 752.8 364.3 Z M 752.5 370.7 C 752.4 370.9 752.1 371.0 752.0 370.7 C 752.2 370.6 752.3 369.8 752.5 370.7 C 752.5 370.7 752.5 370.7 752.5 370.7 Z M 753.7 372.3 C 753.6 373.2 753.0 371.4 753.2 371.4 C 753.4 371.1 754.0 371.8 753.7 372.3 C 753.7 372.3 753.7 372.3 753.7 372.3 Z M 752.0 371.2 C 751.8 371.9 751.7 370.9 752.0 371.2 C 752.0 371.2 752.0 371.2 752.0 371.2 Z M 750.0 365.0 C 749.8 365.8 749.7 364.7 750.0 365.0 C 750.0 365.0 750.0 365.0 750.0 365.0 Z M 748.8 368.9 C 748.7 369.7 748.6 368.6 748.8 368.9 C 748.8 368.9 748.8 368.9 748.8 368.9 Z M 752.7 367.5 C 752.8 366.2 753.7 367.3 752.7 367.5 C 752.7 367.5 752.7 367.5 752.7 367.5 Z M 753.8 374.4 C 753.9 373.1 754.8 374.2 753.8 374.4 C 753.8 374.4 753.8 374.4 753.8 374.4 Z M 753.6 362.5 C 753.7 363.5 755.6 359.9 753.8 361.0 C 752.5 361.2 753.4 358.5 754.3 359.6 C 754.7 358.8 754.7 358.9 754.4 358.3 C 755.3 358.5 756.5 357.3 756.5 356.5 C 756.1 355.7 755.7 357.5 755.7 356.1 C 756.9 354.1 754.8 355.8 754.7 354.3 C 754.7 354.2 755.2 354.5 755.1 354.2 C 754.4 353.5 752.9 354.4 752.8 353.3 C 752.6 353.7 750.5 355.0 751.8 354.7 C 752.7 354.9 749.6 356.4 751.0 356.8 C 750.1 357.2 750.7 358.2 749.7 358.7 C 749.3 359.2 750.1 359.4 750.3 359.3 C 751.0 359.5 748.6 359.7 749.6 360.8 C 749.3 360.8 749.0 363.3 749.8 361.5 C 749.6 362.0 749.2 364.9 750.5 363.4 C 751.2 361.5 751.8 365.3 752.0 363.2 C 752.2 361.7 752.0 361.4 752.6 362.6 C 752.5 362.9 752.5 364.6 753.2 363.2 C 753.0 362.9 753.2 362.3 753.6 362.5 C 753.6 362.5 753.6 362.5 753.6 362.5 Z M 751.6 362.6 C 751.6 361.7 752.1 362.6 751.6 362.6 C 751.6 362.6 751.6 362.6 751.6 362.6 Z M 749.4 358.4 C 749.7 357.4 750.0 358.5 749.4 358.4 C 749.4 358.4 749.4 358.4 749.4 358.4 Z M 754.4 360.2 C 754.2 359.7 755.5 360.0 754.4 360.2 C 754.4 360.2 754.4 360.2 754.4 360.2 Z M 750.0 360.4 C 750.1 360.3 750.2 360.6 750.2 360.8 C 750.2 360.8 750.0 360.5 750.0 360.4 C 750.0 360.4 750.0 360.4 750.0 360.4 Z M 754.9 359.0 C 754.7 357.7 755.9 359.2 754.9 359.0 C 754.9 359.0 754.9 359.0 754.9 359.0 Z M 754.9 356.3 C 753.8 355.4 755.8 355.4 754.9 356.3 C 754.9 356.3 754.9 356.3 754.9 356.3 Z M 751.3 356.4 C 751.5 356.8 751.1 356.6 751.3 356.4 C 751.3 356.4 751.3 356.4 751.3 356.4 Z M 749.4 362.8 C 749.6 363.1 749.2 363.1 749.4 362.8 C 749.4 362.8 749.4 362.8 749.4 362.8 Z M 752.4 354.8 C 752.7 355.2 751.8 355.2 752.4 354.8 C 752.4 354.8 752.4 354.8 752.4 354.8 Z M 754.0 359.8 C 754.7 361.2 752.0 360.5 754.0 359.8 C 754.0 359.8 754.0 359.8 754.0 359.8 Z M 753.6 361.7 C 753.7 362.5 752.9 361.4 753.2 361.1 C 753.3 361.2 753.6 361.6 753.6 361.7 C 753.6 361.7 753.6 361.7 753.6 361.7 Z M 754.3 358.7 C 754.5 359.6 753.7 359.2 754.3 358.7 C 754.3 358.7 754.3 358.7 754.3 358.7 Z M 754.2 360.6 C 754.0 360.9 754.2 360.3 754.2 360.6 C 754.2 360.6 754.2 360.6 754.2 360.6 Z M 755.9 358.0 C 755.6 358.2 755.9 357.6 755.9 358.0 C 755.9 358.0 755.9 358.0 755.9 358.0 Z M 754.0 362.7 C 753.9 363.0 753.9 362.4 754.0 362.7 C 754.0 362.7 754.0 362.7 754.0 362.7 Z M 755.1 357.8 C 754.8 357.5 753.3 357.8 755.1 356.7 C 755.5 356.6 755.7 357.6 755.1 357.8 C 755.1 357.8 755.1 357.8 755.1 357.8 Z M 752.9 377.8 C 754.4 372.9 751.7 374.1 751.2 373.9 C 750.5 373.2 750.0 373.9 749.5 374.8 C 747.8 375.9 751.3 376.4 749.6 377.1 C 747.3 378.4 751.6 378.6 749.2 379.2 C 748.5 378.9 749.1 380.8 749.2 380.7 C 748.1 381.6 750.1 383.0 750.3 383.0 C 750.0 383.6 747.9 383.7 749.5 385.7 C 750.0 387.1 747.9 387.8 749.4 387.4 C 747.7 388.5 749.8 388.2 749.3 389.3 C 748.4 390.1 750.7 389.3 749.0 390.7 C 750.3 391.3 747.6 389.9 749.2 394.2 C 749.0 392.1 750.6 396.0 749.6 395.4 C 748.3 394.1 750.3 397.2 750.6 399.2 C 751.3 399.5 753.5 400.7 752.1 401.1 C 751.9 403.6 754.0 402.1 753.6 403.6 C 753.7 404.4 754.7 403.8 755.0 404.2 C 754.8 405.3 755.6 405.4 757.6 406.9 C 762.1 410.0 759.5 405.1 761.2 405.5 C 761.7 405.1 760.8 401.3 760.6 403.8 C 760.6 403.1 756.5 403.4 759.3 402.2 C 757.7 402.3 760.2 401.7 757.5 400.9 C 758.7 404.6 754.4 398.6 757.2 400.4 C 757.3 399.6 756.4 398.7 756.6 399.7 C 755.6 401.0 755.9 397.3 755.0 399.7 C 754.2 397.5 753.0 398.8 753.9 397.6 C 755.6 396.2 753.3 398.0 753.5 396.6 C 752.6 394.1 755.7 395.5 753.8 394.3 C 754.4 391.6 752.7 393.9 752.3 393.0 C 750.8 392.8 753.4 390.2 753.7 392.2 C 752.8 391.2 754.4 392.0 753.4 390.7 C 752.0 391.7 754.9 389.0 753.8 389.4 C 753.4 388.2 752.6 388.8 752.5 388.4 C 752.5 386.6 753.9 387.2 752.9 386.8 C 752.3 386.4 754.1 385.6 753.7 385.3 C 753.6 387.2 752.2 383.8 753.0 383.7 C 753.1 384.8 754.8 383.1 753.7 382.4 C 750.6 383.3 754.5 380.8 753.4 380.0 C 751.7 380.7 753.2 376.0 754.0 377.8 C 753.9 377.7 752.9 377.8 752.9 377.8 M 753.4 384.8 C 753.3 386.3 753.1 383.2 753.4 384.8 M 753.9 384.8 C 753.3 385.4 754.3 383.3 754.1 384.8 C 754.1 384.9 753.9 384.7 753.9 384.8 M 754.0 391.0 C 753.5 390.8 754.2 390.1 754.0 391.0 M 752.9 392.1 C 752.5 393.1 752.8 390.9 752.9 392.1 M 758.6 402.4 C 756.1 403.7 758.4 400.5 758.6 402.4 M 754.5 396.0 C 753.7 394.8 755.6 396.1 754.5 396.0 M 753.7 395.8 C 753.1 395.3 754.2 395.5 753.7 395.8 M 756.9 400.9 C 756.9 401.0 756.9 401.0 756.9 400.9 C 756.9 400.9 756.9 400.9 756.9 400.9 Z M 759.5 403.1 C 759.6 403.1 759.6 403.1 759.5 403.1 C 759.5 403.1 759.5 403.1 759.5 403.1 Z M 754.6 398.3 C 754.6 397.0 755.7 399.8 754.6 398.3 C 754.6 398.3 754.6 398.3 754.6 398.3 Z M 755.8 405.2 C 755.7 405.2 755.7 405.2 755.8 405.2 C 755.8 405.2 755.8 405.2 755.8 405.2 Z M 752.3 383.6 C 752.2 383.6 752.2 383.6 752.3 383.6 C 752.3 383.6 752.3 383.6 752.3 383.6 Z M 753.2 379.0 C 752.9 379.1 753.5 378.2 753.2 379.0 C 753.2 379.0 753.2 379.0 753.2 379.0 Z M 750.3 375.3 C 750.3 375.2 750.3 375.2 750.3 375.3 C 750.3 375.3 750.3 375.3 750.3 375.3 Z M 750.9 382.1 C 750.9 382.0 750.9 382.0 750.9 382.1 C 750.9 382.1 750.9 382.1 750.9 382.1 Z M 752.8 382.7 C 754.2 382.0 752.4 384.5 752.8 382.7 C 752.8 382.7 752.8 382.7 752.8 382.7 Z M 750.8 398.5 C 751.4 398.3 751.0 399.7 750.8 398.5 C 750.8 398.5 750.8 398.5 750.8 398.5 Z M 752.3 392.3 C 752.7 392.5 752.2 393.0 752.3 392.3 C 752.3 392.3 752.3 392.3 752.3 392.3 Z M 754.2 389.8 C 754.6 390.0 754.1 390.5 754.2 389.8 C 754.2 389.8 754.2 389.8 754.2 389.8 Z M 753.6 379.1 C 753.7 379.2 753.7 379.2 753.6 379.1 C 753.6 379.1 753.6 379.1 753.6 379.1 Z M 752.6 380.7 C 753.9 379.6 751.8 382.5 752.6 380.7 C 752.6 380.7 752.6 380.7 752.6 380.7 Z M 752.2 378.8 C 751.7 379.4 752.4 377.3 752.2 378.8 M 750.1 379.9 C 750.7 381.3 747.8 378.6 750.1 379.9 C 750.1 379.9 750.1 379.9 750.1 379.9 Z M 749.6 387.0 C 749.6 387.1 749.6 387.1 749.6 387.0 C 749.6 387.0 749.6 387.0 749.6 387.0 Z M 753.5 386.3 C 753.4 387.5 753.2 385.5 753.5 386.3 C 753.5 386.3 753.5 386.3 753.5 386.3 Z M 753.8 375.5 C 753.7 376.8 753.5 374.7 753.8 375.5 C 753.8 375.5 753.8 375.5 753.8 375.5 Z M 750.9 391.2 C 751.1 393.2 750.2 389.9 750.9 391.2 C 750.9 391.2 750.9 391.2 750.9 391.2 Z M 753.9 398.0 C 753.9 398.1 753.9 398.1 753.9 398.0 C 753.9 398.0 753.9 398.0 753.9 398.0 Z M 755.0 398.8 C 755.0 398.9 755.0 398.9 755.0 398.8 C 755.0 398.8 755.0 398.8 755.0 398.8 Z M 757.5 403.6 C 757.5 403.7 757.5 403.7 757.5 403.6 C 757.5 403.6 757.5 403.6 757.5 403.6 Z M 756.1 399.3 C 756.1 399.4 756.1 399.4 756.1 399.3 C 756.1 399.3 756.1 399.3 756.1 399.3 Z M 758.2 402.0 C 758.2 402.1 758.2 402.1 758.2 402.0 C 758.2 402.0 758.2 402.0 758.2 402.0 Z M 758.5 400.8 C 758.6 400.9 758.6 400.9 758.5 400.8 C 758.5 400.8 758.5 400.8 758.5 400.8 Z M 749.3 396.6 C 749.3 396.7 749.3 396.7 749.3 396.6 C 749.3 396.6 749.3 396.6 749.3 396.6 Z M 754.1 381.3 C 754.0 381.4 754.0 381.4 754.1 381.3 C 754.1 381.3 754.1 381.3 754.1 381.3 Z M 757.6 402.2 C 757.6 402.3 757.6 402.3 757.6 402.2 C 757.6 402.2 757.6 402.2 757.6 402.2 Z M 752.1 395.2 C 751.0 395.5 753.4 394.0 752.2 395.4 C 752.2 395.4 752.3 395.1 752.1 395.2 M 750.7 397.0 C 750.6 397.0 750.6 397.0 750.7 397.0 C 750.7 397.0 750.7 397.0 750.7 397.0 Z M 749.2 392.1 C 749.1 392.1 749.1 392.1 749.2 392.1 C 749.2 392.1 749.2 392.1 749.2 392.1 Z M 755.9 398.7 C 756.4 398.3 756.0 399.8 755.8 398.6 M 756.3 405.2 C 756.6 404.6 757.0 406.3 756.2 405.1 M 753.4 374.1 C 752.9 374.0 753.6 373.3 753.4 374.1 M 748.6 391.1 C 748.1 390.9 748.8 390.3 748.6 391.1 M 750.1 393.3 C 750.7 393.1 749.7 394.6 750.0 393.2 M 754.0 402.9 C 754.0 403.0 754.0 403.0 754.0 402.9 C 754.0 402.9 754.0 402.9 754.0 402.9 Z M 753.4 388.2 C 753.3 388.2 753.3 388.2 753.4 388.2 C 753.4 388.2 753.4 388.2 753.4 388.2 Z M 752.1 393.6 C 752.9 392.7 751.7 394.6 752.1 393.6 M 751.8 386.6 C 752.9 385.5 751.5 388.3 751.8 386.6 M 758.3 406.8 C 757.8 405.0 758.9 407.9 758.3 406.8 M 755.8 400.6 C 756.1 398.9 755.8 401.6 755.8 400.6 M 752.8 389.3 C 753.5 389.2 752.4 390.5 752.8 389.3 M 753.5 376.9 C 753.6 375.8 754.0 378.4 753.5 376.9 M 752.0 400.4 C 752.0 400.5 752.0 400.5 752.0 400.4 C 752.0 400.4 752.0 400.4 752.0 400.4 Z M 748.5 380.7 C 748.5 380.7 748.5 380.7 748.5 380.7 C 748.5 380.7 748.5 380.7 748.5 380.7 Z M 761.5 403.6 C 761.5 403.7 761.5 403.7 761.5 403.6 C 761.5 403.6 761.5 403.6 761.5 403.6 Z M 754.9 400.4 C 754.9 400.5 754.9 400.5 754.9 400.4 C 754.9 400.4 754.9 400.4 754.9 400.4 Z M 759.9 402.6 C 759.9 402.7 759.9 402.7 759.9 402.6 C 759.9 402.6 759.9 402.6 759.9 402.6 Z M 752.2 397.8 C 752.2 397.8 752.2 397.8 752.2 397.8 C 752.2 397.8 752.2 397.8 752.2 397.8 Z M 755.1 395.9 C 755.0 396.0 755.0 396.0 755.1 395.9 C 755.1 395.9 755.1 395.9 755.1 395.9 Z M 753.0 392.8 C 752.9 392.8 752.9 392.8 753.0 392.8 C 753.0 392.8 753.0 392.8 753.0 392.8 Z M 755.4 397.4 C 756.5 399.1 754.0 397.0 755.4 397.4 C 755.4 397.4 755.4 397.4 755.4 397.4 Z M 751.1 394.8 C 751.0 394.8 751.0 394.8 751.1 394.8 C 751.1 394.8 751.1 394.8 751.1 394.8 Z M 753.3 394.0 C 754.5 395.3 751.8 395.0 753.3 394.0 M 753.9 387.5 C 754.4 387.9 753.1 387.7 753.9 387.5 M 749.6 384.7 C 749.5 384.7 749.5 384.7 749.6 384.7 C 749.6 384.7 749.6 384.7 749.6 384.7 Z M 749.9 385.5 C 749.8 385.5 749.8 385.5 749.9 385.5 C 749.9 385.5 749.9 385.5 749.9 385.5 Z M 754.1 385.8 C 754.1 385.8 754.1 385.8 754.1 385.8 C 754.1 385.8 754.1 385.8 754.1 385.8 Z M 748.6 385.6 C 748.6 385.6 748.6 385.6 748.6 385.6 C 748.6 385.6 748.6 385.6 748.6 385.6 Z M 754.7 395.3 C 754.7 395.3 754.7 395.3 754.7 395.3 C 754.7 395.3 754.7 395.3 754.7 395.3 Z M 761.0 402.6 C 761.0 402.7 761.0 402.7 761.0 402.6 C 761.0 402.6 761.0 402.6 761.0 402.6 Z M 750.0 377.3 C 750.0 377.4 750.0 377.4 750.0 377.3 C 750.0 377.3 750.0 377.3 750.0 377.3 Z M 753.9 396.7 C 753.8 396.8 753.8 396.8 753.9 396.7 C 753.9 396.7 753.9 396.7 753.9 396.7 Z M 749.7 383.0 C 749.7 383.0 749.7 383.0 749.7 383.0 C 749.7 383.0 749.7 383.0 749.7 383.0 Z M 753.9 396.0 C 753.9 396.0 753.9 396.0 753.9 396.0 C 753.9 396.0 753.9 396.0 753.9 396.0 Z M 751.6 400.2 C 751.6 400.2 751.6 400.2 751.6 400.2 C 751.6 400.2 751.6 400.2 751.6 400.2 Z M 752.7 403.1 C 752.7 403.1 752.7 403.1 752.7 403.1 C 752.7 403.1 752.7 403.1 752.7 403.1 Z M 753.5 398.9 C 753.5 398.9 753.5 398.9 753.5 398.9 C 753.5 398.9 753.5 398.9 753.5 398.9 Z M 751.2 382.1 C 752.3 377.2 751.7 386.0 751.2 382.1 M 753.7 399.7 C 752.1 396.7 756.2 401.3 753.7 399.7 C 754.1 399.9 753.7 399.7 753.7 399.7 M 762.6 403.4 C 761.2 404.2 760.6 405.2 760.7 406.6 C 761.2 407.5 762.0 405.1 761.3 407.1 C 759.6 406.9 761.2 410.3 761.9 407.7 C 764.3 408.0 761.9 409.5 763.6 408.8 C 766.2 408.9 765.1 409.5 766.8 409.4 C 767.9 407.9 767.9 410.1 768.3 408.7 C 767.4 410.2 770.2 408.3 770.2 409.0 C 768.6 409.9 776.3 409.0 772.1 408.5 C 773.8 407.8 773.5 409.1 774.1 409.3 C 774.8 408.4 776.9 410.0 777.9 409.1 C 777.7 408.9 777.2 408.8 777.0 408.5 C 776.7 408.0 778.2 408.7 778.1 408.6 C 778.7 408.3 781.5 407.4 778.6 409.0 C 778.4 409.7 780.9 408.6 780.9 409.3 C 783.4 409.3 781.5 407.9 782.6 408.9 C 784.4 409.0 785.7 409.0 785.7 408.8 C 786.8 408.9 787.1 409.8 788.0 409.0 C 790.3 410.5 789.6 405.9 790.5 409.0 C 791.1 408.3 792.0 410.3 791.7 408.4 C 790.9 409.3 796.2 409.2 793.8 408.2 C 794.3 407.6 798.1 408.9 797.0 407.3 C 797.5 405.6 796.5 404.6 794.3 403.8 C 794.8 404.8 792.1 403.2 794.0 404.7 C 795.8 404.9 790.9 405.8 791.9 405.0 C 791.9 402.8 789.3 406.5 788.2 404.9 C 789.1 405.8 784.7 406.2 786.0 404.5 C 785.2 404.4 785.0 405.2 784.1 404.2 C 786.7 404.4 783.1 406.0 783.2 404.9 C 783.7 404.3 779.7 403.8 780.1 404.7 C 781.5 407.1 779.1 404.3 778.4 405.2 C 776.3 405.7 778.8 403.2 777.2 404.9 C 776.7 404.6 773.8 404.6 775.7 404.1 C 776.4 404.4 774.0 406.7 773.6 404.7 C 776.7 403.6 770.1 404.1 771.1 404.7 C 775.9 405.8 766.1 405.9 769.8 404.9 C 767.7 403.8 770.4 404.4 767.8 404.9 C 768.2 405.5 766.1 406.1 766.6 404.9 C 766.2 403.0 765.5 407.4 764.5 404.7 C 764.5 403.5 761.6 404.8 762.9 403.9 C 763.0 403.8 762.7 403.5 762.6 403.4 M 763.3 403.9 C 762.9 404.2 763.0 403.2 763.3 403.9 M 762.9 404.2 C 762.9 404.1 762.9 404.1 762.9 404.2 C 762.9 404.2 762.9 404.2 762.9 404.2 Z M 767.4 405.0 C 767.4 404.9 767.4 404.9 767.4 405.0 C 767.4 405.0 767.4 405.0 767.4 405.0 Z M 771.4 409.7 C 771.4 409.7 771.4 409.7 771.4 409.7 C 771.4 409.7 771.4 409.7 771.4 409.7 Z M 770.8 405.1 C 770.8 405.1 770.8 405.1 770.8 405.1 C 770.8 405.1 770.8 405.1 770.8 405.1 Z M 765.7 405.2 C 765.6 405.2 765.6 405.2 765.7 405.2 C 765.7 405.2 765.7 405.2 765.7 405.2 Z M 770.5 404.4 C 770.8 405.1 769.3 403.9 770.6 404.3 C 770.6 404.3 770.4 404.3 770.5 404.4 M 774.9 404.1 C 775.0 404.2 775.0 404.2 774.9 404.1 M 784.7 409.7 C 784.7 409.7 784.7 409.7 784.7 409.7 M 785.5 404.0 C 785.6 404.1 785.6 404.1 785.5 404.0 M 779.3 404.8 C 780.7 404.7 779.7 405.2 779.3 404.8 M 789.0 404.4 C 787.3 404.0 790.8 404.1 789.0 404.4 M 790.7 404.0 C 790.8 404.1 790.8 404.1 790.7 404.0 M 783.0 404.3 C 783.0 404.3 783.0 404.3 783.0 404.3 C 783.0 404.3 783.0 404.3 783.0 404.3 Z M 778.8 404.5 C 777.0 404.1 780.5 403.9 778.8 404.5 M 768.0 404.3 C 769.0 403.9 768.0 405.2 768.0 404.3 M 766.1 404.7 C 766.0 404.7 766.0 404.7 766.1 404.7 C 766.1 404.7 766.1 404.7 766.1 404.7 Z M 786.3 404.4 C 786.2 404.4 786.2 404.4 786.3 404.4 C 786.3 404.4 786.3 404.4 786.3 404.4 Z M 788.3 404.3 C 788.2 404.3 788.2 404.3 788.3 404.3 C 788.3 404.3 788.3 404.3 788.3 404.3 Z M 791.7 409.5 C 791.6 409.5 791.6 409.5 791.7 409.5 C 791.7 409.5 791.7 409.5 791.7 409.5 Z M 767.5 406.8 C 766.2 406.5 768.9 405.1 768.6 406.4 C 768.7 406.9 767.7 406.7 767.5 406.8 M 777.5 406.1 C 777.8 407.9 776.2 403.7 777.5 406.1 M 790.9 405.2 C 792.2 407.3 789.3 403.7 790.9 405.2 M 793.3 404.6 C 794.0 404.9 789.0 405.4 792.4 404.4 C 792.7 404.0 793.0 404.4 793.3 404.6 M 775.0 405.0 C 775.4 405.9 772.9 404.5 775.0 405.0 M 783.1 407.9 C 783.8 407.3 785.4 406.7 784.7 407.8 C 784.7 409.2 782.3 408.4 783.1 407.9 M 763.4 404.9 C 764.7 403.6 763.1 406.2 763.4 404.9 M 768.3 405.4 C 768.3 405.3 768.3 405.3 768.3 405.4 C 768.3 405.4 768.3 405.4 768.3 405.4 Z M 770.3 405.1 C 770.4 405.3 770.4 405.3 770.3 405.1 M 764.4 403.7 C 764.4 403.8 764.4 403.8 764.4 403.7 M 783.1 406.3 C 783.2 406.4 783.2 406.4 783.1 406.3 M 778.9 405.2 C 780.9 406.8 777.9 405.5 778.9 405.2 M 774.1 408.2 C 774.7 409.0 772.8 408.3 774.1 408.2 M 782.2 404.6 C 783.6 406.1 780.3 406.0 782.2 404.6 M 777.9 405.1 C 778.1 405.1 778.1 405.1 777.9 405.1 C 777.9 405.1 777.9 405.1 777.9 405.1 Z M 783.6 408.1 C 783.6 408.1 783.6 408.1 783.6 408.1 C 783.6 408.1 783.6 408.1 783.6 408.1 Z M 784.2 408.0 C 784.2 408.0 784.2 408.0 784.2 408.0 C 784.2 408.0 784.2 408.0 784.2 408.0 Z M 783.9 404.5 C 783.8 404.5 783.8 404.5 783.9 404.5 C 783.9 404.5 783.9 404.5 783.9 404.5 Z M 765.8 408.7 C 767.4 408.9 764.5 408.9 765.8 408.7 C 765.8 408.7 765.8 408.7 765.8 408.7 Z M 772.1 404.4 C 774.4 405.6 770.5 405.5 772.1 404.4 C 772.1 404.4 772.1 404.4 772.1 404.4 Z M 774.7 406.3 C 774.7 406.4 774.7 406.4 774.7 406.3 C 774.7 406.3 774.7 406.3 774.7 406.3 Z M 781.3 403.7 C 781.3 403.8 781.3 403.8 781.3 403.7 C 781.3 403.7 781.3 403.7 781.3 403.7 Z M 766.6 408.9 C 766.6 409.0 766.6 409.0 766.6 408.9 C 766.6 408.9 766.6 408.9 766.6 408.9 Z M 787.9 405.3 C 787.9 405.3 787.9 405.3 787.9 405.3 C 787.9 405.3 787.9 405.3 787.9 405.3 Z M 779.8 408.3 C 780.3 407.7 779.9 408.8 779.8 408.3 C 779.8 408.3 779.8 408.3 779.8 408.3 Z M 781.9 408.3 C 782.0 408.3 782.0 408.3 781.9 408.3 C 781.9 408.3 781.9 408.3 781.9 408.3 Z M 791.1 403.9 C 791.2 403.9 791.2 403.9 791.1 403.9 C 791.1 403.9 791.1 403.9 791.1 403.9 Z M 787.3 409.7 C 787.3 409.7 787.3 409.7 787.3 409.7 C 787.3 409.7 787.3 409.7 787.3 409.7 Z M 789.0 408.0 C 789.0 408.0 789.0 408.0 789.0 408.0 C 789.0 408.0 789.0 408.0 789.0 408.0 Z M 783.5 404.8 C 785.6 404.5 783.1 405.5 783.5 404.8 C 783.5 404.8 783.5 404.8 783.5 404.8 Z M 794.4 407.0 C 794.5 407.1 794.5 407.1 794.4 407.0 C 794.4 407.0 794.4 407.0 794.4 407.0 Z M 794.9 404.8 C 795.0 404.9 795.0 404.9 794.9 404.8 C 794.9 404.8 794.9 404.8 794.9 404.8 Z M 795.0 403.7 C 795.1 403.7 795.1 403.7 795.0 403.7 C 795.0 403.7 795.0 403.7 795.0 403.7 Z M 770.3 407.3 C 770.2 407.2 770.2 407.2 770.3 407.3 C 770.3 407.3 770.3 407.3 770.3 407.3 Z M 769.4 404.0 C 769.4 404.0 769.4 404.0 769.4 404.0 C 769.4 404.0 769.4 404.0 769.4 404.0 Z M 772.3 403.9 C 772.3 403.8 772.3 403.8 772.3 403.9 C 772.3 403.9 772.3 403.9 772.3 403.9 Z M 769.8 409.3 C 769.7 409.3 769.7 409.3 769.8 409.3 C 769.8 409.3 769.8 409.3 769.8 409.3 Z M 780.4 406.5 C 780.4 406.5 780.4 406.5 780.4 406.5 C 780.4 406.5 780.4 406.5 780.4 406.5 Z M 781.4 407.8 C 781.3 407.8 781.3 407.8 781.4 407.8 C 781.4 407.8 781.4 407.8 781.4 407.8 Z M 778.9 409.6 C 778.9 409.6 778.9 409.6 778.9 409.6 C 778.9 409.6 778.9 409.6 778.9 409.6 Z M 782.2 409.0 C 782.2 409.0 782.2 409.0 782.2 409.0 C 782.2 409.0 782.2 409.0 782.2 409.0 Z M 762.1 408.1 C 762.1 408.2 762.1 408.2 762.1 408.1 C 762.1 408.1 762.1 408.1 762.1 408.1 Z M 762.5 405.6 C 762.5 405.7 762.5 405.7 762.5 405.6 C 762.5 405.6 762.5 405.6 762.5 405.6 Z M 780.7 404.7 C 781.2 404.2 781.7 405.4 780.7 404.7 M 776.7 405.0 C 776.6 405.0 776.6 405.0 776.7 405.0 C 776.7 405.0 776.7 405.0 776.7 405.0 Z M 787.6 404.8 C 788.1 405.8 785.6 404.3 787.6 404.8 C 787.6 404.8 787.6 404.8 787.6 404.8 Z M 785.4 409.0 C 785.4 409.0 785.4 409.0 785.4 409.0 C 785.4 409.0 785.4 409.0 785.4 409.0 Z M 786.5 408.6 C 786.5 408.7 786.5 408.7 786.5 408.6 C 786.5 408.6 786.5 408.6 786.5 408.6 Z M 792.3 405.8 C 792.4 405.8 792.4 405.8 792.3 405.8 M 776.2 404.1 C 776.8 404.6 776.6 404.5 776.2 404.1 M 788.9 404.8 C 788.9 404.8 788.9 404.8 788.9 404.8 C 788.9 404.8 788.9 404.8 788.9 404.8 Z M 793.4 405.0 C 793.3 405.1 793.3 405.1 793.4 405.0 C 793.4 405.0 793.4 405.0 793.4 405.0 Z M 773.3 404.8 C 773.4 406.0 772.8 405.7 773.3 404.8 M 765.3 405.1 C 765.3 405.2 765.3 405.2 765.3 405.1 C 765.3 405.1 765.3 405.1 765.3 405.1 Z M 798.1 402.0 C 795.8 402.0 796.8 403.5 796.8 403.5 C 795.8 401.2 795.6 405.2 796.2 405.5 C 796.2 405.8 800.1 409.0 800.0 405.8 C 800.2 405.3 800.9 405.8 801.2 405.6 C 803.5 403.7 799.0 405.9 801.5 403.6 C 802.2 403.4 803.3 405.4 803.6 402.9 C 803.8 402.9 805.9 401.4 804.6 401.6 C 806.0 401.2 805.5 399.9 805.7 398.9 C 806.6 398.2 807.1 400.2 807.0 396.5 C 809.1 395.5 806.2 394.4 808.2 393.1 C 808.3 392.1 805.2 390.6 806.9 392.8 C 806.7 392.5 805.2 393.6 805.8 391.1 C 806.2 391.4 809.4 392.8 807.9 388.9 C 807.9 388.2 807.1 386.7 807.5 386.4 C 807.8 388.4 808.9 383.6 807.9 384.1 C 808.6 381.0 807.1 382.8 808.2 380.5 C 808.2 378.7 806.8 381.1 807.6 378.8 C 807.4 377.1 808.2 378.3 808.2 378.4 C 808.3 376.9 807.8 376.4 807.8 375.9 C 808.0 375.5 808.6 374.8 807.8 374.5 C 806.4 372.9 804.9 374.3 803.4 373.6 C 802.7 374.8 804.6 374.1 803.4 374.9 C 804.4 375.5 803.4 375.0 803.6 378.2 C 803.8 378.1 804.4 377.4 804.5 378.1 C 804.4 379.4 801.9 378.5 803.7 380.5 C 804.2 378.1 804.5 383.9 805.0 381.7 C 805.3 384.5 804.8 382.5 804.2 384.5 C 805.9 384.4 802.4 384.7 803.8 385.4 C 803.1 385.6 803.4 388.8 804.4 386.5 C 804.8 389.8 803.9 387.7 803.0 388.9 C 802.9 390.4 805.7 389.0 803.7 390.0 C 802.7 392.0 804.7 390.1 803.1 391.5 C 804.5 390.9 803.0 392.8 804.6 392.4 C 804.6 395.7 803.1 391.8 803.8 394.1 C 804.0 393.5 802.0 393.3 803.0 394.9 C 805.5 394.9 800.4 395.8 803.8 395.9 C 803.4 400.3 802.5 396.2 801.4 398.0 C 801.2 398.5 802.7 398.0 802.4 398.4 C 800.6 400.8 801.2 398.1 801.5 400.3 C 800.0 402.9 800.0 400.1 798.9 400.9 C 799.4 401.5 799.3 403.3 798.1 402.0 M 800.5 401.0 C 800.5 400.2 801.1 401.1 800.5 401.0 M 795.4 403.5 C 795.8 402.8 795.9 403.9 795.4 403.5 M 801.5 398.9 C 801.5 397.9 802.4 399.1 801.5 398.9 M 804.4 382.7 C 804.4 383.9 804.0 382.1 804.4 382.7 M 797.3 402.5 C 797.7 401.5 798.0 403.1 797.3 402.5 M 797.0 404.1 C 797.1 404.1 797.1 404.1 797.0 404.1 M 803.1 380.9 C 803.1 380.8 803.1 380.8 803.1 380.9 M 803.1 385.7 C 803.1 384.7 803.4 386.2 803.1 385.7 M 808.5 385.8 C 808.5 384.8 808.8 386.4 808.5 385.8 M 803.0 378.3 C 802.6 377.3 803.6 378.0 803.0 378.3 M 804.2 375.6 C 803.7 374.7 804.8 375.0 804.2 375.6 M 801.4 402.7 C 801.4 402.8 801.4 402.8 801.4 402.7 C 801.4 402.7 801.4 402.7 801.4 402.7 Z M 806.9 395.5 C 806.1 396.5 807.9 394.2 806.9 395.5 M 803.1 396.0 C 804.3 395.8 802.6 397.1 803.1 396.0 C 803.1 396.0 803.1 396.0 803.1 396.0 Z M 803.1 397.5 C 803.1 397.5 803.1 397.5 803.1 397.5 C 803.1 397.5 803.1 397.5 803.1 397.5 Z M 804.3 393.2 C 804.3 393.2 804.3 393.2 804.3 393.2 C 804.3 393.2 804.3 393.2 804.3 393.2 Z M 804.3 394.1 C 804.4 394.5 804.0 394.6 804.3 394.1 C 804.3 394.1 804.3 394.1 804.3 394.1 Z M 807.9 387.1 C 808.2 387.5 807.7 387.6 807.9 387.1 C 807.9 387.1 807.9 387.1 807.9 387.1 Z M 804.3 395.6 C 805.3 396.0 803.4 396.1 804.3 395.6 C 804.3 395.6 804.3 395.6 804.3 395.6 Z M 807.4 390.5 C 807.1 390.1 808.5 389.6 807.4 390.5 M 803.3 379.9 C 803.0 379.5 804.3 379.0 803.3 379.9 M 803.0 390.4 C 802.7 389.9 804.0 389.4 803.0 390.4 M 800.4 400.3 C 800.6 400.3 800.6 400.3 800.4 400.3 M 807.4 397.7 C 807.2 396.8 808.0 397.5 807.4 397.7 M 800.3 406.2 C 800.7 405.4 800.9 406.4 800.3 406.2 M 808.4 381.4 C 808.1 381.4 808.5 380.3 808.4 381.4 M 804.7 389.1 C 804.9 388.2 805.5 387.3 805.4 389.2 C 805.1 389.3 805.0 388.7 804.7 389.1 C 804.7 389.1 804.7 389.1 804.7 389.1 Z M 807.2 385.8 C 807.3 385.7 807.3 385.7 807.2 385.8 M 803.7 387.5 C 803.8 387.4 803.8 387.4 803.7 387.5 M 803.8 382.1 C 804.0 382.0 804.0 382.0 803.8 382.1 M 803.5 381.5 C 803.6 381.5 803.6 381.5 803.5 381.5 C 803.5 381.5 803.5 381.5 803.5 381.5 Z M 803.1 375.6 C 803.1 375.6 803.1 375.6 803.1 375.6 C 803.1 375.6 803.1 375.6 803.1 375.6 Z M 804.0 383.8 C 804.0 383.9 804.0 383.9 804.0 383.8 C 804.0 383.8 804.0 383.8 804.0 383.8 Z M 808.1 379.0 C 808.2 379.0 808.2 379.0 808.1 379.0 C 808.1 379.0 808.1 379.0 808.1 379.0 Z M 807.5 379.6 C 807.5 379.6 807.5 379.6 807.5 379.6 C 807.5 379.6 807.5 379.6 807.5 379.6 Z M 798.4 401.8 C 798.4 400.8 799.8 403.1 798.4 401.8 M 807.5 377.0 C 808.2 376.2 807.6 378.4 807.5 377.0 C 807.5 377.0 807.5 377.0 807.5 377.0 Z M 804.9 384.5 C 805.0 384.4 805.0 384.4 804.9 384.5 M 803.6 381.1 C 803.8 381.1 803.8 381.1 803.6 381.1 M 802.1 395.7 C 802.3 395.7 802.3 395.7 802.1 395.7 M 803.8 377.0 C 804.1 374.5 805.4 378.1 803.8 377.0 M 802.8 397.0 C 802.7 397.0 802.7 397.0 802.8 397.0 M 805.9 392.3 C 805.9 390.5 806.5 392.9 805.9 392.3 M 804.5 388.0 C 804.6 388.0 804.6 388.0 804.5 388.0 C 804.5 388.0 804.5 388.0 804.5 388.0 Z M 804.5 390.5 C 804.7 391.7 804.2 390.8 804.5 390.5 C 804.5 390.5 804.5 390.5 804.5 390.5 Z M 799.8 402.0 C 800.9 401.1 799.0 403.2 799.8 402.0 C 799.8 402.0 799.8 402.0 799.8 402.0 Z M 806.4 378.2 C 806.5 378.2 806.5 378.2 806.4 378.2 C 806.4 378.2 806.4 378.2 806.4 378.2 Z M 803.2 384.2 C 803.5 384.9 802.9 384.5 803.2 384.2 C 803.2 384.2 803.2 384.2 803.2 384.2 Z M 803.1 374.7 C 803.4 375.5 802.8 375.1 803.1 374.7 C 803.1 374.7 803.1 374.7 803.1 374.7 Z M 798.4 402.8 C 803.6 401.4 792.6 406.3 798.4 402.8 C 798.4 402.8 798.4 402.8 798.4 402.8 Z M 803.8 389.5 C 803.8 389.5 803.8 389.5 803.8 389.5 C 803.8 389.5 803.8 389.5 803.8 389.5 Z M 801.1 398.3 C 801.2 398.4 801.2 398.4 801.1 398.3 C 801.1 398.3 801.1 398.3 801.1 398.3 Z M 801.1 400.1 C 801.1 400.2 801.1 400.2 801.1 400.1 C 801.1 400.1 801.1 400.1 801.1 400.1 Z M 804.8 402.3 C 804.8 402.4 804.8 402.4 804.8 402.3 C 804.8 402.3 804.8 402.3 804.8 402.3 Z M 803.6 400.6 C 803.6 400.8 803.6 400.8 803.6 400.6 C 803.6 400.6 803.6 400.6 803.6 400.6 Z M 801.6 404.0 C 801.6 404.1 801.6 404.1 801.6 404.0 C 801.6 404.0 801.6 404.0 801.6 404.0 Z M 802.0 404.4 C 802.0 404.4 802.0 404.4 802.0 404.4 C 802.0 404.4 802.0 404.4 802.0 404.4 Z M 804.8 381.1 C 804.9 381.2 804.9 381.2 804.8 381.1 C 804.8 381.1 804.8 381.1 804.8 381.1 Z M 806.6 383.1 C 806.0 381.8 807.5 383.5 806.6 383.1 C 806.6 383.1 806.6 383.1 806.6 383.1 Z M 805.4 395.1 C 805.4 393.9 805.7 396.1 805.4 395.1 C 805.4 395.1 805.4 395.1 805.4 395.1 Z M 807.9 394.1 C 807.9 394.1 807.9 394.1 807.9 394.1 C 807.9 394.1 807.9 394.1 807.9 394.1 Z M 800.3 399.5 C 800.3 399.6 800.3 399.6 800.3 399.5 C 800.3 399.5 800.3 399.5 800.3 399.5 Z M 799.5 401.3 C 800.1 402.0 798.8 401.4 799.5 401.3 M 803.2 392.6 C 803.3 392.7 803.3 392.7 803.2 392.6 C 803.2 392.6 803.2 392.6 803.2 392.6 Z M 804.6 385.5 C 804.7 385.5 804.7 385.5 804.6 385.5 C 804.6 385.5 804.6 385.5 804.6 385.5 Z M 804.0 378.3 C 804.1 378.4 804.1 378.4 804.0 378.3 C 804.0 378.3 804.0 378.3 804.0 378.3 Z M 803.3 388.3 C 803.4 388.3 803.4 388.3 803.3 388.3 C 803.3 388.3 803.3 388.3 803.3 388.3 Z M 804.1 391.7 C 804.2 391.7 804.2 391.7 804.1 391.7 C 804.1 391.7 804.1 391.7 804.1 391.7 Z M 805.3 376.7 C 805.3 376.8 805.3 376.8 805.3 376.7 C 805.3 376.7 805.3 376.7 805.3 376.7 Z M 803.2 387.5 C 803.2 387.5 803.2 387.5 803.2 387.5 C 803.2 387.5 803.2 387.5 803.2 387.5 Z M 806.0 385.4 C 806.1 385.4 806.1 385.4 806.0 385.4 C 806.0 385.4 806.0 385.4 806.0 385.4 Z M 798.9 400.2 C 798.9 400.3 798.9 400.3 798.9 400.2 C 798.9 400.2 798.9 400.2 798.9 400.2 Z M 804.1 376.7 C 804.1 376.7 804.1 376.7 804.1 376.7 C 804.1 376.7 804.1 376.7 804.1 376.7 Z M 803.3 376.2 C 803.3 376.2 803.3 376.2 803.3 376.2 C 803.3 376.2 803.3 376.2 803.3 376.2 Z M 807.6 381.3 C 807.1 383.9 807.4 379.0 806.4 380.9 C 806.1 377.2 807.6 380.8 807.6 381.3 C 807.6 381.3 807.6 381.3 807.6 381.3 Z M 803.0 372.8 C 804.2 374.2 805.3 374.2 806.6 373.6 C 807.2 372.9 804.8 372.9 806.8 372.9 C 807.2 374.5 809.9 372.2 807.3 372.2 C 806.9 370.1 809.0 371.9 807.9 370.6 C 807.7 368.4 808.5 369.5 808.3 367.8 C 806.8 366.8 809.0 366.8 807.6 366.3 C 809.1 367.2 807.2 364.4 807.9 364.4 C 808.8 366.0 807.3 357.5 807.4 362.2 C 806.5 360.4 807.7 360.6 807.7 359.9 C 806.6 359.3 807.3 356.5 806.0 355.9 C 805.9 356.2 806.1 356.7 805.9 357.0 C 805.5 357.5 805.4 355.8 805.5 355.9 C 804.8 355.4 802.5 353.3 805.5 355.3 C 806.2 355.1 803.7 353.3 804.3 353.0 C 802.5 350.7 802.8 353.4 802.7 351.8 C 801.3 350.3 800.0 349.6 799.9 349.7 C 799.0 348.9 799.1 348.1 797.7 348.4 C 796.1 345.9 795.3 350.6 795.2 347.4 C 794.3 347.9 794.0 345.8 793.8 347.7 C 794.8 347.0 789.5 345.8 791.7 347.4 C 791.1 347.8 788.2 345.4 788.6 347.3 C 787.6 348.7 787.8 350.1 790.0 351.5 C 789.7 350.4 792.3 352.6 790.7 350.7 C 788.8 350.1 794.0 350.4 792.8 350.9 C 792.2 353.1 795.7 350.2 795.9 352.0 C 795.6 350.9 799.2 352.3 797.4 353.2 C 797.9 353.7 798.6 353.1 798.5 354.4 C 796.9 352.9 800.3 353.6 799.5 354.3 C 798.8 354.5 800.6 357.2 801.1 356.3 C 802.3 354.0 801.2 357.2 802.3 357.3 C 803.7 358.7 800.4 357.9 802.6 358.4 C 802.5 358.9 803.3 361.1 802.3 359.9 C 802.4 359.2 805.2 360.7 803.3 361.3 C 801.7 358.9 803.0 364.5 803.6 363.5 C 804.5 359.2 804.9 368.5 803.8 364.8 C 802.7 366.9 803.3 364.2 803.8 366.8 C 804.4 366.4 805.0 368.5 803.8 368.0 C 801.9 368.4 806.3 368.7 803.7 370.3 C 802.6 370.6 804.5 373.5 803.3 372.4 C 803.2 372.3 803.0 372.7 803.0 372.8 M 803.2 371.9 C 803.6 372.2 802.7 372.4 803.2 371.9 M 803.6 372.3 C 803.6 372.3 803.6 372.3 803.6 372.3 C 803.6 372.3 803.6 372.3 803.6 372.3 Z M 803.9 367.2 C 803.8 367.2 803.8 367.2 803.9 367.2 C 803.9 367.2 803.9 367.2 803.9 367.2 Z M 808.6 362.9 C 808.5 363.0 808.5 363.0 808.6 362.9 C 808.6 362.9 808.6 362.9 808.6 362.9 Z M 804.0 363.8 C 804.0 363.8 804.0 363.8 804.0 363.8 C 804.0 363.8 804.0 363.8 804.0 363.8 Z M 804.2 369.0 C 804.2 369.0 804.2 369.0 804.2 369.0 C 804.2 369.0 804.2 369.0 804.2 369.0 Z M 803.3 364.1 C 804.0 363.8 802.8 365.3 803.2 364.0 C 803.2 364.0 803.2 364.2 803.3 364.1 M 802.5 360.4 C 802.6 360.4 802.6 360.4 802.5 360.4 M 801.4 349.7 C 801.4 349.6 801.4 349.6 801.4 349.7 M 797.5 353.8 C 797.5 353.7 797.5 353.7 797.5 353.8 M 801.6 356.9 C 800.9 355.9 801.7 356.4 801.6 356.9 M 795.1 352.2 C 796.3 353.1 793.6 352.0 795.1 352.2 M 793.7 352.2 C 793.6 352.1 793.6 352.1 793.7 352.2 M 799.2 354.9 C 799.3 354.8 799.3 354.8 799.2 354.9 C 799.2 354.9 799.2 354.9 799.2 354.9 Z M 801.6 357.4 C 802.0 358.9 800.3 356.5 801.6 357.4 M 803.2 366.6 C 802.9 365.6 804.1 366.6 803.2 366.6 M 803.6 368.6 C 803.6 368.6 803.6 368.6 803.6 368.6 C 803.6 368.6 803.6 368.6 803.6 368.6 Z M 797.1 353.2 C 797.2 353.2 797.2 353.2 797.1 353.2 C 797.1 353.2 797.1 353.2 797.1 353.2 Z M 795.7 352.6 C 795.7 352.6 795.7 352.6 795.7 352.6 C 795.7 352.6 795.7 352.6 795.7 352.6 Z M 794.1 346.6 C 794.1 346.6 794.1 346.6 794.1 346.6 C 794.1 346.6 794.1 346.6 794.1 346.6 Z M 805.8 367.1 C 805.4 368.4 804.1 365.8 805.3 366.0 C 805.9 365.9 805.6 366.9 805.8 367.1 M 803.5 357.6 C 805.0 356.6 801.9 359.8 803.5 357.6 M 793.8 351.0 C 793.1 348.7 794.9 352.8 793.8 351.0 M 791.4 351.0 C 790.7 350.6 795.7 351.2 792.2 351.4 C 791.8 351.7 791.6 351.2 791.4 351.0 M 803.3 360.1 C 804.1 359.5 803.4 362.0 803.3 360.1 M 801.6 352.1 C 800.7 352.2 799.0 351.6 800.3 351.2 C 801.1 350.1 802.6 352.3 801.6 352.1 M 804.2 371.5 C 802.6 370.4 805.5 371.5 804.2 371.5 M 804.3 366.3 C 804.2 366.3 804.2 366.3 804.3 366.3 C 804.3 366.3 804.3 366.3 804.3 366.3 Z M 804.1 364.3 C 804.2 364.2 804.2 364.2 804.1 364.3 M 802.8 370.6 C 802.9 370.5 802.9 370.5 802.8 370.6 M 800.5 353.4 C 800.5 353.2 800.5 353.2 800.5 353.4 M 802.1 356.9 C 802.5 354.6 802.9 357.5 802.1 356.9 M 806.7 360.1 C 807.2 359.3 807.1 361.4 806.7 360.1 M 799.9 355.1 C 800.2 353.2 802.1 355.3 799.9 355.1 M 802.4 357.7 C 802.4 357.7 802.4 357.7 802.4 357.7 C 802.4 357.7 802.4 357.7 802.4 357.7 Z M 801.3 351.7 C 801.3 351.7 801.3 351.7 801.3 351.7 C 801.3 351.7 801.3 351.7 801.3 351.7 Z M 800.8 351.3 C 800.8 351.3 800.8 351.3 800.8 351.3 C 800.8 351.3 800.8 351.3 800.8 351.3 Z M 798.8 354.3 C 798.8 354.3 798.8 354.3 798.8 354.3 C 798.8 354.3 798.8 354.3 798.8 354.3 Z M 807.7 368.7 C 807.8 367.3 807.9 369.8 807.7 368.7 C 807.7 368.7 807.7 368.7 807.7 368.7 Z M 803.2 362.7 C 804.2 360.6 804.5 364.0 803.2 362.7 C 803.2 362.7 803.2 362.7 803.2 362.7 Z M 804.7 360.0 C 804.7 359.9 804.7 359.9 804.7 360.0 C 804.7 360.0 804.7 360.0 804.7 360.0 Z M 799.8 356.2 C 799.8 356.2 799.8 356.2 799.8 356.2 C 799.8 356.2 799.8 356.2 799.8 356.2 Z M 807.9 368.0 C 807.9 368.0 807.9 368.0 807.9 368.0 C 807.9 368.0 807.9 368.0 807.9 368.0 Z M 796.3 351.8 C 796.4 351.7 796.4 351.7 796.3 351.8 C 796.3 351.8 796.3 351.8 796.3 351.8 Z M 804.2 354.5 C 803.4 354.4 804.5 354.1 804.2 354.5 C 804.2 354.5 804.2 354.5 804.2 354.5 Z M 802.8 352.7 C 802.7 352.7 802.7 352.7 802.8 352.7 C 802.8 352.7 802.8 352.7 802.8 352.7 Z M 793.3 352.2 C 793.2 352.2 793.2 352.2 793.3 352.2 C 793.3 352.2 793.3 352.2 793.3 352.2 Z M 798.8 348.1 C 798.8 348.1 798.8 348.1 798.8 348.1 C 798.8 348.1 798.8 348.1 798.8 348.1 Z M 796.4 348.9 C 796.4 348.9 796.4 348.9 796.4 348.9 C 796.4 348.9 796.4 348.9 796.4 348.9 Z M 799.3 354.2 C 797.7 353.2 800.0 353.9 799.3 354.2 C 799.3 354.2 799.3 354.2 799.3 354.2 Z M 790.8 348.3 C 790.7 348.2 790.7 348.2 790.8 348.3 C 790.8 348.3 790.8 348.3 790.8 348.3 Z M 789.7 350.3 C 789.7 350.3 789.7 350.3 789.7 350.3 C 789.7 350.3 789.7 350.3 789.7 350.3 Z M 789.2 351.4 C 789.1 351.3 789.1 351.3 789.2 351.4 C 789.2 351.4 789.2 351.4 789.2 351.4 Z M 806.2 364.3 C 806.2 364.4 806.2 364.4 806.2 364.3 C 806.2 364.3 806.2 364.3 806.2 364.3 Z M 803.0 365.2 C 802.9 365.2 802.9 365.2 803.0 365.2 C 803.0 365.2 803.0 365.2 803.0 365.2 Z M 802.7 362.6 C 802.7 362.6 802.7 362.6 802.7 362.6 C 802.7 362.6 802.7 362.6 802.7 362.6 Z M 808.2 364.8 C 808.2 364.9 808.2 364.9 808.2 364.8 C 808.2 364.8 808.2 364.8 808.2 364.8 Z M 802.4 355.1 C 802.4 355.1 802.4 355.1 802.4 355.1 C 802.4 355.1 802.4 355.1 802.4 355.1 Z M 802.8 353.5 C 802.8 353.5 802.8 353.5 802.8 353.5 C 802.8 353.5 802.8 353.5 802.8 353.5 Z M 805.8 354.6 C 805.8 354.6 805.8 354.6 805.8 354.6 C 805.8 354.6 805.8 354.6 805.8 354.6 Z M 803.1 352.1 C 803.1 352.1 803.1 352.1 803.1 352.1 C 803.1 352.1 803.1 352.1 803.1 352.1 Z M 807.6 372.0 C 807.7 372.0 807.7 372.0 807.6 372.0 C 807.6 372.0 807.6 372.0 807.6 372.0 Z M 805.1 372.2 C 805.2 372.2 805.2 372.2 805.1 372.2 C 805.1 372.2 805.1 372.2 805.1 372.2 Z M 800.8 356.0 C 800.1 356.0 800.8 354.9 800.8 356.0 M 802.8 358.8 C 802.9 358.8 802.9 358.8 802.8 358.8 C 802.8 358.8 802.8 358.8 802.8 358.8 Z M 796.4 352.3 C 796.4 351.3 797.6 353.5 796.4 352.3 C 796.4 352.3 796.4 352.3 796.4 352.3 Z M 800.3 349.8 C 800.3 349.7 800.3 349.7 800.3 349.8 C 800.3 349.8 800.3 349.8 800.3 349.8 Z M 799.1 349.5 C 799.1 349.4 799.1 349.4 799.1 349.5 C 799.1 349.5 799.1 349.5 799.1 349.5 Z M 792.6 350.1 C 792.5 350.0 792.5 350.0 792.6 350.1 M 802.2 359.5 C 802.4 358.9 802.4 359.0 802.2 359.5 M 795.3 351.8 C 795.4 351.8 795.4 351.8 795.3 351.8 C 795.3 351.8 795.3 351.8 795.3 351.8 Z M 791.3 350.5 C 791.4 350.5 791.4 350.5 791.3 350.5 C 791.3 350.5 791.3 350.5 791.3 350.5 Z M 803.5 361.6 C 804.7 361.3 804.5 361.9 803.5 361.6 M 804.1 369.4 C 804.2 369.4 804.2 369.4 804.1 369.4 C 804.1 369.4 804.1 369.4 804.1 369.4 Z M 785.0 351.4 C 787.1 352.7 787.2 350.9 787.2 350.8 C 786.9 353.3 789.1 349.8 788.7 349.3 C 788.8 348.9 787.1 344.5 785.5 347.2 C 785.1 347.5 784.9 346.7 784.5 346.7 C 781.9 346.8 786.4 348.1 783.1 348.1 C 782.5 347.7 783.2 345.6 781.3 347.1 C 781.2 346.9 779.0 346.1 779.8 347.0 C 778.8 346.1 778.1 347.2 777.1 347.5 C 776.2 346.9 777.9 345.9 774.7 347.1 C 773.3 345.3 772.9 348.4 771.6 346.5 C 770.8 346.4 769.6 349.6 771.5 347.8 C 771.2 348.0 772.4 349.5 769.9 349.0 C 770.2 348.6 771.6 345.3 767.7 346.9 C 767.0 346.8 765.4 347.6 765.0 347.3 C 767.3 346.8 761.6 346.5 762.3 347.3 C 758.7 347.5 761.2 348.2 758.4 348.5 C 756.5 349.4 759.6 349.3 757.1 350.0 C 755.6 351.2 756.2 349.8 756.4 349.7 C 754.9 350.6 754.8 351.5 754.4 351.9 C 754.0 352.0 753.0 352.2 753.4 353.0 C 753.3 355.3 755.5 355.0 756.3 356.4 C 757.4 356.0 755.7 355.3 756.9 355.5 C 756.6 354.5 756.9 355.3 758.9 353.6 C 758.7 353.5 757.8 353.4 758.3 352.9 C 759.2 352.3 759.8 354.8 760.5 352.5 C 758.4 353.0 763.0 350.5 760.8 350.9 C 763.1 349.6 761.6 350.6 763.6 350.8 C 763.1 349.2 764.0 352.6 764.4 351.1 C 764.7 351.8 767.6 351.2 765.4 350.4 C 768.4 349.7 766.5 350.9 767.7 351.7 C 769.2 351.8 767.8 349.0 768.8 351.1 C 770.7 352.0 768.8 350.1 770.3 351.7 C 769.6 350.2 771.7 351.7 771.2 350.1 C 774.6 350.0 770.8 351.8 773.2 350.7 C 772.4 350.6 772.7 352.7 774.2 351.4 C 773.5 348.9 776.1 353.6 775.0 350.3 C 779.8 349.4 775.8 351.6 778.4 351.7 C 779.1 351.6 777.7 350.6 778.3 350.6 C 781.6 351.0 778.9 351.9 780.6 350.3 C 783.9 349.9 781.6 351.6 783.2 351.8 C 783.3 351.0 784.6 349.7 785.0 351.4 M 782.0 350.6 C 781.3 351.1 781.6 350.1 782.0 350.6 M 788.7 351.4 C 788.0 351.9 788.2 350.9 788.7 351.4 M 779.3 351.1 C 778.4 351.6 779.0 350.2 779.3 351.1 M 761.9 351.1 C 763.0 350.7 761.5 351.6 761.9 351.1 M 786.0 351.5 C 785.0 352.1 785.7 350.6 786.0 351.5 M 787.2 350.2 C 787.2 350.2 787.2 350.2 787.2 350.2 M 761.0 352.9 C 760.9 352.9 760.9 352.9 761.0 352.9 M 764.8 351.8 C 763.9 351.8 765.2 351.4 764.8 351.8 M 764.2 346.4 C 763.0 346.5 764.9 346.0 764.2 346.4 M 759.2 354.0 C 758.8 354.8 758.7 353.7 759.2 354.0 M 756.8 354.6 C 756.6 355.5 756.0 354.6 756.8 354.6 M 782.6 348.8 C 782.6 348.7 782.6 348.7 782.6 348.8 C 782.6 348.8 782.6 348.8 782.6 348.8 Z M 773.8 347.4 C 774.9 347.9 772.6 346.7 773.8 347.4 M 775.5 350.9 C 774.8 349.8 776.8 351.0 775.5 350.9 C 775.5 350.9 775.5 350.9 775.5 350.9 Z M 777.0 350.4 C 777.0 350.4 777.0 350.4 777.0 350.4 C 777.0 350.4 777.0 350.4 777.0 350.4 Z M 772.0 350.4 C 772.1 350.4 772.1 350.4 772.0 350.4 C 772.0 350.4 772.0 350.4 772.0 350.4 Z M 773.1 350.3 C 773.5 350.0 773.6 350.5 773.1 350.3 C 773.1 350.3 773.1 350.3 773.1 350.3 Z M 765.8 346.8 C 766.3 346.6 766.4 347.0 765.8 346.8 C 765.8 346.8 765.8 346.8 765.8 346.8 Z M 774.6 349.9 C 774.8 348.8 775.3 350.6 774.6 349.9 C 774.6 349.9 774.6 349.9 774.6 349.9 Z M 769.3 347.3 C 768.9 347.6 768.4 346.3 769.3 347.3 M 760.2 353.1 C 760.0 353.5 759.0 352.6 760.2 353.1 M 769.1 351.7 C 768.7 352.0 768.2 350.7 769.1 351.7 M 781.4 351.1 C 781.3 351.0 781.3 351.0 781.4 351.1 M 775.6 346.4 C 775.0 346.8 775.3 345.9 775.6 346.4 M 785.5 346.7 C 784.8 347.1 785.2 346.2 785.5 346.7 M 759.2 347.9 C 759.4 348.2 758.0 348.3 759.2 347.9 M 767.9 350.0 C 767.0 349.9 766.1 349.3 768.0 349.3 C 768.1 349.6 767.5 349.7 767.9 350.0 C 767.9 350.0 767.9 350.0 767.9 350.0 Z M 764.4 347.6 C 764.2 347.5 764.2 347.5 764.4 347.6 M 766.3 351.0 C 766.2 350.9 766.2 350.9 766.3 351.0 M 761.7 351.8 C 761.5 351.7 761.5 351.7 761.7 351.8 M 761.3 352.3 C 761.2 352.2 761.2 352.2 761.3 352.3 C 761.3 352.3 761.3 352.3 761.3 352.3 Z M 757.6 355.4 C 757.5 355.3 757.5 355.3 757.6 355.4 C 757.6 355.4 757.6 355.4 757.6 355.4 Z M 763.0 351.2 C 763.0 351.1 763.0 351.1 763.0 351.2 C 763.0 351.2 763.0 351.2 763.0 351.2 Z M 756.9 349.4 C 756.9 349.4 756.9 349.4 756.9 349.4 C 756.9 349.4 756.9 349.4 756.9 349.4 Z M 757.8 349.6 C 757.8 349.6 757.8 349.6 757.8 349.6 C 757.8 349.6 757.8 349.6 757.8 349.6 Z M 784.5 351.4 C 783.7 352.2 784.0 349.5 784.5 351.4 M 755.5 351.3 C 754.4 351.2 756.6 350.2 755.5 351.3 C 755.5 351.3 755.5 351.3 755.5 351.3 Z M 763.4 350.2 C 763.3 350.0 763.3 350.0 763.4 350.2 M 761.0 352.3 C 760.8 352.2 760.8 352.2 761.0 352.3 M 775.5 351.9 C 775.4 351.8 775.4 351.8 775.5 351.9 M 757.9 354.0 C 756.1 355.2 757.6 352.2 757.9 354.0 M 776.6 350.9 C 776.7 351.0 776.7 351.0 776.6 350.9 M 771.0 348.9 C 769.4 348.9 771.6 348.2 771.0 348.9 M 766.8 350.2 C 766.8 350.2 766.8 350.2 766.8 350.2 C 766.8 350.2 766.8 350.2 766.8 350.2 Z M 769.2 350.2 C 770.5 350.1 769.6 350.5 769.2 350.2 C 769.2 350.2 769.2 350.2 769.2 350.2 Z M 783.3 350.4 C 781.7 350.2 784.9 350.0 783.3 350.4 C 783.3 350.4 783.3 350.4 783.3 350.4 Z M 757.2 351.4 C 757.2 351.3 757.2 351.3 757.2 351.4 C 757.2 351.4 757.2 351.4 757.2 351.4 Z M 763.5 351.9 C 764.0 351.5 763.8 352.1 763.5 351.9 C 763.5 351.9 763.5 351.9 763.5 351.9 Z M 757.1 355.9 C 757.3 355.3 757.5 355.9 757.1 355.9 C 757.1 355.9 757.1 355.9 757.1 355.9 Z M 785.2 350.6 C 779.4 348.8 792.9 351.1 785.2 350.6 C 785.2 350.6 785.2 350.6 785.2 350.6 Z M 768.3 351.0 C 768.3 350.9 768.3 350.9 768.3 351.0 C 768.3 351.0 768.3 351.0 768.3 351.0 Z M 778.9 351.7 C 779.0 351.7 779.0 351.7 778.9 351.7 C 778.9 351.7 778.9 351.7 778.9 351.7 Z M 780.8 350.7 C 780.8 350.7 780.8 350.7 780.8 350.7 C 780.8 350.7 780.8 350.7 780.8 350.7 Z M 780.3 346.5 C 780.3 346.4 780.3 346.4 780.3 346.5 C 780.3 346.5 780.3 346.5 780.3 346.5 Z M 779.6 348.4 C 779.7 348.3 779.7 348.3 779.6 348.4 C 779.6 348.4 779.6 348.4 779.6 348.4 Z M 783.4 347.7 C 783.4 347.6 783.4 347.6 783.4 347.7 C 783.4 347.7 783.4 347.7 783.4 347.7 Z M 783.3 347.1 C 783.3 347.1 783.3 347.1 783.3 347.1 C 783.3 347.1 783.3 347.1 783.3 347.1 Z M 760.4 351.2 C 760.4 351.1 760.4 351.1 760.4 351.2 C 760.4 351.2 760.4 351.2 760.4 351.2 Z M 761.6 348.9 C 760.5 349.9 761.8 347.9 761.6 348.9 C 761.6 348.9 761.6 348.9 761.6 348.9 Z M 773.9 349.0 C 772.6 349.2 774.7 348.4 773.9 349.0 C 773.9 349.0 773.9 349.0 773.9 349.0 Z M 772.5 346.7 C 772.5 346.7 772.5 346.7 772.5 346.7 C 772.5 346.7 772.5 346.7 772.5 346.7 Z M 780.8 351.8 C 780.8 351.6 780.8 351.6 780.8 351.8 C 780.8 351.8 780.8 351.8 780.8 351.8 Z M 783.0 351.0 C 783.1 350.1 783.7 351.5 783.0 351.0 M 771.6 351.5 C 771.6 351.4 771.6 351.4 771.6 351.5 C 771.6 351.5 771.6 351.5 771.6 351.5 Z M 764.4 350.3 C 764.4 350.2 764.4 350.2 764.4 350.3 C 764.4 350.3 764.4 350.3 764.4 350.3 Z M 758.7 353.2 C 758.6 353.1 758.6 353.1 758.7 353.2 C 758.7 353.2 758.7 353.2 758.7 353.2 Z M 767.1 351.4 C 767.1 351.3 767.1 351.3 767.1 351.4 C 767.1 351.4 767.1 351.4 767.1 351.4 Z M 770.5 350.6 C 770.5 350.5 770.5 350.5 770.5 350.6 C 770.5 350.6 770.5 350.6 770.5 350.6 Z M 756.8 353.1 C 756.8 353.0 756.8 353.0 756.8 353.1 C 756.8 353.1 756.8 353.1 756.8 353.1 Z M 766.3 351.6 C 766.3 351.5 766.3 351.5 766.3 351.6 C 766.3 351.6 766.3 351.6 766.3 351.6 Z M 764.0 348.9 C 764.1 348.8 764.1 348.8 764.0 348.9 C 764.0 348.9 764.0 348.9 764.0 348.9 Z M 782.7 352.3 C 782.7 352.3 782.7 352.3 782.7 352.3 C 782.7 352.3 782.7 352.3 782.7 352.3 Z M 757.5 354.0 C 757.5 354.0 757.5 354.0 757.5 354.0 C 757.5 354.0 757.5 354.0 757.5 354.0 Z M 757.8 354.9 C 757.8 354.8 757.8 354.8 757.8 354.9 C 757.8 354.9 757.8 354.9 757.8 354.9 Z M 759.5 348.7 C 762.2 348.0 757.4 349.9 759.6 349.9 C 756.3 351.8 758.9 348.9 759.5 348.7 C 759.5 348.7 759.5 348.7 759.5 348.7 Z M 759.5 348.7 " fill="#5E317B"></path><text xml:space="preserve" font-family="Helvetica-Light" font-size="36.0" fill="#000000" transform="matrix(1.00, 0.00, -0.00, -1.00, 284.0, 533.0)">w</text><text xml:space="preserve" font-family="Helvetica-Light" font-size="36.0" fill="#000000" transform="matrix(1.00, 0.00, -0.00, -1.00, 310.0, 533.0)">i</text><text xml:space="preserve" font-family="Helvetica-Light" font-size="36.0" fill="#000000" transform="matrix(1.00, 0.00, -0.00, -1.00, 318.0, 533.0)">t</text><text xml:space="preserve" font-family="Helvetica-Light" font-size="36.0" fill="#000000" transform="matrix(1.00, 0.00, -0.00, -1.00, 328.0, 533.0)">h</text><text xml:space="preserve" font-family="Helvetica-Light" font-size="36.0" fill="#000000" transform="matrix(1.00, 0.00, -0.00, -1.00, 348.0, 533.0)"> </text><text xml:space="preserve" font-family="Helvetica-Light" font-size="36.0" fill="#000000" transform="matrix(1.00, 0.00, -0.00, -1.00, 358.0, 533.0)">d</text><text xml:space="preserve" font-family="Helvetica-Light" font-size="36.0" fill="#000000" transform="matrix(1.00, 0.00, -0.00, -1.00, 380.0, 533.0)">a</text><text xml:space="preserve" font-family="Helvetica-Light" font-size="36.0" fill="#000000" transform="matrix(1.00, 0.00, -0.00, -1.00, 400.0, 533.0)">t</text><text xml:space="preserve" font-family="Helvetica-Light" font-size="36.0" fill="#000000" transform="matrix(1.00, 0.00, -0.00, -1.00, 410.0, 533.0)">a</text><text xml:space="preserve" font-family="Helvetica-Light" font-size="36.0" fill="#000000" transform="matrix(1.00, 0.00, -0.00, -1.00, 430.1, 533.0)">-</text><text xml:space="preserve" font-family="Helvetica-Light" font-size="36.0" fill="#000000" transform="matrix(1.00, 0.00, -0.00, -1.00, 442.0, 533.0)">p</text><text xml:space="preserve" font-family="Helvetica-Light" font-size="36.0" fill="#000000" transform="matrix(1.00, 0.00, -0.00, -1.00, 464.0, 533.0)">a</text><text xml:space="preserve" font-family="Helvetica-Light" font-size="36.0" fill="#000000" transform="matrix(1.00, 0.00, -0.00, -1.00, 484.1, 533.0)">r</text><text xml:space="preserve" font-family="Helvetica-Light" font-size="36.0" fill="#000000" transform="matrix(1.00, 0.00, -0.00, -1.00, 496.0, 533.0)">a</text><text xml:space="preserve" font-family="Helvetica-Light" font-size="36.0" fill="#000000" transform="matrix(1.00, 0.00, -0.00, -1.00, 516.1, 533.0)">l</text><text xml:space="preserve" font-family="Helvetica-Light" font-size="36.0" fill="#000000" transform="matrix(1.00, 0.00, -0.00, -1.00, 524.0, 533.0)">l</text><text xml:space="preserve" font-family="Helvetica-Light" font-size="36.0" fill="#000000" transform="matrix(1.00, 0.00, -0.00, -1.00, 532.0, 533.0)">e</text><text xml:space="preserve" font-family="Helvetica-Light" font-size="36.0" fill="#000000" transform="matrix(1.00, 0.00, -0.00, -1.00, 552.1, 533.0)">l</text><text xml:space="preserve" font-family="Helvetica-Light" font-size="36.0" fill="#000000" transform="matrix(1.00, 0.00, -0.00, -1.00, 560.0, 533.0)"> </text><text xml:space="preserve" font-family="Helvetica-Light" font-size="36.0" fill="#000000" transform="matrix(1.00, 0.00, -0.00, -1.00, 570.1, 533.0)">o</text><text xml:space="preserve" font-family="Helvetica-Light" font-size="36.0" fill="#000000" transform="matrix(1.00, 0.00, -0.00, -1.00, 590.1, 533.0)">p</text><text xml:space="preserve" font-family="Helvetica-Light" font-size="36.0" fill="#000000" transform="matrix(1.00, 0.00, -0.00, -1.00, 612.1, 533.0)">e</text><text xml:space="preserve" font-family="Helvetica-Light" font-size="36.0" fill="#000000" transform="matrix(1.00, 0.00, -0.00, -1.00, 632.1, 533.0)">r</text><text xml:space="preserve" font-family="Helvetica-Light" font-size="36.0" fill="#000000" transform="matrix(1.00, 0.00, -0.00, -1.00, 644.1, 533.0)">a</text><text xml:space="preserve" font-family="Helvetica-Light" font-size="36.0" fill="#000000" transform="matrix(1.00, 0.00, -0.00, -1.00, 664.1, 533.0)">t</text><text xml:space="preserve" font-family="Helvetica-Light" font-size="36.0" fill="#000000" transform="matrix(1.00, 0.00, -0.00, -1.00, 674.1, 533.0)">o</text><text xml:space="preserve" font-family="Helvetica-Light" font-size="36.0" fill="#000000" transform="matrix(1.00, 0.00, -0.00, -1.00, 694.1, 533.0)">r</text><text xml:space="preserve" font-family="Helvetica-Light" font-size="36.0" fill="#000000" transform="matrix(1.00, 0.00, -0.00, -1.00, 706.1, 533.0)">s</text><path d="M 120.9 364.1 L 120.9 391.9 C 120.9 400.2 127.6 406.9 135.9 406.9 L 160.2 406.9 C 168.5 406.9 175.2 400.2 175.2 391.9 L 175.2 364.1 C 175.2 355.8 168.5 349.1 160.2 349.1 L 135.9 349.1 C 127.6 349.1 120.9 355.8 120.9 364.1 Z M 120.9 364.1 " fill="#6FBF40"></path><path d="M 0.0 42.8 L 0.0 15.0 C 0.0 6.7 6.7 0.0 15.0 0.0 L 39.3 0.0 C 47.6 0.0 54.3 6.7 54.3 15.0 L 54.3 42.8 C 54.3 51.0 47.6 57.8 39.3 57.8 L 15.0 57.8 C 6.7 57.8 0.0 51.0 0.0 42.8 Z M 0.0 42.8 " fill="none" stroke="#0B5C18" stroke-width="5.00" transform="matrix(1.00, 0.00, 0.00, -1.00, 120.9, 406.9)"></path><g><clipPath id="clip-840"><path d="M 120.9 349.1 L 175.2 349.1 L 175.2 406.9 L 120.9 406.9 Z M 120.9 349.1 "></path></clipPath><g clip-path="url(#clip-840)"><text xml:space="preserve" font-family="Helvetica-Bold" font-weight="bold" font-size="24.0" fill="#FEFFFE" transform="matrix(1.00, 0.00, -0.00, -1.00, 134.0, 369.0)">d</text><text xml:space="preserve" font-family="Helvetica-Bold" font-weight="bold" font-size="24.0" fill="#FEFFFE" transform="matrix(1.00, 0.00, -0.00, -1.00, 148.7, 369.0)">x</text></g></g><path d="M 831.4 365.2 L 831.4 393.0 C 831.4 401.3 838.1 408.0 846.4 408.0 L 870.7 408.0 C 879.0 408.0 885.7 401.3 885.7 393.0 L 885.7 365.2 C 885.7 356.9 879.0 350.2 870.7 350.2 L 846.4 350.2 C 838.1 350.2 831.4 356.9 831.4 365.2 Z M 831.4 365.2 " fill="#B26AE1"></path><path d="M 0.0 42.8 L 0.0 15.0 C 0.0 6.7 6.7 0.0 15.0 0.0 L 39.3 0.0 C 47.6 0.0 54.3 6.7 54.3 15.0 L 54.3 42.8 C 54.3 51.0 47.6 57.8 39.3 57.8 L 15.0 57.8 C 6.7 57.8 0.0 51.0 0.0 42.8 Z M 0.0 42.8 " fill="none" stroke="#5E317B" stroke-width="5.00" transform="matrix(1.00, 0.00, 0.00, -1.00, 831.4, 408.0)"></path><g><clipPath id="clip-841"><path d="M 831.4 350.2 L 885.7 350.2 L 885.7 408.0 L 831.4 408.0 Z M 831.4 350.2 "></path></clipPath><g clip-path="url(#clip-841)"><text xml:space="preserve" font-family="Helvetica-Bold" font-weight="bold" font-size="24.0" fill="#FEFFFE" transform="matrix(1.00, 0.00, -0.00, -1.00, 845.0, 370.0)">d</text><text xml:space="preserve" font-family="Helvetica-Bold" font-weight="bold" font-size="24.0" fill="#FEFFFE" transform="matrix(1.00, 0.00, -0.00, -1.00, 859.7, 370.0)">y</text></g></g></g></svg>