<?xml version="1.0" encoding="UTF-8" standalone="no"?><svg xmlns="http://www.w3.org/2000/svg" xmlns:xlink="http://www.w3.org/1999/xlink" clip-rule="evenodd" stroke-miterlimit="4.00" viewBox="0 0 63 247"><desc>SVG generated by Keynote</desc><defs></defs><g transform="matrix(1.00, 0.00, -0.00, -1.00, 0.0, 247.0)"><g><clipPath id="clip-794"><path d="M 0.9 181.7 L 62.2 181.7 L 62.2 246.5 L 0.9 246.5 Z M 0.9 181.7 "></path></clipPath><g clip-path="url(#clip-794)"><path d="M 4.4 200.2 L 4.4 228.0 C 4.4 236.3 11.1 243.0 19.4 243.0 L 43.7 243.0 C 52.0 243.0 58.7 236.3 58.7 228.0 L 58.7 200.2 C 58.7 191.9 52.0 185.2 43.7 185.2 L 19.4 185.2 C 11.1 185.2 4.4 191.9 4.4 200.2 Z M 4.4 200.2 " fill="#B26AE1"></path><path d="M 0.0 42.8 L 0.0 15.0 C 0.0 6.7 6.7 0.0 15.0 0.0 L 39.3 0.0 C 47.6 0.0 54.3 6.7 54.3 15.0 L 54.3 42.8 C 54.3 51.0 47.6 57.8 39.3 57.8 L 15.0 57.8 C 6.7 57.8 0.0 51.0 0.0 42.8 Z M 0.0 42.8 " fill="none" stroke="#5E317B" stroke-width="5.00" transform="matrix(1.00, 0.00, 0.00, -1.00, 4.4, 243.0)"></path></g></g><g><clipPath id="clip-795"><path d="M 4.4 185.2 L 58.7 185.2 L 58.7 243.0 L 4.4 243.0 Z M 4.4 185.2 "></path></clipPath><g clip-path="url(#clip-795)"><text xml:space="preserve" font-family="Helvetica-Bold" font-weight="bold" font-size="24.0" fill="#FEFFFE" transform="matrix(1.00, 0.00, -0.00, -1.00, 18.0, 205.0)">d</text><text xml:space="preserve" font-family="Helvetica-Bold" font-weight="bold" font-size="24.0" fill="#FEFFFE" transform="matrix(1.00, 0.00, -0.00, -1.00, 32.7, 205.0)">y</text></g></g><g><clipPath id="clip-796"><path d="M 0.4 0.0 L 62.7 0.0 L 62.7 65.8 L 0.4 65.8 Z M 0.4 0.0 "></path></clipPath><g clip-path="url(#clip-796)"><path d="M 5.9 29.5 C 5.7 29.2 6.0 28.5 5.8 28.2 M 5.9 29.5 C 7.0 28.7 7.1 27.4 7.3 25.7 C 7.3 23.8 6.3 25.7 5.8 25.5 C 5.4 23.0 6.2 23.0 7.4 23.4 C 6.6 22.4 8.0 19.6 6.5 20.2 C 6.5 24.2 6.1 17.4 5.3 20.7 C 5.1 21.1 4.7 20.1 4.7 19.7 C 4.0 20.8 3.3 18.9 2.9 20.7 C 2.0 21.0 2.4 20.6 1.6 21.8 C 1.5 22.3 1.9 22.1 2.1 22.0 C 3.2 22.2 1.5 23.4 2.1 24.3 C 0.7 25.2 2.4 26.1 3.0 25.3 C 2.8 26.2 1.3 27.2 2.4 28.0 C 1.7 28.5 2.1 30.8 3.0 29.4 C 3.6 28.4 4.0 29.5 4.4 29.7 C 4.7 29.3 4.2 27.9 4.5 27.7 C 4.7 28.2 5.2 30.0 5.2 28.1 C 5.7 28.7 6.0 27.7 5.9 29.5 C 5.9 29.5 5.9 29.5 5.9 29.5 Z M 6.7 22.7 C 7.1 22.7 6.7 23.3 6.7 22.7 C 6.7 22.7 6.7 22.7 6.7 22.7 Z M 1.6 27.3 C 2.0 27.3 1.6 27.9 1.6 27.3 C 1.6 27.3 1.6 27.3 1.6 27.3 Z M 2.0 22.3 C 2.4 22.3 2.0 23.0 2.0 22.3 C 2.0 22.3 2.0 22.3 2.0 22.3 Z M 6.5 24.4 C 6.2 25.5 5.9 23.6 6.3 23.4 C 6.3 23.6 6.8 24.2 6.5 24.4 C 6.5 24.4 6.5 24.4 6.5 24.4 Z M 4.3 24.6 C 4.4 24.7 4.5 25.1 4.1 25.1 C 4.0 24.8 4.1 24.5 4.3 24.6 C 4.3 24.6 4.3 24.6 4.3 24.6 Z M 5.8 19.3 C 6.0 19.4 6.0 19.8 5.6 19.8 C 5.5 19.5 5.7 19.2 5.8 19.3 C 5.8 19.3 5.8 19.3 5.8 19.3 Z M 5.5 25.7 C 5.4 25.9 5.1 26.0 5.0 25.7 C 5.2 25.6 5.3 24.8 5.5 25.7 C 5.5 25.7 5.5 25.7 5.5 25.7 Z M 6.7 27.3 C 6.6 28.2 6.0 26.4 6.2 26.4 C 6.4 26.1 7.0 26.8 6.7 27.3 C 6.7 27.3 6.7 27.3 6.7 27.3 Z M 5.0 26.2 C 4.8 26.9 4.7 25.9 5.0 26.2 C 5.0 26.2 5.0 26.2 5.0 26.2 Z M 3.0 20.0 C 2.8 20.8 2.7 19.7 3.0 20.0 C 3.0 20.0 3.0 20.0 3.0 20.0 Z M 1.8 23.9 C 1.7 24.7 1.6 23.6 1.8 23.9 C 1.8 23.9 1.8 23.9 1.8 23.9 Z M 5.7 22.5 C 5.8 21.2 6.7 22.3 5.7 22.5 C 5.7 22.5 5.7 22.5 5.7 22.5 Z M 6.8 29.4 C 6.9 28.1 7.8 29.2 6.8 29.4 C 6.8 29.4 6.8 29.4 6.8 29.4 Z M 6.6 17.5 C 6.7 18.5 8.6 14.9 6.8 16.0 C 5.5 16.2 6.4 13.5 7.3 14.6 C 7.7 13.8 7.7 13.9 7.4 13.3 C 8.3 13.5 9.5 12.3 9.5 11.5 C 9.1 10.7 8.7 12.5 8.7 11.1 C 9.9 9.1 7.8 10.8 7.7 9.3 C 7.7 9.2 8.2 9.5 8.1 9.2 C 7.4 8.5 5.9 9.4 5.8 8.3 C 5.6 8.7 3.5 10.0 4.8 9.7 C 5.7 9.9 2.6 11.4 4.0 11.8 C 3.1 12.2 3.7 13.2 2.7 13.7 C 2.3 14.2 3.1 14.4 3.3 14.3 C 4.0 14.5 1.6 14.7 2.6 15.8 C 2.3 15.8 2.0 18.3 2.8 16.5 C 2.6 17.0 2.2 19.9 3.5 18.4 C 4.2 16.5 4.8 20.3 5.0 18.2 C 5.2 16.7 5.0 16.4 5.6 17.6 C 5.5 17.9 5.5 19.6 6.2 18.2 C 6.0 17.9 6.2 17.3 6.6 17.5 C 6.6 17.5 6.6 17.5 6.6 17.5 Z M 4.6 17.6 C 4.6 16.7 5.1 17.6 4.6 17.6 C 4.6 17.6 4.6 17.6 4.6 17.6 Z M 2.4 13.4 C 2.7 12.4 3.0 13.5 2.4 13.4 C 2.4 13.4 2.4 13.4 2.4 13.4 Z M 7.4 15.2 C 7.2 14.7 8.5 15.0 7.4 15.2 C 7.4 15.2 7.4 15.2 7.4 15.2 Z M 3.0 15.4 C 3.1 15.3 3.2 15.6 3.2 15.8 C 3.2 15.8 3.0 15.5 3.0 15.4 C 3.0 15.4 3.0 15.4 3.0 15.4 Z M 7.9 14.0 C 7.7 12.7 8.9 14.2 7.9 14.0 C 7.9 14.0 7.9 14.0 7.9 14.0 Z M 7.9 11.3 C 6.8 10.4 8.8 10.4 7.9 11.3 C 7.9 11.3 7.9 11.3 7.9 11.3 Z M 4.3 11.4 C 4.5 11.8 4.1 11.6 4.3 11.4 C 4.3 11.4 4.3 11.4 4.3 11.4 Z M 2.4 17.8 C 2.6 18.1 2.2 18.1 2.4 17.8 C 2.4 17.8 2.4 17.8 2.4 17.8 Z M 5.4 9.8 C 5.7 10.2 4.8 10.2 5.4 9.8 C 5.4 9.8 5.4 9.8 5.4 9.8 Z M 7.0 14.8 C 7.7 16.2 5.0 15.5 7.0 14.8 C 7.0 14.8 7.0 14.8 7.0 14.8 Z M 6.6 16.7 C 6.7 17.5 5.9 16.4 6.2 16.1 C 6.3 16.2 6.6 16.6 6.6 16.7 C 6.6 16.7 6.6 16.7 6.6 16.7 Z M 7.3 13.7 C 7.5 14.6 6.7 14.2 7.3 13.7 C 7.3 13.7 7.3 13.7 7.3 13.7 Z M 7.2 15.6 C 7.0 15.9 7.2 15.3 7.2 15.6 C 7.2 15.6 7.2 15.6 7.2 15.6 Z M 8.9 13.0 C 8.6 13.2 8.9 12.6 8.9 13.0 C 8.9 13.0 8.9 13.0 8.9 13.0 Z M 7.0 17.7 C 6.9 18.0 6.9 17.4 7.0 17.7 C 7.0 17.7 7.0 17.7 7.0 17.7 Z M 8.1 12.8 C 7.8 12.5 6.3 12.8 8.1 11.7 C 8.5 11.6 8.7 12.6 8.1 12.8 C 8.1 12.8 8.1 12.8 8.1 12.8 Z M 5.9 32.8 C 7.4 27.9 4.7 29.1 4.2 28.9 C 3.5 28.2 3.0 28.9 2.5 29.8 C 0.8 30.9 4.3 31.4 2.6 32.1 C 0.3 33.4 4.6 33.6 2.2 34.2 C 1.5 33.9 2.1 35.8 2.2 35.7 C 1.1 36.6 3.1 38.0 3.3 38.0 C 3.0 38.6 0.9 38.7 2.5 40.7 C 3.0 42.1 0.9 42.8 2.4 42.4 C 0.7 43.5 2.8 43.2 2.3 44.3 C 1.4 45.1 3.7 44.3 2.0 45.7 C 3.3 46.3 0.6 44.9 2.2 49.2 C 2.0 47.1 3.6 51.0 2.6 50.4 C 1.3 49.1 3.3 52.2 3.6 54.2 C 4.3 54.5 6.5 55.7 5.1 56.1 C 4.9 58.6 7.0 57.1 6.6 58.6 C 6.7 59.4 7.7 58.8 8.0 59.2 C 7.8 60.3 8.6 60.4 10.6 61.9 C 15.1 65.0 12.5 60.1 14.2 60.5 C 14.7 60.1 13.8 56.3 13.6 58.8 C 13.6 58.1 9.5 58.4 12.3 57.2 C 10.7 57.3 13.2 56.7 10.5 55.9 C 11.7 59.6 7.4 53.6 10.2 55.4 C 10.3 54.6 9.4 53.7 9.6 54.7 C 8.6 56.0 8.9 52.3 8.0 54.7 C 7.2 52.5 6.0 53.8 6.9 52.6 C 8.6 51.2 6.3 53.0 6.5 51.6 C 5.6 49.1 8.7 50.5 6.8 49.3 C 7.4 46.6 5.7 48.9 5.3 48.0 C 3.8 47.8 6.4 45.2 6.7 47.2 C 5.8 46.2 7.4 47.0 6.4 45.7 C 5.0 46.7 7.9 44.0 6.8 44.4 C 6.4 43.2 5.6 43.8 5.5 43.4 C 5.5 41.6 6.9 42.2 5.9 41.8 C 5.3 41.4 7.1 40.6 6.7 40.3 C 6.6 42.2 5.2 38.8 6.0 38.7 C 6.1 39.8 7.8 38.1 6.7 37.4 C 3.6 38.3 7.5 35.8 6.4 35.0 C 4.7 35.7 6.2 31.0 7.0 32.8 C 6.9 32.7 5.9 32.8 5.9 32.8 M 6.4 39.8 C 6.3 41.3 6.1 38.2 6.4 39.8 M 6.9 39.8 C 6.3 40.4 7.3 38.3 7.1 39.8 C 7.1 39.9 6.9 39.7 6.9 39.8 M 7.0 46.0 C 6.5 45.8 7.2 45.1 7.0 46.0 M 5.9 47.1 C 5.5 48.1 5.8 45.9 5.9 47.1 M 11.6 57.4 C 9.1 58.7 11.4 55.5 11.6 57.4 M 7.5 51.0 C 6.7 49.8 8.6 51.1 7.5 51.0 M 6.7 50.8 C 6.1 50.3 7.2 50.5 6.7 50.8 M 9.9 55.9 C 9.9 56.0 9.9 56.0 9.9 55.9 C 9.9 55.9 9.9 55.9 9.9 55.9 Z M 12.5 58.1 C 12.6 58.1 12.6 58.1 12.5 58.1 C 12.5 58.1 12.5 58.1 12.5 58.1 Z M 7.6 53.3 C 7.6 52.0 8.7 54.8 7.6 53.3 C 7.6 53.3 7.6 53.3 7.6 53.3 Z M 8.8 60.2 C 8.7 60.2 8.7 60.2 8.8 60.2 C 8.8 60.2 8.8 60.2 8.8 60.2 Z M 5.3 38.6 C 5.2 38.6 5.2 38.6 5.3 38.6 C 5.3 38.6 5.3 38.6 5.3 38.6 Z M 6.2 34.0 C 5.9 34.1 6.5 33.2 6.2 34.0 C 6.2 34.0 6.2 34.0 6.2 34.0 Z M 3.3 30.3 C 3.3 30.2 3.3 30.2 3.3 30.3 C 3.3 30.3 3.3 30.3 3.3 30.3 Z M 3.9 37.1 C 3.9 37.0 3.9 37.0 3.9 37.1 C 3.9 37.1 3.9 37.1 3.9 37.1 Z M 5.8 37.7 C 7.2 37.0 5.4 39.5 5.8 37.7 C 5.8 37.7 5.8 37.7 5.8 37.7 Z M 3.8 53.5 C 4.4 53.3 4.0 54.7 3.8 53.5 C 3.8 53.5 3.8 53.5 3.8 53.5 Z M 5.3 47.3 C 5.7 47.5 5.2 48.0 5.3 47.3 C 5.3 47.3 5.3 47.3 5.3 47.3 Z M 7.2 44.8 C 7.6 45.0 7.1 45.5 7.2 44.8 C 7.2 44.8 7.2 44.8 7.2 44.8 Z M 6.6 34.1 C 6.7 34.2 6.7 34.2 6.6 34.1 C 6.6 34.1 6.6 34.1 6.6 34.1 Z M 5.6 35.7 C 6.9 34.6 4.8 37.5 5.6 35.7 C 5.6 35.7 5.6 35.7 5.6 35.7 Z M 5.2 33.8 C 4.7 34.4 5.4 32.3 5.2 33.8 M 3.1 34.9 C 3.7 36.3 0.8 33.6 3.1 34.9 C 3.1 34.9 3.1 34.9 3.1 34.9 Z M 2.6 42.0 C 2.6 42.1 2.6 42.1 2.6 42.0 C 2.6 42.0 2.6 42.0 2.6 42.0 Z M 6.5 41.3 C 6.4 42.5 6.2 40.5 6.5 41.3 C 6.5 41.3 6.5 41.3 6.5 41.3 Z M 6.8 30.5 C 6.7 31.8 6.5 29.7 6.8 30.5 C 6.8 30.5 6.8 30.5 6.8 30.5 Z M 3.9 46.2 C 4.1 48.2 3.2 44.9 3.9 46.2 C 3.9 46.2 3.9 46.2 3.9 46.2 Z M 6.9 53.0 C 6.9 53.1 6.9 53.1 6.9 53.0 C 6.9 53.0 6.9 53.0 6.9 53.0 Z M 8.0 53.8 C 8.0 53.9 8.0 53.9 8.0 53.8 C 8.0 53.8 8.0 53.8 8.0 53.8 Z M 10.5 58.6 C 10.5 58.7 10.5 58.7 10.5 58.6 C 10.5 58.6 10.5 58.6 10.5 58.6 Z M 9.1 54.3 C 9.1 54.4 9.1 54.4 9.1 54.3 C 9.1 54.3 9.1 54.3 9.1 54.3 Z M 11.2 57.0 C 11.2 57.1 11.2 57.1 11.2 57.0 C 11.2 57.0 11.2 57.0 11.2 57.0 Z M 11.5 55.8 C 11.6 55.9 11.6 55.9 11.5 55.8 C 11.5 55.8 11.5 55.8 11.5 55.8 Z M 2.3 51.6 C 2.3 51.7 2.3 51.7 2.3 51.6 C 2.3 51.6 2.3 51.6 2.3 51.6 Z M 7.1 36.3 C 7.0 36.4 7.0 36.4 7.1 36.3 C 7.1 36.3 7.1 36.3 7.1 36.3 Z M 10.6 57.2 C 10.6 57.3 10.6 57.3 10.6 57.2 C 10.6 57.2 10.6 57.2 10.6 57.2 Z M 5.1 50.2 C 4.0 50.5 6.4 49.0 5.2 50.4 C 5.2 50.4 5.3 50.1 5.1 50.2 M 3.7 52.0 C 3.6 52.0 3.6 52.0 3.7 52.0 C 3.7 52.0 3.7 52.0 3.7 52.0 Z M 2.2 47.1 C 2.1 47.1 2.1 47.1 2.2 47.1 C 2.2 47.1 2.2 47.1 2.2 47.1 Z M 8.9 53.7 C 9.4 53.3 9.0 54.8 8.8 53.6 M 9.3 60.2 C 9.6 59.6 10.0 61.3 9.2 60.1 M 6.4 29.1 C 5.9 29.0 6.6 28.3 6.4 29.1 M 1.6 46.1 C 1.1 45.9 1.8 45.3 1.6 46.1 M 3.1 48.3 C 3.7 48.1 2.7 49.6 3.0 48.2 M 7.0 57.9 C 7.0 58.0 7.0 58.0 7.0 57.9 C 7.0 57.9 7.0 57.9 7.0 57.9 Z M 6.4 43.2 C 6.3 43.2 6.3 43.2 6.4 43.2 C 6.4 43.2 6.4 43.2 6.4 43.2 Z M 5.1 48.6 C 5.9 47.7 4.7 49.6 5.1 48.6 M 4.8 41.6 C 5.9 40.5 4.5 43.3 4.8 41.6 M 11.3 61.8 C 10.8 60.0 11.9 62.9 11.3 61.8 M 8.8 55.6 C 9.1 53.9 8.8 56.6 8.8 55.6 M 5.8 44.3 C 6.5 44.2 5.4 45.5 5.8 44.3 M 6.5 31.9 C 6.6 30.8 7.0 33.4 6.5 31.9 M 5.0 55.4 C 5.0 55.5 5.0 55.5 5.0 55.4 C 5.0 55.4 5.0 55.4 5.0 55.4 Z M 1.5 35.7 C 1.5 35.7 1.5 35.7 1.5 35.7 C 1.5 35.7 1.5 35.7 1.5 35.7 Z M 14.5 58.6 C 14.5 58.7 14.5 58.7 14.5 58.6 C 14.5 58.6 14.5 58.6 14.5 58.6 Z M 7.9 55.4 C 7.9 55.5 7.9 55.5 7.9 55.4 C 7.9 55.4 7.9 55.4 7.9 55.4 Z M 12.9 57.6 C 12.9 57.7 12.9 57.7 12.9 57.6 C 12.9 57.6 12.9 57.6 12.9 57.6 Z M 5.2 52.8 C 5.2 52.8 5.2 52.8 5.2 52.8 C 5.2 52.8 5.2 52.8 5.2 52.8 Z M 8.1 50.9 C 8.0 51.0 8.0 51.0 8.1 50.9 C 8.1 50.9 8.1 50.9 8.1 50.9 Z M 6.0 47.8 C 5.9 47.8 5.9 47.8 6.0 47.8 C 6.0 47.8 6.0 47.8 6.0 47.8 Z M 8.4 52.4 C 9.5 54.1 7.0 52.0 8.4 52.4 C 8.4 52.4 8.4 52.4 8.4 52.4 Z M 4.1 49.8 C 4.0 49.8 4.0 49.8 4.1 49.8 C 4.1 49.8 4.1 49.8 4.1 49.8 Z M 6.3 49.0 C 7.5 50.3 4.8 50.0 6.3 49.0 M 6.9 42.5 C 7.4 42.9 6.1 42.7 6.9 42.5 M 2.6 39.7 C 2.5 39.7 2.5 39.7 2.6 39.7 C 2.6 39.7 2.6 39.7 2.6 39.7 Z M 2.9 40.5 C 2.8 40.5 2.8 40.5 2.9 40.5 C 2.9 40.5 2.9 40.5 2.9 40.5 Z M 7.1 40.8 C 7.1 40.8 7.1 40.8 7.1 40.8 C 7.1 40.8 7.1 40.8 7.1 40.8 Z M 1.6 40.6 C 1.6 40.6 1.6 40.6 1.6 40.6 C 1.6 40.6 1.6 40.6 1.6 40.6 Z M 7.7 50.3 C 7.7 50.3 7.7 50.3 7.7 50.3 C 7.7 50.3 7.7 50.3 7.7 50.3 Z M 14.0 57.6 C 14.0 57.7 14.0 57.7 14.0 57.6 C 14.0 57.6 14.0 57.6 14.0 57.6 Z M 3.0 32.3 C 3.0 32.4 3.0 32.4 3.0 32.3 C 3.0 32.3 3.0 32.3 3.0 32.3 Z M 6.9 51.7 C 6.8 51.8 6.8 51.8 6.9 51.7 C 6.9 51.7 6.9 51.7 6.9 51.7 Z M 2.7 38.0 C 2.7 38.0 2.7 38.0 2.7 38.0 C 2.7 38.0 2.7 38.0 2.7 38.0 Z M 6.9 51.0 C 6.9 51.0 6.9 51.0 6.9 51.0 C 6.9 51.0 6.9 51.0 6.9 51.0 Z M 4.6 55.2 C 4.6 55.2 4.6 55.2 4.6 55.2 C 4.6 55.2 4.6 55.2 4.6 55.2 Z M 5.7 58.1 C 5.7 58.1 5.7 58.1 5.7 58.1 C 5.7 58.1 5.7 58.1 5.7 58.1 Z M 6.5 53.9 C 6.5 53.9 6.5 53.9 6.5 53.9 C 6.5 53.9 6.5 53.9 6.5 53.9 Z M 4.2 37.1 C 5.3 32.2 4.7 41.0 4.2 37.1 M 6.7 54.7 C 5.1 51.7 9.2 56.3 6.7 54.7 C 7.2 54.9 6.7 54.7 6.7 54.7 M 15.6 58.4 C 14.2 59.2 13.6 60.2 13.7 61.6 C 14.2 62.5 15.0 60.1 14.3 62.1 C 12.6 61.9 14.2 65.3 14.9 62.7 C 17.3 63.0 14.9 64.5 16.6 63.8 C 19.2 63.9 18.1 64.5 19.8 64.4 C 20.9 62.9 20.9 65.1 21.3 63.7 C 20.4 65.2 23.2 63.3 23.2 64.0 C 21.6 64.9 29.3 64.0 25.1 63.5 C 26.8 62.8 26.5 64.1 27.1 64.3 C 27.8 63.4 29.9 65.0 30.9 64.1 C 30.7 63.9 30.2 63.8 30.0 63.5 C 29.7 63.0 31.2 63.7 31.1 63.6 C 31.7 63.3 34.5 62.4 31.6 64.0 C 31.4 64.7 33.9 63.6 33.9 64.3 C 36.4 64.3 34.5 62.9 35.6 63.9 C 37.4 64.0 38.7 64.0 38.7 63.8 C 39.8 63.9 40.1 64.8 41.0 64.0 C 43.3 65.5 42.6 60.9 43.5 64.0 C 44.1 63.3 45.0 65.3 44.7 63.4 C 43.9 64.3 49.2 64.2 46.8 63.2 C 47.3 62.6 51.1 63.9 50.0 62.3 C 50.5 60.6 49.5 59.6 47.3 58.8 C 47.8 59.8 45.1 58.2 47.0 59.7 C 48.8 59.9 43.9 60.8 44.9 60.0 C 44.9 57.8 42.3 61.5 41.2 59.9 C 42.1 60.8 37.7 61.2 39.0 59.5 C 38.2 59.4 38.0 60.2 37.1 59.2 C 39.7 59.4 36.1 61.0 36.2 59.9 C 36.7 59.3 32.7 58.8 33.1 59.7 C 34.5 62.1 32.1 59.3 31.4 60.2 C 29.3 60.7 31.8 58.2 30.2 59.9 C 29.7 59.6 26.8 59.6 28.7 59.1 C 29.4 59.4 27.0 61.7 26.6 59.7 C 29.7 58.6 23.1 59.1 24.1 59.7 C 28.9 60.8 19.1 60.9 22.8 59.9 C 20.7 58.8 23.4 59.4 20.8 59.9 C 21.2 60.5 19.1 61.1 19.6 59.9 C 19.2 58.0 18.5 62.4 17.5 59.7 C 17.5 58.5 14.6 59.8 15.9 58.9 C 16.0 58.8 15.7 58.5 15.6 58.4 M 16.3 58.9 C 15.9 59.2 16.0 58.2 16.3 58.9 M 15.9 59.2 C 15.9 59.1 15.9 59.1 15.9 59.2 C 15.9 59.2 15.9 59.2 15.9 59.2 Z M 20.4 60.0 C 20.4 59.9 20.4 59.9 20.4 60.0 C 20.4 60.0 20.4 60.0 20.4 60.0 Z M 24.4 64.7 C 24.4 64.7 24.4 64.7 24.4 64.7 C 24.4 64.7 24.4 64.7 24.4 64.7 Z M 23.8 60.1 C 23.8 60.1 23.8 60.1 23.8 60.1 C 23.8 60.1 23.8 60.1 23.8 60.1 Z M 18.7 60.2 C 18.6 60.2 18.6 60.2 18.7 60.2 C 18.7 60.2 18.7 60.2 18.7 60.2 Z M 23.5 59.4 C 23.8 60.1 22.3 58.9 23.6 59.3 C 23.6 59.3 23.4 59.3 23.5 59.4 M 27.9 59.1 C 28.0 59.2 28.0 59.2 27.9 59.1 M 37.7 64.7 C 37.7 64.7 37.7 64.7 37.7 64.7 M 38.5 59.0 C 38.6 59.1 38.6 59.1 38.5 59.0 M 32.3 59.8 C 33.7 59.7 32.7 60.2 32.3 59.8 M 42.0 59.4 C 40.3 59.0 43.8 59.1 42.0 59.4 M 43.7 59.0 C 43.8 59.1 43.8 59.1 43.7 59.0 M 36.0 59.3 C 36.0 59.3 36.0 59.3 36.0 59.3 C 36.0 59.3 36.0 59.3 36.0 59.3 Z M 31.8 59.5 C 30.0 59.1 33.5 58.9 31.8 59.5 M 21.0 59.3 C 22.0 58.9 21.0 60.2 21.0 59.3 M 19.1 59.7 C 19.0 59.7 19.0 59.7 19.1 59.7 C 19.1 59.7 19.1 59.7 19.1 59.7 Z M 39.3 59.4 C 39.2 59.4 39.2 59.4 39.3 59.4 C 39.3 59.4 39.3 59.4 39.3 59.4 Z M 41.3 59.3 C 41.2 59.3 41.2 59.3 41.3 59.3 C 41.3 59.3 41.3 59.3 41.3 59.3 Z M 44.7 64.5 C 44.6 64.5 44.6 64.5 44.7 64.5 C 44.7 64.5 44.7 64.5 44.7 64.5 Z M 20.5 61.8 C 19.2 61.5 21.9 60.1 21.6 61.4 C 21.7 61.9 20.7 61.7 20.5 61.8 M 30.5 61.1 C 30.8 62.9 29.2 58.7 30.5 61.1 M 43.9 60.2 C 45.2 62.3 42.3 58.7 43.9 60.2 M 46.3 59.6 C 47.0 59.9 42.0 60.4 45.4 59.4 C 45.7 59.0 46.0 59.4 46.3 59.6 M 28.0 60.0 C 28.4 60.9 25.9 59.5 28.0 60.0 M 36.1 62.9 C 36.8 62.3 38.4 61.7 37.7 62.8 C 37.7 64.2 35.3 63.4 36.1 62.9 M 16.4 59.9 C 17.7 58.6 16.1 61.2 16.4 59.9 M 21.3 60.4 C 21.3 60.3 21.3 60.3 21.3 60.4 C 21.3 60.4 21.3 60.4 21.3 60.4 Z M 23.3 60.1 C 23.4 60.3 23.4 60.3 23.3 60.1 M 17.4 58.7 C 17.4 58.8 17.4 58.8 17.4 58.7 M 36.1 61.3 C 36.2 61.4 36.2 61.4 36.1 61.3 M 31.9 60.2 C 33.9 61.8 30.9 60.5 31.9 60.2 M 27.1 63.2 C 27.7 64.0 25.8 63.3 27.1 63.2 M 35.2 59.6 C 36.6 61.1 33.3 61.0 35.2 59.6 M 30.9 60.1 C 31.1 60.1 31.1 60.1 30.9 60.1 C 30.9 60.1 30.9 60.1 30.9 60.1 Z M 36.6 63.1 C 36.6 63.1 36.6 63.1 36.6 63.1 C 36.6 63.1 36.6 63.1 36.6 63.1 Z M 37.2 63.0 C 37.2 63.0 37.2 63.0 37.2 63.0 C 37.2 63.0 37.2 63.0 37.2 63.0 Z M 36.9 59.5 C 36.8 59.5 36.8 59.5 36.9 59.5 C 36.9 59.5 36.9 59.5 36.9 59.5 Z M 18.8 63.7 C 20.4 63.9 17.5 63.9 18.8 63.7 C 18.8 63.7 18.8 63.7 18.8 63.7 Z M 25.1 59.4 C 27.4 60.6 23.5 60.5 25.1 59.4 C 25.1 59.4 25.1 59.4 25.1 59.4 Z M 27.7 61.3 C 27.7 61.4 27.7 61.4 27.7 61.3 C 27.7 61.3 27.7 61.3 27.7 61.3 Z M 34.3 58.7 C 34.3 58.8 34.3 58.8 34.3 58.7 C 34.3 58.7 34.3 58.7 34.3 58.7 Z M 19.6 63.9 C 19.6 64.0 19.6 64.0 19.6 63.9 C 19.6 63.9 19.6 63.9 19.6 63.9 Z M 40.9 60.3 C 40.9 60.3 40.9 60.3 40.9 60.3 C 40.9 60.3 40.9 60.3 40.9 60.3 Z M 32.8 63.3 C 33.3 62.7 32.9 63.8 32.8 63.3 C 32.8 63.3 32.8 63.3 32.8 63.3 Z M 34.9 63.3 C 35.0 63.3 35.0 63.3 34.9 63.3 C 34.9 63.3 34.9 63.3 34.9 63.3 Z M 44.1 58.9 C 44.2 58.9 44.2 58.9 44.1 58.9 C 44.1 58.9 44.1 58.9 44.1 58.9 Z M 40.3 64.7 C 40.3 64.7 40.3 64.7 40.3 64.7 C 40.3 64.7 40.3 64.7 40.3 64.7 Z M 42.0 63.0 C 42.0 63.0 42.0 63.0 42.0 63.0 C 42.0 63.0 42.0 63.0 42.0 63.0 Z M 36.5 59.8 C 38.6 59.5 36.1 60.5 36.5 59.8 C 36.5 59.8 36.5 59.8 36.5 59.8 Z M 47.4 62.0 C 47.5 62.1 47.5 62.1 47.4 62.0 C 47.4 62.0 47.4 62.0 47.4 62.0 Z M 47.9 59.8 C 48.0 59.9 48.0 59.9 47.9 59.8 C 47.9 59.8 47.9 59.8 47.9 59.8 Z M 48.0 58.7 C 48.1 58.7 48.1 58.7 48.0 58.7 C 48.0 58.7 48.0 58.7 48.0 58.7 Z M 23.3 62.3 C 23.2 62.2 23.2 62.2 23.3 62.3 C 23.3 62.3 23.3 62.3 23.3 62.3 Z M 22.4 59.0 C 22.4 59.0 22.4 59.0 22.4 59.0 C 22.4 59.0 22.4 59.0 22.4 59.0 Z M 25.3 58.9 C 25.3 58.8 25.3 58.8 25.3 58.9 C 25.3 58.9 25.3 58.9 25.3 58.9 Z M 22.8 64.3 C 22.7 64.3 22.7 64.3 22.8 64.3 C 22.8 64.3 22.8 64.3 22.8 64.3 Z M 33.4 61.5 C 33.4 61.5 33.4 61.5 33.4 61.5 C 33.4 61.5 33.4 61.5 33.4 61.5 Z M 34.4 62.8 C 34.3 62.8 34.3 62.8 34.4 62.8 C 34.4 62.8 34.4 62.8 34.4 62.8 Z M 31.9 64.6 C 31.9 64.6 31.9 64.6 31.9 64.6 C 31.9 64.6 31.9 64.6 31.9 64.6 Z M 35.2 64.0 C 35.2 64.0 35.2 64.0 35.2 64.0 C 35.2 64.0 35.2 64.0 35.2 64.0 Z M 15.1 63.1 C 15.1 63.2 15.1 63.2 15.1 63.1 C 15.1 63.1 15.1 63.1 15.1 63.1 Z M 15.5 60.6 C 15.5 60.7 15.5 60.7 15.5 60.6 C 15.5 60.6 15.5 60.6 15.5 60.6 Z M 33.7 59.7 C 34.2 59.2 34.7 60.4 33.7 59.7 M 29.7 60.0 C 29.6 60.0 29.6 60.0 29.7 60.0 C 29.7 60.0 29.7 60.0 29.7 60.0 Z M 40.6 59.8 C 41.1 60.8 38.6 59.3 40.6 59.8 C 40.6 59.8 40.6 59.8 40.6 59.8 Z M 38.4 64.0 C 38.4 64.0 38.4 64.0 38.4 64.0 C 38.4 64.0 38.4 64.0 38.4 64.0 Z M 39.5 63.6 C 39.5 63.7 39.5 63.7 39.5 63.6 C 39.5 63.6 39.5 63.6 39.5 63.6 Z M 45.3 60.8 C 45.4 60.8 45.4 60.8 45.3 60.8 M 29.2 59.1 C 29.8 59.6 29.6 59.5 29.2 59.1 M 41.9 59.8 C 41.9 59.8 41.9 59.8 41.9 59.8 C 41.9 59.8 41.9 59.8 41.9 59.8 Z M 46.4 60.0 C 46.3 60.1 46.3 60.1 46.4 60.0 C 46.4 60.0 46.4 60.0 46.4 60.0 Z M 26.3 59.8 C 26.4 61.0 25.8 60.7 26.3 59.8 M 18.3 60.1 C 18.3 60.2 18.3 60.2 18.3 60.1 C 18.3 60.1 18.3 60.1 18.3 60.1 Z M 51.1 57.0 C 48.8 57.0 49.8 58.5 49.8 58.5 C 48.8 56.2 48.6 60.2 49.2 60.5 C 49.2 60.8 53.1 64.0 53.0 60.8 C 53.2 60.3 53.9 60.8 54.2 60.6 C 56.5 58.7 52.0 60.9 54.5 58.6 C 55.2 58.4 56.3 60.4 56.6 57.9 C 56.8 57.9 58.9 56.4 57.6 56.6 C 59.0 56.2 58.5 54.9 58.7 53.9 C 59.6 53.2 60.1 55.2 60.0 51.5 C 62.1 50.5 59.2 49.4 61.2 48.1 C 61.3 47.1 58.2 45.6 59.9 47.8 C 59.7 47.5 58.2 48.6 58.8 46.1 C 59.2 46.4 62.4 47.8 60.9 43.9 C 60.9 43.2 60.1 41.7 60.5 41.4 C 60.8 43.4 61.9 38.6 60.9 39.1 C 61.6 36.0 60.1 37.8 61.2 35.5 C 61.2 33.7 59.8 36.1 60.6 33.8 C 60.4 32.1 61.2 33.3 61.2 33.4 C 61.3 31.9 60.8 31.4 60.8 30.9 C 61.0 30.5 61.6 29.8 60.8 29.5 C 59.4 27.9 57.9 29.3 56.4 28.6 C 55.7 29.8 57.6 29.1 56.4 29.9 C 57.4 30.5 56.4 30.0 56.6 33.2 C 56.8 33.1 57.4 32.4 57.5 33.1 C 57.4 34.4 54.9 33.5 56.7 35.5 C 57.2 33.1 57.5 38.9 58.0 36.7 C 58.3 39.5 57.8 37.5 57.2 39.5 C 58.9 39.4 55.4 39.7 56.8 40.4 C 56.1 40.6 56.4 43.8 57.4 41.5 C 57.8 44.8 56.9 42.7 56.0 43.9 C 55.9 45.4 58.7 44.0 56.7 45.0 C 55.7 47.0 57.7 45.1 56.1 46.5 C 57.5 45.9 56.0 47.8 57.6 47.4 C 57.6 50.7 56.1 46.8 56.8 49.1 C 57.0 48.5 55.0 48.3 56.0 49.9 C 58.5 49.9 53.4 50.8 56.8 50.9 C 56.4 55.3 55.5 51.2 54.4 53.0 C 54.2 53.5 55.7 53.0 55.4 53.4 C 53.6 55.8 54.2 53.1 54.5 55.3 C 53.0 57.9 53.0 55.1 51.9 55.9 C 52.4 56.5 52.3 58.3 51.1 57.0 M 53.5 56.0 C 53.5 55.2 54.1 56.1 53.5 56.0 M 48.4 58.5 C 48.8 57.8 48.9 58.9 48.4 58.5 M 54.5 53.9 C 54.5 52.9 55.4 54.1 54.5 53.9 M 57.4 37.7 C 57.4 38.9 57.0 37.1 57.4 37.7 M 50.3 57.5 C 50.7 56.5 51.0 58.1 50.3 57.5 M 50.0 59.1 C 50.1 59.1 50.1 59.1 50.0 59.1 M 56.1 35.9 C 56.1 35.8 56.1 35.8 56.1 35.9 M 56.1 40.7 C 56.1 39.7 56.4 41.2 56.1 40.7 M 61.5 40.8 C 61.5 39.8 61.8 41.4 61.5 40.8 M 56.0 33.3 C 55.6 32.3 56.6 33.0 56.0 33.3 M 57.2 30.6 C 56.7 29.7 57.8 30.0 57.2 30.6 M 54.4 57.7 C 54.4 57.8 54.4 57.8 54.4 57.7 C 54.4 57.7 54.4 57.7 54.4 57.7 Z M 59.9 50.5 C 59.1 51.5 60.9 49.2 59.9 50.5 M 56.1 51.0 C 57.3 50.8 55.6 52.1 56.1 51.0 C 56.1 51.0 56.1 51.0 56.1 51.0 Z M 56.1 52.5 C 56.1 52.5 56.1 52.5 56.1 52.5 C 56.1 52.5 56.1 52.5 56.1 52.5 Z M 57.3 48.2 C 57.3 48.2 57.3 48.2 57.3 48.2 C 57.3 48.2 57.3 48.2 57.3 48.2 Z M 57.3 49.1 C 57.4 49.5 57.0 49.6 57.3 49.1 C 57.3 49.1 57.3 49.1 57.3 49.1 Z M 60.9 42.1 C 61.2 42.5 60.7 42.6 60.9 42.1 C 60.9 42.1 60.9 42.1 60.9 42.1 Z M 57.3 50.6 C 58.3 51.0 56.4 51.1 57.3 50.6 C 57.3 50.6 57.3 50.6 57.3 50.6 Z M 60.4 45.5 C 60.1 45.1 61.5 44.6 60.4 45.5 M 56.3 34.9 C 56.0 34.5 57.3 34.0 56.3 34.9 M 56.0 45.4 C 55.7 44.9 57.0 44.4 56.0 45.4 M 53.4 55.3 C 53.6 55.3 53.6 55.3 53.4 55.3 M 60.4 52.7 C 60.2 51.8 61.0 52.5 60.4 52.7 M 53.3 61.2 C 53.7 60.4 53.9 61.4 53.3 61.2 M 61.4 36.4 C 61.1 36.4 61.5 35.3 61.4 36.4 M 57.7 44.1 C 57.9 43.2 58.5 42.3 58.4 44.2 C 58.1 44.3 58.0 43.7 57.7 44.1 C 57.7 44.1 57.7 44.1 57.7 44.1 Z M 60.2 40.8 C 60.3 40.7 60.3 40.7 60.2 40.8 M 56.7 42.5 C 56.8 42.4 56.8 42.4 56.7 42.5 M 56.8 37.1 C 57.0 37.0 57.0 37.0 56.8 37.1 M 56.5 36.5 C 56.6 36.5 56.6 36.5 56.5 36.5 C 56.5 36.5 56.5 36.5 56.5 36.5 Z M 56.1 30.6 C 56.1 30.6 56.1 30.6 56.1 30.6 C 56.1 30.6 56.1 30.6 56.1 30.6 Z M 57.0 38.8 C 57.0 38.9 57.0 38.9 57.0 38.8 C 57.0 38.8 57.0 38.8 57.0 38.8 Z M 61.1 34.0 C 61.2 34.0 61.2 34.0 61.1 34.0 C 61.1 34.0 61.1 34.0 61.1 34.0 Z M 60.5 34.6 C 60.5 34.6 60.5 34.6 60.5 34.6 C 60.5 34.6 60.5 34.6 60.5 34.6 Z M 51.4 56.8 C 51.4 55.8 52.8 58.1 51.4 56.8 M 60.5 32.0 C 61.2 31.2 60.6 33.4 60.5 32.0 C 60.5 32.0 60.5 32.0 60.5 32.0 Z M 57.9 39.5 C 58.0 39.4 58.0 39.4 57.9 39.5 M 56.6 36.1 C 56.8 36.1 56.8 36.1 56.6 36.1 M 55.1 50.7 C 55.3 50.7 55.3 50.7 55.1 50.7 M 56.8 32.0 C 57.1 29.5 58.4 33.1 56.8 32.0 M 55.8 52.0 C 55.7 52.0 55.7 52.0 55.8 52.0 M 58.9 47.3 C 58.9 45.5 59.5 47.9 58.9 47.3 M 57.5 43.0 C 57.6 43.0 57.6 43.0 57.5 43.0 C 57.5 43.0 57.5 43.0 57.5 43.0 Z M 57.5 45.5 C 57.7 46.7 57.2 45.8 57.5 45.5 C 57.5 45.5 57.5 45.5 57.5 45.5 Z M 52.8 57.0 C 53.9 56.1 52.0 58.2 52.8 57.0 C 52.8 57.0 52.8 57.0 52.8 57.0 Z M 59.4 33.2 C 59.5 33.2 59.5 33.2 59.4 33.2 C 59.4 33.2 59.4 33.2 59.4 33.2 Z M 56.2 39.2 C 56.5 39.9 55.9 39.5 56.2 39.2 C 56.2 39.2 56.2 39.2 56.2 39.2 Z M 56.1 29.7 C 56.4 30.5 55.8 30.1 56.1 29.7 C 56.1 29.7 56.1 29.7 56.1 29.7 Z M 51.4 57.8 C 56.6 56.4 45.6 61.3 51.4 57.8 C 51.4 57.8 51.4 57.8 51.4 57.8 Z M 56.8 44.5 C 56.8 44.5 56.8 44.5 56.8 44.5 C 56.8 44.5 56.8 44.5 56.8 44.5 Z M 54.1 53.3 C 54.2 53.4 54.2 53.4 54.1 53.3 C 54.1 53.3 54.1 53.3 54.1 53.3 Z M 54.1 55.1 C 54.1 55.2 54.1 55.2 54.1 55.1 C 54.1 55.1 54.1 55.1 54.1 55.1 Z M 57.8 57.3 C 57.8 57.4 57.8 57.4 57.8 57.3 C 57.8 57.3 57.8 57.3 57.8 57.3 Z M 56.6 55.6 C 56.6 55.8 56.6 55.8 56.6 55.6 C 56.6 55.6 56.6 55.6 56.6 55.6 Z M 54.6 59.0 C 54.6 59.1 54.6 59.1 54.6 59.0 C 54.6 59.0 54.6 59.0 54.6 59.0 Z M 55.0 59.4 C 55.0 59.4 55.0 59.4 55.0 59.4 C 55.0 59.4 55.0 59.4 55.0 59.4 Z M 57.8 36.1 C 57.9 36.2 57.9 36.2 57.8 36.1 C 57.8 36.1 57.8 36.1 57.8 36.1 Z M 59.6 38.1 C 59.0 36.8 60.5 38.5 59.6 38.1 C 59.6 38.1 59.6 38.1 59.6 38.1 Z M 58.4 50.1 C 58.4 48.9 58.7 51.1 58.4 50.1 C 58.4 50.1 58.4 50.1 58.4 50.1 Z M 60.9 49.1 C 60.9 49.1 60.9 49.1 60.9 49.1 C 60.9 49.1 60.9 49.1 60.9 49.1 Z M 53.3 54.5 C 53.3 54.6 53.3 54.6 53.3 54.5 C 53.3 54.5 53.3 54.5 53.3 54.5 Z M 52.5 56.3 C 53.1 57.0 51.8 56.4 52.5 56.3 M 56.2 47.6 C 56.3 47.7 56.3 47.7 56.2 47.6 C 56.2 47.6 56.2 47.6 56.2 47.6 Z M 57.6 40.5 C 57.7 40.5 57.7 40.5 57.6 40.5 C 57.6 40.5 57.6 40.5 57.6 40.5 Z M 57.0 33.3 C 57.1 33.4 57.1 33.4 57.0 33.3 C 57.0 33.3 57.0 33.3 57.0 33.3 Z M 56.3 43.3 C 56.4 43.3 56.4 43.3 56.3 43.3 C 56.3 43.3 56.3 43.3 56.3 43.3 Z M 57.1 46.7 C 57.2 46.7 57.2 46.7 57.1 46.7 C 57.1 46.7 57.1 46.7 57.1 46.7 Z M 58.3 31.7 C 58.3 31.8 58.3 31.8 58.3 31.7 C 58.3 31.7 58.3 31.7 58.3 31.7 Z M 56.2 42.5 C 56.2 42.5 56.2 42.5 56.2 42.5 C 56.2 42.5 56.2 42.5 56.2 42.5 Z M 59.0 40.4 C 59.1 40.4 59.1 40.4 59.0 40.4 C 59.0 40.4 59.0 40.4 59.0 40.4 Z M 51.9 55.2 C 51.9 55.3 51.9 55.3 51.9 55.2 C 51.9 55.2 51.9 55.2 51.9 55.2 Z M 57.1 31.7 C 57.1 31.7 57.1 31.7 57.1 31.7 C 57.1 31.7 57.1 31.7 57.1 31.7 Z M 56.3 31.2 C 56.3 31.2 56.3 31.2 56.3 31.2 C 56.3 31.2 56.3 31.2 56.3 31.2 Z M 60.6 36.3 C 60.1 38.9 60.4 34.0 59.4 35.9 C 59.1 32.2 60.6 35.8 60.6 36.3 C 60.6 36.3 60.6 36.3 60.6 36.3 Z M 56.0 27.8 C 57.2 29.2 58.3 29.2 59.6 28.6 C 60.2 27.9 57.8 27.9 59.8 27.9 C 60.2 29.5 62.9 27.2 60.3 27.2 C 59.9 25.1 62.0 26.9 60.9 25.6 C 60.7 23.4 61.5 24.5 61.3 22.8 C 59.8 21.8 62.0 21.8 60.6 21.3 C 62.1 22.2 60.2 19.4 60.9 19.4 C 61.8 21.0 60.3 12.5 60.4 17.2 C 59.5 15.4 60.7 15.6 60.7 14.9 C 59.6 14.3 60.3 11.5 59.0 10.9 C 58.9 11.2 59.1 11.7 58.9 12.0 C 58.5 12.5 58.4 10.8 58.5 10.9 C 57.8 10.4 55.5 8.3 58.5 10.3 C 59.2 10.1 56.7 8.3 57.3 8.0 C 55.5 5.7 55.8 8.4 55.7 6.8 C 54.3 5.3 53.0 4.6 52.9 4.7 C 52.0 3.9 52.1 3.1 50.7 3.4 C 49.1 0.9 48.3 5.6 48.2 2.4 C 47.3 2.9 47.0 0.8 46.8 2.7 C 47.8 2.0 42.5 0.8 44.7 2.4 C 44.1 2.8 41.2 0.4 41.6 2.3 C 40.6 3.7 40.8 5.1 43.0 6.5 C 42.7 5.4 45.3 7.6 43.7 5.7 C 41.8 5.1 47.0 5.4 45.8 5.9 C 45.2 8.1 48.7 5.2 48.9 7.0 C 48.6 5.9 52.2 7.3 50.4 8.2 C 50.9 8.7 51.6 8.1 51.5 9.4 C 49.9 7.9 53.3 8.6 52.5 9.3 C 51.8 9.5 53.6 12.2 54.1 11.3 C 55.3 9.0 54.2 12.2 55.3 12.3 C 56.7 13.7 53.4 12.9 55.6 13.4 C 55.5 13.9 56.3 16.1 55.3 14.9 C 55.4 14.2 58.2 15.7 56.3 16.3 C 54.7 13.9 56.0 19.5 56.6 18.5 C 57.5 14.2 57.9 23.5 56.8 19.8 C 55.7 21.9 56.3 19.2 56.8 21.8 C 57.4 21.4 58.0 23.5 56.8 23.0 C 54.9 23.4 59.3 23.7 56.7 25.3 C 55.6 25.6 57.5 28.5 56.3 27.4 C 56.2 27.3 56.0 27.7 56.0 27.8 M 56.2 26.9 C 56.6 27.2 55.7 27.4 56.2 26.9 M 56.6 27.3 C 56.6 27.3 56.6 27.3 56.6 27.3 C 56.6 27.3 56.6 27.3 56.6 27.3 Z M 56.9 22.2 C 56.8 22.2 56.8 22.2 56.9 22.2 C 56.9 22.2 56.9 22.2 56.9 22.2 Z M 61.6 17.9 C 61.5 18.0 61.5 18.0 61.6 17.9 C 61.6 17.9 61.6 17.9 61.6 17.9 Z M 57.0 18.8 C 57.0 18.8 57.0 18.8 57.0 18.8 C 57.0 18.8 57.0 18.8 57.0 18.8 Z M 57.2 24.0 C 57.2 24.0 57.2 24.0 57.2 24.0 C 57.2 24.0 57.2 24.0 57.2 24.0 Z M 56.3 19.1 C 57.0 18.8 55.8 20.3 56.2 19.0 C 56.2 19.0 56.2 19.2 56.3 19.1 M 55.5 15.4 C 55.6 15.4 55.6 15.4 55.5 15.4 M 54.4 4.7 C 54.4 4.6 54.4 4.6 54.4 4.7 M 50.5 8.8 C 50.5 8.7 50.5 8.7 50.5 8.8 M 54.6 11.9 C 53.9 10.9 54.7 11.4 54.6 11.9 M 48.1 7.2 C 49.3 8.1 46.6 7.0 48.1 7.2 M 46.7 7.2 C 46.6 7.1 46.6 7.1 46.7 7.2 M 52.2 9.9 C 52.3 9.8 52.3 9.8 52.2 9.9 C 52.2 9.9 52.2 9.9 52.2 9.9 Z M 54.6 12.4 C 55.0 13.9 53.3 11.5 54.6 12.4 M 56.2 21.6 C 55.9 20.6 57.1 21.6 56.2 21.6 M 56.6 23.6 C 56.6 23.6 56.6 23.6 56.6 23.6 C 56.6 23.6 56.6 23.6 56.6 23.6 Z M 50.1 8.2 C 50.2 8.2 50.2 8.2 50.1 8.2 C 50.1 8.2 50.1 8.2 50.1 8.2 Z M 48.7 7.6 C 48.7 7.6 48.7 7.6 48.7 7.6 C 48.7 7.6 48.7 7.6 48.7 7.6 Z M 47.1 1.6 C 47.1 1.6 47.1 1.6 47.1 1.6 C 47.1 1.6 47.1 1.6 47.1 1.6 Z M 58.8 22.1 C 58.4 23.4 57.1 20.8 58.3 21.0 C 58.9 20.9 58.6 21.9 58.8 22.1 M 56.5 12.6 C 58.0 11.6 54.9 14.8 56.5 12.6 M 46.8 6.0 C 46.1 3.7 47.9 7.8 46.8 6.0 M 44.4 6.0 C 43.7 5.6 48.7 6.2 45.2 6.4 C 44.8 6.7 44.6 6.2 44.4 6.0 M 56.3 15.1 C 57.1 14.5 56.4 17.0 56.3 15.1 M 54.6 7.1 C 53.7 7.2 52.0 6.6 53.3 6.2 C 54.1 5.1 55.6 7.3 54.6 7.1 M 57.2 26.5 C 55.6 25.4 58.5 26.5 57.2 26.5 M 57.3 21.3 C 57.2 21.3 57.2 21.3 57.3 21.3 C 57.3 21.3 57.3 21.3 57.3 21.3 Z M 57.1 19.3 C 57.2 19.2 57.2 19.2 57.1 19.3 M 55.8 25.6 C 55.9 25.5 55.9 25.5 55.8 25.6 M 53.5 8.4 C 53.5 8.2 53.5 8.2 53.5 8.4 M 55.1 11.9 C 55.5 9.6 55.9 12.5 55.1 11.9 M 59.7 15.1 C 60.2 14.3 60.1 16.4 59.7 15.1 M 52.9 10.1 C 53.2 8.2 55.1 10.3 52.9 10.1 M 55.4 12.7 C 55.4 12.7 55.4 12.7 55.4 12.7 C 55.4 12.7 55.4 12.7 55.4 12.7 Z M 54.3 6.7 C 54.3 6.7 54.3 6.7 54.3 6.7 C 54.3 6.7 54.3 6.7 54.3 6.7 Z M 53.8 6.3 C 53.8 6.3 53.8 6.3 53.8 6.3 C 53.8 6.3 53.8 6.3 53.8 6.3 Z M 51.8 9.3 C 51.8 9.3 51.8 9.3 51.8 9.3 C 51.8 9.3 51.8 9.3 51.8 9.3 Z M 60.7 23.7 C 60.8 22.3 60.9 24.8 60.7 23.7 C 60.7 23.7 60.7 23.7 60.7 23.7 Z M 56.2 17.7 C 57.2 15.6 57.5 19.0 56.2 17.7 C 56.2 17.7 56.2 17.7 56.2 17.7 Z M 57.7 15.0 C 57.7 14.9 57.7 14.9 57.7 15.0 C 57.7 15.0 57.7 15.0 57.7 15.0 Z M 52.8 11.2 C 52.8 11.2 52.8 11.2 52.8 11.2 C 52.8 11.2 52.8 11.2 52.8 11.2 Z M 60.9 23.0 C 60.9 23.0 60.9 23.0 60.9 23.0 C 60.9 23.0 60.9 23.0 60.9 23.0 Z M 49.3 6.8 C 49.4 6.7 49.4 6.7 49.3 6.8 C 49.3 6.8 49.3 6.8 49.3 6.8 Z M 57.2 9.5 C 56.4 9.4 57.5 9.1 57.2 9.5 C 57.2 9.5 57.2 9.5 57.2 9.5 Z M 55.8 7.7 C 55.7 7.7 55.7 7.7 55.8 7.7 C 55.8 7.7 55.8 7.7 55.8 7.7 Z M 46.3 7.2 C 46.2 7.2 46.2 7.2 46.3 7.2 C 46.3 7.2 46.3 7.2 46.3 7.2 Z M 51.8 3.1 C 51.8 3.1 51.8 3.1 51.8 3.1 C 51.8 3.1 51.8 3.1 51.8 3.1 Z M 49.4 3.9 C 49.4 3.9 49.4 3.9 49.4 3.9 C 49.4 3.9 49.4 3.9 49.4 3.9 Z M 52.3 9.2 C 50.7 8.2 53.0 8.9 52.3 9.2 C 52.3 9.2 52.3 9.2 52.3 9.2 Z M 43.8 3.3 C 43.7 3.2 43.7 3.2 43.8 3.3 C 43.8 3.3 43.8 3.3 43.8 3.3 Z M 42.7 5.3 C 42.7 5.3 42.7 5.3 42.7 5.3 C 42.7 5.3 42.7 5.3 42.7 5.3 Z M 42.2 6.4 C 42.1 6.3 42.1 6.3 42.2 6.4 C 42.2 6.4 42.2 6.4 42.2 6.4 Z M 59.2 19.3 C 59.2 19.4 59.2 19.4 59.2 19.3 C 59.2 19.3 59.2 19.3 59.2 19.3 Z M 56.0 20.2 C 55.9 20.2 55.9 20.2 56.0 20.2 C 56.0 20.2 56.0 20.2 56.0 20.2 Z M 55.7 17.6 C 55.7 17.6 55.7 17.6 55.7 17.6 C 55.7 17.6 55.7 17.6 55.7 17.6 Z M 61.2 19.8 C 61.2 19.9 61.2 19.9 61.2 19.8 C 61.2 19.8 61.2 19.8 61.2 19.8 Z M 55.4 10.1 C 55.4 10.1 55.4 10.1 55.4 10.1 C 55.4 10.1 55.4 10.1 55.4 10.1 Z M 55.8 8.5 C 55.8 8.5 55.8 8.5 55.8 8.5 C 55.8 8.5 55.8 8.5 55.8 8.5 Z M 58.8 9.6 C 58.8 9.6 58.8 9.6 58.8 9.6 C 58.8 9.6 58.8 9.6 58.8 9.6 Z M 56.1 7.1 C 56.1 7.1 56.1 7.1 56.1 7.1 C 56.1 7.1 56.1 7.1 56.1 7.1 Z M 60.6 27.0 C 60.7 27.0 60.7 27.0 60.6 27.0 C 60.6 27.0 60.6 27.0 60.6 27.0 Z M 58.1 27.2 C 58.2 27.2 58.2 27.2 58.1 27.2 C 58.1 27.2 58.1 27.2 58.1 27.2 Z M 53.8 11.0 C 53.1 11.0 53.8 9.9 53.8 11.0 M 55.8 13.8 C 55.9 13.8 55.9 13.8 55.8 13.8 C 55.8 13.8 55.8 13.8 55.8 13.8 Z M 49.4 7.3 C 49.4 6.3 50.6 8.5 49.4 7.3 C 49.4 7.3 49.4 7.3 49.4 7.3 Z M 53.3 4.8 C 53.3 4.7 53.3 4.7 53.3 4.8 C 53.3 4.8 53.3 4.8 53.3 4.8 Z M 52.1 4.5 C 52.1 4.4 52.1 4.4 52.1 4.5 C 52.1 4.5 52.1 4.5 52.1 4.5 Z M 45.6 5.1 C 45.5 5.0 45.5 5.0 45.6 5.1 M 55.2 14.5 C 55.4 13.9 55.4 14.0 55.2 14.5 M 48.3 6.8 C 48.4 6.8 48.4 6.8 48.3 6.8 C 48.3 6.8 48.3 6.8 48.3 6.8 Z M 44.3 5.5 C 44.4 5.5 44.4 5.5 44.3 5.5 C 44.3 5.5 44.3 5.5 44.3 5.5 Z M 56.5 16.6 C 57.7 16.3 57.5 16.9 56.5 16.6 M 57.1 24.4 C 57.2 24.4 57.2 24.4 57.1 24.4 C 57.1 24.4 57.1 24.4 57.1 24.4 Z M 38.0 6.4 C 40.1 7.7 40.2 5.9 40.2 5.8 C 39.9 8.3 42.1 4.8 41.7 4.3 C 41.8 3.9 40.1 -0.5 38.5 2.2 C 38.1 2.5 37.9 1.7 37.5 1.7 C 34.9 1.8 39.4 3.1 36.1 3.1 C 35.5 2.7 36.2 0.6 34.3 2.1 C 34.2 1.9 32.0 1.1 32.8 2.0 C 31.8 1.1 31.1 2.2 30.1 2.5 C 29.2 1.9 30.9 0.9 27.7 2.1 C 26.3 0.3 25.9 3.4 24.6 1.5 C 23.8 1.4 22.6 4.6 24.5 2.8 C 24.2 3.0 25.4 4.5 22.9 4.0 C 23.2 3.6 24.6 0.3 20.7 1.9 C 20.0 1.8 18.4 2.6 18.0 2.3 C 20.3 1.8 14.6 1.5 15.3 2.3 C 11.7 2.5 14.2 3.2 11.4 3.5 C 9.5 4.4 12.6 4.3 10.1 5.0 C 8.6 6.2 9.2 4.8 9.4 4.7 C 7.9 5.6 7.8 6.5 7.4 6.9 C 7.0 7.0 6.0 7.2 6.4 8.0 C 6.3 10.3 8.5 10.0 9.3 11.4 C 10.4 11.0 8.7 10.3 9.9 10.5 C 9.6 9.5 9.9 10.3 11.9 8.6 C 11.7 8.5 10.8 8.4 11.3 7.9 C 12.2 7.3 12.8 9.8 13.5 7.5 C 11.4 8.0 16.0 5.5 13.8 5.9 C 16.1 4.6 14.6 5.6 16.6 5.8 C 16.1 4.2 17.0 7.6 17.4 6.1 C 17.7 6.8 20.6 6.2 18.4 5.4 C 21.4 4.7 19.5 5.9 20.7 6.7 C 22.2 6.8 20.8 4.0 21.8 6.1 C 23.7 7.0 21.8 5.1 23.3 6.7 C 22.6 5.2 24.7 6.7 24.2 5.1 C 27.6 5.0 23.8 6.8 26.2 5.7 C 25.4 5.6 25.7 7.7 27.2 6.4 C 26.5 3.9 29.1 8.6 28.0 5.3 C 32.8 4.4 28.8 6.6 31.4 6.7 C 32.1 6.6 30.7 5.6 31.3 5.6 C 34.6 6.0 31.9 6.9 33.6 5.3 C 36.9 4.9 34.6 6.6 36.2 6.8 C 36.3 6.0 37.6 4.7 38.0 6.4 M 35.0 5.6 C 34.3 6.1 34.6 5.1 35.0 5.6 M 41.7 6.4 C 41.0 6.9 41.2 5.9 41.7 6.4 M 32.3 6.1 C 31.4 6.6 32.0 5.2 32.3 6.1 M 14.9 6.1 C 16.0 5.7 14.5 6.6 14.9 6.1 M 39.0 6.5 C 38.0 7.1 38.7 5.6 39.0 6.5 M 40.2 5.2 C 40.2 5.2 40.2 5.2 40.2 5.2 M 14.0 7.9 C 13.9 7.9 13.9 7.9 14.0 7.9 M 17.8 6.8 C 16.9 6.8 18.2 6.4 17.8 6.8 M 17.2 1.4 C 16.0 1.5 17.9 1.0 17.2 1.4 M 12.2 9.0 C 11.8 9.8 11.7 8.7 12.2 9.0 M 9.8 9.6 C 9.6 10.5 9.0 9.6 9.8 9.6 M 35.6 3.8 C 35.6 3.7 35.6 3.7 35.6 3.8 C 35.6 3.8 35.6 3.8 35.6 3.8 Z M 26.8 2.4 C 27.9 2.9 25.6 1.7 26.8 2.4 M 28.5 5.9 C 27.8 4.8 29.8 6.0 28.5 5.9 C 28.5 5.9 28.5 5.9 28.5 5.9 Z M 30.0 5.4 C 30.0 5.4 30.0 5.4 30.0 5.4 C 30.0 5.4 30.0 5.4 30.0 5.4 Z M 25.0 5.4 C 25.1 5.4 25.1 5.4 25.0 5.4 C 25.0 5.4 25.0 5.4 25.0 5.4 Z M 26.1 5.3 C 26.5 5.0 26.6 5.5 26.1 5.3 C 26.1 5.3 26.1 5.3 26.1 5.3 Z M 18.8 1.8 C 19.3 1.6 19.4 2.0 18.8 1.8 C 18.8 1.8 18.8 1.8 18.8 1.8 Z M 27.6 4.9 C 27.8 3.8 28.3 5.6 27.6 4.9 C 27.6 4.9 27.6 4.9 27.6 4.9 Z M 22.3 2.3 C 21.9 2.6 21.4 1.3 22.3 2.3 M 13.2 8.1 C 13.0 8.5 12.0 7.6 13.2 8.1 M 22.1 6.7 C 21.7 7.0 21.2 5.7 22.1 6.7 M 34.4 6.1 C 34.3 6.0 34.3 6.0 34.4 6.1 M 28.6 1.4 C 28.0 1.8 28.3 0.9 28.6 1.4 M 38.5 1.7 C 37.8 2.1 38.2 1.2 38.5 1.7 M 12.2 2.9 C 12.4 3.2 11.0 3.3 12.2 2.9 M 20.9 5.0 C 20.0 4.9 19.1 4.3 21.0 4.3 C 21.1 4.6 20.5 4.7 20.9 5.0 C 20.9 5.0 20.9 5.0 20.9 5.0 Z M 17.4 2.6 C 17.2 2.5 17.2 2.5 17.4 2.6 M 19.3 6.0 C 19.2 5.9 19.2 5.9 19.3 6.0 M 14.7 6.8 C 14.5 6.7 14.5 6.7 14.7 6.8 M 14.3 7.3 C 14.2 7.2 14.2 7.2 14.3 7.3 C 14.3 7.3 14.3 7.3 14.3 7.3 Z M 10.6 10.4 C 10.5 10.3 10.5 10.3 10.6 10.4 C 10.6 10.4 10.6 10.4 10.6 10.4 Z M 16.0 6.2 C 16.0 6.1 16.0 6.1 16.0 6.2 C 16.0 6.2 16.0 6.2 16.0 6.2 Z M 9.9 4.4 C 9.9 4.4 9.9 4.4 9.9 4.4 C 9.9 4.4 9.9 4.4 9.9 4.4 Z M 10.8 4.6 C 10.8 4.6 10.8 4.6 10.8 4.6 C 10.8 4.6 10.8 4.6 10.8 4.6 Z M 37.5 6.4 C 36.7 7.2 37.0 4.5 37.5 6.4 M 8.5 6.3 C 7.4 6.2 9.6 5.2 8.5 6.3 C 8.5 6.3 8.5 6.3 8.5 6.3 Z M 16.4 5.2 C 16.3 5.0 16.3 5.0 16.4 5.2 M 14.0 7.3 C 13.8 7.2 13.8 7.2 14.0 7.3 M 28.5 6.9 C 28.4 6.8 28.4 6.8 28.5 6.9 M 10.9 9.0 C 9.1 10.2 10.6 7.2 10.9 9.0 M 29.6 5.9 C 29.7 6.0 29.7 6.0 29.6 5.9 M 24.0 3.9 C 22.4 3.9 24.6 3.2 24.0 3.9 M 19.8 5.2 C 19.8 5.2 19.8 5.2 19.8 5.2 C 19.8 5.2 19.8 5.2 19.8 5.2 Z M 22.2 5.2 C 23.5 5.1 22.6 5.5 22.2 5.2 C 22.2 5.2 22.2 5.2 22.2 5.2 Z M 36.3 5.4 C 34.7 5.2 37.9 5.0 36.3 5.4 C 36.3 5.4 36.3 5.4 36.3 5.4 Z M 10.2 6.4 C 10.2 6.3 10.2 6.3 10.2 6.4 C 10.2 6.4 10.2 6.4 10.2 6.4 Z M 16.5 6.9 C 17.0 6.5 16.8 7.1 16.5 6.9 C 16.5 6.9 16.5 6.9 16.5 6.9 Z M 10.1 10.9 C 10.3 10.3 10.5 10.9 10.1 10.9 C 10.1 10.9 10.1 10.9 10.1 10.9 Z M 38.2 5.6 C 32.4 3.8 45.9 6.1 38.2 5.6 C 38.2 5.6 38.2 5.6 38.2 5.6 Z M 21.3 6.0 C 21.3 5.9 21.3 5.9 21.3 6.0 C 21.3 6.0 21.3 6.0 21.3 6.0 Z M 31.9 6.7 C 32.0 6.7 32.0 6.7 31.9 6.7 C 31.9 6.7 31.9 6.7 31.9 6.7 Z M 33.8 5.7 C 33.8 5.7 33.8 5.7 33.8 5.7 C 33.8 5.7 33.8 5.7 33.8 5.7 Z M 33.3 1.5 C 33.3 1.4 33.3 1.4 33.3 1.5 C 33.3 1.5 33.3 1.5 33.3 1.5 Z M 32.6 3.4 C 32.7 3.3 32.7 3.3 32.6 3.4 C 32.6 3.4 32.6 3.4 32.6 3.4 Z M 36.4 2.7 C 36.4 2.6 36.4 2.6 36.4 2.7 C 36.4 2.7 36.4 2.7 36.4 2.7 Z M 36.3 2.1 C 36.3 2.1 36.3 2.1 36.3 2.1 C 36.3 2.1 36.3 2.1 36.3 2.1 Z M 13.4 6.2 C 13.4 6.1 13.4 6.1 13.4 6.2 C 13.4 6.2 13.4 6.2 13.4 6.2 Z M 14.6 3.9 C 13.5 4.9 14.8 2.9 14.6 3.9 C 14.6 3.9 14.6 3.9 14.6 3.9 Z M 26.9 4.0 C 25.6 4.2 27.7 3.4 26.9 4.0 C 26.9 4.0 26.9 4.0 26.9 4.0 Z M 25.5 1.7 C 25.5 1.7 25.5 1.7 25.5 1.7 C 25.5 1.7 25.5 1.7 25.5 1.7 Z M 33.8 6.8 C 33.8 6.6 33.8 6.6 33.8 6.8 C 33.8 6.8 33.8 6.8 33.8 6.8 Z M 36.0 6.0 C 36.1 5.1 36.7 6.5 36.0 6.0 M 24.6 6.5 C 24.6 6.4 24.6 6.4 24.6 6.5 C 24.6 6.5 24.6 6.5 24.6 6.5 Z M 17.4 5.3 C 17.4 5.2 17.4 5.2 17.4 5.3 C 17.4 5.3 17.4 5.3 17.4 5.3 Z M 11.7 8.2 C 11.6 8.1 11.6 8.1 11.7 8.2 C 11.7 8.2 11.7 8.2 11.7 8.2 Z M 20.1 6.4 C 20.1 6.3 20.1 6.3 20.1 6.4 C 20.1 6.4 20.1 6.4 20.1 6.4 Z M 23.5 5.6 C 23.5 5.5 23.5 5.5 23.5 5.6 C 23.5 5.6 23.5 5.6 23.5 5.6 Z M 9.8 8.1 C 9.8 8.0 9.8 8.0 9.8 8.1 C 9.8 8.1 9.8 8.1 9.8 8.1 Z M 19.3 6.6 C 19.3 6.5 19.3 6.5 19.3 6.6 C 19.3 6.6 19.3 6.6 19.3 6.6 Z M 17.0 3.9 C 17.1 3.8 17.1 3.8 17.0 3.9 C 17.0 3.9 17.0 3.9 17.0 3.9 Z M 35.7 7.3 C 35.7 7.3 35.7 7.3 35.7 7.3 C 35.7 7.3 35.7 7.3 35.7 7.3 Z M 10.5 9.0 C 10.5 9.0 10.5 9.0 10.5 9.0 C 10.5 9.0 10.5 9.0 10.5 9.0 Z M 10.8 9.9 C 10.8 9.8 10.8 9.8 10.8 9.9 C 10.8 9.9 10.8 9.9 10.8 9.9 Z M 12.5 3.7 C 15.2 3.0 10.4 4.9 12.6 4.9 C 9.3 6.8 11.9 3.9 12.5 3.7 C 12.5 3.7 12.5 3.7 12.5 3.7 Z M 12.5 3.7 " fill="#5E317B"></path></g></g><g><clipPath id="clip-797"><path d="M 0.4 90.0 L 62.7 90.0 L 62.7 155.8 L 0.4 155.8 Z M 0.4 90.0 "></path></clipPath><g clip-path="url(#clip-797)"><path d="M 5.9 119.5 C 5.7 119.2 6.0 118.5 5.8 118.2 M 5.9 119.5 C 7.0 118.7 7.1 117.4 7.3 115.7 C 7.3 113.8 6.3 115.7 5.8 115.5 C 5.4 113.0 6.2 113.0 7.4 113.4 C 6.6 112.4 8.0 109.6 6.5 110.2 C 6.5 114.2 6.1 107.4 5.3 110.7 C 5.1 111.1 4.7 110.1 4.7 109.7 C 4.0 110.8 3.3 108.9 2.9 110.7 C 2.0 111.0 2.4 110.6 1.6 111.8 C 1.5 112.3 1.9 112.1 2.1 112.0 C 3.2 112.2 1.5 113.4 2.1 114.3 C 0.7 115.2 2.4 116.1 3.0 115.3 C 2.8 116.2 1.3 117.2 2.4 118.0 C 1.7 118.5 2.1 120.8 3.0 119.4 C 3.6 118.4 4.0 119.5 4.4 119.7 C 4.7 119.3 4.2 117.9 4.5 117.7 C 4.7 118.2 5.2 120.0 5.2 118.1 C 5.7 118.7 6.0 117.7 5.9 119.5 C 5.9 119.5 5.9 119.5 5.9 119.5 Z M 6.7 112.7 C 7.1 112.7 6.7 113.3 6.7 112.7 C 6.7 112.7 6.7 112.7 6.7 112.7 Z M 1.6 117.3 C 2.0 117.3 1.6 117.9 1.6 117.3 C 1.6 117.3 1.6 117.3 1.6 117.3 Z M 2.0 112.3 C 2.4 112.3 2.0 113.0 2.0 112.3 C 2.0 112.3 2.0 112.3 2.0 112.3 Z M 6.5 114.4 C 6.2 115.5 5.9 113.6 6.3 113.4 C 6.3 113.6 6.8 114.2 6.5 114.4 C 6.5 114.4 6.5 114.4 6.5 114.4 Z M 4.3 114.6 C 4.4 114.7 4.5 115.1 4.1 115.1 C 4.0 114.8 4.1 114.5 4.3 114.6 C 4.3 114.6 4.3 114.6 4.3 114.6 Z M 5.8 109.3 C 6.0 109.4 6.0 109.8 5.6 109.8 C 5.5 109.5 5.7 109.2 5.8 109.3 C 5.8 109.3 5.8 109.3 5.8 109.3 Z M 5.5 115.7 C 5.4 115.9 5.1 116.0 5.0 115.7 C 5.2 115.6 5.3 114.8 5.5 115.7 C 5.5 115.7 5.5 115.7 5.5 115.7 Z M 6.7 117.3 C 6.6 118.2 6.0 116.4 6.2 116.4 C 6.4 116.1 7.0 116.8 6.7 117.3 C 6.7 117.3 6.7 117.3 6.7 117.3 Z M 5.0 116.2 C 4.8 116.9 4.7 115.9 5.0 116.2 C 5.0 116.2 5.0 116.2 5.0 116.2 Z M 3.0 110.0 C 2.8 110.8 2.7 109.7 3.0 110.0 C 3.0 110.0 3.0 110.0 3.0 110.0 Z M 1.8 113.9 C 1.7 114.7 1.6 113.6 1.8 113.9 C 1.8 113.9 1.8 113.9 1.8 113.9 Z M 5.7 112.5 C 5.8 111.2 6.7 112.3 5.7 112.5 C 5.7 112.5 5.7 112.5 5.7 112.5 Z M 6.8 119.4 C 6.9 118.1 7.8 119.2 6.8 119.4 C 6.8 119.4 6.8 119.4 6.8 119.4 Z M 6.6 107.5 C 6.7 108.5 8.6 104.9 6.8 106.0 C 5.5 106.2 6.4 103.5 7.3 104.6 C 7.7 103.8 7.7 103.9 7.4 103.3 C 8.3 103.5 9.5 102.3 9.5 101.5 C 9.1 100.7 8.7 102.5 8.7 101.1 C 9.9 99.1 7.8 100.8 7.7 99.3 C 7.7 99.2 8.2 99.5 8.1 99.2 C 7.4 98.5 5.9 99.4 5.8 98.3 C 5.6 98.7 3.5 100.0 4.8 99.7 C 5.7 99.9 2.6 101.4 4.0 101.8 C 3.1 102.2 3.7 103.2 2.7 103.7 C 2.3 104.2 3.1 104.4 3.3 104.3 C 4.0 104.5 1.6 104.7 2.6 105.8 C 2.3 105.8 2.0 108.3 2.8 106.5 C 2.6 107.0 2.2 109.9 3.5 108.4 C 4.2 106.5 4.8 110.3 5.0 108.2 C 5.2 106.7 5.0 106.4 5.6 107.6 C 5.5 107.9 5.5 109.6 6.2 108.2 C 6.0 107.9 6.2 107.3 6.6 107.5 C 6.6 107.5 6.6 107.5 6.6 107.5 Z M 4.6 107.6 C 4.6 106.7 5.1 107.6 4.6 107.6 C 4.6 107.6 4.6 107.6 4.6 107.6 Z M 2.4 103.4 C 2.7 102.4 3.0 103.5 2.4 103.4 C 2.4 103.4 2.4 103.4 2.4 103.4 Z M 7.4 105.2 C 7.2 104.7 8.5 105.0 7.4 105.2 C 7.4 105.2 7.4 105.2 7.4 105.2 Z M 3.0 105.4 C 3.1 105.3 3.2 105.6 3.2 105.8 C 3.2 105.8 3.0 105.5 3.0 105.4 C 3.0 105.4 3.0 105.4 3.0 105.4 Z M 7.9 104.0 C 7.7 102.7 8.9 104.2 7.9 104.0 C 7.9 104.0 7.9 104.0 7.9 104.0 Z M 7.9 101.3 C 6.8 100.4 8.8 100.4 7.9 101.3 C 7.9 101.3 7.9 101.3 7.9 101.3 Z M 4.3 101.4 C 4.5 101.8 4.1 101.6 4.3 101.4 C 4.3 101.4 4.3 101.4 4.3 101.4 Z M 2.4 107.8 C 2.6 108.1 2.2 108.1 2.4 107.8 C 2.4 107.8 2.4 107.8 2.4 107.8 Z M 5.4 99.8 C 5.7 100.2 4.8 100.2 5.4 99.8 C 5.4 99.8 5.4 99.8 5.4 99.8 Z M 7.0 104.8 C 7.7 106.2 5.0 105.5 7.0 104.8 C 7.0 104.8 7.0 104.8 7.0 104.8 Z M 6.6 106.7 C 6.7 107.5 5.9 106.4 6.2 106.1 C 6.3 106.2 6.6 106.6 6.6 106.7 C 6.6 106.7 6.6 106.7 6.6 106.7 Z M 7.3 103.7 C 7.5 104.6 6.7 104.2 7.3 103.7 C 7.3 103.7 7.3 103.7 7.3 103.7 Z M 7.2 105.6 C 7.0 105.9 7.2 105.3 7.2 105.6 C 7.2 105.6 7.2 105.6 7.2 105.6 Z M 8.9 103.0 C 8.6 103.2 8.9 102.6 8.9 103.0 C 8.9 103.0 8.9 103.0 8.9 103.0 Z M 7.0 107.7 C 6.9 108.0 6.9 107.4 7.0 107.7 C 7.0 107.7 7.0 107.7 7.0 107.7 Z M 8.1 102.8 C 7.8 102.5 6.3 102.8 8.1 101.7 C 8.5 101.6 8.7 102.6 8.1 102.8 C 8.1 102.8 8.1 102.8 8.1 102.8 Z M 5.9 122.8 C 7.4 117.9 4.7 119.1 4.2 118.9 C 3.5 118.2 3.0 118.9 2.5 119.8 C 0.8 120.9 4.3 121.4 2.6 122.1 C 0.3 123.4 4.6 123.6 2.2 124.2 C 1.5 123.9 2.1 125.8 2.2 125.7 C 1.1 126.6 3.1 128.0 3.3 128.0 C 3.0 128.6 0.9 128.7 2.5 130.7 C 3.0 132.1 0.9 132.8 2.4 132.4 C 0.7 133.5 2.8 133.2 2.3 134.3 C 1.4 135.1 3.7 134.3 2.0 135.7 C 3.3 136.3 0.6 134.9 2.2 139.2 C 2.0 137.1 3.6 141.0 2.6 140.4 C 1.3 139.1 3.3 142.2 3.6 144.2 C 4.3 144.5 6.5 145.7 5.1 146.1 C 4.9 148.6 7.0 147.1 6.6 148.6 C 6.7 149.4 7.7 148.8 8.0 149.2 C 7.8 150.3 8.6 150.4 10.6 151.9 C 15.1 155.0 12.5 150.1 14.2 150.5 C 14.7 150.1 13.8 146.3 13.6 148.8 C 13.6 148.1 9.5 148.4 12.3 147.2 C 10.7 147.3 13.2 146.7 10.5 145.9 C 11.7 149.6 7.4 143.6 10.2 145.4 C 10.3 144.6 9.4 143.7 9.6 144.7 C 8.6 146.0 8.9 142.3 8.0 144.7 C 7.2 142.5 6.0 143.8 6.9 142.6 C 8.6 141.2 6.3 143.0 6.5 141.6 C 5.6 139.1 8.7 140.5 6.8 139.3 C 7.4 136.6 5.7 138.9 5.3 138.0 C 3.8 137.8 6.4 135.2 6.7 137.2 C 5.8 136.2 7.4 137.0 6.4 135.7 C 5.0 136.7 7.9 134.0 6.8 134.4 C 6.4 133.2 5.6 133.8 5.5 133.4 C 5.5 131.6 6.9 132.2 5.9 131.8 C 5.3 131.4 7.1 130.6 6.7 130.3 C 6.6 132.2 5.2 128.8 6.0 128.7 C 6.1 129.8 7.8 128.1 6.7 127.4 C 3.6 128.3 7.5 125.8 6.4 125.0 C 4.7 125.7 6.2 121.0 7.0 122.8 C 6.9 122.7 5.9 122.8 5.9 122.8 M 6.4 129.8 C 6.3 131.3 6.1 128.2 6.4 129.8 M 6.9 129.8 C 6.3 130.4 7.3 128.3 7.1 129.8 C 7.1 129.9 6.9 129.7 6.9 129.8 M 7.0 136.0 C 6.5 135.8 7.2 135.1 7.0 136.0 M 5.9 137.1 C 5.5 138.1 5.8 135.9 5.9 137.1 M 11.6 147.4 C 9.1 148.7 11.4 145.5 11.6 147.4 M 7.5 141.0 C 6.7 139.8 8.6 141.1 7.5 141.0 M 6.7 140.8 C 6.1 140.3 7.2 140.5 6.7 140.8 M 9.9 145.9 C 9.9 146.0 9.9 146.0 9.9 145.9 C 9.9 145.9 9.9 145.9 9.9 145.9 Z M 12.5 148.1 C 12.6 148.1 12.6 148.1 12.5 148.1 C 12.5 148.1 12.5 148.1 12.5 148.1 Z M 7.6 143.3 C 7.6 142.0 8.7 144.8 7.6 143.3 C 7.6 143.3 7.6 143.3 7.6 143.3 Z M 8.8 150.2 C 8.7 150.2 8.7 150.2 8.8 150.2 C 8.8 150.2 8.8 150.2 8.8 150.2 Z M 5.3 128.6 C 5.2 128.6 5.2 128.6 5.3 128.6 C 5.3 128.6 5.3 128.6 5.3 128.6 Z M 6.2 124.0 C 5.9 124.1 6.5 123.2 6.2 124.0 C 6.2 124.0 6.2 124.0 6.2 124.0 Z M 3.3 120.3 C 3.3 120.2 3.3 120.2 3.3 120.3 C 3.3 120.3 3.3 120.3 3.3 120.3 Z M 3.9 127.1 C 3.9 127.0 3.9 127.0 3.9 127.1 C 3.9 127.1 3.9 127.1 3.9 127.1 Z M 5.8 127.7 C 7.2 127.0 5.4 129.5 5.8 127.7 C 5.8 127.7 5.8 127.7 5.8 127.7 Z M 3.8 143.5 C 4.4 143.3 4.0 144.7 3.8 143.5 C 3.8 143.5 3.8 143.5 3.8 143.5 Z M 5.3 137.3 C 5.7 137.5 5.2 138.0 5.3 137.3 C 5.3 137.3 5.3 137.3 5.3 137.3 Z M 7.2 134.8 C 7.6 135.0 7.1 135.5 7.2 134.8 C 7.2 134.8 7.2 134.8 7.2 134.8 Z M 6.6 124.1 C 6.7 124.2 6.7 124.2 6.6 124.1 C 6.6 124.1 6.6 124.1 6.6 124.1 Z M 5.6 125.7 C 6.9 124.6 4.8 127.5 5.6 125.7 C 5.6 125.7 5.6 125.7 5.6 125.7 Z M 5.2 123.8 C 4.7 124.4 5.4 122.3 5.2 123.8 M 3.1 124.9 C 3.7 126.3 0.8 123.6 3.1 124.9 C 3.1 124.9 3.1 124.9 3.1 124.9 Z M 2.6 132.0 C 2.6 132.1 2.6 132.1 2.6 132.0 C 2.6 132.0 2.6 132.0 2.6 132.0 Z M 6.5 131.3 C 6.4 132.5 6.2 130.5 6.5 131.3 C 6.5 131.3 6.5 131.3 6.5 131.3 Z M 6.8 120.5 C 6.7 121.8 6.5 119.7 6.8 120.5 C 6.8 120.5 6.8 120.5 6.8 120.5 Z M 3.9 136.2 C 4.1 138.2 3.2 134.9 3.9 136.2 C 3.9 136.2 3.9 136.2 3.9 136.2 Z M 6.9 143.0 C 6.9 143.1 6.9 143.1 6.9 143.0 C 6.9 143.0 6.9 143.0 6.9 143.0 Z M 8.0 143.8 C 8.0 143.9 8.0 143.9 8.0 143.8 C 8.0 143.8 8.0 143.8 8.0 143.8 Z M 10.5 148.6 C 10.5 148.7 10.5 148.7 10.5 148.6 C 10.5 148.6 10.5 148.6 10.5 148.6 Z M 9.1 144.3 C 9.1 144.4 9.1 144.4 9.1 144.3 C 9.1 144.3 9.1 144.3 9.1 144.3 Z M 11.2 147.0 C 11.2 147.1 11.2 147.1 11.2 147.0 C 11.2 147.0 11.2 147.0 11.2 147.0 Z M 11.5 145.8 C 11.6 145.9 11.6 145.9 11.5 145.8 C 11.5 145.8 11.5 145.8 11.5 145.8 Z M 2.3 141.6 C 2.3 141.7 2.3 141.7 2.3 141.6 C 2.3 141.6 2.3 141.6 2.3 141.6 Z M 7.1 126.3 C 7.0 126.4 7.0 126.4 7.1 126.3 C 7.1 126.3 7.1 126.3 7.1 126.3 Z M 10.6 147.2 C 10.6 147.3 10.6 147.3 10.6 147.2 C 10.6 147.2 10.6 147.2 10.6 147.2 Z M 5.1 140.2 C 4.0 140.5 6.4 139.0 5.2 140.4 C 5.2 140.4 5.3 140.1 5.1 140.2 M 3.7 142.0 C 3.6 142.0 3.6 142.0 3.7 142.0 C 3.7 142.0 3.7 142.0 3.7 142.0 Z M 2.2 137.1 C 2.1 137.1 2.1 137.1 2.2 137.1 C 2.2 137.1 2.2 137.1 2.2 137.1 Z M 8.9 143.7 C 9.4 143.3 9.0 144.8 8.8 143.6 M 9.3 150.2 C 9.6 149.6 10.0 151.3 9.2 150.1 M 6.4 119.1 C 5.9 119.0 6.6 118.3 6.4 119.1 M 1.6 136.1 C 1.1 135.9 1.8 135.3 1.6 136.1 M 3.1 138.3 C 3.7 138.1 2.7 139.6 3.0 138.2 M 7.0 147.9 C 7.0 148.0 7.0 148.0 7.0 147.9 C 7.0 147.9 7.0 147.9 7.0 147.9 Z M 6.4 133.2 C 6.3 133.2 6.3 133.2 6.4 133.2 C 6.4 133.2 6.4 133.2 6.4 133.2 Z M 5.1 138.6 C 5.9 137.7 4.7 139.6 5.1 138.6 M 4.8 131.6 C 5.9 130.5 4.5 133.3 4.8 131.6 M 11.3 151.8 C 10.8 150.0 11.9 152.9 11.3 151.8 M 8.8 145.6 C 9.1 143.9 8.8 146.6 8.8 145.6 M 5.8 134.3 C 6.5 134.2 5.4 135.5 5.8 134.3 M 6.5 121.9 C 6.6 120.8 7.0 123.4 6.5 121.9 M 5.0 145.4 C 5.0 145.5 5.0 145.5 5.0 145.4 C 5.0 145.4 5.0 145.4 5.0 145.4 Z M 1.5 125.7 C 1.5 125.7 1.5 125.7 1.5 125.7 C 1.5 125.7 1.5 125.7 1.5 125.7 Z M 14.5 148.6 C 14.5 148.7 14.5 148.7 14.5 148.6 C 14.5 148.6 14.5 148.6 14.5 148.6 Z M 7.9 145.4 C 7.9 145.5 7.9 145.5 7.9 145.4 C 7.9 145.4 7.9 145.4 7.9 145.4 Z M 12.9 147.6 C 12.9 147.7 12.9 147.7 12.9 147.6 C 12.9 147.6 12.9 147.6 12.9 147.6 Z M 5.2 142.8 C 5.2 142.8 5.2 142.8 5.2 142.8 C 5.2 142.8 5.2 142.8 5.2 142.8 Z M 8.1 140.9 C 8.0 141.0 8.0 141.0 8.1 140.9 C 8.1 140.9 8.1 140.9 8.1 140.9 Z M 6.0 137.8 C 5.9 137.8 5.9 137.8 6.0 137.8 C 6.0 137.8 6.0 137.8 6.0 137.8 Z M 8.4 142.4 C 9.5 144.1 7.0 142.0 8.4 142.4 C 8.4 142.4 8.4 142.4 8.4 142.4 Z M 4.1 139.8 C 4.0 139.8 4.0 139.8 4.1 139.8 C 4.1 139.8 4.1 139.8 4.1 139.8 Z M 6.3 139.0 C 7.5 140.3 4.8 140.0 6.3 139.0 M 6.9 132.5 C 7.4 132.9 6.1 132.7 6.9 132.5 M 2.6 129.7 C 2.5 129.7 2.5 129.7 2.6 129.7 C 2.6 129.7 2.6 129.7 2.6 129.7 Z M 2.9 130.5 C 2.8 130.5 2.8 130.5 2.9 130.5 C 2.9 130.5 2.9 130.5 2.9 130.5 Z M 7.1 130.8 C 7.1 130.8 7.1 130.8 7.1 130.8 C 7.1 130.8 7.1 130.8 7.1 130.8 Z M 1.6 130.6 C 1.6 130.6 1.6 130.6 1.6 130.6 C 1.6 130.6 1.6 130.6 1.6 130.6 Z M 7.7 140.3 C 7.7 140.3 7.7 140.3 7.7 140.3 C 7.7 140.3 7.7 140.3 7.7 140.3 Z M 14.0 147.6 C 14.0 147.7 14.0 147.7 14.0 147.6 C 14.0 147.6 14.0 147.6 14.0 147.6 Z M 3.0 122.3 C 3.0 122.4 3.0 122.4 3.0 122.3 C 3.0 122.3 3.0 122.3 3.0 122.3 Z M 6.9 141.7 C 6.8 141.8 6.8 141.8 6.9 141.7 C 6.9 141.7 6.9 141.7 6.9 141.7 Z M 2.7 128.0 C 2.7 128.0 2.7 128.0 2.7 128.0 C 2.7 128.0 2.7 128.0 2.7 128.0 Z M 6.9 141.0 C 6.9 141.0 6.9 141.0 6.9 141.0 C 6.9 141.0 6.9 141.0 6.9 141.0 Z M 4.6 145.2 C 4.6 145.2 4.6 145.2 4.6 145.2 C 4.6 145.2 4.6 145.2 4.6 145.2 Z M 5.7 148.1 C 5.7 148.1 5.7 148.1 5.7 148.1 C 5.7 148.1 5.7 148.1 5.7 148.1 Z M 6.5 143.9 C 6.5 143.9 6.5 143.9 6.5 143.9 C 6.5 143.9 6.5 143.9 6.5 143.9 Z M 4.2 127.1 C 5.3 122.2 4.7 131.0 4.2 127.1 M 6.7 144.7 C 5.1 141.7 9.2 146.3 6.7 144.7 C 7.2 144.9 6.7 144.7 6.7 144.7 M 15.6 148.4 C 14.2 149.2 13.6 150.2 13.7 151.6 C 14.2 152.5 15.0 150.1 14.3 152.1 C 12.6 151.9 14.2 155.3 14.9 152.7 C 17.3 153.0 14.9 154.5 16.6 153.8 C 19.2 153.9 18.1 154.5 19.8 154.4 C 20.9 152.9 20.9 155.1 21.3 153.7 C 20.4 155.2 23.2 153.3 23.2 154.0 C 21.6 154.9 29.3 154.0 25.1 153.5 C 26.8 152.8 26.5 154.1 27.1 154.3 C 27.8 153.4 29.9 155.0 30.9 154.1 C 30.7 153.9 30.2 153.8 30.0 153.5 C 29.7 153.0 31.2 153.7 31.1 153.6 C 31.7 153.3 34.5 152.4 31.6 154.0 C 31.4 154.7 33.9 153.6 33.9 154.3 C 36.4 154.3 34.5 152.9 35.6 153.9 C 37.4 154.0 38.7 154.0 38.7 153.8 C 39.8 153.9 40.1 154.8 41.0 154.0 C 43.3 155.5 42.6 150.9 43.5 154.0 C 44.1 153.3 45.0 155.3 44.7 153.4 C 43.9 154.3 49.2 154.2 46.8 153.2 C 47.3 152.6 51.1 153.9 50.0 152.3 C 50.5 150.6 49.5 149.6 47.3 148.8 C 47.8 149.8 45.1 148.2 47.0 149.7 C 48.8 149.9 43.9 150.8 44.9 150.0 C 44.9 147.8 42.3 151.5 41.2 149.9 C 42.1 150.8 37.7 151.2 39.0 149.5 C 38.2 149.4 38.0 150.2 37.1 149.2 C 39.7 149.4 36.1 151.0 36.2 149.9 C 36.7 149.3 32.7 148.8 33.1 149.7 C 34.5 152.1 32.1 149.3 31.4 150.2 C 29.3 150.7 31.8 148.2 30.2 149.9 C 29.7 149.6 26.8 149.6 28.7 149.1 C 29.4 149.4 27.0 151.7 26.6 149.7 C 29.7 148.6 23.1 149.1 24.1 149.7 C 28.9 150.8 19.1 150.9 22.8 149.9 C 20.7 148.8 23.4 149.4 20.8 149.9 C 21.2 150.5 19.1 151.1 19.6 149.9 C 19.2 148.0 18.5 152.4 17.5 149.7 C 17.5 148.5 14.6 149.8 15.9 148.9 C 16.0 148.8 15.7 148.5 15.6 148.4 M 16.3 148.9 C 15.9 149.2 16.0 148.2 16.3 148.9 M 15.9 149.2 C 15.9 149.1 15.9 149.1 15.9 149.2 C 15.9 149.2 15.9 149.2 15.9 149.2 Z M 20.4 150.0 C 20.4 149.9 20.4 149.9 20.4 150.0 C 20.4 150.0 20.4 150.0 20.4 150.0 Z M 24.4 154.7 C 24.4 154.7 24.4 154.7 24.4 154.7 C 24.4 154.7 24.4 154.7 24.4 154.7 Z M 23.8 150.1 C 23.8 150.1 23.8 150.1 23.8 150.1 C 23.8 150.1 23.8 150.1 23.8 150.1 Z M 18.7 150.2 C 18.6 150.2 18.6 150.2 18.7 150.2 C 18.7 150.2 18.7 150.2 18.7 150.2 Z M 23.5 149.4 C 23.8 150.1 22.3 148.9 23.6 149.3 C 23.6 149.3 23.4 149.3 23.5 149.4 M 27.9 149.1 C 28.0 149.2 28.0 149.2 27.9 149.1 M 37.7 154.7 C 37.7 154.7 37.7 154.7 37.7 154.7 M 38.5 149.0 C 38.6 149.1 38.6 149.1 38.5 149.0 M 32.3 149.8 C 33.7 149.7 32.7 150.2 32.3 149.8 M 42.0 149.4 C 40.3 149.0 43.8 149.1 42.0 149.4 M 43.7 149.0 C 43.8 149.1 43.8 149.1 43.7 149.0 M 36.0 149.3 C 36.0 149.3 36.0 149.3 36.0 149.3 C 36.0 149.3 36.0 149.3 36.0 149.3 Z M 31.8 149.5 C 30.0 149.1 33.5 148.9 31.8 149.5 M 21.0 149.3 C 22.0 148.9 21.0 150.2 21.0 149.3 M 19.1 149.7 C 19.0 149.7 19.0 149.7 19.1 149.7 C 19.1 149.7 19.1 149.7 19.1 149.7 Z M 39.3 149.4 C 39.2 149.4 39.2 149.4 39.3 149.4 C 39.3 149.4 39.3 149.4 39.3 149.4 Z M 41.3 149.3 C 41.2 149.3 41.2 149.3 41.3 149.3 C 41.3 149.3 41.3 149.3 41.3 149.3 Z M 44.7 154.5 C 44.6 154.5 44.6 154.5 44.7 154.5 C 44.7 154.5 44.7 154.5 44.7 154.5 Z M 20.5 151.8 C 19.2 151.5 21.9 150.1 21.6 151.4 C 21.7 151.9 20.7 151.7 20.5 151.8 M 30.5 151.1 C 30.8 152.9 29.2 148.7 30.5 151.1 M 43.9 150.2 C 45.2 152.3 42.3 148.7 43.9 150.2 M 46.3 149.6 C 47.0 149.9 42.0 150.4 45.4 149.4 C 45.7 149.0 46.0 149.4 46.3 149.6 M 28.0 150.0 C 28.4 150.9 25.9 149.5 28.0 150.0 M 36.1 152.9 C 36.8 152.3 38.4 151.7 37.7 152.8 C 37.7 154.2 35.3 153.4 36.1 152.9 M 16.4 149.9 C 17.7 148.6 16.1 151.2 16.4 149.9 M 21.3 150.4 C 21.3 150.3 21.3 150.3 21.3 150.4 C 21.3 150.4 21.3 150.4 21.3 150.4 Z M 23.3 150.1 C 23.4 150.3 23.4 150.3 23.3 150.1 M 17.4 148.7 C 17.4 148.8 17.4 148.8 17.4 148.7 M 36.1 151.3 C 36.2 151.4 36.2 151.4 36.1 151.3 M 31.9 150.2 C 33.9 151.8 30.9 150.5 31.9 150.2 M 27.1 153.2 C 27.7 154.0 25.8 153.3 27.1 153.2 M 35.2 149.6 C 36.6 151.1 33.3 151.0 35.2 149.6 M 30.9 150.1 C 31.1 150.1 31.1 150.1 30.9 150.1 C 30.9 150.1 30.9 150.1 30.9 150.1 Z M 36.6 153.1 C 36.6 153.1 36.6 153.1 36.6 153.1 C 36.6 153.1 36.6 153.1 36.6 153.1 Z M 37.2 153.0 C 37.2 153.0 37.2 153.0 37.2 153.0 C 37.2 153.0 37.2 153.0 37.2 153.0 Z M 36.9 149.5 C 36.8 149.5 36.8 149.5 36.9 149.5 C 36.9 149.5 36.9 149.5 36.9 149.5 Z M 18.8 153.7 C 20.4 153.9 17.5 153.9 18.8 153.7 C 18.8 153.7 18.8 153.7 18.8 153.7 Z M 25.1 149.4 C 27.4 150.6 23.5 150.5 25.1 149.4 C 25.1 149.4 25.1 149.4 25.1 149.4 Z M 27.7 151.3 C 27.7 151.4 27.7 151.4 27.7 151.3 C 27.7 151.3 27.7 151.3 27.7 151.3 Z M 34.3 148.7 C 34.3 148.8 34.3 148.8 34.3 148.7 C 34.3 148.7 34.3 148.7 34.3 148.7 Z M 19.6 153.9 C 19.6 154.0 19.6 154.0 19.6 153.9 C 19.6 153.9 19.6 153.9 19.6 153.9 Z M 40.9 150.3 C 40.9 150.3 40.9 150.3 40.9 150.3 C 40.9 150.3 40.9 150.3 40.9 150.3 Z M 32.8 153.3 C 33.3 152.7 32.9 153.8 32.8 153.3 C 32.8 153.3 32.8 153.3 32.8 153.3 Z M 34.9 153.3 C 35.0 153.3 35.0 153.3 34.9 153.3 C 34.9 153.3 34.9 153.3 34.9 153.3 Z M 44.1 148.9 C 44.2 148.9 44.2 148.9 44.1 148.9 C 44.1 148.9 44.1 148.9 44.1 148.9 Z M 40.3 154.7 C 40.3 154.7 40.3 154.7 40.3 154.7 C 40.3 154.7 40.3 154.7 40.3 154.7 Z M 42.0 153.0 C 42.0 153.0 42.0 153.0 42.0 153.0 C 42.0 153.0 42.0 153.0 42.0 153.0 Z M 36.5 149.8 C 38.6 149.5 36.1 150.5 36.5 149.8 C 36.5 149.8 36.5 149.8 36.5 149.8 Z M 47.4 152.0 C 47.5 152.1 47.5 152.1 47.4 152.0 C 47.4 152.0 47.4 152.0 47.4 152.0 Z M 47.9 149.8 C 48.0 149.9 48.0 149.9 47.9 149.8 C 47.9 149.8 47.9 149.8 47.9 149.8 Z M 48.0 148.7 C 48.1 148.7 48.1 148.7 48.0 148.7 C 48.0 148.7 48.0 148.7 48.0 148.7 Z M 23.3 152.3 C 23.2 152.2 23.2 152.2 23.3 152.3 C 23.3 152.3 23.3 152.3 23.3 152.3 Z M 22.4 149.0 C 22.4 149.0 22.4 149.0 22.4 149.0 C 22.4 149.0 22.4 149.0 22.4 149.0 Z M 25.3 148.9 C 25.3 148.8 25.3 148.8 25.3 148.9 C 25.3 148.9 25.3 148.9 25.3 148.9 Z M 22.8 154.3 C 22.7 154.3 22.7 154.3 22.8 154.3 C 22.8 154.3 22.8 154.3 22.8 154.3 Z M 33.4 151.5 C 33.4 151.5 33.4 151.5 33.4 151.5 C 33.4 151.5 33.4 151.5 33.4 151.5 Z M 34.4 152.8 C 34.3 152.8 34.3 152.8 34.4 152.8 C 34.4 152.8 34.4 152.8 34.4 152.8 Z M 31.9 154.6 C 31.9 154.6 31.9 154.6 31.9 154.6 C 31.9 154.6 31.9 154.6 31.9 154.6 Z M 35.2 154.0 C 35.2 154.0 35.2 154.0 35.2 154.0 C 35.2 154.0 35.2 154.0 35.2 154.0 Z M 15.1 153.1 C 15.1 153.2 15.1 153.2 15.1 153.1 C 15.1 153.1 15.1 153.1 15.1 153.1 Z M 15.5 150.6 C 15.5 150.7 15.5 150.7 15.5 150.6 C 15.5 150.6 15.5 150.6 15.5 150.6 Z M 33.7 149.7 C 34.2 149.2 34.7 150.4 33.7 149.7 M 29.7 150.0 C 29.6 150.0 29.6 150.0 29.7 150.0 C 29.7 150.0 29.7 150.0 29.7 150.0 Z M 40.6 149.8 C 41.1 150.8 38.6 149.3 40.6 149.8 C 40.6 149.8 40.6 149.8 40.6 149.8 Z M 38.4 154.0 C 38.4 154.0 38.4 154.0 38.4 154.0 C 38.4 154.0 38.4 154.0 38.4 154.0 Z M 39.5 153.6 C 39.5 153.7 39.5 153.7 39.5 153.6 C 39.5 153.6 39.5 153.6 39.5 153.6 Z M 45.3 150.8 C 45.4 150.8 45.4 150.8 45.3 150.8 M 29.2 149.1 C 29.8 149.6 29.6 149.5 29.2 149.1 M 41.9 149.8 C 41.9 149.8 41.9 149.8 41.9 149.8 C 41.9 149.8 41.9 149.8 41.9 149.8 Z M 46.4 150.0 C 46.3 150.1 46.3 150.1 46.4 150.0 C 46.4 150.0 46.4 150.0 46.4 150.0 Z M 26.3 149.8 C 26.4 151.0 25.8 150.7 26.3 149.8 M 18.3 150.1 C 18.3 150.2 18.3 150.2 18.3 150.1 C 18.3 150.1 18.3 150.1 18.3 150.1 Z M 51.1 147.0 C 48.8 147.0 49.8 148.5 49.8 148.5 C 48.8 146.2 48.6 150.2 49.2 150.5 C 49.2 150.8 53.1 154.0 53.0 150.8 C 53.2 150.3 53.9 150.8 54.2 150.6 C 56.5 148.7 52.0 150.9 54.5 148.6 C 55.2 148.4 56.3 150.4 56.6 147.9 C 56.8 147.9 58.9 146.4 57.6 146.6 C 59.0 146.2 58.5 144.9 58.7 143.9 C 59.6 143.2 60.1 145.2 60.0 141.5 C 62.1 140.5 59.2 139.4 61.2 138.1 C 61.3 137.1 58.2 135.6 59.9 137.8 C 59.7 137.5 58.2 138.6 58.8 136.1 C 59.2 136.4 62.4 137.8 60.9 133.9 C 60.9 133.2 60.1 131.7 60.5 131.4 C 60.8 133.4 61.9 128.6 60.9 129.1 C 61.6 126.0 60.1 127.8 61.2 125.5 C 61.2 123.7 59.8 126.1 60.6 123.8 C 60.4 122.1 61.2 123.3 61.2 123.4 C 61.3 121.9 60.8 121.4 60.8 120.9 C 61.0 120.5 61.6 119.8 60.8 119.5 C 59.4 117.9 57.9 119.3 56.4 118.6 C 55.7 119.8 57.6 119.1 56.4 119.9 C 57.4 120.5 56.4 120.0 56.6 123.2 C 56.8 123.1 57.4 122.4 57.5 123.1 C 57.4 124.4 54.9 123.5 56.7 125.5 C 57.2 123.1 57.5 128.9 58.0 126.7 C 58.3 129.5 57.8 127.5 57.2 129.5 C 58.9 129.4 55.4 129.7 56.8 130.4 C 56.1 130.6 56.4 133.8 57.4 131.5 C 57.8 134.8 56.9 132.7 56.0 133.9 C 55.9 135.4 58.7 134.0 56.7 135.0 C 55.7 137.0 57.7 135.1 56.1 136.5 C 57.5 135.9 56.0 137.8 57.6 137.4 C 57.6 140.7 56.1 136.8 56.8 139.1 C 57.0 138.5 55.0 138.3 56.0 139.9 C 58.5 139.9 53.4 140.8 56.8 140.9 C 56.4 145.3 55.5 141.2 54.4 143.0 C 54.2 143.5 55.7 143.0 55.4 143.4 C 53.6 145.8 54.2 143.1 54.5 145.3 C 53.0 147.9 53.0 145.1 51.9 145.9 C 52.4 146.5 52.3 148.3 51.1 147.0 M 53.5 146.0 C 53.5 145.2 54.1 146.1 53.5 146.0 M 48.4 148.5 C 48.8 147.8 48.9 148.9 48.4 148.5 M 54.5 143.9 C 54.5 142.9 55.4 144.1 54.5 143.9 M 57.4 127.7 C 57.4 128.9 57.0 127.1 57.4 127.7 M 50.3 147.5 C 50.7 146.5 51.0 148.1 50.3 147.5 M 50.0 149.1 C 50.1 149.1 50.1 149.1 50.0 149.1 M 56.1 125.9 C 56.1 125.8 56.1 125.8 56.1 125.9 M 56.1 130.7 C 56.1 129.7 56.4 131.2 56.1 130.7 M 61.5 130.8 C 61.5 129.8 61.8 131.4 61.5 130.8 M 56.0 123.3 C 55.6 122.3 56.6 123.0 56.0 123.3 M 57.2 120.6 C 56.7 119.7 57.8 120.0 57.2 120.6 M 54.4 147.7 C 54.4 147.8 54.4 147.8 54.4 147.7 C 54.4 147.7 54.4 147.7 54.4 147.7 Z M 59.9 140.5 C 59.1 141.5 60.9 139.2 59.9 140.5 M 56.1 141.0 C 57.3 140.8 55.6 142.1 56.1 141.0 C 56.1 141.0 56.1 141.0 56.1 141.0 Z M 56.1 142.5 C 56.1 142.5 56.1 142.5 56.1 142.5 C 56.1 142.5 56.1 142.5 56.1 142.5 Z M 57.3 138.2 C 57.3 138.2 57.3 138.2 57.3 138.2 C 57.3 138.2 57.3 138.2 57.3 138.2 Z M 57.3 139.1 C 57.4 139.5 57.0 139.6 57.3 139.1 C 57.3 139.1 57.3 139.1 57.3 139.1 Z M 60.9 132.1 C 61.2 132.5 60.7 132.6 60.9 132.1 C 60.9 132.1 60.9 132.1 60.9 132.1 Z M 57.3 140.6 C 58.3 141.0 56.4 141.1 57.3 140.6 C 57.3 140.6 57.3 140.6 57.3 140.6 Z M 60.4 135.5 C 60.1 135.1 61.5 134.6 60.4 135.5 M 56.3 124.9 C 56.0 124.5 57.3 124.0 56.3 124.9 M 56.0 135.4 C 55.7 134.9 57.0 134.4 56.0 135.4 M 53.4 145.3 C 53.6 145.3 53.6 145.3 53.4 145.3 M 60.4 142.7 C 60.2 141.8 61.0 142.5 60.4 142.7 M 53.3 151.2 C 53.7 150.4 53.9 151.4 53.3 151.2 M 61.4 126.4 C 61.1 126.4 61.5 125.3 61.4 126.4 M 57.7 134.1 C 57.9 133.2 58.5 132.3 58.4 134.2 C 58.1 134.3 58.0 133.7 57.7 134.1 C 57.7 134.1 57.7 134.1 57.7 134.1 Z M 60.2 130.8 C 60.3 130.7 60.3 130.7 60.2 130.8 M 56.7 132.5 C 56.8 132.4 56.8 132.4 56.7 132.5 M 56.8 127.1 C 57.0 127.0 57.0 127.0 56.8 127.1 M 56.5 126.5 C 56.6 126.5 56.6 126.5 56.5 126.5 C 56.5 126.5 56.5 126.5 56.5 126.5 Z M 56.1 120.6 C 56.1 120.6 56.1 120.6 56.1 120.6 C 56.1 120.6 56.1 120.6 56.1 120.6 Z M 57.0 128.8 C 57.0 128.9 57.0 128.9 57.0 128.8 C 57.0 128.8 57.0 128.8 57.0 128.8 Z M 61.1 124.0 C 61.2 124.0 61.2 124.0 61.1 124.0 C 61.1 124.0 61.1 124.0 61.1 124.0 Z M 60.5 124.6 C 60.5 124.6 60.5 124.6 60.5 124.6 C 60.5 124.6 60.5 124.6 60.5 124.6 Z M 51.4 146.8 C 51.4 145.8 52.8 148.1 51.4 146.8 M 60.5 122.0 C 61.2 121.2 60.6 123.4 60.5 122.0 C 60.5 122.0 60.5 122.0 60.5 122.0 Z M 57.9 129.5 C 58.0 129.4 58.0 129.4 57.9 129.5 M 56.6 126.1 C 56.8 126.1 56.8 126.1 56.6 126.1 M 55.1 140.7 C 55.3 140.7 55.3 140.7 55.1 140.7 M 56.8 122.0 C 57.1 119.5 58.4 123.1 56.8 122.0 M 55.8 142.0 C 55.7 142.0 55.7 142.0 55.8 142.0 M 58.9 137.3 C 58.9 135.5 59.5 137.9 58.9 137.3 M 57.5 133.0 C 57.6 133.0 57.6 133.0 57.5 133.0 C 57.5 133.0 57.5 133.0 57.5 133.0 Z M 57.5 135.5 C 57.7 136.7 57.2 135.8 57.5 135.5 C 57.5 135.5 57.5 135.5 57.5 135.5 Z M 52.8 147.0 C 53.9 146.1 52.0 148.2 52.8 147.0 C 52.8 147.0 52.8 147.0 52.8 147.0 Z M 59.4 123.2 C 59.5 123.2 59.5 123.2 59.4 123.2 C 59.4 123.2 59.4 123.2 59.4 123.2 Z M 56.2 129.2 C 56.5 129.9 55.9 129.5 56.2 129.2 C 56.2 129.2 56.2 129.2 56.2 129.2 Z M 56.1 119.7 C 56.4 120.5 55.8 120.1 56.1 119.7 C 56.1 119.7 56.1 119.7 56.1 119.7 Z M 51.4 147.8 C 56.6 146.4 45.6 151.3 51.4 147.8 C 51.4 147.8 51.4 147.8 51.4 147.8 Z M 56.8 134.5 C 56.8 134.5 56.8 134.5 56.8 134.5 C 56.8 134.5 56.8 134.5 56.8 134.5 Z M 54.1 143.3 C 54.2 143.4 54.2 143.4 54.1 143.3 C 54.1 143.3 54.1 143.3 54.1 143.3 Z M 54.1 145.1 C 54.1 145.2 54.1 145.2 54.1 145.1 C 54.1 145.1 54.1 145.1 54.1 145.1 Z M 57.8 147.3 C 57.8 147.4 57.8 147.4 57.8 147.3 C 57.8 147.3 57.8 147.3 57.8 147.3 Z M 56.6 145.6 C 56.6 145.8 56.6 145.8 56.6 145.6 C 56.6 145.6 56.6 145.6 56.6 145.6 Z M 54.6 149.0 C 54.6 149.1 54.6 149.1 54.6 149.0 C 54.6 149.0 54.6 149.0 54.6 149.0 Z M 55.0 149.4 C 55.0 149.4 55.0 149.4 55.0 149.4 C 55.0 149.4 55.0 149.4 55.0 149.4 Z M 57.8 126.1 C 57.9 126.2 57.9 126.2 57.8 126.1 C 57.8 126.1 57.8 126.1 57.8 126.1 Z M 59.6 128.1 C 59.0 126.8 60.5 128.5 59.6 128.1 C 59.6 128.1 59.6 128.1 59.6 128.1 Z M 58.4 140.1 C 58.4 138.9 58.7 141.1 58.4 140.1 C 58.4 140.1 58.4 140.1 58.4 140.1 Z M 60.9 139.1 C 60.9 139.1 60.9 139.1 60.9 139.1 C 60.9 139.1 60.9 139.1 60.9 139.1 Z M 53.3 144.5 C 53.3 144.6 53.3 144.6 53.3 144.5 C 53.3 144.5 53.3 144.5 53.3 144.5 Z M 52.5 146.3 C 53.1 147.0 51.8 146.4 52.5 146.3 M 56.2 137.6 C 56.3 137.7 56.3 137.7 56.2 137.6 C 56.2 137.6 56.2 137.6 56.2 137.6 Z M 57.6 130.5 C 57.7 130.5 57.7 130.5 57.6 130.5 C 57.6 130.5 57.6 130.5 57.6 130.5 Z M 57.0 123.3 C 57.1 123.4 57.1 123.4 57.0 123.3 C 57.0 123.3 57.0 123.3 57.0 123.3 Z M 56.3 133.3 C 56.4 133.3 56.4 133.3 56.3 133.3 C 56.3 133.3 56.3 133.3 56.3 133.3 Z M 57.1 136.7 C 57.2 136.7 57.2 136.7 57.1 136.7 C 57.1 136.7 57.1 136.7 57.1 136.7 Z M 58.3 121.7 C 58.3 121.8 58.3 121.8 58.3 121.7 C 58.3 121.7 58.3 121.7 58.3 121.7 Z M 56.2 132.5 C 56.2 132.5 56.2 132.5 56.2 132.5 C 56.2 132.5 56.2 132.5 56.2 132.5 Z M 59.0 130.4 C 59.1 130.4 59.1 130.4 59.0 130.4 C 59.0 130.4 59.0 130.4 59.0 130.4 Z M 51.9 145.2 C 51.9 145.3 51.9 145.3 51.9 145.2 C 51.9 145.2 51.9 145.2 51.9 145.2 Z M 57.1 121.7 C 57.1 121.7 57.1 121.7 57.1 121.7 C 57.1 121.7 57.1 121.7 57.1 121.7 Z M 56.3 121.2 C 56.3 121.2 56.3 121.2 56.3 121.2 C 56.3 121.2 56.3 121.2 56.3 121.2 Z M 60.6 126.3 C 60.1 128.9 60.4 124.0 59.4 125.9 C 59.1 122.2 60.6 125.8 60.6 126.3 C 60.6 126.3 60.6 126.3 60.6 126.3 Z M 56.0 117.8 C 57.2 119.2 58.3 119.2 59.6 118.6 C 60.2 117.9 57.8 117.9 59.8 117.9 C 60.2 119.5 62.9 117.2 60.3 117.2 C 59.9 115.1 62.0 116.9 60.9 115.6 C 60.7 113.4 61.5 114.5 61.3 112.8 C 59.8 111.8 62.0 111.8 60.6 111.3 C 62.1 112.2 60.2 109.4 60.9 109.4 C 61.8 111.0 60.3 102.5 60.4 107.2 C 59.5 105.4 60.7 105.6 60.7 104.9 C 59.6 104.3 60.3 101.5 59.0 100.9 C 58.9 101.2 59.1 101.7 58.9 102.0 C 58.5 102.5 58.4 100.8 58.5 100.9 C 57.8 100.4 55.5 98.3 58.5 100.3 C 59.2 100.1 56.7 98.3 57.3 98.0 C 55.5 95.7 55.8 98.4 55.7 96.8 C 54.3 95.3 53.0 94.6 52.9 94.7 C 52.0 93.9 52.1 93.1 50.7 93.4 C 49.1 90.9 48.3 95.6 48.2 92.4 C 47.3 92.9 47.0 90.8 46.8 92.7 C 47.8 92.0 42.5 90.8 44.7 92.4 C 44.1 92.8 41.2 90.4 41.6 92.3 C 40.6 93.7 40.8 95.1 43.0 96.5 C 42.7 95.4 45.3 97.6 43.7 95.7 C 41.8 95.1 47.0 95.4 45.8 95.9 C 45.2 98.1 48.7 95.2 48.9 97.0 C 48.6 95.9 52.2 97.3 50.4 98.2 C 50.9 98.7 51.6 98.1 51.5 99.4 C 49.9 97.9 53.3 98.6 52.5 99.3 C 51.8 99.5 53.6 102.2 54.1 101.3 C 55.3 99.0 54.2 102.2 55.3 102.3 C 56.7 103.7 53.4 102.9 55.6 103.4 C 55.5 103.9 56.3 106.1 55.3 104.9 C 55.4 104.2 58.2 105.7 56.3 106.3 C 54.7 103.9 56.0 109.5 56.6 108.5 C 57.5 104.2 57.9 113.5 56.8 109.8 C 55.7 111.9 56.3 109.2 56.8 111.8 C 57.4 111.4 58.0 113.5 56.8 113.0 C 54.9 113.4 59.3 113.7 56.7 115.3 C 55.6 115.6 57.5 118.5 56.3 117.4 C 56.2 117.3 56.0 117.7 56.0 117.8 M 56.2 116.9 C 56.6 117.2 55.7 117.4 56.2 116.9 M 56.6 117.3 C 56.6 117.3 56.6 117.3 56.6 117.3 C 56.6 117.3 56.6 117.3 56.6 117.3 Z M 56.9 112.2 C 56.8 112.2 56.8 112.2 56.9 112.2 C 56.9 112.2 56.9 112.2 56.9 112.2 Z M 61.6 107.9 C 61.5 108.0 61.5 108.0 61.6 107.9 C 61.6 107.9 61.6 107.9 61.6 107.9 Z M 57.0 108.8 C 57.0 108.8 57.0 108.8 57.0 108.8 C 57.0 108.8 57.0 108.8 57.0 108.8 Z M 57.2 114.0 C 57.2 114.0 57.2 114.0 57.2 114.0 C 57.2 114.0 57.2 114.0 57.2 114.0 Z M 56.3 109.1 C 57.0 108.8 55.8 110.3 56.2 109.0 C 56.2 109.0 56.2 109.2 56.3 109.1 M 55.5 105.4 C 55.6 105.4 55.6 105.4 55.5 105.4 M 54.4 94.7 C 54.4 94.6 54.4 94.6 54.4 94.7 M 50.5 98.8 C 50.5 98.7 50.5 98.7 50.5 98.8 M 54.6 101.9 C 53.9 100.9 54.7 101.4 54.6 101.9 M 48.1 97.2 C 49.3 98.1 46.6 97.0 48.1 97.2 M 46.7 97.2 C 46.6 97.1 46.6 97.1 46.7 97.2 M 52.2 99.9 C 52.3 99.8 52.3 99.8 52.2 99.9 C 52.2 99.9 52.2 99.9 52.2 99.9 Z M 54.6 102.4 C 55.0 103.9 53.3 101.5 54.6 102.4 M 56.2 111.6 C 55.9 110.6 57.1 111.6 56.2 111.6 M 56.6 113.6 C 56.6 113.6 56.6 113.6 56.6 113.6 C 56.6 113.6 56.6 113.6 56.6 113.6 Z M 50.1 98.2 C 50.2 98.2 50.2 98.2 50.1 98.2 C 50.1 98.2 50.1 98.2 50.1 98.2 Z M 48.7 97.6 C 48.7 97.6 48.7 97.6 48.7 97.6 C 48.7 97.6 48.7 97.6 48.7 97.6 Z M 47.1 91.6 C 47.1 91.6 47.1 91.6 47.1 91.6 C 47.1 91.6 47.1 91.6 47.1 91.6 Z M 58.8 112.1 C 58.4 113.4 57.1 110.8 58.3 111.0 C 58.9 110.9 58.6 111.9 58.8 112.1 M 56.5 102.6 C 58.0 101.6 54.9 104.8 56.5 102.6 M 46.8 96.0 C 46.1 93.7 47.9 97.8 46.8 96.0 M 44.4 96.0 C 43.7 95.6 48.7 96.2 45.2 96.4 C 44.8 96.7 44.6 96.2 44.4 96.0 M 56.3 105.1 C 57.1 104.5 56.4 107.0 56.3 105.1 M 54.6 97.1 C 53.7 97.2 52.0 96.6 53.3 96.2 C 54.1 95.1 55.6 97.3 54.6 97.1 M 57.2 116.5 C 55.6 115.4 58.5 116.5 57.2 116.5 M 57.3 111.3 C 57.2 111.3 57.2 111.3 57.3 111.3 C 57.3 111.3 57.3 111.3 57.3 111.3 Z M 57.1 109.3 C 57.2 109.2 57.2 109.2 57.1 109.3 M 55.8 115.6 C 55.9 115.5 55.9 115.5 55.8 115.6 M 53.5 98.4 C 53.5 98.2 53.5 98.2 53.5 98.4 M 55.1 101.9 C 55.5 99.6 55.9 102.5 55.1 101.9 M 59.7 105.1 C 60.2 104.3 60.1 106.4 59.7 105.1 M 52.9 100.1 C 53.2 98.2 55.1 100.3 52.9 100.1 M 55.4 102.7 C 55.4 102.7 55.4 102.7 55.4 102.7 C 55.4 102.7 55.4 102.7 55.4 102.7 Z M 54.3 96.7 C 54.3 96.7 54.3 96.7 54.3 96.7 C 54.3 96.7 54.3 96.7 54.3 96.7 Z M 53.8 96.3 C 53.8 96.3 53.8 96.3 53.8 96.3 C 53.8 96.3 53.8 96.3 53.8 96.3 Z M 51.8 99.3 C 51.8 99.3 51.8 99.3 51.8 99.3 C 51.8 99.3 51.8 99.3 51.8 99.3 Z M 60.7 113.7 C 60.8 112.3 60.9 114.8 60.7 113.7 C 60.7 113.7 60.7 113.7 60.7 113.7 Z M 56.2 107.7 C 57.2 105.6 57.5 109.0 56.2 107.7 C 56.2 107.7 56.2 107.7 56.2 107.7 Z M 57.7 105.0 C 57.7 104.9 57.7 104.9 57.7 105.0 C 57.7 105.0 57.7 105.0 57.7 105.0 Z M 52.8 101.2 C 52.8 101.2 52.8 101.2 52.8 101.2 C 52.8 101.2 52.8 101.2 52.8 101.2 Z M 60.9 113.0 C 60.9 113.0 60.9 113.0 60.9 113.0 C 60.9 113.0 60.9 113.0 60.9 113.0 Z M 49.3 96.8 C 49.4 96.7 49.4 96.7 49.3 96.8 C 49.3 96.8 49.3 96.8 49.3 96.8 Z M 57.2 99.5 C 56.4 99.4 57.5 99.1 57.2 99.5 C 57.2 99.5 57.2 99.5 57.2 99.5 Z M 55.8 97.7 C 55.7 97.7 55.7 97.7 55.8 97.7 C 55.8 97.7 55.8 97.7 55.8 97.7 Z M 46.3 97.2 C 46.2 97.2 46.2 97.2 46.3 97.2 C 46.3 97.2 46.3 97.2 46.3 97.2 Z M 51.8 93.1 C 51.8 93.1 51.8 93.1 51.8 93.1 C 51.8 93.1 51.8 93.1 51.8 93.1 Z M 49.4 93.9 C 49.4 93.9 49.4 93.9 49.4 93.9 C 49.4 93.9 49.4 93.9 49.4 93.9 Z M 52.3 99.2 C 50.7 98.2 53.0 98.9 52.3 99.2 C 52.3 99.2 52.3 99.2 52.3 99.2 Z M 43.8 93.3 C 43.7 93.2 43.7 93.2 43.8 93.3 C 43.8 93.3 43.8 93.3 43.8 93.3 Z M 42.7 95.3 C 42.7 95.3 42.7 95.3 42.7 95.3 C 42.7 95.3 42.7 95.3 42.7 95.3 Z M 42.2 96.4 C 42.1 96.3 42.1 96.3 42.2 96.4 C 42.2 96.4 42.2 96.4 42.2 96.4 Z M 59.2 109.3 C 59.2 109.4 59.2 109.4 59.2 109.3 C 59.2 109.3 59.2 109.3 59.2 109.3 Z M 56.0 110.2 C 55.9 110.2 55.9 110.2 56.0 110.2 C 56.0 110.2 56.0 110.2 56.0 110.2 Z M 55.7 107.6 C 55.7 107.6 55.7 107.6 55.7 107.6 C 55.7 107.6 55.7 107.6 55.7 107.6 Z M 61.2 109.8 C 61.2 109.9 61.2 109.9 61.2 109.8 C 61.2 109.8 61.2 109.8 61.2 109.8 Z M 55.4 100.1 C 55.4 100.1 55.4 100.1 55.4 100.1 C 55.4 100.1 55.4 100.1 55.4 100.1 Z M 55.8 98.5 C 55.8 98.5 55.8 98.5 55.8 98.5 C 55.8 98.5 55.8 98.5 55.8 98.5 Z M 58.8 99.6 C 58.8 99.6 58.8 99.6 58.8 99.6 C 58.8 99.6 58.8 99.6 58.8 99.6 Z M 56.1 97.1 C 56.1 97.1 56.1 97.1 56.1 97.1 C 56.1 97.1 56.1 97.1 56.1 97.1 Z M 60.6 117.0 C 60.7 117.0 60.7 117.0 60.6 117.0 C 60.6 117.0 60.6 117.0 60.6 117.0 Z M 58.1 117.2 C 58.2 117.2 58.2 117.2 58.1 117.2 C 58.1 117.2 58.1 117.2 58.1 117.2 Z M 53.8 101.0 C 53.1 101.0 53.8 99.9 53.8 101.0 M 55.8 103.8 C 55.9 103.8 55.9 103.8 55.8 103.8 C 55.8 103.8 55.8 103.8 55.8 103.8 Z M 49.4 97.3 C 49.4 96.3 50.6 98.5 49.4 97.3 C 49.4 97.3 49.4 97.3 49.4 97.3 Z M 53.3 94.8 C 53.3 94.7 53.3 94.7 53.3 94.8 C 53.3 94.8 53.3 94.8 53.3 94.8 Z M 52.1 94.5 C 52.1 94.4 52.1 94.4 52.1 94.5 C 52.1 94.5 52.1 94.5 52.1 94.5 Z M 45.6 95.1 C 45.5 95.0 45.5 95.0 45.6 95.1 M 55.2 104.5 C 55.4 103.9 55.4 104.0 55.2 104.5 M 48.3 96.8 C 48.4 96.8 48.4 96.8 48.3 96.8 C 48.3 96.8 48.3 96.8 48.3 96.8 Z M 44.3 95.5 C 44.4 95.5 44.4 95.5 44.3 95.5 C 44.3 95.5 44.3 95.5 44.3 95.5 Z M 56.5 106.6 C 57.7 106.3 57.5 106.9 56.5 106.6 M 57.1 114.4 C 57.2 114.4 57.2 114.4 57.1 114.4 C 57.1 114.4 57.1 114.4 57.1 114.4 Z M 38.0 96.4 C 40.1 97.7 40.2 95.9 40.2 95.8 C 39.9 98.3 42.1 94.8 41.7 94.3 C 41.8 93.9 40.1 89.5 38.5 92.2 C 38.1 92.5 37.9 91.7 37.5 91.7 C 34.9 91.8 39.4 93.1 36.1 93.1 C 35.5 92.7 36.2 90.6 34.3 92.1 C 34.2 91.9 32.0 91.1 32.8 92.0 C 31.8 91.1 31.1 92.2 30.1 92.5 C 29.2 91.9 30.9 90.9 27.7 92.1 C 26.3 90.3 25.9 93.4 24.6 91.5 C 23.8 91.4 22.6 94.6 24.5 92.8 C 24.2 93.0 25.4 94.5 22.9 94.0 C 23.2 93.6 24.6 90.3 20.7 91.9 C 20.0 91.8 18.4 92.6 18.0 92.3 C 20.3 91.8 14.6 91.5 15.3 92.3 C 11.7 92.5 14.2 93.2 11.4 93.5 C 9.5 94.4 12.6 94.3 10.1 95.0 C 8.6 96.2 9.2 94.8 9.4 94.7 C 7.9 95.6 7.8 96.5 7.4 96.9 C 7.0 97.0 6.0 97.2 6.4 98.0 C 6.3 100.3 8.5 100.0 9.3 101.4 C 10.4 101.0 8.7 100.3 9.9 100.5 C 9.6 99.5 9.9 100.3 11.9 98.6 C 11.7 98.5 10.8 98.4 11.3 97.9 C 12.2 97.3 12.8 99.8 13.5 97.5 C 11.4 98.0 16.0 95.5 13.8 95.9 C 16.1 94.6 14.6 95.6 16.6 95.8 C 16.1 94.2 17.0 97.6 17.4 96.1 C 17.7 96.8 20.6 96.2 18.4 95.4 C 21.4 94.7 19.5 95.9 20.7 96.7 C 22.2 96.8 20.8 94.0 21.8 96.1 C 23.7 97.0 21.8 95.1 23.3 96.7 C 22.6 95.2 24.7 96.7 24.2 95.1 C 27.6 95.0 23.8 96.8 26.2 95.7 C 25.4 95.6 25.7 97.7 27.2 96.4 C 26.5 93.9 29.1 98.6 28.0 95.3 C 32.8 94.4 28.8 96.6 31.4 96.7 C 32.1 96.6 30.7 95.6 31.3 95.6 C 34.6 96.0 31.9 96.9 33.6 95.3 C 36.9 94.9 34.6 96.6 36.2 96.8 C 36.3 96.0 37.6 94.7 38.0 96.4 M 35.0 95.6 C 34.3 96.1 34.6 95.1 35.0 95.6 M 41.7 96.4 C 41.0 96.9 41.2 95.9 41.7 96.4 M 32.3 96.1 C 31.4 96.6 32.0 95.2 32.3 96.1 M 14.9 96.1 C 16.0 95.7 14.5 96.6 14.9 96.1 M 39.0 96.5 C 38.0 97.1 38.7 95.6 39.0 96.5 M 40.2 95.2 C 40.2 95.2 40.2 95.2 40.2 95.2 M 14.0 97.9 C 13.9 97.9 13.9 97.9 14.0 97.9 M 17.8 96.8 C 16.9 96.8 18.2 96.4 17.8 96.8 M 17.2 91.4 C 16.0 91.5 17.9 91.0 17.2 91.4 M 12.2 99.0 C 11.8 99.8 11.7 98.7 12.2 99.0 M 9.8 99.6 C 9.6 100.5 9.0 99.6 9.8 99.6 M 35.6 93.8 C 35.6 93.7 35.6 93.7 35.6 93.8 C 35.6 93.8 35.6 93.8 35.6 93.8 Z M 26.8 92.4 C 27.9 92.9 25.6 91.7 26.8 92.4 M 28.5 95.9 C 27.8 94.8 29.8 96.0 28.5 95.9 C 28.5 95.9 28.5 95.9 28.5 95.9 Z M 30.0 95.4 C 30.0 95.4 30.0 95.4 30.0 95.4 C 30.0 95.4 30.0 95.4 30.0 95.4 Z M 25.0 95.4 C 25.1 95.4 25.1 95.4 25.0 95.4 C 25.0 95.4 25.0 95.4 25.0 95.4 Z M 26.1 95.3 C 26.5 95.0 26.6 95.5 26.1 95.3 C 26.1 95.3 26.1 95.3 26.1 95.3 Z M 18.8 91.8 C 19.3 91.6 19.4 92.0 18.8 91.8 C 18.8 91.8 18.8 91.8 18.8 91.8 Z M 27.6 94.9 C 27.8 93.8 28.3 95.6 27.6 94.9 C 27.6 94.9 27.6 94.9 27.6 94.9 Z M 22.3 92.3 C 21.9 92.6 21.4 91.3 22.3 92.3 M 13.2 98.1 C 13.0 98.5 12.0 97.6 13.2 98.1 M 22.1 96.7 C 21.7 97.0 21.2 95.7 22.1 96.7 M 34.4 96.1 C 34.3 96.0 34.3 96.0 34.4 96.1 M 28.6 91.4 C 28.0 91.8 28.3 90.9 28.6 91.4 M 38.5 91.7 C 37.8 92.1 38.2 91.2 38.5 91.7 M 12.2 92.9 C 12.4 93.2 11.0 93.3 12.2 92.9 M 20.9 95.0 C 20.0 94.9 19.1 94.3 21.0 94.3 C 21.1 94.6 20.5 94.7 20.9 95.0 C 20.9 95.0 20.9 95.0 20.9 95.0 Z M 17.4 92.6 C 17.2 92.5 17.2 92.5 17.4 92.6 M 19.3 96.0 C 19.2 95.9 19.2 95.9 19.3 96.0 M 14.7 96.8 C 14.5 96.7 14.5 96.7 14.7 96.8 M 14.3 97.3 C 14.2 97.2 14.2 97.2 14.3 97.3 C 14.3 97.3 14.3 97.3 14.3 97.3 Z M 10.6 100.4 C 10.5 100.3 10.5 100.3 10.6 100.4 C 10.6 100.4 10.6 100.4 10.6 100.4 Z M 16.0 96.2 C 16.0 96.1 16.0 96.1 16.0 96.2 C 16.0 96.2 16.0 96.2 16.0 96.2 Z M 9.9 94.4 C 9.9 94.4 9.9 94.4 9.9 94.4 C 9.9 94.4 9.9 94.4 9.9 94.4 Z M 10.8 94.6 C 10.8 94.6 10.8 94.6 10.8 94.6 C 10.8 94.6 10.8 94.6 10.8 94.6 Z M 37.5 96.4 C 36.7 97.2 37.0 94.5 37.5 96.4 M 8.5 96.3 C 7.4 96.2 9.6 95.2 8.5 96.3 C 8.5 96.3 8.5 96.3 8.5 96.3 Z M 16.4 95.2 C 16.3 95.0 16.3 95.0 16.4 95.2 M 14.0 97.3 C 13.8 97.2 13.8 97.2 14.0 97.3 M 28.5 96.9 C 28.4 96.8 28.4 96.8 28.5 96.9 M 10.9 99.0 C 9.1 100.2 10.6 97.2 10.9 99.0 M 29.6 95.9 C 29.7 96.0 29.7 96.0 29.6 95.9 M 24.0 93.9 C 22.4 93.9 24.6 93.2 24.0 93.9 M 19.8 95.2 C 19.8 95.2 19.8 95.2 19.8 95.2 C 19.8 95.2 19.8 95.2 19.8 95.2 Z M 22.2 95.2 C 23.5 95.1 22.6 95.5 22.2 95.2 C 22.2 95.2 22.2 95.2 22.2 95.2 Z M 36.3 95.4 C 34.7 95.2 37.9 95.0 36.3 95.4 C 36.3 95.4 36.3 95.4 36.3 95.4 Z M 10.2 96.4 C 10.2 96.3 10.2 96.3 10.2 96.4 C 10.2 96.4 10.2 96.4 10.2 96.4 Z M 16.5 96.9 C 17.0 96.5 16.8 97.1 16.5 96.9 C 16.5 96.9 16.5 96.9 16.5 96.9 Z M 10.1 100.9 C 10.3 100.3 10.5 100.9 10.1 100.9 C 10.1 100.9 10.1 100.9 10.1 100.9 Z M 38.2 95.6 C 32.4 93.8 45.9 96.1 38.2 95.6 C 38.2 95.6 38.2 95.6 38.2 95.6 Z M 21.3 96.0 C 21.3 95.9 21.3 95.9 21.3 96.0 C 21.3 96.0 21.3 96.0 21.3 96.0 Z M 31.9 96.7 C 32.0 96.7 32.0 96.7 31.9 96.7 C 31.9 96.7 31.9 96.7 31.9 96.7 Z M 33.8 95.7 C 33.8 95.7 33.8 95.7 33.8 95.7 C 33.8 95.7 33.8 95.7 33.8 95.7 Z M 33.3 91.5 C 33.3 91.4 33.3 91.4 33.3 91.5 C 33.3 91.5 33.3 91.5 33.3 91.5 Z M 32.6 93.4 C 32.7 93.3 32.7 93.3 32.6 93.4 C 32.6 93.4 32.6 93.4 32.6 93.4 Z M 36.4 92.7 C 36.4 92.6 36.4 92.6 36.4 92.7 C 36.4 92.7 36.4 92.7 36.4 92.7 Z M 36.3 92.1 C 36.3 92.1 36.3 92.1 36.3 92.1 C 36.3 92.1 36.3 92.1 36.3 92.1 Z M 13.4 96.2 C 13.4 96.1 13.4 96.1 13.4 96.2 C 13.4 96.2 13.4 96.2 13.4 96.2 Z M 14.6 93.9 C 13.5 94.9 14.8 92.9 14.6 93.9 C 14.6 93.9 14.6 93.9 14.6 93.9 Z M 26.9 94.0 C 25.6 94.2 27.7 93.4 26.9 94.0 C 26.9 94.0 26.9 94.0 26.9 94.0 Z M 25.5 91.7 C 25.5 91.7 25.5 91.7 25.5 91.7 C 25.5 91.7 25.5 91.7 25.5 91.7 Z M 33.8 96.8 C 33.8 96.6 33.8 96.6 33.8 96.8 C 33.8 96.8 33.8 96.8 33.8 96.8 Z M 36.0 96.0 C 36.1 95.1 36.7 96.5 36.0 96.0 M 24.6 96.5 C 24.6 96.4 24.6 96.4 24.6 96.5 C 24.6 96.5 24.6 96.5 24.6 96.5 Z M 17.4 95.3 C 17.4 95.2 17.4 95.2 17.4 95.3 C 17.4 95.3 17.4 95.3 17.4 95.3 Z M 11.7 98.2 C 11.6 98.1 11.6 98.1 11.7 98.2 C 11.7 98.2 11.7 98.2 11.7 98.2 Z M 20.1 96.4 C 20.1 96.3 20.1 96.3 20.1 96.4 C 20.1 96.4 20.1 96.4 20.1 96.4 Z M 23.5 95.6 C 23.5 95.5 23.5 95.5 23.5 95.6 C 23.5 95.6 23.5 95.6 23.5 95.6 Z M 9.8 98.1 C 9.8 98.0 9.8 98.0 9.8 98.1 C 9.8 98.1 9.8 98.1 9.8 98.1 Z M 19.3 96.6 C 19.3 96.5 19.3 96.5 19.3 96.6 C 19.3 96.6 19.3 96.6 19.3 96.6 Z M 17.0 93.9 C 17.1 93.8 17.1 93.8 17.0 93.9 C 17.0 93.9 17.0 93.9 17.0 93.9 Z M 35.7 97.3 C 35.7 97.3 35.7 97.3 35.7 97.3 C 35.7 97.3 35.7 97.3 35.7 97.3 Z M 10.5 99.0 C 10.5 99.0 10.5 99.0 10.5 99.0 C 10.5 99.0 10.5 99.0 10.5 99.0 Z M 10.8 99.9 C 10.8 99.8 10.8 99.8 10.8 99.9 C 10.8 99.9 10.8 99.9 10.8 99.9 Z M 12.5 93.7 C 15.2 93.0 10.4 94.9 12.6 94.9 C 9.3 96.8 11.9 93.9 12.5 93.7 C 12.5 93.7 12.5 93.7 12.5 93.7 Z M 12.5 93.7 " fill="#5E317B"></path></g></g></g></svg>