<?xml version="1.0" encoding="UTF-8" standalone="no"?><svg xmlns="http://www.w3.org/2000/svg" xmlns:xlink="http://www.w3.org/1999/xlink" clip-rule="evenodd" stroke-miterlimit="4.00" viewBox="0 0 484 72"><desc>SVG generated by Keynote</desc><defs></defs><g transform="matrix(1.00, 0.00, -0.00, -1.00, 0.0, 72.0)"><g><clipPath id="clip-233"><path d="M 0.8 0.7 L 105.8 0.7 L 105.8 71.4 L 0.8 71.4 Z M 0.8 0.7 "></path></clipPath><g clip-path="url(#clip-233)"><path d="M 26.2 68.9 L 80.4 68.9 C 87.0 68.9 90.3 68.9 93.8 67.8 C 97.7 66.3 100.8 63.3 102.2 59.4 C 103.3 55.9 103.3 52.5 103.3 45.8 L 103.3 26.1 C 103.3 19.6 103.3 16.2 102.2 12.7 C 100.8 8.8 97.7 5.8 93.8 4.3 C 90.3 3.2 87.0 3.2 80.3 3.2 L 26.2 3.2 C 19.7 3.2 16.3 3.2 12.8 4.3 C 8.9 5.8 5.8 8.8 4.4 12.7 C 3.3 16.2 3.3 19.6 3.3 26.2 L 3.3 45.9 C 3.3 52.5 3.3 55.9 4.4 59.4 C 5.8 63.3 8.9 66.3 12.8 67.8 C 16.3 68.9 19.7 68.9 26.3 68.9 Z M 26.2 68.9 " fill="#51A7F9"></path><path d="M 22.9 0.0 L 77.1 0.0 C 83.6 0.0 87.0 0.0 90.5 1.1 C 94.4 2.5 97.5 5.6 98.9 9.5 C 100.0 13.0 100.0 16.4 100.0 23.0 L 100.0 42.7 C 100.0 49.3 100.0 52.6 98.9 56.2 C 97.5 60.1 94.4 63.1 90.5 64.5 C 87.0 65.7 83.6 65.7 77.0 65.7 L 22.9 65.7 C 16.4 65.7 13.0 65.7 9.5 64.5 C 5.6 63.1 2.5 60.1 1.1 56.2 C 0.0 52.6 0.0 49.3 0.0 42.6 L 0.0 22.9 C 0.0 16.4 0.0 13.0 1.1 9.5 C 2.5 5.6 5.6 2.5 9.5 1.1 C 13.0 0.0 16.4 0.0 23.0 0.0 Z M 22.9 0.0 " fill="none" stroke="#000000" stroke-width="3.00" transform="matrix(1.00, 0.00, 0.00, -1.00, 3.3, 68.9)"></path></g></g><g><clipPath id="clip-234"><path d="M 2.8 3.2 L 103.8 3.2 L 103.8 68.9 L 2.8 68.9 Z M 2.8 3.2 "></path></clipPath><g clip-path="url(#clip-234)"><text xml:space="preserve" font-family="Helvetica-Bold" font-weight="bold" font-size="24.0" fill="#FEFFFF" transform="matrix(1.00, 0.00, -0.00, -1.00, 21.0, 27.0)">r</text><text xml:space="preserve" font-family="Helvetica-Bold" font-weight="bold" font-size="24.0" fill="#FEFFFF" transform="matrix(1.00, 0.00, -0.00, -1.00, 30.3, 27.0)">a</text><text xml:space="preserve" font-family="Helvetica-Bold" font-weight="bold" font-size="24.0" fill="#FEFFFF" transform="matrix(1.00, 0.00, -0.00, -1.00, 43.7, 27.0)">n</text><text xml:space="preserve" font-family="Helvetica-Bold" font-weight="bold" font-size="24.0" fill="#FEFFFF" transform="matrix(1.00, 0.00, -0.00, -1.00, 58.4, 27.0)">k</text><text xml:space="preserve" font-family="Helvetica-Bold" font-weight="bold" font-size="24.0" fill="#FEFFFF" transform="matrix(1.00, 0.00, -0.00, -1.00, 71.7, 27.0)">s</text></g></g><g><clipPath id="clip-235"><path d="M 100.9 28.4 L 192.4 28.4 L 192.4 43.6 L 100.9 43.6 Z M 100.9 28.4 "></path></clipPath><g clip-path="url(#clip-235)"><path d="M 0.0 0.0 L 76.3 0.0 L 77.8 0.0 " fill="none" stroke="#000000" stroke-width="3.00" transform="matrix(1.00, 0.00, 0.00, -1.00, 101.9, 36.0)"></path><path d="M 178.2 29.4 L 191.4 36.0 L 178.2 42.6 Z M 178.2 29.4 " fill="#000000"></path></g></g><g><clipPath id="clip-236"><path d="M 189.7 0.7 L 294.7 0.7 L 294.7 71.4 L 189.7 71.4 Z M 189.7 0.7 "></path></clipPath><g clip-path="url(#clip-236)"><path d="M 215.2 68.9 L 269.3 68.9 C 275.9 68.9 279.2 68.9 282.8 67.8 C 286.7 66.3 289.7 63.3 291.1 59.4 C 292.2 55.9 292.2 52.5 292.2 45.8 L 292.2 26.1 C 292.2 19.6 292.2 16.2 291.1 12.7 C 289.7 8.8 286.7 5.8 282.8 4.3 C 279.2 3.2 275.9 3.2 269.2 3.2 L 215.2 3.2 C 208.6 3.2 205.3 3.2 201.7 4.3 C 197.8 5.8 194.8 8.8 193.4 12.7 C 192.2 16.2 192.2 19.6 192.2 26.2 L 192.2 45.9 C 192.2 52.5 192.2 55.9 193.4 59.4 C 194.8 63.3 197.8 66.3 201.7 67.8 C 205.3 68.9 208.6 68.9 215.3 68.9 Z M 215.2 68.9 " fill="#51A7F9"></path><path d="M 22.9 0.0 L 77.1 0.0 C 83.6 0.0 87.0 0.0 90.5 1.1 C 94.4 2.5 97.5 5.6 98.9 9.5 C 100.0 13.0 100.0 16.4 100.0 23.0 L 100.0 42.7 C 100.0 49.3 100.0 52.6 98.9 56.2 C 97.5 60.1 94.4 63.1 90.5 64.5 C 87.0 65.7 83.6 65.7 77.0 65.7 L 22.9 65.7 C 16.4 65.7 13.0 65.7 9.5 64.5 C 5.6 63.1 2.5 60.1 1.1 56.2 C 0.0 52.6 0.0 49.3 0.0 42.6 L 0.0 22.9 C 0.0 16.4 0.0 13.0 1.1 9.5 C 2.5 5.6 5.6 2.5 9.5 1.1 C 13.0 0.0 16.4 0.0 23.0 0.0 Z M 22.9 0.0 " fill="none" stroke="#000000" stroke-width="3.00" transform="matrix(1.00, 0.00, 0.00, -1.00, 192.2, 68.9)"></path></g></g><g><clipPath id="clip-237"><path d="M 191.8 3.2 L 292.7 3.2 L 292.7 68.9 L 191.8 68.9 Z M 191.8 3.2 "></path></clipPath><g clip-path="url(#clip-237)"><text xml:space="preserve" font-family="Helvetica-Bold" font-weight="bold" font-size="24.0" fill="#FEFFFF" transform="matrix(1.00, 0.00, -0.00, -1.00, 208.0, 27.0)">e</text><text xml:space="preserve" font-family="Helvetica-Bold" font-weight="bold" font-size="24.0" fill="#FEFFFF" transform="matrix(1.00, 0.00, -0.00, -1.00, 221.4, 27.0)">d</text><text xml:space="preserve" font-family="Helvetica-Bold" font-weight="bold" font-size="24.0" fill="#FEFFFF" transform="matrix(1.00, 0.00, -0.00, -1.00, 236.0, 27.0)">g</text><text xml:space="preserve" font-family="Helvetica-Bold" font-weight="bold" font-size="24.0" fill="#FEFFFF" transform="matrix(1.00, 0.00, -0.00, -1.00, 250.7, 27.0)">e</text><text xml:space="preserve" font-family="Helvetica-Bold" font-weight="bold" font-size="24.0" fill="#FEFFFF" transform="matrix(1.00, 0.00, -0.00, -1.00, 264.0, 27.0)">s</text></g></g><g><clipPath id="clip-238"><path d="M 289.3 28.4 L 380.8 28.4 L 380.8 43.6 L 289.3 43.6 Z M 289.3 28.4 "></path></clipPath><g clip-path="url(#clip-238)"><path d="M 0.0 0.0 L 76.3 0.0 L 77.8 0.0 " fill="none" stroke="#000000" stroke-width="3.00" transform="matrix(1.00, 0.00, 0.00, -1.00, 290.3, 36.0)"></path><path d="M 366.6 29.4 L 379.8 36.0 L 366.6 42.6 Z M 366.6 29.4 " fill="#000000"></path></g></g><g><clipPath id="clip-239"><path d="M 378.2 0.7 L 483.2 0.7 L 483.2 71.4 L 378.2 71.4 Z M 378.2 0.7 "></path></clipPath><g clip-path="url(#clip-239)"><path d="M 403.6 68.9 L 457.8 68.9 C 464.3 68.9 467.7 68.9 471.2 67.8 C 475.1 66.3 478.2 63.3 479.6 59.4 C 480.7 55.9 480.7 52.5 480.7 45.8 L 480.7 26.1 C 480.7 19.6 480.7 16.2 479.6 12.7 C 478.2 8.8 475.1 5.8 471.2 4.3 C 467.7 3.2 464.3 3.2 457.7 3.2 L 403.6 3.2 C 397.0 3.2 393.7 3.2 390.2 4.3 C 386.3 5.8 383.2 8.8 381.8 12.7 C 380.7 16.2 380.7 19.6 380.7 26.2 L 380.7 45.9 C 380.7 52.5 380.7 55.9 381.8 59.4 C 383.2 63.3 386.3 66.3 390.2 67.8 C 393.7 68.9 397.0 68.9 403.7 68.9 Z M 403.6 68.9 " fill="#51A7F9"></path><path d="M 22.9 0.0 L 77.1 0.0 C 83.6 0.0 87.0 0.0 90.5 1.1 C 94.4 2.5 97.5 5.6 98.9 9.5 C 100.0 13.0 100.0 16.4 100.0 23.0 L 100.0 42.7 C 100.0 49.3 100.0 52.6 98.9 56.2 C 97.5 60.1 94.4 63.1 90.5 64.5 C 87.0 65.7 83.6 65.7 77.0 65.7 L 22.9 65.7 C 16.4 65.7 13.0 65.7 9.5 64.5 C 5.6 63.1 2.5 60.1 1.1 56.2 C 0.0 52.6 0.0 49.3 0.0 42.6 L 0.0 22.9 C 0.0 16.4 0.0 13.0 1.1 9.5 C 2.5 5.6 5.6 2.5 9.5 1.1 C 13.0 0.0 16.4 0.0 23.0 0.0 Z M 22.9 0.0 " fill="none" stroke="#000000" stroke-width="3.00" transform="matrix(1.00, 0.00, 0.00, -1.00, 380.7, 68.9)"></path></g></g><g><clipPath id="clip-240"><path d="M 380.2 3.2 L 481.2 3.2 L 481.2 68.9 L 380.2 68.9 Z M 380.2 3.2 "></path></clipPath><g clip-path="url(#clip-240)"><text xml:space="preserve" font-family="Helvetica-Bold" font-weight="bold" font-size="24.0" fill="#FEFFFF" transform="matrix(1.00, 0.00, -0.00, -1.00, 405.0, 27.0)">a</text><text xml:space="preserve" font-family="Helvetica-Bold" font-weight="bold" font-size="24.0" fill="#FEFFFF" transform="matrix(1.00, 0.00, -0.00, -1.00, 418.4, 27.0)">g</text><text xml:space="preserve" font-family="Helvetica-Bold" font-weight="bold" font-size="24.0" fill="#FEFFFF" transform="matrix(1.00, 0.00, -0.00, -1.00, 433.0, 27.0)">g</text><text xml:space="preserve" font-family="Helvetica-Bold" font-weight="bold" font-size="24.0" fill="#FEFFFF" transform="matrix(1.00, 0.00, -0.00, -1.00, 447.7, 27.0)">r</text></g></g></g></svg>