<?xml version="1.0" encoding="UTF-8" standalone="no"?><svg xmlns="http://www.w3.org/2000/svg" xmlns:xlink="http://www.w3.org/1999/xlink" clip-rule="evenodd" stroke-miterlimit="4.00" viewBox="0 0 484 72"><desc>SVG generated by Keynote</desc><defs></defs><g transform="matrix(1.00, 0.00, -0.00, -1.00, 0.0, 72.0)"><g><clipPath id="clip-223"><path d="M 0.8 0.3 L 105.8 0.3 L 105.8 71.0 L 0.8 71.0 Z M 0.8 0.3 "></path></clipPath><g clip-path="url(#clip-223)"><path d="M 26.2 68.5 L 80.4 68.5 C 87.0 68.5 90.3 68.5 93.8 67.4 C 97.7 66.0 100.8 62.9 102.2 59.0 C 103.3 55.5 103.3 52.2 103.3 45.5 L 103.3 25.8 C 103.3 19.2 103.3 15.9 102.2 12.3 C 100.8 8.4 97.7 5.4 93.8 4.0 C 90.3 2.8 87.0 2.8 80.3 2.8 L 26.2 2.8 C 19.7 2.8 16.3 2.8 12.8 4.0 C 8.9 5.4 5.8 8.4 4.4 12.3 C 3.3 15.9 3.3 19.2 3.3 25.9 L 3.3 45.6 C 3.3 52.2 3.3 55.5 4.4 59.0 C 5.8 62.9 8.9 66.0 12.8 67.4 C 16.3 68.5 19.7 68.5 26.3 68.5 Z M 26.2 68.5 " fill="#51A7F9"></path><path d="M 22.9 0.0 L 77.1 0.0 C 83.6 0.0 87.0 0.0 90.5 1.1 C 94.4 2.5 97.5 5.6 98.9 9.5 C 100.0 13.0 100.0 16.4 100.0 23.0 L 100.0 42.7 C 100.0 49.3 100.0 52.6 98.9 56.2 C 97.5 60.1 94.4 63.1 90.5 64.5 C 87.0 65.7 83.6 65.7 77.0 65.7 L 22.9 65.7 C 16.4 65.7 13.0 65.7 9.5 64.5 C 5.6 63.1 2.5 60.1 1.1 56.2 C 0.0 52.6 0.0 49.3 0.0 42.6 L 0.0 22.9 C 0.0 16.4 0.0 13.0 1.1 9.5 C 2.5 5.6 5.6 2.5 9.5 1.1 C 13.0 0.0 16.4 0.0 23.0 0.0 Z M 22.9 0.0 " fill="none" stroke="#000000" stroke-width="3.00" transform="matrix(1.00, 0.00, 0.00, -1.00, 3.3, 68.5)"></path></g></g><g><clipPath id="clip-224"><path d="M 2.8 2.8 L 103.8 2.8 L 103.8 68.5 L 2.8 68.5 Z M 2.8 2.8 "></path></clipPath><g clip-path="url(#clip-224)"><text xml:space="preserve" font-family="Helvetica-Bold" font-weight="bold" font-size="24.0" fill="#FEFFFF" transform="matrix(1.00, 0.00, -0.00, -1.00, 21.0, 27.0)">r</text><text xml:space="preserve" font-family="Helvetica-Bold" font-weight="bold" font-size="24.0" fill="#FEFFFF" transform="matrix(1.00, 0.00, -0.00, -1.00, 30.3, 27.0)">a</text><text xml:space="preserve" font-family="Helvetica-Bold" font-weight="bold" font-size="24.0" fill="#FEFFFF" transform="matrix(1.00, 0.00, -0.00, -1.00, 43.7, 27.0)">n</text><text xml:space="preserve" font-family="Helvetica-Bold" font-weight="bold" font-size="24.0" fill="#FEFFFF" transform="matrix(1.00, 0.00, -0.00, -1.00, 58.4, 27.0)">k</text><text xml:space="preserve" font-family="Helvetica-Bold" font-weight="bold" font-size="24.0" fill="#FEFFFF" transform="matrix(1.00, 0.00, -0.00, -1.00, 71.7, 27.0)">s</text></g></g><g><clipPath id="clip-225"><path d="M 100.9 28.1 L 192.4 28.1 L 192.4 43.3 L 100.9 43.3 Z M 100.9 28.1 "></path></clipPath><g clip-path="url(#clip-225)"><path d="M 0.0 0.0 L 76.3 0.0 L 77.8 0.0 " fill="none" stroke="#000000" stroke-width="3.00" transform="matrix(1.00, 0.00, 0.00, -1.00, 101.9, 35.7)"></path><path d="M 178.2 29.1 L 191.4 35.7 L 178.2 42.3 Z M 178.2 29.1 " fill="#000000"></path></g></g><g><clipPath id="clip-226"><path d="M 189.7 0.3 L 294.7 0.3 L 294.7 71.0 L 189.7 71.0 Z M 189.7 0.3 "></path></clipPath><g clip-path="url(#clip-226)"><path d="M 215.2 68.5 L 269.3 68.5 C 275.9 68.5 279.2 68.5 282.8 67.4 C 286.7 66.0 289.7 62.9 291.1 59.0 C 292.2 55.5 292.2 52.2 292.2 45.5 L 292.2 25.8 C 292.2 19.2 292.2 15.9 291.1 12.3 C 289.7 8.4 286.7 5.4 282.8 4.0 C 279.2 2.8 275.9 2.8 269.2 2.8 L 215.2 2.8 C 208.6 2.8 205.3 2.8 201.7 4.0 C 197.8 5.4 194.8 8.4 193.4 12.3 C 192.2 15.9 192.2 19.2 192.2 25.9 L 192.2 45.6 C 192.2 52.2 192.2 55.5 193.4 59.0 C 194.8 62.9 197.8 66.0 201.7 67.4 C 205.3 68.5 208.6 68.5 215.3 68.5 Z M 215.2 68.5 " fill="#51A7F9"></path><path d="M 22.9 0.0 L 77.1 0.0 C 83.6 0.0 87.0 0.0 90.5 1.1 C 94.4 2.5 97.5 5.6 98.9 9.5 C 100.0 13.0 100.0 16.4 100.0 23.0 L 100.0 42.7 C 100.0 49.3 100.0 52.6 98.9 56.2 C 97.5 60.1 94.4 63.1 90.5 64.5 C 87.0 65.7 83.6 65.7 77.0 65.7 L 22.9 65.7 C 16.4 65.7 13.0 65.7 9.5 64.5 C 5.6 63.1 2.5 60.1 1.1 56.2 C 0.0 52.6 0.0 49.3 0.0 42.6 L 0.0 22.9 C 0.0 16.4 0.0 13.0 1.1 9.5 C 2.5 5.6 5.6 2.5 9.5 1.1 C 13.0 0.0 16.4 0.0 23.0 0.0 Z M 22.9 0.0 " fill="none" stroke="#000000" stroke-width="3.00" transform="matrix(1.00, 0.00, 0.00, -1.00, 192.2, 68.5)"></path></g></g><g><clipPath id="clip-227"><path d="M 191.8 2.8 L 292.7 2.8 L 292.7 68.5 L 191.8 68.5 Z M 191.8 2.8 "></path></clipPath><g clip-path="url(#clip-227)"><text xml:space="preserve" font-family="Helvetica-Bold" font-weight="bold" font-size="24.0" fill="#FEFFFF" transform="matrix(1.00, 0.00, -0.00, -1.00, 208.0, 27.0)">e</text><text xml:space="preserve" font-family="Helvetica-Bold" font-weight="bold" font-size="24.0" fill="#FEFFFF" transform="matrix(1.00, 0.00, -0.00, -1.00, 221.4, 27.0)">d</text><text xml:space="preserve" font-family="Helvetica-Bold" font-weight="bold" font-size="24.0" fill="#FEFFFF" transform="matrix(1.00, 0.00, -0.00, -1.00, 236.0, 27.0)">g</text><text xml:space="preserve" font-family="Helvetica-Bold" font-weight="bold" font-size="24.0" fill="#FEFFFF" transform="matrix(1.00, 0.00, -0.00, -1.00, 250.7, 27.0)">e</text><text xml:space="preserve" font-family="Helvetica-Bold" font-weight="bold" font-size="24.0" fill="#FEFFFF" transform="matrix(1.00, 0.00, -0.00, -1.00, 264.0, 27.0)">s</text></g></g><g><clipPath id="clip-228"><path d="M 289.3 28.1 L 380.8 28.1 L 380.8 43.3 L 289.3 43.3 Z M 289.3 28.1 "></path></clipPath><g clip-path="url(#clip-228)"><path d="M 0.0 0.0 L 76.3 0.0 L 77.8 0.0 " fill="none" stroke="#000000" stroke-width="3.00" transform="matrix(1.00, 0.00, 0.00, -1.00, 290.3, 35.7)"></path><path d="M 366.6 29.1 L 379.8 35.7 L 366.6 42.3 Z M 366.6 29.1 " fill="#000000"></path></g></g><g><clipPath id="clip-229"><path d="M 378.2 0.3 L 483.2 0.3 L 483.2 71.0 L 378.2 71.0 Z M 378.2 0.3 "></path></clipPath><g clip-path="url(#clip-229)"><path d="M 403.6 68.5 L 457.8 68.5 C 464.3 68.5 467.7 68.5 471.2 67.4 C 475.1 66.0 478.2 62.9 479.6 59.0 C 480.7 55.5 480.7 52.2 480.7 45.5 L 480.7 25.8 C 480.7 19.2 480.7 15.9 479.6 12.3 C 478.2 8.4 475.1 5.4 471.2 4.0 C 467.7 2.8 464.3 2.8 457.7 2.8 L 403.6 2.8 C 397.0 2.8 393.7 2.8 390.2 4.0 C 386.3 5.4 383.2 8.4 381.8 12.3 C 380.7 15.9 380.7 19.2 380.7 25.9 L 380.7 45.6 C 380.7 52.2 380.7 55.5 381.8 59.0 C 383.2 62.9 386.3 66.0 390.2 67.4 C 393.7 68.5 397.0 68.5 403.7 68.5 Z M 403.6 68.5 " fill="#51A7F9"></path><path d="M 22.9 0.0 L 77.1 0.0 C 83.6 0.0 87.0 0.0 90.5 1.1 C 94.4 2.5 97.5 5.6 98.9 9.5 C 100.0 13.0 100.0 16.4 100.0 23.0 L 100.0 42.7 C 100.0 49.3 100.0 52.6 98.9 56.2 C 97.5 60.1 94.4 63.1 90.5 64.5 C 87.0 65.7 83.6 65.7 77.0 65.7 L 22.9 65.7 C 16.4 65.7 13.0 65.7 9.5 64.5 C 5.6 63.1 2.5 60.1 1.1 56.2 C 0.0 52.6 0.0 49.3 0.0 42.6 L 0.0 22.9 C 0.0 16.4 0.0 13.0 1.1 9.5 C 2.5 5.6 5.6 2.5 9.5 1.1 C 13.0 0.0 16.4 0.0 23.0 0.0 Z M 22.9 0.0 " fill="none" stroke="#000000" stroke-width="3.00" transform="matrix(1.00, 0.00, 0.00, -1.00, 380.7, 68.5)"></path></g></g><g><clipPath id="clip-230"><path d="M 380.2 2.8 L 481.2 2.8 L 481.2 68.5 L 380.2 68.5 Z M 380.2 2.8 "></path></clipPath><g clip-path="url(#clip-230)"><text xml:space="preserve" font-family="Helvetica-Bold" font-weight="bold" font-size="24.0" fill="#FEFFFF" transform="matrix(1.00, 0.00, -0.00, -1.00, 405.0, 27.0)">a</text><text xml:space="preserve" font-family="Helvetica-Bold" font-weight="bold" font-size="24.0" fill="#FEFFFF" transform="matrix(1.00, 0.00, -0.00, -1.00, 418.4, 27.0)">g</text><text xml:space="preserve" font-family="Helvetica-Bold" font-weight="bold" font-size="24.0" fill="#FEFFFF" transform="matrix(1.00, 0.00, -0.00, -1.00, 433.0, 27.0)">g</text><text xml:space="preserve" font-family="Helvetica-Bold" font-weight="bold" font-size="24.0" fill="#FEFFFF" transform="matrix(1.00, 0.00, -0.00, -1.00, 447.7, 27.0)">r</text></g></g></g></svg>