<?xml version="1.0" encoding="UTF-8" standalone="no"?><svg xmlns="http://www.w3.org/2000/svg" xmlns:xlink="http://www.w3.org/1999/xlink" clip-rule="evenodd" stroke-miterlimit="10" viewBox="0 0 1024 768"><desc>SVG generated by Keynote</desc><defs></defs><g transform="matrix(1.00, 0.00, -0.00, -1.00, 0.0, 768.0)"><path d="M 0.0 768.0 L 1024.0 768.0 L 1024.0 0.0 L 0.0 0.0 Z M 0.0 768.0 " fill="#FEFFFF"></path><g><clipPath id="clip0x7fd055c004f0"><path d="M 100.0 668.0 L 924.0 668.0 L 924.0 100.0 L 100.0 100.0 Z M 100.0 668.0 "></path></clipPath><g clip-path="url(#clip0x7fd055c004f0)"><path d="M 100.0 668.0 L 306.0 668.0 L 306.0 573.3 L 100.0 573.3 Z M 100.0 668.0 " fill="#0264C0"></path><path d="M 306.0 668.0 L 512.0 668.0 L 512.0 573.3 L 306.0 573.3 Z M 306.0 668.0 " fill="#0264C0"></path><path d="M 512.0 668.0 L 718.0 668.0 L 718.0 573.3 L 512.0 573.3 Z M 512.0 668.0 " fill="#0264C0"></path><path d="M 718.0 668.0 L 924.0 668.0 L 924.0 573.3 L 718.0 573.3 Z M 718.0 668.0 " fill="#0264C0"></path><path d="M 100.0 573.3 L 306.0 573.3 L 306.0 478.7 L 100.0 478.7 Z M 100.0 573.3 " fill="#388CCE"></path><path d="M 306.0 573.3 L 512.0 573.3 L 512.0 478.7 L 306.0 478.7 Z M 306.0 573.3 " fill="#FEFFFF"></path><path d="M 512.0 573.3 L 718.0 573.3 L 718.0 478.7 L 512.0 478.7 Z M 512.0 573.3 " fill="#FEFFFF"></path><path d="M 718.0 573.3 L 924.0 573.3 L 924.0 478.7 L 718.0 478.7 Z M 718.0 573.3 " fill="#FEFFFF"></path><path d="M 100.0 478.7 L 306.0 478.7 L 306.0 384.0 L 100.0 384.0 Z M 100.0 478.7 " fill="#388CCE"></path><path d="M 306.0 478.7 L 512.0 478.7 L 512.0 384.0 L 306.0 384.0 Z M 306.0 478.7 " fill="#E2E5E8"></path><path d="M 512.0 478.7 L 718.0 478.7 L 718.0 384.0 L 512.0 384.0 Z M 512.0 478.7 " fill="#E2E5E8"></path><path d="M 718.0 478.7 L 924.0 478.7 L 924.0 384.0 L 718.0 384.0 Z M 718.0 478.7 " fill="#E2E5E8"></path><path d="M 100.0 384.0 L 306.0 384.0 L 306.0 289.3 L 100.0 289.3 Z M 100.0 384.0 " fill="#388CCE"></path><path d="M 306.0 384.0 L 512.0 384.0 L 512.0 289.3 L 306.0 289.3 Z M 306.0 384.0 " fill="#FEFFFF"></path><path d="M 512.0 384.0 L 718.0 384.0 L 718.0 289.3 L 512.0 289.3 Z M 512.0 384.0 " fill="#FEFFFF"></path><path d="M 718.0 384.0 L 924.0 384.0 L 924.0 289.3 L 718.0 289.3 Z M 718.0 384.0 " fill="#FEFFFF"></path><path d="M 100.0 289.3 L 306.0 289.3 L 306.0 194.7 L 100.0 194.7 Z M 100.0 289.3 " fill="#388CCE"></path><path d="M 306.0 289.3 L 512.0 289.3 L 512.0 194.7 L 306.0 194.7 Z M 306.0 289.3 " fill="#E2E5E8"></path><path d="M 512.0 289.3 L 718.0 289.3 L 718.0 194.7 L 512.0 194.7 Z M 512.0 289.3 " fill="#E2E5E8"></path><path d="M 718.0 289.3 L 924.0 289.3 L 924.0 194.7 L 718.0 194.7 Z M 718.0 289.3 " fill="#E2E5E8"></path><path d="M 100.0 194.7 L 306.0 194.7 L 306.0 100.0 L 100.0 100.0 Z M 100.0 194.7 " fill="#388CCE"></path><path d="M 306.0 194.7 L 512.0 194.7 L 512.0 100.0 L 306.0 100.0 Z M 306.0 194.7 " fill="#FEFFFF"></path><path d="M 512.0 194.7 L 718.0 194.7 L 718.0 100.0 L 512.0 100.0 Z M 512.0 194.7 " fill="#FEFFFF"></path><path d="M 718.0 194.7 L 924.0 194.7 L 924.0 100.0 L 718.0 100.0 Z M 718.0 194.7 " fill="#FEFFFF"></path></g></g><g><clipPath id="clip0x7fd055c087c0"><path d="M 100.0 668.0 L 924.0 668.0 L 924.0 100.0 L 100.0 100.0 Z M 100.0 668.0 "></path></clipPath><g clip-path="url(#clip0x7fd055c087c0)"><g><clipPath id="clip0x7fd055c08fb0"><path d="M 100.0 573.8 L 306.0 573.8 L 306.0 668.0 L 100.0 668.0 Z M 100.0 573.8 "></path></clipPath><g clip-path="url(#clip0x7fd055c08fb0)"><text xml:space="preserve" font-family="Helvetica-Bold,Helvetica" font-weight="bold" font-size="31.2" fill="#FEFFFE" transform="matrix(1.00, 0.00, -0.00, -1.00, 109.4, 609.2)">C</text><text xml:space="preserve" font-family="Helvetica-Bold,Helvetica" font-weight="bold" font-size="31.2" fill="#FEFFFE" transform="matrix(1.00, 0.00, -0.00, -1.00, 131.9, 609.2)">o</text><text xml:space="preserve" font-family="Helvetica-Bold,Helvetica" font-weight="bold" font-size="31.2" fill="#FEFFFE" transform="matrix(1.00, 0.00, -0.00, -1.00, 151.0, 609.2)">n</text><text xml:space="preserve" font-family="Helvetica-Bold,Helvetica" font-weight="bold" font-size="31.2" fill="#FEFFFE" transform="matrix(1.00, 0.00, -0.00, -1.00, 170.0, 609.2)">n</text><text xml:space="preserve" font-family="Helvetica-Bold,Helvetica" font-weight="bold" font-size="31.2" fill="#FEFFFE" transform="matrix(1.00, 0.00, -0.00, -1.00, 189.1, 609.2)">e</text><text xml:space="preserve" font-family="Helvetica-Bold,Helvetica" font-weight="bold" font-size="31.2" fill="#FEFFFE" transform="matrix(1.00, 0.00, -0.00, -1.00, 206.4, 609.2)">c</text><text xml:space="preserve" font-family="Helvetica-Bold,Helvetica" font-weight="bold" font-size="31.2" fill="#FEFFFE" transform="matrix(1.00, 0.00, -0.00, -1.00, 223.8, 609.2)">t</text><text xml:space="preserve" font-family="Helvetica-Bold,Helvetica" font-weight="bold" font-size="31.2" fill="#FEFFFE" transform="matrix(1.00, 0.00, -0.00, -1.00, 234.2, 609.2)">i</text><text xml:space="preserve" font-family="Helvetica-Bold,Helvetica" font-weight="bold" font-size="31.2" fill="#FEFFFE" transform="matrix(1.00, 0.00, -0.00, -1.00, 242.8, 609.2)">v</text><text xml:space="preserve" font-family="Helvetica-Bold,Helvetica" font-weight="bold" font-size="31.2" fill="#FEFFFE" transform="matrix(1.00, 0.00, -0.00, -1.00, 260.2, 609.2)">i</text><text xml:space="preserve" font-family="Helvetica-Bold,Helvetica" font-weight="bold" font-size="31.2" fill="#FEFFFE" transform="matrix(1.00, 0.00, -0.00, -1.00, 268.9, 609.2)">t</text><text xml:space="preserve" font-family="Helvetica-Bold,Helvetica" font-weight="bold" font-size="31.2" fill="#FEFFFE" transform="matrix(1.00, 0.00, -0.00, -1.00, 279.3, 609.2)">y</text></g></g></g></g><g><clipPath id="clip0x7fd055c0a5d0"><path d="M 100.0 668.0 L 924.0 668.0 L 924.0 100.0 L 100.0 100.0 Z M 100.0 668.0 "></path></clipPath><g clip-path="url(#clip0x7fd055c0a5d0)"><g><clipPath id="clip0x7fd055c0fe60"><path d="M 306.0 573.8 L 512.0 573.8 L 512.0 668.0 L 306.0 668.0 Z M 306.0 573.8 "></path></clipPath><g clip-path="url(#clip0x7fd055c0fe60)"><text xml:space="preserve" font-family="Helvetica-Bold,Helvetica" font-weight="bold" font-size="31.2" fill="#FEFFFE" transform="matrix(1.00, 0.00, -0.00, -1.00, 367.4, 609.2)">c</text><text xml:space="preserve" font-family="Helvetica-Bold,Helvetica" font-weight="bold" font-size="31.2" fill="#FEFFFE" transform="matrix(1.00, 0.00, -0.00, -1.00, 384.7, 609.2)">o</text><text xml:space="preserve" font-family="Helvetica-Bold,Helvetica" font-weight="bold" font-size="31.2" fill="#FEFFFE" transform="matrix(1.00, 0.00, -0.00, -1.00, 403.8, 609.2)">r</text><text xml:space="preserve" font-family="Helvetica-Bold,Helvetica" font-weight="bold" font-size="31.2" fill="#FEFFFE" transform="matrix(1.00, 0.00, -0.00, -1.00, 415.9, 609.2)">e</text><text xml:space="preserve" font-family="Helvetica-Bold,Helvetica" font-weight="bold" font-size="31.2" fill="#FEFFFE" transform="matrix(1.00, 0.00, -0.00, -1.00, 433.3, 609.2)">s</text></g></g></g></g><g><clipPath id="clip0x7fd055c12bc0"><path d="M 100.0 668.0 L 924.0 668.0 L 924.0 100.0 L 100.0 100.0 Z M 100.0 668.0 "></path></clipPath><g clip-path="url(#clip0x7fd055c12bc0)"><g><clipPath id="clip0x7fd055c13310"><path d="M 512.0 573.8 L 718.0 573.8 L 718.0 668.0 L 512.0 668.0 Z M 512.0 573.8 "></path></clipPath><g clip-path="url(#clip0x7fd055c13310)"><text xml:space="preserve" font-family="Helvetica-Bold,Helvetica" font-weight="bold" font-size="31.2" fill="#FEFFFE" transform="matrix(1.00, 0.00, -0.00, -1.00, 544.8, 609.2)">t</text><text xml:space="preserve" font-family="Helvetica-Bold,Helvetica" font-weight="bold" font-size="31.2" fill="#FEFFFE" transform="matrix(1.00, 0.00, -0.00, -1.00, 555.2, 609.2)">w</text><text xml:space="preserve" font-family="Helvetica-Bold,Helvetica" font-weight="bold" font-size="31.2" fill="#FEFFFE" transform="matrix(1.00, 0.00, -0.00, -1.00, 579.4, 609.2)">i</text><text xml:space="preserve" font-family="Helvetica-Bold,Helvetica" font-weight="bold" font-size="31.2" fill="#FEFFFE" transform="matrix(1.00, 0.00, -0.00, -1.00, 588.1, 609.2)">t</text><text xml:space="preserve" font-family="Helvetica-Bold,Helvetica" font-weight="bold" font-size="31.2" fill="#FEFFFE" transform="matrix(1.00, 0.00, -0.00, -1.00, 598.5, 609.2)">t</text><text xml:space="preserve" font-family="Helvetica-Bold,Helvetica" font-weight="bold" font-size="31.2" fill="#FEFFFE" transform="matrix(1.00, 0.00, -0.00, -1.00, 608.9, 609.2)">e</text><text xml:space="preserve" font-family="Helvetica-Bold,Helvetica" font-weight="bold" font-size="31.2" fill="#FEFFFE" transform="matrix(1.00, 0.00, -0.00, -1.00, 626.2, 609.2)">r</text><text xml:space="preserve" font-family="Helvetica-Bold,Helvetica" font-weight="bold" font-size="31.2" fill="#FEFFFE" transform="matrix(1.00, 0.00, -0.00, -1.00, 638.4, 609.2)">_</text><text xml:space="preserve" font-family="Helvetica-Bold,Helvetica" font-weight="bold" font-size="31.2" fill="#FEFFFE" transform="matrix(1.00, 0.00, -0.00, -1.00, 655.7, 609.2)">r</text><text xml:space="preserve" font-family="Helvetica-Bold,Helvetica" font-weight="bold" font-size="31.2" fill="#FEFFFE" transform="matrix(1.00, 0.00, -0.00, -1.00, 667.9, 609.2)">v</text></g></g></g></g><g><clipPath id="clip0x7fd055c18100"><path d="M 100.0 668.0 L 924.0 668.0 L 924.0 100.0 L 100.0 100.0 Z M 100.0 668.0 "></path></clipPath><g clip-path="url(#clip0x7fd055c18100)"><g><clipPath id="clip0x7fd055c187f0"><path d="M 718.0 573.8 L 924.0 573.8 L 924.0 668.0 L 718.0 668.0 Z M 718.0 573.8 "></path></clipPath><g clip-path="url(#clip0x7fd055c187f0)"><text xml:space="preserve" font-family="Helvetica-Bold,Helvetica" font-weight="bold" font-size="31.2" fill="#FEFFFE" transform="matrix(1.00, 0.00, -0.00, -1.00, 733.4, 609.2)">u</text><text xml:space="preserve" font-family="Helvetica-Bold,Helvetica" font-weight="bold" font-size="31.2" fill="#FEFFFE" transform="matrix(1.00, 0.00, -0.00, -1.00, 752.4, 609.2)">k</text><text xml:space="preserve" font-family="Helvetica-Bold,Helvetica" font-weight="bold" font-size="31.2" fill="#FEFFFE" transform="matrix(1.00, 0.00, -0.00, -1.00, 769.8, 609.2)">_</text><text xml:space="preserve" font-family="Helvetica-Bold,Helvetica" font-weight="bold" font-size="31.2" fill="#FEFFFE" transform="matrix(1.00, 0.00, -0.00, -1.00, 787.1, 609.2)">2</text><text xml:space="preserve" font-family="Helvetica-Bold,Helvetica" font-weight="bold" font-size="31.2" fill="#FEFFFE" transform="matrix(1.00, 0.00, -0.00, -1.00, 804.5, 609.2)">0</text><text xml:space="preserve" font-family="Helvetica-Bold,Helvetica" font-weight="bold" font-size="31.2" fill="#FEFFFE" transform="matrix(1.00, 0.00, -0.00, -1.00, 821.8, 609.2)">0</text><text xml:space="preserve" font-family="Helvetica-Bold,Helvetica" font-weight="bold" font-size="31.2" fill="#FEFFFE" transform="matrix(1.00, 0.00, -0.00, -1.00, 839.2, 609.2)">7</text><text xml:space="preserve" font-family="Helvetica-Bold,Helvetica" font-weight="bold" font-size="31.2" fill="#FEFFFE" transform="matrix(1.00, 0.00, -0.00, -1.00, 856.5, 609.2)">_</text><text xml:space="preserve" font-family="Helvetica-Bold,Helvetica" font-weight="bold" font-size="31.2" fill="#FEFFFE" transform="matrix(1.00, 0.00, -0.00, -1.00, 873.9, 609.2)">0</text><text xml:space="preserve" font-family="Helvetica-Bold,Helvetica" font-weight="bold" font-size="31.2" fill="#FEFFFE" transform="matrix(1.00, 0.00, -0.00, -1.00, 891.2, 609.2)">5</text></g></g></g></g><g><clipPath id="clip0x7fd055c1d580"><path d="M 100.0 668.0 L 924.0 668.0 L 924.0 100.0 L 100.0 100.0 Z M 100.0 668.0 "></path></clipPath><g clip-path="url(#clip0x7fd055c1d580)"><g><clipPath id="clip0x7fd055c1dd20"><path d="M 100.0 478.7 L 305.5 478.7 L 305.5 572.8 L 100.0 572.8 Z M 100.0 478.7 "></path></clipPath><g clip-path="url(#clip0x7fd055c1dd20)"><text xml:space="preserve" font-family="Helvetica-Bold,Helvetica" font-weight="bold" font-size="31.2" fill="#FEFFFE" transform="matrix(1.00, 0.00, -0.00, -1.00, 159.4, 514.0)">S</text><text xml:space="preserve" font-family="Helvetica-Bold,Helvetica" font-weight="bold" font-size="31.2" fill="#FEFFFE" transform="matrix(1.00, 0.00, -0.00, -1.00, 180.2, 514.0)">p</text><text xml:space="preserve" font-family="Helvetica-Bold,Helvetica" font-weight="bold" font-size="31.2" fill="#FEFFFE" transform="matrix(1.00, 0.00, -0.00, -1.00, 199.3, 514.0)">a</text><text xml:space="preserve" font-family="Helvetica-Bold,Helvetica" font-weight="bold" font-size="31.2" fill="#FEFFFE" transform="matrix(1.00, 0.00, -0.00, -1.00, 216.6, 514.0)">r</text><text xml:space="preserve" font-family="Helvetica-Bold,Helvetica" font-weight="bold" font-size="31.2" fill="#FEFFFE" transform="matrix(1.00, 0.00, -0.00, -1.00, 228.8, 514.0)">k</text></g></g></g></g><g><clipPath id="clip0x7fd055c209d0"><path d="M 100.0 668.0 L 924.0 668.0 L 924.0 100.0 L 100.0 100.0 Z M 100.0 668.0 "></path></clipPath><g clip-path="url(#clip0x7fd055c209d0)"><g><clipPath id="clip0x7fd055c21120"><path d="M 306.5 478.7 L 512.0 478.7 L 512.0 572.8 L 306.5 572.8 Z M 306.5 478.7 "></path></clipPath><g clip-path="url(#clip0x7fd055c21120)"><text xml:space="preserve" font-family="Helvetica-Light,Helvetica" font-size="31.2" fill="#000000" transform="matrix(1.00, 0.00, -0.00, -1.00, 383.2, 514.0)">1</text><text xml:space="preserve" font-family="Helvetica-Light,Helvetica" font-size="31.2" fill="#000000" transform="matrix(1.00, 0.00, -0.00, -1.00, 400.6, 514.0)">2</text><text xml:space="preserve" font-family="Helvetica-Light,Helvetica" font-size="31.2" fill="#000000" transform="matrix(1.00, 0.00, -0.00, -1.00, 417.9, 514.0)">8</text></g></g></g></g><g><clipPath id="clip0x7fd055c23c60"><path d="M 100.0 668.0 L 924.0 668.0 L 924.0 100.0 L 100.0 100.0 Z M 100.0 668.0 "></path></clipPath><g clip-path="url(#clip0x7fd055c23c60)"><g><clipPath id="clip0x7fd055c243b0"><path d="M 512.0 478.7 L 718.0 478.7 L 718.0 572.8 L 512.0 572.8 Z M 512.0 478.7 "></path></clipPath><g clip-path="url(#clip0x7fd055c243b0)"><text xml:space="preserve" font-family="Helvetica-Light,Helvetica" font-size="31.2" fill="#000000" transform="matrix(1.00, 0.00, -0.00, -1.00, 572.5, 514.0)">1</text><text xml:space="preserve" font-family="Helvetica-Light,Helvetica" font-size="31.2" fill="#000000" transform="matrix(1.00, 0.00, -0.00, -1.00, 589.9, 514.0)">7</text><text xml:space="preserve" font-family="Helvetica-Light,Helvetica" font-size="31.2" fill="#000000" transform="matrix(1.00, 0.00, -0.00, -1.00, 607.2, 514.0)">8</text><text xml:space="preserve" font-family="Helvetica-Light,Helvetica" font-size="31.2" fill="#000000" transform="matrix(1.00, 0.00, -0.00, -1.00, 624.5, 514.0)">4</text><text xml:space="preserve" font-family="Helvetica-Light,Helvetica" font-size="31.2" fill="#000000" transform="matrix(1.00, 0.00, -0.00, -1.00, 641.9, 514.0)">s</text></g></g></g></g><g><clipPath id="clip0x7fd055c26f10"><path d="M 100.0 668.0 L 924.0 668.0 L 924.0 100.0 L 100.0 100.0 Z M 100.0 668.0 "></path></clipPath><g clip-path="url(#clip0x7fd055c26f10)"><g><clipPath id="clip0x7fd055c27660"><path d="M 718.0 478.7 L 924.0 478.7 L 924.0 572.8 L 718.0 572.8 Z M 718.0 478.7 "></path></clipPath><g clip-path="url(#clip0x7fd055c27660)"><text xml:space="preserve" font-family="Helvetica-Light,Helvetica" font-size="31.2" fill="#000000" transform="matrix(1.00, 0.00, -0.00, -1.00, 768.2, 514.0)">8</text><text xml:space="preserve" font-family="Helvetica-Light,Helvetica" font-size="31.2" fill="#000000" transform="matrix(1.00, 0.00, -0.00, -1.00, 785.6, 514.0)">0</text><text xml:space="preserve" font-family="Helvetica-Light,Helvetica" font-size="31.2" fill="#000000" transform="matrix(1.00, 0.00, -0.00, -1.00, 802.9, 514.0)">0</text><text xml:space="preserve" font-family="Helvetica-Light,Helvetica" font-size="31.2" fill="#000000" transform="matrix(1.00, 0.00, -0.00, -1.00, 820.3, 514.0)">0</text><text xml:space="preserve" font-family="Helvetica-Light,Helvetica" font-size="31.2" fill="#000000" transform="matrix(1.00, 0.00, -0.00, -1.00, 837.6, 514.0)">s</text><text xml:space="preserve" font-family="Helvetica-Light,Helvetica" font-size="31.2" fill="#000000" transform="matrix(1.00, 0.00, -0.00, -1.00, 853.2, 514.0)">+</text></g></g></g></g><g><clipPath id="clip0x7fd055c2a760"><path d="M 100.0 668.0 L 924.0 668.0 L 924.0 100.0 L 100.0 100.0 Z M 100.0 668.0 "></path></clipPath><g clip-path="url(#clip0x7fd055c2a760)"><g><clipPath id="clip0x7fd055c2afa0"><path d="M 100.0 384.0 L 305.5 384.0 L 305.5 478.7 L 100.0 478.7 Z M 100.0 384.0 "></path></clipPath><g clip-path="url(#clip0x7fd055c2afa0)"><text xml:space="preserve" font-family="Helvetica-Bold,Helvetica" font-weight="bold" font-size="31.2" fill="#FEFFFE" transform="matrix(1.00, 0.00, -0.00, -1.00, 152.5, 419.8)">G</text><text xml:space="preserve" font-family="Helvetica-Bold,Helvetica" font-weight="bold" font-size="31.2" fill="#FEFFFE" transform="matrix(1.00, 0.00, -0.00, -1.00, 176.7, 419.8)">i</text><text xml:space="preserve" font-family="Helvetica-Bold,Helvetica" font-weight="bold" font-size="31.2" fill="#FEFFFE" transform="matrix(1.00, 0.00, -0.00, -1.00, 185.4, 419.8)">r</text><text xml:space="preserve" font-family="Helvetica-Bold,Helvetica" font-weight="bold" font-size="31.2" fill="#FEFFFE" transform="matrix(1.00, 0.00, -0.00, -1.00, 197.5, 419.8)">a</text><text xml:space="preserve" font-family="Helvetica-Bold,Helvetica" font-weight="bold" font-size="31.2" fill="#FEFFFE" transform="matrix(1.00, 0.00, -0.00, -1.00, 214.9, 419.8)">p</text><text xml:space="preserve" font-family="Helvetica-Bold,Helvetica" font-weight="bold" font-size="31.2" fill="#FEFFFE" transform="matrix(1.00, 0.00, -0.00, -1.00, 233.9, 419.8)">h</text></g></g></g></g><g><clipPath id="clip0x7fd055c2e360"><path d="M 100.0 668.0 L 924.0 668.0 L 924.0 100.0 L 100.0 100.0 Z M 100.0 668.0 "></path></clipPath><g clip-path="url(#clip0x7fd055c2e360)"><g><clipPath id="clip0x7fd055c2eab0"><path d="M 306.5 384.0 L 512.0 384.0 L 512.0 478.7 L 306.5 478.7 Z M 306.5 384.0 "></path></clipPath><g clip-path="url(#clip0x7fd055c2eab0)"><text xml:space="preserve" font-family="Helvetica-Light,Helvetica" font-size="31.2" fill="#000000" transform="matrix(1.00, 0.00, -0.00, -1.00, 383.2, 419.8)">1</text><text xml:space="preserve" font-family="Helvetica-Light,Helvetica" font-size="31.2" fill="#000000" transform="matrix(1.00, 0.00, -0.00, -1.00, 400.6, 419.8)">2</text><text xml:space="preserve" font-family="Helvetica-Light,Helvetica" font-size="31.2" fill="#000000" transform="matrix(1.00, 0.00, -0.00, -1.00, 417.9, 419.8)">8</text></g></g></g></g><g><clipPath id="clip0x7fd055c309f0"><path d="M 100.0 668.0 L 924.0 668.0 L 924.0 100.0 L 100.0 100.0 Z M 100.0 668.0 "></path></clipPath><g clip-path="url(#clip0x7fd055c309f0)"><g><clipPath id="clip0x7fd055c31140"><path d="M 512.0 384.0 L 718.0 384.0 L 718.0 478.7 L 512.0 478.7 Z M 512.0 384.0 "></path></clipPath><g clip-path="url(#clip0x7fd055c31140)"><text xml:space="preserve" font-family="Helvetica-Light,Helvetica" font-size="31.2" fill="#000000" transform="matrix(1.00, 0.00, -0.00, -1.00, 581.2, 419.8)">2</text><text xml:space="preserve" font-family="Helvetica-Light,Helvetica" font-size="31.2" fill="#000000" transform="matrix(1.00, 0.00, -0.00, -1.00, 598.5, 419.8)">0</text><text xml:space="preserve" font-family="Helvetica-Light,Helvetica" font-size="31.2" fill="#000000" transform="matrix(1.00, 0.00, -0.00, -1.00, 615.9, 419.8)">0</text><text xml:space="preserve" font-family="Helvetica-Light,Helvetica" font-size="31.2" fill="#000000" transform="matrix(1.00, 0.00, -0.00, -1.00, 633.2, 419.8)">s</text></g></g></g></g><g><clipPath id="clip0x7fd055c33690"><path d="M 100.0 668.0 L 924.0 668.0 L 924.0 100.0 L 100.0 100.0 Z M 100.0 668.0 "></path></clipPath><g clip-path="url(#clip0x7fd055c33690)"><g><clipPath id="clip0x7fd055c33de0"><path d="M 718.0 384.0 L 924.0 384.0 L 924.0 478.7 L 718.0 478.7 Z M 718.0 384.0 "></path></clipPath><g clip-path="url(#clip0x7fd055c33de0)"><text xml:space="preserve" font-family="Helvetica-Light,Helvetica" font-size="31.2" fill="#000000" transform="matrix(1.00, 0.00, -0.00, -1.00, 768.2, 419.8)">8</text><text xml:space="preserve" font-family="Helvetica-Light,Helvetica" font-size="31.2" fill="#000000" transform="matrix(1.00, 0.00, -0.00, -1.00, 785.6, 419.8)">0</text><text xml:space="preserve" font-family="Helvetica-Light,Helvetica" font-size="31.2" fill="#000000" transform="matrix(1.00, 0.00, -0.00, -1.00, 802.9, 419.8)">0</text><text xml:space="preserve" font-family="Helvetica-Light,Helvetica" font-size="31.2" fill="#000000" transform="matrix(1.00, 0.00, -0.00, -1.00, 820.3, 419.8)">0</text><text xml:space="preserve" font-family="Helvetica-Light,Helvetica" font-size="31.2" fill="#000000" transform="matrix(1.00, 0.00, -0.00, -1.00, 837.6, 419.8)">s</text><text xml:space="preserve" font-family="Helvetica-Light,Helvetica" font-size="31.2" fill="#000000" transform="matrix(1.00, 0.00, -0.00, -1.00, 853.2, 419.8)">+</text></g></g></g></g><g><clipPath id="clip0x7fd055c36f50"><path d="M 100.0 668.0 L 924.0 668.0 L 924.0 100.0 L 100.0 100.0 Z M 100.0 668.0 "></path></clipPath><g clip-path="url(#clip0x7fd055c36f50)"><g><clipPath id="clip0x7fd055c376a0"><path d="M 100.0 289.3 L 305.5 289.3 L 305.5 384.0 L 100.0 384.0 Z M 100.0 289.3 "></path></clipPath><g clip-path="url(#clip0x7fd055c376a0)"><text xml:space="preserve" font-family="Helvetica-Bold,Helvetica" font-weight="bold" font-size="31.2" fill="#FEFFFE" transform="matrix(1.00, 0.00, -0.00, -1.00, 129.1, 325.2)">G</text><text xml:space="preserve" font-family="Helvetica-Bold,Helvetica" font-weight="bold" font-size="31.2" fill="#FEFFFE" transform="matrix(1.00, 0.00, -0.00, -1.00, 153.3, 325.2)">r</text><text xml:space="preserve" font-family="Helvetica-Bold,Helvetica" font-weight="bold" font-size="31.2" fill="#FEFFFE" transform="matrix(1.00, 0.00, -0.00, -1.00, 165.5, 325.2)">a</text><text xml:space="preserve" font-family="Helvetica-Bold,Helvetica" font-weight="bold" font-size="31.2" fill="#FEFFFE" transform="matrix(1.00, 0.00, -0.00, -1.00, 182.8, 325.2)">p</text><text xml:space="preserve" font-family="Helvetica-Bold,Helvetica" font-weight="bold" font-size="31.2" fill="#FEFFFE" transform="matrix(1.00, 0.00, -0.00, -1.00, 201.9, 325.2)">h</text><text xml:space="preserve" font-family="Helvetica-Bold,Helvetica" font-weight="bold" font-size="31.2" fill="#FEFFFE" transform="matrix(1.00, 0.00, -0.00, -1.00, 220.9, 325.2)">L</text><text xml:space="preserve" font-family="Helvetica-Bold,Helvetica" font-weight="bold" font-size="31.2" fill="#FEFFFE" transform="matrix(1.00, 0.00, -0.00, -1.00, 240.0, 325.2)">a</text><text xml:space="preserve" font-family="Helvetica-Bold,Helvetica" font-weight="bold" font-size="31.2" fill="#FEFFFE" transform="matrix(1.00, 0.00, -0.00, -1.00, 257.3, 325.2)">b</text></g></g></g></g><g><clipPath id="clip0x7fd055c3b730"><path d="M 100.0 668.0 L 924.0 668.0 L 924.0 100.0 L 100.0 100.0 Z M 100.0 668.0 "></path></clipPath><g clip-path="url(#clip0x7fd055c3b730)"><g><clipPath id="clip0x7fd055c3be90"><path d="M 306.5 289.3 L 512.0 289.3 L 512.0 384.0 L 306.5 384.0 Z M 306.5 289.3 "></path></clipPath><g clip-path="url(#clip0x7fd055c3be90)"><text xml:space="preserve" font-family="Helvetica-Light,Helvetica" font-size="31.2" fill="#000000" transform="matrix(1.00, 0.00, -0.00, -1.00, 383.2, 325.2)">1</text><text xml:space="preserve" font-family="Helvetica-Light,Helvetica" font-size="31.2" fill="#000000" transform="matrix(1.00, 0.00, -0.00, -1.00, 400.6, 325.2)">2</text><text xml:space="preserve" font-family="Helvetica-Light,Helvetica" font-size="31.2" fill="#000000" transform="matrix(1.00, 0.00, -0.00, -1.00, 417.9, 325.2)">8</text></g></g></g></g><g><clipPath id="clip0x7fd055c3ddd0"><path d="M 100.0 668.0 L 924.0 668.0 L 924.0 100.0 L 100.0 100.0 Z M 100.0 668.0 "></path></clipPath><g clip-path="url(#clip0x7fd055c3ddd0)"><g><clipPath id="clip0x7fd055c3e590"><path d="M 512.0 289.3 L 718.0 289.3 L 718.0 384.0 L 512.0 384.0 Z M 512.0 289.3 "></path></clipPath><g clip-path="url(#clip0x7fd055c3e590)"><text xml:space="preserve" font-family="Helvetica-Light,Helvetica" font-size="31.2" fill="#000000" transform="matrix(1.00, 0.00, -0.00, -1.00, 581.2, 325.2)">2</text><text xml:space="preserve" font-family="Helvetica-Light,Helvetica" font-size="31.2" fill="#000000" transform="matrix(1.00, 0.00, -0.00, -1.00, 598.5, 325.2)">4</text><text xml:space="preserve" font-family="Helvetica-Light,Helvetica" font-size="31.2" fill="#000000" transform="matrix(1.00, 0.00, -0.00, -1.00, 615.9, 325.2)">2</text><text xml:space="preserve" font-family="Helvetica-Light,Helvetica" font-size="31.2" fill="#000000" transform="matrix(1.00, 0.00, -0.00, -1.00, 633.2, 325.2)">s</text></g></g></g></g><g><clipPath id="clip0x7fd055c40ad0"><path d="M 100.0 668.0 L 924.0 668.0 L 924.0 100.0 L 100.0 100.0 Z M 100.0 668.0 "></path></clipPath><g clip-path="url(#clip0x7fd055c40ad0)"><g><clipPath id="clip0x7fd055c41220"><path d="M 718.0 289.3 L 924.0 289.3 L 924.0 384.0 L 718.0 384.0 Z M 718.0 289.3 "></path></clipPath><g clip-path="url(#clip0x7fd055c41220)"><text xml:space="preserve" font-family="Helvetica-Light,Helvetica" font-size="31.2" fill="#000000" transform="matrix(1.00, 0.00, -0.00, -1.00, 787.2, 325.2)">7</text><text xml:space="preserve" font-family="Helvetica-Light,Helvetica" font-size="31.2" fill="#000000" transform="matrix(1.00, 0.00, -0.00, -1.00, 804.5, 325.2)">1</text><text xml:space="preserve" font-family="Helvetica-Light,Helvetica" font-size="31.2" fill="#000000" transform="matrix(1.00, 0.00, -0.00, -1.00, 821.9, 325.2)">4</text><text xml:space="preserve" font-family="Helvetica-Light,Helvetica" font-size="31.2" fill="#000000" transform="matrix(1.00, 0.00, -0.00, -1.00, 839.2, 325.2)">s</text></g></g></g></g><g><clipPath id="clip0x7fd055c43770"><path d="M 100.0 668.0 L 924.0 668.0 L 924.0 100.0 L 100.0 100.0 Z M 100.0 668.0 "></path></clipPath><g clip-path="url(#clip0x7fd055c43770)"><g><clipPath id="clip0x7fd055c43ec0"><path d="M 100.0 194.7 L 305.5 194.7 L 305.5 289.3 L 100.0 289.3 Z M 100.0 194.7 "></path></clipPath><g clip-path="url(#clip0x7fd055c43ec0)"><text xml:space="preserve" font-family="Helvetica-Bold,Helvetica" font-weight="bold" font-size="31.2" fill="#FEFFFE" transform="matrix(1.00, 0.00, -0.00, -1.00, 146.4, 230.5)">G</text><text xml:space="preserve" font-family="Helvetica-Bold,Helvetica" font-weight="bold" font-size="31.2" fill="#FEFFFE" transform="matrix(1.00, 0.00, -0.00, -1.00, 170.7, 230.5)">r</text><text xml:space="preserve" font-family="Helvetica-Bold,Helvetica" font-weight="bold" font-size="31.2" fill="#FEFFFE" transform="matrix(1.00, 0.00, -0.00, -1.00, 182.8, 230.5)">a</text><text xml:space="preserve" font-family="Helvetica-Bold,Helvetica" font-weight="bold" font-size="31.2" fill="#FEFFFE" transform="matrix(1.00, 0.00, -0.00, -1.00, 200.1, 230.5)">p</text><text xml:space="preserve" font-family="Helvetica-Bold,Helvetica" font-weight="bold" font-size="31.2" fill="#FEFFFE" transform="matrix(1.00, 0.00, -0.00, -1.00, 219.2, 230.5)">h</text><text xml:space="preserve" font-family="Helvetica-Bold,Helvetica" font-weight="bold" font-size="31.2" fill="#FEFFFE" transform="matrix(1.00, 0.00, -0.00, -1.00, 238.3, 230.5)">X</text></g></g></g></g><g><clipPath id="clip0x7fd055c47250"><path d="M 100.0 668.0 L 924.0 668.0 L 924.0 100.0 L 100.0 100.0 Z M 100.0 668.0 "></path></clipPath><g clip-path="url(#clip0x7fd055c47250)"><g><clipPath id="clip0x7fd055c479a0"><path d="M 306.5 194.7 L 512.0 194.7 L 512.0 289.3 L 306.5 289.3 Z M 306.5 194.7 "></path></clipPath><g clip-path="url(#clip0x7fd055c479a0)"><text xml:space="preserve" font-family="Helvetica-Light,Helvetica" font-size="31.2" fill="#000000" transform="matrix(1.00, 0.00, -0.00, -1.00, 383.2, 230.5)">1</text><text xml:space="preserve" font-family="Helvetica-Light,Helvetica" font-size="31.2" fill="#000000" transform="matrix(1.00, 0.00, -0.00, -1.00, 400.6, 230.5)">2</text><text xml:space="preserve" font-family="Helvetica-Light,Helvetica" font-size="31.2" fill="#000000" transform="matrix(1.00, 0.00, -0.00, -1.00, 417.9, 230.5)">8</text></g></g></g></g><g><clipPath id="clip0x7fd055c498e0"><path d="M 100.0 668.0 L 924.0 668.0 L 924.0 100.0 L 100.0 100.0 Z M 100.0 668.0 "></path></clipPath><g clip-path="url(#clip0x7fd055c498e0)"><g><clipPath id="clip0x7fd055c4a030"><path d="M 512.0 194.7 L 718.0 194.7 L 718.0 289.3 L 512.0 289.3 Z M 512.0 194.7 "></path></clipPath><g clip-path="url(#clip0x7fd055c4a030)"><text xml:space="preserve" font-family="Helvetica-Light,Helvetica" font-size="31.2" fill="#000000" transform="matrix(1.00, 0.00, -0.00, -1.00, 581.2, 230.5)">2</text><text xml:space="preserve" font-family="Helvetica-Light,Helvetica" font-size="31.2" fill="#000000" transform="matrix(1.00, 0.00, -0.00, -1.00, 598.5, 230.5)">5</text><text xml:space="preserve" font-family="Helvetica-Light,Helvetica" font-size="31.2" fill="#000000" transform="matrix(1.00, 0.00, -0.00, -1.00, 615.9, 230.5)">1</text><text xml:space="preserve" font-family="Helvetica-Light,Helvetica" font-size="31.2" fill="#000000" transform="matrix(1.00, 0.00, -0.00, -1.00, 633.2, 230.5)">s</text></g></g></g></g><g><clipPath id="clip0x7fd055c4c580"><path d="M 100.0 668.0 L 924.0 668.0 L 924.0 100.0 L 100.0 100.0 Z M 100.0 668.0 "></path></clipPath><g clip-path="url(#clip0x7fd055c4c580)"><g><clipPath id="clip0x7fd055c4ccd0"><path d="M 718.0 194.7 L 924.0 194.7 L 924.0 289.3 L 718.0 289.3 Z M 718.0 194.7 "></path></clipPath><g clip-path="url(#clip0x7fd055c4ccd0)"><text xml:space="preserve" font-family="Helvetica-Light,Helvetica" font-size="31.2" fill="#000000" transform="matrix(1.00, 0.00, -0.00, -1.00, 787.2, 230.5)">8</text><text xml:space="preserve" font-family="Helvetica-Light,Helvetica" font-size="31.2" fill="#000000" transform="matrix(1.00, 0.00, -0.00, -1.00, 804.5, 230.5)">0</text><text xml:space="preserve" font-family="Helvetica-Light,Helvetica" font-size="31.2" fill="#000000" transform="matrix(1.00, 0.00, -0.00, -1.00, 821.9, 230.5)">0</text><text xml:space="preserve" font-family="Helvetica-Light,Helvetica" font-size="31.2" fill="#000000" transform="matrix(1.00, 0.00, -0.00, -1.00, 839.2, 230.5)">s</text></g></g></g></g><g><clipPath id="clip0x7fd055c4f220"><path d="M 100.0 668.0 L 924.0 668.0 L 924.0 100.0 L 100.0 100.0 Z M 100.0 668.0 "></path></clipPath><g clip-path="url(#clip0x7fd055c4f220)"><g><clipPath id="clip0x7fd055c4f970"><path d="M 100.0 100.0 L 305.5 100.0 L 305.5 194.7 L 100.0 194.7 Z M 100.0 100.0 "></path></clipPath><g clip-path="url(#clip0x7fd055c4f970)"><text xml:space="preserve" font-family="Helvetica-Bold,Helvetica" font-weight="bold" font-size="31.2" fill="#FEFFFE" transform="matrix(1.00, 0.00, -0.00, -1.00, 150.8, 135.8)">L</text><text xml:space="preserve" font-family="Helvetica-Bold,Helvetica" font-weight="bold" font-size="31.2" fill="#FEFFFE" transform="matrix(1.00, 0.00, -0.00, -1.00, 169.8, 135.8)">a</text><text xml:space="preserve" font-family="Helvetica-Bold,Helvetica" font-weight="bold" font-size="31.2" fill="#FEFFFE" transform="matrix(1.00, 0.00, -0.00, -1.00, 187.2, 135.8)">p</text><text xml:space="preserve" font-family="Helvetica-Bold,Helvetica" font-weight="bold" font-size="31.2" fill="#FEFFFE" transform="matrix(1.00, 0.00, -0.00, -1.00, 206.2, 135.8)">t</text><text xml:space="preserve" font-family="Helvetica-Bold,Helvetica" font-weight="bold" font-size="31.2" fill="#FEFFFE" transform="matrix(1.00, 0.00, -0.00, -1.00, 216.6, 135.8)">o</text><text xml:space="preserve" font-family="Helvetica-Bold,Helvetica" font-weight="bold" font-size="31.2" fill="#FEFFFE" transform="matrix(1.00, 0.00, -0.00, -1.00, 235.7, 135.8)">p</text></g></g></g></g><g><clipPath id="clip0x7fd055c52d20"><path d="M 100.0 668.0 L 924.0 668.0 L 924.0 100.0 L 100.0 100.0 Z M 100.0 668.0 "></path></clipPath><g clip-path="url(#clip0x7fd055c52d20)"><g><clipPath id="clip0x7fd055c53580"><path d="M 306.5 100.0 L 512.0 100.0 L 512.0 194.7 L 306.5 194.7 Z M 306.5 100.0 "></path></clipPath><g clip-path="url(#clip0x7fd055c53580)"><text xml:space="preserve" font-family="Helvetica-Light,Helvetica" font-size="31.2" fill="#000000" transform="matrix(1.00, 0.00, -0.00, -1.00, 400.6, 135.8)">1</text></g></g></g></g><g><clipPath id="clip0x7fd055c54860"><path d="M 100.0 668.0 L 924.0 668.0 L 924.0 100.0 L 100.0 100.0 Z M 100.0 668.0 "></path></clipPath><g clip-path="url(#clip0x7fd055c54860)"><g><clipPath id="clip0x7fd055c54fb0"><path d="M 512.0 100.0 L 718.0 100.0 L 718.0 194.7 L 512.0 194.7 Z M 512.0 100.0 "></path></clipPath><g clip-path="url(#clip0x7fd055c54fb0)"><text xml:space="preserve" font-family="Helvetica-Light,Helvetica" font-size="31.2" fill="#000000" transform="matrix(1.00, 0.00, -0.00, -1.00, 581.2, 135.8)">1</text><text xml:space="preserve" font-family="Helvetica-Light,Helvetica" font-size="31.2" fill="#000000" transform="matrix(1.00, 0.00, -0.00, -1.00, 598.5, 135.8)">5</text><text xml:space="preserve" font-family="Helvetica-Light,Helvetica" font-size="31.2" fill="#000000" transform="matrix(1.00, 0.00, -0.00, -1.00, 615.9, 135.8)">3</text><text xml:space="preserve" font-family="Helvetica-Light,Helvetica" font-size="31.2" fill="#000000" transform="matrix(1.00, 0.00, -0.00, -1.00, 633.2, 135.8)">s</text><path d="M 69.2 50.6 L 136.8 50.6 " fill="none" stroke="#000000" stroke-width="1.63" transform="matrix(1.00, 0.00, 0.00, -1.00, 512.0, 194.7)"></path></g></g></g></g><g><clipPath id="clip0x7fd055c57ce0"><path d="M 100.0 668.0 L 924.0 668.0 L 924.0 100.0 L 100.0 100.0 Z M 100.0 668.0 "></path></clipPath><g clip-path="url(#clip0x7fd055c57ce0)"><g><clipPath id="clip0x7fd055c58430"><path d="M 718.0 100.0 L 924.0 100.0 L 924.0 194.7 L 718.0 194.7 Z M 718.0 100.0 "></path></clipPath><g clip-path="url(#clip0x7fd055c58430)"><text xml:space="preserve" font-family="Helvetica-Light,Helvetica" font-size="31.2" fill="#000000" transform="matrix(1.00, 0.00, -0.00, -1.00, 787.2, 135.8)">4</text><text xml:space="preserve" font-family="Helvetica-Light,Helvetica" font-size="31.2" fill="#000000" transform="matrix(1.00, 0.00, -0.00, -1.00, 804.5, 135.8)">1</text><text xml:space="preserve" font-family="Helvetica-Light,Helvetica" font-size="31.2" fill="#000000" transform="matrix(1.00, 0.00, -0.00, -1.00, 821.9, 135.8)">7</text><text xml:space="preserve" font-family="Helvetica-Light,Helvetica" font-size="31.2" fill="#000000" transform="matrix(1.00, 0.00, -0.00, -1.00, 839.2, 135.8)">s</text><path d="M 69.2 50.6 L 136.8 50.6 " fill="none" stroke="#000000" stroke-width="1.63" transform="matrix(1.00, 0.00, 0.00, -1.00, 718.0, 194.7)"></path></g></g></g></g><text xml:space="preserve" font-family="Helvetica-Light,Helvetica" font-size="36.0" fill="#C82505" transform="matrix(1.00, 0.00, -0.00, -1.00, 603.6, 92.9)">1</text><text xml:space="preserve" font-family="Helvetica-Light,Helvetica" font-size="36.0" fill="#C82505" transform="matrix(1.00, 0.00, -0.00, -1.00, 623.6, 92.9)">5</text><text xml:space="preserve" font-family="Helvetica-Light,Helvetica" font-size="36.0" fill="#C82505" transform="matrix(1.00, 0.00, -0.00, -1.00, 643.7, 92.9)">s</text><text xml:space="preserve" font-family="Helvetica-Light,Helvetica" font-size="36.0" fill="#C82505" transform="matrix(1.00, 0.00, -0.00, -1.00, 812.3, 92.9)">3</text><text xml:space="preserve" font-family="Helvetica-Light,Helvetica" font-size="36.0" fill="#C82505" transform="matrix(1.00, 0.00, -0.00, -1.00, 832.3, 92.9)">0</text><text xml:space="preserve" font-family="Helvetica-Light,Helvetica" font-size="36.0" fill="#C82505" transform="matrix(1.00, 0.00, -0.00, -1.00, 852.3, 92.9)">s</text></g></svg>