<?xml version="1.0" encoding="UTF-8" standalone="no"?><svg xmlns="http://www.w3.org/2000/svg" xmlns:xlink="http://www.w3.org/1999/xlink" clip-rule="evenodd" stroke-miterlimit="4.00" viewBox="0 0 62 66"><desc>SVG generated by Keynote</desc><defs></defs><g transform="matrix(1.00, 0.00, -0.00, -1.00, 0.0, 66.0)"><path d="M 3.9 19.0 L 3.9 46.8 C 3.9 55.1 10.7 61.8 18.9 61.8 L 43.2 61.8 C 51.5 61.8 58.2 55.1 58.2 46.8 L 58.2 19.0 C 58.2 10.7 51.5 4.0 43.2 4.0 L 18.9 4.0 C 10.7 4.0 3.9 10.7 3.9 19.0 Z M 3.9 19.0 " fill="#B26AE1"></path><path d="M 0.0 42.8 L 0.0 15.0 C 0.0 6.7 6.7 0.0 15.0 0.0 L 39.3 0.0 C 47.6 0.0 54.3 6.7 54.3 15.0 L 54.3 42.8 C 54.3 51.0 47.6 57.8 39.3 57.8 L 15.0 57.8 C 6.7 57.8 0.0 51.0 0.0 42.8 Z M 0.0 42.8 " fill="none" stroke="#5E317B" stroke-width="5.00" transform="matrix(1.00, 0.00, 0.00, -1.00, 3.9, 61.8)"></path></g></svg>