<?xml version="1.0" encoding="UTF-8" standalone="no"?><svg xmlns="http://www.w3.org/2000/svg" xmlns:xlink="http://www.w3.org/1999/xlink" clip-rule="evenodd" stroke-miterlimit="4.00" viewBox="0 0 172 362"><desc>SVG generated by Keynote</desc><defs></defs><g transform="matrix(1.00, 0.00, -0.00, -1.00, 0.0, 362.0)"><path d="M 83.3 359.6 L 73.4 318.5 L 8.6 318.5 C 5.9 318.5 3.6 316.3 3.6 313.5 L 3.6 9.7 C 3.6 6.9 5.9 4.7 8.6 4.7 L 163.4 4.7 C 166.1 4.7 168.4 6.9 168.4 9.7 L 168.4 313.5 C 168.4 316.3 166.1 318.5 163.4 318.5 L 93.3 318.5 L 83.3 359.6 Z M 83.3 359.6 " fill="#51A7F9"></path><path d="M 79.7 -41.1 L 69.7 0.0 L 5.0 0.0 C 2.2 0.0 0.0 2.2 0.0 5.0 L 0.0 308.8 C 0.0 311.5 2.2 313.8 5.0 313.8 L 159.7 313.8 C 162.5 313.8 164.7 311.5 164.7 308.8 L 164.7 5.0 C 164.7 2.2 162.5 0.0 159.7 0.0 L 89.7 0.0 L 79.7 -41.1 Z M 79.7 -41.1 " fill="none" stroke="#164E86" stroke-width="5.00" transform="matrix(1.00, 0.00, 0.00, -1.00, 3.6, 318.5)"></path></g></svg>