<?xml version="1.0" encoding="UTF-8" standalone="no"?><svg xmlns="http://www.w3.org/2000/svg" xmlns:xlink="http://www.w3.org/1999/xlink" clip-rule="evenodd" stroke-miterlimit="10" viewBox="0 0 744 144"><desc>SVG generated by Keynote</desc><defs></defs><g transform="matrix(1.00, 0.00, -0.00, -1.00, 0.0, 144.0)"><g><clipPath id="clip0x7fd058a61e10"><path d="M 608.4 0.7 L 743.1 0.7 L 743.1 143.3 L 608.4 143.3 Z M 608.4 0.7 "></path></clipPath><g clip-path="url(#clip0x7fd058a61e10)"><path d="M 611.5 23.0 L 611.5 120.8 C 611.5 131.3 620.4 139.5 630.9 139.5 L 720.6 139.5 C 731.1 139.5 739.5 131.3 739.5 120.8 L 739.5 23.2 C 739.5 12.7 731.1 4.5 720.6 4.5 L 630.9 4.5 C 620.4 4.5 611.5 12.5 611.5 23.0 Z M 611.9 23.2 " fill="#92D894"></path><path d="M -0.4 116.8 L -0.4 19.0 C -0.4 8.5 8.5 0.3 19.0 0.3 L 108.7 0.3 C 119.2 0.3 127.6 8.5 127.6 19.0 L 127.6 116.6 C 127.6 127.1 119.2 135.3 108.7 135.3 L 19.0 135.3 C 8.5 135.3 -0.4 127.3 -0.4 116.8 Z M 0.0 116.6 " fill="none" stroke="#00872A" stroke-width="5.00" transform="matrix(1.00, 0.00, 0.00, -1.00, 611.9, 139.8)"></path></g></g><g><clipPath id="clip0x7fd058a63e70"><path d="M 609.4 4.2 L 742.1 4.2 L 742.1 139.8 L 609.4 139.8 Z M 609.4 4.2 "></path></clipPath><g clip-path="url(#clip0x7fd058a63e70)"><text xml:space="preserve" font-family="Helvetica-Bold,Helvetica" font-weight="bold" font-size="36.0" fill="#FEFFFE" transform="matrix(1.00, 0.00, -0.00, -1.00, 626.8, 58.4)">D</text><text xml:space="preserve" font-family="Helvetica-Bold,Helvetica" font-weight="bold" font-size="36.0" fill="#FEFFFE" transform="matrix(1.00, 0.00, -0.00, -1.00, 652.8, 58.4)">o</text><text xml:space="preserve" font-family="Helvetica-Bold,Helvetica" font-weight="bold" font-size="36.0" fill="#FEFFFE" transform="matrix(1.00, 0.00, -0.00, -1.00, 674.8, 58.4)">w</text><text xml:space="preserve" font-family="Helvetica-Bold,Helvetica" font-weight="bold" font-size="36.0" fill="#FEFFFE" transform="matrix(1.00, 0.00, -0.00, -1.00, 702.8, 58.4)">n</text></g></g><g><clipPath id="clip0x7fd058a672a0"><path d="M 160.1 0.7 L 586.0 0.7 L 586.0 143.3 L 160.1 143.3 Z M 160.1 0.7 "></path></clipPath><g clip-path="url(#clip0x7fd058a672a0)"><path d="M 163.5 23.0 L 163.5 120.8 C 163.5 131.3 172.1 139.5 182.6 139.5 L 563.5 139.5 C 574.0 139.5 582.5 131.3 582.5 120.8 L 582.5 23.2 C 582.5 12.7 574.0 4.5 563.5 4.5 L 182.6 4.5 C 172.1 4.5 163.5 12.5 163.5 23.0 Z M 163.6 23.2 " fill="#92D894"></path><path d="M -0.1 116.8 L -0.1 19.0 C -0.1 8.5 8.5 0.3 19.0 0.3 L 399.9 0.3 C 410.4 0.3 418.9 8.5 418.9 19.0 L 418.9 116.6 C 418.9 127.1 410.4 135.3 399.9 135.3 L 19.0 135.3 C 8.5 135.3 -0.1 127.3 -0.1 116.8 Z M 0.0 116.6 " fill="none" stroke="#00872A" stroke-width="5.00" transform="matrix(1.00, 0.00, 0.00, -1.00, 163.6, 139.8)"></path></g></g><g><clipPath id="clip0x7fd058a69050"><path d="M 161.1 4.2 L 585.0 4.2 L 585.0 139.8 L 161.1 139.8 Z M 161.1 4.2 "></path></clipPath><g clip-path="url(#clip0x7fd058a69050)"><text xml:space="preserve" font-family="Helvetica-Bold,Helvetica" font-weight="bold" font-size="36.0" fill="#FEFFFE" transform="matrix(1.00, 0.00, -0.00, -1.00, 254.0, 59.0)">N</text><text xml:space="preserve" font-family="Helvetica-Bold,Helvetica" font-weight="bold" font-size="36.0" fill="#FEFFFE" transform="matrix(1.00, 0.00, -0.00, -1.00, 280.0, 59.0)">e</text><text xml:space="preserve" font-family="Helvetica-Bold,Helvetica" font-weight="bold" font-size="36.0" fill="#FEFFFE" transform="matrix(1.00, 0.00, -0.00, -1.00, 300.0, 59.0)">s</text><text xml:space="preserve" font-family="Helvetica-Bold,Helvetica" font-weight="bold" font-size="36.0" fill="#FEFFFE" transform="matrix(1.00, 0.00, -0.00, -1.00, 320.1, 59.0)">t</text><text xml:space="preserve" font-family="Helvetica-Bold,Helvetica" font-weight="bold" font-size="36.0" fill="#FEFFFE" transform="matrix(1.00, 0.00, -0.00, -1.00, 332.1, 59.0)">e</text><text xml:space="preserve" font-family="Helvetica-Bold,Helvetica" font-weight="bold" font-size="36.0" fill="#FEFFFE" transform="matrix(1.00, 0.00, -0.00, -1.00, 352.1, 59.0)">d</text><text xml:space="preserve" font-family="Helvetica-Bold,Helvetica" font-weight="bold" font-size="36.0" fill="#FEFFFE" transform="matrix(1.00, 0.00, -0.00, -1.00, 374.1, 59.0)"> </text><text xml:space="preserve" font-family="Helvetica-Bold,Helvetica" font-weight="bold" font-size="36.0" fill="#FEFFFE" transform="matrix(1.00, 0.00, -0.00, -1.00, 384.1, 59.0)">S</text><text xml:space="preserve" font-family="Helvetica-Bold,Helvetica" font-weight="bold" font-size="36.0" fill="#FEFFFE" transform="matrix(1.00, 0.00, -0.00, -1.00, 408.1, 59.0)">c</text><text xml:space="preserve" font-family="Helvetica-Bold,Helvetica" font-weight="bold" font-size="36.0" fill="#FEFFFE" transform="matrix(1.00, 0.00, -0.00, -1.00, 428.1, 59.0)">o</text><text xml:space="preserve" font-family="Helvetica-Bold,Helvetica" font-weight="bold" font-size="36.0" fill="#FEFFFE" transform="matrix(1.00, 0.00, -0.00, -1.00, 450.1, 59.0)">p</text><text xml:space="preserve" font-family="Helvetica-Bold,Helvetica" font-weight="bold" font-size="36.0" fill="#FEFFFE" transform="matrix(1.00, 0.00, -0.00, -1.00, 472.1, 59.0)">e</text></g></g><g><clipPath id="clip0x7fd058a69a60"><path d="M 581.2 69.9 L 614.1 69.9 L 614.1 47.5 L 581.2 47.5 Z M 581.2 69.9 "></path></clipPath><g clip-path="url(#clip0x7fd058a69a60)"><path d="M -0.2 0.2 L 10.4 0.2 L 12.8 0.2 " fill="none" stroke="#000000" stroke-width="5.00" transform="matrix(1.00, 0.00, 0.00, -1.00, 582.2, 58.7)"></path><path d="M 592.5 48.3 L 612.9 58.5 L 592.5 68.7 Z M 592.5 48.3 " fill="#000000"></path></g></g><g><clipPath id="clip0x7fd058a700f0"><path d="M 132.3 47.5 L 167.6 47.5 L 167.6 69.9 L 132.3 69.9 Z M 132.3 47.5 "></path></clipPath><g clip-path="url(#clip0x7fd058a700f0)"><path d="M -0.3 0.2 L 12.8 0.2 L 15.7 0.2 " fill="none" stroke="#000000" stroke-width="5.00" transform="matrix(1.00, 0.00, 0.00, -1.00, 133.3, 58.7)"></path><path d="M 146.5 48.3 L 166.9 58.5 L 146.5 68.7 Z M 146.5 48.3 " fill="#000000"></path></g></g><g><clipPath id="clip0x7fd058a71680"><path d="M 0.9 0.7 L 135.6 0.7 L 135.6 143.3 L 0.9 143.3 Z M 0.9 0.7 "></path></clipPath><g clip-path="url(#clip0x7fd058a71680)"><path d="M 4.5 23.0 L 4.5 120.8 C 4.5 131.3 12.9 139.5 23.4 139.5 L 113.1 139.5 C 123.6 139.5 132.5 131.3 132.5 120.8 L 132.5 23.2 C 132.5 12.7 123.6 4.5 113.1 4.5 L 23.4 4.5 C 12.9 4.5 4.5 12.5 4.5 23.0 Z M 4.4 23.2 " fill="#92D894"></path><path d="M 0.1 116.8 L 0.1 19.0 C 0.1 8.5 8.5 0.3 19.0 0.3 L 108.7 0.3 C 119.2 0.3 128.1 8.5 128.1 19.0 L 128.1 116.6 C 128.1 127.1 119.2 135.3 108.7 135.3 L 19.0 135.3 C 8.5 135.3 0.1 127.3 0.1 116.8 Z M 0.0 116.6 " fill="none" stroke="#00872A" stroke-width="5.00" transform="matrix(1.00, 0.00, 0.00, -1.00, 4.4, 139.8)"></path></g></g><g><clipPath id="clip0x7fd058a734a0"><path d="M 1.9 4.2 L 134.6 4.2 L 134.6 139.8 L 1.9 139.8 Z M 1.9 4.2 "></path></clipPath><g clip-path="url(#clip0x7fd058a734a0)"><text xml:space="preserve" font-family="Helvetica-Bold,Helvetica" font-weight="bold" font-size="36.0" fill="#FEFFFE" transform="matrix(1.00, 0.00, -0.00, -1.00, 44.3, 59.0)">U</text><text xml:space="preserve" font-family="Helvetica-Bold,Helvetica" font-weight="bold" font-size="36.0" fill="#FEFFFE" transform="matrix(1.00, 0.00, -0.00, -1.00, 70.3, 59.0)">p</text></g></g></g></svg>