<?xml version="1.0" encoding="UTF-8" standalone="no"?><svg xmlns="http://www.w3.org/2000/svg" xmlns:xlink="http://www.w3.org/1999/xlink" clip-rule="evenodd" stroke-miterlimit="4.00" viewBox="0 0 1024 768"><desc>SVG generated by Keynote</desc><defs></defs><g transform="matrix(1.00, 0.00, -0.00, -1.00, 0.0, 768.0)"><path d="M 0.0 768.0 L 1024.0 768.0 L 1024.0 0.0 L 0.0 0.0 Z M 0.0 768.0 " fill="#FEFFFF"></path><text xml:space="preserve" font-family="Helvetica-Light" font-size="48.0" fill="#000000" transform="matrix(1.00, 0.00, -0.00, -1.00, 220.0, 395.0)">C</text><text xml:space="preserve" font-family="Helvetica-Light" font-size="48.0" fill="#000000" transform="matrix(1.00, 0.00, -0.00, -1.00, 254.7, 395.0)">o</text><text xml:space="preserve" font-family="Helvetica-Light" font-size="48.0" fill="#000000" transform="matrix(1.00, 0.00, -0.00, -1.00, 281.3, 395.0)">n</text><text xml:space="preserve" font-family="Helvetica-Light" font-size="48.0" fill="#000000" transform="matrix(1.00, 0.00, -0.00, -1.00, 308.0, 395.0)">n</text><text xml:space="preserve" font-family="Helvetica-Light" font-size="48.0" fill="#000000" transform="matrix(1.00, 0.00, -0.00, -1.00, 334.7, 395.0)">e</text><text xml:space="preserve" font-family="Helvetica-Light" font-size="48.0" fill="#000000" transform="matrix(1.00, 0.00, -0.00, -1.00, 361.4, 395.0)">c</text><text xml:space="preserve" font-family="Helvetica-Light" font-size="48.0" fill="#000000" transform="matrix(1.00, 0.00, -0.00, -1.00, 388.1, 395.0)">t</text><text xml:space="preserve" font-family="Helvetica-Light" font-size="48.0" fill="#000000" transform="matrix(1.00, 0.00, -0.00, -1.00, 401.4, 395.0)">e</text><text xml:space="preserve" font-family="Helvetica-Light" font-size="48.0" fill="#000000" transform="matrix(1.00, 0.00, -0.00, -1.00, 428.1, 395.0)">d</text><text xml:space="preserve" font-family="Helvetica-Light" font-size="48.0" fill="#000000" transform="matrix(1.00, 0.00, -0.00, -1.00, 457.5, 395.0)"> </text><text xml:space="preserve" font-family="Helvetica-Light" font-size="48.0" fill="#000000" transform="matrix(1.00, 0.00, -0.00, -1.00, 470.8, 395.0)">c</text><text xml:space="preserve" font-family="Helvetica-Light" font-size="48.0" fill="#000000" transform="matrix(1.00, 0.00, -0.00, -1.00, 497.5, 395.0)">o</text><text xml:space="preserve" font-family="Helvetica-Light" font-size="48.0" fill="#000000" transform="matrix(1.00, 0.00, -0.00, -1.00, 524.2, 395.0)">m</text><text xml:space="preserve" font-family="Helvetica-Light" font-size="48.0" fill="#000000" transform="matrix(1.00, 0.00, -0.00, -1.00, 564.2, 395.0)">p</text><text xml:space="preserve" font-family="Helvetica-Light" font-size="48.0" fill="#000000" transform="matrix(1.00, 0.00, -0.00, -1.00, 593.5, 395.0)">o</text><text xml:space="preserve" font-family="Helvetica-Light" font-size="48.0" fill="#000000" transform="matrix(1.00, 0.00, -0.00, -1.00, 620.2, 395.0)">n</text><text xml:space="preserve" font-family="Helvetica-Light" font-size="48.0" fill="#000000" transform="matrix(1.00, 0.00, -0.00, -1.00, 646.9, 395.0)">e</text><text xml:space="preserve" font-family="Helvetica-Light" font-size="48.0" fill="#000000" transform="matrix(1.00, 0.00, -0.00, -1.00, 673.6, 395.0)">n</text><text xml:space="preserve" font-family="Helvetica-Light" font-size="48.0" fill="#000000" transform="matrix(1.00, 0.00, -0.00, -1.00, 700.2, 395.0)">t</text><text xml:space="preserve" font-family="Helvetica-Light" font-size="48.0" fill="#000000" transform="matrix(1.00, 0.00, -0.00, -1.00, 713.6, 395.0)">s</text><text xml:space="preserve" font-family="Helvetica-Light" font-size="48.0" fill="#000000" transform="matrix(1.00, 0.00, -0.00, -1.00, 737.6, 395.0)"> </text><text xml:space="preserve" font-family="Helvetica-Light" font-size="48.0" fill="#000000" transform="matrix(1.00, 0.00, -0.00, -1.00, 750.9, 395.0)">o</text><text xml:space="preserve" font-family="Helvetica-Light" font-size="48.0" fill="#000000" transform="matrix(1.00, 0.00, -0.00, -1.00, 777.6, 395.0)">n</text><text xml:space="preserve" font-family="Helvetica-Light" font-size="48.0" fill="#000000" transform="matrix(1.00, 0.00, -0.00, -1.00, 804.3, 395.0)"> </text><text xml:space="preserve" font-family="Helvetica-Light" font-size="48.0" fill="#000000" transform="matrix(1.00, 0.00, -0.00, -1.00, 817.6, 395.0)"> </text><text xml:space="preserve" font-family="Helvetica-Light" font-size="48.0" fill="#000000" transform="matrix(1.00, 0.00, -0.00, -1.00, 221.0, 337.0)">t</text><text xml:space="preserve" font-family="Helvetica-Light" font-size="48.0" fill="#000000" transform="matrix(1.00, 0.00, -0.00, -1.00, 234.3, 337.0)">h</text><text xml:space="preserve" font-family="Helvetica-Light" font-size="48.0" fill="#000000" transform="matrix(1.00, 0.00, -0.00, -1.00, 261.0, 337.0)">e</text><text xml:space="preserve" font-family="Helvetica-Light" font-size="48.0" fill="#000000" transform="matrix(1.00, 0.00, -0.00, -1.00, 287.7, 337.0)"> </text><text xml:space="preserve" font-family="Helvetica-Light" font-size="48.0" fill="#000000" transform="matrix(1.00, 0.00, -0.00, -1.00, 301.1, 337.0)">T</text><text xml:space="preserve" font-family="Helvetica-Light" font-size="48.0" fill="#000000" transform="matrix(1.00, 0.00, -0.00, -1.00, 323.7, 337.0)">w</text><text xml:space="preserve" font-family="Helvetica-Light" font-size="48.0" fill="#000000" transform="matrix(1.00, 0.00, -0.00, -1.00, 358.4, 337.0)">i</text><text xml:space="preserve" font-family="Helvetica-Light" font-size="48.0" fill="#000000" transform="matrix(1.00, 0.00, -0.00, -1.00, 369.0, 337.0)">t</text><text xml:space="preserve" font-family="Helvetica-Light" font-size="48.0" fill="#000000" transform="matrix(1.00, 0.00, -0.00, -1.00, 382.4, 337.0)">t</text><text xml:space="preserve" font-family="Helvetica-Light" font-size="48.0" fill="#000000" transform="matrix(1.00, 0.00, -0.00, -1.00, 395.7, 337.0)">e</text><text xml:space="preserve" font-family="Helvetica-Light" font-size="48.0" fill="#000000" transform="matrix(1.00, 0.00, -0.00, -1.00, 422.4, 337.0)">r</text><text xml:space="preserve" font-family="Helvetica-Light" font-size="48.0" fill="#000000" transform="matrix(1.00, 0.00, -0.00, -1.00, 438.4, 337.0)"> </text><text xml:space="preserve" font-family="Helvetica-Light" font-size="48.0" fill="#000000" transform="matrix(1.00, 0.00, -0.00, -1.00, 451.7, 337.0)">@</text><text xml:space="preserve" font-family="Helvetica-Light" font-size="48.0" fill="#000000" transform="matrix(1.00, 0.00, -0.00, -1.00, 490.1, 337.0)">m</text><text xml:space="preserve" font-family="Helvetica-Light" font-size="48.0" fill="#000000" transform="matrix(1.00, 0.00, -0.00, -1.00, 530.1, 337.0)">e</text><text xml:space="preserve" font-family="Helvetica-Light" font-size="48.0" fill="#000000" transform="matrix(1.00, 0.00, -0.00, -1.00, 556.8, 337.0)">n</text><text xml:space="preserve" font-family="Helvetica-Light" font-size="48.0" fill="#000000" transform="matrix(1.00, 0.00, -0.00, -1.00, 583.5, 337.0)">t</text><text xml:space="preserve" font-family="Helvetica-Light" font-size="48.0" fill="#000000" transform="matrix(1.00, 0.00, -0.00, -1.00, 596.8, 337.0)">i</text><text xml:space="preserve" font-family="Helvetica-Light" font-size="48.0" fill="#000000" transform="matrix(1.00, 0.00, -0.00, -1.00, 607.5, 337.0)">o</text><text xml:space="preserve" font-family="Helvetica-Light" font-size="48.0" fill="#000000" transform="matrix(1.00, 0.00, -0.00, -1.00, 634.2, 337.0)">n</text><text xml:space="preserve" font-family="Helvetica-Light" font-size="48.0" fill="#000000" transform="matrix(1.00, 0.00, -0.00, -1.00, 660.9, 337.0)"> </text><text xml:space="preserve" font-family="Helvetica-Light" font-size="48.0" fill="#000000" transform="matrix(1.00, 0.00, -0.00, -1.00, 674.2, 337.0)">g</text><text xml:space="preserve" font-family="Helvetica-Light" font-size="48.0" fill="#000000" transform="matrix(1.00, 0.00, -0.00, -1.00, 703.5, 337.0)">r</text><text xml:space="preserve" font-family="Helvetica-Light" font-size="48.0" fill="#000000" transform="matrix(1.00, 0.00, -0.00, -1.00, 719.5, 337.0)">a</text><text xml:space="preserve" font-family="Helvetica-Light" font-size="48.0" fill="#000000" transform="matrix(1.00, 0.00, -0.00, -1.00, 746.2, 337.0)">p</text><text xml:space="preserve" font-family="Helvetica-Light" font-size="48.0" fill="#000000" transform="matrix(1.00, 0.00, -0.00, -1.00, 775.5, 337.0)">h</text></g></svg>