<?xml version="1.0" encoding="UTF-8" standalone="no"?><svg xmlns="http://www.w3.org/2000/svg" xmlns:xlink="http://www.w3.org/1999/xlink" clip-rule="evenodd" stroke-miterlimit="4.00" viewBox="0 0 1024 768"><desc>SVG generated by Keynote</desc><defs></defs><g transform="matrix(1.00, 0.00, -0.00, -1.00, 0.0, 768.0)"><path d="M 0.0 768.0 L 1024.0 768.0 L 1024.0 0.0 L 0.0 0.0 Z M 0.0 768.0 " fill="#FEFFFF"></path><text xml:space="preserve" font-family="Helvetica-Light" font-size="48.0" fill="#000000" transform="matrix(1.00, 0.00, -0.00, -1.00, 251.0, 395.0)">W</text><text xml:space="preserve" font-family="Helvetica-Light" font-size="48.0" fill="#000000" transform="matrix(1.00, 0.00, -0.00, -1.00, 293.7, 395.0)">h</text><text xml:space="preserve" font-family="Helvetica-Light" font-size="48.0" fill="#000000" transform="matrix(1.00, 0.00, -0.00, -1.00, 320.4, 395.0)">o</text><text xml:space="preserve" font-family="Helvetica-Light" font-size="48.0" fill="#000000" transform="matrix(1.00, 0.00, -0.00, -1.00, 347.0, 395.0)">l</text><text xml:space="preserve" font-family="Helvetica-Light" font-size="48.0" fill="#000000" transform="matrix(1.00, 0.00, -0.00, -1.00, 357.7, 395.0)">e</text><text xml:space="preserve" font-family="Helvetica-Light" font-size="48.0" fill="#000000" transform="matrix(1.00, 0.00, -0.00, -1.00, 384.4, 395.0)"> </text><text xml:space="preserve" font-family="Helvetica-Light" font-size="48.0" fill="#000000" transform="matrix(1.00, 0.00, -0.00, -1.00, 397.7, 395.0)">a</text><text xml:space="preserve" font-family="Helvetica-Light" font-size="48.0" fill="#000000" transform="matrix(1.00, 0.00, -0.00, -1.00, 424.4, 395.0)">n</text><text xml:space="preserve" font-family="Helvetica-Light" font-size="48.0" fill="#000000" transform="matrix(1.00, 0.00, -0.00, -1.00, 451.1, 395.0)">a</text><text xml:space="preserve" font-family="Helvetica-Light" font-size="48.0" fill="#000000" transform="matrix(1.00, 0.00, -0.00, -1.00, 477.8, 395.0)">l</text><text xml:space="preserve" font-family="Helvetica-Light" font-size="48.0" fill="#000000" transform="matrix(1.00, 0.00, -0.00, -1.00, 488.5, 395.0)">y</text><text xml:space="preserve" font-family="Helvetica-Light" font-size="48.0" fill="#000000" transform="matrix(1.00, 0.00, -0.00, -1.00, 512.5, 395.0)">t</text><text xml:space="preserve" font-family="Helvetica-Light" font-size="48.0" fill="#000000" transform="matrix(1.00, 0.00, -0.00, -1.00, 525.8, 395.0)">i</text><text xml:space="preserve" font-family="Helvetica-Light" font-size="48.0" fill="#000000" transform="matrix(1.00, 0.00, -0.00, -1.00, 536.5, 395.0)">c</text><text xml:space="preserve" font-family="Helvetica-Light" font-size="48.0" fill="#000000" transform="matrix(1.00, 0.00, -0.00, -1.00, 563.1, 395.0)">s</text><text xml:space="preserve" font-family="Helvetica-Light" font-size="48.0" fill="#000000" transform="matrix(1.00, 0.00, -0.00, -1.00, 587.1, 395.0)"> </text><text xml:space="preserve" font-family="Helvetica-Light" font-size="48.0" fill="#000000" transform="matrix(1.00, 0.00, -0.00, -1.00, 600.5, 395.0)">t</text><text xml:space="preserve" font-family="Helvetica-Light" font-size="48.0" fill="#000000" transform="matrix(1.00, 0.00, -0.00, -1.00, 613.8, 395.0)">h</text><text xml:space="preserve" font-family="Helvetica-Light" font-size="48.0" fill="#000000" transform="matrix(1.00, 0.00, -0.00, -1.00, 640.5, 395.0)">i</text><text xml:space="preserve" font-family="Helvetica-Light" font-size="48.0" fill="#000000" transform="matrix(1.00, 0.00, -0.00, -1.00, 651.2, 395.0)">n</text><text xml:space="preserve" font-family="Helvetica-Light" font-size="48.0" fill="#000000" transform="matrix(1.00, 0.00, -0.00, -1.00, 677.9, 395.0)">g</text><text xml:space="preserve" font-family="Helvetica-Light" font-size="48.0" fill="#000000" transform="matrix(1.00, 0.00, -0.00, -1.00, 707.2, 395.0)"> </text><text xml:space="preserve" font-family="Helvetica-Light" font-size="48.0" fill="#000000" transform="matrix(1.00, 0.00, -0.00, -1.00, 720.5, 395.0)">o</text><text xml:space="preserve" font-family="Helvetica-Light" font-size="48.0" fill="#000000" transform="matrix(1.00, 0.00, -0.00, -1.00, 747.2, 395.0)">n</text><text xml:space="preserve" font-family="Helvetica-Light" font-size="48.0" fill="#000000" transform="matrix(1.00, 0.00, -0.00, -1.00, 773.9, 395.0)"> </text><text xml:space="preserve" font-family="Helvetica-Light" font-size="48.0" fill="#000000" transform="matrix(1.00, 0.00, -0.00, -1.00, 787.3, 395.0)"> </text><text xml:space="preserve" font-family="Helvetica-Light" font-size="48.0" fill="#000000" transform="matrix(1.00, 0.00, -0.00, -1.00, 217.0, 337.0)">a</text><text xml:space="preserve" font-family="Helvetica-Light" font-size="48.0" fill="#000000" transform="matrix(1.00, 0.00, -0.00, -1.00, 243.7, 337.0)"> </text><text xml:space="preserve" font-family="Helvetica-Light" font-size="48.0" fill="#000000" transform="matrix(1.00, 0.00, -0.00, -1.00, 257.0, 337.0)">r</text><text xml:space="preserve" font-family="Helvetica-Light" font-size="48.0" fill="#000000" transform="matrix(1.00, 0.00, -0.00, -1.00, 273.0, 337.0)">a</text><text xml:space="preserve" font-family="Helvetica-Light" font-size="48.0" fill="#000000" transform="matrix(1.00, 0.00, -0.00, -1.00, 299.7, 337.0)">n</text><text xml:space="preserve" font-family="Helvetica-Light" font-size="48.0" fill="#000000" transform="matrix(1.00, 0.00, -0.00, -1.00, 326.4, 337.0)">d</text><text xml:space="preserve" font-family="Helvetica-Light" font-size="48.0" fill="#000000" transform="matrix(1.00, 0.00, -0.00, -1.00, 355.7, 337.0)">o</text><text xml:space="preserve" font-family="Helvetica-Light" font-size="48.0" fill="#000000" transform="matrix(1.00, 0.00, -0.00, -1.00, 382.4, 337.0)">m</text><text xml:space="preserve" font-family="Helvetica-Light" font-size="48.0" fill="#000000" transform="matrix(1.00, 0.00, -0.00, -1.00, 422.4, 337.0)"> </text><text xml:space="preserve" font-family="Helvetica-Light" font-size="48.0" fill="#000000" transform="matrix(1.00, 0.00, -0.00, -1.00, 435.7, 337.0)">n</text><text xml:space="preserve" font-family="Helvetica-Light" font-size="48.0" fill="#000000" transform="matrix(1.00, 0.00, -0.00, -1.00, 462.4, 337.0)">o</text><text xml:space="preserve" font-family="Helvetica-Light" font-size="48.0" fill="#000000" transform="matrix(1.00, 0.00, -0.00, -1.00, 489.1, 337.0)">n</text><text xml:space="preserve" font-family="Helvetica-Light" font-size="48.0" fill="#000000" transform="matrix(1.00, 0.00, -0.00, -1.00, 515.8, 337.0)">s</text><text xml:space="preserve" font-family="Helvetica-Light" font-size="48.0" fill="#000000" transform="matrix(1.00, 0.00, -0.00, -1.00, 539.8, 337.0)">e</text><text xml:space="preserve" font-family="Helvetica-Light" font-size="48.0" fill="#000000" transform="matrix(1.00, 0.00, -0.00, -1.00, 566.5, 337.0)">n</text><text xml:space="preserve" font-family="Helvetica-Light" font-size="48.0" fill="#000000" transform="matrix(1.00, 0.00, -0.00, -1.00, 593.2, 337.0)">s</text><text xml:space="preserve" font-family="Helvetica-Light" font-size="48.0" fill="#000000" transform="matrix(1.00, 0.00, -0.00, -1.00, 617.2, 337.0)">e</text><text xml:space="preserve" font-family="Helvetica-Light" font-size="48.0" fill="#000000" transform="matrix(1.00, 0.00, -0.00, -1.00, 643.9, 337.0)"> </text><text xml:space="preserve" font-family="Helvetica-Light" font-size="48.0" fill="#000000" transform="matrix(1.00, 0.00, -0.00, -1.00, 657.2, 337.0)">c</text><text xml:space="preserve" font-family="Helvetica-Light" font-size="48.0" fill="#000000" transform="matrix(1.00, 0.00, -0.00, -1.00, 683.9, 337.0)">o</text><text xml:space="preserve" font-family="Helvetica-Light" font-size="48.0" fill="#000000" transform="matrix(1.00, 0.00, -0.00, -1.00, 710.6, 337.0)">r</text><text xml:space="preserve" font-family="Helvetica-Light" font-size="48.0" fill="#000000" transform="matrix(1.00, 0.00, -0.00, -1.00, 726.6, 337.0)">p</text><text xml:space="preserve" font-family="Helvetica-Light" font-size="48.0" fill="#000000" transform="matrix(1.00, 0.00, -0.00, -1.00, 755.9, 337.0)">u</text><text xml:space="preserve" font-family="Helvetica-Light" font-size="48.0" fill="#000000" transform="matrix(1.00, 0.00, -0.00, -1.00, 782.6, 337.0)">s</text></g></svg>