<?xml version="1.0" encoding="UTF-8" standalone="no"?><svg xmlns="http://www.w3.org/2000/svg" xmlns:xlink="http://www.w3.org/1999/xlink" clip-rule="evenodd" stroke-miterlimit="4.00" viewBox="0 0 853 130"><desc>SVG generated by Keynote</desc><defs></defs><g transform="matrix(1.00, 0.00, -0.00, -1.00, 0.0, 130.0)"><text xml:space="preserve" font-family="Helvetica-Light" font-size="72.0" fill="#000000" transform="matrix(1.00, 0.00, -0.00, -1.00, -4.0, 76.0)">B</text><text xml:space="preserve" font-family="Helvetica-Light" font-size="72.0" fill="#000000" transform="matrix(1.00, 0.00, -0.00, -1.00, 44.0, 76.0)">i</text><text xml:space="preserve" font-family="Helvetica-Light" font-size="72.0" fill="#000000" transform="matrix(1.00, 0.00, -0.00, -1.00, 60.0, 76.0)">g</text><text xml:space="preserve" font-family="Helvetica-Light" font-size="72.0" fill="#000000" transform="matrix(1.00, 0.00, -0.00, -1.00, 104.0, 76.0)"> </text><text xml:space="preserve" font-family="Helvetica-Light" font-size="72.0" fill="#000000" transform="matrix(1.00, 0.00, -0.00, -1.00, 124.0, 76.0)">d</text><text xml:space="preserve" font-family="Helvetica-Light" font-size="72.0" fill="#000000" transform="matrix(1.00, 0.00, -0.00, -1.00, 168.0, 76.0)">a</text><text xml:space="preserve" font-family="Helvetica-Light" font-size="72.0" fill="#000000" transform="matrix(1.00, 0.00, -0.00, -1.00, 208.0, 76.0)">t</text><text xml:space="preserve" font-family="Helvetica-Light" font-size="72.0" fill="#000000" transform="matrix(1.00, 0.00, -0.00, -1.00, 228.1, 76.0)">a</text><text xml:space="preserve" font-family="Helvetica-Light" font-size="72.0" fill="#000000" transform="matrix(1.00, 0.00, -0.00, -1.00, 268.1, 76.0)"> </text><text xml:space="preserve" font-family="Helvetica-Light" font-size="72.0" fill="#000000" transform="matrix(1.00, 0.00, -0.00, -1.00, 288.1, 76.0)">s</text><text xml:space="preserve" font-family="Helvetica-Light" font-size="72.0" fill="#000000" transform="matrix(1.00, 0.00, -0.00, -1.00, 324.1, 76.0)">y</text><text xml:space="preserve" font-family="Helvetica-Light" font-size="72.0" fill="#000000" transform="matrix(1.00, 0.00, -0.00, -1.00, 360.1, 76.0)">s</text><text xml:space="preserve" font-family="Helvetica-Light" font-size="72.0" fill="#000000" transform="matrix(1.00, 0.00, -0.00, -1.00, 396.1, 76.0)">t</text><text xml:space="preserve" font-family="Helvetica-Light" font-size="72.0" fill="#000000" transform="matrix(1.00, 0.00, -0.00, -1.00, 416.1, 76.0)">e</text><text xml:space="preserve" font-family="Helvetica-Light" font-size="72.0" fill="#000000" transform="matrix(1.00, 0.00, -0.00, -1.00, 456.2, 76.0)">m</text><text xml:space="preserve" font-family="Helvetica-Light" font-size="72.0" fill="#000000" transform="matrix(1.00, 0.00, -0.00, -1.00, 516.1, 76.0)">s</text><text xml:space="preserve" font-family="Helvetica-Light" font-size="72.0" fill="#000000" transform="matrix(1.00, 0.00, -0.00, -1.00, 552.1, 76.0)"> </text><text xml:space="preserve" font-family="Helvetica-Light" font-size="72.0" fill="#000000" transform="matrix(1.00, 0.00, -0.00, -1.00, 572.1, 76.0)">a</text><text xml:space="preserve" font-family="Helvetica-Light" font-size="72.0" fill="#000000" transform="matrix(1.00, 0.00, -0.00, -1.00, 612.2, 76.0)">r</text><text xml:space="preserve" font-family="Helvetica-Light" font-size="72.0" fill="#000000" transform="matrix(1.00, 0.00, -0.00, -1.00, 634.9, 76.0)">e</text><text xml:space="preserve" font-family="Helvetica-Light" font-size="72.0" fill="#000000" transform="matrix(1.00, 0.00, -0.00, -1.00, 674.9, 76.0)"> </text><text xml:space="preserve" font-family="Helvetica-Light" font-size="72.0" fill="#000000" transform="matrix(1.00, 0.00, -0.00, -1.00, 694.9, 76.0)">L</text><text xml:space="preserve" font-family="Helvetica-Light" font-size="72.0" fill="#000000" transform="matrix(1.00, 0.00, -0.00, -1.00, 734.9, 76.0)">P</text><text xml:space="preserve" font-family="Helvetica-Light" font-size="72.0" fill="#000000" transform="matrix(1.00, 0.00, -0.00, -1.00, 778.9, 76.0)">C</text><text xml:space="preserve" font-family="Helvetica-Light" font-size="72.0" fill="#000000" transform="matrix(1.00, 0.00, -0.00, -1.00, 830.9, 76.0)"> </text><text xml:space="preserve" font-family="Helvetica-Light" font-size="72.0" fill="#000000" transform="matrix(1.00, 0.00, -0.00, -1.00, 850.9, 76.0)"> </text><text xml:space="preserve" font-family="Helvetica-Light" font-size="48.0" fill="#000000" transform="matrix(1.00, 0.00, -0.00, -1.00, 83.0, 12.0)">(</text><text xml:space="preserve" font-family="Helvetica-Light" font-size="48.0" fill="#000000" transform="matrix(1.00, 0.00, -0.00, -1.00, 99.0, 12.0)">L</text><text xml:space="preserve" font-family="Helvetica-Light" font-size="48.0" fill="#000000" transform="matrix(1.00, 0.00, -0.00, -1.00, 125.7, 12.0)">o</text><text xml:space="preserve" font-family="Helvetica-Light" font-size="48.0" fill="#000000" transform="matrix(1.00, 0.00, -0.00, -1.00, 152.4, 12.0)">w</text><text xml:space="preserve" font-family="Helvetica-Light" font-size="48.0" fill="#000000" transform="matrix(1.00, 0.00, -0.00, -1.00, 187.0, 12.0)"> </text><text xml:space="preserve" font-family="Helvetica-Light" font-size="48.0" fill="#000000" transform="matrix(1.00, 0.00, -0.00, -1.00, 200.4, 12.0)">P</text><text xml:space="preserve" font-family="Helvetica-Light" font-size="48.0" fill="#000000" transform="matrix(1.00, 0.00, -0.00, -1.00, 229.7, 12.0)">e</text><text xml:space="preserve" font-family="Helvetica-Light" font-size="48.0" fill="#000000" transform="matrix(1.00, 0.00, -0.00, -1.00, 256.4, 12.0)">r</text><text xml:space="preserve" font-family="Helvetica-Light" font-size="48.0" fill="#000000" transform="matrix(1.00, 0.00, -0.00, -1.00, 273.2, 12.0)">f</text><text xml:space="preserve" font-family="Helvetica-Light" font-size="48.0" fill="#000000" transform="matrix(1.00, 0.00, -0.00, -1.00, 286.6, 12.0)">o</text><text xml:space="preserve" font-family="Helvetica-Light" font-size="48.0" fill="#000000" transform="matrix(1.00, 0.00, -0.00, -1.00, 313.3, 12.0)">r</text><text xml:space="preserve" font-family="Helvetica-Light" font-size="48.0" fill="#000000" transform="matrix(1.00, 0.00, -0.00, -1.00, 330.1, 12.0)">m</text><text xml:space="preserve" font-family="Helvetica-Light" font-size="48.0" fill="#000000" transform="matrix(1.00, 0.00, -0.00, -1.00, 370.1, 12.0)">a</text><text xml:space="preserve" font-family="Helvetica-Light" font-size="48.0" fill="#000000" transform="matrix(1.00, 0.00, -0.00, -1.00, 396.8, 12.0)">n</text><text xml:space="preserve" font-family="Helvetica-Light" font-size="48.0" fill="#000000" transform="matrix(1.00, 0.00, -0.00, -1.00, 423.5, 12.0)">c</text><text xml:space="preserve" font-family="Helvetica-Light" font-size="48.0" fill="#000000" transform="matrix(1.00, 0.00, -0.00, -1.00, 450.2, 12.0)">e</text><text xml:space="preserve" font-family="Helvetica-Light" font-size="48.0" fill="#000000" transform="matrix(1.00, 0.00, -0.00, -1.00, 476.8, 12.0)"> </text><text xml:space="preserve" font-family="Helvetica-Light" font-size="48.0" fill="#000000" transform="matrix(1.00, 0.00, -0.00, -1.00, 490.2, 12.0)">C</text><text xml:space="preserve" font-family="Helvetica-Light" font-size="48.0" fill="#000000" transform="matrix(1.00, 0.00, -0.00, -1.00, 524.8, 12.0)">o</text><text xml:space="preserve" font-family="Helvetica-Light" font-size="48.0" fill="#000000" transform="matrix(1.00, 0.00, -0.00, -1.00, 551.5, 12.0)">m</text><text xml:space="preserve" font-family="Helvetica-Light" font-size="48.0" fill="#000000" transform="matrix(1.00, 0.00, -0.00, -1.00, 591.5, 12.0)">p</text><text xml:space="preserve" font-family="Helvetica-Light" font-size="48.0" fill="#000000" transform="matrix(1.00, 0.00, -0.00, -1.00, 620.8, 12.0)">u</text><text xml:space="preserve" font-family="Helvetica-Light" font-size="48.0" fill="#000000" transform="matrix(1.00, 0.00, -0.00, -1.00, 647.5, 12.0)">t</text><text xml:space="preserve" font-family="Helvetica-Light" font-size="48.0" fill="#000000" transform="matrix(1.00, 0.00, -0.00, -1.00, 660.9, 12.0)">i</text><text xml:space="preserve" font-family="Helvetica-Light" font-size="48.0" fill="#000000" transform="matrix(1.00, 0.00, -0.00, -1.00, 671.5, 12.0)">n</text><text xml:space="preserve" font-family="Helvetica-Light" font-size="48.0" fill="#000000" transform="matrix(1.00, 0.00, -0.00, -1.00, 698.2, 12.0)">g</text><text xml:space="preserve" font-family="Helvetica-Light" font-size="48.0" fill="#000000" transform="matrix(1.00, 0.00, -0.00, -1.00, 727.5, 12.0)">)</text></g></svg>