<?xml version="1.0" encoding="UTF-8" standalone="no"?><svg xmlns="http://www.w3.org/2000/svg" xmlns:xlink="http://www.w3.org/1999/xlink" clip-rule="evenodd" stroke-miterlimit="4.00" viewBox="0 0 490 52"><desc>SVG generated by Keynote</desc><defs></defs><g transform="matrix(1.00, 0.00, -0.00, -1.00, 0.0, 52.0)"><text xml:space="preserve" font-family="Helvetica-Light" font-size="64.0" fill="#000000" transform="matrix(1.00, 0.00, -0.00, -1.00, -5.0, 4.0)">I</text><text xml:space="preserve" font-family="Helvetica-Light" font-size="64.0" fill="#000000" transform="matrix(1.00, 0.00, -0.00, -1.00, 12.8, 4.0)">t</text><text xml:space="preserve" font-family="Helvetica-Light" font-size="64.0" fill="#000000" transform="matrix(1.00, 0.00, -0.00, -1.00, 30.6, 4.0)">e</text><text xml:space="preserve" font-family="Helvetica-Light" font-size="64.0" fill="#000000" transform="matrix(1.00, 0.00, -0.00, -1.00, 66.2, 4.0)">r</text><text xml:space="preserve" font-family="Helvetica-Light" font-size="64.0" fill="#000000" transform="matrix(1.00, 0.00, -0.00, -1.00, 87.5, 4.0)">a</text><text xml:space="preserve" font-family="Helvetica-Light" font-size="64.0" fill="#000000" transform="matrix(1.00, 0.00, -0.00, -1.00, 123.1, 4.0)">t</text><text xml:space="preserve" font-family="Helvetica-Light" font-size="64.0" fill="#000000" transform="matrix(1.00, 0.00, -0.00, -1.00, 140.9, 4.0)">i</text><text xml:space="preserve" font-family="Helvetica-Light" font-size="64.0" fill="#000000" transform="matrix(1.00, 0.00, -0.00, -1.00, 155.1, 4.0)">v</text><text xml:space="preserve" font-family="Helvetica-Light" font-size="64.0" fill="#000000" transform="matrix(1.00, 0.00, -0.00, -1.00, 187.1, 4.0)">e</text><text xml:space="preserve" font-family="Helvetica-Light" font-size="64.0" fill="#000000" transform="matrix(1.00, 0.00, -0.00, -1.00, 222.6, 4.0)"> </text><text xml:space="preserve" font-family="Helvetica-Light" font-size="64.0" fill="#000000" transform="matrix(1.00, 0.00, -0.00, -1.00, 240.4, 4.0)">D</text><text xml:space="preserve" font-family="Helvetica-Light" font-size="64.0" fill="#000000" transform="matrix(1.00, 0.00, -0.00, -1.00, 286.6, 4.0)">a</text><text xml:space="preserve" font-family="Helvetica-Light" font-size="64.0" fill="#000000" transform="matrix(1.00, 0.00, -0.00, -1.00, 322.2, 4.0)">t</text><text xml:space="preserve" font-family="Helvetica-Light" font-size="64.0" fill="#000000" transform="matrix(1.00, 0.00, -0.00, -1.00, 340.0, 4.0)">a</text><text xml:space="preserve" font-family="Helvetica-Light" font-size="64.0" fill="#000000" transform="matrix(1.00, 0.00, -0.00, -1.00, 375.6, 4.0)">ﬂ</text><text xml:space="preserve" font-family="Helvetica-Light" font-size="64.0" fill="#000000" transform="matrix(1.00, 0.00, -0.00, -1.00, 407.6, 4.0)">o</text><text xml:space="preserve" font-family="Helvetica-Light" font-size="64.0" fill="#000000" transform="matrix(1.00, 0.00, -0.00, -1.00, 443.2, 4.0)">w</text></g></svg>