<?xml version="1.0" encoding="UTF-8" standalone="no"?><svg xmlns="http://www.w3.org/2000/svg" xmlns:xlink="http://www.w3.org/1999/xlink" clip-rule="evenodd" stroke-miterlimit="10" viewBox="0 0 1024 768"><desc>SVG generated by Keynote</desc><defs></defs><g transform="matrix(1.00, 0.00, -0.00, -1.00, 0.0, 768.0)"><path d="M 0.0 768.0 L 1024.0 768.0 L 1024.0 0.0 L 0.0 0.0 Z M 0.0 768.0 " fill="#FEFFFF"></path><path d="M 266.5 520.0 L 266.5 634.0 C 266.5 646.3 276.8 656.5 289.1 656.5 L 734.6 656.5 C 746.8 656.5 756.5 646.3 756.5 634.0 L 756.5 519.8 C 756.5 507.6 746.8 497.5 734.6 497.5 L 289.1 497.5 C 276.8 497.5 266.5 507.7 266.5 520.0 Z M 266.9 519.8 " fill="#92D894"></path><path d="M -0.4 136.3 L -0.4 22.2 C -0.4 10.0 10.0 -0.2 22.2 -0.2 L 467.7 -0.2 C 480.0 -0.2 489.6 10.0 489.6 22.2 L 489.6 136.4 C 489.6 148.7 480.0 158.8 467.7 158.8 L 22.2 158.8 C 10.0 158.8 -0.4 148.5 -0.4 136.3 Z M 0.0 136.4 " fill="none" stroke="#00872A" stroke-width="5.00" transform="matrix(1.00, 0.00, 0.00, -1.00, 266.9, 656.3)"></path><path d="M 0.0 0.0 L 444.3 0.0 " fill="none" stroke="#000000" stroke-width="5.00" transform="matrix(-1.00, 0.00, 0.00, 1.00, 734.0, 621.3)"></path><path d="M 477.5 533.0 L 477.5 589.7 C 477.5 595.8 482.1 600.5 488.3 600.5 L 546.0 600.5 C 552.2 600.5 557.5 595.8 557.5 589.7 L 557.5 533.0 C 557.5 526.8 552.2 521.5 546.0 521.5 L 488.3 521.5 C 482.1 521.5 477.5 526.8 477.5 533.0 Z M 477.1 533.0 " fill="#51A7F9"></path><path d="M 0.4 67.8 L 0.4 11.2 C 0.4 5.0 5.0 0.3 11.2 0.3 L 68.9 0.3 C 75.0 0.3 80.4 5.0 80.4 11.2 L 80.4 67.8 C 80.4 74.0 75.0 79.3 68.9 79.3 L 11.2 79.3 C 5.0 79.3 0.4 74.0 0.4 67.8 Z M 0.0 67.8 " fill="none" stroke="#164E86" stroke-width="5.00" transform="matrix(1.00, 0.00, 0.00, -1.00, 477.1, 600.8)"></path><g><clipPath id="clip0x7fd058fc4e80"><path d="M 477.1 521.8 L 557.2 521.8 L 557.2 600.8 L 477.1 600.8 Z M 477.1 521.8 "></path></clipPath><g clip-path="url(#clip0x7fd058fc4e80)"><text xml:space="preserve" font-family="Helvetica-Bold,Helvetica" font-weight="bold" font-size="24.0" fill="#FEFFFE" transform="matrix(1.00, 0.00, -0.00, -1.00, 508.5, 552.3)">B</text></g></g><path d="M 327.5 533.0 L 327.5 589.7 C 327.5 595.8 332.1 600.5 338.3 600.5 L 396.0 600.5 C 402.2 600.5 407.5 595.8 407.5 589.7 L 407.5 533.0 C 407.5 526.8 402.2 521.5 396.0 521.5 L 338.3 521.5 C 332.1 521.5 327.5 526.8 327.5 533.0 Z M 327.1 533.0 " fill="#51A7F9"></path><path d="M 0.4 67.8 L 0.4 11.2 C 0.4 5.0 5.0 0.3 11.2 0.3 L 68.9 0.3 C 75.0 0.3 80.4 5.0 80.4 11.2 L 80.4 67.8 C 80.4 74.0 75.0 79.3 68.9 79.3 L 11.2 79.3 C 5.0 79.3 0.4 74.0 0.4 67.8 Z M 0.0 67.8 " fill="none" stroke="#164E86" stroke-width="5.00" transform="matrix(1.00, 0.00, 0.00, -1.00, 327.1, 600.8)"></path><g><clipPath id="clip0x7fd058fc7b40"><path d="M 327.1 521.8 L 407.2 521.8 L 407.2 600.8 L 327.1 600.8 Z M 327.1 521.8 "></path></clipPath><g clip-path="url(#clip0x7fd058fc7b40)"><text xml:space="preserve" font-family="Helvetica-Bold,Helvetica" font-weight="bold" font-size="24.0" fill="#FEFFFE" transform="matrix(1.00, 0.00, -0.00, -1.00, 358.5, 552.3)">A</text></g></g><path d="M 627.5 533.0 L 627.5 589.7 C 627.5 595.8 632.1 600.5 638.3 600.5 L 696.0 600.5 C 702.2 600.5 707.5 595.8 707.5 589.7 L 707.5 533.0 C 707.5 526.8 702.2 521.5 696.0 521.5 L 638.3 521.5 C 632.1 521.5 627.5 526.8 627.5 533.0 Z M 627.1 533.0 " fill="#51A7F9"></path><path d="M 0.4 67.8 L 0.4 11.2 C 0.4 5.0 5.0 0.3 11.2 0.3 L 68.9 0.3 C 75.0 0.3 80.4 5.0 80.4 11.2 L 80.4 67.8 C 80.4 74.0 75.0 79.3 68.9 79.3 L 11.2 79.3 C 5.0 79.3 0.4 74.0 0.4 67.8 Z M 0.0 67.8 " fill="none" stroke="#164E86" stroke-width="5.00" transform="matrix(1.00, 0.00, 0.00, -1.00, 627.1, 600.8)"></path><g><clipPath id="clip0x7fd058fca480"><path d="M 627.1 521.8 L 707.2 521.8 L 707.2 600.8 L 627.1 600.8 Z M 627.1 521.8 "></path></clipPath><g clip-path="url(#clip0x7fd058fca480)"><text xml:space="preserve" font-family="Helvetica-Bold,Helvetica" font-weight="bold" font-size="24.0" fill="#FEFFFE" transform="matrix(1.00, 0.00, -0.00, -1.00, 658.5, 552.3)">C</text></g></g><path d="M 0.5 -0.2 L 48.9 -0.2 L 51.5 -0.2 " fill="none" stroke="#000000" stroke-width="5.00" transform="matrix(1.00, 0.00, 0.00, -1.00, 407.5, 561.3)"></path><path d="M 456.5 551.3 L 476.9 561.5 L 456.5 571.7 Z M 456.5 551.3 " fill="#000000"></path><path d="M 0.5 -0.2 L 48.9 -0.2 L 51.5 -0.2 " fill="none" stroke="#000000" stroke-width="5.00" transform="matrix(1.00, 0.00, 0.00, -1.00, 557.5, 561.3)"></path><path d="M 606.5 551.3 L 626.9 561.5 L 606.5 571.7 Z M 606.5 551.3 " fill="#000000"></path><path d="M 0.5 -0.2 L 64.6 -0.2 L 67.5 -0.2 " fill="none" stroke="#000000" stroke-width="5.00" transform="matrix(1.00, 0.00, 0.00, -1.00, 707.5, 561.3)"></path><path d="M 772.5 551.3 L 792.9 561.5 L 772.5 571.7 Z M 772.5 551.3 " fill="#000000"></path><path d="M -0.5 -0.2 L 74.9 -0.2 L 77.5 -0.2 " fill="none" stroke="#000000" stroke-width="5.00" transform="matrix(1.00, 0.00, 0.00, -1.00, 231.5, 561.3)"></path><path d="M 306.5 551.3 L 326.9 561.5 L 306.5 571.7 Z M 306.5 551.3 " fill="#000000"></path><path d="M 0.0 0.0 L 60.0 0.0 " fill="none" stroke="#000000" stroke-width="5.00" transform="matrix(-0.02, 1.00, 1.00, 0.02, 732.2, 563.3)"></path><path d="M 0.3 0.3 L 39.6 0.3 L 42.3 0.3 " fill="none" stroke="#000000" stroke-width="5.00" transform="matrix(0.00, -1.00, -1.00, 0.00, 289.8, 623.3)"></path><path d="M 279.3 583.5 L 289.5 563.1 L 299.7 583.5 Z M 279.3 583.5 " fill="#000000"></path><text xml:space="preserve" font-family="Helvetica-Light,Helvetica" font-size="36.0" fill="#000000" transform="matrix(1.00, 0.00, -0.00, -1.00, 178.4, 345.4)">O</text><text xml:space="preserve" font-family="Helvetica-Light,Helvetica" font-size="36.0" fill="#000000" transform="matrix(1.00, 0.00, -0.00, -1.00, 206.4, 345.4)">u</text><text xml:space="preserve" font-family="Helvetica-Light,Helvetica" font-size="36.0" fill="#000000" transform="matrix(1.00, 0.00, -0.00, -1.00, 226.5, 345.4)">t</text><text xml:space="preserve" font-family="Helvetica-Light,Helvetica" font-size="36.0" fill="#000000" transform="matrix(1.00, 0.00, -0.00, -1.00, 236.5, 345.4)">s</text><text xml:space="preserve" font-family="Helvetica-Light,Helvetica" font-size="36.0" fill="#000000" transform="matrix(1.00, 0.00, -0.00, -1.00, 254.5, 345.4)">t</text><text xml:space="preserve" font-family="Helvetica-Light,Helvetica" font-size="36.0" fill="#000000" transform="matrix(1.00, 0.00, -0.00, -1.00, 264.5, 345.4)">a</text><text xml:space="preserve" font-family="Helvetica-Light,Helvetica" font-size="36.0" fill="#000000" transform="matrix(1.00, 0.00, -0.00, -1.00, 284.5, 345.4)">n</text><text xml:space="preserve" font-family="Helvetica-Light,Helvetica" font-size="36.0" fill="#000000" transform="matrix(1.00, 0.00, -0.00, -1.00, 304.5, 345.4)">d</text><text xml:space="preserve" font-family="Helvetica-Light,Helvetica" font-size="36.0" fill="#000000" transform="matrix(1.00, 0.00, -0.00, -1.00, 326.5, 345.4)">i</text><text xml:space="preserve" font-family="Helvetica-Light,Helvetica" font-size="36.0" fill="#000000" transform="matrix(1.00, 0.00, -0.00, -1.00, 334.5, 345.4)">n</text><text xml:space="preserve" font-family="Helvetica-Light,Helvetica" font-size="36.0" fill="#000000" transform="matrix(1.00, 0.00, -0.00, -1.00, 354.5, 345.4)">g</text><text xml:space="preserve" font-family="Helvetica-Light,Helvetica" font-size="36.0" fill="#000000" transform="matrix(1.00, 0.00, -0.00, -1.00, 376.5, 345.4)"> </text><text xml:space="preserve" font-family="Helvetica-Light,Helvetica" font-size="36.0" fill="#000000" transform="matrix(1.00, 0.00, -0.00, -1.00, 386.5, 345.4)">W</text><text xml:space="preserve" font-family="Helvetica-Light,Helvetica" font-size="36.0" fill="#000000" transform="matrix(1.00, 0.00, -0.00, -1.00, 417.9, 345.4)">o</text><text xml:space="preserve" font-family="Helvetica-Light,Helvetica" font-size="36.0" fill="#000000" transform="matrix(1.00, 0.00, -0.00, -1.00, 437.9, 345.4)">r</text><text xml:space="preserve" font-family="Helvetica-Light,Helvetica" font-size="36.0" fill="#000000" transform="matrix(1.00, 0.00, -0.00, -1.00, 449.9, 345.4)">k</text><text xml:space="preserve" font-family="Helvetica-Light,Helvetica" font-size="36.0" fill="#000000" transform="matrix(1.00, 0.00, -0.00, -1.00, 560.4, 345.4)">N</text><text xml:space="preserve" font-family="Helvetica-Light,Helvetica" font-size="36.0" fill="#000000" transform="matrix(1.00, 0.00, -0.00, -1.00, 586.4, 345.4)">o</text><text xml:space="preserve" font-family="Helvetica-Light,Helvetica" font-size="36.0" fill="#000000" transform="matrix(1.00, 0.00, -0.00, -1.00, 606.4, 345.4)">t</text><text xml:space="preserve" font-family="Helvetica-Light,Helvetica" font-size="36.0" fill="#000000" transform="matrix(1.00, 0.00, -0.00, -1.00, 616.4, 345.4)">i</text><text xml:space="preserve" font-family="Helvetica-Light,Helvetica" font-size="36.0" fill="#000000" transform="matrix(1.00, 0.00, -0.00, -1.00, 624.4, 345.4)">ï¬</text><text xml:space="preserve" font-family="Helvetica-Light,Helvetica" font-size="36.0" fill="#000000" transform="matrix(1.00, 0.00, -0.00, -1.00, 642.4, 345.4)">c</text><text xml:space="preserve" font-family="Helvetica-Light,Helvetica" font-size="36.0" fill="#000000" transform="matrix(1.00, 0.00, -0.00, -1.00, 662.4, 345.4)">a</text><text xml:space="preserve" font-family="Helvetica-Light,Helvetica" font-size="36.0" fill="#000000" transform="matrix(1.00, 0.00, -0.00, -1.00, 682.4, 345.4)">t</text><text xml:space="preserve" font-family="Helvetica-Light,Helvetica" font-size="36.0" fill="#000000" transform="matrix(1.00, 0.00, -0.00, -1.00, 692.4, 345.4)">i</text><text xml:space="preserve" font-family="Helvetica-Light,Helvetica" font-size="36.0" fill="#000000" transform="matrix(1.00, 0.00, -0.00, -1.00, 700.4, 345.4)">o</text><text xml:space="preserve" font-family="Helvetica-Light,Helvetica" font-size="36.0" fill="#000000" transform="matrix(1.00, 0.00, -0.00, -1.00, 720.5, 345.4)">n</text><text xml:space="preserve" font-family="Helvetica-Light,Helvetica" font-size="36.0" fill="#000000" transform="matrix(1.00, 0.00, -0.00, -1.00, 740.5, 345.4)"> </text><text xml:space="preserve" font-family="Helvetica-Light,Helvetica" font-size="36.0" fill="#000000" transform="matrix(1.00, 0.00, -0.00, -1.00, 750.5, 345.4)">R</text><text xml:space="preserve" font-family="Helvetica-Light,Helvetica" font-size="36.0" fill="#000000" transform="matrix(1.00, 0.00, -0.00, -1.00, 774.5, 345.4)">e</text><text xml:space="preserve" font-family="Helvetica-Light,Helvetica" font-size="36.0" fill="#000000" transform="matrix(1.00, 0.00, -0.00, -1.00, 794.5, 345.4)">q</text><text xml:space="preserve" font-family="Helvetica-Light,Helvetica" font-size="36.0" fill="#000000" transform="matrix(1.00, 0.00, -0.00, -1.00, 816.5, 345.4)">u</text><text xml:space="preserve" font-family="Helvetica-Light,Helvetica" font-size="36.0" fill="#000000" transform="matrix(1.00, 0.00, -0.00, -1.00, 836.5, 345.4)">e</text><text xml:space="preserve" font-family="Helvetica-Light,Helvetica" font-size="36.0" fill="#000000" transform="matrix(1.00, 0.00, -0.00, -1.00, 856.5, 345.4)">s</text><text xml:space="preserve" font-family="Helvetica-Light,Helvetica" font-size="36.0" fill="#000000" transform="matrix(1.00, 0.00, -0.00, -1.00, 874.5, 345.4)">t</text><text xml:space="preserve" font-family="Helvetica-Light,Helvetica" font-size="36.0" fill="#000000" transform="matrix(1.00, 0.00, -0.00, -1.00, 884.5, 345.4)">s</text><g><clipPath id="clip0x7fd058fdf2d0"><path d="M 243.9 214.3 L 302.1 214.3 L 302.1 276.3 L 243.9 276.3 Z M 243.9 214.3 "></path></clipPath><g clip-path="url(#clip0x7fd058fdf2d0)"><path d="M 247.5 226.0 L 247.5 265.0 C 247.5 269.3 250.9 272.5 255.2 272.5 L 290.9 272.5 C 295.2 272.5 298.5 269.3 298.5 265.0 L 298.5 225.6 C 298.5 221.3 295.2 217.5 290.9 217.5 L 255.2 217.5 C 250.9 217.5 247.5 221.7 247.5 226.0 Z M 247.4 225.6 " fill="#51A7F9"></path><path d="M 0.1 46.8 L 0.1 7.8 C 0.1 3.5 3.5 0.3 7.8 0.3 L 43.5 0.3 C 47.8 0.3 51.1 3.5 51.1 7.8 L 51.1 47.2 C 51.1 51.5 47.8 55.3 43.5 55.3 L 7.8 55.3 C 3.5 55.3 0.1 51.1 0.1 46.8 Z M 0.0 47.2 " fill="none" stroke="#164E86" stroke-width="5.00" transform="matrix(1.00, 0.00, 0.00, -1.00, 247.4, 272.8)"></path></g></g><g><clipPath id="clip0x7fd058fe1150"><path d="M 247.4 217.8 L 298.6 217.8 L 298.6 272.8 L 247.4 272.8 Z M 247.4 217.8 "></path></clipPath><g clip-path="url(#clip0x7fd058fe1150)"><text xml:space="preserve" font-family="Helvetica-Bold,Helvetica" font-weight="bold" font-size="24.0" fill="#FEFFFE" transform="matrix(1.00, 0.00, -0.00, -1.00, 264.4, 236.8)">B</text></g></g><g><clipPath id="clip0x7fd058fe2400"><path d="M 294.4 214.3 L 397.1 214.3 L 397.1 276.3 L 294.4 276.3 Z M 294.4 214.3 "></path></clipPath><g clip-path="url(#clip0x7fd058fe2400)"><path d="M 297.5 226.0 L 297.5 265.0 C 297.5 269.3 301.3 272.5 305.6 272.5 L 385.8 272.5 C 390.1 272.5 393.5 269.3 393.5 265.0 L 393.5 225.6 C 393.5 221.3 390.1 217.5 385.8 217.5 L 305.6 217.5 C 301.3 217.5 297.5 221.7 297.5 226.0 Z M 297.9 225.6 " fill="#B26AE1"></path><path d="M -0.4 46.8 L -0.4 7.8 C -0.4 3.5 3.5 0.3 7.8 0.3 L 88.0 0.3 C 92.3 0.3 95.6 3.5 95.6 7.8 L 95.6 47.2 C 95.6 51.5 92.3 55.3 88.0 55.3 L 7.8 55.3 C 3.5 55.3 -0.4 51.1 -0.4 46.8 Z M 0.0 47.2 " fill="none" stroke="#164E86" stroke-width="5.00" transform="matrix(1.00, 0.00, 0.00, -1.00, 297.9, 272.8)"></path></g></g><g><clipPath id="clip0x7fd058fe41c0"><path d="M 297.9 217.8 L 393.6 217.8 L 393.6 272.8 L 297.9 272.8 Z M 297.9 217.8 "></path></clipPath><g clip-path="url(#clip0x7fd058fe41c0)"><text xml:space="preserve" font-family="Helvetica-Bold,Helvetica" font-weight="bold" font-size="24.0" fill="#FEFFFE" transform="matrix(1.00, 0.00, -0.00, -1.00, 321.1, 236.8)">t</text><text xml:space="preserve" font-family="Helvetica-Bold,Helvetica" font-weight="bold" font-size="24.0" fill="#FEFFFE" transform="matrix(1.00, 0.00, -0.00, -1.00, 329.1, 236.8)">i</text><text xml:space="preserve" font-family="Helvetica-Bold,Helvetica" font-weight="bold" font-size="24.0" fill="#FEFFFE" transform="matrix(1.00, 0.00, -0.00, -1.00, 335.7, 236.8)">m</text><text xml:space="preserve" font-family="Helvetica-Bold,Helvetica" font-weight="bold" font-size="24.0" fill="#FEFFFE" transform="matrix(1.00, 0.00, -0.00, -1.00, 357.1, 236.8)">e</text></g></g><g><clipPath id="clip0x7fd058fe67e0"><path d="M 654.9 218.1 L 713.1 218.1 L 713.1 280.0 L 654.9 280.0 Z M 654.9 218.1 "></path></clipPath><g clip-path="url(#clip0x7fd058fe67e0)"><path d="M 658.5 229.0 L 658.5 268.8 C 658.5 273.0 661.8 276.5 666.1 276.5 L 701.9 276.5 C 706.1 276.5 709.5 273.0 709.5 268.8 L 709.5 229.3 C 709.5 225.0 706.1 221.5 701.9 221.5 L 666.1 221.5 C 661.8 221.5 658.5 224.7 658.5 229.0 Z M 658.4 229.3 " fill="#51A7F9"></path><path d="M 0.1 47.5 L 0.1 7.8 C 0.1 3.5 3.5 0.0 7.8 0.0 L 43.5 0.0 C 47.8 0.0 51.1 3.5 51.1 7.8 L 51.1 47.2 C 51.1 51.5 47.8 55.0 43.5 55.0 L 7.8 55.0 C 3.5 55.0 0.1 51.8 0.1 47.5 Z M 0.0 47.2 " fill="none" stroke="#164E86" stroke-width="5.00" transform="matrix(1.00, 0.00, 0.00, -1.00, 658.4, 276.5)"></path></g></g><g><clipPath id="clip0x7fd058fe85f0"><path d="M 658.4 221.6 L 709.6 221.6 L 709.6 276.5 L 658.4 276.5 Z M 658.4 221.6 "></path></clipPath><g clip-path="url(#clip0x7fd058fe85f0)"><text xml:space="preserve" font-family="Helvetica-Bold,Helvetica" font-weight="bold" font-size="24.0" fill="#FEFFFE" transform="matrix(1.00, 0.00, -0.00, -1.00, 675.3, 240.5)">C</text></g></g><g><clipPath id="clip0x7fd058fe98c0"><path d="M 705.3 218.1 L 808.1 218.1 L 808.1 280.0 L 705.3 280.0 Z M 705.3 218.1 "></path></clipPath><g clip-path="url(#clip0x7fd058fe98c0)"><path d="M 708.5 229.0 L 708.5 268.8 C 708.5 273.0 712.3 276.5 716.6 276.5 L 796.8 276.5 C 801.1 276.5 804.5 273.0 804.5 268.8 L 804.5 229.3 C 804.5 225.0 801.1 221.5 796.8 221.5 L 716.6 221.5 C 712.3 221.5 708.5 224.7 708.5 229.0 Z M 708.8 229.3 " fill="#B26AE1"></path><path d="M -0.3 47.5 L -0.3 7.8 C -0.3 3.5 3.5 0.0 7.8 0.0 L 88.0 0.0 C 92.3 0.0 95.7 3.5 95.7 7.8 L 95.7 47.2 C 95.7 51.5 92.3 55.0 88.0 55.0 L 7.8 55.0 C 3.5 55.0 -0.3 51.8 -0.3 47.5 Z M 0.0 47.2 " fill="none" stroke="#164E86" stroke-width="5.00" transform="matrix(1.00, 0.00, 0.00, -1.00, 708.8, 276.5)"></path></g></g><g><clipPath id="clip0x7fd058feb680"><path d="M 708.8 221.6 L 804.6 221.6 L 804.6 276.5 L 708.8 276.5 Z M 708.8 221.6 "></path></clipPath><g clip-path="url(#clip0x7fd058feb680)"><text xml:space="preserve" font-family="Helvetica-Bold,Helvetica" font-weight="bold" font-size="24.0" fill="#FEFFFE" transform="matrix(1.00, 0.00, -0.00, -1.00, 732.0, 240.5)">t</text><text xml:space="preserve" font-family="Helvetica-Bold,Helvetica" font-weight="bold" font-size="24.0" fill="#FEFFFE" transform="matrix(1.00, 0.00, -0.00, -1.00, 740.0, 240.5)">i</text><text xml:space="preserve" font-family="Helvetica-Bold,Helvetica" font-weight="bold" font-size="24.0" fill="#FEFFFE" transform="matrix(1.00, 0.00, -0.00, -1.00, 746.7, 240.5)">m</text><text xml:space="preserve" font-family="Helvetica-Bold,Helvetica" font-weight="bold" font-size="24.0" fill="#FEFFFE" transform="matrix(1.00, 0.00, -0.00, -1.00, 768.0, 240.5)">e</text></g></g><g><clipPath id="clip0x7fd058fedcb0"><path d="M 654.9 139.5 L 713.1 139.5 L 713.1 201.5 L 654.9 201.5 Z M 654.9 139.5 "></path></clipPath><g clip-path="url(#clip0x7fd058fedcb0)"><path d="M 658.5 151.0 L 658.5 190.2 C 658.5 194.5 661.8 197.5 666.1 197.5 L 701.9 197.5 C 706.1 197.5 709.5 194.5 709.5 190.2 L 709.5 150.8 C 709.5 146.5 706.1 143.5 701.9 143.5 L 666.1 143.5 C 661.8 143.5 658.5 146.7 658.5 151.0 Z M 658.4 150.8 " fill="#51A7F9"></path><path d="M 0.1 47.0 L 0.1 7.8 C 0.1 3.5 3.5 0.5 7.8 0.5 L 43.5 0.5 C 47.8 0.5 51.1 3.5 51.1 7.8 L 51.1 47.2 C 51.1 51.5 47.8 54.5 43.5 54.5 L 7.8 54.5 C 3.5 54.5 0.1 51.3 0.1 47.0 Z M 0.0 47.2 " fill="none" stroke="#164E86" stroke-width="5.00" transform="matrix(1.00, 0.00, 0.00, -1.00, 658.4, 198.0)"></path></g></g><g><clipPath id="clip0x7fd058fefcd0"><path d="M 658.4 143.0 L 709.6 143.0 L 709.6 198.0 L 658.4 198.0 Z M 658.4 143.0 "></path></clipPath><g clip-path="url(#clip0x7fd058fefcd0)"><text xml:space="preserve" font-family="Helvetica-Bold,Helvetica" font-weight="bold" font-size="24.0" fill="#FEFFFE" transform="matrix(1.00, 0.00, -0.00, -1.00, 675.3, 162.0)">A</text></g></g><g><clipPath id="clip0x7fd058ff0fa0"><path d="M 705.3 139.5 L 852.8 139.5 L 852.8 201.5 L 705.3 201.5 Z M 705.3 139.5 "></path></clipPath><g clip-path="url(#clip0x7fd058ff0fa0)"><path d="M 708.5 151.0 L 708.5 190.2 C 708.5 194.5 712.3 197.5 716.6 197.5 L 841.6 197.5 C 845.9 197.5 849.5 194.5 849.5 190.2 L 849.5 150.8 C 849.5 146.5 845.9 143.5 841.6 143.5 L 716.6 143.5 C 712.3 143.5 708.5 146.7 708.5 151.0 Z M 708.8 150.8 " fill="#B26AE1"></path><path d="M -0.3 47.0 L -0.3 7.8 C -0.3 3.5 3.5 0.5 7.8 0.5 L 132.7 0.5 C 137.0 0.5 140.7 3.5 140.7 7.8 L 140.7 47.2 C 140.7 51.5 137.0 54.5 132.7 54.5 L 7.8 54.5 C 3.5 54.5 -0.3 51.3 -0.3 47.0 Z M 0.0 47.2 " fill="none" stroke="#164E86" stroke-width="5.00" transform="matrix(1.00, 0.00, 0.00, -1.00, 708.8, 198.0)"></path></g></g><g><clipPath id="clip0x7fd058ff2d60"><path d="M 708.8 143.0 L 849.3 143.0 L 849.3 198.0 L 708.8 198.0 Z M 708.8 143.0 "></path></clipPath><g clip-path="url(#clip0x7fd058ff2d60)"><text xml:space="preserve" font-family="Helvetica-Bold,Helvetica" font-weight="bold" font-size="24.0" fill="#FEFFFE" transform="matrix(1.00, 0.00, -0.00, -1.00, 734.1, 162.0)">t</text><text xml:space="preserve" font-family="Helvetica-Bold,Helvetica" font-weight="bold" font-size="24.0" fill="#FEFFFE" transform="matrix(1.00, 0.00, -0.00, -1.00, 742.1, 162.0)">i</text><text xml:space="preserve" font-family="Helvetica-Bold,Helvetica" font-weight="bold" font-size="24.0" fill="#FEFFFE" transform="matrix(1.00, 0.00, -0.00, -1.00, 748.7, 162.0)">m</text><text xml:space="preserve" font-family="Helvetica-Bold,Helvetica" font-weight="bold" font-size="24.0" fill="#FEFFFE" transform="matrix(1.00, 0.00, -0.00, -1.00, 770.1, 162.0)">e</text><text xml:space="preserve" font-family="Helvetica-Bold,Helvetica" font-weight="bold" font-size="24.0" fill="#FEFFFE" transform="matrix(1.00, 0.00, -0.00, -1.00, 783.4, 162.0)"> </text><text xml:space="preserve" font-family="Helvetica-Bold,Helvetica" font-weight="bold" font-size="24.0" fill="#FEFFFE" transform="matrix(1.00, 0.00, -0.00, -1.00, 790.1, 162.0)">+</text><text xml:space="preserve" font-family="Helvetica-Bold,Helvetica" font-weight="bold" font-size="24.0" fill="#FEFFFE" transform="matrix(1.00, 0.00, -0.00, -1.00, 804.1, 162.0)"> </text><text xml:space="preserve" font-family="Helvetica-Bold,Helvetica" font-weight="bold" font-size="24.0" fill="#FEFFFE" transform="matrix(1.00, 0.00, -0.00, -1.00, 810.8, 162.0)">1</text></g></g></g></svg>