<?xml version="1.0" encoding="UTF-8" standalone="no"?><svg xmlns="http://www.w3.org/2000/svg" xmlns:xlink="http://www.w3.org/1999/xlink" clip-rule="evenodd" stroke-miterlimit="10" viewBox="0 0 155 63"><desc>SVG generated by Keynote</desc><defs></defs><g transform="matrix(1.00, 0.00, -0.00, -1.00, 0.0, 63.0)"><g><clipPath id="clip0x7fd058f559f0"><path d="M 0.9 0.1 L 59.1 0.1 L 59.1 62.0 L 0.9 62.0 Z M 0.9 0.1 "></path></clipPath><g clip-path="url(#clip0x7fd058f559f0)"><path d="M 4.5 11.0 L 4.5 50.8 C 4.5 55.0 7.8 58.5 12.1 58.5 L 47.9 58.5 C 52.1 58.5 55.5 55.0 55.5 50.8 L 55.5 11.3 C 55.5 7.0 52.1 3.5 47.9 3.5 L 12.1 3.5 C 7.8 3.5 4.5 6.7 4.5 11.0 Z M 4.4 11.3 " fill="#51A7F9"></path><path d="M 0.1 47.5 L 0.1 7.8 C 0.1 3.5 3.5 0.0 7.8 0.0 L 43.5 0.0 C 47.8 0.0 51.1 3.5 51.1 7.8 L 51.1 47.2 C 51.1 51.5 47.8 55.0 43.5 55.0 L 7.8 55.0 C 3.5 55.0 0.1 51.8 0.1 47.5 Z M 0.0 47.2 " fill="none" stroke="#164E86" stroke-width="5.00" transform="matrix(1.00, 0.00, 0.00, -1.00, 4.4, 58.5)"></path></g></g><g><clipPath id="clip0x7fd058f58f30"><path d="M 4.4 3.6 L 55.6 3.6 L 55.6 58.5 L 4.4 58.5 Z M 4.4 3.6 "></path></clipPath><g clip-path="url(#clip0x7fd058f58f30)"><text xml:space="preserve" font-family="Helvetica-Bold,Helvetica" font-weight="bold" font-size="24.0" fill="#FEFFFE" transform="matrix(1.00, 0.00, -0.00, -1.00, 21.3, 22.5)">C</text></g></g><g><clipPath id="clip0x7fd058f5c550"><path d="M 51.3 0.1 L 154.1 0.1 L 154.1 62.0 L 51.3 62.0 Z M 51.3 0.1 "></path></clipPath><g clip-path="url(#clip0x7fd058f5c550)"><path d="M 54.5 11.0 L 54.5 50.8 C 54.5 55.0 58.3 58.5 62.6 58.5 L 142.8 58.5 C 147.1 58.5 150.5 55.0 150.5 50.8 L 150.5 11.3 C 150.5 7.0 147.1 3.5 142.8 3.5 L 62.6 3.5 C 58.3 3.5 54.5 6.7 54.5 11.0 Z M 54.8 11.3 " fill="#B26AE1"></path><path d="M -0.3 47.5 L -0.3 7.8 C -0.3 3.5 3.5 0.0 7.8 0.0 L 88.0 0.0 C 92.3 0.0 95.7 3.5 95.7 7.8 L 95.7 47.2 C 95.7 51.5 92.3 55.0 88.0 55.0 L 7.8 55.0 C 3.5 55.0 -0.3 51.8 -0.3 47.5 Z M 0.0 47.2 " fill="none" stroke="#164E86" stroke-width="5.00" transform="matrix(1.00, 0.00, 0.00, -1.00, 54.8, 58.5)"></path></g></g><g><clipPath id="clip0x7fd058f5e320"><path d="M 54.8 3.6 L 150.6 3.6 L 150.6 58.5 L 54.8 58.5 Z M 54.8 3.6 "></path></clipPath><g clip-path="url(#clip0x7fd058f5e320)"><text xml:space="preserve" font-family="Helvetica-Bold,Helvetica" font-weight="bold" font-size="24.0" fill="#FEFFFE" transform="matrix(1.00, 0.00, -0.00, -1.00, 78.0, 22.5)">t</text><text xml:space="preserve" font-family="Helvetica-Bold,Helvetica" font-weight="bold" font-size="24.0" fill="#FEFFFE" transform="matrix(1.00, 0.00, -0.00, -1.00, 86.0, 22.5)">i</text><text xml:space="preserve" font-family="Helvetica-Bold,Helvetica" font-weight="bold" font-size="24.0" fill="#FEFFFE" transform="matrix(1.00, 0.00, -0.00, -1.00, 92.7, 22.5)">m</text><text xml:space="preserve" font-family="Helvetica-Bold,Helvetica" font-weight="bold" font-size="24.0" fill="#FEFFFE" transform="matrix(1.00, 0.00, -0.00, -1.00, 114.0, 22.5)">e</text></g></g></g></svg>