<?xml version="1.0" encoding="UTF-8" standalone="no"?><svg xmlns="http://www.w3.org/2000/svg" xmlns:xlink="http://www.w3.org/1999/xlink" clip-rule="evenodd" stroke-miterlimit="10" viewBox="0 0 579 14"><desc>SVG generated by Keynote</desc><defs></defs><g transform="matrix(1.00, 0.00, -0.00, -1.00, 0.0, 14.0)"><path d="M 8.3 3.1 C 6.5 3.1 4.1 3.4 3.8 6.1 C 3.5 8.8 5.4 10.9 8.2 10.9 C 10.9 10.9 10.1 9.4 16.5 9.4 C 18.8 9.4 19.0 4.5 16.6 4.5 C 10.9 4.5 11.7 3.1 8.3 3.1 C 8.3 3.1 8.3 3.1 8.3 3.1 Z M 570.3 10.9 C 573.6 10.9 574.9 9.6 575.0 7.0 C 575.1 4.3 573.2 3.1 570.3 3.1 C 567.4 3.1 567.5 4.6 562.6 4.5 C 559.9 4.5 560.4 9.4 562.5 9.4 C 567.8 9.4 567.0 10.9 570.3 10.9 C 570.3 10.9 570.3 10.9 570.3 10.9 Z M 16.7 4.5 C 14.5 4.5 14.4 9.4 17.1 9.4 C 19.9 9.4 26.1 8.6 27.7 8.7 C 29.3 8.8 33.8 9.7 35.2 9.7 C 36.6 9.7 43.4 8.3 46.4 8.7 C 49.3 9.1 50.1 8.9 52.2 8.9 C 54.2 8.9 57.4 8.6 59.3 8.4 C 61.2 8.3 62.9 9.6 65.4 9.3 C 68.0 8.9 69.3 9.4 71.0 9.4 C 73.8 9.4 73.7 4.6 71.1 4.6 C 68.6 4.6 66.9 4.2 64.7 4.3 C 62.6 4.4 60.8 5.0 58.8 4.4 C 56.8 3.9 52.9 4.5 50.4 4.8 C 48.0 5.1 45.3 5.0 43.4 4.8 C 39.6 4.4 30.4 5.3 29.1 4.9 C 27.8 4.4 23.6 4.8 22.1 4.8 C 20.6 4.8 19.8 4.5 16.7 4.5 C 16.7 4.5 16.7 4.5 16.7 4.5 Z M 125.5 9.4 C 128.0 9.4 128.5 4.5 125.5 4.5 C 122.5 4.5 117.0 5.0 115.4 4.9 C 113.8 4.8 107.1 4.5 105.7 4.5 C 104.3 4.5 99.2 5.2 96.3 4.8 C 93.3 4.4 90.5 5.2 88.5 5.0 C 86.0 4.7 84.6 5.0 82.7 5.1 C 80.8 5.2 77.9 4.2 76.2 4.6 C 74.6 5.0 73.7 4.5 71.4 4.5 C 69.2 4.5 69.2 9.4 71.3 9.4 C 73.5 9.4 75.3 9.3 77.4 9.2 C 79.5 9.1 82.1 9.1 84.4 9.1 C 86.5 9.1 89.6 9.7 92.0 9.3 C 94.4 9.0 98.0 8.9 99.4 8.9 C 101.1 8.8 104.9 8.9 106.5 8.7 C 108.6 8.3 112.2 8.8 113.5 9.2 C 114.8 9.7 115.7 9.1 118.6 9.2 C 120.3 9.2 123.0 9.4 125.5 9.4 C 125.5 9.4 125.5 9.4 125.5 9.4 Z M 126.3 9.4 C 129.2 9.4 134.0 8.8 135.1 8.8 C 136.3 8.8 140.2 9.2 142.1 9.1 C 143.9 8.9 144.5 8.6 147.6 8.5 C 151.5 8.3 154.1 8.8 154.3 8.9 C 154.8 9.0 156.7 9.5 159.3 9.4 C 162.8 9.2 163.9 9.6 165.4 9.4 C 168.1 8.9 168.3 9.4 170.4 9.3 C 172.4 9.2 173.7 9.4 175.3 9.1 C 177.1 8.8 178.4 9.5 180.1 9.4 C 182.7 9.4 182.4 4.5 180.0 4.5 C 178.5 4.5 177.2 5.1 175.6 5.1 C 174.1 5.1 172.7 5.0 171.1 4.8 C 169.6 4.5 166.4 4.9 163.9 4.8 C 161.4 4.6 157.2 4.4 154.3 4.5 C 151.3 4.6 149.5 5.7 143.6 5.0 C 141.6 4.7 137.8 4.9 136.3 4.9 C 133.5 4.9 128.3 4.6 126.0 4.6 C 123.3 4.6 123.4 9.4 126.3 9.4 C 126.3 9.4 126.3 9.4 126.3 9.4 Z M 234.6 9.4 C 237.1 9.4 237.6 4.5 234.6 4.5 C 231.6 4.5 226.1 5.0 224.5 4.9 C 222.9 4.8 216.2 4.5 214.8 4.5 C 213.4 4.5 208.3 5.2 205.4 4.8 C 202.5 4.4 199.6 5.2 197.6 5.0 C 195.1 4.7 193.7 5.0 191.8 5.1 C 189.9 5.2 187.0 4.2 185.3 4.6 C 183.7 5.0 182.8 4.5 180.6 4.5 C 178.3 4.5 178.3 9.4 180.4 9.4 C 182.6 9.4 184.4 9.3 186.5 9.2 C 188.6 9.1 191.2 9.1 193.5 9.1 C 195.6 9.1 198.7 9.7 201.1 9.3 C 203.6 9.0 207.1 8.9 208.5 8.9 C 210.2 8.8 214.0 8.9 215.6 8.7 C 217.7 8.3 221.3 8.8 222.6 9.2 C 223.9 9.7 224.8 9.1 227.7 9.2 C 229.4 9.2 232.1 9.4 234.6 9.4 C 234.6 9.4 234.6 9.4 234.6 9.4 Z M 235.4 9.4 C 238.3 9.4 243.1 8.8 244.2 8.8 C 245.4 8.8 249.3 9.2 251.2 9.1 C 253.0 8.9 253.6 8.6 256.7 8.5 C 260.6 8.3 263.2 8.8 263.4 8.9 C 263.9 9.0 265.8 9.5 268.4 9.4 C 271.9 9.2 273.0 9.6 274.5 9.4 C 277.2 8.9 277.4 9.4 279.5 9.3 C 281.5 9.2 282.8 9.4 284.4 9.1 C 286.2 8.8 287.5 9.5 289.2 9.4 C 291.8 9.4 291.5 4.5 289.1 4.5 C 287.6 4.5 286.3 5.1 284.7 5.1 C 283.2 5.1 281.8 5.0 280.3 4.8 C 278.7 4.5 275.5 4.9 273.0 4.8 C 270.5 4.6 266.3 4.4 263.4 4.5 C 260.4 4.6 258.6 5.7 252.7 5.0 C 250.8 4.7 246.9 4.9 245.4 4.9 C 242.6 4.9 237.4 4.6 235.1 4.6 C 232.4 4.6 232.5 9.4 235.4 9.4 C 235.4 9.4 235.4 9.4 235.4 9.4 Z M 343.7 9.4 C 346.2 9.4 346.7 4.5 343.7 4.5 C 340.7 4.5 335.2 5.0 333.6 4.9 C 332.0 4.8 325.3 4.5 323.9 4.5 C 322.5 4.5 317.4 5.2 314.5 4.8 C 311.6 4.4 308.7 5.2 306.7 5.0 C 304.2 4.7 302.9 5.0 300.9 5.1 C 299.0 5.2 296.1 4.2 294.5 4.6 C 292.8 5.0 291.9 4.5 289.7 4.5 C 287.4 4.5 287.4 9.4 289.5 9.4 C 291.7 9.4 293.5 9.3 295.6 9.2 C 297.7 9.1 300.3 9.1 302.6 9.1 C 304.7 9.1 307.8 9.7 310.2 9.3 C 312.7 9.0 316.2 8.9 317.6 8.9 C 319.4 8.8 323.1 8.9 324.7 8.7 C 326.8 8.3 330.4 8.8 331.7 9.2 C 333.0 9.7 333.9 9.1 336.8 9.2 C 338.5 9.2 341.2 9.4 343.7 9.4 C 343.7 9.4 343.7 9.4 343.7 9.4 Z M 344.1 4.5 C 341.8 4.5 341.7 9.4 344.4 9.4 C 347.2 9.4 353.4 8.6 355.0 8.7 C 356.6 8.8 361.1 9.7 362.5 9.7 C 363.9 9.7 370.8 8.3 373.7 8.7 C 376.6 9.1 377.5 8.9 379.5 8.9 C 381.5 8.9 384.7 8.6 386.6 8.4 C 388.5 8.3 390.3 9.6 392.8 9.3 C 395.3 8.9 396.6 9.4 398.4 9.4 C 401.2 9.4 401.0 4.6 398.4 4.6 C 395.9 4.6 394.2 4.2 392.1 4.3 C 390.0 4.4 388.1 5.0 386.1 4.4 C 384.1 3.9 380.2 4.5 377.8 4.8 C 375.3 5.1 372.7 5.0 370.8 4.8 C 366.9 4.4 357.7 5.3 356.4 4.9 C 355.1 4.4 350.9 4.8 349.4 4.8 C 347.9 4.8 347.1 4.5 344.1 4.5 C 344.1 4.5 344.1 4.5 344.1 4.5 Z M 399.0 9.4 C 402.0 9.4 406.7 8.8 407.9 8.8 C 409.1 8.8 413.0 9.2 414.8 9.1 C 416.7 8.9 417.3 8.6 420.4 8.5 C 424.3 8.3 426.8 8.8 427.0 8.9 C 427.6 9.0 429.5 9.5 432.1 9.4 C 435.6 9.2 436.6 9.6 438.2 9.4 C 440.9 8.9 441.1 9.4 443.1 9.3 C 445.2 9.2 446.5 9.4 448.1 9.1 C 449.9 8.8 451.2 9.5 452.8 9.4 C 455.4 9.4 455.2 4.5 452.7 4.5 C 451.3 4.5 449.9 5.1 448.4 5.1 C 446.8 5.1 445.5 5.0 443.9 4.8 C 442.4 4.5 439.2 4.9 436.7 4.8 C 434.1 4.6 429.9 4.4 427.0 4.5 C 424.1 4.6 422.3 5.7 416.3 5.0 C 414.4 4.7 410.6 4.9 409.0 4.9 C 406.3 4.9 401.0 4.6 398.8 4.6 C 396.1 4.6 396.1 9.4 399.0 9.4 C 399.0 9.4 399.0 9.4 399.0 9.4 Z M 507.4 9.4 C 509.9 9.4 510.3 4.5 507.4 4.5 C 504.4 4.5 498.9 5.0 497.3 4.9 C 495.7 4.8 489.0 4.5 487.5 4.5 C 486.1 4.5 481.1 5.2 478.2 4.8 C 475.2 4.4 472.4 5.2 470.4 5.0 C 467.9 4.7 466.5 5.0 464.6 5.1 C 462.7 5.2 459.7 4.2 458.1 4.6 C 456.5 5.0 455.6 4.5 453.3 4.5 C 451.1 4.5 451.1 9.4 453.2 9.4 C 455.3 9.4 457.2 9.3 459.3 9.2 C 461.4 9.1 464.0 9.1 466.3 9.1 C 468.4 9.1 471.5 9.7 473.9 9.3 C 476.3 9.0 479.8 8.9 481.3 8.9 C 483.0 8.8 486.8 8.9 488.4 8.7 C 490.5 8.3 494.0 8.8 495.4 9.2 C 496.7 9.7 497.6 9.1 500.4 9.2 C 502.1 9.2 504.8 9.4 507.4 9.4 C 507.4 9.4 507.4 9.4 507.4 9.4 Z M 508.2 9.4 C 511.1 9.4 515.8 8.8 517.0 8.8 C 518.2 8.8 522.1 9.2 523.9 9.1 C 525.8 8.9 526.4 8.6 529.5 8.5 C 533.4 8.3 536.0 8.8 536.1 8.9 C 536.7 9.0 538.6 9.5 541.2 9.4 C 544.7 9.2 545.7 9.6 547.3 9.4 C 550.0 8.9 550.2 9.4 552.3 9.3 C 554.3 9.2 555.6 9.4 557.2 9.1 C 559.0 8.8 560.3 9.5 561.9 9.4 C 564.5 9.4 564.3 4.5 561.9 4.5 C 560.4 4.5 559.0 5.1 557.5 5.1 C 555.9 5.1 554.6 5.0 553.0 4.8 C 551.5 4.5 548.3 4.9 545.8 4.8 C 543.2 4.6 539.1 4.4 536.1 4.5 C 533.2 4.6 531.4 5.7 525.4 5.0 C 523.5 4.7 519.7 4.9 518.1 4.9 C 515.4 4.9 510.1 4.6 507.9 4.6 C 505.2 4.6 505.2 9.4 508.2 9.4 C 508.2 9.4 508.2 9.4 508.2 9.4 Z M 508.2 9.4 " fill="#6FBF40"></path></g></svg>