<?xml version="1.0" encoding="UTF-8" standalone="no"?><svg xmlns="http://www.w3.org/2000/svg" xmlns:xlink="http://www.w3.org/1999/xlink" clip-rule="evenodd" stroke-miterlimit="10" viewBox="0 0 1024 768"><desc>SVG generated by Keynote</desc><defs></defs><g transform="matrix(1.00, 0.00, -0.00, -1.00, 0.0, 768.0)"><path d="M 0.0 768.0 L 1024.0 768.0 L 1024.0 0.0 L 0.0 0.0 Z M 0.0 768.0 " fill="#FEFFFF"></path><g><clipPath id="clip0x7fd056989560"><path d="M 468.7 341.5 L 555.7 341.5 L 555.7 427.5 L 468.7 427.5 Z M 468.7 341.5 "></path></clipPath><g clip-path="url(#clip0x7fd056989560)"><path d="M 472.7 356.5 L 472.7 412.8 C 472.7 419.0 477.2 424.0 483.3 424.0 L 541.0 424.0 C 547.2 424.0 552.7 419.0 552.7 412.8 L 552.7 356.2 C 552.7 350.0 547.2 345.0 541.0 345.0 L 483.3 345.0 C 477.2 345.0 472.7 350.3 472.7 356.5 Z M 472.2 356.2 " fill="#51A7F9"></path><path d="M 0.5 67.5 L 0.5 11.2 C 0.5 5.0 5.0 -0.0 11.2 -0.0 L 68.9 -0.0 C 75.0 -0.0 80.5 5.0 80.5 11.2 L 80.5 67.8 C 80.5 74.0 75.0 79.0 68.9 79.0 L 11.2 79.0 C 5.0 79.0 0.5 73.7 0.5 67.5 Z M 0.0 67.8 " fill="none" stroke="#164E86" stroke-width="5.00" transform="matrix(1.00, 0.00, 0.00, -1.00, 472.2, 424.0)"></path></g></g><g><clipPath id="clip0x7fd0569d2460"><path d="M 472.2 345.0 L 552.2 345.0 L 552.2 424.0 L 472.2 424.0 Z M 472.2 345.0 "></path></clipPath><g clip-path="url(#clip0x7fd0569d2460)"><text xml:space="preserve" font-family="Helvetica-Bold,Helvetica" font-weight="bold" font-size="24.0" fill="#FEFFFE" transform="matrix(1.00, 0.00, -0.00, -1.00, 503.5, 375.4)">B</text></g></g><g><clipPath id="clip0x7fd0569d3f90"><path d="M 318.7 341.5 L 405.7 341.5 L 405.7 427.5 L 318.7 427.5 Z M 318.7 341.5 "></path></clipPath><g clip-path="url(#clip0x7fd0569d3f90)"><path d="M 322.7 356.5 L 322.7 412.8 C 322.7 419.0 327.2 424.0 333.3 424.0 L 391.0 424.0 C 397.2 424.0 402.7 419.0 402.7 412.8 L 402.7 356.2 C 402.7 350.0 397.2 345.0 391.0 345.0 L 333.3 345.0 C 327.2 345.0 322.7 350.3 322.7 356.5 Z M 322.2 356.2 " fill="#51A7F9"></path><path d="M 0.5 67.5 L 0.5 11.2 C 0.5 5.0 5.0 -0.0 11.2 -0.0 L 68.9 -0.0 C 75.0 -0.0 80.5 5.0 80.5 11.2 L 80.5 67.8 C 80.5 74.0 75.0 79.0 68.9 79.0 L 11.2 79.0 C 5.0 79.0 0.5 73.7 0.5 67.5 Z M 0.0 67.8 " fill="none" stroke="#164E86" stroke-width="5.00" transform="matrix(1.00, 0.00, 0.00, -1.00, 322.2, 424.0)"></path></g></g><g><clipPath id="clip0x7fd0569d6e90"><path d="M 322.2 345.0 L 402.2 345.0 L 402.2 424.0 L 322.2 424.0 Z M 322.2 345.0 "></path></clipPath><g clip-path="url(#clip0x7fd0569d6e90)"><text xml:space="preserve" font-family="Helvetica-Bold,Helvetica" font-weight="bold" font-size="24.0" fill="#FEFFFE" transform="matrix(1.00, 0.00, -0.00, -1.00, 353.5, 375.4)">A</text></g></g><g><clipPath id="clip0x7fd0569d8130"><path d="M 618.7 341.5 L 705.7 341.5 L 705.7 427.5 L 618.7 427.5 Z M 618.7 341.5 "></path></clipPath><g clip-path="url(#clip0x7fd0569d8130)"><path d="M 622.7 356.5 L 622.7 412.8 C 622.7 419.0 627.2 424.0 633.3 424.0 L 691.0 424.0 C 697.2 424.0 702.7 419.0 702.7 412.8 L 702.7 356.2 C 702.7 350.0 697.2 345.0 691.0 345.0 L 633.3 345.0 C 627.2 345.0 622.7 350.3 622.7 356.5 Z M 622.2 356.2 " fill="#51A7F9"></path><path d="M 0.5 67.5 L 0.5 11.2 C 0.5 5.0 5.0 -0.0 11.2 -0.0 L 68.9 -0.0 C 75.0 -0.0 80.5 5.0 80.5 11.2 L 80.5 67.8 C 80.5 74.0 75.0 79.0 68.9 79.0 L 11.2 79.0 C 5.0 79.0 0.5 73.7 0.5 67.5 Z M 0.0 67.8 " fill="none" stroke="#164E86" stroke-width="5.00" transform="matrix(1.00, 0.00, 0.00, -1.00, 622.2, 424.0)"></path></g></g><g><clipPath id="clip0x7fd0569d9f20"><path d="M 622.2 345.0 L 702.2 345.0 L 702.2 424.0 L 622.2 424.0 Z M 622.2 345.0 "></path></clipPath><g clip-path="url(#clip0x7fd0569d9f20)"><text xml:space="preserve" font-family="Helvetica-Bold,Helvetica" font-weight="bold" font-size="24.0" fill="#FEFFFE" transform="matrix(1.00, 0.00, -0.00, -1.00, 653.5, 375.4)">C</text></g></g><g><clipPath id="clip0x7fd0569db1f0"><path d="M 401.5 373.3 L 472.8 373.3 L 472.8 395.7 L 401.5 395.7 Z M 401.5 373.3 "></path></clipPath><g clip-path="url(#clip0x7fd0569db1f0)"><path d="M -0.4 0.5 L 48.9 0.5 L 51.6 0.5 " fill="none" stroke="#000000" stroke-width="5.00" transform="matrix(1.00, 0.00, 0.00, -1.00, 402.5, 384.5)"></path><path d="M 451.7 373.8 L 472.1 384.0 L 451.7 394.2 Z M 451.7 373.8 " fill="#000000"></path></g></g><g><clipPath id="clip0x7fd0569dc7a0"><path d="M 551.5 373.3 L 622.8 373.3 L 622.8 395.7 L 551.5 395.7 Z M 551.5 373.3 "></path></clipPath><g clip-path="url(#clip0x7fd0569dc7a0)"><path d="M -0.4 0.5 L 48.9 0.5 L 51.6 0.5 " fill="none" stroke="#000000" stroke-width="5.00" transform="matrix(1.00, 0.00, 0.00, -1.00, 552.5, 384.5)"></path><path d="M 601.7 373.8 L 622.1 384.0 L 601.7 394.2 Z M 601.7 373.8 " fill="#000000"></path></g></g><g><clipPath id="clip0x7fd0569dddb0"><path d="M 701.5 373.3 L 772.8 373.3 L 772.8 395.7 L 701.5 395.7 Z M 701.5 373.3 "></path></clipPath><g clip-path="url(#clip0x7fd0569dddb0)"><path d="M -0.4 0.5 L 48.9 0.5 L 51.6 0.5 " fill="none" stroke="#000000" stroke-width="5.00" transform="matrix(1.00, 0.00, 0.00, -1.00, 702.5, 384.5)"></path><path d="M 751.7 373.8 L 772.1 384.0 L 751.7 394.2 Z M 751.7 373.8 " fill="#000000"></path></g></g><g><clipPath id="clip0x7fd0569df370"><path d="M 251.5 373.3 L 322.8 373.3 L 322.8 395.7 L 251.5 395.7 Z M 251.5 373.3 "></path></clipPath><g clip-path="url(#clip0x7fd0569df370)"><path d="M -0.4 0.5 L 48.9 0.5 L 51.6 0.5 " fill="none" stroke="#000000" stroke-width="5.00" transform="matrix(1.00, 0.00, 0.00, -1.00, 252.5, 384.5)"></path><path d="M 301.7 373.8 L 322.1 384.0 L 301.7 394.2 Z M 301.7 373.8 " fill="#000000"></path></g></g><g><clipPath id="clip0x7fd0569e0960"><path d="M 367.2 389.9 L 523.6 389.9 L 523.6 509.2 L 367.2 509.2 Z M 367.2 389.9 "></path></clipPath><g clip-path="url(#clip0x7fd0569e0960)"><path d="M 370.7 508.5 C 369.3 508.2 368.2 507.0 368.2 505.6 L 368.2 470.3 C 368.2 468.9 369.3 467.5 370.7 467.5 L 424.3 467.5 L 429.9 390.9 L 435.5 467.5 L 520.0 467.5 C 521.4 467.5 522.2 468.9 522.2 470.3 L 522.2 505.6 C 522.2 507.0 521.4 508.5 520.0 508.5 L 370.7 508.5 Z M 370.7 508.2 " fill="#DCDDE0"></path></g></g><g><clipPath id="clip0x7fd0569e1c00"><path d="M 366.5 467.7 L 524.2 467.7 L 524.2 508.2 L 366.5 508.2 Z M 366.5 467.7 "></path></clipPath><g clip-path="url(#clip0x7fd0569e1c00)"><text xml:space="preserve" font-family="Monaco,Monaco" font-size="18.0" fill="#002451" transform="matrix(1.00, 0.00, -0.00, -1.00, 390.2, 481.2)">d</text><text xml:space="preserve" font-family="Monaco,Monaco" font-size="18.0" fill="#002451" transform="matrix(1.00, 0.00, -0.00, -1.00, 401.0, 481.2)">a</text><text xml:space="preserve" font-family="Monaco,Monaco" font-size="18.0" fill="#002451" transform="matrix(1.00, 0.00, -0.00, -1.00, 411.8, 481.2)">t</text><text xml:space="preserve" font-family="Monaco,Monaco" font-size="18.0" fill="#002451" transform="matrix(1.00, 0.00, -0.00, -1.00, 422.6, 481.2)">a</text><text xml:space="preserve" font-family="Monaco,Monaco" font-size="18.0" fill="#002451" transform="matrix(1.00, 0.00, -0.00, -1.00, 433.4, 481.2)">,</text><text xml:space="preserve" font-family="Monaco,Monaco" font-size="18.0" fill="#002451" transform="matrix(1.00, 0.00, -0.00, -1.00, 444.2, 481.2)"> </text><text xml:space="preserve" font-family="Monaco,Monaco" font-size="18.0" fill="#002451" transform="matrix(1.00, 0.00, -0.00, -1.00, 455.0, 481.2)">t</text><text xml:space="preserve" font-family="Monaco,Monaco" font-size="18.0" fill="#002451" transform="matrix(1.00, 0.00, -0.00, -1.00, 465.8, 481.2)">i</text><text xml:space="preserve" font-family="Monaco,Monaco" font-size="18.0" fill="#002451" transform="matrix(1.00, 0.00, -0.00, -1.00, 476.6, 481.2)">m</text><text xml:space="preserve" font-family="Monaco,Monaco" font-size="18.0" fill="#002451" transform="matrix(1.00, 0.00, -0.00, -1.00, 487.4, 481.2)">e</text></g></g><g><clipPath id="clip0x7fd0569e7480"><path d="M 468.4 340.9 L 555.4 340.9 L 555.4 426.9 L 468.4 426.9 Z M 468.4 340.9 "></path></clipPath><g clip-path="url(#clip0x7fd0569e7480)"><path d="M 472.4 355.2 L 472.4 412.2 C 472.4 418.4 476.9 423.7 483.1 423.7 L 540.8 423.7 C 547.0 423.7 552.4 418.4 552.4 412.2 L 552.4 355.6 C 552.4 349.4 547.0 344.7 540.8 344.7 L 483.1 344.7 C 476.9 344.7 472.4 349.1 472.4 355.2 Z M 471.9 355.6 " fill="#51A7F9"></path><path d="M 0.5 68.2 L 0.5 11.2 C 0.5 5.0 5.0 -0.3 11.2 -0.3 L 68.9 -0.3 C 75.0 -0.3 80.5 5.0 80.5 11.2 L 80.5 67.8 C 80.5 74.0 75.0 78.7 68.9 78.7 L 11.2 78.7 C 5.0 78.7 0.5 74.3 0.5 68.2 Z M 0.0 67.8 " fill="none" stroke="#164E86" stroke-width="5.00" transform="matrix(1.00, 0.00, 0.00, -1.00, 471.9, 423.4)"></path></g></g><g><clipPath id="clip0x7fd0569e9200"><path d="M 471.9 344.4 L 551.9 344.4 L 551.9 423.4 L 471.9 423.4 Z M 471.9 344.4 "></path></clipPath><g clip-path="url(#clip0x7fd0569e9200)"><text xml:space="preserve" font-family="Helvetica-Bold,Helvetica" font-weight="bold" font-size="24.0" fill="#FEFFFE" transform="matrix(1.00, 0.00, -0.00, -1.00, 503.3, 374.9)">B</text></g></g><g><clipPath id="clip0x7fd0569ea4d0"><path d="M 318.4 340.9 L 405.4 340.9 L 405.4 426.9 L 318.4 426.9 Z M 318.4 340.9 "></path></clipPath><g clip-path="url(#clip0x7fd0569ea4d0)"><path d="M 322.4 355.2 L 322.4 412.2 C 322.4 418.4 326.9 423.7 333.1 423.7 L 390.8 423.7 C 397.0 423.7 402.4 418.4 402.4 412.2 L 402.4 355.6 C 402.4 349.4 397.0 344.7 390.8 344.7 L 333.1 344.7 C 326.9 344.7 322.4 349.1 322.4 355.2 Z M 321.9 355.6 " fill="#51A7F9"></path><path d="M 0.5 68.2 L 0.5 11.2 C 0.5 5.0 5.0 -0.3 11.2 -0.3 L 68.9 -0.3 C 75.0 -0.3 80.5 5.0 80.5 11.2 L 80.5 67.8 C 80.5 74.0 75.0 78.7 68.9 78.7 L 11.2 78.7 C 5.0 78.7 0.5 74.3 0.5 68.2 Z M 0.0 67.8 " fill="none" stroke="#164E86" stroke-width="5.00" transform="matrix(1.00, 0.00, 0.00, -1.00, 321.9, 423.4)"></path></g></g><g><clipPath id="clip0x7fd0569ec290"><path d="M 321.9 344.4 L 401.9 344.4 L 401.9 423.4 L 321.9 423.4 Z M 321.9 344.4 "></path></clipPath><g clip-path="url(#clip0x7fd0569ec290)"><text xml:space="preserve" font-family="Helvetica-Bold,Helvetica" font-weight="bold" font-size="24.0" fill="#FEFFFE" transform="matrix(1.00, 0.00, -0.00, -1.00, 353.3, 374.9)">A</text></g></g><g><clipPath id="clip0x7fd0569ed5b0"><path d="M 618.4 340.9 L 705.4 340.9 L 705.4 426.9 L 618.4 426.9 Z M 618.4 340.9 "></path></clipPath><g clip-path="url(#clip0x7fd0569ed5b0)"><path d="M 622.4 355.2 L 622.4 412.2 C 622.4 418.4 626.9 423.7 633.1 423.7 L 690.8 423.7 C 697.0 423.7 702.4 418.4 702.4 412.2 L 702.4 355.6 C 702.4 349.4 697.0 344.7 690.8 344.7 L 633.1 344.7 C 626.9 344.7 622.4 349.1 622.4 355.2 Z M 621.9 355.6 " fill="#51A7F9"></path><path d="M 0.5 68.2 L 0.5 11.2 C 0.5 5.0 5.0 -0.3 11.2 -0.3 L 68.9 -0.3 C 75.0 -0.3 80.5 5.0 80.5 11.2 L 80.5 67.8 C 80.5 74.0 75.0 78.7 68.9 78.7 L 11.2 78.7 C 5.0 78.7 0.5 74.3 0.5 68.2 Z M 0.0 67.8 " fill="none" stroke="#164E86" stroke-width="5.00" transform="matrix(1.00, 0.00, 0.00, -1.00, 621.9, 423.4)"></path></g></g><g><clipPath id="clip0x7fd0569ef370"><path d="M 621.9 344.4 L 701.9 344.4 L 701.9 423.4 L 621.9 423.4 Z M 621.9 344.4 "></path></clipPath><g clip-path="url(#clip0x7fd0569ef370)"><text xml:space="preserve" font-family="Helvetica-Bold,Helvetica" font-weight="bold" font-size="24.0" fill="#FEFFFE" transform="matrix(1.00, 0.00, -0.00, -1.00, 653.3, 374.9)">C</text></g></g><g><clipPath id="clip0x7fd0569f0640"><path d="M 401.3 372.7 L 472.6 372.7 L 472.6 395.1 L 401.3 395.1 Z M 401.3 372.7 "></path></clipPath><g clip-path="url(#clip0x7fd0569f0640)"><path d="M -0.4 0.2 L 48.9 0.2 L 51.6 0.2 " fill="none" stroke="#000000" stroke-width="5.00" transform="matrix(1.00, 0.00, 0.00, -1.00, 402.3, 383.9)"></path><path d="M 451.4 373.5 L 471.8 383.7 L 451.4 393.9 Z M 451.4 373.5 " fill="#000000"></path></g></g><g><clipPath id="clip0x7fd0569f1cc0"><path d="M 551.3 372.7 L 622.6 372.7 L 622.6 395.1 L 551.3 395.1 Z M 551.3 372.7 "></path></clipPath><g clip-path="url(#clip0x7fd0569f1cc0)"><path d="M -0.4 0.2 L 48.9 0.2 L 51.6 0.2 " fill="none" stroke="#000000" stroke-width="5.00" transform="matrix(1.00, 0.00, 0.00, -1.00, 552.3, 383.9)"></path><path d="M 601.4 373.5 L 621.8 383.7 L 601.4 393.9 Z M 601.4 373.5 " fill="#000000"></path></g></g><g><clipPath id="clip0x7fd0569f3280"><path d="M 701.3 372.7 L 772.6 372.7 L 772.6 395.1 L 701.3 395.1 Z M 701.3 372.7 "></path></clipPath><g clip-path="url(#clip0x7fd0569f3280)"><path d="M -0.4 0.2 L 48.9 0.2 L 51.6 0.2 " fill="none" stroke="#000000" stroke-width="5.00" transform="matrix(1.00, 0.00, 0.00, -1.00, 702.3, 383.9)"></path><path d="M 751.4 373.5 L 771.8 383.7 L 751.4 393.9 Z M 751.4 373.5 " fill="#000000"></path></g></g><g><clipPath id="clip0x7fd0569f4840"><path d="M 251.3 372.7 L 322.6 372.7 L 322.6 395.1 L 251.3 395.1 Z M 251.3 372.7 "></path></clipPath><g clip-path="url(#clip0x7fd0569f4840)"><path d="M -0.4 0.2 L 48.9 0.2 L 51.6 0.2 " fill="none" stroke="#000000" stroke-width="5.00" transform="matrix(1.00, 0.00, 0.00, -1.00, 252.3, 383.9)"></path><path d="M 301.4 373.5 L 321.8 383.7 L 301.4 393.9 Z M 301.4 373.5 " fill="#000000"></path></g></g><g><clipPath id="clip0x7fd0569f5e00"><path d="M 285.9 164.0 L 785.5 164.0 L 785.5 336.0 L 285.9 336.0 Z M 285.9 164.0 "></path></clipPath><g clip-path="url(#clip0x7fd0569f5e00)"><path d="M 666.7 335.0 L 653.9 304.2 L 293.3 304.2 C 289.8 304.2 286.9 301.0 286.9 297.5 L 286.9 171.4 C 286.9 167.8 289.8 165.2 293.3 165.2 L 778.1 165.2 C 781.6 165.2 784.9 167.8 784.9 171.4 L 784.9 297.5 C 784.9 301.0 781.6 304.2 778.1 304.2 L 679.5 304.2 L 666.7 335.0 Z M 666.7 335.0 " fill="#DCDDE0"></path></g></g><g><clipPath id="clip0x7fd0569f6ff0"><path d="M 285.3 165.0 L 786.1 165.0 L 786.1 303.9 L 285.3 303.9 Z M 285.3 165.0 "></path></clipPath><g clip-path="url(#clip0x7fd0569f6ff0)"><text xml:space="preserve" font-family="Monaco,Monaco" font-size="18.0" fill="#002451" transform="matrix(1.00, 0.00, -0.00, -1.00, 308.9, 265.6)">R</text><text xml:space="preserve" font-family="Monaco,Monaco" font-size="18.0" fill="#002451" transform="matrix(1.00, 0.00, -0.00, -1.00, 319.7, 265.6)">e</text><text xml:space="preserve" font-family="Monaco,Monaco" font-size="18.0" fill="#002451" transform="matrix(1.00, 0.00, -0.00, -1.00, 330.5, 265.6)">c</text><text xml:space="preserve" font-family="Monaco,Monaco" font-size="18.0" fill="#002451" transform="matrix(1.00, 0.00, -0.00, -1.00, 341.3, 265.6)">v</text><text xml:space="preserve" font-family="Monaco,Monaco" font-size="18.0" fill="#002451" transform="matrix(1.00, 0.00, -0.00, -1.00, 352.2, 265.6)">(</text><text xml:space="preserve" font-family="Monaco,Monaco" font-size="18.0" fill="#002451" transform="matrix(1.00, 0.00, -0.00, -1.00, 363.0, 265.6)">d</text><text xml:space="preserve" font-family="Monaco,Monaco" font-size="18.0" fill="#002451" transform="matrix(1.00, 0.00, -0.00, -1.00, 373.8, 265.6)">a</text><text xml:space="preserve" font-family="Monaco,Monaco" font-size="18.0" fill="#002451" transform="matrix(1.00, 0.00, -0.00, -1.00, 384.6, 265.6)">t</text><text xml:space="preserve" font-family="Monaco,Monaco" font-size="18.0" fill="#002451" transform="matrix(1.00, 0.00, -0.00, -1.00, 395.4, 265.6)">a</text><text xml:space="preserve" font-family="Monaco,Monaco" font-size="18.0" fill="#002451" transform="matrix(1.00, 0.00, -0.00, -1.00, 406.2, 265.6)">,</text><text xml:space="preserve" font-family="Monaco,Monaco" font-size="18.0" fill="#002451" transform="matrix(1.00, 0.00, -0.00, -1.00, 417.0, 265.6)"> </text><text xml:space="preserve" font-family="Monaco,Monaco" font-size="18.0" fill="#002451" transform="matrix(1.00, 0.00, -0.00, -1.00, 427.8, 265.6)">t</text><text xml:space="preserve" font-family="Monaco,Monaco" font-size="18.0" fill="#002451" transform="matrix(1.00, 0.00, -0.00, -1.00, 438.6, 265.6)">i</text><text xml:space="preserve" font-family="Monaco,Monaco" font-size="18.0" fill="#002451" transform="matrix(1.00, 0.00, -0.00, -1.00, 449.4, 265.6)">m</text><text xml:space="preserve" font-family="Monaco,Monaco" font-size="18.0" fill="#002451" transform="matrix(1.00, 0.00, -0.00, -1.00, 460.2, 265.6)">e</text><text xml:space="preserve" font-family="Monaco,Monaco" font-size="18.0" fill="#002451" transform="matrix(1.00, 0.00, -0.00, -1.00, 471.0, 265.6)">)</text><text xml:space="preserve" font-family="Monaco,Monaco" font-size="18.0" fill="#002451" transform="matrix(1.00, 0.00, -0.00, -1.00, 481.8, 265.6)">:</text><text xml:space="preserve" font-family="Monaco,Monaco" font-size="18.0" fill="#002451" transform="matrix(1.00, 0.00, -0.00, -1.00, 492.6, 265.6)"> </text><text xml:space="preserve" font-family="Monaco,Monaco" font-size="18.0" fill="#002451" transform="matrix(1.00, 0.00, -0.00, -1.00, 503.4, 265.6)"> </text><text xml:space="preserve" font-family="Monaco,Monaco" font-size="18.0" fill="#002451" transform="matrix(1.00, 0.00, -0.00, -1.00, 514.2, 265.6)"> </text><text xml:space="preserve" font-family="Monaco,Monaco" font-size="18.0" fill="#00872A" transform="matrix(1.00, 0.00, -0.00, -1.00, 525.0, 265.6)">/</text><text xml:space="preserve" font-family="Monaco,Monaco" font-size="18.0" fill="#00872A" transform="matrix(1.00, 0.00, -0.00, -1.00, 535.8, 265.6)">*</text><text xml:space="preserve" font-family="Monaco,Monaco" font-size="18.0" fill="#00872A" transform="matrix(1.00, 0.00, -0.00, -1.00, 546.6, 265.6)"> </text><text xml:space="preserve" font-family="Monaco,Monaco" font-size="18.0" fill="#00872A" transform="matrix(1.00, 0.00, -0.00, -1.00, 557.4, 265.6)">y</text><text xml:space="preserve" font-family="Monaco,Monaco" font-size="18.0" fill="#00872A" transform="matrix(1.00, 0.00, -0.00, -1.00, 568.2, 265.6)">o</text><text xml:space="preserve" font-family="Monaco,Monaco" font-size="18.0" fill="#00872A" transform="matrix(1.00, 0.00, -0.00, -1.00, 579.0, 265.6)">u</text><text xml:space="preserve" font-family="Monaco,Monaco" font-size="18.0" fill="#00872A" transform="matrix(1.00, 0.00, -0.00, -1.00, 589.8, 265.6)">r</text><text xml:space="preserve" font-family="Monaco,Monaco" font-size="18.0" fill="#00872A" transform="matrix(1.00, 0.00, -0.00, -1.00, 600.6, 265.6)"> </text><text xml:space="preserve" font-family="Monaco,Monaco" font-size="18.0" fill="#00872A" transform="matrix(1.00, 0.00, -0.00, -1.00, 611.4, 265.6)">c</text><text xml:space="preserve" font-family="Monaco,Monaco" font-size="18.0" fill="#00872A" transform="matrix(1.00, 0.00, -0.00, -1.00, 622.2, 265.6)">o</text><text xml:space="preserve" font-family="Monaco,Monaco" font-size="18.0" fill="#00872A" transform="matrix(1.00, 0.00, -0.00, -1.00, 633.0, 265.6)">d</text><text xml:space="preserve" font-family="Monaco,Monaco" font-size="18.0" fill="#00872A" transform="matrix(1.00, 0.00, -0.00, -1.00, 643.8, 265.6)">e</text><text xml:space="preserve" font-family="Monaco,Monaco" font-size="18.0" fill="#00872A" transform="matrix(1.00, 0.00, -0.00, -1.00, 654.6, 265.6)"> </text><text xml:space="preserve" font-family="Monaco,Monaco" font-size="18.0" fill="#00872A" transform="matrix(1.00, 0.00, -0.00, -1.00, 665.4, 265.6)">h</text><text xml:space="preserve" font-family="Monaco,Monaco" font-size="18.0" fill="#00872A" transform="matrix(1.00, 0.00, -0.00, -1.00, 676.2, 265.6)">e</text><text xml:space="preserve" font-family="Monaco,Monaco" font-size="18.0" fill="#00872A" transform="matrix(1.00, 0.00, -0.00, -1.00, 687.0, 265.6)">r</text><text xml:space="preserve" font-family="Monaco,Monaco" font-size="18.0" fill="#00872A" transform="matrix(1.00, 0.00, -0.00, -1.00, 697.8, 265.6)">e</text><text xml:space="preserve" font-family="Monaco,Monaco" font-size="18.0" fill="#00872A" transform="matrix(1.00, 0.00, -0.00, -1.00, 708.6, 265.6)"> </text><text xml:space="preserve" font-family="Monaco,Monaco" font-size="18.0" fill="#00872A" transform="matrix(1.00, 0.00, -0.00, -1.00, 719.4, 265.6)"> </text><text xml:space="preserve" font-family="Monaco,Monaco" font-size="18.0" fill="#00872A" transform="matrix(1.00, 0.00, -0.00, -1.00, 730.2, 265.6)">*</text><text xml:space="preserve" font-family="Monaco,Monaco" font-size="18.0" fill="#00872A" transform="matrix(1.00, 0.00, -0.00, -1.00, 741.0, 265.6)">/</text><text xml:space="preserve" font-family="Monaco,Monaco" font-size="18.0" fill="#002451" transform="matrix(1.00, 0.00, -0.00, -1.00, 308.9, 240.6)">S</text><text xml:space="preserve" font-family="Monaco,Monaco" font-size="18.0" fill="#002451" transform="matrix(1.00, 0.00, -0.00, -1.00, 319.7, 240.6)">e</text><text xml:space="preserve" font-family="Monaco,Monaco" font-size="18.0" fill="#002451" transform="matrix(1.00, 0.00, -0.00, -1.00, 330.5, 240.6)">n</text><text xml:space="preserve" font-family="Monaco,Monaco" font-size="18.0" fill="#002451" transform="matrix(1.00, 0.00, -0.00, -1.00, 341.3, 240.6)">d</text><text xml:space="preserve" font-family="Monaco,Monaco" font-size="18.0" fill="#002451" transform="matrix(1.00, 0.00, -0.00, -1.00, 352.2, 240.6)">(</text><text xml:space="preserve" font-family="Monaco,Monaco" font-size="18.0" fill="#002451" transform="matrix(1.00, 0.00, -0.00, -1.00, 363.0, 240.6)">d</text><text xml:space="preserve" font-family="Monaco,Monaco" font-size="18.0" fill="#002451" transform="matrix(1.00, 0.00, -0.00, -1.00, 373.8, 240.6)">a</text><text xml:space="preserve" font-family="Monaco,Monaco" font-size="18.0" fill="#002451" transform="matrix(1.00, 0.00, -0.00, -1.00, 384.6, 240.6)">t</text><text xml:space="preserve" font-family="Monaco,Monaco" font-size="18.0" fill="#002451" transform="matrix(1.00, 0.00, -0.00, -1.00, 395.4, 240.6)">a</text><text xml:space="preserve" font-family="Monaco,Monaco" font-size="18.0" fill="#002451" transform="matrix(1.00, 0.00, -0.00, -1.00, 406.2, 240.6)">,</text><text xml:space="preserve" font-family="Monaco,Monaco" font-size="18.0" fill="#002451" transform="matrix(1.00, 0.00, -0.00, -1.00, 417.0, 240.6)"> </text><text xml:space="preserve" font-family="Monaco,Monaco" font-size="18.0" fill="#002451" transform="matrix(1.00, 0.00, -0.00, -1.00, 427.8, 240.6)">t</text><text xml:space="preserve" font-family="Monaco,Monaco" font-size="18.0" fill="#002451" transform="matrix(1.00, 0.00, -0.00, -1.00, 438.6, 240.6)">i</text><text xml:space="preserve" font-family="Monaco,Monaco" font-size="18.0" fill="#002451" transform="matrix(1.00, 0.00, -0.00, -1.00, 449.4, 240.6)">m</text><text xml:space="preserve" font-family="Monaco,Monaco" font-size="18.0" fill="#002451" transform="matrix(1.00, 0.00, -0.00, -1.00, 460.2, 240.6)">e</text><text xml:space="preserve" font-family="Monaco,Monaco" font-size="18.0" fill="#002451" transform="matrix(1.00, 0.00, -0.00, -1.00, 471.0, 240.6)">)</text><text xml:space="preserve" font-family="Monaco,Monaco" font-size="18.0" fill="#002451" transform="matrix(1.00, 0.00, -0.00, -1.00, 481.8, 240.6)">:</text><text xml:space="preserve" font-family="Monaco,Monaco" font-size="18.0" fill="#002451" transform="matrix(1.00, 0.00, -0.00, -1.00, 492.6, 240.6)"> </text><text xml:space="preserve" font-family="Monaco,Monaco" font-size="18.0" fill="#002451" transform="matrix(1.00, 0.00, -0.00, -1.00, 503.4, 240.6)"> </text><text xml:space="preserve" font-family="Monaco,Monaco" font-size="18.0" fill="#002451" transform="matrix(1.00, 0.00, -0.00, -1.00, 514.2, 240.6)"> </text><text xml:space="preserve" font-family="Monaco,Monaco" font-size="18.0" fill="#00872A" transform="matrix(1.00, 0.00, -0.00, -1.00, 525.0, 240.6)">/</text><text xml:space="preserve" font-family="Monaco,Monaco" font-size="18.0" fill="#00872A" transform="matrix(1.00, 0.00, -0.00, -1.00, 535.8, 240.6)">*</text><text xml:space="preserve" font-family="Monaco,Monaco" font-size="18.0" fill="#00872A" transform="matrix(1.00, 0.00, -0.00, -1.00, 546.6, 240.6)"> </text><text xml:space="preserve" font-family="Monaco,Monaco" font-size="18.0" fill="#00872A" transform="matrix(1.00, 0.00, -0.00, -1.00, 557.4, 240.6)">y</text><text xml:space="preserve" font-family="Monaco,Monaco" font-size="18.0" fill="#00872A" transform="matrix(1.00, 0.00, -0.00, -1.00, 568.2, 240.6)">o</text><text xml:space="preserve" font-family="Monaco,Monaco" font-size="18.0" fill="#00872A" transform="matrix(1.00, 0.00, -0.00, -1.00, 579.0, 240.6)">u</text><text xml:space="preserve" font-family="Monaco,Monaco" font-size="18.0" fill="#00872A" transform="matrix(1.00, 0.00, -0.00, -1.00, 589.8, 240.6)">r</text><text xml:space="preserve" font-family="Monaco,Monaco" font-size="18.0" fill="#00872A" transform="matrix(1.00, 0.00, -0.00, -1.00, 600.6, 240.6)"> </text><text xml:space="preserve" font-family="Monaco,Monaco" font-size="18.0" fill="#00872A" transform="matrix(1.00, 0.00, -0.00, -1.00, 611.4, 240.6)">c</text><text xml:space="preserve" font-family="Monaco,Monaco" font-size="18.0" fill="#00872A" transform="matrix(1.00, 0.00, -0.00, -1.00, 622.2, 240.6)">o</text><text xml:space="preserve" font-family="Monaco,Monaco" font-size="18.0" fill="#00872A" transform="matrix(1.00, 0.00, -0.00, -1.00, 633.0, 240.6)">d</text><text xml:space="preserve" font-family="Monaco,Monaco" font-size="18.0" fill="#00872A" transform="matrix(1.00, 0.00, -0.00, -1.00, 643.8, 240.6)">e</text><text xml:space="preserve" font-family="Monaco,Monaco" font-size="18.0" fill="#00872A" transform="matrix(1.00, 0.00, -0.00, -1.00, 654.6, 240.6)"> </text><text xml:space="preserve" font-family="Monaco,Monaco" font-size="18.0" fill="#00872A" transform="matrix(1.00, 0.00, -0.00, -1.00, 665.4, 240.6)">c</text><text xml:space="preserve" font-family="Monaco,Monaco" font-size="18.0" fill="#00872A" transform="matrix(1.00, 0.00, -0.00, -1.00, 676.2, 240.6)">a</text><text xml:space="preserve" font-family="Monaco,Monaco" font-size="18.0" fill="#00872A" transform="matrix(1.00, 0.00, -0.00, -1.00, 687.0, 240.6)">l</text><text xml:space="preserve" font-family="Monaco,Monaco" font-size="18.0" fill="#00872A" transform="matrix(1.00, 0.00, -0.00, -1.00, 697.8, 240.6)">l</text><text xml:space="preserve" font-family="Monaco,Monaco" font-size="18.0" fill="#00872A" transform="matrix(1.00, 0.00, -0.00, -1.00, 708.6, 240.6)">s</text><text xml:space="preserve" font-family="Monaco,Monaco" font-size="18.0" fill="#00872A" transform="matrix(1.00, 0.00, -0.00, -1.00, 719.4, 240.6)"> </text><text xml:space="preserve" font-family="Monaco,Monaco" font-size="18.0" fill="#00872A" transform="matrix(1.00, 0.00, -0.00, -1.00, 730.2, 240.6)">*</text><text xml:space="preserve" font-family="Monaco,Monaco" font-size="18.0" fill="#00872A" transform="matrix(1.00, 0.00, -0.00, -1.00, 741.0, 240.6)">/</text><text xml:space="preserve" font-family="Monaco,Monaco" font-size="18.0" fill="#002451" transform="matrix(1.00, 0.00, -0.00, -1.00, 308.9, 190.6)">N</text><text xml:space="preserve" font-family="Monaco,Monaco" font-size="18.0" fill="#002451" transform="matrix(1.00, 0.00, -0.00, -1.00, 319.7, 190.6)">o</text><text xml:space="preserve" font-family="Monaco,Monaco" font-size="18.0" fill="#002451" transform="matrix(1.00, 0.00, -0.00, -1.00, 330.5, 190.6)">t</text><text xml:space="preserve" font-family="Monaco,Monaco" font-size="18.0" fill="#002451" transform="matrix(1.00, 0.00, -0.00, -1.00, 341.3, 190.6)">i</text><text xml:space="preserve" font-family="Monaco,Monaco" font-size="18.0" fill="#002451" transform="matrix(1.00, 0.00, -0.00, -1.00, 352.2, 190.6)">f</text><text xml:space="preserve" font-family="Monaco,Monaco" font-size="18.0" fill="#002451" transform="matrix(1.00, 0.00, -0.00, -1.00, 363.0, 190.6)">y</text><text xml:space="preserve" font-family="Monaco,Monaco" font-size="18.0" fill="#002451" transform="matrix(1.00, 0.00, -0.00, -1.00, 373.8, 190.6)">(</text><text xml:space="preserve" font-family="Monaco,Monaco" font-size="18.0" fill="#002451" transform="matrix(1.00, 0.00, -0.00, -1.00, 384.6, 190.6)">t</text><text xml:space="preserve" font-family="Monaco,Monaco" font-size="18.0" fill="#002451" transform="matrix(1.00, 0.00, -0.00, -1.00, 395.4, 190.6)">i</text><text xml:space="preserve" font-family="Monaco,Monaco" font-size="18.0" fill="#002451" transform="matrix(1.00, 0.00, -0.00, -1.00, 406.2, 190.6)">m</text><text xml:space="preserve" font-family="Monaco,Monaco" font-size="18.0" fill="#002451" transform="matrix(1.00, 0.00, -0.00, -1.00, 417.0, 190.6)">e</text><text xml:space="preserve" font-family="Monaco,Monaco" font-size="18.0" fill="#002451" transform="matrix(1.00, 0.00, -0.00, -1.00, 427.8, 190.6)">)</text><text xml:space="preserve" font-family="Monaco,Monaco" font-size="18.0" fill="#002451" transform="matrix(1.00, 0.00, -0.00, -1.00, 438.6, 190.6)">:</text><text xml:space="preserve" font-family="Monaco,Monaco" font-size="18.0" fill="#002451" transform="matrix(1.00, 0.00, -0.00, -1.00, 449.4, 190.6)"> </text><text xml:space="preserve" font-family="Monaco,Monaco" font-size="18.0" fill="#002451" transform="matrix(1.00, 0.00, -0.00, -1.00, 460.2, 190.6)"> </text><text xml:space="preserve" font-family="Monaco,Monaco" font-size="18.0" fill="#002451" transform="matrix(1.00, 0.00, -0.00, -1.00, 471.0, 190.6)"> </text><text xml:space="preserve" font-family="Monaco,Monaco" font-size="18.0" fill="#002451" transform="matrix(1.00, 0.00, -0.00, -1.00, 481.8, 190.6)"> </text><text xml:space="preserve" font-family="Monaco,Monaco" font-size="18.0" fill="#002451" transform="matrix(1.00, 0.00, -0.00, -1.00, 492.6, 190.6)"> </text><text xml:space="preserve" font-family="Monaco,Monaco" font-size="18.0" fill="#002451" transform="matrix(1.00, 0.00, -0.00, -1.00, 503.4, 190.6)"> </text><text xml:space="preserve" font-family="Monaco,Monaco" font-size="18.0" fill="#002451" transform="matrix(1.00, 0.00, -0.00, -1.00, 514.2, 190.6)"> </text><text xml:space="preserve" font-family="Monaco,Monaco" font-size="18.0" fill="#00872A" transform="matrix(1.00, 0.00, -0.00, -1.00, 525.0, 190.6)">/</text><text xml:space="preserve" font-family="Monaco,Monaco" font-size="18.0" fill="#00872A" transform="matrix(1.00, 0.00, -0.00, -1.00, 535.8, 190.6)">*</text><text xml:space="preserve" font-family="Monaco,Monaco" font-size="18.0" fill="#00872A" transform="matrix(1.00, 0.00, -0.00, -1.00, 546.6, 190.6)"> </text><text xml:space="preserve" font-family="Monaco,Monaco" font-size="18.0" fill="#00872A" transform="matrix(1.00, 0.00, -0.00, -1.00, 557.4, 190.6)">y</text><text xml:space="preserve" font-family="Monaco,Monaco" font-size="18.0" fill="#00872A" transform="matrix(1.00, 0.00, -0.00, -1.00, 568.2, 190.6)">o</text><text xml:space="preserve" font-family="Monaco,Monaco" font-size="18.0" fill="#00872A" transform="matrix(1.00, 0.00, -0.00, -1.00, 579.0, 190.6)">u</text><text xml:space="preserve" font-family="Monaco,Monaco" font-size="18.0" fill="#00872A" transform="matrix(1.00, 0.00, -0.00, -1.00, 589.8, 190.6)">r</text><text xml:space="preserve" font-family="Monaco,Monaco" font-size="18.0" fill="#00872A" transform="matrix(1.00, 0.00, -0.00, -1.00, 600.6, 190.6)"> </text><text xml:space="preserve" font-family="Monaco,Monaco" font-size="18.0" fill="#00872A" transform="matrix(1.00, 0.00, -0.00, -1.00, 611.4, 190.6)">c</text><text xml:space="preserve" font-family="Monaco,Monaco" font-size="18.0" fill="#00872A" transform="matrix(1.00, 0.00, -0.00, -1.00, 622.2, 190.6)">o</text><text xml:space="preserve" font-family="Monaco,Monaco" font-size="18.0" fill="#00872A" transform="matrix(1.00, 0.00, -0.00, -1.00, 633.0, 190.6)">d</text><text xml:space="preserve" font-family="Monaco,Monaco" font-size="18.0" fill="#00872A" transform="matrix(1.00, 0.00, -0.00, -1.00, 643.8, 190.6)">e</text><text xml:space="preserve" font-family="Monaco,Monaco" font-size="18.0" fill="#00872A" transform="matrix(1.00, 0.00, -0.00, -1.00, 654.6, 190.6)"> </text><text xml:space="preserve" font-family="Monaco,Monaco" font-size="18.0" fill="#00872A" transform="matrix(1.00, 0.00, -0.00, -1.00, 665.4, 190.6)">h</text><text xml:space="preserve" font-family="Monaco,Monaco" font-size="18.0" fill="#00872A" transform="matrix(1.00, 0.00, -0.00, -1.00, 676.2, 190.6)">e</text><text xml:space="preserve" font-family="Monaco,Monaco" font-size="18.0" fill="#00872A" transform="matrix(1.00, 0.00, -0.00, -1.00, 687.0, 190.6)">r</text><text xml:space="preserve" font-family="Monaco,Monaco" font-size="18.0" fill="#00872A" transform="matrix(1.00, 0.00, -0.00, -1.00, 697.8, 190.6)">e</text><text xml:space="preserve" font-family="Monaco,Monaco" font-size="18.0" fill="#00872A" transform="matrix(1.00, 0.00, -0.00, -1.00, 708.6, 190.6)"> </text><text xml:space="preserve" font-family="Monaco,Monaco" font-size="18.0" fill="#00872A" transform="matrix(1.00, 0.00, -0.00, -1.00, 719.4, 190.6)"> </text><text xml:space="preserve" font-family="Monaco,Monaco" font-size="18.0" fill="#00872A" transform="matrix(1.00, 0.00, -0.00, -1.00, 730.2, 190.6)">*</text><text xml:space="preserve" font-family="Monaco,Monaco" font-size="18.0" fill="#00872A" transform="matrix(1.00, 0.00, -0.00, -1.00, 741.0, 190.6)">/</text></g></g></g></svg>