<?xml version="1.0" encoding="UTF-8" standalone="no"?><svg xmlns="http://www.w3.org/2000/svg" xmlns:xlink="http://www.w3.org/1999/xlink" clip-rule="evenodd" stroke-miterlimit="10" viewBox="0 0 826 569"><desc>SVG generated by Keynote</desc><defs></defs><g transform="matrix(1.00, 0.00, -0.00, -1.00, 0.0, 569.0)"><g><clipPath id="clip0x7fd054ca4590"><path d="M 1.0 568.0 L 825.0 568.0 L 825.0 0.0 L 1.0 0.0 Z M 1.0 568.0 "></path></clipPath><g clip-path="url(#clip0x7fd054ca4590)"><path d="M 1.0 568.0 L 207.0 568.0 L 207.0 473.3 L 1.0 473.3 Z M 1.0 568.0 " fill="#0264C0"></path><path d="M 207.0 568.0 L 413.0 568.0 L 413.0 473.3 L 207.0 473.3 Z M 207.0 568.0 " fill="#0264C0"></path><path d="M 413.0 568.0 L 619.0 568.0 L 619.0 473.3 L 413.0 473.3 Z M 413.0 568.0 " fill="#0264C0"></path><path d="M 619.0 568.0 L 825.0 568.0 L 825.0 473.3 L 619.0 473.3 Z M 619.0 568.0 " fill="#0264C0"></path><path d="M 1.0 473.3 L 207.0 473.3 L 207.0 378.7 L 1.0 378.7 Z M 1.0 473.3 " fill="#388CCE"></path><path d="M 207.0 473.3 L 413.0 473.3 L 413.0 378.7 L 207.0 378.7 Z M 207.0 473.3 " fill="#FEFFFF"></path><path d="M 413.0 473.3 L 619.0 473.3 L 619.0 378.7 L 413.0 378.7 Z M 413.0 473.3 " fill="#FEFFFF"></path><path d="M 619.0 473.3 L 825.0 473.3 L 825.0 378.7 L 619.0 378.7 Z M 619.0 473.3 " fill="#FEFFFF"></path><path d="M 1.0 378.7 L 207.0 378.7 L 207.0 284.0 L 1.0 284.0 Z M 1.0 378.7 " fill="#388CCE"></path><path d="M 207.0 378.7 L 413.0 378.7 L 413.0 284.0 L 207.0 284.0 Z M 207.0 378.7 " fill="#E2E5E8"></path><path d="M 413.0 378.7 L 619.0 378.7 L 619.0 284.0 L 413.0 284.0 Z M 413.0 378.7 " fill="#E2E5E8"></path><path d="M 619.0 378.7 L 825.0 378.7 L 825.0 284.0 L 619.0 284.0 Z M 619.0 378.7 " fill="#E2E5E8"></path><path d="M 1.0 284.0 L 207.0 284.0 L 207.0 189.3 L 1.0 189.3 Z M 1.0 284.0 " fill="#388CCE"></path><path d="M 207.0 284.0 L 413.0 284.0 L 413.0 189.3 L 207.0 189.3 Z M 207.0 284.0 " fill="#FEFFFF"></path><path d="M 413.0 284.0 L 619.0 284.0 L 619.0 189.3 L 413.0 189.3 Z M 413.0 284.0 " fill="#FEFFFF"></path><path d="M 619.0 284.0 L 825.0 284.0 L 825.0 189.3 L 619.0 189.3 Z M 619.0 284.0 " fill="#FEFFFF"></path><path d="M 1.0 189.3 L 207.0 189.3 L 207.0 94.7 L 1.0 94.7 Z M 1.0 189.3 " fill="#388CCE"></path><path d="M 207.0 189.3 L 413.0 189.3 L 413.0 94.7 L 207.0 94.7 Z M 207.0 189.3 " fill="#E2E5E8"></path><path d="M 413.0 189.3 L 619.0 189.3 L 619.0 94.7 L 413.0 94.7 Z M 413.0 189.3 " fill="#E2E5E8"></path><path d="M 619.0 189.3 L 825.0 189.3 L 825.0 94.7 L 619.0 94.7 Z M 619.0 189.3 " fill="#E2E5E8"></path><path d="M 1.0 94.7 L 207.0 94.7 L 207.0 0.0 L 1.0 0.0 Z M 1.0 94.7 " fill="#FEFFFE"></path><path d="M 207.0 94.7 L 413.0 94.7 L 413.0 0.0 L 207.0 0.0 Z M 207.0 94.7 " fill="#FEFFFF"></path><path d="M 413.0 94.7 L 619.0 94.7 L 619.0 0.0 L 413.0 0.0 Z M 413.0 94.7 " fill="#FEFFFF"></path><path d="M 619.0 94.7 L 825.0 94.7 L 825.0 0.0 L 619.0 0.0 Z M 619.0 94.7 " fill="#FEFFFF"></path></g></g><g><clipPath id="clip0x7fd054cb0e50"><path d="M 1.0 568.0 L 825.0 568.0 L 825.0 0.0 L 1.0 0.0 Z M 1.0 568.0 "></path></clipPath><g clip-path="url(#clip0x7fd054cb0e50)"><g><clipPath id="clip0x7fd054cb1610"><path d="M 1.0 473.8 L 207.0 473.8 L 207.0 568.0 L 1.0 568.0 Z M 1.0 473.8 "></path></clipPath><g clip-path="url(#clip0x7fd054cb1610)"><text xml:space="preserve" font-family="Helvetica-Bold,Helvetica" font-weight="bold" font-size="31.2" fill="#FEFFFE" transform="matrix(1.00, 0.00, -0.00, -1.00, 56.3, 509.2)">2</text><text xml:space="preserve" font-family="Helvetica-Bold,Helvetica" font-weight="bold" font-size="31.2" fill="#FEFFFE" transform="matrix(1.00, 0.00, -0.00, -1.00, 73.7, 509.2)">0</text><text xml:space="preserve" font-family="Helvetica-Bold,Helvetica" font-weight="bold" font-size="31.2" fill="#FEFFFE" transform="matrix(1.00, 0.00, -0.00, -1.00, 91.0, 509.2)">x</text><text xml:space="preserve" font-family="Helvetica-Bold,Helvetica" font-weight="bold" font-size="31.2" fill="#FEFFFE" transform="matrix(1.00, 0.00, -0.00, -1.00, 108.4, 509.2)">P</text><text xml:space="preserve" font-family="Helvetica-Bold,Helvetica" font-weight="bold" font-size="31.2" fill="#FEFFFE" transform="matrix(1.00, 0.00, -0.00, -1.00, 129.2, 509.2)">R</text></g></g></g></g><g><clipPath id="clip0x7fd054cb4f90"><path d="M 1.0 568.0 L 825.0 568.0 L 825.0 0.0 L 1.0 0.0 Z M 1.0 568.0 "></path></clipPath><g clip-path="url(#clip0x7fd054cb4f90)"><g><clipPath id="clip0x7fd054cb56e0"><path d="M 207.0 473.8 L 413.0 473.8 L 413.0 568.0 L 207.0 568.0 Z M 207.0 473.8 "></path></clipPath><g clip-path="url(#clip0x7fd054cb56e0)"><text xml:space="preserve" font-family="Helvetica-Bold,Helvetica" font-weight="bold" font-size="31.2" fill="#FEFFFE" transform="matrix(1.00, 0.00, -0.00, -1.00, 268.4, 509.2)">c</text><text xml:space="preserve" font-family="Helvetica-Bold,Helvetica" font-weight="bold" font-size="31.2" fill="#FEFFFE" transform="matrix(1.00, 0.00, -0.00, -1.00, 285.7, 509.2)">o</text><text xml:space="preserve" font-family="Helvetica-Bold,Helvetica" font-weight="bold" font-size="31.2" fill="#FEFFFE" transform="matrix(1.00, 0.00, -0.00, -1.00, 304.8, 509.2)">r</text><text xml:space="preserve" font-family="Helvetica-Bold,Helvetica" font-weight="bold" font-size="31.2" fill="#FEFFFE" transform="matrix(1.00, 0.00, -0.00, -1.00, 316.9, 509.2)">e</text><text xml:space="preserve" font-family="Helvetica-Bold,Helvetica" font-weight="bold" font-size="31.2" fill="#FEFFFE" transform="matrix(1.00, 0.00, -0.00, -1.00, 334.3, 509.2)">s</text></g></g></g></g><g><clipPath id="clip0x7fd054cb8410"><path d="M 1.0 568.0 L 825.0 568.0 L 825.0 0.0 L 1.0 0.0 Z M 1.0 568.0 "></path></clipPath><g clip-path="url(#clip0x7fd054cb8410)"><g><clipPath id="clip0x7fd054cb8b50"><path d="M 413.0 473.8 L 619.0 473.8 L 619.0 568.0 L 413.0 568.0 Z M 413.0 473.8 "></path></clipPath><g clip-path="url(#clip0x7fd054cb8b50)"><text xml:space="preserve" font-family="Helvetica-Bold,Helvetica" font-weight="bold" font-size="31.2" fill="#FEFFFE" transform="matrix(1.00, 0.00, -0.00, -1.00, 445.8, 509.2)">t</text><text xml:space="preserve" font-family="Helvetica-Bold,Helvetica" font-weight="bold" font-size="31.2" fill="#FEFFFE" transform="matrix(1.00, 0.00, -0.00, -1.00, 456.2, 509.2)">w</text><text xml:space="preserve" font-family="Helvetica-Bold,Helvetica" font-weight="bold" font-size="31.2" fill="#FEFFFE" transform="matrix(1.00, 0.00, -0.00, -1.00, 480.4, 509.2)">i</text><text xml:space="preserve" font-family="Helvetica-Bold,Helvetica" font-weight="bold" font-size="31.2" fill="#FEFFFE" transform="matrix(1.00, 0.00, -0.00, -1.00, 489.1, 509.2)">t</text><text xml:space="preserve" font-family="Helvetica-Bold,Helvetica" font-weight="bold" font-size="31.2" fill="#FEFFFE" transform="matrix(1.00, 0.00, -0.00, -1.00, 499.5, 509.2)">t</text><text xml:space="preserve" font-family="Helvetica-Bold,Helvetica" font-weight="bold" font-size="31.2" fill="#FEFFFE" transform="matrix(1.00, 0.00, -0.00, -1.00, 509.9, 509.2)">e</text><text xml:space="preserve" font-family="Helvetica-Bold,Helvetica" font-weight="bold" font-size="31.2" fill="#FEFFFE" transform="matrix(1.00, 0.00, -0.00, -1.00, 527.2, 509.2)">r</text><text xml:space="preserve" font-family="Helvetica-Bold,Helvetica" font-weight="bold" font-size="31.2" fill="#FEFFFE" transform="matrix(1.00, 0.00, -0.00, -1.00, 539.4, 509.2)">_</text><text xml:space="preserve" font-family="Helvetica-Bold,Helvetica" font-weight="bold" font-size="31.2" fill="#FEFFFE" transform="matrix(1.00, 0.00, -0.00, -1.00, 556.7, 509.2)">r</text><text xml:space="preserve" font-family="Helvetica-Bold,Helvetica" font-weight="bold" font-size="31.2" fill="#FEFFFE" transform="matrix(1.00, 0.00, -0.00, -1.00, 568.9, 509.2)">v</text></g></g></g></g><g><clipPath id="clip0x7fd054cbd7e0"><path d="M 1.0 568.0 L 825.0 568.0 L 825.0 0.0 L 1.0 0.0 Z M 1.0 568.0 "></path></clipPath><g clip-path="url(#clip0x7fd054cbd7e0)"><g><clipPath id="clip0x7fd054cbdf70"><path d="M 619.0 473.8 L 825.0 473.8 L 825.0 568.0 L 619.0 568.0 Z M 619.0 473.8 "></path></clipPath><g clip-path="url(#clip0x7fd054cbdf70)"><text xml:space="preserve" font-family="Helvetica-Bold,Helvetica" font-weight="bold" font-size="31.2" fill="#FEFFFE" transform="matrix(1.00, 0.00, -0.00, -1.00, 634.4, 509.2)">u</text><text xml:space="preserve" font-family="Helvetica-Bold,Helvetica" font-weight="bold" font-size="31.2" fill="#FEFFFE" transform="matrix(1.00, 0.00, -0.00, -1.00, 653.4, 509.2)">k</text><text xml:space="preserve" font-family="Helvetica-Bold,Helvetica" font-weight="bold" font-size="31.2" fill="#FEFFFE" transform="matrix(1.00, 0.00, -0.00, -1.00, 670.8, 509.2)">_</text><text xml:space="preserve" font-family="Helvetica-Bold,Helvetica" font-weight="bold" font-size="31.2" fill="#FEFFFE" transform="matrix(1.00, 0.00, -0.00, -1.00, 688.1, 509.2)">2</text><text xml:space="preserve" font-family="Helvetica-Bold,Helvetica" font-weight="bold" font-size="31.2" fill="#FEFFFE" transform="matrix(1.00, 0.00, -0.00, -1.00, 705.5, 509.2)">0</text><text xml:space="preserve" font-family="Helvetica-Bold,Helvetica" font-weight="bold" font-size="31.2" fill="#FEFFFE" transform="matrix(1.00, 0.00, -0.00, -1.00, 722.8, 509.2)">0</text><text xml:space="preserve" font-family="Helvetica-Bold,Helvetica" font-weight="bold" font-size="31.2" fill="#FEFFFE" transform="matrix(1.00, 0.00, -0.00, -1.00, 740.2, 509.2)">7</text><text xml:space="preserve" font-family="Helvetica-Bold,Helvetica" font-weight="bold" font-size="31.2" fill="#FEFFFE" transform="matrix(1.00, 0.00, -0.00, -1.00, 757.5, 509.2)">_</text><text xml:space="preserve" font-family="Helvetica-Bold,Helvetica" font-weight="bold" font-size="31.2" fill="#FEFFFE" transform="matrix(1.00, 0.00, -0.00, -1.00, 774.9, 509.2)">0</text><text xml:space="preserve" font-family="Helvetica-Bold,Helvetica" font-weight="bold" font-size="31.2" fill="#FEFFFE" transform="matrix(1.00, 0.00, -0.00, -1.00, 792.2, 509.2)">5</text></g></g></g></g><g><clipPath id="clip0x7fd054cc2cd0"><path d="M 1.0 568.0 L 825.0 568.0 L 825.0 0.0 L 1.0 0.0 Z M 1.0 568.0 "></path></clipPath><g clip-path="url(#clip0x7fd054cc2cd0)"><g><clipPath id="clip0x7fd054cc3420"><path d="M 1.0 378.7 L 206.5 378.7 L 206.5 472.8 L 1.0 472.8 Z M 1.0 378.7 "></path></clipPath><g clip-path="url(#clip0x7fd054cc3420)"><text xml:space="preserve" font-family="Helvetica-Bold,Helvetica" font-weight="bold" font-size="31.2" fill="#FEFFFE" transform="matrix(1.00, 0.00, -0.00, -1.00, 60.4, 414.0)">S</text><text xml:space="preserve" font-family="Helvetica-Bold,Helvetica" font-weight="bold" font-size="31.2" fill="#FEFFFE" transform="matrix(1.00, 0.00, -0.00, -1.00, 81.2, 414.0)">p</text><text xml:space="preserve" font-family="Helvetica-Bold,Helvetica" font-weight="bold" font-size="31.2" fill="#FEFFFE" transform="matrix(1.00, 0.00, -0.00, -1.00, 100.3, 414.0)">a</text><text xml:space="preserve" font-family="Helvetica-Bold,Helvetica" font-weight="bold" font-size="31.2" fill="#FEFFFE" transform="matrix(1.00, 0.00, -0.00, -1.00, 117.6, 414.0)">r</text><text xml:space="preserve" font-family="Helvetica-Bold,Helvetica" font-weight="bold" font-size="31.2" fill="#FEFFFE" transform="matrix(1.00, 0.00, -0.00, -1.00, 129.8, 414.0)">k</text></g></g></g></g><g><clipPath id="clip0x7fd054cc60d0"><path d="M 1.0 568.0 L 825.0 568.0 L 825.0 0.0 L 1.0 0.0 Z M 1.0 568.0 "></path></clipPath><g clip-path="url(#clip0x7fd054cc60d0)"><g><clipPath id="clip0x7fd054cc6870"><path d="M 207.5 378.7 L 413.0 378.7 L 413.0 472.8 L 207.5 472.8 Z M 207.5 378.7 "></path></clipPath><g clip-path="url(#clip0x7fd054cc6870)"><text xml:space="preserve" font-family="Helvetica-Light,Helvetica" font-size="31.2" fill="#000000" transform="matrix(1.00, 0.00, -0.00, -1.00, 284.2, 414.0)">1</text><text xml:space="preserve" font-family="Helvetica-Light,Helvetica" font-size="31.2" fill="#000000" transform="matrix(1.00, 0.00, -0.00, -1.00, 301.6, 414.0)">2</text><text xml:space="preserve" font-family="Helvetica-Light,Helvetica" font-size="31.2" fill="#000000" transform="matrix(1.00, 0.00, -0.00, -1.00, 318.9, 414.0)">8</text></g></g></g></g><g><clipPath id="clip0x7fd054cc92b0"><path d="M 1.0 568.0 L 825.0 568.0 L 825.0 0.0 L 1.0 0.0 Z M 1.0 568.0 "></path></clipPath><g clip-path="url(#clip0x7fd054cc92b0)"><g><clipPath id="clip0x7fd054cc99f0"><path d="M 413.0 378.7 L 619.0 378.7 L 619.0 472.8 L 413.0 472.8 Z M 413.0 378.7 "></path></clipPath><g clip-path="url(#clip0x7fd054cc99f0)"><text xml:space="preserve" font-family="Helvetica-Light,Helvetica" font-size="31.2" fill="#000000" transform="matrix(1.00, 0.00, -0.00, -1.00, 482.2, 414.0)">8</text><text xml:space="preserve" font-family="Helvetica-Light,Helvetica" font-size="31.2" fill="#000000" transform="matrix(1.00, 0.00, -0.00, -1.00, 499.5, 414.0)">5</text><text xml:space="preserve" font-family="Helvetica-Light,Helvetica" font-size="31.2" fill="#000000" transform="matrix(1.00, 0.00, -0.00, -1.00, 516.9, 414.0)">7</text><text xml:space="preserve" font-family="Helvetica-Light,Helvetica" font-size="31.2" fill="#000000" transform="matrix(1.00, 0.00, -0.00, -1.00, 534.2, 414.0)">s</text></g></g></g></g><g><clipPath id="clip0x7fd054ccbf10"><path d="M 1.0 568.0 L 825.0 568.0 L 825.0 0.0 L 1.0 0.0 Z M 1.0 568.0 "></path></clipPath><g clip-path="url(#clip0x7fd054ccbf10)"><g><clipPath id="clip0x7fd054ccc650"><path d="M 619.0 378.7 L 825.0 378.7 L 825.0 472.8 L 619.0 472.8 Z M 619.0 378.7 "></path></clipPath><g clip-path="url(#clip0x7fd054ccc650)"><text xml:space="preserve" font-family="Helvetica-Light,Helvetica" font-size="31.2" fill="#000000" transform="matrix(1.00, 0.00, -0.00, -1.00, 679.5, 414.0)">1</text><text xml:space="preserve" font-family="Helvetica-Light,Helvetica" font-size="31.2" fill="#000000" transform="matrix(1.00, 0.00, -0.00, -1.00, 696.9, 414.0)">7</text><text xml:space="preserve" font-family="Helvetica-Light,Helvetica" font-size="31.2" fill="#000000" transform="matrix(1.00, 0.00, -0.00, -1.00, 714.2, 414.0)">5</text><text xml:space="preserve" font-family="Helvetica-Light,Helvetica" font-size="31.2" fill="#000000" transform="matrix(1.00, 0.00, -0.00, -1.00, 731.5, 414.0)">9</text><text xml:space="preserve" font-family="Helvetica-Light,Helvetica" font-size="31.2" fill="#000000" transform="matrix(1.00, 0.00, -0.00, -1.00, 748.9, 414.0)">s</text></g></g></g></g><g><clipPath id="clip0x7fd054ccf180"><path d="M 1.0 568.0 L 825.0 568.0 L 825.0 0.0 L 1.0 0.0 Z M 1.0 568.0 "></path></clipPath><g clip-path="url(#clip0x7fd054ccf180)"><g><clipPath id="clip0x7fd054ccf8c0"><path d="M 1.0 284.0 L 206.5 284.0 L 206.5 378.7 L 1.0 378.7 Z M 1.0 284.0 "></path></clipPath><g clip-path="url(#clip0x7fd054ccf8c0)"><text xml:space="preserve" font-family="Helvetica-Bold,Helvetica" font-weight="bold" font-size="31.2" fill="#FEFFFE" transform="matrix(1.00, 0.00, -0.00, -1.00, 53.5, 319.8)">G</text><text xml:space="preserve" font-family="Helvetica-Bold,Helvetica" font-weight="bold" font-size="31.2" fill="#FEFFFE" transform="matrix(1.00, 0.00, -0.00, -1.00, 77.7, 319.8)">i</text><text xml:space="preserve" font-family="Helvetica-Bold,Helvetica" font-weight="bold" font-size="31.2" fill="#FEFFFE" transform="matrix(1.00, 0.00, -0.00, -1.00, 86.4, 319.8)">r</text><text xml:space="preserve" font-family="Helvetica-Bold,Helvetica" font-weight="bold" font-size="31.2" fill="#FEFFFE" transform="matrix(1.00, 0.00, -0.00, -1.00, 98.5, 319.8)">a</text><text xml:space="preserve" font-family="Helvetica-Bold,Helvetica" font-weight="bold" font-size="31.2" fill="#FEFFFE" transform="matrix(1.00, 0.00, -0.00, -1.00, 115.9, 319.8)">p</text><text xml:space="preserve" font-family="Helvetica-Bold,Helvetica" font-weight="bold" font-size="31.2" fill="#FEFFFE" transform="matrix(1.00, 0.00, -0.00, -1.00, 134.9, 319.8)">h</text></g></g></g></g><g><clipPath id="clip0x7fd054cd2d00"><path d="M 1.0 568.0 L 825.0 568.0 L 825.0 0.0 L 1.0 0.0 Z M 1.0 568.0 "></path></clipPath><g clip-path="url(#clip0x7fd054cd2d00)"><g><clipPath id="clip0x7fd054cd3460"><path d="M 207.5 284.0 L 413.0 284.0 L 413.0 378.7 L 207.5 378.7 Z M 207.5 284.0 "></path></clipPath><g clip-path="url(#clip0x7fd054cd3460)"><text xml:space="preserve" font-family="Helvetica-Light,Helvetica" font-size="31.2" fill="#000000" transform="matrix(1.00, 0.00, -0.00, -1.00, 284.2, 319.8)">1</text><text xml:space="preserve" font-family="Helvetica-Light,Helvetica" font-size="31.2" fill="#000000" transform="matrix(1.00, 0.00, -0.00, -1.00, 301.6, 319.8)">2</text><text xml:space="preserve" font-family="Helvetica-Light,Helvetica" font-size="31.2" fill="#000000" transform="matrix(1.00, 0.00, -0.00, -1.00, 318.9, 319.8)">8</text></g></g></g></g><g><clipPath id="clip0x7fd054cd53a0"><path d="M 1.0 568.0 L 825.0 568.0 L 825.0 0.0 L 1.0 0.0 Z M 1.0 568.0 "></path></clipPath><g clip-path="url(#clip0x7fd054cd53a0)"><g><clipPath id="clip0x7fd054cd5ae0"><path d="M 413.0 284.0 L 619.0 284.0 L 619.0 378.7 L 413.0 378.7 Z M 413.0 284.0 "></path></clipPath><g clip-path="url(#clip0x7fd054cd5ae0)"><text xml:space="preserve" font-family="Helvetica-Light,Helvetica" font-size="31.2" fill="#000000" transform="matrix(1.00, 0.00, -0.00, -1.00, 482.2, 319.8)">5</text><text xml:space="preserve" font-family="Helvetica-Light,Helvetica" font-size="31.2" fill="#000000" transform="matrix(1.00, 0.00, -0.00, -1.00, 499.5, 319.8)">9</text><text xml:space="preserve" font-family="Helvetica-Light,Helvetica" font-size="31.2" fill="#000000" transform="matrix(1.00, 0.00, -0.00, -1.00, 516.9, 319.8)">6</text><text xml:space="preserve" font-family="Helvetica-Light,Helvetica" font-size="31.2" fill="#000000" transform="matrix(1.00, 0.00, -0.00, -1.00, 534.2, 319.8)">s</text></g></g></g></g><g><clipPath id="clip0x7fd054cd8000"><path d="M 1.0 568.0 L 825.0 568.0 L 825.0 0.0 L 1.0 0.0 Z M 1.0 568.0 "></path></clipPath><g clip-path="url(#clip0x7fd054cd8000)"><g><clipPath id="clip0x7fd054cd8740"><path d="M 619.0 284.0 L 825.0 284.0 L 825.0 378.7 L 619.0 378.7 Z M 619.0 284.0 "></path></clipPath><g clip-path="url(#clip0x7fd054cd8740)"><text xml:space="preserve" font-family="Helvetica-Light,Helvetica" font-size="31.2" fill="#000000" transform="matrix(1.00, 0.00, -0.00, -1.00, 679.5, 319.8)">1</text><text xml:space="preserve" font-family="Helvetica-Light,Helvetica" font-size="31.2" fill="#000000" transform="matrix(1.00, 0.00, -0.00, -1.00, 696.9, 319.8)">2</text><text xml:space="preserve" font-family="Helvetica-Light,Helvetica" font-size="31.2" fill="#000000" transform="matrix(1.00, 0.00, -0.00, -1.00, 714.2, 319.8)">3</text><text xml:space="preserve" font-family="Helvetica-Light,Helvetica" font-size="31.2" fill="#000000" transform="matrix(1.00, 0.00, -0.00, -1.00, 731.5, 319.8)">5</text><text xml:space="preserve" font-family="Helvetica-Light,Helvetica" font-size="31.2" fill="#000000" transform="matrix(1.00, 0.00, -0.00, -1.00, 748.9, 319.8)">s</text></g></g></g></g><g><clipPath id="clip0x7fd054cdb270"><path d="M 1.0 568.0 L 825.0 568.0 L 825.0 0.0 L 1.0 0.0 Z M 1.0 568.0 "></path></clipPath><g clip-path="url(#clip0x7fd054cdb270)"><g><clipPath id="clip0x7fd054cdb9b0"><path d="M 1.0 189.3 L 206.5 189.3 L 206.5 284.0 L 1.0 284.0 Z M 1.0 189.3 "></path></clipPath><g clip-path="url(#clip0x7fd054cdb9b0)"><text xml:space="preserve" font-family="Helvetica-Bold,Helvetica" font-weight="bold" font-size="31.2" fill="#FEFFFE" transform="matrix(1.00, 0.00, -0.00, -1.00, 30.1, 225.2)">G</text><text xml:space="preserve" font-family="Helvetica-Bold,Helvetica" font-weight="bold" font-size="31.2" fill="#FEFFFE" transform="matrix(1.00, 0.00, -0.00, -1.00, 54.3, 225.2)">r</text><text xml:space="preserve" font-family="Helvetica-Bold,Helvetica" font-weight="bold" font-size="31.2" fill="#FEFFFE" transform="matrix(1.00, 0.00, -0.00, -1.00, 66.5, 225.2)">a</text><text xml:space="preserve" font-family="Helvetica-Bold,Helvetica" font-weight="bold" font-size="31.2" fill="#FEFFFE" transform="matrix(1.00, 0.00, -0.00, -1.00, 83.8, 225.2)">p</text><text xml:space="preserve" font-family="Helvetica-Bold,Helvetica" font-weight="bold" font-size="31.2" fill="#FEFFFE" transform="matrix(1.00, 0.00, -0.00, -1.00, 102.9, 225.2)">h</text><text xml:space="preserve" font-family="Helvetica-Bold,Helvetica" font-weight="bold" font-size="31.2" fill="#FEFFFE" transform="matrix(1.00, 0.00, -0.00, -1.00, 121.9, 225.2)">L</text><text xml:space="preserve" font-family="Helvetica-Bold,Helvetica" font-weight="bold" font-size="31.2" fill="#FEFFFE" transform="matrix(1.00, 0.00, -0.00, -1.00, 141.0, 225.2)">a</text><text xml:space="preserve" font-family="Helvetica-Bold,Helvetica" font-weight="bold" font-size="31.2" fill="#FEFFFE" transform="matrix(1.00, 0.00, -0.00, -1.00, 158.3, 225.2)">b</text></g></g></g></g><g><clipPath id="clip0x7fd054cdfa10"><path d="M 1.0 568.0 L 825.0 568.0 L 825.0 0.0 L 1.0 0.0 Z M 1.0 568.0 "></path></clipPath><g clip-path="url(#clip0x7fd054cdfa10)"><g><clipPath id="clip0x7fd054ce0160"><path d="M 207.5 189.3 L 413.0 189.3 L 413.0 284.0 L 207.5 284.0 Z M 207.5 189.3 "></path></clipPath><g clip-path="url(#clip0x7fd054ce0160)"><text xml:space="preserve" font-family="Helvetica-Light,Helvetica" font-size="31.2" fill="#000000" transform="matrix(1.00, 0.00, -0.00, -1.00, 284.2, 225.2)">1</text><text xml:space="preserve" font-family="Helvetica-Light,Helvetica" font-size="31.2" fill="#000000" transform="matrix(1.00, 0.00, -0.00, -1.00, 301.6, 225.2)">2</text><text xml:space="preserve" font-family="Helvetica-Light,Helvetica" font-size="31.2" fill="#000000" transform="matrix(1.00, 0.00, -0.00, -1.00, 318.9, 225.2)">8</text></g></g></g></g><g><clipPath id="clip0x7fd054ce2070"><path d="M 1.0 568.0 L 825.0 568.0 L 825.0 0.0 L 1.0 0.0 Z M 1.0 568.0 "></path></clipPath><g clip-path="url(#clip0x7fd054ce2070)"><g><clipPath id="clip0x7fd054ce27b0"><path d="M 413.0 189.3 L 619.0 189.3 L 619.0 284.0 L 413.0 284.0 Z M 413.0 189.3 "></path></clipPath><g clip-path="url(#clip0x7fd054ce27b0)"><text xml:space="preserve" font-family="Helvetica-Light,Helvetica" font-size="31.2" fill="#000000" transform="matrix(1.00, 0.00, -0.00, -1.00, 482.2, 225.2)">2</text><text xml:space="preserve" font-family="Helvetica-Light,Helvetica" font-size="31.2" fill="#000000" transform="matrix(1.00, 0.00, -0.00, -1.00, 499.5, 225.2)">4</text><text xml:space="preserve" font-family="Helvetica-Light,Helvetica" font-size="31.2" fill="#000000" transform="matrix(1.00, 0.00, -0.00, -1.00, 516.9, 225.2)">9</text><text xml:space="preserve" font-family="Helvetica-Light,Helvetica" font-size="31.2" fill="#000000" transform="matrix(1.00, 0.00, -0.00, -1.00, 534.2, 225.2)">s</text></g></g></g></g><g><clipPath id="clip0x7fd054ce4cd0"><path d="M 1.0 568.0 L 825.0 568.0 L 825.0 0.0 L 1.0 0.0 Z M 1.0 568.0 "></path></clipPath><g clip-path="url(#clip0x7fd054ce4cd0)"><g><clipPath id="clip0x7fd054ce54a0"><path d="M 619.0 189.3 L 825.0 189.3 L 825.0 284.0 L 619.0 284.0 Z M 619.0 189.3 "></path></clipPath><g clip-path="url(#clip0x7fd054ce54a0)"><text xml:space="preserve" font-family="Helvetica-Light,Helvetica" font-size="31.2" fill="#000000" transform="matrix(1.00, 0.00, -0.00, -1.00, 688.2, 225.2)">8</text><text xml:space="preserve" font-family="Helvetica-Light,Helvetica" font-size="31.2" fill="#000000" transform="matrix(1.00, 0.00, -0.00, -1.00, 705.5, 225.2)">3</text><text xml:space="preserve" font-family="Helvetica-Light,Helvetica" font-size="31.2" fill="#000000" transform="matrix(1.00, 0.00, -0.00, -1.00, 722.9, 225.2)">3</text><text xml:space="preserve" font-family="Helvetica-Light,Helvetica" font-size="31.2" fill="#000000" transform="matrix(1.00, 0.00, -0.00, -1.00, 740.2, 225.2)">s</text></g></g></g></g><g><clipPath id="clip0x7fd054ce7980"><path d="M 1.0 568.0 L 825.0 568.0 L 825.0 0.0 L 1.0 0.0 Z M 1.0 568.0 "></path></clipPath><g clip-path="url(#clip0x7fd054ce7980)"><g><clipPath id="clip0x7fd054ce80c0"><path d="M 1.0 94.7 L 206.5 94.7 L 206.5 189.3 L 1.0 189.3 Z M 1.0 94.7 "></path></clipPath><g clip-path="url(#clip0x7fd054ce80c0)"><text xml:space="preserve" font-family="Helvetica-Bold,Helvetica" font-weight="bold" font-size="31.2" fill="#FEFFFE" transform="matrix(1.00, 0.00, -0.00, -1.00, 47.4, 130.5)">G</text><text xml:space="preserve" font-family="Helvetica-Bold,Helvetica" font-weight="bold" font-size="31.2" fill="#FEFFFE" transform="matrix(1.00, 0.00, -0.00, -1.00, 71.7, 130.5)">r</text><text xml:space="preserve" font-family="Helvetica-Bold,Helvetica" font-weight="bold" font-size="31.2" fill="#FEFFFE" transform="matrix(1.00, 0.00, -0.00, -1.00, 83.8, 130.5)">a</text><text xml:space="preserve" font-family="Helvetica-Bold,Helvetica" font-weight="bold" font-size="31.2" fill="#FEFFFE" transform="matrix(1.00, 0.00, -0.00, -1.00, 101.1, 130.5)">p</text><text xml:space="preserve" font-family="Helvetica-Bold,Helvetica" font-weight="bold" font-size="31.2" fill="#FEFFFE" transform="matrix(1.00, 0.00, -0.00, -1.00, 120.2, 130.5)">h</text><text xml:space="preserve" font-family="Helvetica-Bold,Helvetica" font-weight="bold" font-size="31.2" fill="#FEFFFE" transform="matrix(1.00, 0.00, -0.00, -1.00, 139.3, 130.5)">X</text></g></g></g></g><g><clipPath id="clip0x7fd054ceb420"><path d="M 1.0 568.0 L 825.0 568.0 L 825.0 0.0 L 1.0 0.0 Z M 1.0 568.0 "></path></clipPath><g clip-path="url(#clip0x7fd054ceb420)"><g><clipPath id="clip0x7fd054cebb60"><path d="M 207.5 94.7 L 413.0 94.7 L 413.0 189.3 L 207.5 189.3 Z M 207.5 94.7 "></path></clipPath><g clip-path="url(#clip0x7fd054cebb60)"><text xml:space="preserve" font-family="Helvetica-Light,Helvetica" font-size="31.2" fill="#000000" transform="matrix(1.00, 0.00, -0.00, -1.00, 284.2, 130.5)">1</text><text xml:space="preserve" font-family="Helvetica-Light,Helvetica" font-size="31.2" fill="#000000" transform="matrix(1.00, 0.00, -0.00, -1.00, 301.6, 130.5)">2</text><text xml:space="preserve" font-family="Helvetica-Light,Helvetica" font-size="31.2" fill="#000000" transform="matrix(1.00, 0.00, -0.00, -1.00, 318.9, 130.5)">8</text></g></g></g></g><g><clipPath id="clip0x7fd054ceda70"><path d="M 1.0 568.0 L 825.0 568.0 L 825.0 0.0 L 1.0 0.0 Z M 1.0 568.0 "></path></clipPath><g clip-path="url(#clip0x7fd054ceda70)"><g><clipPath id="clip0x7fd054cee1b0"><path d="M 413.0 94.7 L 619.0 94.7 L 619.0 189.3 L 413.0 189.3 Z M 413.0 94.7 "></path></clipPath><g clip-path="url(#clip0x7fd054cee1b0)"><text xml:space="preserve" font-family="Helvetica-Light,Helvetica" font-size="31.2" fill="#000000" transform="matrix(1.00, 0.00, -0.00, -1.00, 482.2, 130.5)">4</text><text xml:space="preserve" font-family="Helvetica-Light,Helvetica" font-size="31.2" fill="#000000" transform="matrix(1.00, 0.00, -0.00, -1.00, 499.5, 130.5)">1</text><text xml:space="preserve" font-family="Helvetica-Light,Helvetica" font-size="31.2" fill="#000000" transform="matrix(1.00, 0.00, -0.00, -1.00, 516.9, 130.5)">9</text><text xml:space="preserve" font-family="Helvetica-Light,Helvetica" font-size="31.2" fill="#000000" transform="matrix(1.00, 0.00, -0.00, -1.00, 534.2, 130.5)">s</text></g></g></g></g><g><clipPath id="clip0x7fd054cf06d0"><path d="M 1.0 568.0 L 825.0 568.0 L 825.0 0.0 L 1.0 0.0 Z M 1.0 568.0 "></path></clipPath><g clip-path="url(#clip0x7fd054cf06d0)"><g><clipPath id="clip0x7fd054cf0e10"><path d="M 619.0 94.7 L 825.0 94.7 L 825.0 189.3 L 619.0 189.3 Z M 619.0 94.7 "></path></clipPath><g clip-path="url(#clip0x7fd054cf0e10)"><text xml:space="preserve" font-family="Helvetica-Light,Helvetica" font-size="31.2" fill="#000000" transform="matrix(1.00, 0.00, -0.00, -1.00, 688.2, 130.5)">4</text><text xml:space="preserve" font-family="Helvetica-Light,Helvetica" font-size="31.2" fill="#000000" transform="matrix(1.00, 0.00, -0.00, -1.00, 705.5, 130.5)">6</text><text xml:space="preserve" font-family="Helvetica-Light,Helvetica" font-size="31.2" fill="#000000" transform="matrix(1.00, 0.00, -0.00, -1.00, 722.9, 130.5)">2</text><text xml:space="preserve" font-family="Helvetica-Light,Helvetica" font-size="31.2" fill="#000000" transform="matrix(1.00, 0.00, -0.00, -1.00, 740.2, 130.5)">s</text></g></g></g></g></g></svg>