<?xml version="1.0" encoding="UTF-8" standalone="no"?><svg xmlns="http://www.w3.org/2000/svg" xmlns:xlink="http://www.w3.org/1999/xlink" clip-rule="evenodd" stroke-miterlimit="10" viewBox="0 0 251 228"><desc>SVG generated by Keynote</desc><defs></defs><g transform="matrix(1.00, 0.00, -0.00, -1.00, 0.0, 228.0)"><g><clipPath id="clip0x7fd0589b11f0"><path d="M 88.0 56.4 L 250.5 56.4 L 250.5 227.5 L 88.0 227.5 Z M 88.0 56.4 "></path></clipPath><g clip-path="url(#clip0x7fd0589b11f0)"><image xlink:href="../../397CEA9A-5F37-47D2-9D06-403FBA9C3B80/assets/AF7F0C018C8D5B8695E1A4A6D0C84AC7.png" width="160.00" height="169.00" transform="matrix(1.00, 0.00, -0.00, -1.00, 89.0, 226.5)" opacity="0.50"></image><path d="M 94.6 226.0 C 93.2 225.5 92.0 224.4 92.0 222.9 L 92.0 187.6 C 92.0 186.2 93.2 185.0 94.6 185.0 L 165.8 185.0 L 171.4 62.4 L 177.0 185.0 L 243.9 185.0 C 245.3 185.0 246.0 186.2 246.0 187.6 L 246.0 222.9 C 246.0 224.4 245.3 226.0 243.9 226.0 L 94.6 226.0 Z M 94.6 225.5 " fill="#DCDDE0"></path></g></g><g><clipPath id="clip0x7fd0589b6720"><path d="M 90.4 185.0 L 248.1 185.0 L 248.1 225.5 L 90.4 225.5 Z M 90.4 185.0 "></path></clipPath><g clip-path="url(#clip0x7fd0589b6720)"><text xml:space="preserve" font-family="Monaco,Monaco" font-size="18.0" fill="#002451" transform="matrix(1.00, 0.00, -0.00, -1.00, 114.0, 198.5)">d</text><text xml:space="preserve" font-family="Monaco,Monaco" font-size="18.0" fill="#002451" transform="matrix(1.00, 0.00, -0.00, -1.00, 124.8, 198.5)">a</text><text xml:space="preserve" font-family="Monaco,Monaco" font-size="18.0" fill="#002451" transform="matrix(1.00, 0.00, -0.00, -1.00, 135.7, 198.5)">t</text><text xml:space="preserve" font-family="Monaco,Monaco" font-size="18.0" fill="#002451" transform="matrix(1.00, 0.00, -0.00, -1.00, 146.5, 198.5)">a</text><text xml:space="preserve" font-family="Monaco,Monaco" font-size="18.0" fill="#002451" transform="matrix(1.00, 0.00, -0.00, -1.00, 157.3, 198.5)">,</text><text xml:space="preserve" font-family="Monaco,Monaco" font-size="18.0" fill="#002451" transform="matrix(1.00, 0.00, -0.00, -1.00, 168.1, 198.5)"> </text><text xml:space="preserve" font-family="Monaco,Monaco" font-size="18.0" fill="#002451" transform="matrix(1.00, 0.00, -0.00, -1.00, 178.9, 198.5)">t</text><text xml:space="preserve" font-family="Monaco,Monaco" font-size="18.0" fill="#002451" transform="matrix(1.00, 0.00, -0.00, -1.00, 189.7, 198.5)">i</text><text xml:space="preserve" font-family="Monaco,Monaco" font-size="18.0" fill="#002451" transform="matrix(1.00, 0.00, -0.00, -1.00, 200.5, 198.5)">m</text><text xml:space="preserve" font-family="Monaco,Monaco" font-size="18.0" fill="#002451" transform="matrix(1.00, 0.00, -0.00, -1.00, 211.3, 198.5)">e</text></g></g><g><clipPath id="clip0x7fd0589bbeb0"><path d="M 0.0 0.8 L 156.4 0.8 L 156.4 166.4 L 0.0 166.4 Z M 0.0 0.8 "></path></clipPath><g clip-path="url(#clip0x7fd0589bbeb0)"><path d="M 3.5 27.0 L 3.5 140.7 C 3.5 153.0 13.5 162.5 25.7 162.5 L 130.7 162.5 C 143.0 162.5 152.5 153.0 152.5 140.7 L 152.5 26.5 C 152.5 14.2 143.0 4.5 130.7 4.5 L 25.7 4.5 C 13.5 4.5 3.5 14.7 3.5 27.0 Z M 3.5 26.5 " fill="#92D894"></path><path d="M -0.0 135.9 L -0.0 22.2 C -0.0 10.0 10.0 0.4 22.2 0.4 L 127.2 0.4 C 139.5 0.4 149.0 10.0 149.0 22.2 L 149.0 136.4 C 149.0 148.7 139.5 158.4 127.2 158.4 L 22.2 158.4 C 10.0 158.4 -0.0 148.2 -0.0 135.9 Z M 0.0 136.4 " fill="none" stroke="#00872A" stroke-width="5.00" transform="matrix(1.00, 0.00, 0.00, -1.00, 3.5, 162.9)"></path></g></g><g><clipPath id="clip0x7fd0589bdc70"><path d="M 1.0 4.3 L 155.4 4.3 L 155.4 162.9 L 1.0 162.9 Z M 1.0 4.3 "></path></clipPath><g clip-path="url(#clip0x7fd0589bdc70)"><text xml:space="preserve" font-family="Helvetica-Bold,Helvetica" font-weight="bold" font-size="36.0" fill="#FEFFFE" transform="matrix(1.00, 0.00, -0.00, -1.00, 54.2, 70.3)">U</text><text xml:space="preserve" font-family="Helvetica-Bold,Helvetica" font-weight="bold" font-size="36.0" fill="#FEFFFE" transform="matrix(1.00, 0.00, -0.00, -1.00, 80.2, 70.3)">p</text></g></g></g></svg>