<?xml version="1.0" encoding="UTF-8" standalone="no"?><svg xmlns="http://www.w3.org/2000/svg" xmlns:xlink="http://www.w3.org/1999/xlink" clip-rule="evenodd" stroke-miterlimit="10" viewBox="0 0 229 238"><desc>SVG generated by Keynote</desc><defs></defs><g transform="matrix(1.00, 0.00, -0.00, -1.00, 0.0, 238.0)"><g><clipPath id="clip0x7fd05898c370"><path d="M 72.5 0.8 L 228.9 0.8 L 228.9 166.4 L 72.5 166.4 Z M 72.5 0.8 "></path></clipPath><g clip-path="url(#clip0x7fd05898c370)"><path d="M 76.5 27.0 L 76.5 140.7 C 76.5 153.0 85.9 162.5 98.2 162.5 L 203.2 162.5 C 215.4 162.5 225.5 153.0 225.5 140.7 L 225.5 26.5 C 225.5 14.2 215.4 4.5 203.2 4.5 L 98.2 4.5 C 85.9 4.5 76.5 14.7 76.5 27.0 Z M 76.0 26.5 " fill="#92D894"></path><path d="M 0.5 135.9 L 0.5 22.2 C 0.5 10.0 10.0 0.4 22.2 0.4 L 127.2 0.4 C 139.5 0.4 149.5 10.0 149.5 22.2 L 149.5 136.4 C 149.5 148.7 139.5 158.4 127.2 158.4 L 22.2 158.4 C 10.0 158.4 0.5 148.2 0.5 135.9 Z M 0.0 136.4 " fill="none" stroke="#00872A" stroke-width="5.00" transform="matrix(1.00, 0.00, 0.00, -1.00, 76.0, 162.9)"></path></g></g><g><clipPath id="clip0x7fd05898e3c0"><path d="M 73.5 4.3 L 227.9 4.3 L 227.9 162.9 L 73.5 162.9 Z M 73.5 4.3 "></path></clipPath><g clip-path="url(#clip0x7fd05898e3c0)"><text xml:space="preserve" font-family="Helvetica-Bold,Helvetica" font-weight="bold" font-size="36.0" fill="#FEFFFE" transform="matrix(1.00, 0.00, -0.00, -1.00, 101.7, 70.3)">D</text><text xml:space="preserve" font-family="Helvetica-Bold,Helvetica" font-weight="bold" font-size="36.0" fill="#FEFFFE" transform="matrix(1.00, 0.00, -0.00, -1.00, 127.7, 70.3)">o</text><text xml:space="preserve" font-family="Helvetica-Bold,Helvetica" font-weight="bold" font-size="36.0" fill="#FEFFFE" transform="matrix(1.00, 0.00, -0.00, -1.00, 149.7, 70.3)">w</text><text xml:space="preserve" font-family="Helvetica-Bold,Helvetica" font-weight="bold" font-size="36.0" fill="#FEFFFE" transform="matrix(1.00, 0.00, -0.00, -1.00, 177.7, 70.3)">n</text></g></g><g><clipPath id="clip0x7fd058991340"><path d="M 0.9 127.6 L 203.7 127.6 L 203.7 237.3 L 0.9 237.3 Z M 0.9 127.6 "></path></clipPath><g clip-path="url(#clip0x7fd058991340)"><image xlink:href="../../F9563B1A-B9B9-4FB4-B4E5-74F9223919BB/assets/65E91F73BA2E9F98B6D789E8744CF685.png" width="201.00" height="108.00" transform="matrix(1.00, 0.00, -0.00, -1.00, 1.9, 236.3)" opacity="0.50"></image><path d="M 7.5 235.0 C 6.1 235.3 5.0 234.1 5.0 232.7 L 5.0 197.4 C 5.0 196.0 6.1 195.0 7.5 195.0 L 126.4 195.0 L 133.2 133.6 L 140.0 195.0 L 197.2 195.0 C 198.6 195.0 200.0 196.0 200.0 197.4 L 200.0 232.7 C 200.0 234.1 198.6 235.0 197.2 235.0 L 7.5 235.0 Z M 7.5 235.3 " fill="#DCDDE0"></path></g></g><g><clipPath id="clip0x7fd058993750"><path d="M 3.3 194.8 L 201.4 194.8 L 201.4 235.3 L 3.3 235.3 Z M 3.3 194.8 "></path></clipPath><g clip-path="url(#clip0x7fd058993750)"><text xml:space="preserve" font-family="Monaco,Monaco" font-size="18.0" fill="#002451" transform="matrix(1.00, 0.00, -0.00, -1.00, 26.9, 208.3)">N</text><text xml:space="preserve" font-family="Monaco,Monaco" font-size="18.0" fill="#002451" transform="matrix(1.00, 0.00, -0.00, -1.00, 37.7, 208.3)">o</text><text xml:space="preserve" font-family="Monaco,Monaco" font-size="18.0" fill="#002451" transform="matrix(1.00, 0.00, -0.00, -1.00, 48.5, 208.3)">t</text><text xml:space="preserve" font-family="Monaco,Monaco" font-size="18.0" fill="#002451" transform="matrix(1.00, 0.00, -0.00, -1.00, 59.3, 208.3)">i</text><text xml:space="preserve" font-family="Monaco,Monaco" font-size="18.0" fill="#002451" transform="matrix(1.00, 0.00, -0.00, -1.00, 70.1, 208.3)">f</text><text xml:space="preserve" font-family="Monaco,Monaco" font-size="18.0" fill="#002451" transform="matrix(1.00, 0.00, -0.00, -1.00, 80.9, 208.3)">y</text><text xml:space="preserve" font-family="Monaco,Monaco" font-size="18.0" fill="#002451" transform="matrix(1.00, 0.00, -0.00, -1.00, 91.7, 208.3)">A</text><text xml:space="preserve" font-family="Monaco,Monaco" font-size="18.0" fill="#002451" transform="matrix(1.00, 0.00, -0.00, -1.00, 102.5, 208.3)">t</text><text xml:space="preserve" font-family="Monaco,Monaco" font-size="18.0" fill="#002451" transform="matrix(1.00, 0.00, -0.00, -1.00, 113.4, 208.3)">(</text><text xml:space="preserve" font-family="Monaco,Monaco" font-size="18.0" fill="#002451" transform="matrix(1.00, 0.00, -0.00, -1.00, 124.2, 208.3)">t</text><text xml:space="preserve" font-family="Monaco,Monaco" font-size="18.0" fill="#002451" transform="matrix(1.00, 0.00, -0.00, -1.00, 135.0, 208.3)">i</text><text xml:space="preserve" font-family="Monaco,Monaco" font-size="18.0" fill="#002451" transform="matrix(1.00, 0.00, -0.00, -1.00, 145.8, 208.3)">m</text><text xml:space="preserve" font-family="Monaco,Monaco" font-size="18.0" fill="#002451" transform="matrix(1.00, 0.00, -0.00, -1.00, 156.6, 208.3)">e</text><text xml:space="preserve" font-family="Monaco,Monaco" font-size="18.0" fill="#002451" transform="matrix(1.00, 0.00, -0.00, -1.00, 167.4, 208.3)">)</text><text xml:space="preserve" font-family="Monaco,Monaco" font-size="18.0" fill="#002451" transform="matrix(1.00, 0.00, -0.00, -1.00, 178.2, 208.3)">:</text></g></g></g></svg>