<?xml version="1.0" encoding="UTF-8" standalone="no"?><svg xmlns="http://www.w3.org/2000/svg" xmlns:xlink="http://www.w3.org/1999/xlink" clip-rule="evenodd" stroke-miterlimit="4.00" viewBox="0 0 106 72"><desc>SVG generated by Keynote</desc><defs></defs><g transform="matrix(1.00, 0.00, -0.00, -1.00, 0.0, 72.0)"><path d="M 26.2 68.5 L 80.4 68.5 C 87.0 68.5 90.3 68.5 93.8 67.4 C 97.7 66.0 100.8 62.9 102.2 59.0 C 103.3 55.5 103.3 52.2 103.3 45.5 L 103.3 25.8 C 103.3 19.2 103.3 15.9 102.2 12.3 C 100.8 8.4 97.7 5.4 93.8 4.0 C 90.3 2.8 87.0 2.8 80.3 2.8 L 26.2 2.8 C 19.7 2.8 16.3 2.8 12.8 4.0 C 8.9 5.4 5.8 8.4 4.4 12.3 C 3.3 15.9 3.3 19.2 3.3 25.9 L 3.3 45.6 C 3.3 52.2 3.3 55.5 4.4 59.0 C 5.8 62.9 8.9 66.0 12.8 67.4 C 16.3 68.5 19.7 68.5 26.3 68.5 Z M 26.2 68.5 " fill="#51A7F9"></path><path d="M 22.9 0.0 L 77.1 0.0 C 83.6 0.0 87.0 0.0 90.5 1.1 C 94.4 2.5 97.5 5.6 98.9 9.5 C 100.0 13.0 100.0 16.4 100.0 23.0 L 100.0 42.7 C 100.0 49.3 100.0 52.6 98.9 56.2 C 97.5 60.1 94.4 63.1 90.5 64.5 C 87.0 65.7 83.6 65.7 77.0 65.7 L 22.9 65.7 C 16.4 65.7 13.0 65.7 9.5 64.5 C 5.6 63.1 2.5 60.1 1.1 56.2 C 0.0 52.6 0.0 49.3 0.0 42.6 L 0.0 22.9 C 0.0 16.4 0.0 13.0 1.1 9.5 C 2.5 5.6 5.6 2.5 9.5 1.1 C 13.0 0.0 16.4 0.0 23.0 0.0 Z M 22.9 0.0 " fill="none" stroke="#000000" stroke-width="3.00" transform="matrix(1.00, 0.00, 0.00, -1.00, 3.3, 68.5)"></path><g><clipPath id="clip-192"><path d="M 2.8 2.8 L 103.8 2.8 L 103.8 68.5 L 2.8 68.5 Z M 2.8 2.8 "></path></clipPath><g clip-path="url(#clip-192)"><text xml:space="preserve" font-family="Helvetica-Bold" font-weight="bold" font-size="24.0" fill="#FEFFFF" transform="matrix(1.00, 0.00, -0.00, -1.00, 21.0, 27.0)">r</text><text xml:space="preserve" font-family="Helvetica-Bold" font-weight="bold" font-size="24.0" fill="#FEFFFF" transform="matrix(1.00, 0.00, -0.00, -1.00, 30.3, 27.0)">a</text><text xml:space="preserve" font-family="Helvetica-Bold" font-weight="bold" font-size="24.0" fill="#FEFFFF" transform="matrix(1.00, 0.00, -0.00, -1.00, 43.7, 27.0)">n</text><text xml:space="preserve" font-family="Helvetica-Bold" font-weight="bold" font-size="24.0" fill="#FEFFFF" transform="matrix(1.00, 0.00, -0.00, -1.00, 58.4, 27.0)">k</text><text xml:space="preserve" font-family="Helvetica-Bold" font-weight="bold" font-size="24.0" fill="#FEFFFF" transform="matrix(1.00, 0.00, -0.00, -1.00, 71.7, 27.0)">s</text></g></g></g></svg>