<?xml version="1.0" encoding="UTF-8" standalone="no"?><svg xmlns="http://www.w3.org/2000/svg" xmlns:xlink="http://www.w3.org/1999/xlink" clip-rule="evenodd" stroke-miterlimit="4.00" viewBox="0 0 361 271"><desc>SVG generated by Keynote</desc><defs></defs><g transform="matrix(1.00, 0.00, -0.00, -1.00, 0.0, 271.0)"><image xlink:href="9640E6C502CAB5CF466CAD0878002243.png" width="359.00" height="264.00" transform="matrix(1.00, 0.00, -0.00, -1.00, 1.0, 265.6)" opacity="0.50"></image><path d="M 123.2 262.8 L 105.2 236.4 L 14.0 236.4 C 9.1 236.4 5.0 232.4 5.0 227.4 L 5.0 16.1 C 5.0 11.1 9.1 7.1 14.0 7.1 L 347.0 7.1 C 351.9 7.1 356.0 11.1 356.0 16.1 L 356.0 227.4 C 356.0 232.4 351.9 236.4 347.0 236.4 L 141.1 236.4 L 123.2 262.8 Z M 123.2 262.8 " fill="#FEFFFF"></path><path d="M 118.1 -26.4 L 100.2 0.0 L 9.0 0.0 C 4.0 0.0 0.0 4.0 0.0 9.0 L 0.0 220.3 C 0.0 225.3 4.0 229.3 9.0 229.3 L 341.9 229.3 C 346.9 229.3 350.9 225.3 350.9 220.3 L 350.9 9.0 C 350.9 4.0 346.9 0.0 341.9 0.0 L 136.1 0.0 L 118.1 -26.4 Z M 118.1 -26.4 " fill="none" stroke="#000000" stroke-width="2.00" transform="matrix(1.00, 0.00, 0.00, -1.00, 5.0, 236.4)"></path><g><clipPath id="clip-197"><path d="M 4.4 7.1 L 356.6 7.1 L 356.6 237.0 L 4.4 237.0 Z M 4.4 7.1 "></path></clipPath><g clip-path="url(#clip-197)"><text xml:space="preserve" font-family="Monaco" font-size="18.0" fill="#000000" transform="matrix(1.00, 0.00, -0.00, -1.00, 14.0, 212.0)"> </text><text xml:space="preserve" font-family="Monaco" font-size="18.0" fill="#000000" transform="matrix(1.00, 0.00, -0.00, -1.00, 24.8, 212.0)"> </text><text xml:space="preserve" font-family="Monaco" font-size="18.0" fill="#000000" transform="matrix(1.00, 0.00, -0.00, -1.00, 35.6, 212.0)"> </text><text xml:space="preserve" font-family="Monaco" font-size="18.0" fill="#000000" transform="matrix(1.00, 0.00, -0.00, -1.00, 10.0, 187.0)"> </text><text xml:space="preserve" font-family="Monaco" font-size="18.0" fill="#000000" transform="matrix(1.00, 0.00, -0.00, -1.00, 20.8, 187.0)"> </text><text xml:space="preserve" font-family="Monaco" font-size="18.0" fill="#000000" transform="matrix(1.00, 0.00, -0.00, -1.00, 31.6, 187.0)">f</text><text xml:space="preserve" font-family="Monaco" font-size="18.0" fill="#000000" transform="matrix(1.00, 0.00, -0.00, -1.00, 42.4, 187.0)">o</text><text xml:space="preserve" font-family="Monaco" font-size="18.0" fill="#000000" transform="matrix(1.00, 0.00, -0.00, -1.00, 53.2, 187.0)">r</text><text xml:space="preserve" font-family="Monaco" font-size="18.0" fill="#000000" transform="matrix(1.00, 0.00, -0.00, -1.00, 64.0, 187.0)"> </text><text xml:space="preserve" font-family="Monaco" font-size="18.0" fill="#000000" transform="matrix(1.00, 0.00, -0.00, -1.00, 74.8, 187.0)">(</text><text xml:space="preserve" font-family="Monaco" font-size="18.0" fill="#000000" transform="matrix(1.00, 0.00, -0.00, -1.00, 85.6, 187.0)">n</text><text xml:space="preserve" font-family="Monaco" font-size="18.0" fill="#000000" transform="matrix(1.00, 0.00, -0.00, -1.00, 96.4, 187.0)">o</text><text xml:space="preserve" font-family="Monaco" font-size="18.0" fill="#000000" transform="matrix(1.00, 0.00, -0.00, -1.00, 107.2, 187.0)">d</text><text xml:space="preserve" font-family="Monaco" font-size="18.0" fill="#000000" transform="matrix(1.00, 0.00, -0.00, -1.00, 118.0, 187.0)">e</text><text xml:space="preserve" font-family="Monaco" font-size="18.0" fill="#000000" transform="matrix(1.00, 0.00, -0.00, -1.00, 128.8, 187.0)">,</text><text xml:space="preserve" font-family="Monaco" font-size="18.0" fill="#000000" transform="matrix(1.00, 0.00, -0.00, -1.00, 139.6, 187.0)"> </text><text xml:space="preserve" font-family="Monaco" font-size="18.0" fill="#000000" transform="matrix(1.00, 0.00, -0.00, -1.00, 150.4, 187.0)">r</text><text xml:space="preserve" font-family="Monaco" font-size="18.0" fill="#000000" transform="matrix(1.00, 0.00, -0.00, -1.00, 161.2, 187.0)">a</text><text xml:space="preserve" font-family="Monaco" font-size="18.0" fill="#000000" transform="matrix(1.00, 0.00, -0.00, -1.00, 172.1, 187.0)">n</text><text xml:space="preserve" font-family="Monaco" font-size="18.0" fill="#000000" transform="matrix(1.00, 0.00, -0.00, -1.00, 182.9, 187.0)">k</text><text xml:space="preserve" font-family="Monaco" font-size="18.0" fill="#000000" transform="matrix(1.00, 0.00, -0.00, -1.00, 193.7, 187.0)">)</text><text xml:space="preserve" font-family="Monaco" font-size="18.0" fill="#000000" transform="matrix(1.00, 0.00, -0.00, -1.00, 204.5, 187.0)"> </text><text xml:space="preserve" font-family="Monaco" font-size="18.0" fill="#000000" transform="matrix(1.00, 0.00, -0.00, -1.00, 215.3, 187.0)">i</text><text xml:space="preserve" font-family="Monaco" font-size="18.0" fill="#000000" transform="matrix(1.00, 0.00, -0.00, -1.00, 226.1, 187.0)">n</text><text xml:space="preserve" font-family="Monaco" font-size="18.0" fill="#000000" transform="matrix(1.00, 0.00, -0.00, -1.00, 236.9, 187.0)"> </text><text xml:space="preserve" font-family="Monaco" font-size="18.0" fill="#000000" transform="matrix(1.00, 0.00, -0.00, -1.00, 247.7, 187.0)">i</text><text xml:space="preserve" font-family="Monaco" font-size="18.0" fill="#000000" transform="matrix(1.00, 0.00, -0.00, -1.00, 258.5, 187.0)">n</text><text xml:space="preserve" font-family="Monaco" font-size="18.0" fill="#000000" transform="matrix(1.00, 0.00, -0.00, -1.00, 269.3, 187.0)">p</text><text xml:space="preserve" font-family="Monaco" font-size="18.0" fill="#000000" transform="matrix(1.00, 0.00, -0.00, -1.00, 280.1, 187.0)">u</text><text xml:space="preserve" font-family="Monaco" font-size="18.0" fill="#000000" transform="matrix(1.00, 0.00, -0.00, -1.00, 290.9, 187.0)">t</text><text xml:space="preserve" font-family="Monaco" font-size="18.0" fill="#000000" transform="matrix(1.00, 0.00, -0.00, -1.00, 301.7, 187.0)"> </text><text xml:space="preserve" font-family="Monaco" font-size="18.0" fill="#000000" transform="matrix(1.00, 0.00, -0.00, -1.00, 312.5, 187.0)">{</text><text xml:space="preserve" font-family="Monaco" font-size="18.0" fill="#000000" transform="matrix(1.00, 0.00, -0.00, -1.00, 10.0, 162.0)"> </text><text xml:space="preserve" font-family="Monaco" font-size="18.0" fill="#000000" transform="matrix(1.00, 0.00, -0.00, -1.00, 20.8, 162.0)"> </text><text xml:space="preserve" font-family="Monaco" font-size="18.0" fill="#000000" transform="matrix(1.00, 0.00, -0.00, -1.00, 31.6, 162.0)"> </text><text xml:space="preserve" font-family="Monaco" font-size="18.0" fill="#000000" transform="matrix(1.00, 0.00, -0.00, -1.00, 42.4, 162.0)"> </text><text xml:space="preserve" font-family="Monaco" font-size="18.0" fill="#000000" transform="matrix(1.00, 0.00, -0.00, -1.00, 53.2, 162.0)">s</text><text xml:space="preserve" font-family="Monaco" font-size="18.0" fill="#000000" transform="matrix(1.00, 0.00, -0.00, -1.00, 64.0, 162.0)">u</text><text xml:space="preserve" font-family="Monaco" font-size="18.0" fill="#000000" transform="matrix(1.00, 0.00, -0.00, -1.00, 74.8, 162.0)">m</text><text xml:space="preserve" font-family="Monaco" font-size="18.0" fill="#000000" transform="matrix(1.00, 0.00, -0.00, -1.00, 85.6, 162.0)">[</text><text xml:space="preserve" font-family="Monaco" font-size="18.0" fill="#000000" transform="matrix(1.00, 0.00, -0.00, -1.00, 96.4, 162.0)">n</text><text xml:space="preserve" font-family="Monaco" font-size="18.0" fill="#000000" transform="matrix(1.00, 0.00, -0.00, -1.00, 107.2, 162.0)">o</text><text xml:space="preserve" font-family="Monaco" font-size="18.0" fill="#000000" transform="matrix(1.00, 0.00, -0.00, -1.00, 118.0, 162.0)">d</text><text xml:space="preserve" font-family="Monaco" font-size="18.0" fill="#000000" transform="matrix(1.00, 0.00, -0.00, -1.00, 128.8, 162.0)">e</text><text xml:space="preserve" font-family="Monaco" font-size="18.0" fill="#000000" transform="matrix(1.00, 0.00, -0.00, -1.00, 139.6, 162.0)">]</text><text xml:space="preserve" font-family="Monaco" font-size="18.0" fill="#000000" transform="matrix(1.00, 0.00, -0.00, -1.00, 150.4, 162.0)"> </text><text xml:space="preserve" font-family="Monaco" font-size="18.0" fill="#000000" transform="matrix(1.00, 0.00, -0.00, -1.00, 161.2, 162.0)">+</text><text xml:space="preserve" font-family="Monaco" font-size="18.0" fill="#000000" transform="matrix(1.00, 0.00, -0.00, -1.00, 172.1, 162.0)">=</text><text xml:space="preserve" font-family="Monaco" font-size="18.0" fill="#000000" transform="matrix(1.00, 0.00, -0.00, -1.00, 182.9, 162.0)"> </text><text xml:space="preserve" font-family="Monaco" font-size="18.0" fill="#000000" transform="matrix(1.00, 0.00, -0.00, -1.00, 193.7, 162.0)">r</text><text xml:space="preserve" font-family="Monaco" font-size="18.0" fill="#000000" transform="matrix(1.00, 0.00, -0.00, -1.00, 204.5, 162.0)">a</text><text xml:space="preserve" font-family="Monaco" font-size="18.0" fill="#000000" transform="matrix(1.00, 0.00, -0.00, -1.00, 215.3, 162.0)">n</text><text xml:space="preserve" font-family="Monaco" font-size="18.0" fill="#000000" transform="matrix(1.00, 0.00, -0.00, -1.00, 226.1, 162.0)">k</text><text xml:space="preserve" font-family="Monaco" font-size="18.0" fill="#000000" transform="matrix(1.00, 0.00, -0.00, -1.00, 236.9, 162.0)">;</text><text xml:space="preserve" font-family="Monaco" font-size="18.0" fill="#000000" transform="matrix(1.00, 0.00, -0.00, -1.00, 10.0, 137.0)"> </text><text xml:space="preserve" font-family="Monaco" font-size="18.0" fill="#000000" transform="matrix(1.00, 0.00, -0.00, -1.00, 20.8, 137.0)"> </text><text xml:space="preserve" font-family="Monaco" font-size="18.0" fill="#000000" transform="matrix(1.00, 0.00, -0.00, -1.00, 31.6, 137.0)">}</text><text xml:space="preserve" font-family="Monaco" font-size="18.0" fill="#000000" transform="matrix(1.00, 0.00, -0.00, -1.00, 10.0, 87.0)"> </text><text xml:space="preserve" font-family="Monaco" font-size="18.0" fill="#000000" transform="matrix(1.00, 0.00, -0.00, -1.00, 20.8, 87.0)"> </text><text xml:space="preserve" font-family="Monaco" font-size="18.0" fill="#000000" transform="matrix(1.00, 0.00, -0.00, -1.00, 31.6, 87.0)">f</text><text xml:space="preserve" font-family="Monaco" font-size="18.0" fill="#000000" transform="matrix(1.00, 0.00, -0.00, -1.00, 42.4, 87.0)">o</text><text xml:space="preserve" font-family="Monaco" font-size="18.0" fill="#000000" transform="matrix(1.00, 0.00, -0.00, -1.00, 53.2, 87.0)">r</text><text xml:space="preserve" font-family="Monaco" font-size="18.0" fill="#000000" transform="matrix(1.00, 0.00, -0.00, -1.00, 64.0, 87.0)"> </text><text xml:space="preserve" font-family="Monaco" font-size="18.0" fill="#000000" transform="matrix(1.00, 0.00, -0.00, -1.00, 74.8, 87.0)">n</text><text xml:space="preserve" font-family="Monaco" font-size="18.0" fill="#000000" transform="matrix(1.00, 0.00, -0.00, -1.00, 85.6, 87.0)">o</text><text xml:space="preserve" font-family="Monaco" font-size="18.0" fill="#000000" transform="matrix(1.00, 0.00, -0.00, -1.00, 96.4, 87.0)">d</text><text xml:space="preserve" font-family="Monaco" font-size="18.0" fill="#000000" transform="matrix(1.00, 0.00, -0.00, -1.00, 107.2, 87.0)">e</text><text xml:space="preserve" font-family="Monaco" font-size="18.0" fill="#000000" transform="matrix(1.00, 0.00, -0.00, -1.00, 118.0, 87.0)"> </text><text xml:space="preserve" font-family="Monaco" font-size="18.0" fill="#000000" transform="matrix(1.00, 0.00, -0.00, -1.00, 128.8, 87.0)">i</text><text xml:space="preserve" font-family="Monaco" font-size="18.0" fill="#000000" transform="matrix(1.00, 0.00, -0.00, -1.00, 139.6, 87.0)">n</text><text xml:space="preserve" font-family="Monaco" font-size="18.0" fill="#000000" transform="matrix(1.00, 0.00, -0.00, -1.00, 150.4, 87.0)"> </text><text xml:space="preserve" font-family="Monaco" font-size="18.0" fill="#000000" transform="matrix(1.00, 0.00, -0.00, -1.00, 161.2, 87.0)">0</text><text xml:space="preserve" font-family="Monaco" font-size="18.0" fill="#000000" transform="matrix(1.00, 0.00, -0.00, -1.00, 172.1, 87.0)">.</text><text xml:space="preserve" font-family="Monaco" font-size="18.0" fill="#000000" transform="matrix(1.00, 0.00, -0.00, -1.00, 182.9, 87.0)">.</text><text xml:space="preserve" font-family="Monaco" font-size="18.0" fill="#000000" transform="matrix(1.00, 0.00, -0.00, -1.00, 193.7, 87.0)">s</text><text xml:space="preserve" font-family="Monaco" font-size="18.0" fill="#000000" transform="matrix(1.00, 0.00, -0.00, -1.00, 204.5, 87.0)">u</text><text xml:space="preserve" font-family="Monaco" font-size="18.0" fill="#000000" transform="matrix(1.00, 0.00, -0.00, -1.00, 215.3, 87.0)">m</text><text xml:space="preserve" font-family="Monaco" font-size="18.0" fill="#000000" transform="matrix(1.00, 0.00, -0.00, -1.00, 226.1, 87.0)">.</text><text xml:space="preserve" font-family="Monaco" font-size="18.0" fill="#000000" transform="matrix(1.00, 0.00, -0.00, -1.00, 236.9, 87.0)">l</text><text xml:space="preserve" font-family="Monaco" font-size="18.0" fill="#000000" transform="matrix(1.00, 0.00, -0.00, -1.00, 247.7, 87.0)">e</text><text xml:space="preserve" font-family="Monaco" font-size="18.0" fill="#000000" transform="matrix(1.00, 0.00, -0.00, -1.00, 258.5, 87.0)">n</text><text xml:space="preserve" font-family="Monaco" font-size="18.0" fill="#000000" transform="matrix(1.00, 0.00, -0.00, -1.00, 269.3, 87.0)">(</text><text xml:space="preserve" font-family="Monaco" font-size="18.0" fill="#000000" transform="matrix(1.00, 0.00, -0.00, -1.00, 280.1, 87.0)">)</text><text xml:space="preserve" font-family="Monaco" font-size="18.0" fill="#000000" transform="matrix(1.00, 0.00, -0.00, -1.00, 290.9, 87.0)"> </text><text xml:space="preserve" font-family="Monaco" font-size="18.0" fill="#000000" transform="matrix(1.00, 0.00, -0.00, -1.00, 301.7, 87.0)">{</text><text xml:space="preserve" font-family="Monaco" font-size="18.0" fill="#000000" transform="matrix(1.00, 0.00, -0.00, -1.00, 10.0, 62.0)"> </text><text xml:space="preserve" font-family="Monaco" font-size="18.0" fill="#000000" transform="matrix(1.00, 0.00, -0.00, -1.00, 20.8, 62.0)"> </text><text xml:space="preserve" font-family="Monaco" font-size="18.0" fill="#000000" transform="matrix(1.00, 0.00, -0.00, -1.00, 31.6, 62.0)"> </text><text xml:space="preserve" font-family="Monaco" font-size="18.0" fill="#000000" transform="matrix(1.00, 0.00, -0.00, -1.00, 42.4, 62.0)"> </text><text xml:space="preserve" font-family="Monaco" font-size="18.0" fill="#000000" transform="matrix(1.00, 0.00, -0.00, -1.00, 53.2, 62.0)">o</text><text xml:space="preserve" font-family="Monaco" font-size="18.0" fill="#000000" transform="matrix(1.00, 0.00, -0.00, -1.00, 64.0, 62.0)">u</text><text xml:space="preserve" font-family="Monaco" font-size="18.0" fill="#000000" transform="matrix(1.00, 0.00, -0.00, -1.00, 74.8, 62.0)">t</text><text xml:space="preserve" font-family="Monaco" font-size="18.0" fill="#000000" transform="matrix(1.00, 0.00, -0.00, -1.00, 85.6, 62.0)">p</text><text xml:space="preserve" font-family="Monaco" font-size="18.0" fill="#000000" transform="matrix(1.00, 0.00, -0.00, -1.00, 96.4, 62.0)">u</text><text xml:space="preserve" font-family="Monaco" font-size="18.0" fill="#000000" transform="matrix(1.00, 0.00, -0.00, -1.00, 107.2, 62.0)">t</text><text xml:space="preserve" font-family="Monaco" font-size="18.0" fill="#000000" transform="matrix(1.00, 0.00, -0.00, -1.00, 118.0, 62.0)">(</text><text xml:space="preserve" font-family="Monaco" font-size="18.0" fill="#000000" transform="matrix(1.00, 0.00, -0.00, -1.00, 128.8, 62.0)">(</text><text xml:space="preserve" font-family="Monaco" font-size="18.0" fill="#000000" transform="matrix(1.00, 0.00, -0.00, -1.00, 139.6, 62.0)">n</text><text xml:space="preserve" font-family="Monaco" font-size="18.0" fill="#000000" transform="matrix(1.00, 0.00, -0.00, -1.00, 150.4, 62.0)">o</text><text xml:space="preserve" font-family="Monaco" font-size="18.0" fill="#000000" transform="matrix(1.00, 0.00, -0.00, -1.00, 161.2, 62.0)">d</text><text xml:space="preserve" font-family="Monaco" font-size="18.0" fill="#000000" transform="matrix(1.00, 0.00, -0.00, -1.00, 172.1, 62.0)">e</text><text xml:space="preserve" font-family="Monaco" font-size="18.0" fill="#000000" transform="matrix(1.00, 0.00, -0.00, -1.00, 182.9, 62.0)">,</text><text xml:space="preserve" font-family="Monaco" font-size="18.0" fill="#000000" transform="matrix(1.00, 0.00, -0.00, -1.00, 193.7, 62.0)"> </text><text xml:space="preserve" font-family="Monaco" font-size="18.0" fill="#000000" transform="matrix(1.00, 0.00, -0.00, -1.00, 204.5, 62.0)">s</text><text xml:space="preserve" font-family="Monaco" font-size="18.0" fill="#000000" transform="matrix(1.00, 0.00, -0.00, -1.00, 215.3, 62.0)">u</text><text xml:space="preserve" font-family="Monaco" font-size="18.0" fill="#000000" transform="matrix(1.00, 0.00, -0.00, -1.00, 226.1, 62.0)">m</text><text xml:space="preserve" font-family="Monaco" font-size="18.0" fill="#000000" transform="matrix(1.00, 0.00, -0.00, -1.00, 236.9, 62.0)">[</text><text xml:space="preserve" font-family="Monaco" font-size="18.0" fill="#000000" transform="matrix(1.00, 0.00, -0.00, -1.00, 247.7, 62.0)">n</text><text xml:space="preserve" font-family="Monaco" font-size="18.0" fill="#000000" transform="matrix(1.00, 0.00, -0.00, -1.00, 258.5, 62.0)">o</text><text xml:space="preserve" font-family="Monaco" font-size="18.0" fill="#000000" transform="matrix(1.00, 0.00, -0.00, -1.00, 269.3, 62.0)">d</text><text xml:space="preserve" font-family="Monaco" font-size="18.0" fill="#000000" transform="matrix(1.00, 0.00, -0.00, -1.00, 280.1, 62.0)">e</text><text xml:space="preserve" font-family="Monaco" font-size="18.0" fill="#000000" transform="matrix(1.00, 0.00, -0.00, -1.00, 290.9, 62.0)">]</text><text xml:space="preserve" font-family="Monaco" font-size="18.0" fill="#000000" transform="matrix(1.00, 0.00, -0.00, -1.00, 301.7, 62.0)">)</text><text xml:space="preserve" font-family="Monaco" font-size="18.0" fill="#000000" transform="matrix(1.00, 0.00, -0.00, -1.00, 312.5, 62.0)">)</text><text xml:space="preserve" font-family="Monaco" font-size="18.0" fill="#000000" transform="matrix(1.00, 0.00, -0.00, -1.00, 323.3, 62.0)">;</text><text xml:space="preserve" font-family="Monaco" font-size="18.0" fill="#000000" transform="matrix(1.00, 0.00, -0.00, -1.00, 10.0, 37.0)"> </text><text xml:space="preserve" font-family="Monaco" font-size="18.0" fill="#000000" transform="matrix(1.00, 0.00, -0.00, -1.00, 20.8, 37.0)"> </text><text xml:space="preserve" font-family="Monaco" font-size="18.0" fill="#000000" transform="matrix(1.00, 0.00, -0.00, -1.00, 31.6, 37.0)">}</text></g></g></g></svg>