<?xml version="1.0" encoding="UTF-8" standalone="no"?><svg xmlns="http://www.w3.org/2000/svg" xmlns:xlink="http://www.w3.org/1999/xlink" clip-rule="evenodd" stroke-miterlimit="4.00" viewBox="0 0 421 264"><desc>SVG generated by Keynote</desc><defs></defs><g transform="matrix(1.00, 0.00, -0.00, -1.00, 0.0, 264.0)"><image xlink:href="32F943B031CA08B78DAA33D1FF3421AB.png" width="418.00" height="257.00" transform="matrix(1.00, 0.00, -0.00, -1.00, 1.0, 258.8)" opacity="0.50"></image><path d="M 365.8 256.1 L 347.8 231.6 L 14.0 231.6 C 9.0 231.6 5.0 227.6 5.0 222.6 L 5.0 16.9 C 5.0 11.9 9.0 7.9 14.0 7.9 L 406.4 7.9 C 411.3 7.9 415.4 11.9 415.4 16.9 L 415.4 222.6 C 415.4 227.6 411.3 231.6 406.4 231.6 L 383.7 231.6 L 365.8 256.1 Z M 365.8 256.1 " fill="#FEFFFF"></path><path d="M 360.8 -24.5 L 342.8 0.0 L 9.0 0.0 C 4.0 0.0 0.0 4.0 0.0 9.0 L 0.0 214.8 C 0.0 219.7 4.0 223.7 9.0 223.7 L 401.3 223.7 C 406.3 223.7 410.3 219.7 410.3 214.8 L 410.3 9.0 C 410.3 4.0 406.3 0.0 401.3 0.0 L 378.7 0.0 L 360.8 -24.5 Z M 360.8 -24.5 " fill="none" stroke="#000000" stroke-width="2.00" transform="matrix(1.00, 0.00, 0.00, -1.00, 5.0, 231.6)"></path><g><clipPath id="clip-196"><path d="M 4.4 7.9 L 416.0 7.9 L 416.0 232.3 L 4.4 232.3 Z M 4.4 7.9 "></path></clipPath><g clip-path="url(#clip-196)"><text xml:space="preserve" font-family="Monaco" font-size="18.0" fill="#000000" transform="matrix(1.00, 0.00, -0.00, -1.00, 14.0, 208.0)"> </text><text xml:space="preserve" font-family="Monaco" font-size="18.0" fill="#000000" transform="matrix(1.00, 0.00, -0.00, -1.00, 24.8, 208.0)"> </text><text xml:space="preserve" font-family="Monaco" font-size="18.0" fill="#000000" transform="matrix(1.00, 0.00, -0.00, -1.00, 35.6, 208.0)"> </text><text xml:space="preserve" font-family="Monaco" font-size="18.0" fill="#000000" transform="matrix(1.00, 0.00, -0.00, -1.00, 10.0, 183.0)"> </text><text xml:space="preserve" font-family="Monaco" font-size="18.0" fill="#000000" transform="matrix(1.00, 0.00, -0.00, -1.00, 20.8, 183.0)"> </text><text xml:space="preserve" font-family="Monaco" font-size="18.0" fill="#000000" transform="matrix(1.00, 0.00, -0.00, -1.00, 31.6, 183.0)">f</text><text xml:space="preserve" font-family="Monaco" font-size="18.0" fill="#000000" transform="matrix(1.00, 0.00, -0.00, -1.00, 42.4, 183.0)">o</text><text xml:space="preserve" font-family="Monaco" font-size="18.0" fill="#000000" transform="matrix(1.00, 0.00, -0.00, -1.00, 53.2, 183.0)">r</text><text xml:space="preserve" font-family="Monaco" font-size="18.0" fill="#000000" transform="matrix(1.00, 0.00, -0.00, -1.00, 64.0, 183.0)"> </text><text xml:space="preserve" font-family="Monaco" font-size="18.0" fill="#000000" transform="matrix(1.00, 0.00, -0.00, -1.00, 74.8, 183.0)">(</text><text xml:space="preserve" font-family="Monaco" font-size="18.0" fill="#000000" transform="matrix(1.00, 0.00, -0.00, -1.00, 85.6, 183.0)">n</text><text xml:space="preserve" font-family="Monaco" font-size="18.0" fill="#000000" transform="matrix(1.00, 0.00, -0.00, -1.00, 96.4, 183.0)">o</text><text xml:space="preserve" font-family="Monaco" font-size="18.0" fill="#000000" transform="matrix(1.00, 0.00, -0.00, -1.00, 107.2, 183.0)">d</text><text xml:space="preserve" font-family="Monaco" font-size="18.0" fill="#000000" transform="matrix(1.00, 0.00, -0.00, -1.00, 118.0, 183.0)">e</text><text xml:space="preserve" font-family="Monaco" font-size="18.0" fill="#000000" transform="matrix(1.00, 0.00, -0.00, -1.00, 128.8, 183.0)">,</text><text xml:space="preserve" font-family="Monaco" font-size="18.0" fill="#000000" transform="matrix(1.00, 0.00, -0.00, -1.00, 139.6, 183.0)"> </text><text xml:space="preserve" font-family="Monaco" font-size="18.0" fill="#000000" transform="matrix(1.00, 0.00, -0.00, -1.00, 150.4, 183.0)">r</text><text xml:space="preserve" font-family="Monaco" font-size="18.0" fill="#000000" transform="matrix(1.00, 0.00, -0.00, -1.00, 161.2, 183.0)">a</text><text xml:space="preserve" font-family="Monaco" font-size="18.0" fill="#000000" transform="matrix(1.00, 0.00, -0.00, -1.00, 172.1, 183.0)">n</text><text xml:space="preserve" font-family="Monaco" font-size="18.0" fill="#000000" transform="matrix(1.00, 0.00, -0.00, -1.00, 182.9, 183.0)">k</text><text xml:space="preserve" font-family="Monaco" font-size="18.0" fill="#000000" transform="matrix(1.00, 0.00, -0.00, -1.00, 193.7, 183.0)">)</text><text xml:space="preserve" font-family="Monaco" font-size="18.0" fill="#000000" transform="matrix(1.00, 0.00, -0.00, -1.00, 204.5, 183.0)"> </text><text xml:space="preserve" font-family="Monaco" font-size="18.0" fill="#000000" transform="matrix(1.00, 0.00, -0.00, -1.00, 215.3, 183.0)">i</text><text xml:space="preserve" font-family="Monaco" font-size="18.0" fill="#000000" transform="matrix(1.00, 0.00, -0.00, -1.00, 226.1, 183.0)">n</text><text xml:space="preserve" font-family="Monaco" font-size="18.0" fill="#000000" transform="matrix(1.00, 0.00, -0.00, -1.00, 236.9, 183.0)"> </text><text xml:space="preserve" font-family="Monaco" font-size="18.0" fill="#000000" transform="matrix(1.00, 0.00, -0.00, -1.00, 247.7, 183.0)">i</text><text xml:space="preserve" font-family="Monaco" font-size="18.0" fill="#000000" transform="matrix(1.00, 0.00, -0.00, -1.00, 258.5, 183.0)">n</text><text xml:space="preserve" font-family="Monaco" font-size="18.0" fill="#000000" transform="matrix(1.00, 0.00, -0.00, -1.00, 269.3, 183.0)">p</text><text xml:space="preserve" font-family="Monaco" font-size="18.0" fill="#000000" transform="matrix(1.00, 0.00, -0.00, -1.00, 280.1, 183.0)">u</text><text xml:space="preserve" font-family="Monaco" font-size="18.0" fill="#000000" transform="matrix(1.00, 0.00, -0.00, -1.00, 290.9, 183.0)">t</text><text xml:space="preserve" font-family="Monaco" font-size="18.0" fill="#000000" transform="matrix(1.00, 0.00, -0.00, -1.00, 301.7, 183.0)"> </text><text xml:space="preserve" font-family="Monaco" font-size="18.0" fill="#000000" transform="matrix(1.00, 0.00, -0.00, -1.00, 312.5, 183.0)">{</text><text xml:space="preserve" font-family="Monaco" font-size="18.0" fill="#000000" transform="matrix(1.00, 0.00, -0.00, -1.00, 10.0, 158.0)"> </text><text xml:space="preserve" font-family="Monaco" font-size="18.0" fill="#000000" transform="matrix(1.00, 0.00, -0.00, -1.00, 20.8, 158.0)"> </text><text xml:space="preserve" font-family="Monaco" font-size="18.0" fill="#000000" transform="matrix(1.00, 0.00, -0.00, -1.00, 31.6, 158.0)"> </text><text xml:space="preserve" font-family="Monaco" font-size="18.0" fill="#000000" transform="matrix(1.00, 0.00, -0.00, -1.00, 42.4, 158.0)"> </text><text xml:space="preserve" font-family="Monaco" font-size="18.0" fill="#000000" transform="matrix(1.00, 0.00, -0.00, -1.00, 53.2, 158.0)">l</text><text xml:space="preserve" font-family="Monaco" font-size="18.0" fill="#000000" transform="matrix(1.00, 0.00, -0.00, -1.00, 64.0, 158.0)">e</text><text xml:space="preserve" font-family="Monaco" font-size="18.0" fill="#000000" transform="matrix(1.00, 0.00, -0.00, -1.00, 74.8, 158.0)">t</text><text xml:space="preserve" font-family="Monaco" font-size="18.0" fill="#000000" transform="matrix(1.00, 0.00, -0.00, -1.00, 85.6, 158.0)"> </text><text xml:space="preserve" font-family="Monaco" font-size="18.0" fill="#000000" transform="matrix(1.00, 0.00, -0.00, -1.00, 96.4, 158.0)">d</text><text xml:space="preserve" font-family="Monaco" font-size="18.0" fill="#000000" transform="matrix(1.00, 0.00, -0.00, -1.00, 107.2, 158.0)">e</text><text xml:space="preserve" font-family="Monaco" font-size="18.0" fill="#000000" transform="matrix(1.00, 0.00, -0.00, -1.00, 118.0, 158.0)">g</text><text xml:space="preserve" font-family="Monaco" font-size="18.0" fill="#000000" transform="matrix(1.00, 0.00, -0.00, -1.00, 128.8, 158.0)">r</text><text xml:space="preserve" font-family="Monaco" font-size="18.0" fill="#000000" transform="matrix(1.00, 0.00, -0.00, -1.00, 139.6, 158.0)"> </text><text xml:space="preserve" font-family="Monaco" font-size="18.0" fill="#000000" transform="matrix(1.00, 0.00, -0.00, -1.00, 150.4, 158.0)">=</text><text xml:space="preserve" font-family="Monaco" font-size="18.0" fill="#000000" transform="matrix(1.00, 0.00, -0.00, -1.00, 161.2, 158.0)"> </text><text xml:space="preserve" font-family="Monaco" font-size="18.0" fill="#000000" transform="matrix(1.00, 0.00, -0.00, -1.00, 172.1, 158.0)">g</text><text xml:space="preserve" font-family="Monaco" font-size="18.0" fill="#000000" transform="matrix(1.00, 0.00, -0.00, -1.00, 182.9, 158.0)">r</text><text xml:space="preserve" font-family="Monaco" font-size="18.0" fill="#000000" transform="matrix(1.00, 0.00, -0.00, -1.00, 193.7, 158.0)">a</text><text xml:space="preserve" font-family="Monaco" font-size="18.0" fill="#000000" transform="matrix(1.00, 0.00, -0.00, -1.00, 204.5, 158.0)">p</text><text xml:space="preserve" font-family="Monaco" font-size="18.0" fill="#000000" transform="matrix(1.00, 0.00, -0.00, -1.00, 215.3, 158.0)">h</text><text xml:space="preserve" font-family="Monaco" font-size="18.0" fill="#000000" transform="matrix(1.00, 0.00, -0.00, -1.00, 226.1, 158.0)">.</text><text xml:space="preserve" font-family="Monaco" font-size="18.0" fill="#000000" transform="matrix(1.00, 0.00, -0.00, -1.00, 236.9, 158.0)">d</text><text xml:space="preserve" font-family="Monaco" font-size="18.0" fill="#000000" transform="matrix(1.00, 0.00, -0.00, -1.00, 247.7, 158.0)">e</text><text xml:space="preserve" font-family="Monaco" font-size="18.0" fill="#000000" transform="matrix(1.00, 0.00, -0.00, -1.00, 258.5, 158.0)">g</text><text xml:space="preserve" font-family="Monaco" font-size="18.0" fill="#000000" transform="matrix(1.00, 0.00, -0.00, -1.00, 269.3, 158.0)">r</text><text xml:space="preserve" font-family="Monaco" font-size="18.0" fill="#000000" transform="matrix(1.00, 0.00, -0.00, -1.00, 280.1, 158.0)">(</text><text xml:space="preserve" font-family="Monaco" font-size="18.0" fill="#000000" transform="matrix(1.00, 0.00, -0.00, -1.00, 290.9, 158.0)">n</text><text xml:space="preserve" font-family="Monaco" font-size="18.0" fill="#000000" transform="matrix(1.00, 0.00, -0.00, -1.00, 301.7, 158.0)">o</text><text xml:space="preserve" font-family="Monaco" font-size="18.0" fill="#000000" transform="matrix(1.00, 0.00, -0.00, -1.00, 312.5, 158.0)">d</text><text xml:space="preserve" font-family="Monaco" font-size="18.0" fill="#000000" transform="matrix(1.00, 0.00, -0.00, -1.00, 323.3, 158.0)">e</text><text xml:space="preserve" font-family="Monaco" font-size="18.0" fill="#000000" transform="matrix(1.00, 0.00, -0.00, -1.00, 334.1, 158.0)">)</text><text xml:space="preserve" font-family="Monaco" font-size="18.0" fill="#000000" transform="matrix(1.00, 0.00, -0.00, -1.00, 344.9, 158.0)">;</text><text xml:space="preserve" font-family="Monaco" font-size="18.0" fill="#000000" transform="matrix(1.00, 0.00, -0.00, -1.00, 10.0, 133.0)"> </text><text xml:space="preserve" font-family="Monaco" font-size="18.0" fill="#000000" transform="matrix(1.00, 0.00, -0.00, -1.00, 20.8, 133.0)"> </text><text xml:space="preserve" font-family="Monaco" font-size="18.0" fill="#000000" transform="matrix(1.00, 0.00, -0.00, -1.00, 31.6, 133.0)"> </text><text xml:space="preserve" font-family="Monaco" font-size="18.0" fill="#000000" transform="matrix(1.00, 0.00, -0.00, -1.00, 42.4, 133.0)"> </text><text xml:space="preserve" font-family="Monaco" font-size="18.0" fill="#000000" transform="matrix(1.00, 0.00, -0.00, -1.00, 53.2, 133.0)">f</text><text xml:space="preserve" font-family="Monaco" font-size="18.0" fill="#000000" transform="matrix(1.00, 0.00, -0.00, -1.00, 64.0, 133.0)">o</text><text xml:space="preserve" font-family="Monaco" font-size="18.0" fill="#000000" transform="matrix(1.00, 0.00, -0.00, -1.00, 74.8, 133.0)">r</text><text xml:space="preserve" font-family="Monaco" font-size="18.0" fill="#000000" transform="matrix(1.00, 0.00, -0.00, -1.00, 85.6, 133.0)"> </text><text xml:space="preserve" font-family="Monaco" font-size="18.0" fill="#000000" transform="matrix(1.00, 0.00, -0.00, -1.00, 96.4, 133.0)">e</text><text xml:space="preserve" font-family="Monaco" font-size="18.0" fill="#000000" transform="matrix(1.00, 0.00, -0.00, -1.00, 107.2, 133.0)">d</text><text xml:space="preserve" font-family="Monaco" font-size="18.0" fill="#000000" transform="matrix(1.00, 0.00, -0.00, -1.00, 118.0, 133.0)">g</text><text xml:space="preserve" font-family="Monaco" font-size="18.0" fill="#000000" transform="matrix(1.00, 0.00, -0.00, -1.00, 128.8, 133.0)">e</text><text xml:space="preserve" font-family="Monaco" font-size="18.0" fill="#000000" transform="matrix(1.00, 0.00, -0.00, -1.00, 139.6, 133.0)"> </text><text xml:space="preserve" font-family="Monaco" font-size="18.0" fill="#000000" transform="matrix(1.00, 0.00, -0.00, -1.00, 150.4, 133.0)">i</text><text xml:space="preserve" font-family="Monaco" font-size="18.0" fill="#000000" transform="matrix(1.00, 0.00, -0.00, -1.00, 161.2, 133.0)">n</text><text xml:space="preserve" font-family="Monaco" font-size="18.0" fill="#000000" transform="matrix(1.00, 0.00, -0.00, -1.00, 172.1, 133.0)"> </text><text xml:space="preserve" font-family="Monaco" font-size="18.0" fill="#000000" transform="matrix(1.00, 0.00, -0.00, -1.00, 182.9, 133.0)">g</text><text xml:space="preserve" font-family="Monaco" font-size="18.0" fill="#000000" transform="matrix(1.00, 0.00, -0.00, -1.00, 193.7, 133.0)">r</text><text xml:space="preserve" font-family="Monaco" font-size="18.0" fill="#000000" transform="matrix(1.00, 0.00, -0.00, -1.00, 204.5, 133.0)">a</text><text xml:space="preserve" font-family="Monaco" font-size="18.0" fill="#000000" transform="matrix(1.00, 0.00, -0.00, -1.00, 215.3, 133.0)">p</text><text xml:space="preserve" font-family="Monaco" font-size="18.0" fill="#000000" transform="matrix(1.00, 0.00, -0.00, -1.00, 226.1, 133.0)">h</text><text xml:space="preserve" font-family="Monaco" font-size="18.0" fill="#000000" transform="matrix(1.00, 0.00, -0.00, -1.00, 236.9, 133.0)">.</text><text xml:space="preserve" font-family="Monaco" font-size="18.0" fill="#000000" transform="matrix(1.00, 0.00, -0.00, -1.00, 247.7, 133.0)">e</text><text xml:space="preserve" font-family="Monaco" font-size="18.0" fill="#000000" transform="matrix(1.00, 0.00, -0.00, -1.00, 258.5, 133.0)">d</text><text xml:space="preserve" font-family="Monaco" font-size="18.0" fill="#000000" transform="matrix(1.00, 0.00, -0.00, -1.00, 269.3, 133.0)">g</text><text xml:space="preserve" font-family="Monaco" font-size="18.0" fill="#000000" transform="matrix(1.00, 0.00, -0.00, -1.00, 280.1, 133.0)">e</text><text xml:space="preserve" font-family="Monaco" font-size="18.0" fill="#000000" transform="matrix(1.00, 0.00, -0.00, -1.00, 290.9, 133.0)">s</text><text xml:space="preserve" font-family="Monaco" font-size="18.0" fill="#000000" transform="matrix(1.00, 0.00, -0.00, -1.00, 301.7, 133.0)">(</text><text xml:space="preserve" font-family="Monaco" font-size="18.0" fill="#000000" transform="matrix(1.00, 0.00, -0.00, -1.00, 312.5, 133.0)">n</text><text xml:space="preserve" font-family="Monaco" font-size="18.0" fill="#000000" transform="matrix(1.00, 0.00, -0.00, -1.00, 323.3, 133.0)">o</text><text xml:space="preserve" font-family="Monaco" font-size="18.0" fill="#000000" transform="matrix(1.00, 0.00, -0.00, -1.00, 334.1, 133.0)">d</text><text xml:space="preserve" font-family="Monaco" font-size="18.0" fill="#000000" transform="matrix(1.00, 0.00, -0.00, -1.00, 344.9, 133.0)">e</text><text xml:space="preserve" font-family="Monaco" font-size="18.0" fill="#000000" transform="matrix(1.00, 0.00, -0.00, -1.00, 355.7, 133.0)">)</text><text xml:space="preserve" font-family="Monaco" font-size="18.0" fill="#000000" transform="matrix(1.00, 0.00, -0.00, -1.00, 366.5, 133.0)"> </text><text xml:space="preserve" font-family="Monaco" font-size="18.0" fill="#000000" transform="matrix(1.00, 0.00, -0.00, -1.00, 377.3, 133.0)">{</text><text xml:space="preserve" font-family="Monaco" font-size="18.0" fill="#000000" transform="matrix(1.00, 0.00, -0.00, -1.00, 10.0, 108.0)"> </text><text xml:space="preserve" font-family="Monaco" font-size="18.0" fill="#000000" transform="matrix(1.00, 0.00, -0.00, -1.00, 20.8, 108.0)"> </text><text xml:space="preserve" font-family="Monaco" font-size="18.0" fill="#000000" transform="matrix(1.00, 0.00, -0.00, -1.00, 31.6, 108.0)"> </text><text xml:space="preserve" font-family="Monaco" font-size="18.0" fill="#000000" transform="matrix(1.00, 0.00, -0.00, -1.00, 42.4, 108.0)"> </text><text xml:space="preserve" font-family="Monaco" font-size="18.0" fill="#000000" transform="matrix(1.00, 0.00, -0.00, -1.00, 53.2, 108.0)"> </text><text xml:space="preserve" font-family="Monaco" font-size="18.0" fill="#000000" transform="matrix(1.00, 0.00, -0.00, -1.00, 64.0, 108.0)"> </text><text xml:space="preserve" font-family="Monaco" font-size="18.0" fill="#000000" transform="matrix(1.00, 0.00, -0.00, -1.00, 74.8, 108.0)">o</text><text xml:space="preserve" font-family="Monaco" font-size="18.0" fill="#000000" transform="matrix(1.00, 0.00, -0.00, -1.00, 85.6, 108.0)">u</text><text xml:space="preserve" font-family="Monaco" font-size="18.0" fill="#000000" transform="matrix(1.00, 0.00, -0.00, -1.00, 96.4, 108.0)">t</text><text xml:space="preserve" font-family="Monaco" font-size="18.0" fill="#000000" transform="matrix(1.00, 0.00, -0.00, -1.00, 107.2, 108.0)">p</text><text xml:space="preserve" font-family="Monaco" font-size="18.0" fill="#000000" transform="matrix(1.00, 0.00, -0.00, -1.00, 118.0, 108.0)">u</text><text xml:space="preserve" font-family="Monaco" font-size="18.0" fill="#000000" transform="matrix(1.00, 0.00, -0.00, -1.00, 128.8, 108.0)">t</text><text xml:space="preserve" font-family="Monaco" font-size="18.0" fill="#000000" transform="matrix(1.00, 0.00, -0.00, -1.00, 139.6, 108.0)">(</text><text xml:space="preserve" font-family="Monaco" font-size="18.0" fill="#000000" transform="matrix(1.00, 0.00, -0.00, -1.00, 150.4, 108.0)">(</text><text xml:space="preserve" font-family="Monaco" font-size="18.0" fill="#000000" transform="matrix(1.00, 0.00, -0.00, -1.00, 161.2, 108.0)">e</text><text xml:space="preserve" font-family="Monaco" font-size="18.0" fill="#000000" transform="matrix(1.00, 0.00, -0.00, -1.00, 172.1, 108.0)">d</text><text xml:space="preserve" font-family="Monaco" font-size="18.0" fill="#000000" transform="matrix(1.00, 0.00, -0.00, -1.00, 182.9, 108.0)">g</text><text xml:space="preserve" font-family="Monaco" font-size="18.0" fill="#000000" transform="matrix(1.00, 0.00, -0.00, -1.00, 193.7, 108.0)">e</text><text xml:space="preserve" font-family="Monaco" font-size="18.0" fill="#000000" transform="matrix(1.00, 0.00, -0.00, -1.00, 204.5, 108.0)">,</text><text xml:space="preserve" font-family="Monaco" font-size="18.0" fill="#000000" transform="matrix(1.00, 0.00, -0.00, -1.00, 215.3, 108.0)"> </text><text xml:space="preserve" font-family="Monaco" font-size="18.0" fill="#000000" transform="matrix(1.00, 0.00, -0.00, -1.00, 226.1, 108.0)">r</text><text xml:space="preserve" font-family="Monaco" font-size="18.0" fill="#000000" transform="matrix(1.00, 0.00, -0.00, -1.00, 236.9, 108.0)">a</text><text xml:space="preserve" font-family="Monaco" font-size="18.0" fill="#000000" transform="matrix(1.00, 0.00, -0.00, -1.00, 247.7, 108.0)">n</text><text xml:space="preserve" font-family="Monaco" font-size="18.0" fill="#000000" transform="matrix(1.00, 0.00, -0.00, -1.00, 258.5, 108.0)">k</text><text xml:space="preserve" font-family="Monaco" font-size="18.0" fill="#000000" transform="matrix(1.00, 0.00, -0.00, -1.00, 269.3, 108.0)">/</text><text xml:space="preserve" font-family="Monaco" font-size="18.0" fill="#000000" transform="matrix(1.00, 0.00, -0.00, -1.00, 280.1, 108.0)">d</text><text xml:space="preserve" font-family="Monaco" font-size="18.0" fill="#000000" transform="matrix(1.00, 0.00, -0.00, -1.00, 290.9, 108.0)">e</text><text xml:space="preserve" font-family="Monaco" font-size="18.0" fill="#000000" transform="matrix(1.00, 0.00, -0.00, -1.00, 301.7, 108.0)">g</text><text xml:space="preserve" font-family="Monaco" font-size="18.0" fill="#000000" transform="matrix(1.00, 0.00, -0.00, -1.00, 312.5, 108.0)">r</text><text xml:space="preserve" font-family="Monaco" font-size="18.0" fill="#000000" transform="matrix(1.00, 0.00, -0.00, -1.00, 323.3, 108.0)">)</text><text xml:space="preserve" font-family="Monaco" font-size="18.0" fill="#000000" transform="matrix(1.00, 0.00, -0.00, -1.00, 334.1, 108.0)">)</text><text xml:space="preserve" font-family="Monaco" font-size="18.0" fill="#000000" transform="matrix(1.00, 0.00, -0.00, -1.00, 344.9, 108.0)">;</text><text xml:space="preserve" font-family="Monaco" font-size="18.0" fill="#000000" transform="matrix(1.00, 0.00, -0.00, -1.00, 355.7, 108.0)"> </text><text xml:space="preserve" font-family="Monaco" font-size="18.0" fill="#000000" transform="matrix(1.00, 0.00, -0.00, -1.00, 366.5, 108.0)"> </text><text xml:space="preserve" font-family="Monaco" font-size="18.0" fill="#000000" transform="matrix(1.00, 0.00, -0.00, -1.00, 377.3, 108.0)"> </text><text xml:space="preserve" font-family="Monaco" font-size="18.0" fill="#000000" transform="matrix(1.00, 0.00, -0.00, -1.00, 388.1, 108.0)"> </text><text xml:space="preserve" font-family="Monaco" font-size="18.0" fill="#000000" transform="matrix(1.00, 0.00, -0.00, -1.00, 10.0, 83.0)"> </text><text xml:space="preserve" font-family="Monaco" font-size="18.0" fill="#000000" transform="matrix(1.00, 0.00, -0.00, -1.00, 20.8, 83.0)"> </text><text xml:space="preserve" font-family="Monaco" font-size="18.0" fill="#000000" transform="matrix(1.00, 0.00, -0.00, -1.00, 31.6, 83.0)"> </text><text xml:space="preserve" font-family="Monaco" font-size="18.0" fill="#000000" transform="matrix(1.00, 0.00, -0.00, -1.00, 42.4, 83.0)"> </text><text xml:space="preserve" font-family="Monaco" font-size="18.0" fill="#000000" transform="matrix(1.00, 0.00, -0.00, -1.00, 53.2, 83.0)">}</text><text xml:space="preserve" font-family="Monaco" font-size="18.0" fill="#000000" transform="matrix(1.00, 0.00, -0.00, -1.00, 10.0, 58.0)"> </text><text xml:space="preserve" font-family="Monaco" font-size="18.0" fill="#000000" transform="matrix(1.00, 0.00, -0.00, -1.00, 20.8, 58.0)"> </text><text xml:space="preserve" font-family="Monaco" font-size="18.0" fill="#000000" transform="matrix(1.00, 0.00, -0.00, -1.00, 31.6, 58.0)">}</text></g></g></g></svg>