<?xml version="1.0" encoding="UTF-8" standalone="no"?><svg xmlns="http://www.w3.org/2000/svg" xmlns:xlink="http://www.w3.org/1999/xlink" clip-rule="evenodd" stroke-miterlimit="10" viewBox="0 0 108 22"><desc>SVG generated by Keynote</desc><defs></defs><g transform="matrix(1.00, 0.00, -0.00, -1.00, 0.0, 22.0)"><text xml:space="preserve" font-family="Monaco,Monaco" font-size="18.0" fill="#002451" transform="matrix(1.00, 0.00, -0.00, -1.00, 0.0, 5.7)">d</text><text xml:space="preserve" font-family="Monaco,Monaco" font-size="18.0" fill="#002451" transform="matrix(1.00, 0.00, -0.00, -1.00, 10.8, 5.7)">a</text><text xml:space="preserve" font-family="Monaco,Monaco" font-size="18.0" fill="#002451" transform="matrix(1.00, 0.00, -0.00, -1.00, 21.6, 5.7)">t</text><text xml:space="preserve" font-family="Monaco,Monaco" font-size="18.0" fill="#002451" transform="matrix(1.00, 0.00, -0.00, -1.00, 32.4, 5.7)">a</text><text xml:space="preserve" font-family="Monaco,Monaco" font-size="18.0" fill="#002451" transform="matrix(1.00, 0.00, -0.00, -1.00, 43.2, 5.7)">,</text><text xml:space="preserve" font-family="Monaco,Monaco" font-size="18.0" fill="#002451" transform="matrix(1.00, 0.00, -0.00, -1.00, 54.0, 5.7)"> </text><text xml:space="preserve" font-family="Monaco,Monaco" font-size="18.0" fill="#002451" transform="matrix(1.00, 0.00, -0.00, -1.00, 64.8, 5.7)">i</text><text xml:space="preserve" font-family="Monaco,Monaco" font-size="18.0" fill="#002451" transform="matrix(1.00, 0.00, -0.00, -1.00, 75.6, 5.7)">t</text><text xml:space="preserve" font-family="Monaco,Monaco" font-size="18.0" fill="#002451" transform="matrix(1.00, 0.00, -0.00, -1.00, 86.4, 5.7)">e</text><text xml:space="preserve" font-family="Monaco,Monaco" font-size="18.0" fill="#002451" transform="matrix(1.00, 0.00, -0.00, -1.00, 97.2, 5.7)">r</text></g></svg>