<?xml version="1.0" encoding="UTF-8" standalone="no"?><svg xmlns="http://www.w3.org/2000/svg" xmlns:xlink="http://www.w3.org/1999/xlink" clip-rule="evenodd" stroke-miterlimit="10" viewBox="0 0 444 22"><desc>SVG generated by Keynote</desc><defs></defs><g transform="matrix(1.00, 0.00, -0.00, -1.00, 0.0, 22.0)"><text xml:space="preserve" font-family="Monaco,Monaco" font-size="18.0" fill="#002451" transform="matrix(1.00, 0.00, -0.00, -1.00, 0.0, 5.7)">N</text><text xml:space="preserve" font-family="Monaco,Monaco" font-size="18.0" fill="#002451" transform="matrix(1.00, 0.00, -0.00, -1.00, 10.8, 5.7)">o</text><text xml:space="preserve" font-family="Monaco,Monaco" font-size="18.0" fill="#002451" transform="matrix(1.00, 0.00, -0.00, -1.00, 21.6, 5.7)">t</text><text xml:space="preserve" font-family="Monaco,Monaco" font-size="18.0" fill="#002451" transform="matrix(1.00, 0.00, -0.00, -1.00, 32.4, 5.7)">i</text><text xml:space="preserve" font-family="Monaco,Monaco" font-size="18.0" fill="#002451" transform="matrix(1.00, 0.00, -0.00, -1.00, 43.2, 5.7)">f</text><text xml:space="preserve" font-family="Monaco,Monaco" font-size="18.0" fill="#002451" transform="matrix(1.00, 0.00, -0.00, -1.00, 54.0, 5.7)">y</text><text xml:space="preserve" font-family="Monaco,Monaco" font-size="18.0" fill="#002451" transform="matrix(1.00, 0.00, -0.00, -1.00, 64.8, 5.7)">(</text><text xml:space="preserve" font-family="Monaco,Monaco" font-size="18.0" fill="#002451" transform="matrix(1.00, 0.00, -0.00, -1.00, 75.6, 5.7)">i</text><text xml:space="preserve" font-family="Monaco,Monaco" font-size="18.0" fill="#002451" transform="matrix(1.00, 0.00, -0.00, -1.00, 86.4, 5.7)">t</text><text xml:space="preserve" font-family="Monaco,Monaco" font-size="18.0" fill="#002451" transform="matrix(1.00, 0.00, -0.00, -1.00, 97.2, 5.7)">e</text><text xml:space="preserve" font-family="Monaco,Monaco" font-size="18.0" fill="#002451" transform="matrix(1.00, 0.00, -0.00, -1.00, 108.0, 5.7)">r</text><text xml:space="preserve" font-family="Monaco,Monaco" font-size="18.0" fill="#002451" transform="matrix(1.00, 0.00, -0.00, -1.00, 118.8, 5.7)">)</text><text xml:space="preserve" font-family="Monaco,Monaco" font-size="18.0" fill="#002451" transform="matrix(1.00, 0.00, -0.00, -1.00, 129.6, 5.7)">:</text><text xml:space="preserve" font-family="Monaco,Monaco" font-size="18.0" fill="#002451" transform="matrix(1.00, 0.00, -0.00, -1.00, 140.4, 5.7)"> </text><text xml:space="preserve" font-family="Monaco,Monaco" font-size="18.0" fill="#002451" transform="matrix(1.00, 0.00, -0.00, -1.00, 151.2, 5.7)"> </text><text xml:space="preserve" font-family="Monaco,Monaco" font-size="18.0" fill="#002451" transform="matrix(1.00, 0.00, -0.00, -1.00, 162.1, 5.7)"> </text><text xml:space="preserve" font-family="Monaco,Monaco" font-size="18.0" fill="#002451" transform="matrix(1.00, 0.00, -0.00, -1.00, 172.9, 5.7)"> </text><text xml:space="preserve" font-family="Monaco,Monaco" font-size="18.0" fill="#002451" transform="matrix(1.00, 0.00, -0.00, -1.00, 183.7, 5.7)"> </text><text xml:space="preserve" font-family="Monaco,Monaco" font-size="18.0" fill="#002451" transform="matrix(1.00, 0.00, -0.00, -1.00, 194.5, 5.7)"> </text><text xml:space="preserve" font-family="Monaco,Monaco" font-size="18.0" fill="#002451" transform="matrix(1.00, 0.00, -0.00, -1.00, 205.3, 5.7)"> </text><text xml:space="preserve" font-family="Monaco,Monaco" font-size="18.0" fill="#00872A" transform="matrix(1.00, 0.00, -0.00, -1.00, 216.0, 5.7)">/</text><text xml:space="preserve" font-family="Monaco,Monaco" font-size="18.0" fill="#00872A" transform="matrix(1.00, 0.00, -0.00, -1.00, 226.8, 5.7)">*</text><text xml:space="preserve" font-family="Monaco,Monaco" font-size="18.0" fill="#00872A" transform="matrix(1.00, 0.00, -0.00, -1.00, 237.6, 5.7)"> </text><text xml:space="preserve" font-family="Monaco,Monaco" font-size="18.0" fill="#00872A" transform="matrix(1.00, 0.00, -0.00, -1.00, 248.4, 5.7)">y</text><text xml:space="preserve" font-family="Monaco,Monaco" font-size="18.0" fill="#00872A" transform="matrix(1.00, 0.00, -0.00, -1.00, 259.2, 5.7)">o</text><text xml:space="preserve" font-family="Monaco,Monaco" font-size="18.0" fill="#00872A" transform="matrix(1.00, 0.00, -0.00, -1.00, 270.1, 5.7)">u</text><text xml:space="preserve" font-family="Monaco,Monaco" font-size="18.0" fill="#00872A" transform="matrix(1.00, 0.00, -0.00, -1.00, 280.9, 5.7)">r</text><text xml:space="preserve" font-family="Monaco,Monaco" font-size="18.0" fill="#00872A" transform="matrix(1.00, 0.00, -0.00, -1.00, 291.7, 5.7)"> </text><text xml:space="preserve" font-family="Monaco,Monaco" font-size="18.0" fill="#00872A" transform="matrix(1.00, 0.00, -0.00, -1.00, 302.5, 5.7)">c</text><text xml:space="preserve" font-family="Monaco,Monaco" font-size="18.0" fill="#00872A" transform="matrix(1.00, 0.00, -0.00, -1.00, 313.3, 5.7)">o</text><text xml:space="preserve" font-family="Monaco,Monaco" font-size="18.0" fill="#00872A" transform="matrix(1.00, 0.00, -0.00, -1.00, 324.1, 5.7)">d</text><text xml:space="preserve" font-family="Monaco,Monaco" font-size="18.0" fill="#00872A" transform="matrix(1.00, 0.00, -0.00, -1.00, 334.9, 5.7)">e</text><text xml:space="preserve" font-family="Monaco,Monaco" font-size="18.0" fill="#00872A" transform="matrix(1.00, 0.00, -0.00, -1.00, 345.7, 5.7)"> </text><text xml:space="preserve" font-family="Monaco,Monaco" font-size="18.0" fill="#00872A" transform="matrix(1.00, 0.00, -0.00, -1.00, 356.5, 5.7)">h</text><text xml:space="preserve" font-family="Monaco,Monaco" font-size="18.0" fill="#00872A" transform="matrix(1.00, 0.00, -0.00, -1.00, 367.3, 5.7)">e</text><text xml:space="preserve" font-family="Monaco,Monaco" font-size="18.0" fill="#00872A" transform="matrix(1.00, 0.00, -0.00, -1.00, 378.1, 5.7)">r</text><text xml:space="preserve" font-family="Monaco,Monaco" font-size="18.0" fill="#00872A" transform="matrix(1.00, 0.00, -0.00, -1.00, 388.9, 5.7)">e</text><text xml:space="preserve" font-family="Monaco,Monaco" font-size="18.0" fill="#00872A" transform="matrix(1.00, 0.00, -0.00, -1.00, 399.7, 5.7)"> </text><text xml:space="preserve" font-family="Monaco,Monaco" font-size="18.0" fill="#00872A" transform="matrix(1.00, 0.00, -0.00, -1.00, 410.5, 5.7)"> </text><text xml:space="preserve" font-family="Monaco,Monaco" font-size="18.0" fill="#00872A" transform="matrix(1.00, 0.00, -0.00, -1.00, 421.3, 5.7)">*</text><text xml:space="preserve" font-family="Monaco,Monaco" font-size="18.0" fill="#00872A" transform="matrix(1.00, 0.00, -0.00, -1.00, 432.1, 5.7)">/</text></g></svg>