<?xml version="1.0" encoding="UTF-8" standalone="no"?><svg xmlns="http://www.w3.org/2000/svg" xmlns:xlink="http://www.w3.org/1999/xlink" clip-rule="evenodd" stroke-miterlimit="10" viewBox="0 0 1024 768"><desc>SVG generated by Keynote</desc><defs></defs><g transform="matrix(1.00, 0.00, -0.00, -1.00, 0.0, 768.0)"><path d="M 0.0 768.0 L 1024.0 768.0 L 1024.0 0.0 L 0.0 0.0 Z M 0.0 768.0 " fill="#FEFFFF"></path><g><clipPath id="clip0x7fd054bcce60"><path d="M 100.0 668.0 L 924.0 668.0 L 924.0 100.0 L 100.0 100.0 Z M 100.0 668.0 "></path></clipPath><g clip-path="url(#clip0x7fd054bcce60)"><path d="M 100.0 668.0 L 306.0 668.0 L 306.0 573.3 L 100.0 573.3 Z M 100.0 668.0 " fill="#0264C0"></path><path d="M 306.0 668.0 L 512.0 668.0 L 512.0 573.3 L 306.0 573.3 Z M 306.0 668.0 " fill="#0264C0"></path><path d="M 512.0 668.0 L 718.0 668.0 L 718.0 573.3 L 512.0 573.3 Z M 512.0 668.0 " fill="#0264C0"></path><path d="M 718.0 668.0 L 924.0 668.0 L 924.0 573.3 L 718.0 573.3 Z M 718.0 668.0 " fill="#0264C0"></path><path d="M 100.0 573.3 L 306.0 573.3 L 306.0 478.7 L 100.0 478.7 Z M 100.0 573.3 " fill="#388CCE"></path><path d="M 306.0 573.3 L 512.0 573.3 L 512.0 478.7 L 306.0 478.7 Z M 306.0 573.3 " fill="#FEFFFF"></path><path d="M 512.0 573.3 L 718.0 573.3 L 718.0 478.7 L 512.0 478.7 Z M 512.0 573.3 " fill="#FEFFFF"></path><path d="M 718.0 573.3 L 924.0 573.3 L 924.0 478.7 L 718.0 478.7 Z M 718.0 573.3 " fill="#FEFFFF"></path><path d="M 100.0 478.7 L 306.0 478.7 L 306.0 384.0 L 100.0 384.0 Z M 100.0 478.7 " fill="#388CCE"></path><path d="M 306.0 478.7 L 512.0 478.7 L 512.0 384.0 L 306.0 384.0 Z M 306.0 478.7 " fill="#E2E5E8"></path><path d="M 512.0 478.7 L 718.0 478.7 L 718.0 384.0 L 512.0 384.0 Z M 512.0 478.7 " fill="#E2E5E8"></path><path d="M 718.0 478.7 L 924.0 478.7 L 924.0 384.0 L 718.0 384.0 Z M 718.0 478.7 " fill="#E2E5E8"></path><path d="M 100.0 384.0 L 306.0 384.0 L 306.0 289.3 L 100.0 289.3 Z M 100.0 384.0 " fill="#388CCE"></path><path d="M 306.0 384.0 L 512.0 384.0 L 512.0 289.3 L 306.0 289.3 Z M 306.0 384.0 " fill="#FEFFFF"></path><path d="M 512.0 384.0 L 718.0 384.0 L 718.0 289.3 L 512.0 289.3 Z M 512.0 384.0 " fill="#FEFFFF"></path><path d="M 718.0 384.0 L 924.0 384.0 L 924.0 289.3 L 718.0 289.3 Z M 718.0 384.0 " fill="#FEFFFF"></path><path d="M 100.0 289.3 L 306.0 289.3 L 306.0 194.7 L 100.0 194.7 Z M 100.0 289.3 " fill="#388CCE"></path><path d="M 306.0 289.3 L 512.0 289.3 L 512.0 194.7 L 306.0 194.7 Z M 306.0 289.3 " fill="#E2E5E8"></path><path d="M 512.0 289.3 L 718.0 289.3 L 718.0 194.7 L 512.0 194.7 Z M 512.0 289.3 " fill="#E2E5E8"></path><path d="M 718.0 289.3 L 924.0 289.3 L 924.0 194.7 L 718.0 194.7 Z M 718.0 289.3 " fill="#E2E5E8"></path><path d="M 100.0 194.7 L 306.0 194.7 L 306.0 100.0 L 100.0 100.0 Z M 100.0 194.7 " fill="#FEFFFE"></path><path d="M 306.0 194.7 L 512.0 194.7 L 512.0 100.0 L 306.0 100.0 Z M 306.0 194.7 " fill="#FEFFFF"></path><path d="M 512.0 194.7 L 718.0 194.7 L 718.0 100.0 L 512.0 100.0 Z M 512.0 194.7 " fill="#FEFFFF"></path><path d="M 718.0 194.7 L 924.0 194.7 L 924.0 100.0 L 718.0 100.0 Z M 718.0 194.7 " fill="#FEFFFF"></path></g></g><g><clipPath id="clip0x7fd054bd9b50"><path d="M 100.0 668.0 L 924.0 668.0 L 924.0 100.0 L 100.0 100.0 Z M 100.0 668.0 "></path></clipPath><g clip-path="url(#clip0x7fd054bd9b50)"><g><clipPath id="clip0x7fd054bda340"><path d="M 100.0 573.8 L 306.0 573.8 L 306.0 668.0 L 100.0 668.0 Z M 100.0 573.8 "></path></clipPath><g clip-path="url(#clip0x7fd054bda340)"><text xml:space="preserve" font-family="Helvetica-Bold,Helvetica" font-weight="bold" font-size="31.2" fill="#FEFFFE" transform="matrix(1.00, 0.00, -0.00, -1.00, 155.3, 609.2)">2</text><text xml:space="preserve" font-family="Helvetica-Bold,Helvetica" font-weight="bold" font-size="31.2" fill="#FEFFFE" transform="matrix(1.00, 0.00, -0.00, -1.00, 172.7, 609.2)">0</text><text xml:space="preserve" font-family="Helvetica-Bold,Helvetica" font-weight="bold" font-size="31.2" fill="#FEFFFE" transform="matrix(1.00, 0.00, -0.00, -1.00, 190.0, 609.2)">x</text><text xml:space="preserve" font-family="Helvetica-Bold,Helvetica" font-weight="bold" font-size="31.2" fill="#FEFFFE" transform="matrix(1.00, 0.00, -0.00, -1.00, 207.4, 609.2)">P</text><text xml:space="preserve" font-family="Helvetica-Bold,Helvetica" font-weight="bold" font-size="31.2" fill="#FEFFFE" transform="matrix(1.00, 0.00, -0.00, -1.00, 228.2, 609.2)">R</text></g></g></g></g><g><clipPath id="clip0x7fd0545de070"><path d="M 100.0 668.0 L 924.0 668.0 L 924.0 100.0 L 100.0 100.0 Z M 100.0 668.0 "></path></clipPath><g clip-path="url(#clip0x7fd0545de070)"><g><clipPath id="clip0x7fd0545de810"><path d="M 306.0 573.8 L 512.0 573.8 L 512.0 668.0 L 306.0 668.0 Z M 306.0 573.8 "></path></clipPath><g clip-path="url(#clip0x7fd0545de810)"><text xml:space="preserve" font-family="Helvetica-Bold,Helvetica" font-weight="bold" font-size="31.2" fill="#FEFFFE" transform="matrix(1.00, 0.00, -0.00, -1.00, 367.4, 609.2)">c</text><text xml:space="preserve" font-family="Helvetica-Bold,Helvetica" font-weight="bold" font-size="31.2" fill="#FEFFFE" transform="matrix(1.00, 0.00, -0.00, -1.00, 384.7, 609.2)">o</text><text xml:space="preserve" font-family="Helvetica-Bold,Helvetica" font-weight="bold" font-size="31.2" fill="#FEFFFE" transform="matrix(1.00, 0.00, -0.00, -1.00, 403.8, 609.2)">r</text><text xml:space="preserve" font-family="Helvetica-Bold,Helvetica" font-weight="bold" font-size="31.2" fill="#FEFFFE" transform="matrix(1.00, 0.00, -0.00, -1.00, 415.9, 609.2)">e</text><text xml:space="preserve" font-family="Helvetica-Bold,Helvetica" font-weight="bold" font-size="31.2" fill="#FEFFFE" transform="matrix(1.00, 0.00, -0.00, -1.00, 433.3, 609.2)">s</text></g></g></g></g><g><clipPath id="clip0x7fd0545e1a10"><path d="M 100.0 668.0 L 924.0 668.0 L 924.0 100.0 L 100.0 100.0 Z M 100.0 668.0 "></path></clipPath><g clip-path="url(#clip0x7fd0545e1a10)"><g><clipPath id="clip0x7fd0545e2160"><path d="M 512.0 573.8 L 718.0 573.8 L 718.0 668.0 L 512.0 668.0 Z M 512.0 573.8 "></path></clipPath><g clip-path="url(#clip0x7fd0545e2160)"><text xml:space="preserve" font-family="Helvetica-Bold,Helvetica" font-weight="bold" font-size="31.2" fill="#FEFFFE" transform="matrix(1.00, 0.00, -0.00, -1.00, 544.8, 609.2)">t</text><text xml:space="preserve" font-family="Helvetica-Bold,Helvetica" font-weight="bold" font-size="31.2" fill="#FEFFFE" transform="matrix(1.00, 0.00, -0.00, -1.00, 555.2, 609.2)">w</text><text xml:space="preserve" font-family="Helvetica-Bold,Helvetica" font-weight="bold" font-size="31.2" fill="#FEFFFE" transform="matrix(1.00, 0.00, -0.00, -1.00, 579.4, 609.2)">i</text><text xml:space="preserve" font-family="Helvetica-Bold,Helvetica" font-weight="bold" font-size="31.2" fill="#FEFFFE" transform="matrix(1.00, 0.00, -0.00, -1.00, 588.1, 609.2)">t</text><text xml:space="preserve" font-family="Helvetica-Bold,Helvetica" font-weight="bold" font-size="31.2" fill="#FEFFFE" transform="matrix(1.00, 0.00, -0.00, -1.00, 598.5, 609.2)">t</text><text xml:space="preserve" font-family="Helvetica-Bold,Helvetica" font-weight="bold" font-size="31.2" fill="#FEFFFE" transform="matrix(1.00, 0.00, -0.00, -1.00, 608.9, 609.2)">e</text><text xml:space="preserve" font-family="Helvetica-Bold,Helvetica" font-weight="bold" font-size="31.2" fill="#FEFFFE" transform="matrix(1.00, 0.00, -0.00, -1.00, 626.2, 609.2)">r</text><text xml:space="preserve" font-family="Helvetica-Bold,Helvetica" font-weight="bold" font-size="31.2" fill="#FEFFFE" transform="matrix(1.00, 0.00, -0.00, -1.00, 638.4, 609.2)">_</text><text xml:space="preserve" font-family="Helvetica-Bold,Helvetica" font-weight="bold" font-size="31.2" fill="#FEFFFE" transform="matrix(1.00, 0.00, -0.00, -1.00, 655.7, 609.2)">r</text><text xml:space="preserve" font-family="Helvetica-Bold,Helvetica" font-weight="bold" font-size="31.2" fill="#FEFFFE" transform="matrix(1.00, 0.00, -0.00, -1.00, 667.9, 609.2)">v</text></g></g></g></g><g><clipPath id="clip0x7fd0545e6ee0"><path d="M 100.0 668.0 L 924.0 668.0 L 924.0 100.0 L 100.0 100.0 Z M 100.0 668.0 "></path></clipPath><g clip-path="url(#clip0x7fd0545e6ee0)"><g><clipPath id="clip0x7fd0545e7660"><path d="M 718.0 573.8 L 924.0 573.8 L 924.0 668.0 L 718.0 668.0 Z M 718.0 573.8 "></path></clipPath><g clip-path="url(#clip0x7fd0545e7660)"><text xml:space="preserve" font-family="Helvetica-Bold,Helvetica" font-weight="bold" font-size="31.2" fill="#FEFFFE" transform="matrix(1.00, 0.00, -0.00, -1.00, 733.4, 609.2)">u</text><text xml:space="preserve" font-family="Helvetica-Bold,Helvetica" font-weight="bold" font-size="31.2" fill="#FEFFFE" transform="matrix(1.00, 0.00, -0.00, -1.00, 752.4, 609.2)">k</text><text xml:space="preserve" font-family="Helvetica-Bold,Helvetica" font-weight="bold" font-size="31.2" fill="#FEFFFE" transform="matrix(1.00, 0.00, -0.00, -1.00, 769.8, 609.2)">_</text><text xml:space="preserve" font-family="Helvetica-Bold,Helvetica" font-weight="bold" font-size="31.2" fill="#FEFFFE" transform="matrix(1.00, 0.00, -0.00, -1.00, 787.1, 609.2)">2</text><text xml:space="preserve" font-family="Helvetica-Bold,Helvetica" font-weight="bold" font-size="31.2" fill="#FEFFFE" transform="matrix(1.00, 0.00, -0.00, -1.00, 804.5, 609.2)">0</text><text xml:space="preserve" font-family="Helvetica-Bold,Helvetica" font-weight="bold" font-size="31.2" fill="#FEFFFE" transform="matrix(1.00, 0.00, -0.00, -1.00, 821.8, 609.2)">0</text><text xml:space="preserve" font-family="Helvetica-Bold,Helvetica" font-weight="bold" font-size="31.2" fill="#FEFFFE" transform="matrix(1.00, 0.00, -0.00, -1.00, 839.2, 609.2)">7</text><text xml:space="preserve" font-family="Helvetica-Bold,Helvetica" font-weight="bold" font-size="31.2" fill="#FEFFFE" transform="matrix(1.00, 0.00, -0.00, -1.00, 856.5, 609.2)">_</text><text xml:space="preserve" font-family="Helvetica-Bold,Helvetica" font-weight="bold" font-size="31.2" fill="#FEFFFE" transform="matrix(1.00, 0.00, -0.00, -1.00, 873.9, 609.2)">0</text><text xml:space="preserve" font-family="Helvetica-Bold,Helvetica" font-weight="bold" font-size="31.2" fill="#FEFFFE" transform="matrix(1.00, 0.00, -0.00, -1.00, 891.2, 609.2)">5</text></g></g></g></g><g><clipPath id="clip0x7fd0545ec470"><path d="M 100.0 668.0 L 924.0 668.0 L 924.0 100.0 L 100.0 100.0 Z M 100.0 668.0 "></path></clipPath><g clip-path="url(#clip0x7fd0545ec470)"><g><clipPath id="clip0x7fd0545ecc10"><path d="M 100.0 478.7 L 305.5 478.7 L 305.5 572.8 L 100.0 572.8 Z M 100.0 478.7 "></path></clipPath><g clip-path="url(#clip0x7fd0545ecc10)"><text xml:space="preserve" font-family="Helvetica-Bold,Helvetica" font-weight="bold" font-size="31.2" fill="#FEFFFE" transform="matrix(1.00, 0.00, -0.00, -1.00, 159.4, 514.0)">S</text><text xml:space="preserve" font-family="Helvetica-Bold,Helvetica" font-weight="bold" font-size="31.2" fill="#FEFFFE" transform="matrix(1.00, 0.00, -0.00, -1.00, 180.2, 514.0)">p</text><text xml:space="preserve" font-family="Helvetica-Bold,Helvetica" font-weight="bold" font-size="31.2" fill="#FEFFFE" transform="matrix(1.00, 0.00, -0.00, -1.00, 199.3, 514.0)">a</text><text xml:space="preserve" font-family="Helvetica-Bold,Helvetica" font-weight="bold" font-size="31.2" fill="#FEFFFE" transform="matrix(1.00, 0.00, -0.00, -1.00, 216.6, 514.0)">r</text><text xml:space="preserve" font-family="Helvetica-Bold,Helvetica" font-weight="bold" font-size="31.2" fill="#FEFFFE" transform="matrix(1.00, 0.00, -0.00, -1.00, 228.8, 514.0)">k</text></g></g></g></g><g><clipPath id="clip0x7fd0545ef8f0"><path d="M 100.0 668.0 L 924.0 668.0 L 924.0 100.0 L 100.0 100.0 Z M 100.0 668.0 "></path></clipPath><g clip-path="url(#clip0x7fd0545ef8f0)"><g><clipPath id="clip0x7fd0545f0060"><path d="M 306.5 478.7 L 512.0 478.7 L 512.0 572.8 L 306.5 572.8 Z M 306.5 478.7 "></path></clipPath><g clip-path="url(#clip0x7fd0545f0060)"><text xml:space="preserve" font-family="Helvetica-Light,Helvetica" font-size="31.2" fill="#000000" transform="matrix(1.00, 0.00, -0.00, -1.00, 383.2, 514.0)">1</text><text xml:space="preserve" font-family="Helvetica-Light,Helvetica" font-size="31.2" fill="#000000" transform="matrix(1.00, 0.00, -0.00, -1.00, 400.6, 514.0)">2</text><text xml:space="preserve" font-family="Helvetica-Light,Helvetica" font-size="31.2" fill="#000000" transform="matrix(1.00, 0.00, -0.00, -1.00, 417.9, 514.0)">8</text></g></g></g></g><g><clipPath id="clip0x7fd0545f31e0"><path d="M 100.0 668.0 L 924.0 668.0 L 924.0 100.0 L 100.0 100.0 Z M 100.0 668.0 "></path></clipPath><g clip-path="url(#clip0x7fd0545f31e0)"><g><clipPath id="clip0x7fd0545f3930"><path d="M 512.0 478.7 L 718.0 478.7 L 718.0 572.8 L 512.0 572.8 Z M 512.0 478.7 "></path></clipPath><g clip-path="url(#clip0x7fd0545f3930)"><text xml:space="preserve" font-family="Helvetica-Light,Helvetica" font-size="31.2" fill="#000000" transform="matrix(1.00, 0.00, -0.00, -1.00, 581.2, 514.0)">8</text><text xml:space="preserve" font-family="Helvetica-Light,Helvetica" font-size="31.2" fill="#000000" transform="matrix(1.00, 0.00, -0.00, -1.00, 598.5, 514.0)">5</text><text xml:space="preserve" font-family="Helvetica-Light,Helvetica" font-size="31.2" fill="#000000" transform="matrix(1.00, 0.00, -0.00, -1.00, 615.9, 514.0)">7</text><text xml:space="preserve" font-family="Helvetica-Light,Helvetica" font-size="31.2" fill="#000000" transform="matrix(1.00, 0.00, -0.00, -1.00, 633.2, 514.0)">s</text></g></g></g></g><g><clipPath id="clip0x7fd0545f5e80"><path d="M 100.0 668.0 L 924.0 668.0 L 924.0 100.0 L 100.0 100.0 Z M 100.0 668.0 "></path></clipPath><g clip-path="url(#clip0x7fd0545f5e80)"><g><clipPath id="clip0x7fd0545f65d0"><path d="M 718.0 478.7 L 924.0 478.7 L 924.0 572.8 L 718.0 572.8 Z M 718.0 478.7 "></path></clipPath><g clip-path="url(#clip0x7fd0545f65d0)"><text xml:space="preserve" font-family="Helvetica-Light,Helvetica" font-size="31.2" fill="#000000" transform="matrix(1.00, 0.00, -0.00, -1.00, 778.5, 514.0)">1</text><text xml:space="preserve" font-family="Helvetica-Light,Helvetica" font-size="31.2" fill="#000000" transform="matrix(1.00, 0.00, -0.00, -1.00, 795.9, 514.0)">7</text><text xml:space="preserve" font-family="Helvetica-Light,Helvetica" font-size="31.2" fill="#000000" transform="matrix(1.00, 0.00, -0.00, -1.00, 813.2, 514.0)">5</text><text xml:space="preserve" font-family="Helvetica-Light,Helvetica" font-size="31.2" fill="#000000" transform="matrix(1.00, 0.00, -0.00, -1.00, 830.5, 514.0)">9</text><text xml:space="preserve" font-family="Helvetica-Light,Helvetica" font-size="31.2" fill="#000000" transform="matrix(1.00, 0.00, -0.00, -1.00, 847.9, 514.0)">s</text></g></g></g></g><g><clipPath id="clip0x7fd0545f9130"><path d="M 100.0 668.0 L 924.0 668.0 L 924.0 100.0 L 100.0 100.0 Z M 100.0 668.0 "></path></clipPath><g clip-path="url(#clip0x7fd0545f9130)"><g><clipPath id="clip0x7fd0545f9ac0"><path d="M 100.0 384.0 L 305.5 384.0 L 305.5 478.7 L 100.0 478.7 Z M 100.0 384.0 "></path></clipPath><g clip-path="url(#clip0x7fd0545f9ac0)"><text xml:space="preserve" font-family="Helvetica-Bold,Helvetica" font-weight="bold" font-size="31.2" fill="#FEFFFE" transform="matrix(1.00, 0.00, -0.00, -1.00, 152.5, 419.8)">G</text><text xml:space="preserve" font-family="Helvetica-Bold,Helvetica" font-weight="bold" font-size="31.2" fill="#FEFFFE" transform="matrix(1.00, 0.00, -0.00, -1.00, 176.7, 419.8)">i</text><text xml:space="preserve" font-family="Helvetica-Bold,Helvetica" font-weight="bold" font-size="31.2" fill="#FEFFFE" transform="matrix(1.00, 0.00, -0.00, -1.00, 185.4, 419.8)">r</text><text xml:space="preserve" font-family="Helvetica-Bold,Helvetica" font-weight="bold" font-size="31.2" fill="#FEFFFE" transform="matrix(1.00, 0.00, -0.00, -1.00, 197.5, 419.8)">a</text><text xml:space="preserve" font-family="Helvetica-Bold,Helvetica" font-weight="bold" font-size="31.2" fill="#FEFFFE" transform="matrix(1.00, 0.00, -0.00, -1.00, 214.9, 419.8)">p</text><text xml:space="preserve" font-family="Helvetica-Bold,Helvetica" font-weight="bold" font-size="31.2" fill="#FEFFFE" transform="matrix(1.00, 0.00, -0.00, -1.00, 233.9, 419.8)">h</text></g></g></g></g><g><clipPath id="clip0x7fd054bdce80"><path d="M 100.0 668.0 L 924.0 668.0 L 924.0 100.0 L 100.0 100.0 Z M 100.0 668.0 "></path></clipPath><g clip-path="url(#clip0x7fd054bdce80)"><g><clipPath id="clip0x7fd054bdd5d0"><path d="M 306.5 384.0 L 512.0 384.0 L 512.0 478.7 L 306.5 478.7 Z M 306.5 384.0 "></path></clipPath><g clip-path="url(#clip0x7fd054bdd5d0)"><text xml:space="preserve" font-family="Helvetica-Light,Helvetica" font-size="31.2" fill="#000000" transform="matrix(1.00, 0.00, -0.00, -1.00, 383.2, 419.8)">1</text><text xml:space="preserve" font-family="Helvetica-Light,Helvetica" font-size="31.2" fill="#000000" transform="matrix(1.00, 0.00, -0.00, -1.00, 400.6, 419.8)">2</text><text xml:space="preserve" font-family="Helvetica-Light,Helvetica" font-size="31.2" fill="#000000" transform="matrix(1.00, 0.00, -0.00, -1.00, 417.9, 419.8)">8</text></g></g></g></g><g><clipPath id="clip0x7fd054bdf500"><path d="M 100.0 668.0 L 924.0 668.0 L 924.0 100.0 L 100.0 100.0 Z M 100.0 668.0 "></path></clipPath><g clip-path="url(#clip0x7fd054bdf500)"><g><clipPath id="clip0x7fd054bdfc50"><path d="M 512.0 384.0 L 718.0 384.0 L 718.0 478.7 L 512.0 478.7 Z M 512.0 384.0 "></path></clipPath><g clip-path="url(#clip0x7fd054bdfc50)"><text xml:space="preserve" font-family="Helvetica-Light,Helvetica" font-size="31.2" fill="#000000" transform="matrix(1.00, 0.00, -0.00, -1.00, 581.2, 419.8)">5</text><text xml:space="preserve" font-family="Helvetica-Light,Helvetica" font-size="31.2" fill="#000000" transform="matrix(1.00, 0.00, -0.00, -1.00, 598.5, 419.8)">9</text><text xml:space="preserve" font-family="Helvetica-Light,Helvetica" font-size="31.2" fill="#000000" transform="matrix(1.00, 0.00, -0.00, -1.00, 615.9, 419.8)">6</text><text xml:space="preserve" font-family="Helvetica-Light,Helvetica" font-size="31.2" fill="#000000" transform="matrix(1.00, 0.00, -0.00, -1.00, 633.2, 419.8)">s</text></g></g></g></g><g><clipPath id="clip0x7fd054be21a0"><path d="M 100.0 668.0 L 924.0 668.0 L 924.0 100.0 L 100.0 100.0 Z M 100.0 668.0 "></path></clipPath><g clip-path="url(#clip0x7fd054be21a0)"><g><clipPath id="clip0x7fd054be28f0"><path d="M 718.0 384.0 L 924.0 384.0 L 924.0 478.7 L 718.0 478.7 Z M 718.0 384.0 "></path></clipPath><g clip-path="url(#clip0x7fd054be28f0)"><text xml:space="preserve" font-family="Helvetica-Light,Helvetica" font-size="31.2" fill="#000000" transform="matrix(1.00, 0.00, -0.00, -1.00, 778.5, 419.8)">1</text><text xml:space="preserve" font-family="Helvetica-Light,Helvetica" font-size="31.2" fill="#000000" transform="matrix(1.00, 0.00, -0.00, -1.00, 795.9, 419.8)">2</text><text xml:space="preserve" font-family="Helvetica-Light,Helvetica" font-size="31.2" fill="#000000" transform="matrix(1.00, 0.00, -0.00, -1.00, 813.2, 419.8)">3</text><text xml:space="preserve" font-family="Helvetica-Light,Helvetica" font-size="31.2" fill="#000000" transform="matrix(1.00, 0.00, -0.00, -1.00, 830.5, 419.8)">5</text><text xml:space="preserve" font-family="Helvetica-Light,Helvetica" font-size="31.2" fill="#000000" transform="matrix(1.00, 0.00, -0.00, -1.00, 847.9, 419.8)">s</text></g></g></g></g><g><clipPath id="clip0x7fd054be5450"><path d="M 100.0 668.0 L 924.0 668.0 L 924.0 100.0 L 100.0 100.0 Z M 100.0 668.0 "></path></clipPath><g clip-path="url(#clip0x7fd054be5450)"><g><clipPath id="clip0x7fd054be5ba0"><path d="M 100.0 289.3 L 305.5 289.3 L 305.5 384.0 L 100.0 384.0 Z M 100.0 289.3 "></path></clipPath><g clip-path="url(#clip0x7fd054be5ba0)"><text xml:space="preserve" font-family="Helvetica-Bold,Helvetica" font-weight="bold" font-size="31.2" fill="#FEFFFE" transform="matrix(1.00, 0.00, -0.00, -1.00, 129.1, 325.2)">G</text><text xml:space="preserve" font-family="Helvetica-Bold,Helvetica" font-weight="bold" font-size="31.2" fill="#FEFFFE" transform="matrix(1.00, 0.00, -0.00, -1.00, 153.3, 325.2)">r</text><text xml:space="preserve" font-family="Helvetica-Bold,Helvetica" font-weight="bold" font-size="31.2" fill="#FEFFFE" transform="matrix(1.00, 0.00, -0.00, -1.00, 165.5, 325.2)">a</text><text xml:space="preserve" font-family="Helvetica-Bold,Helvetica" font-weight="bold" font-size="31.2" fill="#FEFFFE" transform="matrix(1.00, 0.00, -0.00, -1.00, 182.8, 325.2)">p</text><text xml:space="preserve" font-family="Helvetica-Bold,Helvetica" font-weight="bold" font-size="31.2" fill="#FEFFFE" transform="matrix(1.00, 0.00, -0.00, -1.00, 201.9, 325.2)">h</text><text xml:space="preserve" font-family="Helvetica-Bold,Helvetica" font-weight="bold" font-size="31.2" fill="#FEFFFE" transform="matrix(1.00, 0.00, -0.00, -1.00, 220.9, 325.2)">L</text><text xml:space="preserve" font-family="Helvetica-Bold,Helvetica" font-weight="bold" font-size="31.2" fill="#FEFFFE" transform="matrix(1.00, 0.00, -0.00, -1.00, 240.0, 325.2)">a</text><text xml:space="preserve" font-family="Helvetica-Bold,Helvetica" font-weight="bold" font-size="31.2" fill="#FEFFFE" transform="matrix(1.00, 0.00, -0.00, -1.00, 257.3, 325.2)">b</text></g></g></g></g><g><clipPath id="clip0x7fd054be9c30"><path d="M 100.0 668.0 L 924.0 668.0 L 924.0 100.0 L 100.0 100.0 Z M 100.0 668.0 "></path></clipPath><g clip-path="url(#clip0x7fd054be9c30)"><g><clipPath id="clip0x7fd054bea390"><path d="M 306.5 289.3 L 512.0 289.3 L 512.0 384.0 L 306.5 384.0 Z M 306.5 289.3 "></path></clipPath><g clip-path="url(#clip0x7fd054bea390)"><text xml:space="preserve" font-family="Helvetica-Light,Helvetica" font-size="31.2" fill="#000000" transform="matrix(1.00, 0.00, -0.00, -1.00, 383.2, 325.2)">1</text><text xml:space="preserve" font-family="Helvetica-Light,Helvetica" font-size="31.2" fill="#000000" transform="matrix(1.00, 0.00, -0.00, -1.00, 400.6, 325.2)">2</text><text xml:space="preserve" font-family="Helvetica-Light,Helvetica" font-size="31.2" fill="#000000" transform="matrix(1.00, 0.00, -0.00, -1.00, 417.9, 325.2)">8</text></g></g></g></g><g><clipPath id="clip0x7fd054bec2d0"><path d="M 100.0 668.0 L 924.0 668.0 L 924.0 100.0 L 100.0 100.0 Z M 100.0 668.0 "></path></clipPath><g clip-path="url(#clip0x7fd054bec2d0)"><g><clipPath id="clip0x7fd054becaf0"><path d="M 512.0 289.3 L 718.0 289.3 L 718.0 384.0 L 512.0 384.0 Z M 512.0 289.3 "></path></clipPath><g clip-path="url(#clip0x7fd054becaf0)"><text xml:space="preserve" font-family="Helvetica-Light,Helvetica" font-size="31.2" fill="#000000" transform="matrix(1.00, 0.00, -0.00, -1.00, 581.2, 325.2)">2</text><text xml:space="preserve" font-family="Helvetica-Light,Helvetica" font-size="31.2" fill="#000000" transform="matrix(1.00, 0.00, -0.00, -1.00, 598.5, 325.2)">4</text><text xml:space="preserve" font-family="Helvetica-Light,Helvetica" font-size="31.2" fill="#000000" transform="matrix(1.00, 0.00, -0.00, -1.00, 615.9, 325.2)">9</text><text xml:space="preserve" font-family="Helvetica-Light,Helvetica" font-size="31.2" fill="#000000" transform="matrix(1.00, 0.00, -0.00, -1.00, 633.2, 325.2)">s</text></g></g></g></g><g><clipPath id="clip0x7fd054bef040"><path d="M 100.0 668.0 L 924.0 668.0 L 924.0 100.0 L 100.0 100.0 Z M 100.0 668.0 "></path></clipPath><g clip-path="url(#clip0x7fd054bef040)"><g><clipPath id="clip0x7fd054bef790"><path d="M 718.0 289.3 L 924.0 289.3 L 924.0 384.0 L 718.0 384.0 Z M 718.0 289.3 "></path></clipPath><g clip-path="url(#clip0x7fd054bef790)"><text xml:space="preserve" font-family="Helvetica-Light,Helvetica" font-size="31.2" fill="#000000" transform="matrix(1.00, 0.00, -0.00, -1.00, 787.2, 325.2)">8</text><text xml:space="preserve" font-family="Helvetica-Light,Helvetica" font-size="31.2" fill="#000000" transform="matrix(1.00, 0.00, -0.00, -1.00, 804.5, 325.2)">3</text><text xml:space="preserve" font-family="Helvetica-Light,Helvetica" font-size="31.2" fill="#000000" transform="matrix(1.00, 0.00, -0.00, -1.00, 821.9, 325.2)">3</text><text xml:space="preserve" font-family="Helvetica-Light,Helvetica" font-size="31.2" fill="#000000" transform="matrix(1.00, 0.00, -0.00, -1.00, 839.2, 325.2)">s</text></g></g></g></g><g><clipPath id="clip0x7fd054bf1ce0"><path d="M 100.0 668.0 L 924.0 668.0 L 924.0 100.0 L 100.0 100.0 Z M 100.0 668.0 "></path></clipPath><g clip-path="url(#clip0x7fd054bf1ce0)"><g><clipPath id="clip0x7fd054bf2430"><path d="M 100.0 194.7 L 305.5 194.7 L 305.5 289.3 L 100.0 289.3 Z M 100.0 194.7 "></path></clipPath><g clip-path="url(#clip0x7fd054bf2430)"><text xml:space="preserve" font-family="Helvetica-Bold,Helvetica" font-weight="bold" font-size="31.2" fill="#FEFFFE" transform="matrix(1.00, 0.00, -0.00, -1.00, 146.4, 230.5)">G</text><text xml:space="preserve" font-family="Helvetica-Bold,Helvetica" font-weight="bold" font-size="31.2" fill="#FEFFFE" transform="matrix(1.00, 0.00, -0.00, -1.00, 170.7, 230.5)">r</text><text xml:space="preserve" font-family="Helvetica-Bold,Helvetica" font-weight="bold" font-size="31.2" fill="#FEFFFE" transform="matrix(1.00, 0.00, -0.00, -1.00, 182.8, 230.5)">a</text><text xml:space="preserve" font-family="Helvetica-Bold,Helvetica" font-weight="bold" font-size="31.2" fill="#FEFFFE" transform="matrix(1.00, 0.00, -0.00, -1.00, 200.1, 230.5)">p</text><text xml:space="preserve" font-family="Helvetica-Bold,Helvetica" font-weight="bold" font-size="31.2" fill="#FEFFFE" transform="matrix(1.00, 0.00, -0.00, -1.00, 219.2, 230.5)">h</text><text xml:space="preserve" font-family="Helvetica-Bold,Helvetica" font-weight="bold" font-size="31.2" fill="#FEFFFE" transform="matrix(1.00, 0.00, -0.00, -1.00, 238.3, 230.5)">X</text></g></g></g></g><g><clipPath id="clip0x7fd054bf57c0"><path d="M 100.0 668.0 L 924.0 668.0 L 924.0 100.0 L 100.0 100.0 Z M 100.0 668.0 "></path></clipPath><g clip-path="url(#clip0x7fd054bf57c0)"><g><clipPath id="clip0x7fd054bf5f10"><path d="M 306.5 194.7 L 512.0 194.7 L 512.0 289.3 L 306.5 289.3 Z M 306.5 194.7 "></path></clipPath><g clip-path="url(#clip0x7fd054bf5f10)"><text xml:space="preserve" font-family="Helvetica-Light,Helvetica" font-size="31.2" fill="#000000" transform="matrix(1.00, 0.00, -0.00, -1.00, 383.2, 230.5)">1</text><text xml:space="preserve" font-family="Helvetica-Light,Helvetica" font-size="31.2" fill="#000000" transform="matrix(1.00, 0.00, -0.00, -1.00, 400.6, 230.5)">2</text><text xml:space="preserve" font-family="Helvetica-Light,Helvetica" font-size="31.2" fill="#000000" transform="matrix(1.00, 0.00, -0.00, -1.00, 417.9, 230.5)">8</text></g></g></g></g><g><clipPath id="clip0x7fd054bf7e50"><path d="M 100.0 668.0 L 924.0 668.0 L 924.0 100.0 L 100.0 100.0 Z M 100.0 668.0 "></path></clipPath><g clip-path="url(#clip0x7fd054bf7e50)"><g><clipPath id="clip0x7fd054bf85a0"><path d="M 512.0 194.7 L 718.0 194.7 L 718.0 289.3 L 512.0 289.3 Z M 512.0 194.7 "></path></clipPath><g clip-path="url(#clip0x7fd054bf85a0)"><text xml:space="preserve" font-family="Helvetica-Light,Helvetica" font-size="31.2" fill="#000000" transform="matrix(1.00, 0.00, -0.00, -1.00, 581.2, 230.5)">4</text><text xml:space="preserve" font-family="Helvetica-Light,Helvetica" font-size="31.2" fill="#000000" transform="matrix(1.00, 0.00, -0.00, -1.00, 598.5, 230.5)">1</text><text xml:space="preserve" font-family="Helvetica-Light,Helvetica" font-size="31.2" fill="#000000" transform="matrix(1.00, 0.00, -0.00, -1.00, 615.9, 230.5)">9</text><text xml:space="preserve" font-family="Helvetica-Light,Helvetica" font-size="31.2" fill="#000000" transform="matrix(1.00, 0.00, -0.00, -1.00, 633.2, 230.5)">s</text></g></g></g></g><g><clipPath id="clip0x7fd054bfaaf0"><path d="M 100.0 668.0 L 924.0 668.0 L 924.0 100.0 L 100.0 100.0 Z M 100.0 668.0 "></path></clipPath><g clip-path="url(#clip0x7fd054bfaaf0)"><g><clipPath id="clip0x7fd054bfb240"><path d="M 718.0 194.7 L 924.0 194.7 L 924.0 289.3 L 718.0 289.3 Z M 718.0 194.7 "></path></clipPath><g clip-path="url(#clip0x7fd054bfb240)"><text xml:space="preserve" font-family="Helvetica-Light,Helvetica" font-size="31.2" fill="#000000" transform="matrix(1.00, 0.00, -0.00, -1.00, 787.2, 230.5)">4</text><text xml:space="preserve" font-family="Helvetica-Light,Helvetica" font-size="31.2" fill="#000000" transform="matrix(1.00, 0.00, -0.00, -1.00, 804.5, 230.5)">6</text><text xml:space="preserve" font-family="Helvetica-Light,Helvetica" font-size="31.2" fill="#000000" transform="matrix(1.00, 0.00, -0.00, -1.00, 821.9, 230.5)">2</text><text xml:space="preserve" font-family="Helvetica-Light,Helvetica" font-size="31.2" fill="#000000" transform="matrix(1.00, 0.00, -0.00, -1.00, 839.2, 230.5)">s</text></g></g></g></g><text xml:space="preserve" font-family="Helvetica-Light,Helvetica" font-size="36.0" fill="#000000" transform="matrix(1.00, 0.00, -0.00, -1.00, 408.5, 106.8)">f</text><text xml:space="preserve" font-family="Helvetica-Light,Helvetica" font-size="36.0" fill="#000000" transform="matrix(1.00, 0.00, -0.00, -1.00, 418.6, 106.8)">r</text><text xml:space="preserve" font-family="Helvetica-Light,Helvetica" font-size="36.0" fill="#000000" transform="matrix(1.00, 0.00, -0.00, -1.00, 429.9, 106.8)">o</text><text xml:space="preserve" font-family="Helvetica-Light,Helvetica" font-size="36.0" fill="#000000" transform="matrix(1.00, 0.00, -0.00, -1.00, 449.9, 106.8)">m</text><text xml:space="preserve" font-family="Helvetica-Light,Helvetica" font-size="36.0" fill="#000000" transform="matrix(1.00, 0.00, -0.00, -1.00, 479.9, 106.8)"> </text><text xml:space="preserve" font-family="Helvetica-Light,Helvetica" font-size="36.0" fill="#000000" transform="matrix(1.00, 0.00, -0.00, -1.00, 489.9, 106.8)">G</text><text xml:space="preserve" font-family="Helvetica-Light,Helvetica" font-size="36.0" fill="#000000" transform="matrix(1.00, 0.00, -0.00, -1.00, 517.9, 106.8)">o</text><text xml:space="preserve" font-family="Helvetica-Light,Helvetica" font-size="36.0" fill="#000000" transform="matrix(1.00, 0.00, -0.00, -1.00, 537.9, 106.8)">n</text><text xml:space="preserve" font-family="Helvetica-Light,Helvetica" font-size="36.0" fill="#000000" transform="matrix(1.00, 0.00, -0.00, -1.00, 557.9, 106.8)">z</text><text xml:space="preserve" font-family="Helvetica-Light,Helvetica" font-size="36.0" fill="#000000" transform="matrix(1.00, 0.00, -0.00, -1.00, 575.9, 106.8)">a</text><text xml:space="preserve" font-family="Helvetica-Light,Helvetica" font-size="36.0" fill="#000000" transform="matrix(1.00, 0.00, -0.00, -1.00, 596.0, 106.8)">l</text><text xml:space="preserve" font-family="Helvetica-Light,Helvetica" font-size="36.0" fill="#000000" transform="matrix(1.00, 0.00, -0.00, -1.00, 604.0, 106.8)">e</text><text xml:space="preserve" font-family="Helvetica-Light,Helvetica" font-size="36.0" fill="#000000" transform="matrix(1.00, 0.00, -0.00, -1.00, 624.0, 106.8)">z</text><text xml:space="preserve" font-family="Helvetica-Light,Helvetica" font-size="36.0" fill="#000000" transform="matrix(1.00, 0.00, -0.00, -1.00, 642.0, 106.8)"> </text><text xml:space="preserve" font-family="Helvetica-LightOblique,Helvetica" font-style="italic" font-size="36.0" fill="#000000" transform="matrix(1.00, 0.00, -0.00, -1.00, 652.0, 106.8)">e</text><text xml:space="preserve" font-family="Helvetica-LightOblique,Helvetica" font-style="italic" font-size="36.0" fill="#000000" transform="matrix(1.00, 0.00, -0.00, -1.00, 672.0, 106.8)">t</text><text xml:space="preserve" font-family="Helvetica-LightOblique,Helvetica" font-style="italic" font-size="36.0" fill="#000000" transform="matrix(1.00, 0.00, -0.00, -1.00, 682.0, 106.8)"> </text><text xml:space="preserve" font-family="Helvetica-LightOblique,Helvetica" font-style="italic" font-size="36.0" fill="#000000" transform="matrix(1.00, 0.00, -0.00, -1.00, 692.0, 106.8)">a</text><text xml:space="preserve" font-family="Helvetica-LightOblique,Helvetica" font-style="italic" font-size="36.0" fill="#000000" transform="matrix(1.00, 0.00, -0.00, -1.00, 712.0, 106.8)">l</text><text xml:space="preserve" font-family="Helvetica-Light,Helvetica" font-size="36.0" fill="#000000" transform="matrix(1.00, 0.00, -0.00, -1.00, 720.0, 106.8)">.</text><text xml:space="preserve" font-family="Helvetica-Light,Helvetica" font-size="36.0" fill="#000000" transform="matrix(1.00, 0.00, -0.00, -1.00, 730.0, 106.8)">,</text><text xml:space="preserve" font-family="Helvetica-Light,Helvetica" font-size="36.0" fill="#000000" transform="matrix(1.00, 0.00, -0.00, -1.00, 740.0, 106.8)"> </text><text xml:space="preserve" font-family="Helvetica-Light,Helvetica" font-size="36.0" fill="#000000" transform="matrix(1.00, 0.00, -0.00, -1.00, 750.0, 106.8)">O</text><text xml:space="preserve" font-family="Helvetica-Light,Helvetica" font-size="36.0" fill="#000000" transform="matrix(1.00, 0.00, -0.00, -1.00, 778.1, 106.8)">S</text><text xml:space="preserve" font-family="Helvetica-Light,Helvetica" font-size="36.0" fill="#000000" transform="matrix(1.00, 0.00, -0.00, -1.00, 800.0, 106.8)">D</text><text xml:space="preserve" font-family="Helvetica-Light,Helvetica" font-size="36.0" fill="#000000" transform="matrix(1.00, 0.00, -0.00, -1.00, 826.0, 106.8)">I</text><text xml:space="preserve" font-family="Helvetica-Light,Helvetica" font-size="36.0" fill="#000000" transform="matrix(1.00, 0.00, -0.00, -1.00, 836.0, 106.8)"> </text><text xml:space="preserve" font-family="Helvetica-Light,Helvetica" font-size="36.0" fill="#000000" transform="matrix(1.00, 0.00, -0.00, -1.00, 846.1, 106.8)">2</text><text xml:space="preserve" font-family="Helvetica-Light,Helvetica" font-size="36.0" fill="#000000" transform="matrix(1.00, 0.00, -0.00, -1.00, 866.1, 106.8)">0</text><text xml:space="preserve" font-family="Helvetica-Light,Helvetica" font-size="36.0" fill="#000000" transform="matrix(1.00, 0.00, -0.00, -1.00, 886.1, 106.8)">1</text><text xml:space="preserve" font-family="Helvetica-Light,Helvetica" font-size="36.0" fill="#000000" transform="matrix(1.00, 0.00, -0.00, -1.00, 906.1, 106.8)">4</text></g></svg>