<?xml version="1.0" encoding="UTF-8" standalone="no"?><svg xmlns="http://www.w3.org/2000/svg" xmlns:xlink="http://www.w3.org/1999/xlink" clip-rule="evenodd" stroke-miterlimit="4.00" viewBox="0 0 1024 768"><desc>SVG generated by Keynote</desc><defs></defs><g transform="matrix(1.00, 0.00, -0.00, -1.00, 0.0, 768.0)"><path d="M 0.0 768.0 L 1024.0 768.0 L 1024.0 0.0 L 0.0 0.0 Z M 0.0 768.0 " fill="#FEFFFF"></path><g><clipPath id="clip-319"><path d="M 100.0 668.0 L 924.0 668.0 L 924.0 100.0 L 100.0 100.0 Z M 100.0 668.0 "></path></clipPath><g clip-path="url(#clip-319)"><path d="M 100.0 668.0 L 306.0 668.0 L 306.0 573.3 L 100.0 573.3 Z M 100.0 668.0 " fill="#0264C0"></path><path d="M 306.0 668.0 L 512.0 668.0 L 512.0 573.3 L 306.0 573.3 Z M 306.0 668.0 " fill="#0264C0"></path><path d="M 512.0 668.0 L 718.0 668.0 L 718.0 573.3 L 512.0 573.3 Z M 512.0 668.0 " fill="#0264C0"></path><path d="M 718.0 668.0 L 924.0 668.0 L 924.0 573.3 L 718.0 573.3 Z M 718.0 668.0 " fill="#0264C0"></path><path d="M 100.0 573.3 L 306.0 573.3 L 306.0 478.7 L 100.0 478.7 Z M 100.0 573.3 " fill="#388CCE"></path><path d="M 306.0 573.3 L 512.0 573.3 L 512.0 478.7 L 306.0 478.7 Z M 306.0 573.3 " fill="#FEFFFF"></path><path d="M 512.0 573.3 L 718.0 573.3 L 718.0 478.7 L 512.0 478.7 Z M 512.0 573.3 " fill="#FEFFFF"></path><path d="M 718.0 573.3 L 924.0 573.3 L 924.0 478.7 L 718.0 478.7 Z M 718.0 573.3 " fill="#FEFFFF"></path><path d="M 100.0 478.7 L 306.0 478.7 L 306.0 384.0 L 100.0 384.0 Z M 100.0 478.7 " fill="#388CCE"></path><path d="M 306.0 478.7 L 512.0 478.7 L 512.0 384.0 L 306.0 384.0 Z M 306.0 478.7 " fill="#E2E5E8"></path><path d="M 512.0 478.7 L 718.0 478.7 L 718.0 384.0 L 512.0 384.0 Z M 512.0 478.7 " fill="#E2E5E8"></path><path d="M 718.0 478.7 L 924.0 478.7 L 924.0 384.0 L 718.0 384.0 Z M 718.0 478.7 " fill="#E2E5E8"></path><path d="M 100.0 384.0 L 306.0 384.0 L 306.0 289.3 L 100.0 289.3 Z M 100.0 384.0 " fill="#388CCE"></path><path d="M 306.0 384.0 L 512.0 384.0 L 512.0 289.3 L 306.0 289.3 Z M 306.0 384.0 " fill="#FEFFFF"></path><path d="M 512.0 384.0 L 718.0 384.0 L 718.0 289.3 L 512.0 289.3 Z M 512.0 384.0 " fill="#FEFFFF"></path><path d="M 718.0 384.0 L 924.0 384.0 L 924.0 289.3 L 718.0 289.3 Z M 718.0 384.0 " fill="#FEFFFF"></path><path d="M 100.0 289.3 L 306.0 289.3 L 306.0 194.7 L 100.0 194.7 Z M 100.0 289.3 " fill="#388CCE"></path><path d="M 306.0 289.3 L 512.0 289.3 L 512.0 194.7 L 306.0 194.7 Z M 306.0 289.3 " fill="#E2E5E8"></path><path d="M 512.0 289.3 L 718.0 289.3 L 718.0 194.7 L 512.0 194.7 Z M 512.0 289.3 " fill="#E2E5E8"></path><path d="M 718.0 289.3 L 924.0 289.3 L 924.0 194.7 L 718.0 194.7 Z M 718.0 289.3 " fill="#E2E5E8"></path><path d="M 100.0 194.7 L 306.0 194.7 L 306.0 100.0 L 100.0 100.0 Z M 100.0 194.7 " fill="#388CCE"></path><path d="M 306.0 194.7 L 512.0 194.7 L 512.0 100.0 L 306.0 100.0 Z M 306.0 194.7 " fill="#FEFFFF"></path><path d="M 512.0 194.7 L 718.0 194.7 L 718.0 100.0 L 512.0 100.0 Z M 512.0 194.7 " fill="#FEFFFF"></path><path d="M 718.0 194.7 L 924.0 194.7 L 924.0 100.0 L 718.0 100.0 Z M 718.0 194.7 " fill="#FEFFFF"></path></g></g><g><clipPath id="clip-320"><path d="M 100.0 668.0 L 924.0 668.0 L 924.0 100.0 L 100.0 100.0 Z M 100.0 668.0 "></path></clipPath><g clip-path="url(#clip-320)"><g><clipPath id="clip-321"><path d="M 100.0 573.8 L 306.0 573.8 L 306.0 668.0 L 100.0 668.0 Z M 100.0 573.8 "></path></clipPath><g clip-path="url(#clip-321)"><text xml:space="preserve" font-family="Helvetica-Bold" font-weight="bold" font-size="31.2" fill="#FEFFFE" transform="matrix(1.00, 0.00, -0.00, -1.00, 155.0, 609.0)">2</text><text xml:space="preserve" font-family="Helvetica-Bold" font-weight="bold" font-size="31.2" fill="#FEFFFE" transform="matrix(1.00, 0.00, -0.00, -1.00, 172.4, 609.0)">0</text><text xml:space="preserve" font-family="Helvetica-Bold" font-weight="bold" font-size="31.2" fill="#FEFFFE" transform="matrix(1.00, 0.00, -0.00, -1.00, 189.7, 609.0)">x</text><text xml:space="preserve" font-family="Helvetica-Bold" font-weight="bold" font-size="31.2" fill="#FEFFFE" transform="matrix(1.00, 0.00, -0.00, -1.00, 207.1, 609.0)">P</text><text xml:space="preserve" font-family="Helvetica-Bold" font-weight="bold" font-size="31.2" fill="#FEFFFE" transform="matrix(1.00, 0.00, -0.00, -1.00, 227.9, 609.0)">R</text></g></g></g></g><g><clipPath id="clip-322"><path d="M 100.0 668.0 L 924.0 668.0 L 924.0 100.0 L 100.0 100.0 Z M 100.0 668.0 "></path></clipPath><g clip-path="url(#clip-322)"><g><clipPath id="clip-323"><path d="M 306.0 573.8 L 512.0 573.8 L 512.0 668.0 L 306.0 668.0 Z M 306.0 573.8 "></path></clipPath><g clip-path="url(#clip-323)"><text xml:space="preserve" font-family="Helvetica-Bold" font-weight="bold" font-size="31.2" fill="#FEFFFE" transform="matrix(1.00, 0.00, -0.00, -1.00, 367.0, 609.0)">c</text><text xml:space="preserve" font-family="Helvetica-Bold" font-weight="bold" font-size="31.2" fill="#FEFFFE" transform="matrix(1.00, 0.00, -0.00, -1.00, 384.4, 609.0)">o</text><text xml:space="preserve" font-family="Helvetica-Bold" font-weight="bold" font-size="31.2" fill="#FEFFFE" transform="matrix(1.00, 0.00, -0.00, -1.00, 403.4, 609.0)">r</text><text xml:space="preserve" font-family="Helvetica-Bold" font-weight="bold" font-size="31.2" fill="#FEFFFE" transform="matrix(1.00, 0.00, -0.00, -1.00, 415.6, 609.0)">e</text><text xml:space="preserve" font-family="Helvetica-Bold" font-weight="bold" font-size="31.2" fill="#FEFFFE" transform="matrix(1.00, 0.00, -0.00, -1.00, 432.9, 609.0)">s</text></g></g></g></g><g><clipPath id="clip-324"><path d="M 100.0 668.0 L 924.0 668.0 L 924.0 100.0 L 100.0 100.0 Z M 100.0 668.0 "></path></clipPath><g clip-path="url(#clip-324)"><g><clipPath id="clip-325"><path d="M 512.0 573.8 L 718.0 573.8 L 718.0 668.0 L 512.0 668.0 Z M 512.0 573.8 "></path></clipPath><g clip-path="url(#clip-325)"><text xml:space="preserve" font-family="Helvetica-Bold" font-weight="bold" font-size="31.2" fill="#FEFFFE" transform="matrix(1.00, 0.00, -0.00, -1.00, 545.0, 609.0)">t</text><text xml:space="preserve" font-family="Helvetica-Bold" font-weight="bold" font-size="31.2" fill="#FEFFFE" transform="matrix(1.00, 0.00, -0.00, -1.00, 555.4, 609.0)">w</text><text xml:space="preserve" font-family="Helvetica-Bold" font-weight="bold" font-size="31.2" fill="#FEFFFE" transform="matrix(1.00, 0.00, -0.00, -1.00, 579.7, 609.0)">i</text><text xml:space="preserve" font-family="Helvetica-Bold" font-weight="bold" font-size="31.2" fill="#FEFFFE" transform="matrix(1.00, 0.00, -0.00, -1.00, 588.3, 609.0)">t</text><text xml:space="preserve" font-family="Helvetica-Bold" font-weight="bold" font-size="31.2" fill="#FEFFFE" transform="matrix(1.00, 0.00, -0.00, -1.00, 598.7, 609.0)">t</text><text xml:space="preserve" font-family="Helvetica-Bold" font-weight="bold" font-size="31.2" fill="#FEFFFE" transform="matrix(1.00, 0.00, -0.00, -1.00, 609.1, 609.0)">e</text><text xml:space="preserve" font-family="Helvetica-Bold" font-weight="bold" font-size="31.2" fill="#FEFFFE" transform="matrix(1.00, 0.00, -0.00, -1.00, 626.5, 609.0)">r</text><text xml:space="preserve" font-family="Helvetica-Bold" font-weight="bold" font-size="31.2" fill="#FEFFFE" transform="matrix(1.00, 0.00, -0.00, -1.00, 638.6, 609.0)">_</text><text xml:space="preserve" font-family="Helvetica-Bold" font-weight="bold" font-size="31.2" fill="#FEFFFE" transform="matrix(1.00, 0.00, -0.00, -1.00, 656.0, 609.0)">r</text><text xml:space="preserve" font-family="Helvetica-Bold" font-weight="bold" font-size="31.2" fill="#FEFFFE" transform="matrix(1.00, 0.00, -0.00, -1.00, 668.1, 609.0)">v</text></g></g></g></g><g><clipPath id="clip-326"><path d="M 100.0 668.0 L 924.0 668.0 L 924.0 100.0 L 100.0 100.0 Z M 100.0 668.0 "></path></clipPath><g clip-path="url(#clip-326)"><g><clipPath id="clip-327"><path d="M 718.0 573.8 L 924.0 573.8 L 924.0 668.0 L 718.0 668.0 Z M 718.0 573.8 "></path></clipPath><g clip-path="url(#clip-327)"><text xml:space="preserve" font-family="Helvetica-Bold" font-weight="bold" font-size="31.2" fill="#FEFFFE" transform="matrix(1.00, 0.00, -0.00, -1.00, 733.0, 609.0)">u</text><text xml:space="preserve" font-family="Helvetica-Bold" font-weight="bold" font-size="31.2" fill="#FEFFFE" transform="matrix(1.00, 0.00, -0.00, -1.00, 752.1, 609.0)">k</text><text xml:space="preserve" font-family="Helvetica-Bold" font-weight="bold" font-size="31.2" fill="#FEFFFE" transform="matrix(1.00, 0.00, -0.00, -1.00, 769.4, 609.0)">_</text><text xml:space="preserve" font-family="Helvetica-Bold" font-weight="bold" font-size="31.2" fill="#FEFFFE" transform="matrix(1.00, 0.00, -0.00, -1.00, 786.7, 609.0)">2</text><text xml:space="preserve" font-family="Helvetica-Bold" font-weight="bold" font-size="31.2" fill="#FEFFFE" transform="matrix(1.00, 0.00, -0.00, -1.00, 804.1, 609.0)">0</text><text xml:space="preserve" font-family="Helvetica-Bold" font-weight="bold" font-size="31.2" fill="#FEFFFE" transform="matrix(1.00, 0.00, -0.00, -1.00, 821.4, 609.0)">0</text><text xml:space="preserve" font-family="Helvetica-Bold" font-weight="bold" font-size="31.2" fill="#FEFFFE" transform="matrix(1.00, 0.00, -0.00, -1.00, 838.8, 609.0)">7</text><text xml:space="preserve" font-family="Helvetica-Bold" font-weight="bold" font-size="31.2" fill="#FEFFFE" transform="matrix(1.00, 0.00, -0.00, -1.00, 856.1, 609.0)">_</text><text xml:space="preserve" font-family="Helvetica-Bold" font-weight="bold" font-size="31.2" fill="#FEFFFE" transform="matrix(1.00, 0.00, -0.00, -1.00, 873.5, 609.0)">0</text><text xml:space="preserve" font-family="Helvetica-Bold" font-weight="bold" font-size="31.2" fill="#FEFFFE" transform="matrix(1.00, 0.00, -0.00, -1.00, 890.8, 609.0)">5</text></g></g></g></g><g><clipPath id="clip-328"><path d="M 100.0 668.0 L 924.0 668.0 L 924.0 100.0 L 100.0 100.0 Z M 100.0 668.0 "></path></clipPath><g clip-path="url(#clip-328)"><g><clipPath id="clip-329"><path d="M 100.0 478.7 L 305.5 478.7 L 305.5 572.8 L 100.0 572.8 Z M 100.0 478.7 "></path></clipPath><g clip-path="url(#clip-329)"><text xml:space="preserve" font-family="Helvetica-Bold" font-weight="bold" font-size="31.2" fill="#FEFFFE" transform="matrix(1.00, 0.00, -0.00, -1.00, 159.0, 514.0)">S</text><text xml:space="preserve" font-family="Helvetica-Bold" font-weight="bold" font-size="31.2" fill="#FEFFFE" transform="matrix(1.00, 0.00, -0.00, -1.00, 179.8, 514.0)">p</text><text xml:space="preserve" font-family="Helvetica-Bold" font-weight="bold" font-size="31.2" fill="#FEFFFE" transform="matrix(1.00, 0.00, -0.00, -1.00, 198.9, 514.0)">a</text><text xml:space="preserve" font-family="Helvetica-Bold" font-weight="bold" font-size="31.2" fill="#FEFFFE" transform="matrix(1.00, 0.00, -0.00, -1.00, 216.2, 514.0)">r</text><text xml:space="preserve" font-family="Helvetica-Bold" font-weight="bold" font-size="31.2" fill="#FEFFFE" transform="matrix(1.00, 0.00, -0.00, -1.00, 228.4, 514.0)">k</text></g></g></g></g><g><clipPath id="clip-330"><path d="M 100.0 668.0 L 924.0 668.0 L 924.0 100.0 L 100.0 100.0 Z M 100.0 668.0 "></path></clipPath><g clip-path="url(#clip-330)"><g><clipPath id="clip-331"><path d="M 306.5 478.7 L 512.0 478.7 L 512.0 572.8 L 306.5 572.8 Z M 306.5 478.7 "></path></clipPath><g clip-path="url(#clip-331)"><text xml:space="preserve" font-family="Helvetica-Light" font-size="31.2" fill="#000000" transform="matrix(1.00, 0.00, -0.00, -1.00, 383.0, 514.0)">1</text><text xml:space="preserve" font-family="Helvetica-Light" font-size="31.2" fill="#000000" transform="matrix(1.00, 0.00, -0.00, -1.00, 400.3, 514.0)">2</text><text xml:space="preserve" font-family="Helvetica-Light" font-size="31.2" fill="#000000" transform="matrix(1.00, 0.00, -0.00, -1.00, 417.7, 514.0)">8</text></g></g></g></g><g><clipPath id="clip-332"><path d="M 100.0 668.0 L 924.0 668.0 L 924.0 100.0 L 100.0 100.0 Z M 100.0 668.0 "></path></clipPath><g clip-path="url(#clip-332)"><g><clipPath id="clip-333"><path d="M 512.0 478.7 L 718.0 478.7 L 718.0 572.8 L 512.0 572.8 Z M 512.0 478.7 "></path></clipPath><g clip-path="url(#clip-333)"><text xml:space="preserve" font-family="Helvetica-Light" font-size="31.2" fill="#000000" transform="matrix(1.00, 0.00, -0.00, -1.00, 581.0, 514.0)">8</text><text xml:space="preserve" font-family="Helvetica-Light" font-size="31.2" fill="#000000" transform="matrix(1.00, 0.00, -0.00, -1.00, 598.3, 514.0)">5</text><text xml:space="preserve" font-family="Helvetica-Light" font-size="31.2" fill="#000000" transform="matrix(1.00, 0.00, -0.00, -1.00, 615.7, 514.0)">7</text><text xml:space="preserve" font-family="Helvetica-Light" font-size="31.2" fill="#000000" transform="matrix(1.00, 0.00, -0.00, -1.00, 633.0, 514.0)">s</text></g></g></g></g><g><clipPath id="clip-334"><path d="M 100.0 668.0 L 924.0 668.0 L 924.0 100.0 L 100.0 100.0 Z M 100.0 668.0 "></path></clipPath><g clip-path="url(#clip-334)"><g><clipPath id="clip-335"><path d="M 718.0 478.7 L 924.0 478.7 L 924.0 572.8 L 718.0 572.8 Z M 718.0 478.7 "></path></clipPath><g clip-path="url(#clip-335)"><text xml:space="preserve" font-family="Helvetica-Light" font-size="31.2" fill="#000000" transform="matrix(1.00, 0.00, -0.00, -1.00, 779.0, 514.0)">1</text><text xml:space="preserve" font-family="Helvetica-Light" font-size="31.2" fill="#000000" transform="matrix(1.00, 0.00, -0.00, -1.00, 796.3, 514.0)">7</text><text xml:space="preserve" font-family="Helvetica-Light" font-size="31.2" fill="#000000" transform="matrix(1.00, 0.00, -0.00, -1.00, 813.7, 514.0)">5</text><text xml:space="preserve" font-family="Helvetica-Light" font-size="31.2" fill="#000000" transform="matrix(1.00, 0.00, -0.00, -1.00, 831.0, 514.0)">9</text><text xml:space="preserve" font-family="Helvetica-Light" font-size="31.2" fill="#000000" transform="matrix(1.00, 0.00, -0.00, -1.00, 848.4, 514.0)">s</text></g></g></g></g><g><clipPath id="clip-336"><path d="M 100.0 668.0 L 924.0 668.0 L 924.0 100.0 L 100.0 100.0 Z M 100.0 668.0 "></path></clipPath><g clip-path="url(#clip-336)"><g><clipPath id="clip-337"><path d="M 100.0 384.0 L 305.5 384.0 L 305.5 478.7 L 100.0 478.7 Z M 100.0 384.0 "></path></clipPath><g clip-path="url(#clip-337)"><text xml:space="preserve" font-family="Helvetica-Bold" font-weight="bold" font-size="31.2" fill="#FEFFFE" transform="matrix(1.00, 0.00, -0.00, -1.00, 152.0, 420.0)">G</text><text xml:space="preserve" font-family="Helvetica-Bold" font-weight="bold" font-size="31.2" fill="#FEFFFE" transform="matrix(1.00, 0.00, -0.00, -1.00, 176.3, 420.0)">i</text><text xml:space="preserve" font-family="Helvetica-Bold" font-weight="bold" font-size="31.2" fill="#FEFFFE" transform="matrix(1.00, 0.00, -0.00, -1.00, 184.9, 420.0)">r</text><text xml:space="preserve" font-family="Helvetica-Bold" font-weight="bold" font-size="31.2" fill="#FEFFFE" transform="matrix(1.00, 0.00, -0.00, -1.00, 197.1, 420.0)">a</text><text xml:space="preserve" font-family="Helvetica-Bold" font-weight="bold" font-size="31.2" fill="#FEFFFE" transform="matrix(1.00, 0.00, -0.00, -1.00, 214.4, 420.0)">p</text><text xml:space="preserve" font-family="Helvetica-Bold" font-weight="bold" font-size="31.2" fill="#FEFFFE" transform="matrix(1.00, 0.00, -0.00, -1.00, 233.5, 420.0)">h</text></g></g></g></g><g><clipPath id="clip-338"><path d="M 100.0 668.0 L 924.0 668.0 L 924.0 100.0 L 100.0 100.0 Z M 100.0 668.0 "></path></clipPath><g clip-path="url(#clip-338)"><g><clipPath id="clip-339"><path d="M 306.5 384.0 L 512.0 384.0 L 512.0 478.7 L 306.5 478.7 Z M 306.5 384.0 "></path></clipPath><g clip-path="url(#clip-339)"><text xml:space="preserve" font-family="Helvetica-Light" font-size="31.2" fill="#000000" transform="matrix(1.00, 0.00, -0.00, -1.00, 383.0, 420.0)">1</text><text xml:space="preserve" font-family="Helvetica-Light" font-size="31.2" fill="#000000" transform="matrix(1.00, 0.00, -0.00, -1.00, 400.3, 420.0)">2</text><text xml:space="preserve" font-family="Helvetica-Light" font-size="31.2" fill="#000000" transform="matrix(1.00, 0.00, -0.00, -1.00, 417.7, 420.0)">8</text></g></g></g></g><g><clipPath id="clip-340"><path d="M 100.0 668.0 L 924.0 668.0 L 924.0 100.0 L 100.0 100.0 Z M 100.0 668.0 "></path></clipPath><g clip-path="url(#clip-340)"><g><clipPath id="clip-341"><path d="M 512.0 384.0 L 718.0 384.0 L 718.0 478.7 L 512.0 478.7 Z M 512.0 384.0 "></path></clipPath><g clip-path="url(#clip-341)"><text xml:space="preserve" font-family="Helvetica-Light" font-size="31.2" fill="#000000" transform="matrix(1.00, 0.00, -0.00, -1.00, 581.0, 420.0)">5</text><text xml:space="preserve" font-family="Helvetica-Light" font-size="31.2" fill="#000000" transform="matrix(1.00, 0.00, -0.00, -1.00, 598.3, 420.0)">9</text><text xml:space="preserve" font-family="Helvetica-Light" font-size="31.2" fill="#000000" transform="matrix(1.00, 0.00, -0.00, -1.00, 615.7, 420.0)">6</text><text xml:space="preserve" font-family="Helvetica-Light" font-size="31.2" fill="#000000" transform="matrix(1.00, 0.00, -0.00, -1.00, 633.0, 420.0)">s</text></g></g></g></g><g><clipPath id="clip-342"><path d="M 100.0 668.0 L 924.0 668.0 L 924.0 100.0 L 100.0 100.0 Z M 100.0 668.0 "></path></clipPath><g clip-path="url(#clip-342)"><g><clipPath id="clip-343"><path d="M 718.0 384.0 L 924.0 384.0 L 924.0 478.7 L 718.0 478.7 Z M 718.0 384.0 "></path></clipPath><g clip-path="url(#clip-343)"><text xml:space="preserve" font-family="Helvetica-Light" font-size="31.2" fill="#000000" transform="matrix(1.00, 0.00, -0.00, -1.00, 779.0, 420.0)">1</text><text xml:space="preserve" font-family="Helvetica-Light" font-size="31.2" fill="#000000" transform="matrix(1.00, 0.00, -0.00, -1.00, 796.3, 420.0)">2</text><text xml:space="preserve" font-family="Helvetica-Light" font-size="31.2" fill="#000000" transform="matrix(1.00, 0.00, -0.00, -1.00, 813.7, 420.0)">3</text><text xml:space="preserve" font-family="Helvetica-Light" font-size="31.2" fill="#000000" transform="matrix(1.00, 0.00, -0.00, -1.00, 831.0, 420.0)">5</text><text xml:space="preserve" font-family="Helvetica-Light" font-size="31.2" fill="#000000" transform="matrix(1.00, 0.00, -0.00, -1.00, 848.4, 420.0)">s</text></g></g></g></g><g><clipPath id="clip-344"><path d="M 100.0 668.0 L 924.0 668.0 L 924.0 100.0 L 100.0 100.0 Z M 100.0 668.0 "></path></clipPath><g clip-path="url(#clip-344)"><g><clipPath id="clip-345"><path d="M 100.0 289.3 L 305.5 289.3 L 305.5 384.0 L 100.0 384.0 Z M 100.0 289.3 "></path></clipPath><g clip-path="url(#clip-345)"><text xml:space="preserve" font-family="Helvetica-Bold" font-weight="bold" font-size="31.2" fill="#FEFFFE" transform="matrix(1.00, 0.00, -0.00, -1.00, 129.0, 325.0)">G</text><text xml:space="preserve" font-family="Helvetica-Bold" font-weight="bold" font-size="31.2" fill="#FEFFFE" transform="matrix(1.00, 0.00, -0.00, -1.00, 153.3, 325.0)">r</text><text xml:space="preserve" font-family="Helvetica-Bold" font-weight="bold" font-size="31.2" fill="#FEFFFE" transform="matrix(1.00, 0.00, -0.00, -1.00, 165.4, 325.0)">a</text><text xml:space="preserve" font-family="Helvetica-Bold" font-weight="bold" font-size="31.2" fill="#FEFFFE" transform="matrix(1.00, 0.00, -0.00, -1.00, 182.7, 325.0)">p</text><text xml:space="preserve" font-family="Helvetica-Bold" font-weight="bold" font-size="31.2" fill="#FEFFFE" transform="matrix(1.00, 0.00, -0.00, -1.00, 201.8, 325.0)">h</text><text xml:space="preserve" font-family="Helvetica-Bold" font-weight="bold" font-size="31.2" fill="#FEFFFE" transform="matrix(1.00, 0.00, -0.00, -1.00, 220.8, 325.0)">L</text><text xml:space="preserve" font-family="Helvetica-Bold" font-weight="bold" font-size="31.2" fill="#FEFFFE" transform="matrix(1.00, 0.00, -0.00, -1.00, 239.9, 325.0)">a</text><text xml:space="preserve" font-family="Helvetica-Bold" font-weight="bold" font-size="31.2" fill="#FEFFFE" transform="matrix(1.00, 0.00, -0.00, -1.00, 257.2, 325.0)">b</text></g></g></g></g><g><clipPath id="clip-346"><path d="M 100.0 668.0 L 924.0 668.0 L 924.0 100.0 L 100.0 100.0 Z M 100.0 668.0 "></path></clipPath><g clip-path="url(#clip-346)"><g><clipPath id="clip-347"><path d="M 306.5 289.3 L 512.0 289.3 L 512.0 384.0 L 306.5 384.0 Z M 306.5 289.3 "></path></clipPath><g clip-path="url(#clip-347)"><text xml:space="preserve" font-family="Helvetica-Light" font-size="31.2" fill="#000000" transform="matrix(1.00, 0.00, -0.00, -1.00, 383.0, 325.0)">1</text><text xml:space="preserve" font-family="Helvetica-Light" font-size="31.2" fill="#000000" transform="matrix(1.00, 0.00, -0.00, -1.00, 400.3, 325.0)">2</text><text xml:space="preserve" font-family="Helvetica-Light" font-size="31.2" fill="#000000" transform="matrix(1.00, 0.00, -0.00, -1.00, 417.7, 325.0)">8</text></g></g></g></g><g><clipPath id="clip-348"><path d="M 100.0 668.0 L 924.0 668.0 L 924.0 100.0 L 100.0 100.0 Z M 100.0 668.0 "></path></clipPath><g clip-path="url(#clip-348)"><g><clipPath id="clip-349"><path d="M 512.0 289.3 L 718.0 289.3 L 718.0 384.0 L 512.0 384.0 Z M 512.0 289.3 "></path></clipPath><g clip-path="url(#clip-349)"><text xml:space="preserve" font-family="Helvetica-Light" font-size="31.2" fill="#000000" transform="matrix(1.00, 0.00, -0.00, -1.00, 581.0, 325.0)">2</text><text xml:space="preserve" font-family="Helvetica-Light" font-size="31.2" fill="#000000" transform="matrix(1.00, 0.00, -0.00, -1.00, 598.3, 325.0)">4</text><text xml:space="preserve" font-family="Helvetica-Light" font-size="31.2" fill="#000000" transform="matrix(1.00, 0.00, -0.00, -1.00, 615.7, 325.0)">9</text><text xml:space="preserve" font-family="Helvetica-Light" font-size="31.2" fill="#000000" transform="matrix(1.00, 0.00, -0.00, -1.00, 633.0, 325.0)">s</text></g></g></g></g><g><clipPath id="clip-350"><path d="M 100.0 668.0 L 924.0 668.0 L 924.0 100.0 L 100.0 100.0 Z M 100.0 668.0 "></path></clipPath><g clip-path="url(#clip-350)"><g><clipPath id="clip-351"><path d="M 718.0 289.3 L 924.0 289.3 L 924.0 384.0 L 718.0 384.0 Z M 718.0 289.3 "></path></clipPath><g clip-path="url(#clip-351)"><text xml:space="preserve" font-family="Helvetica-Light" font-size="31.2" fill="#000000" transform="matrix(1.00, 0.00, -0.00, -1.00, 787.0, 325.0)">8</text><text xml:space="preserve" font-family="Helvetica-Light" font-size="31.2" fill="#000000" transform="matrix(1.00, 0.00, -0.00, -1.00, 804.3, 325.0)">3</text><text xml:space="preserve" font-family="Helvetica-Light" font-size="31.2" fill="#000000" transform="matrix(1.00, 0.00, -0.00, -1.00, 821.7, 325.0)">3</text><text xml:space="preserve" font-family="Helvetica-Light" font-size="31.2" fill="#000000" transform="matrix(1.00, 0.00, -0.00, -1.00, 839.0, 325.0)">s</text></g></g></g></g><g><clipPath id="clip-352"><path d="M 100.0 668.0 L 924.0 668.0 L 924.0 100.0 L 100.0 100.0 Z M 100.0 668.0 "></path></clipPath><g clip-path="url(#clip-352)"><g><clipPath id="clip-353"><path d="M 100.0 194.7 L 305.5 194.7 L 305.5 289.3 L 100.0 289.3 Z M 100.0 194.7 "></path></clipPath><g clip-path="url(#clip-353)"><text xml:space="preserve" font-family="Helvetica-Bold" font-weight="bold" font-size="31.2" fill="#FEFFFE" transform="matrix(1.00, 0.00, -0.00, -1.00, 146.0, 231.0)">G</text><text xml:space="preserve" font-family="Helvetica-Bold" font-weight="bold" font-size="31.2" fill="#FEFFFE" transform="matrix(1.00, 0.00, -0.00, -1.00, 170.3, 231.0)">r</text><text xml:space="preserve" font-family="Helvetica-Bold" font-weight="bold" font-size="31.2" fill="#FEFFFE" transform="matrix(1.00, 0.00, -0.00, -1.00, 182.4, 231.0)">a</text><text xml:space="preserve" font-family="Helvetica-Bold" font-weight="bold" font-size="31.2" fill="#FEFFFE" transform="matrix(1.00, 0.00, -0.00, -1.00, 199.7, 231.0)">p</text><text xml:space="preserve" font-family="Helvetica-Bold" font-weight="bold" font-size="31.2" fill="#FEFFFE" transform="matrix(1.00, 0.00, -0.00, -1.00, 218.8, 231.0)">h</text><text xml:space="preserve" font-family="Helvetica-Bold" font-weight="bold" font-size="31.2" fill="#FEFFFE" transform="matrix(1.00, 0.00, -0.00, -1.00, 237.8, 231.0)">X</text></g></g></g></g><g><clipPath id="clip-354"><path d="M 100.0 668.0 L 924.0 668.0 L 924.0 100.0 L 100.0 100.0 Z M 100.0 668.0 "></path></clipPath><g clip-path="url(#clip-354)"><g><clipPath id="clip-355"><path d="M 306.5 194.7 L 512.0 194.7 L 512.0 289.3 L 306.5 289.3 Z M 306.5 194.7 "></path></clipPath><g clip-path="url(#clip-355)"><text xml:space="preserve" font-family="Helvetica-Light" font-size="31.2" fill="#000000" transform="matrix(1.00, 0.00, -0.00, -1.00, 383.0, 231.0)">1</text><text xml:space="preserve" font-family="Helvetica-Light" font-size="31.2" fill="#000000" transform="matrix(1.00, 0.00, -0.00, -1.00, 400.3, 231.0)">2</text><text xml:space="preserve" font-family="Helvetica-Light" font-size="31.2" fill="#000000" transform="matrix(1.00, 0.00, -0.00, -1.00, 417.7, 231.0)">8</text></g></g></g></g><g><clipPath id="clip-356"><path d="M 100.0 668.0 L 924.0 668.0 L 924.0 100.0 L 100.0 100.0 Z M 100.0 668.0 "></path></clipPath><g clip-path="url(#clip-356)"><g><clipPath id="clip-357"><path d="M 512.0 194.7 L 718.0 194.7 L 718.0 289.3 L 512.0 289.3 Z M 512.0 194.7 "></path></clipPath><g clip-path="url(#clip-357)"><text xml:space="preserve" font-family="Helvetica-Light" font-size="31.2" fill="#000000" transform="matrix(1.00, 0.00, -0.00, -1.00, 581.0, 231.0)">4</text><text xml:space="preserve" font-family="Helvetica-Light" font-size="31.2" fill="#000000" transform="matrix(1.00, 0.00, -0.00, -1.00, 598.3, 231.0)">1</text><text xml:space="preserve" font-family="Helvetica-Light" font-size="31.2" fill="#000000" transform="matrix(1.00, 0.00, -0.00, -1.00, 615.7, 231.0)">9</text><text xml:space="preserve" font-family="Helvetica-Light" font-size="31.2" fill="#000000" transform="matrix(1.00, 0.00, -0.00, -1.00, 633.0, 231.0)">s</text></g></g></g></g><g><clipPath id="clip-358"><path d="M 100.0 668.0 L 924.0 668.0 L 924.0 100.0 L 100.0 100.0 Z M 100.0 668.0 "></path></clipPath><g clip-path="url(#clip-358)"><g><clipPath id="clip-359"><path d="M 718.0 194.7 L 924.0 194.7 L 924.0 289.3 L 718.0 289.3 Z M 718.0 194.7 "></path></clipPath><g clip-path="url(#clip-359)"><text xml:space="preserve" font-family="Helvetica-Light" font-size="31.2" fill="#000000" transform="matrix(1.00, 0.00, -0.00, -1.00, 787.0, 231.0)">4</text><text xml:space="preserve" font-family="Helvetica-Light" font-size="31.2" fill="#000000" transform="matrix(1.00, 0.00, -0.00, -1.00, 804.3, 231.0)">6</text><text xml:space="preserve" font-family="Helvetica-Light" font-size="31.2" fill="#000000" transform="matrix(1.00, 0.00, -0.00, -1.00, 821.7, 231.0)">2</text><text xml:space="preserve" font-family="Helvetica-Light" font-size="31.2" fill="#000000" transform="matrix(1.00, 0.00, -0.00, -1.00, 839.0, 231.0)">s</text></g></g></g></g><g><clipPath id="clip-360"><path d="M 100.0 668.0 L 924.0 668.0 L 924.0 100.0 L 100.0 100.0 Z M 100.0 668.0 "></path></clipPath><g clip-path="url(#clip-360)"><g><clipPath id="clip-361"><path d="M 100.0 100.0 L 305.5 100.0 L 305.5 194.7 L 100.0 194.7 Z M 100.0 100.0 "></path></clipPath><g clip-path="url(#clip-361)"><text xml:space="preserve" font-family="Helvetica-Bold" font-weight="bold" font-size="31.2" fill="#FEFFFE" transform="matrix(1.00, 0.00, -0.00, -1.00, 154.0, 136.0)">T</text><text xml:space="preserve" font-family="Helvetica-Bold" font-weight="bold" font-size="31.2" fill="#FEFFFE" transform="matrix(1.00, 0.00, -0.00, -1.00, 172.5, 136.0)">i</text><text xml:space="preserve" font-family="Helvetica-Bold" font-weight="bold" font-size="31.2" fill="#FEFFFE" transform="matrix(1.00, 0.00, -0.00, -1.00, 181.2, 136.0)">m</text><text xml:space="preserve" font-family="Helvetica-Bold" font-weight="bold" font-size="31.2" fill="#FEFFFE" transform="matrix(1.00, 0.00, -0.00, -1.00, 208.9, 136.0)">e</text><text xml:space="preserve" font-family="Helvetica-Bold" font-weight="bold" font-size="31.2" fill="#FEFFFE" transform="matrix(1.00, 0.00, -0.00, -1.00, 226.3, 136.0)">l</text><text xml:space="preserve" font-family="Helvetica-Bold" font-weight="bold" font-size="31.2" fill="#FEFFFE" transform="matrix(1.00, 0.00, -0.00, -1.00, 235.0, 136.0)">y</text></g></g></g></g><g><clipPath id="clip-362"><path d="M 100.0 668.0 L 924.0 668.0 L 924.0 100.0 L 100.0 100.0 Z M 100.0 668.0 "></path></clipPath><g clip-path="url(#clip-362)"><g><clipPath id="clip-363"><path d="M 306.5 100.0 L 512.0 100.0 L 512.0 194.7 L 306.5 194.7 Z M 306.5 100.0 "></path></clipPath><g clip-path="url(#clip-363)"><text xml:space="preserve" font-family="Helvetica-Light" font-size="31.2" fill="#000000" transform="matrix(1.00, 0.00, -0.00, -1.00, 383.0, 136.0)">1</text><text xml:space="preserve" font-family="Helvetica-Light" font-size="31.2" fill="#000000" transform="matrix(1.00, 0.00, -0.00, -1.00, 400.3, 136.0)">2</text><text xml:space="preserve" font-family="Helvetica-Light" font-size="31.2" fill="#000000" transform="matrix(1.00, 0.00, -0.00, -1.00, 417.7, 136.0)">8</text></g></g></g></g></g></svg>