<?xml version="1.0" encoding="UTF-8" standalone="no"?><svg xmlns="http://www.w3.org/2000/svg" xmlns:xlink="http://www.w3.org/1999/xlink" clip-rule="evenodd" stroke-miterlimit="4.00" viewBox="0 0 106 66"><desc>SVG generated by Keynote</desc><defs></defs><g transform="matrix(1.00, 0.00, -0.00, -1.00, 0.0, 66.0)"><image xlink:href="69406BCB99022F5D6AD5B8CE640A6885.png" width="103.00" height="60.00" transform="matrix(1.00, 0.00, -0.00, -1.00, 1.7, 60.9)" opacity="0.50"></image><path d="M 9.0 55.7 L 97.2 55.7 L 97.2 10.3 L 9.0 10.3 Z M 9.0 55.7 " fill="#FEFFFF"></path><path d="M 10.0 52.8 C 8.6 52.8 6.8 53.0 6.6 55.0 C 6.3 57.0 7.8 58.6 9.8 58.6 C 11.9 58.6 11.3 57.5 16.1 57.5 C 17.9 57.5 18.0 53.8 16.2 53.8 C 11.9 53.8 12.5 52.8 10.0 52.8 C 10.0 52.8 10.0 52.8 10.0 52.8 Z M 96.0 58.6 C 96.5 58.6 96.9 58.6 97.2 58.5 L 100.1 55.7 C 99.8 54.1 98.9 53.4 97.3 53.4 C 95.6 53.3 94.7 54.2 94.4 55.7 L 97.2 52.9 C 96.9 52.8 96.5 52.8 96.0 52.8 C 93.8 52.8 93.9 53.9 90.2 53.8 C 88.3 53.8 88.6 57.5 90.2 57.5 C 94.1 57.5 93.5 58.6 96.0 58.6 C 96.0 58.6 96.0 58.6 96.0 58.6 Z M 16.3 53.8 C 14.7 53.8 14.7 57.5 16.5 57.5 C 18.4 57.5 22.6 56.9 23.7 56.9 C 24.8 57.0 27.8 57.7 28.8 57.7 C 29.7 57.7 34.3 56.6 36.3 56.9 C 38.3 57.3 38.8 57.1 40.2 57.1 C 41.6 57.1 43.7 56.9 45.0 56.8 C 46.3 56.7 47.5 57.7 49.2 57.4 C 50.9 57.2 51.8 57.5 53.0 57.5 C 54.9 57.5 54.7 53.9 53.0 53.9 C 51.3 53.9 50.2 53.6 48.7 53.7 C 47.3 53.8 46.1 54.2 44.7 53.8 C 43.3 53.4 40.7 53.8 39.1 54.0 C 37.4 54.3 35.6 54.2 34.3 54.0 C 31.7 53.7 25.5 54.4 24.6 54.1 C 23.7 53.8 20.9 54.1 19.9 54.1 C 18.9 54.1 18.4 53.8 16.3 53.8 C 16.3 53.8 16.3 53.8 16.3 53.8 Z M 89.8 57.5 C 91.5 57.5 91.8 53.9 89.8 53.9 C 87.8 53.9 84.0 54.2 83.0 54.1 C 81.9 54.0 77.3 53.8 76.4 53.8 C 75.4 53.8 72.0 54.4 70.0 54.0 C 68.0 53.7 66.1 54.4 64.8 54.2 C 63.1 54.0 62.2 54.2 60.9 54.3 C 59.6 54.3 57.6 53.6 56.5 53.9 C 55.4 54.2 54.8 53.9 53.2 53.9 C 51.7 53.9 51.7 57.5 53.2 57.5 C 54.6 57.5 55.8 57.5 57.3 57.4 C 58.7 57.3 60.5 57.2 62.0 57.2 C 63.4 57.2 65.5 57.7 67.2 57.5 C 68.8 57.2 71.2 57.1 72.1 57.1 C 73.3 57.0 75.9 57.1 76.9 56.9 C 78.3 56.7 80.8 57.1 81.7 57.4 C 82.5 57.7 83.2 57.3 85.1 57.3 C 86.2 57.4 88.1 57.5 89.8 57.5 C 89.8 57.5 89.8 57.5 89.8 57.5 Z M 94.3 54.7 C 94.3 56.1 94.6 57.9 96.6 58.1 C 98.6 58.3 100.2 56.9 100.2 54.8 C 100.2 52.8 99.1 53.4 99.1 48.6 C 99.1 46.8 95.4 46.7 95.4 48.5 C 95.4 52.8 94.3 52.2 94.3 54.7 C 94.3 54.7 94.3 54.7 94.3 54.7 Z M 100.2 11.5 C 100.2 11.0 100.1 10.6 100.1 10.3 L 97.2 7.4 C 95.7 7.7 95.0 8.6 94.9 10.2 C 94.9 11.8 95.8 12.8 97.2 13.1 L 94.4 10.3 C 94.3 10.6 94.3 11.0 94.3 11.5 C 94.3 13.7 95.4 13.6 95.4 17.3 C 95.4 19.2 99.0 18.9 99.0 17.3 C 99.0 13.4 100.2 13.9 100.2 11.5 C 100.2 11.5 100.2 11.5 100.2 11.5 Z M 99.1 48.2 C 99.1 46.5 98.6 43.8 98.6 43.1 C 98.6 42.5 98.9 40.3 98.8 39.2 C 98.7 38.2 98.4 37.8 98.3 36.1 C 98.2 33.9 98.6 32.4 98.6 32.3 C 98.8 32.0 99.1 30.9 99.0 29.4 C 98.9 27.5 99.2 26.9 99.1 26.0 C 98.6 24.5 99.0 24.3 99.0 23.2 C 98.9 22.0 99.0 21.3 98.8 20.4 C 98.6 19.3 99.1 18.6 99.1 17.7 C 99.1 16.2 95.4 16.3 95.4 17.7 C 95.4 18.6 95.8 19.3 95.8 20.2 C 95.8 21.1 95.7 21.8 95.6 22.7 C 95.4 23.6 95.6 25.4 95.6 26.8 C 95.5 28.3 95.3 30.6 95.3 32.3 C 95.4 34.0 96.3 35.0 95.7 38.4 C 95.5 39.4 95.7 41.6 95.7 42.5 C 95.7 44.0 95.4 47.0 95.4 48.3 C 95.4 49.9 99.1 49.8 99.1 48.2 C 99.1 48.2 99.1 48.2 99.1 48.2 Z M 96.2 13.2 C 97.6 13.2 99.4 12.9 99.7 10.9 C 99.9 8.9 98.4 7.3 96.4 7.3 C 94.3 7.3 94.9 8.4 90.1 8.4 C 88.4 8.4 88.3 12.1 90.1 12.1 C 94.3 12.1 93.7 13.2 96.2 13.2 C 96.2 13.2 96.2 13.2 96.2 13.2 Z M 10.2 7.3 C 9.7 7.3 9.3 7.4 9.0 7.4 L 6.2 10.3 C 6.4 11.8 7.4 12.5 8.9 12.6 C 10.6 12.6 11.5 11.7 11.8 10.3 L 9.0 13.1 C 9.3 13.2 9.8 13.2 10.2 13.2 C 12.4 13.2 12.3 12.1 16.0 12.1 C 18.0 12.1 17.6 8.5 16.0 8.5 C 12.1 8.5 12.7 7.3 10.2 7.3 C 10.2 7.3 10.2 7.3 10.2 7.3 Z M 53.3 8.4 C 51.6 8.4 51.3 12.1 53.3 12.1 C 55.3 12.1 59.0 11.8 60.1 11.8 C 61.2 11.9 65.8 12.1 66.7 12.1 C 67.7 12.1 71.1 11.6 73.1 11.9 C 75.0 12.2 77.0 11.6 78.3 11.8 C 80.0 12.0 80.9 11.8 82.2 11.7 C 83.5 11.6 85.5 12.4 86.6 12.1 C 87.7 11.7 88.3 12.1 89.8 12.1 C 91.4 12.1 91.4 8.4 89.9 8.4 C 88.5 8.4 87.2 8.5 85.8 8.6 C 84.4 8.7 82.6 8.7 81.1 8.7 C 79.7 8.7 77.6 8.3 75.9 8.5 C 74.3 8.7 71.9 8.8 71.0 8.9 C 69.8 8.9 67.2 8.8 66.1 9.0 C 64.7 9.3 62.3 8.9 61.4 8.6 C 60.5 8.3 59.9 8.7 58.0 8.6 C 56.8 8.6 55.0 8.4 53.3 8.4 C 53.3 8.4 53.3 8.4 53.3 8.4 Z M 52.8 8.4 C 50.8 8.4 47.6 8.9 46.8 8.9 C 46.0 8.9 43.4 8.6 42.1 8.7 C 40.9 8.8 40.4 9.1 38.3 9.2 C 35.7 9.3 34.0 8.9 33.9 8.9 C 33.5 8.7 32.2 8.4 30.5 8.5 C 28.1 8.6 27.4 8.3 26.3 8.4 C 24.5 8.9 24.4 8.5 23.0 8.5 C 21.6 8.6 20.7 8.5 19.6 8.6 C 18.4 8.9 17.5 8.4 16.4 8.4 C 14.7 8.4 14.8 12.1 16.5 12.1 C 17.5 12.1 18.4 11.7 19.4 11.7 C 20.5 11.7 21.4 11.8 22.5 11.9 C 23.5 12.1 25.6 11.9 27.4 11.9 C 29.1 12.0 31.9 12.2 33.9 12.2 C 35.8 12.1 37.1 11.2 41.1 11.8 C 42.4 12.0 45.0 11.8 46.0 11.8 C 47.9 11.8 51.4 12.1 53.0 12.1 C 54.8 12.1 54.8 8.4 52.8 8.4 C 52.8 8.4 52.8 8.4 52.8 8.4 Z M 11.9 11.2 C 11.9 9.9 11.6 8.1 9.6 7.8 C 7.6 7.6 6.1 9.1 6.1 11.1 C 6.1 13.2 7.2 12.6 7.2 17.4 C 7.2 19.1 10.8 19.2 10.8 17.4 C 10.8 13.2 11.9 13.8 11.9 11.2 C 11.9 11.2 11.9 11.2 11.9 11.2 Z M 6.1 54.5 C 6.1 56.9 7.0 57.9 8.9 58.0 C 11.0 58.1 11.9 56.7 11.9 54.5 C 11.9 52.3 10.8 52.4 10.8 48.7 C 10.9 46.7 7.2 47.1 7.2 48.7 C 7.2 52.6 6.1 52.0 6.1 54.5 C 6.1 54.5 6.1 54.5 6.1 54.5 Z M 7.1 48.3 C 7.1 49.7 10.8 50.0 10.8 48.3 C 10.8 46.6 10.5 43.5 10.5 42.6 C 10.6 41.6 10.9 37.8 10.9 37.0 C 10.9 36.2 10.3 33.4 10.6 31.7 C 10.9 30.1 10.3 28.4 10.5 27.3 C 10.7 25.9 10.5 25.1 10.4 24.0 C 10.3 22.9 11.1 21.3 10.8 20.4 C 10.5 19.4 10.8 18.9 10.8 17.6 C 10.8 16.4 7.2 16.4 7.2 17.6 C 7.2 18.8 7.2 19.8 7.3 21.0 C 7.4 22.2 7.4 23.7 7.4 25.0 C 7.4 26.2 7.0 27.9 7.2 29.3 C 7.4 30.7 7.5 32.7 7.6 33.5 C 7.6 34.5 7.5 36.6 7.7 37.5 C 8.0 38.7 7.6 40.7 7.3 41.5 C 7.0 42.2 7.4 42.7 7.3 44.3 C 7.3 45.3 7.1 46.8 7.1 48.3 C 7.1 48.3 7.1 48.3 7.1 48.3 Z M 7.1 48.3 " fill="#0264C0"></path><g><clipPath id="clip-298"><path d="M 10.0 12.7 L 96.2 12.7 L 96.2 53.7 L 10.0 53.7 Z M 10.0 12.7 "></path></clipPath><g clip-path="url(#clip-298)"><text xml:space="preserve" font-family="Helvetica-Bold" font-weight="bold" font-size="24.0" fill="#000000" transform="matrix(1.00, 0.00, -0.00, -1.00, 17.0, 24.0)">m</text><text xml:space="preserve" font-family="Helvetica-Bold" font-weight="bold" font-size="24.0" fill="#000000" transform="matrix(1.00, 0.00, -0.00, -1.00, 38.3, 24.0)">o</text><text xml:space="preserve" font-family="Helvetica-Bold" font-weight="bold" font-size="24.0" fill="#000000" transform="matrix(1.00, 0.00, -0.00, -1.00, 53.0, 24.0)">t</text><text xml:space="preserve" font-family="Helvetica-Bold" font-weight="bold" font-size="24.0" fill="#000000" transform="matrix(1.00, 0.00, -0.00, -1.00, 61.0, 24.0)">i</text><text xml:space="preserve" font-family="Helvetica-Bold" font-weight="bold" font-size="24.0" fill="#000000" transform="matrix(1.00, 0.00, -0.00, -1.00, 67.7, 24.0)">f</text><text xml:space="preserve" font-family="Helvetica-Bold" font-weight="bold" font-size="24.0" fill="#000000" transform="matrix(1.00, 0.00, -0.00, -1.00, 75.6, 24.0)">s</text></g></g></g></svg>