<?xml version="1.0" encoding="UTF-8" standalone="no"?><svg xmlns="http://www.w3.org/2000/svg" xmlns:xlink="http://www.w3.org/1999/xlink" clip-rule="evenodd" stroke-miterlimit="4.00" viewBox="0 0 149 139"><desc>SVG generated by Keynote</desc><defs></defs><g transform="matrix(1.00, 0.00, -0.00, -1.00, 0.0, 139.0)"><image xlink:href="4B918FC053CEEBEC199BAD9125DC5655.png" width="146.00" height="132.00" transform="matrix(1.00, 0.00, -0.00, -1.00, 1.3, 133.1)" opacity="0.50"></image><path d="M 8.6 127.8 L 140.1 127.8 L 140.1 10.7 L 8.6 10.7 Z M 8.6 127.8 " fill="#FEFFFF"></path><path d="M 9.5 124.9 C 8.2 124.9 6.4 125.1 6.1 127.1 C 5.9 129.2 7.4 130.7 9.4 130.7 C 11.5 130.7 10.9 129.6 15.7 129.6 C 17.4 129.6 17.5 126.0 15.7 126.0 C 11.5 126.0 12.1 124.9 9.5 124.9 C 9.5 124.9 9.5 124.9 9.5 124.9 Z M 138.9 130.7 C 139.3 130.7 139.7 130.7 140.1 130.6 L 142.9 127.8 C 142.6 126.2 141.7 125.6 140.1 125.5 C 138.5 125.5 137.6 126.3 137.3 127.8 L 140.1 125.0 C 139.7 124.9 139.3 124.9 138.9 124.9 C 136.7 124.9 136.8 126.0 133.1 125.9 C 131.1 125.9 131.5 129.6 133.1 129.6 C 137.0 129.6 136.4 130.7 138.9 130.7 C 138.9 130.7 138.9 130.7 138.9 130.7 Z M 15.9 125.9 C 14.2 125.9 14.2 129.6 16.1 129.6 C 18.1 129.6 22.5 129.0 23.7 129.1 C 24.8 129.1 28.0 129.8 29.1 129.8 C 30.1 129.8 34.9 128.8 37.0 129.1 C 39.1 129.4 39.7 129.2 41.2 129.2 C 42.6 129.2 44.9 129.0 46.3 128.9 C 47.7 128.8 48.9 129.8 50.7 129.5 C 52.5 129.3 53.5 129.6 54.7 129.6 C 56.7 129.6 56.6 126.0 54.7 126.0 C 52.9 126.0 51.7 125.7 50.2 125.8 C 48.7 125.9 47.4 126.3 45.9 125.9 C 44.5 125.5 41.7 125.9 40.0 126.2 C 38.2 126.4 36.3 126.3 34.9 126.1 C 32.2 125.8 25.6 126.5 24.7 126.2 C 23.8 125.9 20.8 126.2 19.7 126.2 C 18.6 126.2 18.1 125.9 15.9 125.9 C 15.9 125.9 15.9 125.9 15.9 125.9 Z M 93.6 129.6 C 95.4 129.6 95.7 126.0 93.6 126.0 C 91.5 126.0 87.6 126.3 86.4 126.2 C 85.3 126.2 80.5 125.9 79.4 125.9 C 78.4 125.9 74.8 126.5 72.7 126.2 C 70.6 125.9 68.6 126.5 67.2 126.3 C 65.4 126.1 64.4 126.3 63.0 126.4 C 61.7 126.4 59.6 125.7 58.4 126.0 C 57.2 126.3 56.6 126.0 55.0 126.0 C 53.3 126.0 53.4 129.6 54.9 129.6 C 56.4 129.6 57.7 129.6 59.2 129.5 C 60.8 129.4 62.6 129.4 64.2 129.4 C 65.7 129.4 68.0 129.8 69.7 129.6 C 71.4 129.3 73.9 129.2 74.9 129.2 C 76.2 129.2 78.9 129.3 80.1 129.1 C 81.5 128.8 84.1 129.2 85.0 129.5 C 86.0 129.8 86.6 129.4 88.7 129.4 C 89.9 129.5 91.8 129.6 93.6 129.6 C 93.6 129.6 93.6 129.6 93.6 129.6 Z M 94.2 129.6 C 96.3 129.6 99.7 129.1 100.5 129.1 C 101.3 129.1 104.1 129.4 105.5 129.4 C 106.8 129.3 107.2 129.0 109.5 128.9 C 112.2 128.8 114.1 129.2 114.2 129.2 C 114.6 129.3 115.9 129.7 117.8 129.6 C 120.3 129.4 121.0 129.8 122.2 129.6 C 124.1 129.2 124.3 129.6 125.7 129.5 C 127.2 129.5 128.1 129.6 129.3 129.4 C 130.5 129.2 131.5 129.7 132.6 129.6 C 134.5 129.6 134.3 126.0 132.6 126.0 C 131.5 126.0 130.6 126.4 129.5 126.4 C 128.3 126.4 127.4 126.3 126.3 126.1 C 125.2 126.0 122.9 126.2 121.1 126.1 C 119.3 126.0 116.3 125.8 114.2 125.9 C 112.1 126.0 110.8 126.8 106.5 126.3 C 105.2 126.1 102.4 126.3 101.3 126.3 C 99.4 126.3 95.6 126.0 94.0 126.0 C 92.0 126.0 92.1 129.6 94.2 129.6 C 94.2 129.6 94.2 129.6 94.2 129.6 Z M 137.2 126.8 C 137.2 128.2 137.4 130.0 139.4 130.2 C 141.5 130.5 143.0 129.0 143.0 126.9 C 143.0 124.9 141.9 125.5 141.9 120.7 C 141.9 118.9 138.3 118.8 138.3 120.6 C 138.3 124.9 137.2 124.3 137.2 126.8 C 137.2 126.8 137.2 126.8 137.2 126.8 Z M 143.0 11.9 C 143.0 11.5 143.0 11.1 142.9 10.7 L 140.1 7.9 C 138.5 8.2 137.9 9.1 137.8 10.7 C 137.8 12.3 138.6 13.2 140.1 13.5 L 137.3 10.7 C 137.2 11.1 137.2 11.5 137.2 11.9 C 137.2 14.1 138.3 14.0 138.2 17.7 C 138.2 19.7 141.9 19.3 141.9 17.7 C 141.9 13.8 143.0 14.4 143.0 11.9 C 143.0 11.9 143.0 11.9 143.0 11.9 Z M 141.9 86.5 C 141.9 85.0 138.3 84.7 138.3 86.5 C 138.3 88.4 138.6 91.8 138.5 92.9 C 138.5 93.9 138.2 98.1 138.2 99.0 C 138.2 99.8 138.8 103.0 138.5 104.8 C 138.2 106.7 138.8 108.5 138.6 109.7 C 138.4 111.3 138.6 112.1 138.7 113.3 C 138.7 114.5 138.0 116.4 138.3 117.4 C 138.6 118.4 138.3 119.0 138.3 120.4 C 138.3 121.8 141.9 121.8 141.9 120.5 C 141.9 119.2 141.9 118.0 141.8 116.7 C 141.7 115.3 141.7 113.7 141.7 112.3 C 141.7 111.0 142.1 109.0 141.9 107.5 C 141.6 106.0 141.5 103.8 141.5 102.9 C 141.5 101.8 141.6 99.4 141.4 98.4 C 141.1 97.1 141.5 94.9 141.8 94.1 C 142.1 93.2 141.7 92.7 141.7 90.9 C 141.8 89.8 141.9 88.1 141.9 86.5 C 141.9 86.5 141.9 86.5 141.9 86.5 Z M 141.9 86.0 C 141.9 84.2 141.4 81.2 141.4 80.5 C 141.4 79.8 141.7 77.3 141.7 76.2 C 141.6 75.0 141.3 74.6 141.2 72.7 C 141.1 70.2 141.5 68.6 141.5 68.5 C 141.6 68.2 142.0 67.0 141.9 65.3 C 141.7 63.1 142.1 62.5 141.9 61.5 C 141.5 59.8 141.9 59.7 141.8 58.4 C 141.8 57.1 141.9 56.3 141.7 55.3 C 141.5 54.2 142.0 53.4 141.9 52.3 C 141.9 50.7 138.3 50.9 138.3 52.4 C 138.3 53.3 138.7 54.1 138.7 55.1 C 138.7 56.1 138.6 56.9 138.4 57.9 C 138.3 58.9 138.5 60.9 138.4 62.5 C 138.3 64.0 138.1 66.7 138.2 68.5 C 138.3 70.3 139.1 71.5 138.6 75.2 C 138.4 76.4 138.6 78.8 138.6 79.8 C 138.6 81.5 138.3 84.8 138.3 86.2 C 138.3 87.9 141.9 87.9 141.9 86.0 C 141.9 86.0 141.9 86.0 141.9 86.0 Z M 141.9 18.1 C 141.9 16.6 138.3 16.3 138.3 18.1 C 138.3 20.0 138.6 23.5 138.5 24.5 C 138.5 25.5 138.2 29.7 138.2 30.6 C 138.2 31.5 138.8 34.6 138.5 36.5 C 138.2 38.3 138.8 40.1 138.6 41.3 C 138.4 42.9 138.6 43.8 138.7 45.0 C 138.7 46.2 138.0 48.0 138.3 49.0 C 138.6 50.0 138.3 50.6 138.3 52.0 C 138.3 53.4 141.9 53.4 141.9 52.1 C 141.9 50.8 141.9 49.6 141.8 48.3 C 141.7 47.0 141.7 45.3 141.7 43.9 C 141.7 42.6 142.1 40.6 141.9 39.1 C 141.6 37.6 141.5 35.4 141.5 34.5 C 141.5 33.4 141.6 31.1 141.4 30.0 C 141.1 28.7 141.5 26.5 141.8 25.7 C 142.1 24.8 141.7 24.3 141.7 22.5 C 141.8 21.4 141.9 19.7 141.9 18.1 C 141.9 18.1 141.9 18.1 141.9 18.1 Z M 139.1 13.6 C 140.5 13.6 142.3 13.4 142.5 11.4 C 142.8 9.3 141.3 7.8 139.2 7.8 C 137.2 7.8 137.8 8.9 133.0 8.9 C 131.2 8.9 131.1 12.5 132.9 12.5 C 137.2 12.5 136.6 13.6 139.1 13.6 C 139.1 13.6 139.1 13.6 139.1 13.6 Z M 9.8 7.8 C 9.3 7.8 8.9 7.8 8.6 7.9 L 5.7 10.7 C 6.0 12.3 6.9 12.9 8.5 13.0 C 10.1 13.0 11.1 12.2 11.4 10.7 L 8.6 13.5 C 8.9 13.6 9.3 13.6 9.8 13.6 C 12.0 13.6 11.9 12.5 15.6 12.6 C 17.5 12.6 17.2 8.9 15.6 8.9 C 11.7 8.9 12.2 7.8 9.8 7.8 C 9.8 7.8 9.8 7.8 9.8 7.8 Z M 132.8 12.6 C 134.4 12.6 134.5 8.9 132.6 8.9 C 130.5 8.9 126.1 9.5 125.0 9.4 C 123.8 9.4 120.6 8.7 119.6 8.7 C 118.6 8.7 113.7 9.8 111.6 9.4 C 109.5 9.1 108.9 9.3 107.5 9.3 C 106.0 9.3 103.7 9.5 102.4 9.6 C 101.0 9.7 99.8 8.7 98.0 9.0 C 96.2 9.2 95.2 8.9 94.0 8.9 C 92.0 8.9 92.1 12.5 94.0 12.5 C 95.7 12.5 97.0 12.8 98.5 12.7 C 100.0 12.6 101.3 12.2 102.7 12.6 C 104.2 13.0 107.0 12.6 108.7 12.3 C 110.4 12.1 112.4 12.2 113.7 12.4 C 116.5 12.7 123.0 12.0 124.0 12.3 C 124.9 12.6 127.9 12.3 129.0 12.3 C 130.0 12.3 130.6 12.6 132.8 12.6 C 132.8 12.6 132.8 12.6 132.8 12.6 Z M 93.5 8.9 C 91.4 8.9 88.0 9.4 87.2 9.4 C 86.3 9.4 83.5 9.1 82.2 9.2 C 80.9 9.2 80.4 9.5 78.2 9.6 C 75.4 9.7 73.6 9.3 73.5 9.3 C 73.1 9.2 71.7 8.8 69.9 8.9 C 67.4 9.1 66.6 8.7 65.5 8.9 C 63.6 9.3 63.4 8.9 62.0 9.0 C 60.5 9.0 59.6 8.9 58.4 9.1 C 57.1 9.3 56.2 8.8 55.0 8.9 C 53.2 8.9 53.3 12.5 55.1 12.5 C 56.2 12.5 57.1 12.2 58.2 12.2 C 59.3 12.2 60.3 12.2 61.4 12.4 C 62.5 12.5 64.8 12.3 66.6 12.4 C 68.4 12.5 71.4 12.7 73.5 12.6 C 75.6 12.5 76.9 11.7 81.1 12.2 C 82.5 12.4 85.2 12.3 86.4 12.3 C 88.3 12.3 92.1 12.5 93.7 12.5 C 95.6 12.5 95.6 8.9 93.5 8.9 C 93.5 8.9 93.5 8.9 93.5 8.9 Z M 16.0 8.9 C 14.2 8.9 13.9 12.5 16.0 12.5 C 18.2 12.5 22.1 12.2 23.2 12.3 C 24.4 12.3 29.2 12.6 30.2 12.6 C 31.2 12.6 34.8 12.0 36.9 12.3 C 39.0 12.6 41.1 12.0 42.5 12.2 C 44.3 12.4 45.2 12.2 46.6 12.1 C 48.0 12.1 50.1 12.8 51.3 12.5 C 52.4 12.2 53.1 12.5 54.7 12.5 C 56.3 12.5 56.3 8.9 54.8 8.9 C 53.2 8.9 51.9 8.9 50.4 9.0 C 48.9 9.1 47.1 9.2 45.4 9.2 C 43.9 9.2 41.7 8.7 40.0 8.9 C 38.2 9.2 35.7 9.3 34.7 9.3 C 33.4 9.3 30.8 9.2 29.6 9.4 C 28.1 9.7 25.6 9.3 24.6 9.0 C 23.7 8.7 23.0 9.1 21.0 9.1 C 19.8 9.0 17.8 8.9 16.0 8.9 C 16.0 8.9 16.0 8.9 16.0 8.9 Z M 11.4 11.7 C 11.4 10.3 11.2 8.5 9.2 8.3 C 7.2 8.0 5.6 9.5 5.6 11.6 C 5.6 13.6 6.7 13.0 6.7 17.8 C 6.7 19.6 10.4 19.7 10.4 17.9 C 10.4 13.6 11.4 14.2 11.4 11.7 C 11.4 11.7 11.4 11.7 11.4 11.7 Z M 5.6 126.6 C 5.6 129.1 6.6 130.0 8.5 130.1 C 10.6 130.2 11.5 128.8 11.5 126.6 C 11.5 124.4 10.4 124.5 10.4 120.8 C 10.4 118.8 6.7 119.2 6.7 120.8 C 6.7 124.7 5.6 124.1 5.6 126.6 C 5.6 126.6 5.6 126.6 5.6 126.6 Z M 6.7 18.3 C 6.7 20.1 7.2 23.1 7.2 23.8 C 7.2 24.5 6.9 27.0 7.0 28.2 C 7.1 29.3 7.4 29.7 7.5 31.7 C 7.6 34.1 7.2 35.7 7.1 35.8 C 7.0 36.1 6.7 37.3 6.8 39.0 C 6.9 41.2 6.6 41.8 6.7 42.8 C 7.2 44.5 6.8 44.6 6.8 45.9 C 6.9 47.2 6.7 48.0 6.9 49.0 C 7.2 50.1 6.7 50.9 6.7 52.0 C 6.7 53.6 10.4 53.5 10.4 51.9 C 10.4 51.0 10.0 50.2 10.0 49.2 C 10.0 48.2 10.1 47.4 10.2 46.4 C 10.4 45.4 10.2 43.4 10.2 41.8 C 10.3 40.3 10.5 37.6 10.5 35.8 C 10.4 34.0 9.5 32.8 10.1 29.1 C 10.3 27.9 10.1 25.5 10.1 24.5 C 10.1 22.8 10.4 19.5 10.4 18.1 C 10.4 16.4 6.7 16.4 6.7 18.3 C 6.7 18.3 6.7 18.3 6.7 18.3 Z M 6.7 86.2 C 6.7 87.7 10.4 88.0 10.4 86.2 C 10.4 84.3 10.1 80.9 10.1 79.8 C 10.2 78.8 10.4 74.6 10.4 73.7 C 10.4 72.9 9.9 69.7 10.2 67.8 C 10.5 66.0 9.9 64.2 10.1 63.0 C 10.3 61.4 10.1 60.6 10.0 59.4 C 9.9 58.2 10.7 56.3 10.3 55.3 C 10.0 54.3 10.4 53.7 10.4 52.3 C 10.4 50.9 6.7 50.9 6.7 52.2 C 6.7 53.5 6.8 54.7 6.9 56.0 C 7.0 57.3 7.0 59.0 7.0 60.4 C 7.0 61.7 6.6 63.7 6.8 65.2 C 7.0 66.7 7.1 68.9 7.2 69.8 C 7.2 70.9 7.1 73.3 7.3 74.3 C 7.6 75.6 7.2 77.8 6.9 78.6 C 6.6 79.5 7.0 80.0 6.9 81.8 C 6.9 82.9 6.7 84.6 6.7 86.2 C 6.7 86.2 6.7 86.2 6.7 86.2 Z M 6.7 86.7 C 6.7 88.5 7.2 91.5 7.2 92.2 C 7.2 92.9 6.9 95.4 7.0 96.5 C 7.1 97.7 7.4 98.1 7.5 100.0 C 7.6 102.5 7.2 104.1 7.1 104.2 C 7.0 104.5 6.7 105.7 6.8 107.4 C 6.9 109.5 6.6 110.2 6.7 111.2 C 7.2 112.9 6.8 113.0 6.8 114.3 C 6.9 115.6 6.7 116.4 6.9 117.4 C 7.2 118.5 6.7 119.3 6.7 120.4 C 6.7 122.0 10.4 121.8 10.4 120.3 C 10.4 119.4 10.0 118.6 10.0 117.6 C 10.0 116.6 10.1 115.8 10.2 114.8 C 10.4 113.8 10.2 111.8 10.2 110.2 C 10.3 108.7 10.5 106.0 10.5 104.2 C 10.4 102.4 9.5 101.2 10.1 97.5 C 10.3 96.3 10.1 93.9 10.1 92.9 C 10.1 91.2 10.4 87.9 10.4 86.5 C 10.4 84.8 6.7 84.8 6.7 86.7 C 6.7 86.7 6.7 86.7 6.7 86.7 Z M 6.7 86.7 " fill="#0264C0"></path><g><clipPath id="clip-291"><path d="M 9.6 13.7 L 139.1 13.7 L 139.1 124.8 L 9.6 124.8 Z M 9.6 13.7 "></path></clipPath><g clip-path="url(#clip-291)"><text xml:space="preserve" font-family="Helvetica-Bold" font-weight="bold" font-size="24.0" fill="#000000" transform="matrix(1.00, 0.00, -0.00, -1.00, 34.0, 89.0)">a</text><text xml:space="preserve" font-family="Helvetica-Bold" font-weight="bold" font-size="24.0" fill="#000000" transform="matrix(1.00, 0.00, -0.00, -1.00, 47.4, 89.0)">c</text><text xml:space="preserve" font-family="Helvetica-Bold" font-weight="bold" font-size="24.0" fill="#000000" transform="matrix(1.00, 0.00, -0.00, -1.00, 60.7, 89.0)">c</text><text xml:space="preserve" font-family="Helvetica-Bold" font-weight="bold" font-size="24.0" fill="#000000" transform="matrix(1.00, 0.00, -0.00, -1.00, 74.1, 89.0)">e</text><text xml:space="preserve" font-family="Helvetica-Bold" font-weight="bold" font-size="24.0" fill="#000000" transform="matrix(1.00, 0.00, -0.00, -1.00, 87.4, 89.0)">s</text><text xml:space="preserve" font-family="Helvetica-Bold" font-weight="bold" font-size="24.0" fill="#000000" transform="matrix(1.00, 0.00, -0.00, -1.00, 100.8, 89.0)">s</text></g></g></g></svg>