<?xml version="1.0" encoding="UTF-8" standalone="no"?><svg xmlns="http://www.w3.org/2000/svg" xmlns:xlink="http://www.w3.org/1999/xlink" clip-rule="evenodd" stroke-miterlimit="4.00" viewBox="0 0 124 82"><desc>SVG generated by Keynote</desc><defs></defs><g transform="matrix(1.00, 0.00, -0.00, -1.00, 0.0, 82.0)"><image xlink:href="../../A440F441-0AEF-480C-BB49-2405F45BED0E/assets/EBDFDC42E03D26DAE1DD69FC8DA8780C.png" width="122.00" height="75.00" transform="matrix(1.00, 0.00, -0.00, -1.00, 1.0, 76.6)" opacity="0.50"></image><path d="M 8.3 71.4 L 115.6 71.4 L 115.6 10.7 L 8.3 10.7 Z M 8.3 71.4 " fill="#FEFFFF"></path><path d="M 9.3 68.5 C 7.9 68.5 6.1 68.7 5.9 70.7 C 5.6 72.7 7.1 74.3 9.1 74.3 C 11.2 74.3 10.6 73.2 15.4 73.2 C 17.2 73.2 17.3 69.5 15.5 69.5 C 11.2 69.5 11.8 68.5 9.3 68.5 C 9.3 68.5 9.3 68.5 9.3 68.5 Z M 114.3 74.3 C 114.8 74.3 115.2 74.2 115.6 74.2 L 118.4 71.4 C 118.1 69.8 117.2 69.1 115.6 69.1 C 114.0 69.0 113.1 69.9 112.7 71.4 L 115.6 68.5 C 115.2 68.5 114.8 68.4 114.3 68.4 C 112.1 68.4 112.2 69.5 108.6 69.5 C 106.6 69.5 106.9 73.2 108.5 73.2 C 112.4 73.2 111.9 74.3 114.3 74.3 C 114.3 74.3 114.3 74.3 114.3 74.3 Z M 15.6 69.5 C 14.3 69.5 14.3 73.2 15.8 73.2 C 17.4 73.2 20.9 72.5 21.8 72.6 C 22.7 72.7 25.2 73.4 26.0 73.4 C 26.8 73.4 30.7 72.3 32.4 72.6 C 34.0 72.9 34.5 72.7 35.7 72.7 C 36.8 72.7 38.6 72.5 39.7 72.4 C 40.8 72.4 41.8 73.3 43.2 73.1 C 44.6 72.8 45.4 73.2 46.4 73.2 C 47.9 73.2 47.8 69.5 46.4 69.5 C 45.0 69.5 44.0 69.3 42.8 69.4 C 41.6 69.4 40.6 69.8 39.4 69.4 C 38.3 69.1 36.1 69.5 34.7 69.7 C 33.3 69.9 31.8 69.8 30.7 69.7 C 28.5 69.4 23.3 70.1 22.6 69.7 C 21.8 69.4 19.5 69.7 18.6 69.7 C 17.8 69.7 17.3 69.5 15.6 69.5 C 15.6 69.5 15.6 69.5 15.6 69.5 Z M 77.2 73.2 C 78.6 73.2 78.9 69.5 77.2 69.5 C 75.5 69.5 72.4 69.9 71.5 69.8 C 70.6 69.7 66.8 69.5 66.0 69.5 C 65.2 69.5 62.3 70.0 60.7 69.7 C 59.0 69.4 57.4 70.0 56.2 69.8 C 54.8 69.6 54.1 69.8 53.0 69.9 C 51.9 70.0 50.2 69.3 49.3 69.6 C 48.4 69.9 47.9 69.5 46.6 69.5 C 45.3 69.5 45.3 73.2 46.5 73.2 C 47.7 73.2 48.8 73.1 50.0 73.0 C 51.2 73.0 52.6 72.9 53.9 72.9 C 55.1 72.9 56.9 73.3 58.2 73.1 C 59.6 72.9 61.6 72.8 62.4 72.7 C 63.4 72.7 65.5 72.8 66.5 72.6 C 67.6 72.3 69.7 72.7 70.4 73.0 C 71.2 73.3 71.7 72.9 73.3 73.0 C 74.3 73.0 75.8 73.2 77.2 73.2 C 77.2 73.2 77.2 73.2 77.2 73.2 Z M 77.7 73.2 C 79.3 73.2 82.0 72.7 82.7 72.7 C 83.3 72.7 85.6 73.0 86.6 72.9 C 87.6 72.8 88.0 72.5 89.8 72.5 C 92.0 72.4 93.4 72.7 93.5 72.8 C 93.8 72.9 94.9 73.3 96.4 73.1 C 98.4 73.0 99.0 73.3 99.8 73.2 C 101.4 72.7 101.5 73.2 102.7 73.1 C 103.8 73.0 104.5 73.2 105.5 73.0 C 106.5 72.7 107.2 73.2 108.1 73.2 C 109.6 73.2 109.5 69.5 108.1 69.5 C 107.3 69.5 106.5 69.9 105.6 69.9 C 104.7 69.9 104.0 69.8 103.1 69.7 C 102.2 69.5 100.4 69.7 99.0 69.7 C 97.5 69.6 95.2 69.4 93.5 69.5 C 91.9 69.5 90.8 70.4 87.5 69.8 C 86.4 69.6 84.2 69.8 83.3 69.8 C 81.8 69.8 78.8 69.5 77.5 69.5 C 76.0 69.5 76.0 73.2 77.7 73.2 C 77.7 73.2 77.7 73.2 77.7 73.2 Z M 112.7 70.4 C 112.7 71.7 112.9 73.5 114.9 73.8 C 116.9 74.0 118.5 72.5 118.5 70.5 C 118.5 68.4 117.4 69.0 117.4 64.2 C 117.4 62.5 113.7 62.4 113.7 64.2 C 113.7 68.4 112.7 67.8 112.7 70.4 C 112.7 70.4 112.7 70.4 112.7 70.4 Z M 118.5 11.9 C 118.5 11.5 118.4 11.1 118.4 10.7 L 115.6 7.9 C 114.0 8.2 113.3 9.1 113.3 10.7 C 113.2 12.3 114.1 13.2 115.6 13.5 L 112.7 10.7 C 112.7 11.1 112.6 11.5 112.6 11.9 C 112.6 14.1 113.7 14.0 113.7 17.7 C 113.7 19.7 117.4 19.3 117.4 17.7 C 117.4 13.8 118.5 14.4 118.5 11.9 C 118.5 11.9 118.5 11.9 118.5 11.9 Z M 117.4 41.1 C 117.4 40.1 113.7 39.9 113.7 41.1 C 113.7 42.4 114.1 44.7 114.0 45.4 C 113.9 46.1 113.7 48.9 113.7 49.5 C 113.7 50.1 114.2 52.3 113.9 53.5 C 113.6 54.7 114.2 55.9 114.1 56.8 C 113.8 57.9 114.1 58.4 114.1 59.2 C 114.2 60.0 113.5 61.3 113.8 62.0 C 114.1 62.7 113.7 63.0 113.7 64.0 C 113.7 65.0 117.4 65.0 117.4 64.1 C 117.4 63.1 117.3 62.4 117.2 61.5 C 117.2 60.6 117.1 59.5 117.1 58.5 C 117.1 57.6 117.6 56.3 117.3 55.3 C 117.1 54.3 117.0 52.8 117.0 52.2 C 116.9 51.4 117.0 49.9 116.8 49.2 C 116.6 48.3 116.9 46.8 117.2 46.2 C 117.6 45.7 117.1 45.3 117.2 44.1 C 117.2 43.4 117.4 42.2 117.4 41.1 C 117.4 41.1 117.4 41.1 117.4 41.1 Z M 117.4 40.8 C 117.4 39.6 116.9 37.6 116.9 37.1 C 116.9 36.6 117.2 34.9 117.1 34.1 C 117.0 33.4 116.7 33.1 116.7 31.8 C 116.6 30.1 116.9 29.1 117.0 29.0 C 117.1 28.7 117.5 28.0 117.4 26.8 C 117.2 25.4 117.5 24.9 117.4 24.3 C 117.0 23.1 117.4 23.0 117.3 22.2 C 117.2 21.3 117.4 20.8 117.2 20.1 C 116.9 19.3 117.4 18.8 117.4 18.1 C 117.4 17.0 113.7 17.1 113.7 18.1 C 113.7 18.7 114.1 19.3 114.1 20.0 C 114.1 20.6 114.0 21.2 113.9 21.8 C 113.7 22.5 114.0 23.8 113.9 24.9 C 113.8 26.0 113.6 27.7 113.7 29.0 C 113.7 30.2 114.6 31.0 114.0 33.5 C 113.8 34.3 114.0 35.9 114.0 36.6 C 114.0 37.7 113.7 40.0 113.7 40.9 C 113.7 42.1 117.4 42.0 117.4 40.8 C 117.4 40.8 117.4 40.8 117.4 40.8 Z M 114.6 13.6 C 115.9 13.6 117.8 13.4 118.0 11.4 C 118.2 9.3 116.7 7.8 114.7 7.8 C 112.6 7.8 113.2 8.9 108.5 8.9 C 106.7 8.9 106.6 12.5 108.4 12.5 C 112.6 12.5 112.1 13.6 114.6 13.6 C 114.6 13.6 114.6 13.6 114.6 13.6 Z M 9.5 7.8 C 9.0 7.8 8.6 7.8 8.3 7.9 L 5.5 10.7 C 5.7 12.3 6.7 12.9 8.3 13.0 C 9.9 13.0 10.8 12.2 11.1 10.7 L 8.3 13.5 C 8.7 13.6 9.1 13.6 9.5 13.6 C 11.7 13.6 11.6 12.5 15.3 12.6 C 17.3 12.6 16.9 8.9 15.3 8.9 C 11.4 8.9 12.0 7.8 9.5 7.8 C 9.5 7.8 9.5 7.8 9.5 7.8 Z M 77.5 8.9 C 76.1 8.9 75.9 12.5 77.5 12.5 C 79.2 12.5 82.3 12.2 83.3 12.3 C 84.2 12.3 88.0 12.6 88.8 12.6 C 89.6 12.6 92.4 12.0 94.1 12.3 C 95.8 12.6 97.4 12.0 98.5 12.2 C 99.9 12.4 100.7 12.2 101.8 12.1 C 102.9 12.1 104.5 12.8 105.5 12.5 C 106.4 12.2 106.9 12.5 108.2 12.5 C 109.5 12.5 109.5 8.9 108.3 8.9 C 107.0 8.9 106.0 8.9 104.8 9.0 C 103.6 9.1 102.1 9.2 100.8 9.2 C 99.7 9.2 97.9 8.7 96.5 8.9 C 95.1 9.2 93.2 9.3 92.4 9.3 C 91.4 9.3 89.2 9.2 88.3 9.4 C 87.1 9.7 85.1 9.3 84.4 9.0 C 83.6 8.7 83.1 9.1 81.5 9.1 C 80.5 9.0 79.0 8.9 77.5 8.9 C 77.5 8.9 77.5 8.9 77.5 8.9 Z M 77.3 12.6 C 78.6 12.6 78.7 8.9 77.2 8.9 C 75.6 8.9 72.1 9.5 71.1 9.4 C 70.2 9.4 67.7 8.7 66.9 8.7 C 66.1 8.7 62.2 9.8 60.6 9.4 C 58.9 9.1 58.4 9.3 57.3 9.3 C 56.1 9.3 54.3 9.5 53.2 9.6 C 52.1 9.7 51.2 8.7 49.7 9.0 C 48.3 9.2 47.5 8.9 46.6 8.9 C 45.0 8.9 45.1 12.5 46.6 12.5 C 48.0 12.5 48.9 12.8 50.1 12.7 C 51.3 12.6 52.4 12.2 53.5 12.6 C 54.7 13.0 56.9 12.6 58.2 12.3 C 59.6 12.1 61.1 12.2 62.2 12.4 C 64.4 12.7 69.6 12.0 70.3 12.3 C 71.1 12.6 73.5 12.3 74.3 12.3 C 75.1 12.3 75.6 12.6 77.3 12.6 C 77.3 12.6 77.3 12.6 77.3 12.6 Z M 46.2 8.9 C 44.5 8.9 41.8 9.4 41.2 9.4 C 40.5 9.4 38.3 9.1 37.2 9.2 C 36.2 9.2 35.8 9.5 34.1 9.6 C 31.9 9.7 30.4 9.3 30.3 9.3 C 30.0 9.2 29.0 8.8 27.5 8.9 C 25.5 9.1 24.9 8.7 24.0 8.9 C 22.5 9.3 22.3 8.9 21.2 9.0 C 20.0 9.0 19.3 8.9 18.4 9.1 C 17.4 9.3 16.6 8.8 15.7 8.9 C 14.2 8.9 14.4 12.5 15.8 12.5 C 16.6 12.5 17.3 12.2 18.2 12.2 C 19.1 12.2 19.9 12.2 20.8 12.4 C 21.6 12.5 23.4 12.3 24.9 12.4 C 26.3 12.5 28.7 12.7 30.3 12.6 C 32.0 12.5 33.0 11.7 36.4 12.2 C 37.5 12.4 39.6 12.3 40.5 12.3 C 42.1 12.3 45.1 12.5 46.3 12.5 C 47.9 12.5 47.8 8.9 46.2 8.9 C 46.2 8.9 46.2 8.9 46.2 8.9 Z M 11.2 11.7 C 11.2 10.3 10.9 8.5 8.9 8.3 C 6.9 8.0 5.4 9.5 5.4 11.6 C 5.4 13.6 6.5 13.0 6.5 17.8 C 6.5 19.6 10.1 19.7 10.1 17.9 C 10.1 13.6 11.2 14.2 11.2 11.7 C 11.2 11.7 11.2 11.7 11.2 11.7 Z M 5.4 70.1 C 5.4 72.6 6.3 73.6 8.3 73.7 C 10.3 73.7 11.2 72.3 11.2 70.1 C 11.2 67.9 10.1 68.0 10.1 64.4 C 10.2 62.4 6.5 62.7 6.5 64.3 C 6.5 68.2 5.4 67.7 5.4 70.1 C 5.4 70.1 5.4 70.1 5.4 70.1 Z M 6.5 40.9 C 6.5 42.0 10.1 42.2 10.1 40.9 C 10.1 39.6 9.8 37.3 9.9 36.6 C 9.9 36.0 10.2 33.1 10.2 32.5 C 10.2 31.9 9.6 29.8 9.9 28.6 C 10.2 27.3 9.6 26.1 9.8 25.3 C 10.0 24.2 9.8 23.6 9.7 22.8 C 9.6 22.0 10.4 20.8 10.1 20.1 C 9.8 19.4 10.1 19.0 10.1 18.1 C 10.1 17.1 6.5 17.1 6.5 18.0 C 6.5 18.9 6.5 19.7 6.6 20.6 C 6.7 21.5 6.7 22.6 6.7 23.5 C 6.7 24.4 6.3 25.7 6.5 26.8 C 6.8 27.8 6.9 29.3 6.9 29.9 C 6.9 30.6 6.8 32.2 7.0 32.9 C 7.3 33.8 6.9 35.3 6.6 35.8 C 6.3 36.4 6.7 36.8 6.6 38.0 C 6.6 38.7 6.5 39.8 6.5 40.9 C 6.5 40.9 6.5 40.9 6.5 40.9 Z M 6.5 41.2 C 6.5 42.5 6.9 44.5 6.9 45.0 C 6.9 45.5 6.7 47.1 6.7 47.9 C 6.8 48.7 7.1 49.0 7.2 50.3 C 7.3 51.9 6.9 53.0 6.9 53.1 C 6.7 53.3 6.4 54.1 6.5 55.2 C 6.6 56.7 6.3 57.1 6.5 57.8 C 6.9 58.9 6.5 59.0 6.6 59.9 C 6.6 60.8 6.5 61.3 6.7 62.0 C 6.9 62.7 6.4 63.3 6.5 64.0 C 6.5 65.1 10.1 65.0 10.1 63.9 C 10.1 63.3 9.7 62.8 9.7 62.1 C 9.7 61.4 9.8 60.9 10.0 60.2 C 10.1 59.6 9.9 58.2 10.0 57.1 C 10.1 56.1 10.3 54.3 10.2 53.1 C 10.1 51.8 9.2 51.1 9.8 48.5 C 10.0 47.7 9.8 46.1 9.8 45.5 C 9.8 44.3 10.1 42.1 10.1 41.1 C 10.1 40.0 6.5 40.0 6.5 41.2 C 6.5 41.2 6.5 41.2 6.5 41.2 Z M 6.5 41.2 " fill="#000000"></path><g><clipPath id="clip-302"><path d="M 9.3 13.7 L 114.6 13.7 L 114.6 68.4 L 9.3 68.4 Z M 9.3 13.7 "></path></clipPath><g clip-path="url(#clip-302)"><text xml:space="preserve" font-family="Helvetica-Bold" font-weight="bold" font-size="24.0" fill="#51A7F9" transform="matrix(1.00, 0.00, -0.00, -1.00, 18.0, 32.0)">D</text><text xml:space="preserve" font-family="Helvetica-Bold" font-weight="bold" font-size="24.0" fill="#51A7F9" transform="matrix(1.00, 0.00, -0.00, -1.00, 35.3, 32.0)">a</text><text xml:space="preserve" font-family="Helvetica-Bold" font-weight="bold" font-size="24.0" fill="#51A7F9" transform="matrix(1.00, 0.00, -0.00, -1.00, 48.7, 32.0)">t</text><text xml:space="preserve" font-family="Helvetica-Bold" font-weight="bold" font-size="24.0" fill="#51A7F9" transform="matrix(1.00, 0.00, -0.00, -1.00, 56.7, 32.0)">a</text><text xml:space="preserve" font-family="Helvetica-Bold" font-weight="bold" font-size="24.0" fill="#51A7F9" transform="matrix(1.00, 0.00, -0.00, -1.00, 70.0, 32.0)">l</text><text xml:space="preserve" font-family="Helvetica-Bold" font-weight="bold" font-size="24.0" fill="#51A7F9" transform="matrix(1.00, 0.00, -0.00, -1.00, 76.7, 32.0)">o</text><text xml:space="preserve" font-family="Helvetica-Bold" font-weight="bold" font-size="24.0" fill="#51A7F9" transform="matrix(1.00, 0.00, -0.00, -1.00, 91.4, 32.0)">g</text></g></g></g></svg>