<?xml version="1.0" encoding="UTF-8" standalone="no"?><svg xmlns="http://www.w3.org/2000/svg" xmlns:xlink="http://www.w3.org/1999/xlink" clip-rule="evenodd" stroke-miterlimit="4.00" viewBox="0 0 227 83"><desc>SVG generated by Keynote</desc><defs></defs><g transform="matrix(1.00, 0.00, -0.00, -1.00, 0.0, 83.0)"><image xlink:href="F42036837AB99FF19B722B74A78697F2.png" width="224.00" height="75.00" transform="matrix(1.00, 0.00, -0.00, -1.00, 2.0, 77.1)" opacity="0.50"></image><path d="M 9.2 71.9 L 218.5 71.9 L 218.5 11.2 L 9.2 11.2 Z M 9.2 71.9 " fill="#FEFFFF"></path><path d="M 10.2 69.0 C 8.8 69.0 7.0 69.2 6.8 71.2 C 6.6 73.2 8.0 74.8 10.1 74.8 C 12.1 74.8 11.5 73.7 16.3 73.7 C 18.1 73.7 18.2 70.0 16.4 70.0 C 12.1 70.0 12.7 69.0 10.2 69.0 C 10.2 69.0 10.2 69.0 10.2 69.0 Z M 217.3 74.8 C 217.7 74.8 218.2 74.8 218.5 74.7 L 221.3 71.9 C 221.0 70.3 220.1 69.6 218.5 69.6 C 216.9 69.5 216.0 70.4 215.7 71.9 L 218.5 69.1 C 218.1 69.0 217.7 68.9 217.3 68.9 C 215.1 68.9 215.2 70.0 211.5 70.0 C 209.5 70.0 209.9 73.7 211.5 73.7 C 215.4 73.7 214.8 74.8 217.3 74.8 C 217.3 74.8 217.3 74.8 217.3 74.8 Z M 16.5 70.0 C 14.9 70.0 14.9 73.7 16.8 73.7 C 18.8 73.7 23.2 73.0 24.3 73.1 C 25.5 73.2 28.7 73.9 29.7 73.9 C 30.7 73.9 35.6 72.8 37.7 73.1 C 39.8 73.4 40.4 73.3 41.8 73.3 C 43.2 73.3 45.5 73.0 46.9 73.0 C 48.3 72.9 49.5 73.9 51.3 73.6 C 53.1 73.3 54.1 73.7 55.3 73.7 C 57.3 73.7 57.2 70.0 55.3 70.0 C 53.5 70.0 52.3 69.8 50.8 69.9 C 49.3 70.0 48.0 70.3 46.5 70.0 C 45.1 69.6 42.3 70.0 40.6 70.2 C 38.9 70.5 36.9 70.4 35.6 70.2 C 32.8 69.9 26.3 70.6 25.4 70.3 C 24.4 70.0 21.4 70.3 20.4 70.3 C 19.3 70.3 18.7 70.0 16.5 70.0 C 16.5 70.0 16.5 70.0 16.5 70.0 Z M 94.2 73.7 C 96.0 73.7 96.3 70.0 94.2 70.0 C 92.0 70.0 88.1 70.4 87.0 70.3 C 85.8 70.2 81.0 70.0 80.0 70.0 C 79.0 70.0 75.4 70.5 73.3 70.2 C 71.2 69.9 69.2 70.5 67.7 70.4 C 66.0 70.2 65.0 70.4 63.6 70.4 C 62.3 70.5 60.2 69.8 59.0 70.1 C 57.9 70.4 57.2 70.0 55.6 70.0 C 54.0 70.0 54.0 73.7 55.5 73.7 C 57.0 73.7 58.3 73.6 59.8 73.6 C 61.4 73.5 63.2 73.4 64.8 73.4 C 66.3 73.4 68.5 73.9 70.3 73.6 C 72.0 73.4 74.5 73.3 75.5 73.3 C 76.8 73.2 79.5 73.3 80.6 73.1 C 82.1 72.9 84.7 73.2 85.6 73.6 C 86.5 73.9 87.2 73.4 89.2 73.5 C 90.4 73.6 92.4 73.7 94.2 73.7 C 94.2 73.7 94.2 73.7 94.2 73.7 Z M 94.7 73.7 C 96.8 73.7 100.2 73.2 101.1 73.2 C 101.9 73.2 104.7 73.5 106.0 73.4 C 107.3 73.3 107.8 73.0 110.0 73.0 C 112.8 72.9 114.6 73.2 114.7 73.3 C 115.1 73.4 116.4 73.8 118.3 73.7 C 120.8 73.5 121.6 73.9 122.7 73.7 C 124.6 73.3 124.8 73.7 126.2 73.6 C 127.7 73.5 128.6 73.7 129.8 73.5 C 131.0 73.3 132.0 73.7 133.1 73.7 C 135.0 73.7 134.8 70.0 133.1 70.0 C 132.0 70.0 131.1 70.4 130.0 70.4 C 128.9 70.4 127.9 70.3 126.8 70.2 C 125.7 70.0 123.4 70.3 121.6 70.2 C 119.8 70.1 116.8 69.9 114.7 70.0 C 112.6 70.0 111.3 70.9 107.1 70.3 C 105.7 70.2 103.0 70.3 101.9 70.3 C 99.9 70.3 96.2 70.0 94.5 70.0 C 92.6 70.0 92.6 73.7 94.7 73.7 C 94.7 73.7 94.7 73.7 94.7 73.7 Z M 172.1 73.7 C 173.9 73.7 174.2 70.0 172.1 70.0 C 170.0 70.0 166.0 70.4 164.9 70.3 C 163.7 70.2 158.9 70.0 157.9 70.0 C 156.9 70.0 153.3 70.5 151.2 70.2 C 149.1 69.9 147.1 70.5 145.7 70.4 C 143.9 70.2 142.9 70.4 141.5 70.4 C 140.2 70.5 138.1 69.8 136.9 70.1 C 135.8 70.4 135.1 70.0 133.5 70.0 C 131.9 70.0 131.9 73.7 133.4 73.7 C 134.9 73.7 136.2 73.6 137.7 73.6 C 139.3 73.5 141.1 73.4 142.7 73.4 C 144.2 73.4 146.5 73.9 148.2 73.6 C 149.9 73.4 152.4 73.3 153.4 73.3 C 154.7 73.2 157.4 73.3 158.5 73.1 C 160.0 72.9 162.6 73.2 163.5 73.6 C 164.4 73.9 165.1 73.4 167.1 73.5 C 168.3 73.6 170.3 73.7 172.1 73.7 C 172.1 73.7 172.1 73.7 172.1 73.7 Z M 172.6 73.7 C 174.7 73.7 178.1 73.2 179.0 73.2 C 179.8 73.2 182.6 73.5 183.9 73.4 C 185.2 73.3 185.7 73.0 187.9 73.0 C 190.7 72.9 192.5 73.2 192.6 73.3 C 193.0 73.4 194.4 73.8 196.2 73.7 C 198.7 73.5 199.5 73.9 200.6 73.7 C 202.5 73.3 202.7 73.7 204.1 73.6 C 205.6 73.5 206.5 73.7 207.7 73.5 C 208.9 73.3 209.9 73.7 211.0 73.7 C 212.9 73.7 212.7 70.0 211.0 70.0 C 209.9 70.0 209.0 70.4 207.9 70.4 C 206.8 70.4 205.8 70.3 204.7 70.2 C 203.6 70.0 201.3 70.3 199.5 70.2 C 197.7 70.1 194.7 69.9 192.6 70.0 C 190.5 70.0 189.2 70.9 185.0 70.3 C 183.6 70.2 180.9 70.3 179.8 70.3 C 177.8 70.3 174.1 70.0 172.4 70.0 C 170.5 70.0 170.6 73.7 172.6 73.7 C 172.6 73.7 172.6 73.7 172.6 73.7 Z M 215.6 70.9 C 215.6 72.2 215.8 74.1 217.9 74.3 C 219.9 74.5 221.4 73.1 221.4 71.0 C 221.4 69.0 220.3 69.6 220.3 64.8 C 220.3 63.0 216.7 62.9 216.7 64.7 C 216.7 69.0 215.6 68.4 215.6 70.9 C 215.6 70.9 215.6 70.9 215.6 70.9 Z M 221.4 12.4 C 221.4 12.0 221.4 11.6 221.3 11.2 L 218.5 8.4 C 216.9 8.7 216.3 9.6 216.2 11.2 C 216.2 12.8 217.0 13.7 218.5 14.0 L 215.7 11.2 C 215.6 11.6 215.6 12.0 215.6 12.4 C 215.6 14.6 216.7 14.5 216.7 18.2 C 216.6 20.2 220.3 19.8 220.3 18.2 C 220.3 14.3 221.4 14.9 221.4 12.4 C 221.4 12.4 221.4 12.4 221.4 12.4 Z M 220.3 41.7 C 220.3 40.6 216.7 40.4 216.7 41.7 C 216.7 42.9 217.0 45.2 216.9 45.9 C 216.9 46.6 216.6 49.5 216.6 50.0 C 216.6 50.6 217.2 52.8 216.9 54.0 C 216.6 55.3 217.2 56.5 217.0 57.3 C 216.8 58.4 217.0 58.9 217.1 59.7 C 217.2 60.6 216.4 61.8 216.7 62.5 C 217.0 63.2 216.7 63.6 216.7 64.5 C 216.7 65.5 220.3 65.5 220.3 64.6 C 220.3 63.7 220.3 62.9 220.2 62.0 C 220.1 61.1 220.1 60.0 220.1 59.0 C 220.1 58.2 220.5 56.8 220.3 55.8 C 220.0 54.8 219.9 53.3 219.9 52.7 C 219.9 52.0 220.0 50.4 219.8 49.7 C 219.5 48.8 219.9 47.3 220.2 46.7 C 220.5 46.2 220.1 45.8 220.1 44.6 C 220.2 43.9 220.3 42.7 220.3 41.7 C 220.3 41.7 220.3 41.7 220.3 41.7 Z M 216.7 41.5 C 216.7 42.5 220.3 42.5 220.3 41.4 C 220.3 40.2 219.7 37.6 219.8 36.9 C 219.8 36.2 220.5 34.3 220.5 33.7 C 220.5 33.1 219.5 30.2 219.8 29.0 C 220.1 27.7 219.9 27.4 219.9 26.5 C 219.9 25.7 219.7 24.3 219.6 23.5 C 219.5 22.7 220.5 22.0 220.2 20.9 C 220.0 19.9 220.3 19.3 220.3 18.5 C 220.3 17.4 216.7 17.4 216.7 18.5 C 216.7 19.6 216.4 20.3 216.5 21.2 C 216.6 22.1 217.0 22.9 216.6 23.7 C 216.2 24.6 216.6 26.2 216.9 27.3 C 217.1 28.3 217.0 29.4 216.8 30.2 C 216.5 31.8 217.2 35.7 216.9 36.3 C 216.6 36.8 216.9 38.6 216.9 39.2 C 216.9 39.9 216.7 40.2 216.7 41.5 C 216.7 41.5 216.7 41.5 216.7 41.5 Z M 217.5 14.1 C 218.9 14.1 220.7 13.9 220.9 11.9 C 221.2 9.9 219.7 8.3 217.6 8.3 C 215.6 8.3 216.2 9.4 211.4 9.4 C 209.6 9.4 209.5 13.1 211.3 13.1 C 215.6 13.1 215.0 14.1 217.5 14.1 C 217.5 14.1 217.5 14.1 217.5 14.1 Z M 10.4 8.3 C 10.0 8.3 9.6 8.3 9.2 8.4 L 6.4 11.2 C 6.7 12.8 7.6 13.5 9.2 13.5 C 10.8 13.6 11.7 12.7 12.0 11.2 L 9.2 14.0 C 9.6 14.1 10.0 14.1 10.4 14.1 C 12.6 14.1 12.5 13.0 16.2 13.1 C 18.2 13.1 17.9 9.4 16.2 9.4 C 12.3 9.4 12.9 8.3 10.4 8.3 C 10.4 8.3 10.4 8.3 10.4 8.3 Z M 210.9 9.4 C 208.8 9.4 205.4 9.9 204.6 9.9 C 203.7 9.9 201.0 9.6 199.6 9.7 C 198.3 9.8 197.9 10.0 195.7 10.1 C 192.9 10.2 191.1 9.9 190.9 9.8 C 190.5 9.7 189.2 9.3 187.3 9.4 C 184.8 9.6 184.1 9.2 183.0 9.4 C 181.1 9.8 180.9 9.4 179.4 9.5 C 177.9 9.6 177.0 9.4 175.9 9.6 C 174.6 9.8 173.7 9.4 172.5 9.4 C 170.6 9.4 170.8 13.1 172.6 13.1 C 173.6 13.1 174.6 12.7 175.7 12.7 C 176.8 12.7 177.8 12.7 178.9 12.9 C 180.0 13.1 182.2 12.8 184.0 12.9 C 185.8 13.0 188.8 13.2 190.9 13.1 C 193.0 13.0 194.3 12.2 198.6 12.7 C 199.9 12.9 202.7 12.8 203.8 12.8 C 205.7 12.8 209.5 13.0 211.1 13.0 C 213.0 13.0 213.0 9.4 210.9 9.4 C 210.9 9.4 210.9 9.4 210.9 9.4 Z M 133.6 9.4 C 131.8 9.4 131.4 13.0 133.6 13.0 C 135.7 13.0 139.6 12.7 140.8 12.8 C 141.9 12.9 146.7 13.1 147.7 13.1 C 148.7 13.1 152.3 12.5 154.4 12.9 C 156.5 13.2 158.6 12.6 160.0 12.7 C 161.8 12.9 162.7 12.7 164.1 12.6 C 165.5 12.6 167.6 13.3 168.7 13.0 C 169.9 12.7 170.5 13.0 172.1 13.0 C 173.8 13.0 173.8 9.4 172.2 9.4 C 170.7 9.4 169.4 9.4 167.9 9.5 C 166.4 9.6 164.5 9.7 162.9 9.7 C 161.4 9.7 159.2 9.2 157.5 9.5 C 155.7 9.7 153.2 9.8 152.2 9.8 C 150.9 9.9 148.3 9.8 147.1 10.0 C 145.6 10.2 143.1 9.8 142.1 9.5 C 141.2 9.2 140.5 9.7 138.5 9.6 C 137.3 9.5 135.4 9.4 133.6 9.4 C 133.6 9.4 133.6 9.4 133.6 9.4 Z M 133.0 9.4 C 130.9 9.4 127.5 9.9 126.7 9.9 C 125.8 9.9 123.1 9.6 121.7 9.7 C 120.4 9.8 120.0 10.0 117.7 10.1 C 115.0 10.2 113.2 9.9 113.0 9.8 C 112.6 9.7 111.3 9.3 109.4 9.4 C 106.9 9.6 106.2 9.2 105.1 9.4 C 103.1 9.8 103.0 9.4 101.5 9.5 C 100.0 9.6 99.1 9.4 98.0 9.6 C 96.7 9.8 95.8 9.4 94.6 9.4 C 92.7 9.4 92.9 13.1 94.7 13.1 C 95.7 13.1 96.7 12.7 97.8 12.7 C 98.9 12.7 99.8 12.7 101.0 12.9 C 102.1 13.1 104.3 12.8 106.1 12.9 C 107.9 13.0 110.9 13.2 113.0 13.1 C 115.1 13.0 116.4 12.2 120.7 12.7 C 122.0 12.9 124.8 12.8 125.9 12.8 C 127.8 12.8 131.6 13.0 133.2 13.0 C 135.1 13.0 135.1 9.4 133.0 9.4 C 133.0 9.4 133.0 9.4 133.0 9.4 Z M 55.7 9.4 C 53.9 9.4 53.5 13.0 55.7 13.0 C 57.8 13.0 61.7 12.7 62.8 12.8 C 64.0 12.9 68.8 13.1 69.8 13.1 C 70.8 13.1 74.4 12.5 76.5 12.9 C 78.6 13.2 80.6 12.6 82.1 12.7 C 83.9 12.9 84.8 12.7 86.2 12.6 C 87.6 12.6 89.7 13.3 90.8 13.0 C 92.0 12.7 92.6 13.0 94.2 13.0 C 95.9 13.0 95.9 9.4 94.3 9.4 C 92.8 9.4 91.5 9.4 90.0 9.5 C 88.5 9.6 86.6 9.7 85.0 9.7 C 83.5 9.7 81.3 9.2 79.5 9.5 C 77.8 9.7 75.3 9.8 74.3 9.8 C 73.0 9.9 70.4 9.8 69.2 10.0 C 67.7 10.2 65.2 9.8 64.2 9.5 C 63.3 9.2 62.6 9.7 60.6 9.6 C 59.4 9.5 57.5 9.4 55.7 9.4 C 55.7 9.4 55.7 9.4 55.7 9.4 Z M 55.1 9.4 C 53.0 9.4 49.6 9.9 48.8 9.9 C 47.9 9.9 45.1 9.6 43.8 9.7 C 42.5 9.8 42.1 10.0 39.8 10.1 C 37.1 10.2 35.2 9.9 35.1 9.8 C 34.7 9.7 33.4 9.3 31.5 9.4 C 29.0 9.6 28.3 9.2 27.2 9.4 C 25.2 9.8 25.1 9.4 23.6 9.5 C 22.1 9.6 21.2 9.4 20.1 9.6 C 18.8 9.8 17.9 9.4 16.7 9.4 C 14.8 9.4 15.0 13.1 16.8 13.1 C 17.8 13.1 18.8 12.7 19.9 12.7 C 21.0 12.7 21.9 12.7 23.1 12.9 C 24.2 13.1 26.4 12.8 28.2 12.9 C 30.0 13.0 33.0 13.2 35.1 13.1 C 37.2 13.0 38.5 12.2 42.7 12.7 C 44.1 12.9 46.9 12.8 48.0 12.8 C 49.9 12.8 53.7 13.0 55.3 13.0 C 57.2 13.0 57.2 9.4 55.1 9.4 C 55.1 9.4 55.1 9.4 55.1 9.4 Z M 12.1 12.2 C 12.1 10.8 11.9 9.0 9.9 8.8 C 7.9 8.6 6.3 10.0 6.3 12.1 C 6.3 14.1 7.4 13.5 7.4 18.3 C 7.4 20.1 11.1 20.2 11.1 18.4 C 11.1 14.1 12.1 14.7 12.1 12.2 C 12.1 12.2 12.1 12.2 12.1 12.2 Z M 6.3 70.7 C 6.3 73.1 7.2 74.1 9.2 74.2 C 11.2 74.2 12.2 72.9 12.2 70.7 C 12.2 68.5 11.0 68.6 11.1 64.9 C 11.1 62.9 7.4 63.2 7.4 64.9 C 7.4 68.8 6.3 68.2 6.3 70.7 C 6.3 70.7 6.3 70.7 6.3 70.7 Z M 7.4 41.4 C 7.4 42.5 11.1 42.7 11.1 41.4 C 11.1 40.2 10.7 37.8 10.8 37.2 C 10.9 36.5 11.1 33.6 11.1 33.0 C 11.1 32.4 10.6 30.3 10.9 29.1 C 11.2 27.8 10.6 26.6 10.7 25.8 C 10.9 24.7 10.7 24.1 10.7 23.3 C 10.6 22.5 11.3 21.3 11.0 20.6 C 10.7 19.9 11.1 19.5 11.1 18.6 C 11.1 17.6 7.4 17.6 7.4 18.5 C 7.4 19.4 7.5 20.2 7.5 21.1 C 7.6 22.0 7.7 23.1 7.7 24.0 C 7.7 24.9 7.2 26.2 7.5 27.3 C 7.7 28.3 7.8 29.8 7.8 30.4 C 7.9 31.1 7.8 32.7 8.0 33.4 C 8.2 34.3 7.9 35.8 7.5 36.3 C 7.2 36.9 7.7 37.3 7.6 38.5 C 7.5 39.2 7.4 40.4 7.4 41.4 C 7.4 41.4 7.4 41.4 7.4 41.4 Z M 11.1 41.6 C 11.1 40.6 7.4 40.6 7.4 41.7 C 7.4 42.9 8.0 45.5 8.0 46.2 C 7.9 46.9 7.2 48.8 7.2 49.4 C 7.2 50.0 8.3 52.9 8.0 54.1 C 7.7 55.3 7.8 55.7 7.8 56.5 C 7.8 57.4 8.0 58.8 8.1 59.6 C 8.2 60.4 7.2 61.1 7.5 62.2 C 7.8 63.2 7.4 63.8 7.4 64.5 C 7.4 65.7 11.0 65.6 11.0 64.6 C 11.0 63.5 11.3 62.8 11.2 61.9 C 11.1 61.0 10.8 60.2 11.1 59.4 C 11.5 58.5 11.1 56.9 10.9 55.8 C 10.6 54.8 10.7 53.7 10.9 52.9 C 11.2 51.2 10.5 47.4 10.8 46.8 C 11.1 46.2 10.8 44.5 10.8 43.8 C 10.8 43.2 11.1 42.9 11.1 41.6 C 11.1 41.6 11.1 41.6 11.1 41.6 Z M 11.1 41.6 " fill="#000000"></path><g><clipPath id="clip-296"><path d="M 8.2 13.9 L 219.5 13.9 L 219.5 68.9 L 8.2 68.9 Z M 8.2 13.9 "></path></clipPath><g clip-path="url(#clip-296)"><text xml:space="preserve" font-family="Helvetica-Bold" font-weight="bold" font-size="32.0" fill="#51A7F9" transform="matrix(1.00, 0.00, -0.00, -1.00, 30.0, 29.0)">D</text><text xml:space="preserve" font-family="Helvetica-Bold" font-weight="bold" font-size="32.0" fill="#51A7F9" transform="matrix(1.00, 0.00, -0.00, -1.00, 53.1, 29.0)">i</text><text xml:space="preserve" font-family="Helvetica-Bold" font-weight="bold" font-size="32.0" fill="#51A7F9" transform="matrix(1.00, 0.00, -0.00, -1.00, 62.0, 29.0)">f</text><text xml:space="preserve" font-family="Helvetica-Bold" font-weight="bold" font-size="32.0" fill="#51A7F9" transform="matrix(1.00, 0.00, -0.00, -1.00, 72.7, 29.0)">f</text><text xml:space="preserve" font-family="Helvetica-Bold" font-weight="bold" font-size="32.0" fill="#51A7F9" transform="matrix(1.00, 0.00, -0.00, -1.00, 83.3, 29.0)">e</text><text xml:space="preserve" font-family="Helvetica-Bold" font-weight="bold" font-size="32.0" fill="#51A7F9" transform="matrix(1.00, 0.00, -0.00, -1.00, 101.1, 29.0)">r</text><text xml:space="preserve" font-family="Helvetica-Bold" font-weight="bold" font-size="32.0" fill="#51A7F9" transform="matrix(1.00, 0.00, -0.00, -1.00, 113.6, 29.0)">e</text><text xml:space="preserve" font-family="Helvetica-Bold" font-weight="bold" font-size="32.0" fill="#51A7F9" transform="matrix(1.00, 0.00, -0.00, -1.00, 131.4, 29.0)">n</text><text xml:space="preserve" font-family="Helvetica-Bold" font-weight="bold" font-size="32.0" fill="#51A7F9" transform="matrix(1.00, 0.00, -0.00, -1.00, 150.9, 29.0)">t</text><text xml:space="preserve" font-family="Helvetica-Bold" font-weight="bold" font-size="32.0" fill="#51A7F9" transform="matrix(1.00, 0.00, -0.00, -1.00, 161.6, 29.0)">i</text><text xml:space="preserve" font-family="Helvetica-Bold" font-weight="bold" font-size="32.0" fill="#51A7F9" transform="matrix(1.00, 0.00, -0.00, -1.00, 170.5, 29.0)">a</text><text xml:space="preserve" font-family="Helvetica-Bold" font-weight="bold" font-size="32.0" fill="#51A7F9" transform="matrix(1.00, 0.00, -0.00, -1.00, 188.3, 29.0)">l</text></g></g></g></svg>