<?xml version="1.0" encoding="UTF-8" standalone="no"?><svg xmlns="http://www.w3.org/2000/svg" xmlns:xlink="http://www.w3.org/1999/xlink" clip-rule="evenodd" stroke-miterlimit="4.00" viewBox="0 0 37 37"><desc>SVG generated by Keynote</desc><defs></defs><g transform="matrix(1.00, 0.00, -0.00, -1.00, 0.0, 37.0)"><path d="M 28.5 28.5 C 34.0 23.0 34.0 14.1 28.5 8.6 C 22.9 3.1 14.0 3.1 8.5 8.6 C 3.0 14.1 3.0 23.0 8.5 28.5 C 14.0 34.0 22.9 34.0 28.5 28.5 Z M 28.5 28.5 " fill="#B26AE1"></path><path d="M 24.1 4.1 C 29.6 9.6 29.6 18.6 24.1 24.1 C 18.6 29.6 9.6 29.6 4.1 24.1 C -1.4 18.6 -1.4 9.6 4.1 4.1 C 9.6 -1.4 18.6 -1.4 24.1 4.1 Z M 24.1 4.1 " fill="none" stroke="#5E317B" stroke-width="5.00" transform="matrix(1.00, 0.00, 0.00, -1.00, 4.4, 32.6)"></path></g></svg>