<?xml version="1.0" encoding="UTF-8" standalone="no"?><svg xmlns="http://www.w3.org/2000/svg" xmlns:xlink="http://www.w3.org/1999/xlink" clip-rule="evenodd" stroke-miterlimit="4.00" viewBox="0 0 87 173"><desc>SVG generated by Keynote</desc><defs></defs><g transform="matrix(1.00, 0.00, -0.00, -1.00, 0.0, 173.0)"><path d="M 6.3 29.7 C 6.2 29.4 6.4 28.6 6.2 28.4 M 6.3 29.7 C 7.4 28.9 7.5 27.6 7.7 25.9 C 7.7 24.0 6.7 25.9 6.2 25.7 C 5.8 23.2 6.6 23.2 7.8 23.6 C 7.0 22.6 8.4 19.8 6.9 20.3 C 6.9 24.4 6.5 17.5 5.7 20.9 C 5.5 21.3 5.1 20.3 5.1 19.9 C 4.5 21.0 3.7 19.1 3.3 20.9 C 2.4 21.1 2.8 20.8 2.0 22.0 C 1.9 22.5 2.3 22.3 2.5 22.2 C 3.6 22.4 1.9 23.6 2.6 24.5 C 1.1 25.4 2.8 26.3 3.4 25.5 C 3.2 26.3 1.7 27.3 2.8 28.2 C 2.1 28.7 2.5 31.0 3.4 29.6 C 4.0 28.6 4.4 29.7 4.8 29.9 C 5.1 29.5 4.6 28.1 4.9 27.9 C 5.1 28.3 5.6 30.1 5.6 28.2 C 6.1 28.8 6.4 27.9 6.3 29.7 C 6.3 29.7 6.3 29.7 6.3 29.7 Z M 7.1 22.9 C 7.5 22.9 7.1 23.5 7.1 22.9 C 7.1 22.9 7.1 22.9 7.1 22.9 Z M 2.1 27.5 C 2.4 27.5 2.0 28.1 2.1 27.5 C 2.1 27.5 2.1 27.5 2.1 27.5 Z M 2.4 22.5 C 2.8 22.5 2.4 23.2 2.4 22.5 C 2.4 22.5 2.4 22.5 2.4 22.5 Z M 6.9 24.6 C 6.6 25.7 6.4 23.7 6.7 23.6 C 6.7 23.8 7.2 24.4 6.9 24.6 C 6.9 24.6 6.9 24.6 6.9 24.6 Z M 4.7 24.8 C 4.8 24.9 4.9 25.3 4.5 25.3 C 4.4 25.0 4.6 24.7 4.7 24.8 C 4.7 24.8 4.7 24.8 4.7 24.8 Z M 6.3 19.5 C 6.4 19.6 6.4 20.0 6.1 20.0 C 6.0 19.7 6.1 19.4 6.3 19.5 C 6.3 19.5 6.3 19.5 6.3 19.5 Z M 5.9 25.8 C 5.8 26.1 5.5 26.2 5.4 25.9 C 5.6 25.7 5.7 25.0 5.9 25.8 C 5.9 25.8 5.9 25.8 5.9 25.8 Z M 7.2 27.5 C 7.0 28.4 6.4 26.6 6.6 26.6 C 6.8 26.3 7.5 27.0 7.2 27.5 C 7.2 27.5 7.2 27.5 7.2 27.5 Z M 5.4 26.4 C 5.2 27.1 5.1 26.0 5.4 26.4 C 5.4 26.4 5.4 26.4 5.4 26.4 Z M 3.4 20.2 C 3.2 20.9 3.2 19.9 3.4 20.2 C 3.4 20.2 3.4 20.2 3.4 20.2 Z M 2.3 24.1 C 2.1 24.8 2.0 23.8 2.3 24.1 C 2.3 24.1 2.3 24.1 2.3 24.1 Z M 6.1 22.7 C 6.2 21.4 7.1 22.5 6.1 22.7 C 6.1 22.7 6.1 22.7 6.1 22.7 Z M 7.2 29.6 C 7.3 28.3 8.2 29.4 7.2 29.6 C 7.2 29.6 7.2 29.6 7.2 29.6 Z M 7.0 17.7 C 7.1 18.7 9.0 15.1 7.2 16.2 C 5.9 16.4 6.8 13.7 7.7 14.7 C 8.1 14.0 8.1 14.1 7.8 13.4 C 8.7 13.7 9.9 12.5 9.9 11.7 C 9.5 10.9 9.1 12.6 9.1 11.3 C 10.3 9.2 8.2 10.9 8.1 9.5 C 8.2 9.4 8.6 9.7 8.5 9.3 C 7.8 8.6 6.3 9.5 6.2 8.5 C 6.1 8.9 4.0 10.2 5.2 9.9 C 6.1 10.1 3.0 11.5 4.4 12.0 C 3.5 12.4 4.1 13.4 3.1 13.8 C 2.7 14.3 3.5 14.5 3.7 14.5 C 4.4 14.7 2.0 14.8 3.0 15.9 C 2.7 16.0 2.4 18.5 3.2 16.7 C 3.1 17.2 2.6 20.0 3.9 18.6 C 4.6 16.7 5.2 20.5 5.4 18.4 C 5.6 16.9 5.4 16.6 6.0 17.8 C 5.9 18.1 5.9 19.8 6.6 18.4 C 6.5 18.1 6.7 17.4 7.0 17.7 C 7.0 17.7 7.0 17.7 7.0 17.7 Z M 5.0 17.8 C 5.1 16.8 5.5 17.7 5.0 17.8 C 5.0 17.8 5.0 17.8 5.0 17.8 Z M 2.9 13.6 C 3.1 12.6 3.4 13.7 2.9 13.6 C 2.9 13.6 2.9 13.6 2.9 13.6 Z M 7.8 15.4 C 7.6 14.9 8.9 15.2 7.8 15.4 C 7.8 15.4 7.8 15.4 7.8 15.4 Z M 3.5 15.6 C 3.5 15.5 3.6 15.8 3.6 16.0 C 3.6 16.0 3.4 15.7 3.5 15.6 C 3.5 15.6 3.5 15.6 3.5 15.6 Z M 8.3 14.2 C 8.1 12.9 9.4 14.4 8.3 14.2 C 8.3 14.2 8.3 14.2 8.3 14.2 Z M 8.3 11.4 C 7.2 10.6 9.2 10.6 8.3 11.4 C 8.3 11.4 8.3 11.4 8.3 11.4 Z M 4.7 11.6 C 4.9 12.0 4.5 11.7 4.7 11.6 C 4.7 11.6 4.7 11.6 4.7 11.6 Z M 2.8 18.0 C 3.0 18.3 2.6 18.3 2.8 18.0 C 2.8 18.0 2.8 18.0 2.8 18.0 Z M 5.8 10.0 C 6.1 10.4 5.3 10.3 5.8 10.0 C 5.8 10.0 5.8 10.0 5.8 10.0 Z M 7.4 15.0 C 8.1 16.4 5.4 15.7 7.4 15.0 C 7.4 15.0 7.4 15.0 7.4 15.0 Z M 7.0 16.9 C 7.1 17.7 6.3 16.6 6.6 16.3 C 6.7 16.4 7.0 16.8 7.0 16.9 C 7.0 16.9 7.0 16.9 7.0 16.9 Z M 7.7 13.9 C 7.9 14.8 7.1 14.4 7.7 13.9 C 7.7 13.9 7.7 13.9 7.7 13.9 Z M 7.6 15.8 C 7.4 16.1 7.6 15.5 7.6 15.8 C 7.6 15.8 7.6 15.8 7.6 15.8 Z M 9.3 13.1 C 9.0 13.4 9.3 12.8 9.3 13.1 C 9.3 13.1 9.3 13.1 9.3 13.1 Z M 7.4 17.9 C 7.3 18.2 7.3 17.6 7.4 17.9 C 7.4 17.9 7.4 17.9 7.4 17.9 Z M 8.6 13.0 C 8.2 12.7 6.7 13.0 8.5 11.9 C 8.9 11.8 9.1 12.8 8.6 13.0 C 8.6 13.0 8.6 13.0 8.6 13.0 Z M 6.3 33.4 C 7.8 28.0 5.1 29.3 4.6 29.1 C 3.9 28.3 3.4 29.1 2.9 30.1 C 1.2 31.3 4.7 31.8 3.0 32.6 C 0.7 34.1 5.0 34.3 2.6 34.9 C 2.0 34.7 2.5 36.8 2.6 36.6 C 1.5 37.6 3.5 39.1 3.7 39.2 C 3.4 39.9 1.3 39.9 2.9 42.1 C 3.4 43.8 1.3 44.5 2.8 44.1 C 1.1 45.3 3.2 44.9 2.7 46.1 C 1.8 47.0 4.1 46.2 2.4 47.7 C 3.7 48.4 1.4 47.0 2.4 51.2 C 2.6 49.2 3.5 53.1 2.6 52.3 C 1.6 50.9 3.0 54.3 2.4 56.2 C 2.9 56.7 4.1 59.0 2.8 58.6 C 1.2 60.5 3.7 60.6 2.4 61.4 C 1.9 62.1 3.1 62.3 3.0 62.7 C 2.0 63.4 2.6 64.1 2.4 66.5 C 1.9 71.8 4.9 67.3 5.2 69.3 C 5.7 69.6 8.9 66.7 6.5 67.9 C 7.1 67.5 4.6 63.1 7.3 65.3 C 6.2 63.6 8.4 65.7 7.1 62.3 C 5.2 66.9 6.4 57.1 7.3 61.5 C 7.8 60.8 7.7 59.0 7.2 60.3 C 5.6 60.8 8.0 57.2 6.0 59.0 C 6.5 56.2 4.7 56.9 6.0 56.1 C 8.2 55.5 5.4 56.3 6.0 54.8 C 6.1 51.5 8.6 54.1 6.9 52.1 C 8.0 48.9 6.0 51.4 5.7 50.3 C 4.1 50.0 6.9 47.0 7.1 49.4 C 6.2 48.1 7.8 49.2 6.8 47.7 C 5.4 48.8 8.3 45.8 7.2 46.2 C 6.8 44.9 6.0 45.6 5.9 45.2 C 5.9 43.2 7.3 43.8 6.3 43.4 C 5.7 43.0 7.6 42.0 7.1 41.8 C 7.0 43.8 5.6 40.1 6.4 39.9 C 6.5 41.2 8.2 39.3 7.1 38.5 C 4.0 39.5 7.9 36.7 6.8 35.8 C 5.1 36.7 6.6 31.4 7.4 33.4 C 7.3 33.2 6.3 33.4 6.3 33.4 M 6.8 41.2 C 6.7 42.9 6.5 39.4 6.8 41.2 M 7.3 41.1 C 6.7 41.9 7.7 39.6 7.5 41.2 C 7.5 41.2 7.3 41.0 7.3 41.1 M 7.4 48.0 C 6.9 47.8 7.6 47.1 7.4 48.0 M 6.3 49.4 C 5.8 50.5 6.2 47.9 6.3 49.4 M 6.6 64.6 C 4.1 63.1 8.1 63.0 6.6 64.6 M 7.2 54.5 C 6.8 52.7 8.2 55.2 7.2 54.5 M 6.5 54.0 C 6.1 53.1 7.1 53.8 6.5 54.0 M 6.6 61.7 C 6.6 61.8 6.6 61.8 6.6 61.7 C 6.6 61.7 6.6 61.7 6.6 61.7 Z M 6.6 66.2 C 6.6 66.3 6.6 66.3 6.6 66.2 C 6.6 66.2 6.6 66.2 6.6 66.2 Z M 6.4 57.3 C 7.0 55.9 6.6 59.6 6.4 57.3 C 6.4 57.3 6.4 57.3 6.4 57.3 Z M 2.7 64.1 C 2.6 64.0 2.6 64.0 2.7 64.1 C 2.7 64.1 2.7 64.1 2.7 64.1 Z M 5.7 39.9 C 5.6 39.8 5.6 39.8 5.7 39.9 C 5.7 39.9 5.7 39.9 5.7 39.9 Z M 6.6 34.7 C 6.3 34.8 6.9 33.8 6.6 34.7 C 6.6 34.7 6.6 34.7 6.6 34.7 Z M 3.7 30.6 C 3.7 30.5 3.7 30.5 3.7 30.6 C 3.7 30.6 3.7 30.6 3.7 30.6 Z M 4.3 38.2 C 4.3 38.1 4.3 38.1 4.3 38.2 C 4.3 38.2 4.3 38.2 4.3 38.2 Z M 6.2 38.9 C 7.6 38.1 5.9 40.9 6.2 38.9 C 6.2 38.9 6.2 38.9 6.2 38.9 Z M 2.8 55.6 C 3.4 55.6 2.6 56.8 2.8 55.6 C 2.8 55.6 2.8 55.6 2.8 55.6 Z M 5.7 49.6 C 6.0 49.8 5.6 50.3 5.7 49.6 C 5.7 49.6 5.7 49.6 5.7 49.6 Z M 7.6 46.7 C 8.0 46.9 7.5 47.5 7.6 46.7 C 7.6 46.7 7.6 46.7 7.6 46.7 Z M 7.0 34.8 C 7.1 34.9 7.1 34.9 7.0 34.8 C 7.0 34.8 7.0 34.8 7.0 34.8 Z M 6.0 36.7 C 7.3 35.4 5.2 38.6 6.0 36.7 C 6.0 36.7 6.0 36.7 6.0 36.7 Z M 5.6 34.5 C 5.1 35.2 5.8 32.8 5.6 34.5 M 3.6 35.7 C 4.1 37.3 1.2 34.3 3.6 35.7 C 3.6 35.7 3.6 35.7 3.6 35.7 Z M 3.0 43.7 C 3.0 43.8 3.0 43.8 3.0 43.7 C 3.0 43.7 3.0 43.7 3.0 43.7 Z M 6.9 42.8 C 6.8 44.2 6.6 41.9 6.9 42.8 C 6.9 42.8 6.9 42.8 6.9 42.8 Z M 7.2 30.9 C 7.1 32.3 6.9 30.0 7.2 30.9 C 7.2 30.9 7.2 30.9 7.2 30.9 Z M 4.3 48.3 C 4.5 50.5 3.6 46.9 4.3 48.3 C 4.3 48.3 4.3 48.3 4.3 48.3 Z M 5.9 56.5 C 5.8 56.6 5.8 56.6 5.9 56.5 C 5.9 56.5 5.9 56.5 5.9 56.5 Z M 6.4 58.1 C 6.4 58.1 6.4 58.1 6.4 58.1 C 6.4 58.1 6.4 58.1 6.4 58.1 Z M 5.0 64.5 C 5.0 64.6 5.0 64.6 5.0 64.5 C 5.0 64.5 5.0 64.5 5.0 64.5 Z M 7.0 59.5 C 7.0 59.5 7.0 59.5 7.0 59.5 C 7.0 59.5 7.0 59.5 7.0 59.5 Z M 6.7 63.9 C 6.6 64.0 6.6 64.0 6.7 63.9 C 6.7 63.9 6.7 63.9 6.7 63.9 Z M 7.8 63.3 C 7.8 63.4 7.8 63.4 7.8 63.3 C 7.8 63.3 7.8 63.3 7.8 63.3 Z M 2.0 53.4 C 2.0 53.5 2.0 53.5 2.0 53.4 C 2.0 53.4 2.0 53.4 2.0 53.4 Z M 7.5 37.3 C 7.4 37.4 7.4 37.4 7.5 37.3 C 7.5 37.3 7.5 37.3 7.5 37.3 Z M 6.2 63.6 C 6.1 63.6 6.1 63.6 6.2 63.6 C 6.2 63.6 6.2 63.6 6.2 63.6 Z M 5.1 52.7 C 4.0 52.8 6.6 51.8 5.2 53.0 C 5.1 52.9 5.3 52.6 5.1 52.7 M 3.3 54.2 C 3.2 54.1 3.2 54.1 3.3 54.2 C 3.3 54.2 3.3 54.2 3.3 54.2 Z M 2.6 49.3 C 2.5 49.2 2.5 49.2 2.6 49.3 C 2.6 49.3 2.6 49.3 2.6 49.3 Z M 7.3 58.7 C 7.9 58.5 6.8 59.9 7.2 58.5 M 3.1 64.5 C 3.7 64.3 2.6 65.7 3.0 64.3 M 6.8 29.3 C 6.3 29.1 7.0 28.4 6.8 29.3 M 2.0 48.2 C 1.5 48.0 2.2 47.2 2.0 48.2 M 3.4 50.5 C 4.0 50.3 2.9 51.7 3.4 50.3 M 3.1 61.2 C 3.1 61.2 3.1 61.2 3.1 61.2 C 3.1 61.2 3.1 61.2 3.1 61.2 Z M 6.8 44.9 C 6.8 45.0 6.8 45.0 6.8 44.9 C 6.8 44.9 6.8 44.9 6.8 44.9 Z M 5.4 50.9 C 6.3 50.1 4.9 52.0 5.4 50.9 M 5.3 43.2 C 6.3 42.0 4.9 45.1 5.3 43.2 M 2.8 67.1 C 4.1 65.7 2.1 68.1 2.8 67.1 M 6.0 60.5 C 7.3 59.2 5.3 61.5 6.0 60.5 M 6.2 46.1 C 6.9 46.1 5.8 47.5 6.2 46.1 M 6.9 32.4 C 7.0 31.2 7.4 34.1 6.9 32.4 M 3.1 57.9 C 3.0 58.0 3.0 58.0 3.1 57.9 C 3.1 57.9 3.1 57.9 3.1 57.9 Z M 1.9 36.6 C 1.9 36.6 1.9 36.6 1.9 36.6 C 1.9 36.6 1.9 36.6 1.9 36.6 Z M 7.0 68.8 C 7.0 68.8 7.0 68.8 7.0 68.8 C 7.0 68.8 7.0 68.8 7.0 68.8 Z M 5.4 59.7 C 5.4 59.7 5.4 59.7 5.4 59.7 C 5.4 59.7 5.4 59.7 5.4 59.7 Z M 7.2 66.2 C 7.1 66.3 7.1 66.3 7.2 66.2 C 7.2 66.2 7.2 66.2 7.2 66.2 Z M 4.4 55.5 C 4.4 55.6 4.4 55.6 4.4 55.5 C 4.4 55.5 4.4 55.5 4.4 55.5 Z M 7.7 54.7 C 7.7 54.7 7.7 54.7 7.7 54.7 C 7.7 54.7 7.7 54.7 7.7 54.7 Z M 6.3 50.1 C 6.3 50.2 6.3 50.2 6.3 50.1 C 6.3 50.1 6.3 50.1 6.3 50.1 Z M 7.5 56.8 C 7.7 59.5 6.4 55.4 7.5 56.8 C 7.5 56.8 7.5 56.8 7.5 56.8 Z M 4.2 52.1 C 4.1 52.1 4.1 52.1 4.2 52.1 C 4.2 52.1 4.2 52.1 4.2 52.1 Z M 6.5 51.7 C 7.5 53.4 4.9 52.6 6.5 51.7 M 7.3 44.1 C 7.8 44.7 6.5 44.4 7.3 44.1 M 3.0 41.1 C 2.9 41.1 2.9 41.1 3.0 41.1 C 3.0 41.1 3.0 41.1 3.0 41.1 Z M 3.3 41.9 C 3.3 42.0 3.3 42.0 3.3 41.9 C 3.3 41.9 3.3 41.9 3.3 41.9 Z M 7.5 42.3 C 7.5 42.3 7.5 42.3 7.5 42.3 C 7.5 42.3 7.5 42.3 7.5 42.3 Z M 2.1 42.0 C 2.0 42.1 2.0 42.1 2.1 42.0 C 2.1 42.0 2.1 42.0 2.1 42.0 Z M 7.6 53.7 C 7.6 53.7 7.6 53.7 7.6 53.7 C 7.6 53.7 7.6 53.7 7.6 53.7 Z M 7.7 67.5 C 7.7 67.6 7.7 67.6 7.7 67.5 C 7.7 67.5 7.7 67.5 7.7 67.5 Z M 3.4 32.8 C 3.4 32.9 3.4 32.9 3.4 32.8 C 3.4 32.8 3.4 32.8 3.4 32.8 Z M 6.3 55.1 C 6.3 55.1 6.3 55.1 6.3 55.1 C 6.3 55.1 6.3 55.1 6.3 55.1 Z M 3.2 39.2 C 3.1 39.2 3.1 39.2 3.2 39.2 C 3.2 39.2 3.2 39.2 3.2 39.2 Z M 6.6 54.2 C 6.6 54.2 6.6 54.2 6.6 54.2 C 6.6 54.2 6.6 54.2 6.6 54.2 Z M 2.8 57.5 C 2.8 57.5 2.8 57.5 2.8 57.5 C 2.8 57.5 2.8 57.5 2.8 57.5 Z M 2.0 60.5 C 2.0 60.5 2.0 60.5 2.0 60.5 C 2.0 60.5 2.0 60.5 2.0 60.5 Z M 5.1 57.3 C 5.1 57.3 5.1 57.3 5.1 57.3 C 5.1 57.3 5.1 57.3 5.1 57.3 Z M 4.6 38.2 C 5.7 32.7 5.1 42.5 4.6 38.2 M 4.8 58.2 C 5.1 54.4 6.1 61.2 4.8 58.2 C 5.2 58.6 4.9 58.2 4.8 58.2 M 7.6 70.1 C 6.4 68.6 5.2 68.6 3.9 69.2 C 3.3 70.0 5.8 70.0 3.7 70.0 C 3.3 68.2 0.6 70.8 3.3 70.8 C 3.6 73.1 1.6 71.2 2.6 72.6 C 2.9 75.1 2.1 73.8 2.3 75.7 C 3.7 76.9 1.6 76.9 2.9 77.4 C 1.4 76.4 3.3 79.4 2.7 79.5 C 1.7 77.7 2.6 86.2 3.1 81.6 C 3.8 83.5 2.5 83.1 2.4 83.8 C 3.2 84.6 1.7 86.9 2.5 88.0 C 2.7 87.8 2.8 87.2 3.1 87.1 C 3.6 86.7 3.0 88.4 3.0 88.2 C 3.3 89.0 4.2 92.0 2.7 88.8 C 1.9 88.6 3.0 91.4 2.3 91.3 C 2.3 94.1 3.8 92.0 2.7 93.3 C 2.7 95.3 2.7 96.7 2.8 96.7 C 2.7 97.9 1.9 98.2 2.7 99.3 C 1.1 101.8 5.7 101.0 2.6 102.0 C 3.3 102.7 1.3 103.3 3.2 103.2 C 2.4 102.4 1.7 107.5 3.1 105.3 C 3.6 105.8 1.2 109.0 3.1 108.6 C 4.5 109.7 5.9 109.5 7.3 107.0 C 6.2 107.3 8.4 104.4 6.5 106.3 C 5.9 108.4 5.9 102.4 6.5 103.6 C 8.8 104.0 5.1 100.7 6.8 99.4 C 5.9 100.5 5.4 95.6 7.1 97.0 C 7.2 96.1 6.4 95.9 7.4 94.9 C 7.3 97.8 5.6 93.8 6.7 93.9 C 7.3 94.4 7.8 90.1 6.9 90.5 C 4.5 92.0 7.4 89.4 6.4 88.6 C 5.9 86.2 8.4 89.0 6.7 87.2 C 7.0 86.7 7.0 83.5 7.5 85.5 C 7.3 86.3 4.9 83.6 6.9 83.3 C 8.0 86.7 7.5 79.4 6.9 80.5 C 5.8 85.8 5.7 74.9 6.8 79.0 C 7.9 76.7 7.2 79.7 6.7 76.8 C 6.1 77.2 5.5 74.9 6.8 75.5 C 8.7 75.0 4.2 74.7 6.8 72.9 C 7.9 72.6 6.0 69.4 7.2 70.6 C 7.4 70.7 7.6 70.2 7.6 70.1 M 7.4 71.2 C 6.9 70.8 7.9 70.5 7.4 71.2 M 7.0 70.8 C 7.0 70.7 7.0 70.7 7.0 70.8 C 7.0 70.8 7.0 70.8 7.0 70.8 Z M 6.7 76.4 C 6.7 76.4 6.7 76.4 6.7 76.4 C 6.7 76.4 6.7 76.4 6.7 76.4 Z M 1.9 80.9 C 2.0 80.8 2.0 80.8 1.9 80.9 C 1.9 80.9 1.9 80.9 1.9 80.9 Z M 6.6 80.2 C 6.6 80.1 6.6 80.1 6.6 80.2 C 6.6 80.2 6.6 80.2 6.6 80.2 Z M 6.4 74.4 C 6.4 74.3 6.4 74.3 6.4 74.4 C 6.4 74.4 6.4 74.4 6.4 74.4 Z M 7.2 79.8 C 6.5 80.1 7.8 78.5 7.4 79.9 C 7.3 79.9 7.3 79.7 7.2 79.8 M 7.5 84.7 C 7.4 84.7 7.4 84.7 7.5 84.7 M 2.0 95.5 C 1.9 95.6 1.9 95.6 2.0 95.5 M 7.6 96.4 C 7.5 96.5 7.5 96.5 7.6 96.4 M 6.8 89.6 C 6.9 91.1 6.5 90.0 6.8 89.6 M 7.2 100.4 C 7.6 98.5 7.6 102.4 7.2 100.4 M 7.6 102.2 C 7.5 102.4 7.5 102.4 7.6 102.2 M 7.3 93.7 C 7.3 93.7 7.3 93.7 7.3 93.7 C 7.3 93.7 7.3 93.7 7.3 93.7 Z M 7.1 89.0 C 7.5 87.0 7.8 91.0 7.1 89.0 M 7.3 77.1 C 7.7 78.1 6.4 77.1 7.3 77.1 M 6.9 74.8 C 6.9 74.8 6.9 74.8 6.9 74.8 C 6.9 74.8 6.9 74.8 6.9 74.8 Z M 7.2 97.3 C 7.2 97.3 7.2 97.3 7.2 97.3 C 7.2 97.3 7.2 97.3 7.2 97.3 Z M 7.3 99.5 C 7.3 99.4 7.3 99.4 7.3 99.5 C 7.3 99.5 7.3 99.5 7.3 99.5 Z M 2.1 103.1 C 2.1 103.1 2.1 103.1 2.1 103.1 C 2.1 103.1 2.1 103.1 2.1 103.1 Z M 4.8 76.5 C 5.1 75.0 6.5 78.0 5.2 77.7 C 4.7 77.8 4.9 76.7 4.8 76.5 M 5.5 87.5 C 3.7 87.9 7.9 86.1 5.5 87.5 M 6.4 102.5 C 4.3 103.9 7.9 100.6 6.4 102.5 M 6.8 105.4 C 6.4 106.3 6.6 99.9 7.1 104.4 C 7.5 104.8 7.0 105.1 6.8 105.4 M 6.7 84.8 C 5.7 85.2 7.1 82.5 6.7 84.8 M 3.7 93.8 C 4.4 94.5 4.9 96.4 3.8 95.6 C 2.5 95.6 3.2 92.9 3.7 93.8 M 6.4 71.6 C 7.9 72.8 5.0 71.6 6.4 71.6 M 6.2 77.3 C 6.3 77.4 6.3 77.4 6.2 77.3 C 6.2 77.3 6.2 77.3 6.2 77.3 Z M 6.5 79.6 C 6.4 79.7 6.4 79.7 6.5 79.6 M 7.7 72.5 C 7.6 72.7 7.6 72.7 7.7 72.5 M 5.4 93.8 C 5.2 93.9 5.2 93.9 5.4 93.8 M 6.4 89.2 C 4.8 91.4 6.1 88.0 6.4 89.2 M 3.4 83.8 C 2.7 84.5 3.3 82.4 3.4 83.8 M 7.0 92.8 C 5.5 94.3 5.6 90.6 7.0 92.8 M 6.6 88.1 C 6.6 88.2 6.6 88.2 6.6 88.1 C 6.6 88.1 6.6 88.1 6.6 88.1 Z M 3.6 94.4 C 3.5 94.3 3.5 94.3 3.6 94.4 C 3.6 94.4 3.6 94.4 3.6 94.4 Z M 3.6 95.1 C 3.6 95.0 3.6 95.0 3.6 95.1 C 3.6 95.1 3.6 95.1 3.6 95.1 Z M 7.2 94.7 C 7.1 94.6 7.1 94.6 7.2 94.7 C 7.2 94.7 7.2 94.7 7.2 94.7 Z M 2.9 74.7 C 2.8 76.2 2.6 73.5 2.9 74.7 C 2.9 74.7 2.9 74.7 2.9 74.7 Z M 7.2 81.6 C 6.1 84.2 6.1 79.8 7.2 81.6 C 7.2 81.6 7.2 81.6 7.2 81.6 Z M 5.3 84.5 C 5.2 84.5 5.2 84.5 5.3 84.5 C 5.3 84.5 5.3 84.5 5.3 84.5 Z M 7.9 91.8 C 7.8 91.8 7.8 91.8 7.9 91.8 C 7.9 91.8 7.9 91.8 7.9 91.8 Z M 2.7 75.5 C 2.6 75.5 2.6 75.5 2.7 75.5 C 2.7 75.5 2.7 75.5 2.7 75.5 Z M 6.4 99.1 C 6.3 99.1 6.3 99.1 6.4 99.1 C 6.4 99.1 6.4 99.1 6.4 99.1 Z M 3.3 90.2 C 3.9 90.7 2.9 90.3 3.3 90.2 C 3.3 90.2 3.3 90.2 3.3 90.2 Z M 3.3 92.5 C 3.3 92.6 3.3 92.6 3.3 92.5 C 3.3 92.5 3.3 92.5 3.3 92.5 Z M 7.7 102.8 C 7.7 102.8 7.7 102.8 7.7 102.8 C 7.7 102.8 7.7 102.8 7.7 102.8 Z M 1.9 98.4 C 1.9 98.5 1.9 98.5 1.9 98.4 C 1.9 98.4 1.9 98.4 1.9 98.4 Z M 3.7 100.4 C 3.6 100.3 3.6 100.3 3.7 100.4 C 3.7 100.4 3.7 100.4 3.7 100.4 Z M 6.8 94.3 C 7.1 96.6 6.1 93.7 6.8 94.3 C 6.8 94.3 6.8 94.3 6.8 94.3 Z M 4.1 106.1 C 4.0 106.2 4.0 106.2 4.1 106.1 C 4.1 106.1 4.1 106.1 4.1 106.1 Z M 6.2 107.3 C 6.1 107.4 6.1 107.4 6.2 107.3 C 6.2 107.3 6.2 107.3 6.2 107.3 Z M 7.2 107.9 C 7.1 108.0 7.1 108.0 7.2 107.9 C 7.2 107.9 7.2 107.9 7.2 107.9 Z M 4.3 79.6 C 4.4 79.5 4.4 79.5 4.3 79.6 C 4.3 79.6 4.3 79.6 4.3 79.6 Z M 7.6 78.6 C 7.6 78.6 7.6 78.6 7.6 78.6 C 7.6 78.6 7.6 78.6 7.6 78.6 Z M 7.7 81.8 C 7.8 81.8 7.8 81.8 7.7 81.8 C 7.7 81.8 7.7 81.8 7.7 81.8 Z M 2.3 79.0 C 2.4 78.9 2.4 78.9 2.3 79.0 C 2.3 79.0 2.3 79.0 2.3 79.0 Z M 5.1 90.8 C 5.2 90.8 5.2 90.8 5.1 90.8 C 5.1 90.8 5.1 90.8 5.1 90.8 Z M 3.8 91.9 C 3.8 91.9 3.8 91.9 3.8 91.9 C 3.8 91.9 3.8 91.9 3.8 91.9 Z M 2.0 89.2 C 2.0 89.2 2.0 89.2 2.0 89.2 C 2.0 89.2 2.0 89.2 2.0 89.2 Z M 2.6 92.8 C 2.7 92.7 2.7 92.7 2.6 92.8 C 2.6 92.8 2.6 92.8 2.6 92.8 Z M 2.9 71.1 C 2.9 71.1 2.9 71.1 2.9 71.1 C 2.9 71.1 2.9 71.1 2.9 71.1 Z M 5.4 70.8 C 5.4 70.8 5.4 70.8 5.4 70.8 C 5.4 70.8 5.4 70.8 5.4 70.8 Z M 6.9 91.2 C 7.5 91.7 6.2 92.2 6.9 91.2 M 6.6 86.7 C 6.6 86.6 6.6 86.6 6.6 86.7 C 6.6 86.7 6.6 86.7 6.6 86.7 Z M 6.8 98.7 C 5.8 99.3 7.4 96.6 6.8 98.7 C 6.8 98.7 6.8 98.7 6.8 98.7 Z M 2.6 96.4 C 2.6 96.4 2.6 96.4 2.6 96.4 C 2.6 96.4 2.6 96.4 2.6 96.4 Z M 3.1 97.5 C 3.0 97.6 3.0 97.6 3.1 97.5 C 3.1 97.5 3.1 97.5 3.1 97.5 Z M 5.8 104.0 C 5.7 104.2 5.7 104.2 5.8 104.0 M 7.5 86.1 C 7.1 86.8 7.2 86.6 7.5 86.1 M 6.8 100.3 C 6.8 100.2 6.8 100.2 6.8 100.3 C 6.8 100.3 6.8 100.3 6.8 100.3 Z M 6.3 105.5 C 6.3 105.4 6.3 105.4 6.3 105.5 C 6.3 105.5 6.3 105.5 6.3 105.5 Z M 6.8 82.9 C 5.6 83.0 5.9 82.4 6.8 82.9 M 6.4 73.9 C 6.4 73.9 6.4 73.9 6.4 73.9 C 6.4 73.9 6.4 73.9 6.4 73.9 Z M 7.2 112.6 C 8.5 110.2 6.7 110.2 6.6 110.2 C 9.2 110.4 5.6 108.0 5.1 108.5 C 4.7 108.4 0.3 110.3 3.0 112.0 C 3.3 112.5 2.6 112.7 2.5 113.1 C 2.6 116.1 3.9 111.0 3.9 114.7 C 3.5 115.3 1.4 114.6 2.9 116.7 C 2.7 116.8 1.9 119.2 2.8 118.3 C 1.9 119.5 3.0 120.2 3.3 121.3 C 2.7 122.3 1.7 120.5 2.9 124.0 C 1.1 125.5 4.2 126.1 2.3 127.4 C 2.2 128.3 5.4 129.6 3.6 127.6 C 3.8 127.9 5.3 126.6 4.8 129.4 C 4.4 129.0 1.1 127.5 2.7 131.8 C 2.6 132.5 3.4 134.2 3.1 134.6 C 2.7 132.3 1.7 137.6 2.6 137.1 C 2.0 140.6 3.4 138.6 2.3 141.1 C 2.3 143.2 3.8 140.4 2.9 143.0 C 3.1 144.9 2.3 143.6 2.4 143.4 C 2.2 145.1 2.8 145.7 2.7 146.3 C 2.6 146.6 1.9 147.4 2.7 147.8 C 4.2 149.6 5.7 148.0 7.1 148.8 C 7.8 147.4 6.0 148.2 7.1 147.3 C 6.2 146.6 7.2 147.2 7.0 143.7 C 6.7 143.7 6.1 144.6 6.0 143.7 C 6.1 142.4 8.6 143.3 6.9 141.1 C 6.3 143.8 6.1 137.3 5.5 139.8 C 5.2 136.7 5.7 138.9 6.3 136.7 C 4.7 136.8 8.1 136.5 6.8 135.7 C 7.5 135.4 7.2 131.9 6.2 134.4 C 5.7 130.8 6.7 133.1 7.5 131.8 C 7.7 130.1 4.8 131.7 6.9 130.6 C 7.8 128.4 5.9 130.5 7.5 128.9 C 6.0 129.6 7.5 127.3 5.9 127.9 C 5.8 124.1 7.6 128.4 6.5 125.7 C 6.4 126.5 8.5 126.2 7.2 124.6 C 4.7 125.3 9.4 122.5 6.1 123.7 C 5.2 118.4 7.4 122.8 7.5 119.9 C 7.4 119.1 6.4 120.7 6.4 120.0 C 6.8 116.3 7.7 119.4 6.1 117.4 C 5.7 113.8 7.4 116.4 7.6 114.6 C 6.8 114.4 5.5 113.0 7.2 112.6 M 6.4 115.9 C 6.9 116.7 5.9 116.4 6.4 115.9 M 7.2 108.5 C 7.7 109.3 6.7 109.0 7.2 108.5 M 6.9 118.9 C 7.4 120.0 6.0 119.3 6.9 118.9 M 6.1 138.7 C 6.1 137.3 6.5 139.4 6.1 138.7 M 7.3 111.5 C 7.9 112.5 6.4 111.8 7.3 111.5 M 6.0 110.1 C 6.0 110.2 6.0 110.2 6.0 110.1 M 7.4 140.7 C 7.4 140.8 7.4 140.8 7.4 140.7 M 7.5 135.4 C 7.4 136.5 7.1 134.8 7.5 135.4 M 2.1 135.2 C 2.0 136.3 1.7 134.5 2.1 135.2 M 7.5 143.6 C 7.9 144.7 6.9 143.9 7.5 143.6 M 6.3 146.5 C 6.8 147.6 5.8 147.2 6.3 146.5 M 4.6 115.2 C 4.5 115.2 4.5 115.2 4.6 115.2 C 4.6 115.2 4.6 115.2 4.6 115.2 Z M 3.2 125.0 C 3.8 123.8 2.6 126.4 3.2 125.0 M 6.7 123.2 C 5.6 123.9 6.8 121.7 6.7 123.2 C 6.7 123.2 6.7 123.2 6.7 123.2 Z M 6.2 121.5 C 6.2 121.4 6.2 121.4 6.2 121.5 C 6.2 121.5 6.2 121.5 6.2 121.5 Z M 6.2 127.0 C 6.2 126.9 6.2 126.9 6.2 127.0 C 6.2 127.0 6.2 127.0 6.2 127.0 Z M 6.1 125.8 C 5.8 125.4 6.3 125.2 6.1 125.8 C 6.1 125.8 6.1 125.8 6.1 125.8 Z M 2.6 133.8 C 2.4 133.3 2.8 133.2 2.6 133.8 C 2.6 133.8 2.6 133.8 2.6 133.8 Z M 5.7 124.1 C 4.6 123.9 6.4 123.3 5.7 124.1 C 5.7 124.1 5.7 124.1 5.7 124.1 Z M 3.1 130.0 C 3.4 130.5 2.1 131.0 3.1 130.0 M 7.2 141.8 C 7.5 142.3 6.2 142.8 7.2 141.8 M 7.5 130.2 C 7.8 130.7 6.5 131.2 7.5 130.2 M 6.9 116.5 C 6.8 116.6 6.8 116.6 6.9 116.5 M 2.2 123.0 C 2.6 123.7 1.7 123.4 2.2 123.0 M 2.5 112.0 C 2.9 112.8 2.0 112.4 2.5 112.0 M 2.2 140.2 C 2.5 140.1 2.1 141.3 2.2 140.2 M 5.8 131.6 C 5.7 132.6 5.1 133.6 5.1 131.5 C 5.4 131.4 5.6 132.0 5.8 131.6 C 5.8 131.6 5.8 131.6 5.8 131.6 Z M 3.3 135.2 C 3.2 135.4 3.2 135.4 3.3 135.2 M 6.8 133.4 C 6.7 133.5 6.7 133.5 6.8 133.4 M 6.7 139.3 C 6.5 139.4 6.5 139.4 6.7 139.3 M 7.0 140.0 C 7.0 140.0 7.0 140.0 7.0 140.0 C 7.0 140.0 7.0 140.0 7.0 140.0 Z M 7.5 146.6 C 7.4 146.6 7.4 146.6 7.5 146.6 C 7.5 146.6 7.5 146.6 7.5 146.6 Z M 6.6 137.4 C 6.5 137.4 6.5 137.4 6.6 137.4 C 6.6 137.4 6.6 137.4 6.6 137.4 Z M 2.4 142.8 C 2.4 142.8 2.4 142.8 2.4 142.8 C 2.4 142.8 2.4 142.8 2.4 142.8 Z M 3.1 142.1 C 3.0 142.1 3.0 142.1 3.1 142.1 C 3.1 142.1 3.1 142.1 3.1 142.1 Z M 7.2 113.1 C 8.0 114.0 5.3 113.6 7.2 113.1 M 3.0 145.0 C 2.3 145.9 2.9 143.5 3.0 145.0 C 3.0 145.0 3.0 145.0 3.0 145.0 Z M 5.6 136.7 C 5.5 136.8 5.5 136.8 5.6 136.7 M 6.9 140.4 C 6.8 140.5 6.8 140.5 6.9 140.4 M 7.7 123.1 C 7.6 123.2 7.6 123.2 7.7 123.1 M 6.7 145.0 C 6.4 147.8 5.1 143.7 6.7 145.0 M 6.7 121.8 C 6.8 121.8 6.8 121.8 6.7 121.8 M 4.7 128.1 C 4.7 129.9 4.1 127.4 4.7 128.1 M 6.0 132.8 C 6.0 132.8 6.0 132.8 6.0 132.8 C 6.0 132.8 6.0 132.8 6.0 132.8 Z M 6.0 130.1 C 5.9 128.7 6.3 129.7 6.0 130.1 C 6.0 130.1 6.0 130.1 6.0 130.1 Z M 6.2 114.5 C 6.0 116.2 5.8 112.7 6.2 114.5 C 6.2 114.5 6.2 114.5 6.2 114.5 Z M 4.2 143.7 C 4.1 143.7 4.1 143.7 4.2 143.7 C 4.2 143.7 4.2 143.7 4.2 143.7 Z M 7.3 137.1 C 7.0 136.3 7.6 136.7 7.3 137.1 C 7.3 137.1 7.3 137.1 7.3 137.1 Z M 7.5 147.5 C 7.2 146.7 7.8 147.2 7.5 147.5 C 7.5 147.5 7.5 147.5 7.5 147.5 Z M 6.4 112.3 C 4.6 118.8 6.9 103.8 6.4 112.3 C 6.4 112.3 6.4 112.3 6.4 112.3 Z M 6.8 131.2 C 6.7 131.1 6.7 131.1 6.8 131.2 C 6.8 131.2 6.8 131.2 6.8 131.2 Z M 7.5 119.3 C 7.5 119.3 7.5 119.3 7.5 119.3 C 7.5 119.3 7.5 119.3 7.5 119.3 Z M 6.5 117.3 C 6.5 117.2 6.5 117.2 6.5 117.3 C 6.5 117.3 6.5 117.3 6.5 117.3 Z M 2.3 117.8 C 2.2 117.8 2.2 117.8 2.3 117.8 C 2.3 117.8 2.3 117.8 2.3 117.8 Z M 4.2 118.5 C 4.1 118.4 4.1 118.4 4.2 118.5 C 4.2 118.5 4.2 118.5 4.2 118.5 Z M 3.5 114.4 C 3.4 114.3 3.4 114.3 3.5 114.4 C 3.5 114.4 3.5 114.4 3.5 114.4 Z M 2.9 114.5 C 2.9 114.4 2.9 114.4 2.9 114.5 C 2.9 114.5 2.9 114.5 2.9 114.5 Z M 5.7 140.4 C 5.6 140.4 5.6 140.4 5.7 140.4 C 5.7 140.4 5.7 140.4 5.7 140.4 Z M 3.9 138.2 C 4.6 139.7 3.0 137.8 3.9 138.2 C 3.9 138.2 3.9 138.2 3.9 138.2 Z M 4.8 124.9 C 5.0 126.3 4.3 124.0 4.8 124.9 C 4.8 124.9 4.8 124.9 4.8 124.9 Z M 2.5 126.4 C 2.5 126.4 2.5 126.4 2.5 126.4 C 2.5 126.4 2.5 126.4 2.5 126.4 Z M 7.6 117.3 C 7.5 117.2 7.5 117.2 7.6 117.3 C 7.6 117.3 7.6 117.3 7.6 117.3 Z M 6.8 114.8 C 5.9 114.7 7.3 114.0 6.8 114.8 M 7.4 127.5 C 7.2 127.5 7.2 127.5 7.4 127.5 C 7.4 127.5 7.4 127.5 7.4 127.5 Z M 5.9 135.6 C 5.9 135.5 5.9 135.5 5.9 135.6 C 5.9 135.6 5.9 135.6 5.9 135.6 Z M 6.5 143.5 C 6.4 143.5 6.4 143.5 6.5 143.5 C 6.5 143.5 6.5 143.5 6.5 143.5 Z M 7.2 132.5 C 7.1 132.5 7.1 132.5 7.2 132.5 C 7.2 132.5 7.2 132.5 7.2 132.5 Z M 6.4 128.7 C 6.3 128.7 6.3 128.7 6.4 128.7 C 6.4 128.7 6.4 128.7 6.4 128.7 Z M 5.3 145.3 C 5.2 145.2 5.2 145.2 5.3 145.3 C 5.3 145.3 5.3 145.3 5.3 145.3 Z M 7.4 133.4 C 7.3 133.4 7.3 133.4 7.4 133.4 C 7.4 133.4 7.4 133.4 7.4 133.4 Z M 4.5 135.7 C 4.4 135.6 4.4 135.6 4.5 135.7 C 4.5 135.7 4.5 135.7 4.5 135.7 Z M 8.1 115.1 C 8.1 115.1 8.1 115.1 8.1 115.1 C 8.1 115.1 8.1 115.1 8.1 115.1 Z M 6.5 145.4 C 6.4 145.4 6.4 145.4 6.5 145.4 C 6.5 145.4 6.5 145.4 6.5 145.4 Z M 7.3 145.9 C 7.2 145.8 7.2 145.8 7.3 145.9 C 7.3 145.9 7.3 145.9 7.3 145.9 Z M 3.0 140.2 C 3.5 137.4 3.2 142.7 4.2 140.7 C 4.4 144.7 2.9 140.8 3.0 140.2 C 3.0 140.2 3.0 140.2 3.0 140.2 Z M 7.6 149.7 C 6.4 148.1 5.2 148.1 3.9 148.8 C 3.3 149.5 5.8 149.5 3.7 149.6 C 3.3 147.8 0.6 150.3 3.3 150.3 C 3.6 152.7 1.6 150.7 2.6 152.1 C 2.9 154.6 1.9 153.4 2.4 155.7 C 4.1 156.8 2.0 157.2 3.4 157.4 C 1.7 156.7 4.6 159.5 4.0 159.8 C 2.3 158.3 7.5 166.3 5.4 161.7 C 7.0 163.1 5.8 163.4 6.1 164.1 C 7.4 164.3 8.1 167.2 9.7 167.3 C 9.6 166.9 9.1 166.5 9.2 166.2 C 9.3 165.5 10.3 167.1 10.1 167.0 C 11.0 167.2 14.3 168.3 10.5 167.6 C 9.9 168.1 13.2 168.7 12.8 169.3 C 15.8 170.6 14.0 168.3 15.1 169.7 C 17.3 170.4 19.0 170.4 19.0 170.2 C 20.4 170.4 20.6 171.2 21.7 170.4 C 24.2 172.0 23.4 167.4 24.4 170.5 C 25.1 169.7 25.8 171.7 25.7 169.8 C 24.8 170.7 29.9 171.3 27.7 169.9 C 28.3 169.5 31.4 171.9 31.0 169.9 C 32.1 168.5 31.9 167.1 29.4 165.8 C 29.7 166.9 26.8 164.6 28.7 166.5 C 30.8 167.2 24.8 167.2 26.1 166.5 C 26.4 164.3 23.1 167.9 21.9 166.3 C 22.9 167.2 18.2 167.6 19.5 166.0 C 18.7 165.8 18.3 166.6 17.7 165.5 C 20.1 166.0 16.3 167.0 16.7 166.0 C 17.3 165.5 14.1 163.8 14.0 164.8 C 14.1 167.5 13.5 164.0 12.4 164.4 C 10.4 163.6 13.9 163.1 11.6 163.4 C 11.5 163.0 9.6 161.1 11.1 162.0 C 11.4 162.6 8.0 162.3 9.5 160.9 C 12.1 162.6 8.4 157.8 8.2 158.9 C 9.3 163.4 5.3 154.9 7.6 157.9 C 7.9 155.6 8.0 158.4 7.0 156.0 C 6.5 156.5 5.5 154.5 6.9 154.8 C 8.7 154.2 4.2 154.2 6.8 152.4 C 7.9 152.2 6.0 148.9 7.2 150.2 C 7.4 150.2 7.6 149.8 7.6 149.7 M 7.4 150.7 C 6.9 150.3 7.9 150.1 7.4 150.7 M 7.0 150.3 C 7.0 150.3 7.0 150.3 7.0 150.3 C 7.0 150.3 7.0 150.3 7.0 150.3 Z M 6.9 155.6 C 6.9 155.6 6.9 155.6 6.9 155.6 C 6.9 155.6 6.9 155.6 6.9 155.6 Z M 3.9 161.5 C 4.0 161.4 4.0 161.4 3.9 161.5 C 3.9 161.5 3.9 161.5 3.9 161.5 Z M 7.8 158.8 C 7.8 158.8 7.8 158.8 7.8 158.8 C 7.8 158.8 7.8 158.8 7.8 158.8 Z M 6.4 153.9 C 6.4 153.8 6.4 153.8 6.4 153.9 C 6.4 153.9 6.4 153.9 6.4 153.9 Z M 8.3 158.3 C 7.7 158.8 8.3 157.1 8.4 158.3 C 8.4 158.3 8.3 158.1 8.3 158.3 M 10.7 161.4 C 10.6 161.5 10.6 161.5 10.7 161.4 M 17.5 171.0 C 17.6 171.0 17.6 171.0 17.5 171.0 M 19.0 165.4 C 19.1 165.5 19.1 165.5 19.0 165.4 M 13.3 164.5 C 14.5 165.1 13.4 165.0 13.3 164.5 M 22.8 165.9 C 20.9 165.4 24.8 165.5 22.8 165.9 M 24.6 165.5 C 24.8 165.5 24.8 165.5 24.6 165.5 M 16.7 165.3 C 16.7 165.4 16.7 165.4 16.7 165.3 C 16.7 165.3 16.7 165.3 16.7 165.3 Z M 13.0 164.0 C 11.9 162.8 14.8 164.3 13.0 164.0 M 7.7 156.1 C 8.2 156.9 6.8 156.3 7.7 156.1 M 7.0 154.2 C 6.9 154.2 6.9 154.2 7.0 154.2 C 7.0 154.2 7.0 154.2 7.0 154.2 Z M 19.8 165.8 C 19.7 165.9 19.7 165.9 19.8 165.8 C 19.8 165.8 19.8 165.8 19.8 165.8 Z M 21.9 165.7 C 21.9 165.7 21.9 165.7 21.9 165.7 C 21.9 165.7 21.9 165.7 21.9 165.7 Z M 25.6 170.9 C 25.5 170.9 25.5 170.9 25.6 170.9 C 25.6 170.9 25.6 170.9 25.6 170.9 Z M 5.0 156.1 C 5.1 154.6 7.0 157.1 5.7 157.1 C 5.3 157.4 5.2 156.2 5.0 156.1 M 11.1 164.6 C 10.3 166.2 11.5 161.8 11.1 164.6 M 24.9 166.6 C 26.4 168.7 23.0 165.1 24.9 166.6 M 27.9 166.3 C 28.7 166.7 22.3 166.5 26.8 165.9 C 27.2 165.6 27.6 166.0 27.9 166.3 M 10.1 162.1 C 9.6 163.0 9.1 160.3 10.1 162.1 M 15.9 168.9 C 16.8 168.4 18.8 168.1 17.8 169.1 C 17.6 170.5 14.9 169.1 15.9 168.9 M 6.4 151.2 C 7.9 152.4 5.0 151.1 6.4 151.2 M 6.6 156.6 C 6.7 156.6 6.7 156.6 6.6 156.6 C 6.6 156.6 6.6 156.6 6.6 156.6 Z M 7.5 158.4 C 7.4 158.5 7.4 158.5 7.5 158.4 M 7.7 152.1 C 7.6 152.2 7.6 152.2 7.7 152.1 M 16.3 167.3 C 16.3 167.4 16.3 167.4 16.3 167.3 M 12.8 164.7 C 13.6 167.0 11.7 164.4 12.8 164.7 M 7.0 163.4 C 6.8 164.5 6.0 162.3 7.0 163.4 M 15.9 165.4 C 16.7 167.2 13.7 166.2 15.9 165.4 M 12.1 164.0 C 12.2 164.1 12.2 164.1 12.1 164.0 C 12.1 164.0 12.1 164.0 12.1 164.0 Z M 16.5 169.2 C 16.4 169.2 16.4 169.2 16.5 169.2 C 16.5 169.2 16.5 169.2 16.5 169.2 Z M 17.2 169.2 C 17.1 169.2 17.1 169.2 17.2 169.2 C 17.2 169.2 17.2 169.2 17.2 169.2 Z M 17.5 165.7 C 17.4 165.7 17.4 165.7 17.5 165.7 C 17.5 165.7 17.5 165.7 17.5 165.7 Z M 2.9 154.4 C 2.9 156.2 2.6 153.0 2.9 154.4 C 2.9 154.4 2.9 154.4 2.9 154.4 Z M 8.9 159.6 C 9.0 162.0 7.2 158.9 8.9 159.6 C 8.9 159.6 8.9 159.6 8.9 159.6 Z M 8.9 162.8 C 8.8 162.8 8.8 162.8 8.9 162.8 C 8.9 162.8 8.9 162.8 8.9 162.8 Z M 15.4 164.3 C 15.4 164.4 15.4 164.4 15.4 164.3 C 15.4 164.3 15.4 164.3 15.4 164.3 Z M 2.8 155.3 C 2.7 155.3 2.7 155.3 2.8 155.3 C 2.8 155.3 2.8 155.3 2.8 155.3 Z M 21.5 166.7 C 21.5 166.8 21.5 166.8 21.5 166.7 C 21.5 166.7 21.5 166.7 21.5 166.7 Z M 12.1 167.8 C 12.9 167.6 12.0 168.3 12.1 167.8 C 12.1 167.8 12.1 167.8 12.1 167.8 Z M 14.4 168.8 C 14.5 168.9 14.5 168.9 14.4 168.8 C 14.4 168.8 14.4 168.8 14.4 168.8 Z M 25.2 165.3 C 25.3 165.3 25.3 165.3 25.2 165.3 C 25.2 165.3 25.2 165.3 25.2 165.3 Z M 20.8 171.1 C 20.9 171.1 20.9 171.1 20.8 171.1 C 20.8 171.1 20.8 171.1 20.8 171.1 Z M 22.8 169.4 C 22.8 169.4 22.8 169.4 22.8 169.4 C 22.8 169.4 22.8 169.4 22.8 169.4 Z M 17.1 166.0 C 19.1 166.1 16.5 166.5 17.1 166.0 C 17.1 166.0 17.1 166.0 17.1 166.0 Z M 28.6 168.9 C 28.6 169.0 28.6 169.0 28.6 168.9 C 28.6 168.9 28.6 168.9 28.6 168.9 Z M 29.7 166.9 C 29.8 167.0 29.8 167.0 29.7 166.9 C 29.7 166.9 29.7 166.9 29.7 166.9 Z M 30.3 165.8 C 30.4 165.9 30.4 165.9 30.3 165.8 C 30.3 165.8 30.3 165.8 30.3 165.8 Z M 5.5 159.2 C 5.5 159.1 5.5 159.1 5.5 159.2 C 5.5 159.2 5.5 159.2 5.5 159.2 Z M 8.3 157.2 C 8.3 157.2 8.3 157.2 8.3 157.2 C 8.3 157.2 8.3 157.2 8.3 157.2 Z M 9.5 159.4 C 9.5 159.4 9.5 159.4 9.5 159.4 C 9.5 159.4 9.5 159.4 9.5 159.4 Z M 3.4 159.4 C 3.4 159.3 3.4 159.3 3.4 159.4 C 3.4 159.4 3.4 159.4 3.4 159.4 Z M 13.5 166.5 C 13.5 166.4 13.5 166.4 13.5 166.5 C 13.5 166.5 13.5 166.5 13.5 166.5 Z M 14.0 168.2 C 14.0 168.1 14.0 168.1 14.0 168.2 C 14.0 168.2 14.0 168.2 14.0 168.2 Z M 10.5 168.4 C 10.5 168.4 10.5 168.4 10.5 168.4 C 10.5 168.4 10.5 168.4 10.5 168.4 Z M 14.5 169.6 C 14.5 169.5 14.5 169.5 14.5 169.6 C 14.5 169.6 14.5 169.6 14.5 169.6 Z M 2.9 150.6 C 2.9 150.6 2.9 150.6 2.9 150.6 C 2.9 150.6 2.9 150.6 2.9 150.6 Z M 5.4 150.3 C 5.4 150.3 5.4 150.3 5.4 150.3 C 5.4 150.3 5.4 150.3 5.4 150.3 Z M 14.6 165.0 C 15.2 164.7 15.1 166.0 14.6 165.0 M 11.2 163.2 C 11.1 163.2 11.1 163.2 11.2 163.2 C 11.2 163.2 11.2 163.2 11.2 163.2 Z M 21.2 166.2 C 21.7 167.2 19.0 165.7 21.2 166.2 C 21.2 166.2 21.2 166.2 21.2 166.2 Z M 18.6 170.4 C 18.6 170.4 18.6 170.4 18.6 170.4 C 18.6 170.4 18.6 170.4 18.6 170.4 Z M 20.0 170.0 C 20.0 170.1 20.0 170.1 20.0 170.0 C 20.0 170.0 20.0 170.0 20.0 170.0 Z M 26.5 167.3 C 26.6 167.4 26.6 167.4 26.5 167.3 M 11.4 162.2 C 11.5 162.9 11.5 162.8 11.4 162.2 M 22.7 166.3 C 22.6 166.3 22.6 166.3 22.7 166.3 C 22.7 166.3 22.7 166.3 22.7 166.3 Z M 27.9 166.7 C 27.8 166.7 27.8 166.7 27.9 166.7 C 27.9 166.7 27.9 166.7 27.9 166.7 Z M 9.2 160.7 C 8.3 161.5 8.2 160.9 9.2 160.7 M 6.5 153.4 C 6.4 153.5 6.4 153.5 6.5 153.4 C 6.5 153.4 6.5 153.4 6.5 153.4 Z M 35.0 165.8 C 32.6 164.5 32.6 166.4 32.6 166.5 C 32.9 163.9 30.4 167.5 30.9 168.0 C 30.8 168.3 32.7 172.7 34.4 170.1 C 34.9 169.7 35.2 170.5 35.5 170.6 C 38.5 170.5 33.4 169.2 37.1 169.2 C 37.7 169.5 37.0 171.7 39.1 170.2 C 39.2 170.4 41.7 171.2 40.7 170.2 C 41.9 171.2 42.6 170.0 43.7 169.8 C 44.7 170.4 42.9 171.3 46.4 170.2 C 47.9 171.9 48.5 168.9 49.8 170.8 C 50.7 170.8 52.1 167.7 50.0 169.5 C 50.3 169.3 49.0 167.7 51.8 168.3 C 51.4 168.7 49.9 171.9 54.2 170.4 C 54.9 170.5 56.6 169.6 57.0 170.0 C 54.8 170.3 60.0 171.4 59.5 170.4 C 63.0 171.1 61.0 169.6 63.5 170.7 C 65.6 170.7 62.8 169.3 65.4 170.1 C 67.3 170.0 66.0 170.8 65.8 170.7 C 67.5 170.9 68.3 170.2 69.0 170.2 C 69.4 170.3 70.5 170.8 70.7 169.9 C 72.4 168.1 70.3 167.0 70.6 165.5 C 69.3 165.1 70.3 166.7 69.4 165.8 C 69.0 166.8 69.6 165.9 66.1 166.1 C 66.2 166.3 67.0 166.9 66.2 167.0 C 64.8 166.9 65.8 164.4 63.5 166.2 C 66.2 166.7 59.7 167.0 62.2 167.5 C 59.1 167.8 61.3 167.3 59.1 166.7 C 59.2 168.4 58.9 164.9 58.1 166.3 C 57.9 165.6 54.3 165.9 56.9 166.9 C 53.2 167.3 55.5 166.4 54.2 165.5 C 52.5 165.4 54.1 168.2 53.0 166.2 C 50.8 165.2 52.9 167.2 51.3 165.6 C 52.0 167.0 49.7 165.6 50.3 167.1 C 46.6 167.2 50.8 165.5 48.1 166.6 C 49.0 166.6 48.6 164.5 47.0 165.9 C 47.7 168.3 44.9 163.7 46.1 167.0 C 40.8 167.9 45.2 165.6 42.3 165.6 C 41.6 165.6 43.1 166.7 42.4 166.7 C 38.7 166.2 41.8 165.4 39.9 167.0 C 36.2 167.4 38.8 165.6 37.0 165.5 C 36.9 166.3 35.4 167.6 35.0 165.8 M 38.3 166.6 C 39.1 166.1 38.8 167.2 38.3 166.6 M 30.9 165.9 C 31.7 165.4 31.4 166.4 30.9 165.9 M 41.3 166.2 C 42.4 165.6 41.7 167.0 41.3 166.2 M 61.2 166.9 C 59.8 166.9 61.8 166.5 61.2 166.9 M 33.9 165.8 C 35.0 165.1 34.2 166.6 33.9 165.8 M 32.5 167.0 C 32.6 167.1 32.6 167.1 32.5 167.0 M 63.1 165.6 C 63.2 165.7 63.2 165.7 63.1 165.6 M 57.8 165.6 C 58.9 165.6 57.2 165.9 57.8 165.6 M 57.6 171.0 C 58.8 171.0 57.0 171.3 57.6 171.0 M 66.0 165.6 C 67.1 165.1 66.3 166.2 66.0 165.6 M 68.8 166.6 C 69.7 166.0 69.5 167.1 68.8 166.6 M 37.7 168.5 C 37.6 168.6 37.6 168.6 37.7 168.5 C 37.7 168.5 37.7 168.5 37.7 168.5 Z M 47.4 169.8 C 46.2 169.3 48.8 170.5 47.4 169.8 M 45.6 166.3 C 46.4 167.4 44.1 166.2 45.6 166.3 C 45.6 166.3 45.6 166.3 45.6 166.3 Z M 43.9 166.8 C 43.9 166.9 43.9 166.9 43.9 166.8 C 43.9 166.8 43.9 166.8 43.9 166.8 Z M 49.4 166.9 C 49.3 166.9 49.3 166.9 49.4 166.9 C 49.4 166.9 49.4 166.9 49.4 166.9 Z M 48.2 167.0 C 47.8 167.2 47.6 166.8 48.2 167.0 C 48.2 167.0 48.2 167.0 48.2 167.0 Z M 56.2 170.4 C 55.8 170.7 55.6 170.2 56.2 170.4 C 56.2 170.4 56.2 170.4 56.2 170.4 Z M 46.5 167.3 C 46.4 168.4 45.7 166.6 46.5 167.3 C 46.5 167.3 46.5 167.3 46.5 167.3 Z M 52.4 169.9 C 52.9 169.7 53.4 171.0 52.4 169.9 M 64.2 165.8 C 64.7 165.5 65.2 166.9 64.2 165.8 M 52.6 165.5 C 53.1 165.2 53.6 166.6 52.6 165.5 M 38.9 166.2 C 39.1 166.3 39.1 166.3 38.9 166.2 M 45.4 170.9 C 46.1 170.5 45.8 171.4 45.4 170.9 M 34.5 170.5 C 35.2 170.1 34.8 171.0 34.5 170.5 M 62.6 170.9 C 62.5 170.6 63.8 171.0 62.6 170.9 M 54.0 167.3 C 55.0 167.4 56.0 168.0 53.9 167.9 C 53.8 167.7 54.4 167.5 54.0 167.3 C 54.0 167.3 54.0 167.3 54.0 167.3 Z M 57.6 169.8 C 57.8 169.9 57.8 169.9 57.6 169.8 M 55.8 166.3 C 55.9 166.4 55.9 166.4 55.8 166.3 M 61.7 166.4 C 61.9 166.5 61.9 166.5 61.7 166.4 M 62.5 166.0 C 62.4 166.1 62.4 166.1 62.5 166.0 C 62.5 166.0 62.5 166.0 62.5 166.0 Z M 68.7 165.5 C 68.7 165.5 68.7 165.5 68.7 165.5 C 68.7 165.5 68.7 165.5 68.7 165.5 Z M 59.8 166.5 C 59.8 166.5 59.8 166.5 59.8 166.5 C 59.8 166.5 59.8 166.5 59.8 166.5 Z M 65.2 170.7 C 65.2 170.7 65.2 170.7 65.2 170.7 C 65.2 170.7 65.2 170.7 65.2 170.7 Z M 64.5 170.0 C 64.5 170.0 64.5 170.0 64.5 170.0 C 64.5 170.0 64.5 170.0 64.5 170.0 Z M 35.6 165.8 C 36.5 165.1 36.1 167.7 35.6 165.8 M 67.5 170.0 C 68.5 170.7 65.7 170.2 67.5 170.0 C 67.5 170.0 67.5 170.0 67.5 170.0 Z M 59.1 167.4 C 59.2 167.6 59.2 167.6 59.1 167.4 M 62.8 166.1 C 62.9 166.3 62.9 166.3 62.8 166.1 M 45.5 165.3 C 45.6 165.5 45.6 165.5 45.5 165.3 M 67.4 166.4 C 69.9 166.6 66.3 167.9 67.4 166.4 M 44.3 166.4 C 44.2 166.3 44.2 166.3 44.3 166.4 M 50.5 168.4 C 52.4 168.3 49.8 169.0 50.5 168.4 M 55.2 167.0 C 55.2 167.1 55.2 167.1 55.2 167.0 C 55.2 167.0 55.2 167.0 55.2 167.0 Z M 52.5 167.0 C 51.1 167.2 52.1 166.7 52.5 167.0 C 52.5 167.0 52.5 167.0 52.5 167.0 Z M 36.9 166.9 C 38.6 167.0 35.1 167.2 36.9 166.9 C 36.9 166.9 36.9 166.9 36.9 166.9 Z M 66.1 168.9 C 66.1 169.0 66.1 169.0 66.1 168.9 C 66.1 168.9 66.1 168.9 66.1 168.9 Z M 59.5 165.7 C 58.7 166.0 59.1 165.4 59.5 165.7 C 59.5 165.7 59.5 165.7 59.5 165.7 Z M 69.5 165.4 C 68.9 165.8 69.1 165.1 69.5 165.4 C 69.5 165.4 69.5 165.4 69.5 165.4 Z M 34.8 166.7 C 41.2 168.5 26.2 166.2 34.8 166.7 C 34.8 166.7 34.8 166.7 34.8 166.7 Z M 53.6 166.3 C 53.5 166.3 53.5 166.3 53.6 166.3 C 53.6 166.3 53.6 166.3 53.6 166.3 Z M 41.7 165.5 C 41.7 165.6 41.7 165.6 41.7 165.5 C 41.7 165.5 41.7 165.5 41.7 165.5 Z M 39.7 166.5 C 39.7 166.6 39.7 166.6 39.7 166.5 C 39.7 166.5 39.7 166.5 39.7 166.5 Z M 40.3 170.8 C 40.2 170.8 40.2 170.8 40.3 170.8 C 40.3 170.8 40.3 170.8 40.3 170.8 Z M 41.0 168.8 C 40.9 169.0 40.9 169.0 41.0 168.8 C 41.0 168.8 41.0 168.8 41.0 168.8 Z M 36.8 169.6 C 36.8 169.6 36.8 169.6 36.8 169.6 C 36.8 169.6 36.8 169.6 36.8 169.6 Z M 36.9 170.1 C 36.9 170.2 36.9 170.2 36.9 170.1 C 36.9 170.1 36.9 170.1 36.9 170.1 Z M 62.8 167.3 C 62.8 167.4 62.8 167.4 62.8 167.3 C 62.8 167.3 62.8 167.3 62.8 167.3 Z M 60.6 169.1 C 62.1 168.5 60.2 170.0 60.6 169.1 C 60.6 169.1 60.6 169.1 60.6 169.1 Z M 47.3 168.3 C 48.7 168.0 46.5 168.8 47.3 168.3 C 47.3 168.3 47.3 168.3 47.3 168.3 Z M 48.8 170.6 C 48.9 170.6 48.9 170.6 48.8 170.6 C 48.8 170.6 48.8 170.6 48.8 170.6 Z M 39.7 165.5 C 39.7 165.6 39.7 165.6 39.7 165.5 C 39.7 165.5 39.7 165.5 39.7 165.5 Z M 37.2 166.2 C 37.1 167.1 36.4 165.8 37.2 166.2 M 49.9 165.7 C 49.9 165.8 49.9 165.8 49.9 165.7 C 49.9 165.7 49.9 165.7 49.9 165.7 Z M 58.0 167.1 C 58.0 167.2 58.0 167.2 58.0 167.1 C 58.0 167.1 58.0 167.1 58.0 167.1 Z M 66.0 166.5 C 65.9 166.7 65.9 166.7 66.0 166.5 C 66.0 166.5 66.0 166.5 66.0 166.5 Z M 54.9 165.8 C 54.9 165.9 54.9 165.9 54.9 165.8 C 54.9 165.8 54.9 165.8 54.9 165.8 Z M 51.1 166.6 C 51.1 166.8 51.1 166.8 51.1 166.6 C 51.1 166.6 51.1 166.6 51.1 166.6 Z M 67.7 167.8 C 67.7 167.8 67.7 167.8 67.7 167.8 C 67.7 167.8 67.7 167.8 67.7 167.8 Z M 55.8 165.7 C 55.8 165.7 55.8 165.7 55.8 165.7 C 55.8 165.7 55.8 165.7 55.8 165.7 Z M 58.1 168.5 C 58.1 168.6 58.1 168.6 58.1 168.5 C 58.1 168.5 58.1 168.5 58.1 168.5 Z M 37.5 164.9 C 37.5 165.0 37.5 165.0 37.5 164.9 C 37.5 164.9 37.5 164.9 37.5 164.9 Z M 67.8 166.6 C 67.7 166.6 67.7 166.6 67.8 166.6 C 67.8 166.6 67.8 166.6 67.8 166.6 Z M 68.1 165.8 C 68.1 165.8 68.1 165.8 68.1 165.8 C 68.1 165.8 68.1 165.8 68.1 165.8 Z M 62.6 170.1 C 59.8 169.6 65.2 169.9 63.1 168.9 C 67.2 168.7 63.2 170.1 62.6 170.1 C 62.6 170.1 62.6 170.1 62.6 170.1 Z M 71.1 164.8 C 70.3 166.3 70.4 167.5 71.5 168.5 C 72.4 168.9 71.6 166.5 72.3 168.5 C 70.7 169.5 74.3 171.0 73.2 168.6 C 75.5 167.3 74.4 170.0 75.3 168.3 C 77.7 166.7 76.9 168.2 78.4 166.6 C 78.5 164.7 79.9 166.2 79.3 164.9 C 79.7 166.7 80.4 162.9 81.0 163.2 C 80.6 165.4 84.6 156.8 81.9 161.0 C 82.2 158.9 83.1 159.7 83.5 159.1 C 83.0 157.9 85.1 155.6 84.3 154.2 C 84.1 154.4 84.0 155.1 83.7 155.3 C 83.1 155.6 83.9 153.8 83.9 154.0 C 83.6 153.1 82.7 149.4 84.2 153.3 C 84.9 153.5 83.9 150.7 84.5 150.7 C 84.6 147.9 83.1 150.0 84.2 148.8 C 84.2 146.8 84.2 145.3 84.0 145.3 C 84.2 144.1 85.0 143.9 84.2 142.8 C 85.8 140.3 81.2 141.0 84.3 140.1 C 83.6 139.4 85.6 138.7 83.7 138.8 C 84.5 139.7 85.1 134.6 83.8 136.8 C 83.3 136.2 85.7 133.0 83.8 133.5 C 82.4 132.3 81.0 132.6 79.6 135.0 C 80.7 134.8 78.5 137.6 80.3 135.8 C 81.0 133.7 81.0 139.7 80.3 138.4 C 78.1 138.1 81.8 141.3 80.1 142.6 C 81.0 141.6 81.5 146.5 79.8 145.0 C 79.7 145.9 80.5 146.2 79.5 147.2 C 79.6 144.2 81.2 148.3 80.2 148.1 C 79.6 147.6 79.1 152.0 80.0 151.5 C 82.4 150.0 79.5 152.7 80.5 153.4 C 80.9 155.7 78.6 152.9 80.1 154.7 C 79.8 155.1 79.2 157.7 79.1 156.0 C 79.5 155.4 81.0 158.4 79.1 157.9 C 79.1 154.8 77.0 160.5 78.0 160.0 C 81.3 156.8 76.2 164.6 77.5 161.1 C 75.4 162.1 77.7 160.5 76.2 162.6 C 76.9 162.8 75.8 164.6 75.4 163.3 C 73.9 162.1 76.1 166.0 73.5 164.5 C 72.8 163.7 71.1 166.5 71.6 165.0 C 71.7 164.8 71.2 164.7 71.1 164.8 M 72.0 164.7 C 71.9 165.2 71.3 164.4 72.0 164.7 M 71.8 165.2 C 71.8 165.2 71.8 165.2 71.8 165.2 C 71.8 165.2 71.8 165.2 71.8 165.2 Z M 76.0 162.9 C 76.0 162.9 76.0 162.9 76.0 162.9 C 76.0 162.9 76.0 162.9 76.0 162.9 Z M 82.5 162.3 C 82.4 162.3 82.4 162.3 82.5 162.3 C 82.5 162.3 82.5 162.3 82.5 162.3 Z M 78.2 160.5 C 78.1 160.5 78.1 160.5 78.2 160.5 C 78.2 160.5 78.2 160.5 78.2 160.5 Z M 74.9 164.2 C 74.8 164.2 74.8 164.2 74.9 164.2 C 74.9 164.2 74.9 164.2 74.9 164.2 Z M 77.4 160.3 C 78.2 160.6 76.4 160.9 77.4 160.2 C 77.4 160.2 77.3 160.4 77.4 160.3 M 78.9 156.6 C 79.0 156.6 79.0 156.6 78.9 156.6 M 84.9 146.5 C 85.0 146.5 85.0 146.5 84.9 146.5 M 79.3 145.6 C 79.4 145.5 79.4 145.5 79.3 145.6 M 80.1 152.5 C 80.0 150.9 80.4 152.1 80.1 152.5 M 79.7 141.7 C 79.2 143.6 79.3 139.7 79.7 141.7 M 79.3 139.8 C 79.4 139.7 79.4 139.7 79.3 139.8 M 79.6 148.4 C 79.6 148.4 79.6 148.4 79.6 148.4 C 79.6 148.4 79.6 148.4 79.6 148.4 Z M 79.8 153.1 C 79.4 155.1 79.1 151.1 79.8 153.1 M 75.9 162.0 C 76.3 161.1 76.6 162.6 75.9 162.0 M 74.8 163.5 C 74.8 163.5 74.8 163.5 74.8 163.5 C 74.8 163.5 74.8 163.5 74.8 163.5 Z M 79.7 144.7 C 79.7 144.8 79.7 144.8 79.7 144.7 C 79.7 144.7 79.7 144.7 79.7 144.7 Z M 79.5 142.5 C 79.6 142.6 79.6 142.6 79.5 142.5 C 79.5 142.5 79.5 142.5 79.5 142.5 Z M 84.7 138.9 C 84.8 139.0 84.8 139.0 84.7 138.9 C 84.7 138.9 84.7 138.9 84.7 138.9 Z M 77.4 164.2 C 76.1 164.9 77.1 162.0 77.9 163.1 C 78.4 163.3 77.4 164.0 77.4 164.2 M 81.3 154.5 C 83.1 154.3 78.8 155.7 81.3 154.5 M 80.5 139.6 C 82.6 138.1 79.0 141.4 80.5 139.6 M 80.1 136.6 C 80.5 135.7 80.3 142.1 79.8 137.7 C 79.4 137.2 79.9 136.9 80.1 136.6 M 79.7 156.8 C 80.8 156.7 78.8 158.6 79.7 156.8 M 83.2 148.2 C 82.5 147.5 82.0 145.7 83.1 146.5 C 84.4 146.5 83.7 149.1 83.2 148.2 M 72.8 165.4 C 73.1 163.6 73.3 166.7 72.8 165.4 M 76.9 162.6 C 76.9 162.6 76.9 162.6 76.9 162.6 C 76.9 162.6 76.9 162.6 76.9 162.6 Z M 78.0 160.9 C 78.1 160.9 78.1 160.9 78.0 160.9 M 72.8 163.8 C 73.0 163.9 73.0 163.9 72.8 163.8 M 81.5 148.3 C 81.7 148.2 81.7 148.2 81.5 148.3 M 80.5 152.9 C 82.0 150.7 80.8 154.1 80.5 152.9 M 82.5 158.7 C 83.5 158.3 82.1 160.2 82.5 158.7 M 79.9 149.3 C 81.4 147.7 81.3 151.4 79.9 149.3 M 80.3 153.9 C 80.3 153.8 80.3 153.8 80.3 153.9 C 80.3 153.9 80.3 153.9 80.3 153.9 Z M 83.3 147.7 C 83.4 147.7 83.4 147.7 83.3 147.7 C 83.3 147.7 83.3 147.7 83.3 147.7 Z M 83.3 147.0 C 83.3 147.1 83.3 147.1 83.3 147.0 C 83.3 147.0 83.3 147.0 83.3 147.0 Z M 79.7 147.4 C 79.8 147.4 79.8 147.4 79.7 147.4 C 79.7 147.4 79.7 147.4 79.7 147.4 Z M 77.1 166.8 C 78.6 165.9 76.2 167.8 77.1 166.8 C 77.1 166.8 77.1 166.8 77.1 166.8 Z M 78.2 159.1 C 80.2 157.8 78.5 160.9 78.2 159.1 C 78.2 159.1 78.2 159.1 78.2 159.1 Z M 81.0 157.4 C 81.1 157.4 81.1 157.4 81.0 157.4 C 81.0 157.4 81.0 157.4 81.0 157.4 Z M 79.0 150.3 C 79.1 150.3 79.1 150.3 79.0 150.3 C 79.0 150.3 79.0 150.3 79.0 150.3 Z M 78.0 166.5 C 78.0 166.5 78.0 166.5 78.0 166.5 C 78.0 166.5 78.0 166.5 78.0 166.5 Z M 80.5 142.9 C 80.6 142.9 80.6 142.9 80.5 142.9 C 80.5 142.9 80.5 142.9 80.5 142.9 Z M 83.6 151.9 C 83.0 151.3 84.0 151.8 83.6 151.9 C 83.6 151.9 83.6 151.9 83.6 151.9 Z M 83.6 149.6 C 83.6 149.5 83.6 149.5 83.6 149.6 C 83.6 149.6 83.6 149.6 83.6 149.6 Z M 79.2 139.3 C 79.2 139.2 79.2 139.2 79.2 139.3 C 79.2 139.3 79.2 139.3 79.2 139.3 Z M 85.0 143.6 C 85.0 143.6 85.0 143.6 85.0 143.6 C 85.0 143.6 85.0 143.6 85.0 143.6 Z M 83.2 141.7 C 83.3 141.7 83.3 141.7 83.2 141.7 C 83.2 141.7 83.2 141.7 83.2 141.7 Z M 80.1 147.8 C 79.8 145.4 80.7 148.3 80.1 147.8 C 80.1 147.8 80.1 147.8 80.1 147.8 Z M 82.8 135.9 C 82.8 135.8 82.8 135.8 82.8 135.9 C 82.8 135.9 82.8 135.9 82.8 135.9 Z M 80.7 134.7 C 80.8 134.7 80.8 134.7 80.7 134.7 C 80.7 134.7 80.7 134.7 80.7 134.7 Z M 79.7 134.1 C 79.8 134.1 79.8 134.1 79.7 134.1 C 79.7 134.1 79.7 134.1 79.7 134.1 Z M 79.7 162.2 C 79.6 162.2 79.6 162.2 79.7 162.2 C 79.7 162.2 79.7 162.2 79.7 162.2 Z M 76.6 160.9 C 76.6 160.9 76.6 160.9 76.6 160.9 C 76.6 160.9 76.6 160.9 76.6 160.9 Z M 77.8 158.7 C 77.8 158.7 77.8 158.7 77.8 158.7 C 77.8 158.7 77.8 158.7 77.8 158.7 Z M 80.9 163.9 C 80.9 163.9 80.9 163.9 80.9 163.9 C 80.9 163.9 80.9 163.9 80.9 163.9 Z M 81.8 151.2 C 81.7 151.3 81.7 151.3 81.8 151.2 C 81.8 151.2 81.8 151.2 81.8 151.2 Z M 83.1 150.1 C 83.0 150.2 83.0 150.2 83.1 150.1 C 83.1 150.1 83.1 150.1 83.1 150.1 Z M 84.9 152.9 C 84.8 152.9 84.8 152.9 84.9 152.9 C 84.9 152.9 84.9 152.9 84.9 152.9 Z M 84.3 149.3 C 84.2 149.3 84.2 149.3 84.3 149.3 C 84.3 149.3 84.3 149.3 84.3 149.3 Z M 73.7 168.8 C 73.7 168.8 73.7 168.8 73.7 168.8 C 73.7 168.8 73.7 168.8 73.7 168.8 Z M 72.5 166.6 C 72.4 166.7 72.4 166.7 72.5 166.6 C 72.5 166.6 72.5 166.6 72.5 166.6 Z M 79.9 150.9 C 79.4 150.4 80.7 149.8 79.9 150.9 M 80.1 155.2 C 80.2 155.2 80.2 155.2 80.1 155.2 C 80.1 155.2 80.1 155.2 80.1 155.2 Z M 80.0 143.3 C 81.0 142.7 79.5 145.4 80.0 143.3 C 80.0 143.3 80.0 143.3 80.0 143.3 Z M 84.2 145.7 C 84.3 145.7 84.3 145.7 84.2 145.7 C 84.2 145.7 84.2 145.7 84.2 145.7 Z M 83.8 144.5 C 83.9 144.4 83.9 144.4 83.8 144.5 C 83.8 144.5 83.8 144.5 83.8 144.5 Z M 81.1 138.0 C 81.2 137.9 81.2 137.9 81.1 138.0 M 79.2 155.5 C 79.7 155.1 79.6 155.2 79.2 155.5 M 80.1 141.8 C 80.1 141.9 80.1 141.9 80.1 141.8 C 80.1 141.8 80.1 141.8 80.1 141.8 Z M 80.5 136.6 C 80.6 136.6 80.6 136.6 80.5 136.6 C 80.5 136.6 80.5 136.6 80.5 136.6 Z M 79.0 158.3 C 80.2 158.7 79.7 159.0 79.0 158.3 M 74.5 164.4 C 74.5 164.4 74.5 164.4 74.5 164.4 C 74.5 164.4 74.5 164.4 74.5 164.4 Z M 80.6 129.1 C 79.1 134.5 81.8 133.2 82.3 133.5 C 83.0 134.2 83.5 133.5 83.9 132.4 C 85.7 131.3 82.2 130.7 83.9 129.9 C 86.2 128.4 81.9 128.2 84.3 127.6 C 84.9 127.8 84.4 125.8 84.3 125.9 C 85.4 124.9 83.4 123.4 83.2 123.4 C 83.5 122.7 85.6 122.6 84.0 120.4 C 83.5 118.7 85.6 118.0 84.1 118.5 C 85.8 117.2 83.6 117.6 84.2 116.4 C 85.1 115.5 82.8 116.3 84.5 114.8 C 83.2 114.1 85.4 115.5 84.4 111.3 C 84.3 113.3 83.4 109.4 84.3 110.2 C 85.3 111.6 83.9 108.2 84.5 106.3 C 84.0 105.8 82.8 103.6 84.1 103.9 C 85.7 102.0 83.2 102.0 84.4 101.1 C 85.0 100.5 83.8 100.2 83.9 99.8 C 84.9 99.1 84.2 98.5 84.5 96.0 C 85.0 90.7 82.0 95.2 81.7 93.2 C 81.2 92.9 78.0 95.8 80.4 94.6 C 79.8 95.0 82.3 99.4 79.6 97.2 C 80.7 98.9 78.5 96.9 79.8 100.2 C 81.6 95.6 80.5 105.4 79.6 101.0 C 79.1 101.7 79.2 103.5 79.6 102.2 C 81.3 101.7 78.9 105.4 80.9 103.5 C 80.4 106.3 82.2 105.6 80.9 106.4 C 78.7 107.1 81.5 106.3 80.8 107.7 C 80.8 111.0 78.3 108.4 80.0 110.4 C 78.9 113.7 80.9 111.1 81.2 112.3 C 82.7 112.6 80.0 115.6 79.8 113.1 C 80.7 114.4 79.1 113.3 80.1 114.8 C 81.5 113.7 78.6 116.7 79.7 116.3 C 80.1 117.6 80.9 116.9 80.9 117.3 C 81.0 119.3 79.6 118.7 80.6 119.1 C 81.2 119.5 79.3 120.5 79.8 120.7 C 79.9 118.7 81.3 122.4 80.5 122.6 C 80.4 121.4 78.7 123.3 79.8 124.0 C 82.9 123.0 79.0 125.8 80.1 126.7 C 81.8 125.8 80.3 131.2 79.5 129.2 C 79.6 129.3 80.6 129.1 80.6 129.1 M 80.0 121.3 C 80.2 119.7 80.4 123.1 80.0 121.3 M 79.6 121.4 C 80.2 120.7 79.2 123.0 79.4 121.3 C 79.4 121.3 79.6 121.5 79.6 121.4 M 79.5 114.5 C 80.0 114.7 79.2 115.4 79.5 114.5 M 80.6 113.2 C 81.0 112.1 80.7 114.7 80.6 113.2 M 80.2 97.9 C 82.8 99.5 78.8 99.5 80.2 97.9 M 79.7 108.0 C 80.1 109.9 78.7 107.4 79.7 108.0 M 80.4 108.6 C 80.8 109.4 79.8 108.7 80.4 108.6 M 80.3 100.8 C 80.3 100.7 80.3 100.7 80.3 100.8 C 80.3 100.8 80.3 100.8 80.3 100.8 Z M 80.3 96.3 C 80.3 96.3 80.3 96.3 80.3 96.3 C 80.3 96.3 80.3 96.3 80.3 96.3 Z M 80.5 105.2 C 79.9 106.6 80.3 102.9 80.5 105.2 C 80.5 105.2 80.5 105.2 80.5 105.2 Z M 84.2 98.4 C 84.3 98.5 84.3 98.5 84.2 98.4 C 84.2 98.4 84.2 98.4 84.2 98.4 Z M 81.2 122.6 C 81.2 122.7 81.2 122.7 81.2 122.6 C 81.2 122.6 81.2 122.6 81.2 122.6 Z M 80.2 127.8 C 80.6 127.7 80.0 128.7 80.2 127.8 C 80.2 127.8 80.2 127.8 80.2 127.8 Z M 83.2 131.9 C 83.2 132.0 83.2 132.0 83.2 131.9 C 83.2 131.9 83.2 131.9 83.2 131.9 Z M 82.6 124.4 C 82.6 124.4 82.6 124.4 82.6 124.4 C 82.6 124.4 82.6 124.4 82.6 124.4 Z M 80.7 123.6 C 79.2 124.5 81.0 121.7 80.7 123.6 C 80.7 123.6 80.7 123.6 80.7 123.6 Z M 84.1 106.9 C 83.5 106.9 84.3 105.7 84.1 106.9 C 84.1 106.9 84.1 106.9 84.1 106.9 Z M 81.2 113.0 C 80.8 112.8 81.3 112.2 81.2 113.0 C 81.2 113.0 81.2 113.0 81.2 113.0 Z M 79.2 115.8 C 78.9 115.6 79.4 115.0 79.2 115.8 C 79.2 115.8 79.2 115.8 79.2 115.8 Z M 79.9 127.7 C 79.8 127.6 79.8 127.6 79.9 127.7 C 79.9 127.7 79.9 127.7 79.9 127.7 Z M 80.9 125.9 C 79.6 127.1 81.6 123.9 80.9 125.9 C 80.9 125.9 80.9 125.9 80.9 125.9 Z M 81.3 128.0 C 81.8 127.4 81.1 129.7 81.3 128.0 M 83.3 126.8 C 82.8 125.2 85.7 128.2 83.3 126.8 C 83.3 126.8 83.3 126.8 83.3 126.8 Z M 83.9 118.9 C 83.9 118.8 83.9 118.8 83.9 118.9 C 83.9 118.9 83.9 118.9 83.9 118.9 Z M 80.0 119.7 C 80.0 118.3 80.3 120.6 80.0 119.7 C 80.0 119.7 80.0 119.7 80.0 119.7 Z M 79.7 131.6 C 79.7 130.2 80.0 132.5 79.7 131.6 C 79.7 131.6 79.7 131.6 79.7 131.6 Z M 82.6 114.2 C 82.4 112.0 83.3 115.6 82.6 114.2 C 82.6 114.2 82.6 114.2 82.6 114.2 Z M 81.0 106.0 C 81.1 105.9 81.1 105.9 81.0 106.0 C 81.0 106.0 81.0 106.0 81.0 106.0 Z M 80.5 104.4 C 80.5 104.4 80.5 104.4 80.5 104.4 C 80.5 104.4 80.5 104.4 80.5 104.4 Z M 81.8 98.0 C 81.9 97.9 81.9 97.9 81.8 98.0 C 81.8 98.0 81.8 98.0 81.8 98.0 Z M 79.9 103.0 C 79.9 103.0 79.9 103.0 79.9 103.0 C 79.9 103.0 79.9 103.0 79.9 103.0 Z M 80.2 98.6 C 80.2 98.5 80.2 98.5 80.2 98.6 C 80.2 98.6 80.2 98.6 80.2 98.6 Z M 79.1 99.2 C 79.1 99.1 79.1 99.1 79.1 99.2 C 79.1 99.2 79.1 99.2 79.1 99.2 Z M 84.8 109.1 C 84.9 109.0 84.9 109.0 84.8 109.1 C 84.8 109.1 84.8 109.1 84.8 109.1 Z M 79.4 125.3 C 79.5 125.1 79.5 125.1 79.4 125.3 C 79.4 125.3 79.4 125.3 79.4 125.3 Z M 80.7 99.0 C 80.7 98.9 80.7 98.9 80.7 99.0 C 80.7 99.0 80.7 99.0 80.7 99.0 Z M 81.8 109.8 C 82.9 109.8 80.3 110.7 81.7 109.5 C 81.8 109.6 81.6 109.9 81.8 109.8 M 83.6 108.3 C 83.7 108.4 83.7 108.4 83.6 108.3 C 83.6 108.3 83.6 108.3 83.6 108.3 Z M 84.3 113.3 C 84.4 113.3 84.4 113.3 84.3 113.3 C 84.3 113.3 84.3 113.3 84.3 113.3 Z M 79.6 103.8 C 79.0 104.0 80.1 102.6 79.7 104.0 M 83.8 98.0 C 83.2 98.2 84.3 96.8 83.9 98.2 M 80.1 133.2 C 80.6 133.4 79.8 134.1 80.1 133.2 M 84.9 114.3 C 85.4 114.5 84.6 115.3 84.9 114.3 M 83.5 112.1 C 82.9 112.3 84.0 110.8 83.5 112.2 M 83.8 101.4 C 83.8 101.3 83.8 101.3 83.8 101.4 C 83.8 101.4 83.8 101.4 83.8 101.4 Z M 80.1 117.6 C 80.1 117.5 80.1 117.5 80.1 117.6 C 80.1 117.6 80.1 117.6 80.1 117.6 Z M 81.5 111.6 C 80.6 112.4 82.0 110.5 81.5 111.6 M 81.6 119.3 C 80.6 120.5 82.0 117.4 81.6 119.3 M 84.1 95.4 C 82.8 96.8 84.8 94.5 84.1 95.4 M 80.8 102.0 C 79.5 103.4 81.6 101.1 80.8 102.0 M 80.7 116.4 C 80.0 116.5 81.1 115.0 80.7 116.4 M 80.0 130.1 C 79.9 131.3 79.5 128.4 80.0 130.1 M 83.8 104.6 C 83.9 104.5 83.9 104.5 83.8 104.6 C 83.8 104.6 83.8 104.6 83.8 104.6 Z M 85.0 125.9 C 85.0 125.9 85.0 125.9 85.0 125.9 C 85.0 125.9 85.0 125.9 85.0 125.9 Z M 79.8 93.7 C 79.9 93.7 79.9 93.7 79.8 93.7 C 79.8 93.7 79.8 93.7 79.8 93.7 Z M 81.4 102.8 C 81.5 102.8 81.5 102.8 81.4 102.8 C 81.4 102.8 81.4 102.8 81.4 102.8 Z M 79.7 96.3 C 79.8 96.2 79.8 96.2 79.7 96.3 C 79.7 96.3 79.7 96.3 79.7 96.3 Z M 82.5 107.0 C 82.5 107.0 82.5 107.0 82.5 107.0 C 82.5 107.0 82.5 107.0 82.5 107.0 Z M 79.1 107.8 C 79.2 107.8 79.2 107.8 79.1 107.8 C 79.1 107.8 79.1 107.8 79.1 107.8 Z M 80.6 112.4 C 80.6 112.3 80.6 112.3 80.6 112.4 C 80.6 112.4 80.6 112.4 80.6 112.4 Z M 79.4 105.8 C 79.2 103.0 80.5 107.1 79.4 105.8 C 79.4 105.8 79.4 105.8 79.4 105.8 Z M 82.7 110.5 C 82.7 110.4 82.7 110.4 82.7 110.5 C 82.7 110.5 82.7 110.5 82.7 110.5 Z M 80.4 110.8 C 79.4 109.1 82.0 109.9 80.4 110.8 M 79.6 118.4 C 79.1 117.9 80.4 118.1 79.6 118.4 M 83.9 121.4 C 84.0 121.4 84.0 121.4 83.9 121.4 C 83.9 121.4 83.9 121.4 83.9 121.4 Z M 83.6 120.6 C 83.6 120.5 83.6 120.5 83.6 120.6 C 83.6 120.6 83.6 120.6 83.6 120.6 Z M 79.4 120.2 C 79.4 120.2 79.4 120.2 79.4 120.2 C 79.4 120.2 79.4 120.2 79.4 120.2 Z M 84.8 120.5 C 84.9 120.4 84.9 120.4 84.8 120.5 C 84.8 120.5 84.8 120.5 84.8 120.5 Z M 79.2 108.9 C 79.3 108.8 79.3 108.8 79.2 108.9 C 79.2 108.9 79.2 108.9 79.2 108.9 Z M 79.2 95.0 C 79.2 94.9 79.2 94.9 79.2 95.0 C 79.2 95.0 79.2 95.0 79.2 95.0 Z M 83.5 129.7 C 83.5 129.6 83.5 129.6 83.5 129.7 C 83.5 129.7 83.5 129.7 83.5 129.7 Z M 80.5 107.4 C 80.6 107.4 80.6 107.4 80.5 107.4 C 80.5 107.4 80.5 107.4 80.5 107.4 Z M 83.7 123.4 C 83.8 123.3 83.8 123.3 83.7 123.4 C 83.7 123.4 83.7 123.4 83.7 123.4 Z M 80.3 108.3 C 80.3 108.3 80.3 108.3 80.3 108.3 C 80.3 108.3 80.3 108.3 80.3 108.3 Z M 84.1 105.0 C 84.1 105.0 84.1 105.0 84.1 105.0 C 84.1 105.0 84.1 105.0 84.1 105.0 Z M 84.8 102.1 C 84.9 102.0 84.9 102.0 84.8 102.1 C 84.8 102.1 84.8 102.1 84.8 102.1 Z M 81.8 105.3 C 81.8 105.2 81.8 105.2 81.8 105.3 C 81.8 105.3 81.8 105.3 81.8 105.3 Z M 82.3 124.3 C 81.2 129.8 81.8 120.0 82.3 124.3 M 82.1 104.3 C 81.8 108.2 80.8 101.3 82.1 104.3 C 81.7 103.9 82.0 104.3 82.1 104.3 M 79.7 89.7 C 78.3 92.1 80.2 92.1 80.3 92.1 C 77.7 91.8 81.3 94.3 81.8 93.8 C 82.1 93.9 86.6 92.0 83.9 90.3 C 83.5 89.8 84.3 89.5 84.4 89.2 C 84.3 86.2 83.0 91.3 83.0 87.6 C 83.4 87.0 85.5 87.7 84.0 85.6 C 84.2 85.5 85.0 83.0 84.0 84.0 C 85.0 82.8 83.8 82.1 83.6 81.0 C 84.2 80.0 85.2 81.8 84.0 78.3 C 85.7 76.8 82.7 76.2 84.6 74.9 C 84.7 74.0 81.5 72.6 83.3 74.7 C 83.1 74.4 81.6 75.7 82.1 72.9 C 82.5 73.3 85.7 74.8 84.2 70.5 C 84.3 69.8 83.5 68.1 83.8 67.7 C 84.2 70.0 85.2 64.7 84.3 65.2 C 84.9 61.7 83.5 63.7 84.5 61.2 C 84.6 59.1 83.1 61.9 83.9 59.3 C 83.8 57.4 84.6 58.7 84.5 58.9 C 84.7 57.2 84.1 56.6 84.1 56.0 C 84.3 55.6 85.0 54.9 84.2 54.5 C 82.7 52.7 81.2 54.3 79.8 53.5 C 79.1 54.8 80.9 54.1 79.8 55.0 C 80.7 55.6 79.7 55.1 79.9 58.6 C 80.1 58.5 80.8 57.7 80.9 58.5 C 80.8 59.9 78.3 58.9 80.0 61.2 C 80.6 58.5 80.8 65.0 81.3 62.5 C 81.6 65.6 81.1 63.4 80.5 65.6 C 82.2 65.5 78.8 65.8 80.1 66.6 C 79.4 66.8 79.7 70.4 80.7 67.8 C 81.2 71.5 80.2 69.2 79.3 70.5 C 79.2 72.2 82.1 70.6 80.0 71.7 C 79.1 73.9 81.0 71.8 79.4 73.4 C 80.8 72.7 79.4 75.0 80.9 74.4 C 81.1 78.2 79.3 73.9 80.4 76.6 C 80.4 75.7 78.3 76.1 79.7 77.7 C 82.2 77.0 77.5 79.8 80.8 78.6 C 81.7 83.9 79.4 79.5 79.4 82.4 C 79.4 83.1 80.5 81.6 80.5 82.3 C 80.1 86.0 79.2 82.9 80.8 84.8 C 81.2 88.5 79.4 85.9 79.3 87.7 C 80.1 87.9 81.4 89.3 79.7 89.7 M 80.5 86.4 C 80.0 85.6 81.0 85.9 80.5 86.4 M 79.7 93.8 C 79.2 93.0 80.2 93.3 79.7 93.8 M 80.0 83.4 C 79.5 82.3 80.8 83.0 80.0 83.4 M 80.8 63.5 C 80.8 64.9 80.4 62.9 80.8 63.5 M 79.6 90.8 C 79.0 89.8 80.5 90.5 79.6 90.8 M 80.9 92.2 C 80.9 92.1 80.9 92.1 80.9 92.2 M 79.5 61.6 C 79.5 61.5 79.5 61.5 79.5 61.6 M 79.4 66.9 C 79.5 65.8 79.8 67.5 79.4 66.9 M 84.8 67.1 C 84.8 66.0 85.1 67.7 84.8 67.1 M 79.4 58.7 C 79.0 57.6 80.0 58.4 79.4 58.7 M 80.6 55.7 C 80.1 54.7 81.1 55.1 80.6 55.7 M 82.3 87.0 C 82.4 87.1 82.4 87.1 82.3 87.0 C 82.3 87.0 82.3 87.0 82.3 87.0 Z M 83.7 77.3 C 83.1 78.5 84.3 75.9 83.7 77.3 M 80.1 79.1 C 81.2 78.3 80.1 80.6 80.1 79.1 C 80.1 79.1 80.1 79.1 80.1 79.1 Z M 80.6 80.8 C 80.7 80.8 80.7 80.8 80.6 80.8 C 80.6 80.8 80.6 80.8 80.6 80.8 Z M 80.7 75.3 C 80.7 75.4 80.7 75.4 80.7 75.3 C 80.7 75.3 80.7 75.3 80.7 75.3 Z M 80.8 76.5 C 81.0 76.9 80.6 77.1 80.8 76.5 C 80.8 76.5 80.8 76.5 80.8 76.5 Z M 84.3 68.5 C 84.5 68.9 84.0 69.1 84.3 68.5 C 84.3 68.5 84.3 68.5 84.3 68.5 Z M 81.2 78.2 C 82.3 78.3 80.5 79.0 81.2 78.2 C 81.2 78.2 81.2 78.2 81.2 78.2 Z M 83.8 72.3 C 83.5 71.8 84.8 71.3 83.8 72.3 M 79.7 60.5 C 79.4 60.0 80.7 59.5 79.7 60.5 M 79.3 72.1 C 79.0 71.6 80.4 71.1 79.3 72.1 M 80.0 85.8 C 80.1 85.6 80.1 85.6 80.0 85.8 M 84.7 79.3 C 84.3 78.6 85.2 78.9 84.7 79.3 M 84.4 90.3 C 83.9 89.5 84.8 89.9 84.4 90.3 M 84.7 62.1 C 84.4 62.2 84.8 60.9 84.7 62.1 M 81.1 70.7 C 81.2 69.7 81.8 68.7 81.7 70.8 C 81.5 70.9 81.3 70.3 81.1 70.7 C 81.1 70.7 81.1 70.7 81.1 70.7 Z M 83.6 67.1 C 83.7 66.9 83.7 66.9 83.6 67.1 M 80.1 68.9 C 80.2 68.8 80.2 68.8 80.1 68.9 M 80.2 63.0 C 80.3 62.9 80.3 62.9 80.2 63.0 M 79.9 62.2 C 79.9 62.3 79.9 62.3 79.9 62.2 C 79.9 62.2 79.9 62.2 79.9 62.2 Z M 79.4 55.7 C 79.5 55.7 79.5 55.7 79.4 55.7 C 79.4 55.7 79.4 55.7 79.4 55.7 Z M 80.3 64.9 C 80.4 64.9 80.4 64.9 80.3 64.9 C 80.3 64.9 80.3 64.9 80.3 64.9 Z M 84.5 59.5 C 84.5 59.5 84.5 59.5 84.5 59.5 C 84.5 59.5 84.5 59.5 84.5 59.5 Z M 83.8 60.2 C 83.9 60.2 83.9 60.2 83.8 60.2 C 83.8 60.2 83.8 60.2 83.8 60.2 Z M 79.7 89.1 C 78.9 88.2 81.6 88.6 79.7 89.1 M 83.8 57.3 C 84.6 56.4 84.0 58.8 83.8 57.3 C 83.8 57.3 83.8 57.3 83.8 57.3 Z M 81.2 65.6 C 81.4 65.5 81.4 65.5 81.2 65.6 M 80.0 61.9 C 80.1 61.8 80.1 61.8 80.0 61.9 M 79.2 79.2 C 79.3 79.1 79.3 79.1 79.2 79.2 M 80.2 57.3 C 80.5 54.5 81.7 58.5 80.2 57.3 M 80.2 80.4 C 80.1 80.5 80.1 80.5 80.2 80.4 M 82.2 74.2 C 82.2 72.3 82.8 74.9 82.2 74.2 M 80.8 69.5 C 80.9 69.5 80.9 69.5 80.8 69.5 C 80.8 69.5 80.8 69.5 80.8 69.5 Z M 80.9 72.2 C 81.0 73.6 80.5 72.6 80.9 72.2 C 80.9 72.2 80.9 72.2 80.9 72.2 Z M 80.7 87.8 C 80.8 86.1 81.0 89.6 80.7 87.8 C 80.7 87.8 80.7 87.8 80.7 87.8 Z M 82.7 58.6 C 82.8 58.6 82.8 58.6 82.7 58.6 C 82.7 58.6 82.7 58.6 82.7 58.6 Z M 79.6 65.2 C 79.8 66.0 79.2 65.6 79.6 65.2 C 79.6 65.2 79.6 65.2 79.6 65.2 Z M 79.4 54.7 C 79.7 55.6 79.1 55.1 79.4 54.7 C 79.4 54.7 79.4 54.7 79.4 54.7 Z M 80.5 89.9 C 82.3 83.5 80.0 98.5 80.5 89.9 C 80.5 89.9 80.5 89.9 80.5 89.9 Z M 80.1 71.1 C 80.2 71.2 80.2 71.2 80.1 71.1 C 80.1 71.1 80.1 71.1 80.1 71.1 Z M 79.4 83.0 C 79.4 83.0 79.4 83.0 79.4 83.0 C 79.4 83.0 79.4 83.0 79.4 83.0 Z M 80.4 85.0 C 80.4 85.0 80.4 85.0 80.4 85.0 C 80.4 85.0 80.4 85.0 80.4 85.0 Z M 84.6 84.4 C 84.7 84.5 84.7 84.5 84.6 84.4 C 84.6 84.4 84.6 84.4 84.6 84.4 Z M 82.7 83.7 C 82.8 83.8 82.8 83.8 82.7 83.7 C 82.7 83.7 82.7 83.7 82.7 83.7 Z M 83.4 87.9 C 83.5 87.9 83.5 87.9 83.4 87.9 C 83.4 87.9 83.4 87.9 83.4 87.9 Z M 84.0 87.8 C 84.0 87.8 84.0 87.8 84.0 87.8 C 84.0 87.8 84.0 87.8 84.0 87.8 Z M 81.2 61.9 C 81.3 61.9 81.3 61.9 81.2 61.9 C 81.2 61.9 81.2 61.9 81.2 61.9 Z M 83.0 64.1 C 82.3 62.6 83.9 64.5 83.0 64.1 C 83.0 64.1 83.0 64.1 83.0 64.1 Z M 82.1 77.4 C 81.9 76.0 82.6 78.2 82.1 77.4 C 82.1 77.4 82.1 77.4 82.1 77.4 Z M 84.4 75.9 C 84.4 75.8 84.4 75.8 84.4 75.9 C 84.4 75.9 84.4 75.9 84.4 75.9 Z M 79.3 85.0 C 79.4 85.1 79.4 85.1 79.3 85.0 C 79.3 85.0 79.3 85.0 79.3 85.0 Z M 80.1 87.5 C 81.0 87.6 79.6 88.3 80.1 87.5 M 79.5 74.8 C 79.6 74.8 79.6 74.8 79.5 74.8 C 79.5 74.8 79.5 74.8 79.5 74.8 Z M 80.9 66.7 C 81.0 66.8 81.0 66.8 80.9 66.7 C 80.9 66.7 80.9 66.7 80.9 66.7 Z M 80.4 58.7 C 80.5 58.8 80.5 58.8 80.4 58.7 C 80.4 58.7 80.4 58.7 80.4 58.7 Z M 79.6 69.8 C 79.8 69.8 79.8 69.8 79.6 69.8 C 79.6 69.8 79.6 69.8 79.6 69.8 Z M 80.5 73.6 C 80.6 73.6 80.6 73.6 80.5 73.6 C 80.5 73.6 80.5 73.6 80.5 73.6 Z M 81.6 57.0 C 81.7 57.0 81.7 57.0 81.6 57.0 C 81.6 57.0 81.6 57.0 81.6 57.0 Z M 79.5 68.9 C 79.5 68.9 79.5 68.9 79.5 68.9 C 79.5 68.9 79.5 68.9 79.5 68.9 Z M 82.4 66.6 C 82.5 66.6 82.5 66.6 82.4 66.6 C 82.4 66.6 82.4 66.6 82.4 66.6 Z M 78.8 87.2 C 78.8 87.2 78.8 87.2 78.8 87.2 C 78.8 87.2 78.8 87.2 78.8 87.2 Z M 80.4 56.9 C 80.5 56.9 80.5 56.9 80.4 56.9 C 80.4 56.9 80.4 56.9 80.4 56.9 Z M 79.6 56.4 C 79.7 56.4 79.7 56.4 79.6 56.4 C 79.6 56.4 79.6 56.4 79.6 56.4 Z M 83.9 62.1 C 83.4 64.9 83.7 59.5 82.7 61.6 C 82.5 57.5 83.9 61.5 83.9 62.1 C 83.9 62.1 83.9 62.1 83.9 62.1 Z M 79.3 52.6 C 80.5 54.2 81.7 54.2 82.9 53.5 C 83.6 52.7 81.1 52.8 83.2 52.7 C 83.6 54.5 86.3 51.9 83.6 52.0 C 83.2 49.6 85.3 51.6 84.3 50.2 C 84.0 47.7 84.8 49.0 84.6 47.0 C 83.2 45.9 85.3 45.9 84.0 45.4 C 85.5 46.4 83.5 43.3 84.2 43.2 C 85.1 45.0 84.2 36.5 83.8 41.2 C 83.1 39.3 84.3 39.6 84.5 39.0 C 83.7 38.2 85.2 35.9 84.4 34.7 C 84.2 34.9 84.1 35.5 83.8 35.7 C 83.2 36.0 83.9 34.4 83.9 34.6 C 83.6 33.8 82.7 30.7 84.2 34.0 C 84.9 34.2 83.9 31.4 84.5 31.5 C 84.6 28.6 83.1 30.7 84.2 29.5 C 84.2 27.5 84.2 26.0 84.0 26.0 C 84.2 24.8 85.0 24.6 84.2 23.5 C 85.8 21.0 81.2 21.7 84.3 20.8 C 83.6 20.1 85.6 19.4 83.7 19.5 C 84.5 20.4 84.7 14.6 83.6 17.2 C 83.1 16.6 84.5 12.5 82.8 13.6 C 81.1 12.9 80.1 13.9 79.3 16.2 C 80.3 15.8 78.6 18.7 80.1 16.7 C 80.4 14.8 81.0 20.3 80.3 19.1 C 78.1 18.8 81.8 22.0 80.1 23.3 C 81.0 22.3 81.5 27.2 79.8 25.7 C 79.7 26.7 80.5 26.9 79.5 27.9 C 79.6 24.9 81.2 29.0 80.2 28.8 C 79.6 28.3 79.1 32.7 80.0 32.2 C 82.4 30.7 79.5 33.4 80.5 34.1 C 81.0 36.5 78.5 33.7 80.2 35.5 C 79.9 36.0 79.9 39.2 79.4 37.2 C 79.6 36.4 82.0 39.1 80.0 39.5 C 78.8 36.0 79.4 43.4 80.0 42.2 C 81.0 37.0 81.2 47.8 80.1 43.7 C 79.0 46.1 79.7 43.0 80.2 45.9 C 80.8 45.5 81.4 47.8 80.1 47.3 C 78.2 47.7 82.7 48.1 80.1 49.9 C 79.0 50.1 80.9 53.4 79.6 52.1 C 79.5 52.0 79.3 52.5 79.3 52.6 M 79.5 51.6 C 79.9 52.0 79.0 52.2 79.5 51.6 M 79.9 52.0 C 79.9 52.0 79.9 52.0 79.9 52.0 C 79.9 52.0 79.9 52.0 79.9 52.0 Z M 80.2 46.4 C 80.2 46.4 80.2 46.4 80.2 46.4 C 80.2 46.4 80.2 46.4 80.2 46.4 Z M 85.0 41.9 C 84.9 41.9 84.9 41.9 85.0 41.9 C 85.0 41.9 85.0 41.9 85.0 41.9 Z M 80.3 42.6 C 80.3 42.6 80.3 42.6 80.3 42.6 C 80.3 42.6 80.3 42.6 80.3 42.6 Z M 80.5 48.4 C 80.5 48.4 80.5 48.4 80.5 48.4 C 80.5 48.4 80.5 48.4 80.5 48.4 Z M 79.6 42.9 C 80.4 42.7 79.1 44.3 79.5 42.9 C 79.6 42.8 79.6 43.1 79.6 42.9 M 79.4 38.0 C 79.4 38.0 79.4 38.0 79.4 38.0 M 84.9 27.2 C 85.0 27.2 85.0 27.2 84.9 27.2 M 79.3 26.3 C 79.4 26.2 79.4 26.2 79.3 26.3 M 80.1 33.2 C 80.0 31.6 80.4 32.8 80.1 33.2 M 79.7 22.4 C 79.2 24.3 79.3 20.4 79.7 22.4 M 79.3 20.6 C 79.4 20.4 79.4 20.4 79.3 20.6 M 79.6 29.1 C 79.6 29.1 79.6 29.1 79.6 29.1 C 79.6 29.1 79.6 29.1 79.6 29.1 Z M 79.8 33.8 C 79.4 35.8 79.1 31.8 79.8 33.8 M 79.5 45.7 C 79.2 44.6 80.5 45.7 79.5 45.7 M 79.9 47.9 C 80.0 47.9 80.0 47.9 79.9 47.9 C 79.9 47.9 79.9 47.9 79.9 47.9 Z M 79.7 25.4 C 79.7 25.5 79.7 25.5 79.7 25.4 C 79.7 25.4 79.7 25.4 79.7 25.4 Z M 79.5 23.2 C 79.6 23.3 79.6 23.3 79.5 23.2 C 79.5 23.2 79.5 23.2 79.5 23.2 Z M 84.7 19.6 C 84.8 19.7 84.8 19.7 84.7 19.6 C 84.7 19.6 84.7 19.6 84.7 19.6 Z M 82.1 46.3 C 81.7 47.7 80.4 44.8 81.7 45.1 C 82.2 44.9 82.0 46.1 82.1 46.3 M 81.4 35.2 C 83.2 34.8 79.0 36.7 81.4 35.2 M 80.5 20.3 C 82.6 18.8 79.0 22.1 80.5 20.3 M 80.0 17.5 C 80.3 16.7 80.5 22.4 79.7 18.5 C 79.4 18.1 79.8 17.8 80.0 17.5 M 80.2 38.0 C 81.2 37.5 79.8 40.3 80.2 38.0 M 83.2 28.9 C 82.5 28.2 82.0 26.4 83.1 27.2 C 84.4 27.2 83.7 29.8 83.2 28.9 M 80.5 51.1 C 78.9 49.9 81.9 51.2 80.5 51.1 M 80.7 45.4 C 80.6 45.4 80.6 45.4 80.7 45.4 C 80.7 45.4 80.7 45.4 80.7 45.4 Z M 80.4 43.2 C 80.5 43.1 80.5 43.1 80.4 43.2 M 79.1 50.2 C 79.3 50.1 79.3 50.1 79.1 50.2 M 81.5 29.0 C 81.7 28.9 81.7 28.9 81.5 29.0 M 80.5 33.6 C 82.0 31.4 80.8 34.8 80.5 33.6 M 83.5 39.0 C 84.2 38.3 83.5 40.3 83.5 39.0 M 79.9 30.0 C 81.4 28.4 81.3 32.1 79.9 30.0 M 80.3 34.7 C 80.3 34.6 80.3 34.6 80.3 34.7 C 80.3 34.7 80.3 34.7 80.3 34.7 Z M 83.3 28.4 C 83.4 28.4 83.4 28.4 83.3 28.4 C 83.3 28.4 83.3 28.4 83.3 28.4 Z M 83.3 27.7 C 83.3 27.8 83.3 27.8 83.3 27.7 C 83.3 27.7 83.3 27.7 83.3 27.7 Z M 79.7 28.1 C 79.8 28.1 79.8 28.1 79.7 28.1 C 79.7 28.1 79.7 28.1 79.7 28.1 Z M 84.0 48.1 C 84.1 46.5 84.2 49.3 84.0 48.1 C 84.0 48.1 84.0 48.1 84.0 48.1 Z M 79.7 41.2 C 80.8 38.6 80.8 43.0 79.7 41.2 C 79.7 41.2 79.7 41.2 79.7 41.2 Z M 81.6 38.2 C 81.7 38.2 81.7 38.2 81.6 38.2 C 81.6 38.2 81.6 38.2 81.6 38.2 Z M 79.0 31.0 C 79.1 31.0 79.1 31.0 79.0 31.0 C 79.0 31.0 79.0 31.0 79.0 31.0 Z M 84.2 47.3 C 84.3 47.3 84.3 47.3 84.2 47.3 C 84.2 47.3 84.2 47.3 84.2 47.3 Z M 80.5 23.6 C 80.6 23.6 80.6 23.6 80.5 23.6 C 80.5 23.6 80.5 23.6 80.5 23.6 Z M 83.6 32.6 C 83.0 32.0 84.0 32.5 83.6 32.6 C 83.6 32.6 83.6 32.6 83.6 32.6 Z M 83.6 30.3 C 83.6 30.2 83.6 30.2 83.6 30.3 C 83.6 30.3 83.6 30.3 83.6 30.3 Z M 79.2 20.0 C 79.2 19.9 79.2 19.9 79.2 20.0 C 79.2 20.0 79.2 20.0 79.2 20.0 Z M 85.0 24.3 C 85.0 24.3 85.0 24.3 85.0 24.3 C 85.0 24.3 85.0 24.3 85.0 24.3 Z M 83.2 22.4 C 83.3 22.4 83.3 22.4 83.2 22.4 C 83.2 22.4 83.2 22.4 83.2 22.4 Z M 80.1 28.5 C 79.8 26.2 80.7 29.0 80.1 28.5 C 80.1 28.5 80.1 28.5 80.1 28.5 Z M 82.5 16.4 C 82.6 16.3 82.6 16.3 82.5 16.4 C 82.5 16.4 82.5 16.4 82.5 16.4 Z M 80.3 15.7 C 80.4 15.6 80.4 15.6 80.3 15.7 C 80.3 15.7 80.3 15.7 80.3 15.7 Z M 79.1 15.5 C 79.2 15.4 79.2 15.4 79.1 15.5 C 79.1 15.5 79.1 15.5 79.1 15.5 Z M 82.6 43.2 C 82.5 43.3 82.5 43.3 82.6 43.2 C 82.6 43.2 82.6 43.2 82.6 43.2 Z M 79.3 44.1 C 79.3 44.1 79.3 44.1 79.3 44.1 C 79.3 44.1 79.3 44.1 79.3 44.1 Z M 79.1 41.0 C 79.1 41.0 79.1 41.0 79.1 41.0 C 79.1 41.0 79.1 41.0 79.1 41.0 Z M 84.6 43.8 C 84.5 43.8 84.5 43.8 84.6 43.8 C 84.6 43.8 84.6 43.8 84.6 43.8 Z M 81.8 32.0 C 81.7 32.0 81.7 32.0 81.8 32.0 C 81.8 32.0 81.8 32.0 81.8 32.0 Z M 83.1 30.8 C 83.0 30.9 83.0 30.9 83.1 30.8 C 83.1 30.8 83.1 30.8 83.1 30.8 Z M 84.9 33.6 C 84.8 33.6 84.8 33.6 84.9 33.6 C 84.9 33.6 84.9 33.6 84.9 33.6 Z M 84.3 30.0 C 84.2 30.0 84.2 30.0 84.3 30.0 C 84.3 30.0 84.3 30.0 84.3 30.0 Z M 84.0 51.7 C 84.0 51.7 84.0 51.7 84.0 51.7 C 84.0 51.7 84.0 51.7 84.0 51.7 Z M 81.4 51.9 C 81.5 52.0 81.5 52.0 81.4 51.9 C 81.4 51.9 81.4 51.9 81.4 51.9 Z M 79.9 31.6 C 79.4 31.1 80.7 30.5 79.9 31.6 M 80.3 36.1 C 80.3 36.1 80.3 36.1 80.3 36.1 C 80.3 36.1 80.3 36.1 80.3 36.1 Z M 80.0 24.0 C 81.0 23.4 79.5 26.1 80.0 24.0 C 80.0 24.0 80.0 24.0 80.0 24.0 Z M 84.2 26.4 C 84.3 26.4 84.3 26.4 84.2 26.4 C 84.2 26.4 84.2 26.4 84.2 26.4 Z M 83.8 25.2 C 83.9 25.1 83.9 25.1 83.8 25.2 C 83.8 25.2 83.8 25.2 83.8 25.2 Z M 81.1 18.7 C 81.2 18.6 81.2 18.6 81.1 18.7 M 79.4 36.7 C 79.8 36.0 79.7 36.1 79.4 36.7 M 80.1 22.5 C 80.1 22.6 80.1 22.6 80.1 22.5 C 80.1 22.5 80.1 22.5 80.1 22.5 Z M 80.4 17.4 C 80.5 17.5 80.5 17.5 80.4 17.4 C 80.4 17.4 80.4 17.4 80.4 17.4 Z M 80.1 39.9 C 81.3 39.7 81.0 40.4 80.1 39.9 M 80.4 48.8 C 80.5 48.8 80.5 48.8 80.4 48.8 C 80.4 48.8 80.4 48.8 80.4 48.8 Z M 77.4 12.0 C 77.5 14.4 78.9 13.5 79.0 13.5 C 76.6 14.4 80.7 15.0 81.0 14.4 C 81.3 14.3 84.5 10.3 81.3 10.2 C 80.7 10.0 81.2 9.3 81.0 8.9 C 78.9 6.3 81.4 11.3 78.9 8.5 C 78.7 7.7 80.7 6.6 78.0 6.2 C 78.1 6.0 76.3 3.8 76.6 5.2 C 76.1 3.6 74.7 4.2 73.5 4.0 C 72.8 3.0 74.9 2.4 70.8 2.7 C 69.5 0.6 68.3 3.6 66.9 1.7 C 66.0 1.6 64.7 4.8 66.7 3.0 C 66.4 3.2 67.7 4.7 64.9 4.2 C 65.3 3.7 66.9 0.5 62.5 2.0 C 61.8 2.0 60.1 2.8 59.7 2.5 C 62.0 2.1 56.7 1.0 57.2 2.0 C 53.7 1.3 55.7 2.8 53.2 1.7 C 51.2 1.7 53.9 3.2 51.3 2.3 C 49.4 2.5 50.7 1.7 50.9 1.7 C 49.2 1.6 48.6 2.2 48.0 2.1 C 47.7 2.0 46.9 1.3 46.5 2.1 C 44.7 3.6 46.4 5.0 45.6 6.5 C 46.9 7.2 46.1 5.4 47.0 6.5 C 47.7 5.5 47.1 6.6 50.7 6.3 C 50.6 6.1 49.7 5.5 50.6 5.4 C 51.9 5.5 51.0 8.0 53.2 6.2 C 50.6 5.7 57.0 5.4 54.5 4.9 C 57.6 4.6 55.4 5.1 57.6 5.7 C 57.5 4.0 57.8 7.5 58.7 6.2 C 58.9 6.9 62.4 6.5 59.9 5.5 C 63.5 5.1 61.2 6.0 62.5 6.9 C 64.2 7.0 62.7 4.2 63.7 6.3 C 65.9 7.2 63.8 5.2 65.4 6.8 C 64.7 5.4 67.0 6.9 66.4 5.3 C 70.2 5.2 66.0 6.8 68.5 6.0 C 67.7 5.8 67.8 7.8 69.4 6.8 C 69.2 4.2 70.7 9.3 70.4 5.9 C 75.3 6.2 70.9 7.2 72.9 8.3 C 73.5 8.6 72.8 7.0 73.3 7.3 C 76.0 9.2 73.1 8.5 75.4 8.3 C 78.3 10.0 75.3 9.9 76.2 11.0 C 76.8 10.6 78.7 10.8 77.4 12.0 M 76.2 9.4 C 75.4 9.4 76.3 8.8 76.2 9.4 M 79.0 15.0 C 78.3 14.6 79.4 14.5 79.0 15.0 M 73.9 8.2 C 72.9 8.2 74.1 7.4 73.9 8.2 M 55.6 5.5 C 57.0 5.5 55.0 5.9 55.6 5.5 M 77.9 12.9 C 76.9 12.4 78.5 12.2 77.9 12.9 M 79.5 13.3 C 79.5 13.2 79.5 13.2 79.5 13.3 M 53.6 6.8 C 53.6 6.8 53.6 6.8 53.6 6.8 M 58.9 6.8 C 57.8 6.8 59.6 6.5 58.9 6.8 M 59.1 1.5 C 58.0 1.4 59.8 1.1 59.1 1.5 M 50.7 6.9 C 49.6 7.3 50.4 6.3 50.7 6.9 M 47.8 5.7 C 46.8 6.2 47.1 5.2 47.8 5.7 M 78.0 8.5 C 78.0 8.5 78.0 8.5 78.0 8.5 C 78.0 8.5 78.0 8.5 78.0 8.5 Z M 69.7 2.8 C 70.9 3.5 68.2 1.9 69.7 2.8 M 70.7 6.6 C 70.3 5.4 71.9 7.0 70.7 6.6 C 70.7 6.6 70.7 6.6 70.7 6.6 Z M 72.2 6.6 C 72.3 6.6 72.3 6.6 72.2 6.6 C 72.2 6.6 72.2 6.6 72.2 6.6 Z M 67.3 5.6 C 67.4 5.5 67.4 5.5 67.3 5.6 C 67.3 5.6 67.3 5.6 67.3 5.6 Z M 68.4 5.5 C 68.9 5.3 69.0 5.8 68.4 5.5 C 68.4 5.5 68.4 5.5 68.4 5.5 Z M 60.5 2.0 C 61.0 1.8 61.1 2.2 60.5 2.0 C 60.5 2.0 60.5 2.0 60.5 2.0 Z M 70.1 5.4 C 70.5 4.4 70.7 6.3 70.1 5.4 C 70.1 5.4 70.1 5.4 70.1 5.4 Z M 64.3 2.5 C 63.8 2.8 63.3 1.5 64.3 2.5 M 52.5 6.6 C 52.0 6.9 51.5 5.6 52.5 6.6 M 64.1 6.9 C 63.6 7.2 63.1 5.9 64.1 6.9 M 75.5 9.4 C 75.5 9.3 75.5 9.3 75.5 9.4 M 72.1 2.3 C 71.2 2.4 71.8 1.7 72.1 2.3 M 81.6 9.9 C 80.8 9.4 81.8 9.3 81.6 9.9 M 54.2 1.6 C 54.2 1.9 53.0 1.4 54.2 1.6 M 62.8 5.2 C 61.7 5.0 60.7 4.5 62.8 4.5 C 63.0 4.8 62.3 4.9 62.8 5.2 C 62.8 5.2 62.8 5.2 62.8 5.2 Z M 59.1 2.7 C 59.0 2.6 59.0 2.6 59.1 2.7 M 61.0 6.2 C 60.8 6.1 60.8 6.1 61.0 6.2 M 55.0 6.1 C 54.9 5.9 54.9 5.9 55.0 6.1 M 54.3 6.4 C 54.3 6.3 54.3 6.3 54.3 6.4 C 54.3 6.4 54.3 6.4 54.3 6.4 Z M 47.7 6.8 C 47.8 6.8 47.8 6.8 47.7 6.8 C 47.7 6.8 47.7 6.8 47.7 6.8 Z M 56.9 5.9 C 56.9 5.9 56.9 5.9 56.9 5.9 C 56.9 5.9 56.9 5.9 56.9 5.9 Z M 51.5 1.8 C 51.5 1.7 51.5 1.7 51.5 1.8 C 51.5 1.8 51.5 1.8 51.5 1.8 Z M 52.2 2.4 C 52.2 2.4 52.2 2.4 52.2 2.4 C 52.2 2.4 52.2 2.4 52.2 2.4 Z M 77.2 11.7 C 76.1 11.5 78.5 10.2 77.2 11.7 M 49.3 2.4 C 48.5 1.7 50.8 2.3 49.3 2.4 C 49.3 2.4 49.3 2.4 49.3 2.4 Z M 57.6 5.0 C 57.5 4.9 57.5 4.9 57.6 5.0 M 53.9 6.3 C 53.8 6.1 53.8 6.1 53.9 6.3 M 70.4 7.6 C 70.4 7.4 70.4 7.4 70.4 7.6 M 49.3 6.1 C 46.5 5.8 50.6 4.5 49.3 6.1 M 71.8 6.9 C 71.8 7.0 71.8 7.0 71.8 6.9 M 66.2 4.0 C 64.4 4.1 66.9 3.4 66.2 4.0 M 61.5 5.4 C 61.5 5.4 61.5 5.4 61.5 5.4 C 61.5 5.4 61.5 5.4 61.5 5.4 Z M 64.3 5.4 C 65.6 5.3 64.6 5.7 64.3 5.4 C 64.3 5.4 64.3 5.4 64.3 5.4 Z M 77.3 10.2 C 76.4 8.9 78.6 11.1 77.3 10.2 C 77.3 10.2 77.3 10.2 77.3 10.2 Z M 50.6 3.5 C 50.6 3.5 50.6 3.5 50.6 3.5 C 50.6 3.5 50.6 3.5 50.6 3.5 Z M 57.2 6.7 C 58.1 6.4 57.6 7.0 57.2 6.7 C 57.2 6.7 57.2 6.7 57.2 6.7 Z M 46.8 6.8 C 47.6 6.6 47.2 7.2 46.8 6.8 C 46.8 6.8 46.8 6.8 46.8 6.8 Z M 78.2 11.8 C 76.6 6.1 82.0 18.3 78.2 11.8 C 78.2 11.8 78.2 11.8 78.2 11.8 Z M 63.2 6.2 C 63.2 6.1 63.2 6.1 63.2 6.2 C 63.2 6.2 63.2 6.2 63.2 6.2 Z M 73.3 8.6 C 73.4 8.6 73.4 8.6 73.3 8.6 C 73.3 8.6 73.3 8.6 73.3 8.6 Z M 75.3 8.7 C 75.3 8.7 75.3 8.7 75.3 8.7 C 75.3 8.7 75.3 8.7 75.3 8.7 Z M 77.4 5.0 C 77.4 5.0 77.4 5.0 77.4 5.0 C 77.4 5.0 77.4 5.0 77.4 5.0 Z M 75.6 6.2 C 75.8 6.1 75.8 6.1 75.6 6.2 C 75.6 6.2 75.6 6.2 75.6 6.2 Z M 79.3 8.4 C 79.4 8.4 79.4 8.4 79.3 8.4 C 79.3 8.4 79.3 8.4 79.3 8.4 Z M 79.7 8.0 C 79.8 8.0 79.8 8.0 79.7 8.0 C 79.7 8.0 79.7 8.0 79.7 8.0 Z M 53.9 5.1 C 53.9 5.0 53.9 5.0 53.9 5.1 C 53.9 5.1 53.9 5.1 53.9 5.1 Z M 56.1 3.3 C 54.6 3.9 56.6 2.4 56.1 3.3 C 56.1 3.3 56.1 3.3 56.1 3.3 Z M 69.5 4.4 C 68.0 4.4 70.4 4.0 69.5 4.4 C 69.5 4.4 69.5 4.4 69.5 4.4 Z M 68.1 1.9 C 68.0 1.9 68.0 1.9 68.1 1.9 C 68.1 1.9 68.1 1.9 68.1 1.9 Z M 74.6 9.5 C 74.7 9.5 74.7 9.5 74.6 9.5 C 74.6 9.5 74.6 9.5 74.6 9.5 Z M 76.6 10.4 C 77.3 9.9 76.7 11.2 76.6 10.4 M 66.8 6.7 C 66.8 6.6 66.8 6.6 66.8 6.7 C 66.8 6.7 66.8 6.7 66.8 6.7 Z M 58.8 5.3 C 58.8 5.3 58.8 5.3 58.8 5.3 C 58.8 5.3 58.8 5.3 58.8 5.3 Z M 50.8 5.9 C 50.8 5.8 50.8 5.8 50.8 5.9 C 50.8 5.9 50.8 5.9 50.8 5.9 Z M 61.8 6.6 C 61.9 6.5 61.9 6.5 61.8 6.6 C 61.8 6.6 61.8 6.6 61.8 6.6 Z M 65.6 5.8 C 65.7 5.7 65.7 5.7 65.6 5.8 C 65.6 5.8 65.6 5.8 65.6 5.8 Z M 49.0 4.6 C 49.1 4.6 49.1 4.6 49.0 4.6 C 49.0 4.6 49.0 4.6 49.0 4.6 Z M 60.9 6.7 C 60.9 6.7 60.9 6.7 60.9 6.7 C 60.9 6.7 60.9 6.7 60.9 6.7 Z M 58.6 3.9 C 58.7 3.8 58.7 3.8 58.6 3.9 C 58.6 3.9 58.6 3.9 58.6 3.9 Z M 75.5 11.1 C 75.5 11.1 75.5 11.1 75.5 11.1 C 75.5 11.1 75.5 11.1 75.5 11.1 Z M 48.9 5.8 C 49.0 5.8 49.0 5.8 48.9 5.8 C 48.9 5.8 48.9 5.8 48.9 5.8 Z M 48.4 6.6 C 48.5 6.6 48.5 6.6 48.4 6.6 C 48.4 6.6 48.4 6.6 48.4 6.6 Z M 54.1 2.4 C 56.9 2.9 51.6 2.6 53.6 3.5 C 49.6 3.8 53.5 2.3 54.1 2.4 C 54.1 2.4 54.1 2.4 54.1 2.4 Z M 44.7 7.0 C 46.2 5.8 46.2 4.6 45.5 3.3 C 44.8 2.7 44.8 5.1 44.8 3.1 C 46.5 2.7 44.0 -0.0 44.0 2.6 C 41.7 3.0 43.6 1.0 42.2 2.0 C 39.7 2.3 41.0 1.5 39.1 1.6 C 37.9 3.1 37.9 0.9 37.4 2.3 C 38.4 0.8 35.3 2.7 35.3 2.0 C 37.1 1.1 28.6 2.0 33.2 2.5 C 31.3 3.2 31.7 1.9 31.0 1.7 C 30.2 2.6 27.9 1.0 26.8 1.9 C 27.0 2.1 27.6 2.2 27.7 2.5 C 28.1 3.0 26.4 2.3 26.6 2.4 C 25.8 2.7 22.8 3.6 26.0 2.0 C 26.2 1.3 23.4 2.4 23.5 1.7 C 20.7 1.7 22.8 3.1 21.5 2.1 C 19.5 2.0 17.8 2.2 17.8 2.3 C 16.4 2.4 15.8 1.6 14.9 2.8 C 11.7 2.1 14.4 6.1 12.0 3.8 C 11.6 4.9 10.0 3.5 11.1 5.1 C 11.4 3.9 6.6 6.7 9.3 6.3 C 9.1 7.0 4.9 8.0 6.7 8.8 C 7.1 10.6 8.5 11.0 10.8 10.5 C 9.9 9.8 13.2 9.8 10.8 9.5 C 9.0 10.3 13.1 6.9 12.6 8.1 C 13.6 10.1 14.4 5.5 15.9 6.7 C 14.8 6.1 19.0 4.8 18.0 6.6 C 18.8 6.6 18.9 5.8 19.9 6.8 C 17.0 6.6 21.0 5.0 20.8 6.1 C 20.3 6.7 24.7 7.2 24.3 6.2 C 22.7 3.9 25.4 6.7 26.2 5.8 C 28.6 5.3 25.8 7.8 27.6 6.1 C 28.1 6.4 31.3 6.4 29.2 6.9 C 28.5 6.6 31.1 4.3 31.5 6.3 C 28.1 7.4 35.4 6.9 34.3 6.3 C 29.0 5.2 39.9 5.1 35.7 6.1 C 38.1 7.2 35.0 6.6 38.0 6.1 C 37.6 5.5 39.8 4.9 39.3 6.1 C 39.8 8.0 40.1 3.6 41.9 6.2 C 42.2 7.3 45.4 5.4 44.2 6.6 C 44.1 6.7 44.6 7.0 44.7 7.0 M 43.6 6.7 C 44.0 6.3 44.2 7.3 43.6 6.7 M 44.0 6.3 C 44.1 6.4 44.1 6.4 44.0 6.3 C 44.0 6.3 44.0 6.3 44.0 6.3 Z M 38.4 6.0 C 38.4 6.1 38.4 6.1 38.4 6.0 C 38.4 6.0 38.4 6.0 38.4 6.0 Z M 33.9 1.3 C 34.0 1.3 34.0 1.3 33.9 1.3 C 33.9 1.3 33.9 1.3 33.9 1.3 Z M 34.6 5.9 C 34.7 5.9 34.7 5.9 34.6 5.9 C 34.6 5.9 34.6 5.9 34.6 5.9 Z M 40.4 5.7 C 40.4 5.7 40.4 5.7 40.4 5.7 C 40.4 5.7 40.4 5.7 40.4 5.7 Z M 35.0 6.6 C 34.7 5.9 36.3 7.1 34.9 6.7 C 34.9 6.7 35.1 6.7 35.0 6.6 M 30.1 6.9 C 30.0 6.8 30.0 6.8 30.1 6.9 M 19.1 1.3 C 19.1 1.3 19.1 1.3 19.1 1.3 M 18.6 7.0 C 18.5 6.9 18.5 6.9 18.6 7.0 M 25.2 6.2 C 23.7 6.3 24.8 5.8 25.2 6.2 M 15.3 7.4 C 16.9 7.3 13.9 8.4 15.3 7.4 M 14.1 8.4 C 14.0 8.4 14.0 8.4 14.1 8.4 M 21.1 6.7 C 21.1 6.7 21.1 6.7 21.1 6.7 C 21.1 6.7 21.1 6.7 21.1 6.7 Z M 25.8 6.5 C 27.8 6.9 23.8 7.1 25.8 6.5 M 37.7 6.7 C 36.7 7.1 37.7 5.8 37.7 6.7 M 39.9 6.3 C 40.0 6.3 40.0 6.3 39.9 6.3 C 39.9 6.3 39.9 6.3 39.9 6.3 Z M 17.8 6.8 C 17.8 6.7 17.8 6.7 17.8 6.8 C 17.8 6.8 17.8 6.8 17.8 6.8 Z M 16.0 7.3 C 16.1 7.3 16.1 7.3 16.0 7.3 C 16.0 7.3 16.0 7.3 16.0 7.3 Z M 10.6 4.1 C 10.7 4.0 10.7 4.0 10.6 4.1 C 10.6 4.1 10.6 4.1 10.6 4.1 Z M 38.3 4.2 C 39.8 4.5 36.8 5.9 37.1 4.6 C 36.9 4.1 38.1 4.3 38.3 4.2 M 27.3 4.9 C 26.9 3.1 28.7 7.3 27.3 4.9 M 13.4 7.5 C 11.2 6.2 15.5 8.0 13.4 7.5 M 11.5 9.2 C 10.6 9.4 15.0 6.3 12.4 8.9 C 12.3 9.4 11.8 9.2 11.5 9.2 M 30.0 6.0 C 29.6 5.1 32.3 6.5 30.0 6.0 M 21.0 3.1 C 20.3 3.7 18.3 4.3 19.2 3.2 C 19.1 1.8 21.8 2.6 21.0 3.1 M 43.2 5.7 C 42.0 7.3 43.2 4.4 43.2 5.7 M 37.4 5.6 C 37.4 5.7 37.4 5.7 37.4 5.6 C 37.4 5.6 37.4 5.6 37.4 5.6 Z M 35.2 5.9 C 35.1 5.7 35.1 5.7 35.2 5.9 M 42.2 7.1 C 42.1 7.0 42.1 7.0 42.2 7.1 M 21.0 4.7 C 20.9 4.6 20.9 4.6 21.0 4.7 M 25.6 5.8 C 23.4 4.2 26.8 5.5 25.6 5.8 M 31.0 2.8 C 30.3 2.0 32.4 2.7 31.0 2.8 M 22.0 6.4 C 20.5 4.9 24.1 5.0 22.0 6.4 M 26.7 5.9 C 26.6 5.9 26.6 5.9 26.7 5.9 C 26.7 5.9 26.7 5.9 26.7 5.9 Z M 20.4 2.9 C 20.4 2.9 20.4 2.9 20.4 2.9 C 20.4 2.9 20.4 2.9 20.4 2.9 Z M 19.7 3.0 C 19.8 3.0 19.8 3.0 19.7 3.0 C 19.7 3.0 19.7 3.0 19.7 3.0 Z M 20.1 6.5 C 20.2 6.5 20.2 6.5 20.1 6.5 C 20.1 6.5 20.1 6.5 20.1 6.5 Z M 40.1 2.3 C 38.5 2.1 41.3 2.0 40.1 2.3 C 40.1 2.3 40.1 2.3 40.1 2.3 Z M 33.2 6.6 C 30.6 5.4 35.0 5.5 33.2 6.6 C 33.2 6.6 33.2 6.6 33.2 6.6 Z M 30.3 4.7 C 30.3 4.6 30.3 4.6 30.3 4.7 C 30.3 4.7 30.3 4.7 30.3 4.7 Z M 23.0 7.3 C 23.0 7.2 23.0 7.2 23.0 7.3 C 23.0 7.3 23.0 7.3 23.0 7.3 Z M 39.3 2.1 C 39.3 2.0 39.3 2.0 39.3 2.1 C 39.3 2.1 39.3 2.1 39.3 2.1 Z M 16.1 6.3 C 16.0 6.2 16.0 6.2 16.1 6.3 C 16.1 6.3 16.1 6.3 16.1 6.3 Z M 24.6 2.7 C 24.1 3.3 24.5 2.2 24.6 2.7 C 24.6 2.7 24.6 2.7 24.6 2.7 Z M 22.3 2.7 C 22.2 2.7 22.2 2.7 22.3 2.7 C 22.3 2.7 22.3 2.7 22.3 2.7 Z M 13.8 8.7 C 13.7 8.7 13.7 8.7 13.8 8.7 C 13.8 8.7 13.8 8.7 13.8 8.7 Z M 15.6 1.8 C 15.6 1.8 15.6 1.8 15.6 1.8 C 15.6 1.8 15.6 1.8 15.6 1.8 Z M 14.0 4.1 C 14.1 4.1 14.1 4.1 14.0 4.1 C 14.0 4.1 14.0 4.1 14.0 4.1 Z M 20.5 6.2 C 18.2 6.5 21.0 5.5 20.5 6.2 C 20.5 6.2 20.5 6.2 20.5 6.2 Z M 9.2 7.6 C 9.1 7.6 9.1 7.6 9.2 7.6 C 9.2 7.6 9.2 7.6 9.2 7.6 Z M 9.8 9.9 C 9.7 9.8 9.7 9.8 9.8 9.9 C 9.8 9.9 9.8 9.9 9.8 9.9 Z M 10.3 11.0 C 10.2 10.9 10.2 10.9 10.3 11.0 C 10.3 11.0 10.3 11.0 10.3 11.0 Z M 35.2 3.7 C 35.3 3.8 35.3 3.8 35.2 3.7 C 35.2 3.7 35.2 3.7 35.2 3.7 Z M 36.2 7.0 C 36.2 7.0 36.2 7.0 36.2 7.0 C 36.2 7.0 36.2 7.0 36.2 7.0 Z M 33.0 7.1 C 33.0 7.1 33.0 7.1 33.0 7.1 C 33.0 7.1 33.0 7.1 33.0 7.1 Z M 35.8 1.7 C 35.8 1.7 35.8 1.7 35.8 1.7 C 35.8 1.7 35.8 1.7 35.8 1.7 Z M 24.0 4.5 C 24.0 4.5 24.0 4.5 24.0 4.5 C 24.0 4.5 24.0 4.5 24.0 4.5 Z M 22.9 3.2 C 22.9 3.2 22.9 3.2 22.9 3.2 C 22.9 3.2 22.9 3.2 22.9 3.2 Z M 25.6 1.4 C 25.6 1.4 25.6 1.4 25.6 1.4 C 25.6 1.4 25.6 1.4 25.6 1.4 Z M 22.0 2.0 C 22.0 2.0 22.0 2.0 22.0 2.0 C 22.0 2.0 22.0 2.0 22.0 2.0 Z M 43.7 2.3 C 43.7 2.3 43.7 2.3 43.7 2.3 C 43.7 2.3 43.7 2.3 43.7 2.3 Z M 44.0 4.8 C 44.0 4.7 44.0 4.7 44.0 4.8 C 44.0 4.8 44.0 4.8 44.0 4.8 Z M 23.6 6.3 C 23.1 6.8 22.5 5.6 23.6 6.3 M 28.1 6.0 C 28.2 5.9 28.2 5.9 28.1 6.0 C 28.1 6.0 28.1 6.0 28.1 6.0 Z M 16.5 6.6 C 15.8 5.8 18.4 6.7 16.5 6.6 C 16.5 6.6 16.5 6.6 16.5 6.6 Z M 18.2 2.1 C 18.1 2.1 18.1 2.1 18.2 2.1 C 18.2 2.1 18.2 2.1 18.2 2.1 Z M 16.9 2.7 C 16.8 2.6 16.8 2.6 16.9 2.7 C 16.9 2.7 16.9 2.7 16.9 2.7 Z M 11.8 7.7 C 11.7 7.6 11.7 7.6 11.8 7.7 M 28.7 6.9 C 28.0 6.4 28.2 6.5 28.7 6.9 M 15.3 7.0 C 15.3 7.0 15.3 7.0 15.3 7.0 C 15.3 7.0 15.3 7.0 15.3 7.0 Z M 11.1 8.9 C 11.2 8.8 11.2 8.8 11.1 8.9 C 11.1 8.9 11.1 8.9 11.1 8.9 Z M 31.9 6.2 C 31.8 5.0 32.4 5.3 31.9 6.2 M 40.9 5.8 C 40.8 5.7 40.8 5.7 40.9 5.8 C 40.9 5.8 40.9 5.8 40.9 5.8 Z M 40.9 5.8 " fill="#F38F18"></path></g></svg>