<?xml version="1.0" encoding="UTF-8" standalone="no"?><svg xmlns="http://www.w3.org/2000/svg" xmlns:xlink="http://www.w3.org/1999/xlink" clip-rule="evenodd" stroke-miterlimit="4.00" viewBox="0 0 62 65"><desc>SVG generated by Keynote</desc><defs></defs><g transform="matrix(1.00, 0.00, -0.00, -1.00, 0.0, 65.0)"><path d="M 3.8 18.7 L 3.8 46.4 C 3.8 54.7 10.5 61.4 18.8 61.4 L 43.1 61.4 C 51.4 61.4 58.1 54.7 58.1 46.4 L 58.1 18.7 C 58.1 10.4 51.4 3.7 43.1 3.7 L 18.8 3.7 C 10.5 3.7 3.8 10.4 3.8 18.7 Z M 3.8 18.7 " fill="#6FBF40"></path><path d="M 0.0 42.8 L 0.0 15.0 C 0.0 6.7 6.7 0.0 15.0 0.0 L 39.3 0.0 C 47.6 0.0 54.3 6.7 54.3 15.0 L 54.3 42.8 C 54.3 51.0 47.6 57.8 39.3 57.8 L 15.0 57.8 C 6.7 57.8 0.0 51.0 0.0 42.8 Z M 0.0 42.8 " fill="none" stroke="#0B5C18" stroke-width="5.00" transform="matrix(1.00, 0.00, 0.00, -1.00, 3.8, 61.4)"></path><g><clipPath id="clip-698"><path d="M 3.8 3.7 L 58.1 3.7 L 58.1 61.4 L 3.8 61.4 Z M 3.8 3.7 "></path></clipPath><g clip-path="url(#clip-698)"><text xml:space="preserve" font-family="Helvetica-Bold" font-weight="bold" font-size="24.0" fill="#FEFFFE" transform="matrix(1.00, 0.00, -0.00, -1.00, 17.0, 24.0)">d</text><text xml:space="preserve" font-family="Helvetica-Bold" font-weight="bold" font-size="24.0" fill="#FEFFFE" transform="matrix(1.00, 0.00, -0.00, -1.00, 31.7, 24.0)">x</text></g></g></g></svg>