<?xml version="1.0" encoding="UTF-8" standalone="no"?><svg xmlns="http://www.w3.org/2000/svg" xmlns:xlink="http://www.w3.org/1999/xlink" clip-rule="evenodd" stroke-miterlimit="4.00" viewBox="0 0 166 174"><desc>SVG generated by Keynote</desc><defs></defs><g transform="matrix(1.00, 0.00, -0.00, -1.00, 0.0, 174.0)"><path d="M 6.4 30.4 C 6.3 30.2 6.5 29.4 6.4 29.2 M 6.4 30.4 C 7.5 29.7 7.6 28.4 7.8 26.6 C 7.9 24.7 6.8 26.7 6.4 26.5 C 5.9 24.0 6.7 24.0 7.9 24.3 C 7.1 23.4 8.5 20.5 7.0 21.1 C 7.0 25.2 6.7 18.3 5.8 21.7 C 5.6 22.0 5.2 21.1 5.2 20.7 C 4.6 21.8 3.9 19.9 3.4 21.7 C 2.5 21.9 2.9 21.6 2.2 22.8 C 2.1 23.2 2.4 23.0 2.6 23.0 C 3.7 23.2 2.0 24.4 2.7 25.3 C 1.2 26.2 2.9 27.0 3.5 26.3 C 3.4 27.1 1.9 28.1 2.9 29.0 C 2.2 29.5 2.7 31.8 3.6 30.4 C 4.1 29.4 4.6 30.5 4.9 30.7 C 5.2 30.3 4.7 28.9 5.0 28.7 C 5.2 29.1 5.8 30.9 5.7 29.0 C 6.2 29.6 6.5 28.7 6.4 30.4 C 6.4 30.4 6.4 30.4 6.4 30.4 Z M 7.3 23.6 C 7.6 23.6 7.3 24.3 7.3 23.6 C 7.3 23.6 7.3 23.6 7.3 23.6 Z M 2.2 28.3 C 2.6 28.3 2.2 28.9 2.2 28.3 C 2.2 28.3 2.2 28.3 2.2 28.3 Z M 2.6 23.3 C 3.0 23.3 2.6 24.0 2.6 23.3 C 2.6 23.3 2.6 23.3 2.6 23.3 Z M 7.0 25.4 C 6.7 26.5 6.5 24.5 6.8 24.4 C 6.8 24.6 7.3 25.2 7.0 25.4 C 7.0 25.4 7.0 25.4 7.0 25.4 Z M 4.8 25.6 C 5.0 25.6 5.0 26.1 4.6 26.0 C 4.5 25.8 4.7 25.5 4.8 25.6 C 4.8 25.6 4.8 25.6 4.8 25.6 Z M 6.4 20.3 C 6.5 20.4 6.6 20.8 6.2 20.7 C 6.1 20.5 6.2 20.2 6.4 20.3 C 6.4 20.3 6.4 20.3 6.4 20.3 Z M 6.0 26.6 C 5.9 26.9 5.6 27.0 5.5 26.7 C 5.7 26.5 5.8 25.8 6.0 26.6 C 6.0 26.6 6.0 26.6 6.0 26.6 Z M 7.3 28.3 C 7.1 29.2 6.5 27.4 6.7 27.4 C 7.0 27.1 7.6 27.8 7.3 28.3 C 7.3 28.3 7.3 28.3 7.3 28.3 Z M 5.5 27.1 C 5.3 27.9 5.2 26.8 5.5 27.1 C 5.5 27.1 5.5 27.1 5.5 27.1 Z M 3.6 21.0 C 3.4 21.7 3.3 20.7 3.6 21.0 C 3.6 21.0 3.6 21.0 3.6 21.0 Z M 2.4 24.9 C 2.2 25.6 2.1 24.6 2.4 24.9 C 2.4 24.9 2.4 24.9 2.4 24.9 Z M 6.3 23.4 C 6.3 22.2 7.2 23.3 6.3 23.4 C 6.3 23.4 6.3 23.4 6.3 23.4 Z M 7.4 30.4 C 7.4 29.1 8.3 30.2 7.4 30.4 C 7.4 30.4 7.4 30.4 7.4 30.4 Z M 7.1 18.5 C 7.2 19.5 9.1 15.9 7.3 17.0 C 6.0 17.2 7.0 14.5 7.8 15.5 C 8.2 14.8 8.3 14.9 7.9 14.2 C 8.8 14.5 10.1 13.3 10.0 12.5 C 9.7 11.7 9.2 13.4 9.2 12.1 C 10.4 10.0 8.3 11.7 8.2 10.3 C 8.3 10.2 8.7 10.5 8.6 10.1 C 8.0 9.4 6.4 10.3 6.3 9.3 C 6.2 9.7 4.1 11.0 5.3 10.6 C 6.2 10.9 3.1 12.3 4.6 12.8 C 3.6 13.1 4.2 14.2 3.2 14.6 C 2.9 15.1 3.6 15.3 3.8 15.3 C 4.5 15.4 2.1 15.6 3.2 16.7 C 2.8 16.7 2.5 19.3 3.4 17.5 C 3.2 18.0 2.7 20.8 4.1 19.4 C 4.8 17.5 5.3 21.3 5.5 19.2 C 5.7 17.7 5.6 17.4 6.1 18.6 C 6.0 18.9 6.1 20.6 6.7 19.2 C 6.6 18.9 6.8 18.2 7.1 18.5 C 7.1 18.5 7.1 18.5 7.1 18.5 Z M 5.1 18.6 C 5.2 17.6 5.7 18.5 5.1 18.6 C 5.1 18.6 5.1 18.6 5.1 18.6 Z M 3.0 14.4 C 3.3 13.3 3.5 14.5 3.0 14.4 C 3.0 14.4 3.0 14.4 3.0 14.4 Z M 8.0 16.1 C 7.7 15.6 9.0 16.0 8.0 16.1 C 8.0 16.1 8.0 16.1 8.0 16.1 Z M 3.6 16.4 C 3.6 16.3 3.7 16.6 3.8 16.8 C 3.7 16.7 3.6 16.5 3.6 16.4 C 3.6 16.4 3.6 16.4 3.6 16.4 Z M 8.4 14.9 C 8.3 13.7 9.5 15.2 8.4 14.9 C 8.4 14.9 8.4 14.9 8.4 14.9 Z M 8.4 12.2 C 7.4 11.3 9.4 11.3 8.4 12.2 C 8.4 12.2 8.4 12.2 8.4 12.2 Z M 4.9 12.4 C 5.0 12.7 4.6 12.5 4.9 12.4 C 4.9 12.4 4.9 12.4 4.9 12.4 Z M 2.9 18.8 C 3.2 19.1 2.7 19.0 2.9 18.8 C 2.9 18.8 2.9 18.8 2.9 18.8 Z M 5.9 10.8 C 6.3 11.2 5.4 11.1 5.9 10.8 C 5.9 10.8 5.9 10.8 5.9 10.8 Z M 7.5 15.8 C 8.2 17.1 5.6 16.5 7.5 15.8 C 7.5 15.8 7.5 15.8 7.5 15.8 Z M 7.1 17.7 C 7.2 18.5 6.5 17.4 6.7 17.1 C 6.8 17.2 7.1 17.5 7.1 17.7 C 7.1 17.7 7.1 17.7 7.1 17.7 Z M 7.8 14.7 C 8.0 15.6 7.3 15.2 7.8 14.7 C 7.8 14.7 7.8 14.7 7.8 14.7 Z M 7.7 16.6 C 7.5 16.9 7.7 16.3 7.7 16.6 C 7.7 16.6 7.7 16.6 7.7 16.6 Z M 9.4 13.9 C 9.2 14.1 9.5 13.6 9.4 13.9 C 9.4 13.9 9.4 13.9 9.4 13.9 Z M 7.6 18.7 C 7.4 19.0 7.4 18.3 7.6 18.7 C 7.6 18.7 7.6 18.7 7.6 18.7 Z M 8.7 13.8 C 8.3 13.5 6.8 13.8 8.6 12.7 C 9.1 12.6 9.3 13.6 8.7 13.8 C 8.7 13.8 8.7 13.8 8.7 13.8 Z M 6.4 34.5 C 7.9 28.7 5.3 30.1 4.8 29.8 C 4.0 29.1 3.6 29.8 3.1 31.0 C 1.4 32.2 4.8 32.8 3.1 33.7 C 0.8 35.2 5.1 35.4 2.7 36.1 C 2.1 35.9 2.6 38.1 2.7 37.9 C 1.6 39.0 3.6 40.6 3.8 40.7 C 3.5 41.4 1.4 41.5 3.0 43.8 C 3.6 45.6 1.4 46.4 2.9 45.9 C 1.3 47.3 3.4 46.8 2.8 48.2 C 1.9 49.1 4.2 48.2 2.5 49.8 C 3.9 50.6 1.6 49.1 2.6 53.5 C 2.7 51.4 3.7 55.6 2.7 54.8 C 1.7 53.3 3.1 56.9 2.5 58.9 C 3.0 59.4 4.3 61.9 2.9 61.5 C 1.3 63.6 3.9 63.6 2.6 64.5 C 2.0 65.2 3.2 65.5 3.1 65.9 C 2.1 66.7 2.8 67.3 2.5 69.9 C 2.0 75.7 5.0 70.8 5.3 73.0 C 5.8 73.3 9.0 70.2 6.6 71.4 C 7.3 71.0 4.8 66.4 7.4 68.7 C 6.3 66.9 8.5 69.1 7.2 65.5 C 5.4 70.4 6.5 59.9 7.4 64.6 C 7.9 63.9 7.8 61.9 7.4 63.3 C 5.7 63.9 8.1 60.0 6.1 61.9 C 6.7 58.9 4.8 59.7 6.1 58.9 C 8.3 58.1 5.5 59.0 6.2 57.5 C 6.2 53.9 8.7 56.7 7.1 54.5 C 8.2 51.1 6.1 53.8 5.8 52.6 C 4.3 52.2 7.0 49.0 7.2 51.7 C 6.4 50.3 7.9 51.4 6.9 49.8 C 5.5 51.0 8.5 47.8 7.3 48.3 C 7.0 46.8 6.1 47.6 6.1 47.1 C 6.1 45.0 7.5 45.7 6.4 45.2 C 5.8 44.8 7.7 43.8 7.2 43.5 C 7.1 45.7 5.7 41.7 6.5 41.5 C 6.6 42.8 8.4 40.8 7.2 39.9 C 4.1 41.0 8.0 38.0 6.9 37.1 C 5.2 38.0 6.7 32.3 7.5 34.5 C 7.4 34.3 6.4 34.5 6.4 34.5 M 7.0 42.9 C 6.8 44.6 6.6 40.9 7.0 42.9 M 7.4 42.8 C 6.8 43.6 7.9 41.1 7.6 42.9 C 7.6 42.9 7.5 42.7 7.4 42.8 M 7.5 50.2 C 7.0 49.9 7.8 49.2 7.5 50.2 M 6.4 51.6 C 6.0 52.8 6.3 50.0 6.4 51.6 M 6.8 67.9 C 4.2 66.3 8.2 66.2 6.8 67.9 M 7.3 57.1 C 6.9 55.1 8.4 57.8 7.3 57.1 M 6.6 56.5 C 6.2 55.6 7.2 56.3 6.6 56.5 M 6.8 64.8 C 6.7 65.0 6.7 65.0 6.8 64.8 C 6.8 64.8 6.8 64.8 6.8 64.8 Z M 6.7 69.7 C 6.7 69.7 6.7 69.7 6.7 69.7 C 6.7 69.7 6.7 69.7 6.7 69.7 Z M 6.5 60.1 C 7.1 58.6 6.7 62.6 6.5 60.1 C 6.5 60.1 6.5 60.1 6.5 60.1 Z M 2.8 67.4 C 2.7 67.3 2.7 67.3 2.8 67.4 C 2.8 67.4 2.8 67.4 2.8 67.4 Z M 5.8 41.4 C 5.8 41.4 5.8 41.4 5.8 41.4 C 5.8 41.4 5.8 41.4 5.8 41.4 Z M 6.8 35.9 C 6.4 36.0 7.0 34.9 6.8 35.9 C 6.8 35.9 6.8 35.9 6.8 35.9 Z M 3.8 31.5 C 3.8 31.4 3.8 31.4 3.8 31.5 C 3.8 31.5 3.8 31.5 3.8 31.5 Z M 4.4 39.6 C 4.4 39.5 4.4 39.5 4.4 39.6 C 4.4 39.6 4.4 39.6 4.4 39.6 Z M 6.4 40.4 C 7.8 39.5 6.0 42.5 6.4 40.4 C 6.4 40.4 6.4 40.4 6.4 40.4 Z M 2.9 58.3 C 3.6 58.3 2.7 59.6 2.9 58.3 C 2.9 58.3 2.9 58.3 2.9 58.3 Z M 5.9 51.8 C 6.2 52.0 5.7 52.6 5.9 51.8 C 5.9 51.8 5.9 51.8 5.9 51.8 Z M 7.8 48.8 C 8.1 49.0 7.6 49.6 7.8 48.8 C 7.8 48.8 7.8 48.8 7.8 48.8 Z M 7.2 36.0 C 7.2 36.1 7.2 36.1 7.2 36.0 C 7.2 36.0 7.2 36.0 7.2 36.0 Z M 6.1 38.0 C 7.4 36.6 5.4 40.1 6.1 38.0 C 6.1 38.0 6.1 38.0 6.1 38.0 Z M 5.7 35.7 C 5.2 36.4 5.9 33.9 5.7 35.7 M 3.7 37.0 C 4.2 38.7 1.3 35.5 3.7 37.0 C 3.7 37.0 3.7 37.0 3.7 37.0 Z M 3.1 45.5 C 3.1 45.6 3.1 45.6 3.1 45.5 C 3.1 45.5 3.1 45.5 3.1 45.5 Z M 7.0 44.6 C 7.0 46.1 6.7 43.6 7.0 44.6 C 7.0 44.6 7.0 44.6 7.0 44.6 Z M 7.3 31.8 C 7.3 33.3 7.0 30.8 7.3 31.8 C 7.3 31.8 7.3 31.8 7.3 31.8 Z M 4.4 50.4 C 4.7 52.8 3.7 48.9 4.4 50.4 C 4.4 50.4 4.4 50.4 4.4 50.4 Z M 6.0 59.3 C 5.9 59.4 5.9 59.4 6.0 59.3 C 6.0 59.3 6.0 59.3 6.0 59.3 Z M 6.5 60.9 C 6.5 61.0 6.5 61.0 6.5 60.9 C 6.5 60.9 6.5 60.9 6.5 60.9 Z M 5.2 67.8 C 5.1 67.9 5.1 67.9 5.2 67.8 C 5.2 67.8 5.2 67.8 5.2 67.8 Z M 7.2 62.4 C 7.1 62.5 7.1 62.5 7.2 62.4 C 7.2 62.4 7.2 62.4 7.2 62.4 Z M 6.8 67.2 C 6.8 67.3 6.8 67.3 6.8 67.2 C 6.8 67.2 6.8 67.2 6.8 67.2 Z M 8.0 66.5 C 7.9 66.6 7.9 66.6 8.0 66.5 C 8.0 66.5 8.0 66.5 8.0 66.5 Z M 2.2 55.9 C 2.1 56.0 2.1 56.0 2.2 55.9 C 2.2 55.9 2.2 55.9 2.2 55.9 Z M 7.6 38.6 C 7.5 38.7 7.5 38.7 7.6 38.6 C 7.6 38.6 7.6 38.6 7.6 38.6 Z M 6.3 66.8 C 6.3 66.9 6.3 66.9 6.3 66.8 C 6.3 66.8 6.3 66.8 6.3 66.8 Z M 5.3 55.2 C 4.1 55.2 6.7 54.2 5.3 55.5 C 5.2 55.4 5.4 55.1 5.3 55.2 M 3.4 56.8 C 3.3 56.7 3.3 56.7 3.4 56.8 C 3.4 56.8 3.4 56.8 3.4 56.8 Z M 2.7 51.5 C 2.6 51.4 2.6 51.4 2.7 51.5 C 2.7 51.5 2.7 51.5 2.7 51.5 Z M 7.4 61.6 C 8.0 61.4 6.9 62.9 7.3 61.4 M 3.2 67.8 C 3.8 67.6 2.7 69.2 3.1 67.7 M 6.9 30.1 C 6.4 29.9 7.2 29.1 6.9 30.1 M 2.1 50.3 C 1.6 50.1 2.4 49.3 2.1 50.3 M 3.5 52.8 C 4.2 52.6 3.0 54.1 3.5 52.6 M 3.2 64.2 C 3.2 64.3 3.2 64.3 3.2 64.2 C 3.2 64.2 3.2 64.2 3.2 64.2 Z M 6.9 46.8 C 6.9 46.9 6.9 46.9 6.9 46.8 C 6.9 46.8 6.9 46.8 6.9 46.8 Z M 5.6 53.3 C 6.4 52.4 5.0 54.4 5.6 53.3 M 5.4 45.0 C 6.5 43.7 5.0 47.0 5.4 45.0 M 2.9 70.6 C 4.2 69.2 2.2 71.6 2.9 70.6 M 6.2 63.5 C 7.5 62.1 5.5 64.6 6.2 63.5 M 6.3 48.1 C 7.0 48.0 5.9 49.6 6.3 48.1 M 7.0 33.5 C 7.1 32.1 7.5 35.3 7.0 33.5 M 3.2 60.7 C 3.1 60.8 3.1 60.8 3.2 60.7 C 3.2 60.7 3.2 60.7 3.2 60.7 Z M 2.0 37.9 C 2.0 38.0 2.0 38.0 2.0 37.9 C 2.0 37.9 2.0 37.9 2.0 37.9 Z M 7.2 72.4 C 7.1 72.5 7.1 72.5 7.2 72.4 C 7.2 72.4 7.2 72.4 7.2 72.4 Z M 5.6 62.6 C 5.5 62.7 5.5 62.7 5.6 62.6 C 5.6 62.6 5.6 62.6 5.6 62.6 Z M 7.3 69.7 C 7.3 69.8 7.3 69.8 7.3 69.7 C 7.3 69.7 7.3 69.7 7.3 69.7 Z M 4.6 58.2 C 4.5 58.2 4.5 58.2 4.6 58.2 C 4.6 58.2 4.6 58.2 4.6 58.2 Z M 7.9 57.3 C 7.8 57.3 7.8 57.3 7.9 57.3 C 7.9 57.3 7.9 57.3 7.9 57.3 Z M 6.5 52.4 C 6.4 52.5 6.4 52.5 6.5 52.4 C 6.5 52.4 6.5 52.4 6.5 52.4 Z M 7.6 59.5 C 7.8 62.4 6.5 58.0 7.6 59.5 C 7.6 59.5 7.6 59.5 7.6 59.5 Z M 4.3 54.5 C 4.3 54.5 4.3 54.5 4.3 54.5 C 4.3 54.5 4.3 54.5 4.3 54.5 Z M 6.6 54.1 C 7.6 55.9 5.0 55.1 6.6 54.1 M 7.4 46.0 C 7.9 46.5 6.6 46.3 7.4 46.0 M 3.1 42.8 C 3.0 42.8 3.0 42.8 3.1 42.8 C 3.1 42.8 3.1 42.8 3.1 42.8 Z M 3.4 43.6 C 3.4 43.7 3.4 43.7 3.4 43.6 C 3.4 43.6 3.4 43.6 3.4 43.6 Z M 7.6 44.0 C 7.6 44.1 7.6 44.1 7.6 44.0 C 7.6 44.0 7.6 44.0 7.6 44.0 Z M 2.2 43.7 C 2.2 43.8 2.2 43.8 2.2 43.7 C 2.2 43.7 2.2 43.7 2.2 43.7 Z M 7.8 56.2 C 7.8 56.2 7.8 56.2 7.8 56.2 C 7.8 56.2 7.8 56.2 7.8 56.2 Z M 7.8 71.1 C 7.8 71.1 7.8 71.1 7.8 71.1 C 7.8 71.1 7.8 71.1 7.8 71.1 Z M 3.5 33.9 C 3.5 34.0 3.5 34.0 3.5 33.9 C 3.5 33.9 3.5 33.9 3.5 33.9 Z M 6.5 57.7 C 6.4 57.8 6.4 57.8 6.5 57.7 C 6.5 57.7 6.5 57.7 6.5 57.7 Z M 3.3 40.7 C 3.2 40.7 3.2 40.7 3.3 40.7 C 3.3 40.7 3.3 40.7 3.3 40.7 Z M 6.7 56.8 C 6.7 56.8 6.7 56.8 6.7 56.8 C 6.7 56.8 6.7 56.8 6.7 56.8 Z M 2.9 60.3 C 2.9 60.3 2.9 60.3 2.9 60.3 C 2.9 60.3 2.9 60.3 2.9 60.3 Z M 2.2 63.5 C 2.2 63.5 2.2 63.5 2.2 63.5 C 2.2 63.5 2.2 63.5 2.2 63.5 Z M 5.2 60.1 C 5.2 60.1 5.2 60.1 5.2 60.1 C 5.2 60.1 5.2 60.1 5.2 60.1 Z M 4.7 39.6 C 5.8 33.7 5.2 44.3 4.7 39.6 M 4.9 61.1 C 5.2 57.0 6.2 64.3 4.9 61.1 C 5.3 61.5 5.0 61.1 4.9 61.1 M 7.7 73.9 C 6.5 72.2 5.3 72.2 4.1 72.9 C 3.4 73.7 5.9 73.7 3.8 73.7 C 3.4 71.8 0.7 74.6 3.4 74.5 C 3.8 77.1 1.7 74.9 2.8 76.5 C 3.0 79.2 2.2 77.8 2.4 79.9 C 3.8 81.1 1.7 81.1 3.1 81.6 C 1.6 80.6 3.5 83.8 2.8 83.9 C 1.9 82.0 2.8 91.1 3.2 86.1 C 3.9 88.2 2.7 87.8 2.5 88.5 C 3.4 89.4 1.8 91.8 2.7 93.0 C 2.9 92.8 2.9 92.2 3.2 92.0 C 3.8 91.6 3.1 93.4 3.1 93.2 C 3.4 94.0 4.4 97.3 2.8 93.8 C 2.1 93.6 3.1 96.6 2.5 96.5 C 2.4 99.6 3.9 97.3 2.8 98.6 C 2.8 100.8 2.8 102.3 3.0 102.3 C 2.8 103.7 2.0 103.9 2.8 105.1 C 1.2 107.7 5.8 107.0 2.7 108.0 C 3.5 108.7 1.4 109.5 3.4 109.3 C 2.5 108.4 1.9 113.8 3.3 111.5 C 3.7 112.1 1.3 115.5 3.2 115.0 C 4.6 116.3 6.1 116.0 7.4 113.4 C 6.3 113.7 8.6 110.6 6.7 112.6 C 6.0 114.9 6.0 108.4 6.7 109.8 C 8.9 110.1 5.3 106.6 6.9 105.3 C 6.0 106.4 5.5 101.1 7.2 102.7 C 7.4 101.7 6.6 101.5 7.5 100.4 C 7.4 103.5 5.8 99.2 6.8 99.4 C 7.4 99.9 7.9 95.2 7.0 95.7 C 4.7 97.3 7.5 94.5 6.6 93.7 C 6.1 91.1 8.5 94.1 6.8 92.2 C 7.1 91.6 7.1 88.2 7.6 90.4 C 7.4 91.2 5.1 88.3 7.0 88.0 C 8.2 91.6 7.7 83.7 7.0 85.0 C 6.0 90.6 5.8 79.0 6.9 83.4 C 8.0 80.9 7.3 84.2 6.9 81.0 C 6.2 81.4 5.6 79.0 6.9 79.6 C 8.8 79.1 4.4 78.7 6.9 76.8 C 8.1 76.5 6.1 73.0 7.4 74.4 C 7.5 74.5 7.7 74.0 7.7 73.9 M 7.5 75.0 C 7.1 74.6 8.0 74.3 7.5 75.0 M 7.1 74.5 C 7.1 74.5 7.1 74.5 7.1 74.5 C 7.1 74.5 7.1 74.5 7.1 74.5 Z M 6.8 80.6 C 6.8 80.5 6.8 80.5 6.8 80.6 C 6.8 80.6 6.8 80.6 6.8 80.6 Z M 2.0 85.3 C 2.1 85.3 2.1 85.3 2.0 85.3 C 2.0 85.3 2.0 85.3 2.0 85.3 Z M 6.7 84.6 C 6.7 84.6 6.7 84.6 6.7 84.6 C 6.7 84.6 6.7 84.6 6.7 84.6 Z M 6.5 78.4 C 6.5 78.4 6.5 78.4 6.5 78.4 C 6.5 78.4 6.5 78.4 6.5 78.4 Z M 7.4 84.2 C 6.7 84.5 7.9 82.8 7.5 84.3 C 7.4 84.3 7.4 84.1 7.4 84.2 M 7.7 89.5 C 7.6 89.5 7.6 89.5 7.7 89.5 M 2.1 101.1 C 2.0 101.1 2.0 101.1 2.1 101.1 M 7.7 102.0 C 7.6 102.2 7.6 102.2 7.7 102.0 M 6.9 94.7 C 7.0 96.3 6.6 95.1 6.9 94.7 M 7.3 106.3 C 7.8 104.2 7.7 108.4 7.3 106.3 M 7.7 108.2 C 7.7 108.4 7.7 108.4 7.7 108.2 M 7.4 99.1 C 7.4 99.1 7.4 99.1 7.4 99.1 C 7.4 99.1 7.4 99.1 7.4 99.1 Z M 7.2 94.0 C 7.6 91.9 7.9 96.2 7.2 94.0 M 7.5 81.3 C 7.8 82.4 6.6 81.3 7.5 81.3 M 7.1 78.9 C 7.0 78.9 7.0 78.9 7.1 78.9 C 7.1 78.9 7.1 78.9 7.1 78.9 Z M 7.3 103.0 C 7.3 102.9 7.3 102.9 7.3 103.0 C 7.3 103.0 7.3 103.0 7.3 103.0 Z M 7.5 105.4 C 7.5 105.3 7.5 105.3 7.5 105.4 C 7.5 105.4 7.5 105.4 7.5 105.4 Z M 2.3 109.2 C 2.2 109.1 2.2 109.1 2.3 109.2 C 2.3 109.2 2.3 109.2 2.3 109.2 Z M 4.9 80.7 C 5.3 79.1 6.6 82.3 5.3 82.0 C 4.8 82.1 5.0 80.8 4.9 80.7 M 5.6 92.5 C 3.9 92.9 8.1 91.0 5.6 92.5 M 6.6 108.5 C 4.4 110.1 8.0 106.5 6.6 108.5 M 6.9 111.7 C 6.5 112.6 6.7 105.8 7.2 110.6 C 7.6 111.0 7.2 111.4 6.9 111.7 M 6.8 89.6 C 5.8 90.0 7.2 87.1 6.8 89.6 M 3.8 99.2 C 4.5 100.0 5.0 102.0 4.0 101.1 C 2.6 101.1 3.3 98.3 3.8 99.2 M 6.5 75.5 C 8.1 76.7 5.1 75.4 6.5 75.5 M 6.3 81.6 C 6.4 81.6 6.4 81.6 6.3 81.6 C 6.3 81.6 6.3 81.6 6.3 81.6 Z M 6.6 84.0 C 6.5 84.1 6.5 84.1 6.6 84.0 M 7.9 76.4 C 7.7 76.6 7.7 76.6 7.9 76.4 M 5.5 99.2 C 5.4 99.3 5.4 99.3 5.5 99.2 M 6.5 94.3 C 5.0 96.6 6.2 93.0 6.5 94.3 M 3.5 88.5 C 2.8 89.2 3.5 87.0 3.5 88.5 M 7.1 98.1 C 5.6 99.8 5.7 95.8 7.1 98.1 M 6.7 93.1 C 6.7 93.2 6.7 93.2 6.7 93.1 C 6.7 93.1 6.7 93.1 6.7 93.1 Z M 3.7 99.8 C 3.7 99.8 3.7 99.8 3.7 99.8 C 3.7 99.8 3.7 99.8 3.7 99.8 Z M 3.8 100.6 C 3.7 100.5 3.7 100.5 3.8 100.6 C 3.8 100.6 3.8 100.6 3.8 100.6 Z M 7.3 100.2 C 7.2 100.1 7.2 100.1 7.3 100.2 C 7.3 100.2 7.3 100.2 7.3 100.2 Z M 3.0 78.7 C 2.9 80.4 2.8 77.4 3.0 78.7 C 3.0 78.7 3.0 78.7 3.0 78.7 Z M 7.4 86.1 C 6.2 88.9 6.2 84.2 7.4 86.1 C 7.4 86.1 7.4 86.1 7.4 86.1 Z M 5.4 89.3 C 5.3 89.3 5.3 89.3 5.4 89.3 C 5.4 89.3 5.4 89.3 5.4 89.3 Z M 8.0 97.1 C 7.9 97.1 7.9 97.1 8.0 97.1 C 8.0 97.1 8.0 97.1 8.0 97.1 Z M 2.8 79.6 C 2.7 79.6 2.7 79.6 2.8 79.6 C 2.8 79.6 2.8 79.6 2.8 79.6 Z M 6.5 104.9 C 6.4 104.9 6.4 104.9 6.5 104.9 C 6.5 104.9 6.5 104.9 6.5 104.9 Z M 3.5 95.3 C 4.0 95.9 3.0 95.5 3.5 95.3 C 3.5 95.3 3.5 95.3 3.5 95.3 Z M 3.4 97.8 C 3.5 97.9 3.5 97.9 3.4 97.8 C 3.4 97.8 3.4 97.8 3.4 97.8 Z M 7.8 108.9 C 7.8 108.9 7.8 108.9 7.8 108.9 C 7.8 108.9 7.8 108.9 7.8 108.9 Z M 2.0 104.2 C 2.1 104.2 2.1 104.2 2.0 104.2 C 2.0 104.2 2.0 104.2 2.0 104.2 Z M 3.8 106.3 C 3.8 106.2 3.8 106.2 3.8 106.3 C 3.8 106.3 3.8 106.3 3.8 106.3 Z M 6.9 99.7 C 7.2 102.2 6.3 99.2 6.9 99.7 C 6.9 99.7 6.9 99.7 6.9 99.7 Z M 4.3 112.4 C 4.2 112.5 4.2 112.5 4.3 112.4 C 4.3 112.4 4.3 112.4 4.3 112.4 Z M 6.3 113.7 C 6.2 113.8 6.2 113.8 6.3 113.7 C 6.3 113.7 6.3 113.7 6.3 113.7 Z M 7.4 114.3 C 7.3 114.4 7.3 114.4 7.4 114.3 C 7.4 114.3 7.4 114.3 7.4 114.3 Z M 4.4 83.9 C 4.5 83.9 4.5 83.9 4.4 83.9 C 4.4 83.9 4.4 83.9 4.4 83.9 Z M 7.7 83.0 C 7.7 82.9 7.7 82.9 7.7 83.0 C 7.7 83.0 7.7 83.0 7.7 83.0 Z M 7.9 86.3 C 7.9 86.3 7.9 86.3 7.9 86.3 C 7.9 86.3 7.9 86.3 7.9 86.3 Z M 2.4 83.3 C 2.5 83.3 2.5 83.3 2.4 83.3 C 2.4 83.3 2.4 83.3 2.4 83.3 Z M 5.2 96.0 C 5.3 96.0 5.3 96.0 5.2 96.0 C 5.2 96.0 5.2 96.0 5.2 96.0 Z M 3.9 97.2 C 4.0 97.1 4.0 97.1 3.9 97.2 C 3.9 97.2 3.9 97.2 3.9 97.2 Z M 2.1 94.3 C 2.2 94.2 2.2 94.2 2.1 94.3 C 2.1 94.3 2.1 94.3 2.1 94.3 Z M 2.8 98.1 C 2.8 98.1 2.8 98.1 2.8 98.1 C 2.8 98.1 2.8 98.1 2.8 98.1 Z M 3.1 74.9 C 3.0 74.8 3.0 74.8 3.1 74.9 C 3.1 74.9 3.1 74.9 3.1 74.9 Z M 5.6 74.6 C 5.5 74.5 5.5 74.5 5.6 74.6 C 5.6 74.6 5.6 74.6 5.6 74.6 Z M 7.1 96.4 C 7.6 97.0 6.3 97.5 7.1 96.4 M 6.7 91.6 C 6.7 91.5 6.7 91.5 6.7 91.6 C 6.7 91.6 6.7 91.6 6.7 91.6 Z M 7.0 104.5 C 6.0 105.1 7.5 102.2 7.0 104.5 C 7.0 104.5 7.0 104.5 7.0 104.5 Z M 2.8 102.0 C 2.7 102.0 2.7 102.0 2.8 102.0 C 2.8 102.0 2.8 102.0 2.8 102.0 Z M 3.2 103.2 C 3.1 103.3 3.1 103.3 3.2 103.2 C 3.2 103.2 3.2 103.2 3.2 103.2 Z M 5.9 110.2 C 5.8 110.3 5.8 110.3 5.9 110.2 M 7.6 90.9 C 7.2 91.7 7.3 91.5 7.6 90.9 M 6.9 106.1 C 6.9 106.1 6.9 106.1 6.9 106.1 C 6.9 106.1 6.9 106.1 6.9 106.1 Z M 6.5 111.7 C 6.4 111.7 6.4 111.7 6.5 111.7 C 6.5 111.7 6.5 111.7 6.5 111.7 Z M 7.0 87.5 C 5.7 87.7 6.0 87.0 7.0 87.5 M 6.6 77.9 C 6.5 77.9 6.5 77.9 6.6 77.9 C 6.6 77.9 6.6 77.9 6.6 77.9 Z M 7.3 119.4 C 8.7 116.8 6.8 116.8 6.7 116.8 C 9.3 117.1 5.7 114.4 5.2 115.0 C 4.9 114.9 0.4 116.9 3.1 118.7 C 3.5 119.2 2.7 119.5 2.6 119.9 C 2.7 123.1 4.0 117.7 4.0 121.6 C 3.6 122.3 1.5 121.5 3.0 123.8 C 2.8 123.9 2.0 126.5 3.0 125.5 C 2.0 126.7 3.2 127.5 3.4 128.7 C 2.8 129.8 1.9 127.8 3.0 131.6 C 1.3 133.2 4.3 133.8 2.4 135.2 C 2.3 136.2 5.5 137.6 3.7 135.4 C 3.9 135.7 5.4 134.4 4.9 137.3 C 4.5 136.9 1.3 135.3 2.8 140.0 C 2.7 140.7 3.6 142.5 3.2 142.9 C 2.8 140.5 1.8 146.2 2.8 145.6 C 2.1 149.4 3.5 147.2 2.5 149.9 C 2.4 152.1 3.9 149.2 3.1 151.9 C 3.2 154.0 2.4 152.6 2.5 152.4 C 2.3 154.2 2.9 155.0 3.0 155.7 C 2.8 156.2 2.3 157.3 3.2 157.6 C 5.1 159.4 6.1 157.2 7.7 157.5 C 8.1 156.2 6.5 157.2 7.4 156.2 C 6.4 155.8 7.3 156.4 7.1 152.7 C 6.9 152.7 6.2 153.7 6.1 152.7 C 6.3 151.3 8.7 152.3 7.0 149.9 C 6.5 152.8 6.2 145.9 5.7 148.5 C 5.4 145.2 5.9 147.6 6.5 145.2 C 4.8 145.3 8.2 145.0 6.9 144.1 C 7.6 143.9 7.3 140.1 6.3 142.8 C 5.8 138.9 6.8 141.3 7.7 139.9 C 7.8 138.1 5.0 139.8 7.0 138.7 C 7.9 136.3 6.0 138.6 7.6 136.8 C 6.2 137.6 7.6 135.1 6.1 135.8 C 5.9 131.7 7.7 136.3 6.6 133.4 C 6.6 134.3 8.7 134.0 7.3 132.2 C 4.9 133.0 9.5 129.9 6.2 131.2 C 5.3 125.6 7.6 130.3 7.6 127.2 C 7.6 126.4 6.5 128.0 6.5 127.3 C 7.0 123.3 7.8 126.6 6.2 124.6 C 5.8 120.6 7.6 123.4 7.7 121.5 C 6.9 121.3 5.6 119.8 7.3 119.4 M 6.6 122.9 C 7.1 123.7 6.0 123.4 6.6 122.9 M 7.3 115.0 C 7.8 115.8 6.8 115.5 7.3 115.0 M 7.0 126.2 C 7.6 127.2 6.2 126.5 7.0 126.2 M 6.2 147.4 C 6.2 145.9 6.7 148.1 6.2 147.4 M 7.4 118.1 C 8.0 119.3 6.5 118.5 7.4 118.1 M 6.1 116.7 C 6.1 116.8 6.1 116.8 6.1 116.7 M 7.6 149.5 C 7.5 149.5 7.5 149.5 7.6 149.5 M 7.6 143.8 C 7.5 145.0 7.2 143.1 7.6 143.8 M 2.2 143.6 C 2.2 144.8 1.9 142.9 2.2 143.6 M 7.6 152.6 C 8.0 153.8 7.0 152.9 7.6 152.6 M 6.5 155.6 C 7.1 156.6 6.1 156.3 6.5 155.6 M 4.7 122.2 C 4.6 122.2 4.6 122.2 4.7 122.2 C 4.7 122.2 4.7 122.2 4.7 122.2 Z M 3.3 132.6 C 3.9 131.4 2.7 134.1 3.3 132.6 M 6.9 130.7 C 5.8 131.5 6.9 129.1 6.9 130.7 C 6.9 130.7 6.9 130.7 6.9 130.7 Z M 6.4 128.9 C 6.3 128.8 6.3 128.8 6.4 128.9 C 6.4 128.9 6.4 128.9 6.4 128.9 Z M 6.3 134.8 C 6.3 134.7 6.3 134.7 6.3 134.8 C 6.3 134.8 6.3 134.8 6.3 134.8 Z M 6.2 133.5 C 6.0 133.1 6.4 132.9 6.2 133.5 C 6.2 133.5 6.2 133.5 6.2 133.5 Z M 2.7 142.1 C 2.5 141.6 3.0 141.4 2.7 142.1 C 2.7 142.1 2.7 142.1 2.7 142.1 Z M 5.8 131.7 C 4.7 131.5 6.6 130.8 5.8 131.7 C 5.8 131.7 5.8 131.7 5.8 131.7 Z M 3.2 138.0 C 3.5 138.5 2.2 139.1 3.2 138.0 M 7.4 150.7 C 7.7 151.2 6.3 151.8 7.4 150.7 M 7.7 138.2 C 8.0 138.7 6.6 139.3 7.7 138.2 M 7.0 123.6 C 6.9 123.7 6.9 123.7 7.0 123.6 M 2.3 130.5 C 2.7 131.3 1.8 130.9 2.3 130.5 M 2.7 118.8 C 3.1 119.6 2.2 119.2 2.7 118.8 M 2.3 148.9 C 2.6 148.9 2.2 150.2 2.3 148.9 M 5.9 139.7 C 5.8 140.8 5.2 141.9 5.3 139.6 C 5.5 139.5 5.7 140.2 5.9 139.7 C 5.9 139.7 5.9 139.7 5.9 139.7 Z M 3.4 143.6 C 3.3 143.7 3.3 143.7 3.4 143.6 M 6.9 141.6 C 6.8 141.8 6.8 141.8 6.9 141.6 M 6.8 148.0 C 6.7 148.1 6.7 148.1 6.8 148.0 M 7.1 148.8 C 7.1 148.8 7.1 148.8 7.1 148.8 C 7.1 148.8 7.1 148.8 7.1 148.8 Z M 7.7 155.5 C 7.6 155.5 7.6 155.5 7.7 155.5 C 7.7 155.5 7.7 155.5 7.7 155.5 Z M 6.7 146.0 C 6.6 145.9 6.6 145.9 6.7 146.0 C 6.7 146.0 6.7 146.0 6.7 146.0 Z M 2.5 151.7 C 2.5 151.7 2.5 151.7 2.5 151.7 C 2.5 151.7 2.5 151.7 2.5 151.7 Z M 3.2 151.0 C 3.1 151.0 3.1 151.0 3.2 151.0 C 3.2 151.0 3.2 151.0 3.2 151.0 Z M 7.3 120.0 C 8.1 120.9 5.4 120.5 7.3 120.0 M 3.2 154.1 C 2.4 155.2 3.0 152.2 3.2 154.1 C 3.2 154.1 3.2 154.1 3.2 154.1 Z M 5.8 145.2 C 5.6 145.3 5.6 145.3 5.8 145.2 M 7.0 149.2 C 6.9 149.3 6.9 149.3 7.0 149.2 M 7.9 130.6 C 7.7 130.7 7.7 130.7 7.9 130.6 M 6.8 154.1 C 6.6 156.8 5.3 152.9 6.8 154.1 M 6.8 129.3 C 6.9 129.2 6.9 129.2 6.8 129.3 M 4.8 136.0 C 4.9 138.0 4.2 135.3 4.8 136.0 M 6.2 141.0 C 6.1 141.0 6.1 141.0 6.2 141.0 C 6.2 141.0 6.2 141.0 6.2 141.0 Z M 6.2 138.1 C 6.0 136.6 6.5 137.7 6.2 138.1 C 6.2 138.1 6.2 138.1 6.2 138.1 Z M 6.3 121.4 C 6.2 123.2 6.0 119.4 6.3 121.4 C 6.3 121.4 6.3 121.4 6.3 121.4 Z M 4.3 152.7 C 4.2 152.7 4.2 152.7 4.3 152.7 C 4.3 152.7 4.3 152.7 4.3 152.7 Z M 7.4 145.6 C 7.2 144.7 7.8 145.2 7.4 145.6 C 7.4 145.6 7.4 145.6 7.4 145.6 Z M 7.8 156.4 C 7.4 155.7 8.1 156.0 7.8 156.4 C 7.8 156.4 7.8 156.4 7.8 156.4 Z M 6.5 119.1 C 4.7 126.0 7.0 109.9 6.5 119.1 C 6.5 119.1 6.5 119.1 6.5 119.1 Z M 6.9 139.3 C 6.8 139.2 6.8 139.2 6.9 139.3 C 6.9 139.3 6.9 139.3 6.9 139.3 Z M 7.7 126.5 C 7.6 126.5 7.6 126.5 7.7 126.5 C 7.7 126.5 7.7 126.5 7.7 126.5 Z M 6.7 124.4 C 6.6 124.3 6.6 124.3 6.7 124.4 C 6.7 124.4 6.7 124.4 6.7 124.4 Z M 2.4 125.0 C 2.3 125.0 2.3 125.0 2.4 125.0 C 2.4 125.0 2.4 125.0 2.4 125.0 Z M 4.3 125.7 C 4.2 125.6 4.2 125.6 4.3 125.7 C 4.3 125.7 4.3 125.7 4.3 125.7 Z M 3.6 121.3 C 3.5 121.2 3.5 121.2 3.6 121.3 C 3.6 121.3 3.6 121.3 3.6 121.3 Z M 3.0 121.4 C 3.0 121.3 3.0 121.3 3.0 121.4 C 3.0 121.4 3.0 121.4 3.0 121.4 Z M 5.8 149.2 C 5.7 149.1 5.7 149.1 5.8 149.2 C 5.8 149.2 5.8 149.2 5.8 149.2 Z M 4.1 146.8 C 4.7 148.4 3.1 146.3 4.1 146.8 C 4.1 146.8 4.1 146.8 4.1 146.8 Z M 4.9 132.6 C 5.2 134.1 4.4 131.6 4.9 132.6 C 4.9 132.6 4.9 132.6 4.9 132.6 Z M 2.6 134.2 C 2.6 134.2 2.6 134.2 2.6 134.2 C 2.6 134.2 2.6 134.2 2.6 134.2 Z M 7.7 124.4 C 7.6 124.3 7.6 124.3 7.7 124.4 C 7.7 124.4 7.7 124.4 7.7 124.4 Z M 7.0 121.7 C 6.1 121.6 7.4 120.8 7.0 121.7 M 7.5 135.3 C 7.4 135.3 7.4 135.3 7.5 135.3 C 7.5 135.3 7.5 135.3 7.5 135.3 Z M 6.1 144.0 C 6.0 143.9 6.0 143.9 6.1 144.0 C 6.1 144.0 6.1 144.0 6.1 144.0 Z M 6.7 152.5 C 6.5 152.5 6.5 152.5 6.7 152.5 C 6.7 152.5 6.7 152.5 6.7 152.5 Z M 7.4 140.7 C 7.2 140.7 7.2 140.7 7.4 140.7 C 7.4 140.7 7.4 140.7 7.4 140.7 Z M 6.5 136.6 C 6.4 136.6 6.4 136.6 6.5 136.6 C 6.5 136.6 6.5 136.6 6.5 136.6 Z M 5.4 154.4 C 5.3 154.4 5.3 154.4 5.4 154.4 C 5.4 154.4 5.4 154.4 5.4 154.4 Z M 7.5 141.7 C 7.5 141.6 7.5 141.6 7.5 141.7 C 7.5 141.7 7.5 141.7 7.5 141.7 Z M 4.6 144.1 C 4.6 144.1 4.6 144.1 4.6 144.1 C 4.6 144.1 4.6 144.1 4.6 144.1 Z M 8.2 122.1 C 8.2 122.0 8.2 122.0 8.2 122.1 C 8.2 122.1 8.2 122.1 8.2 122.1 Z M 6.6 154.5 C 6.5 154.4 6.5 154.4 6.6 154.5 C 6.6 154.5 6.6 154.5 6.6 154.5 Z M 7.4 154.9 C 7.4 154.9 7.4 154.9 7.4 154.9 C 7.4 154.9 7.4 154.9 7.4 154.9 Z M 3.1 149.0 C 3.6 145.9 3.3 151.7 4.3 149.5 C 4.5 153.8 3.1 149.6 3.1 149.0 C 3.1 149.0 3.1 149.0 3.1 149.0 Z M 8.4 158.1 C 6.8 157.3 5.7 157.3 4.7 158.4 C 4.3 159.4 6.7 158.6 4.7 159.3 C 3.7 157.5 2.2 161.3 4.6 160.3 C 6.0 162.7 3.2 161.5 5.0 162.5 C 6.7 165.0 5.2 164.2 6.9 165.8 C 8.9 165.8 7.4 167.3 8.8 166.7 C 6.9 167.1 10.9 167.8 10.6 168.4 C 8.3 168.0 17.8 171.9 13.0 169.3 C 15.3 169.5 14.5 170.4 15.2 170.8 C 16.5 170.3 19.3 172.2 20.5 171.3 C 20.3 171.1 19.6 171.1 19.4 170.8 C 19.0 170.2 20.9 170.9 20.7 170.8 C 21.5 170.5 24.8 169.6 21.3 171.2 C 21.1 171.9 24.1 170.9 24.0 171.5 C 27.0 171.5 24.8 170.1 26.1 171.1 C 28.3 171.2 29.8 171.2 29.8 171.0 C 31.1 171.2 31.4 172.0 32.6 171.2 C 35.2 172.8 34.4 168.2 35.4 171.2 C 36.2 170.5 36.9 172.5 36.8 170.6 C 35.9 171.5 41.3 172.1 39.0 170.7 C 39.6 170.3 43.0 172.7 42.5 170.7 C 43.7 169.3 43.5 167.9 40.9 166.6 C 41.1 167.7 38.1 165.4 40.0 167.3 C 42.3 167.9 35.9 168.0 37.2 167.3 C 37.6 165.0 34.1 168.7 32.7 167.1 C 33.8 168.0 28.6 168.4 30.1 166.8 C 29.1 166.6 28.9 167.4 27.8 166.4 C 31.0 166.6 26.6 168.2 26.8 167.2 C 27.4 166.5 22.7 166.0 23.2 167.0 C 24.8 169.3 21.9 166.5 21.1 167.4 C 18.6 167.9 21.4 165.5 19.6 167.1 C 19.2 166.8 16.3 166.4 18.2 166.2 C 18.8 166.6 15.7 168.3 16.0 166.3 C 19.4 166.2 13.1 164.3 13.7 165.3 C 17.4 168.6 8.8 163.5 12.5 164.8 C 11.4 162.6 13.2 165.0 10.9 163.5 C 10.8 164.2 8.8 163.1 10.1 162.6 C 11.3 161.0 7.4 163.4 8.8 160.7 C 9.6 159.9 6.7 158.1 8.3 158.7 C 8.4 158.7 8.5 158.2 8.4 158.1 M 8.6 159.1 C 8.0 158.9 8.8 158.3 8.6 159.1 M 8.0 158.9 C 8.0 158.8 8.0 158.8 8.0 158.9 C 8.0 158.9 8.0 158.9 8.0 158.9 Z M 10.6 163.3 C 10.6 163.2 10.6 163.2 10.6 163.3 C 10.6 163.3 10.6 163.3 10.6 163.3 Z M 11.7 169.9 C 11.7 169.8 11.7 169.8 11.7 169.9 C 11.7 169.9 11.7 169.9 11.7 169.9 Z M 13.3 165.5 C 13.2 165.5 13.2 165.5 13.3 165.5 C 13.3 165.5 13.3 165.5 13.3 165.5 Z M 9.2 162.1 C 9.1 162.0 9.1 162.0 9.2 162.1 C 9.2 162.1 9.2 162.1 9.2 162.1 Z M 13.3 164.7 C 13.2 165.5 12.7 163.7 13.5 164.7 C 13.5 164.7 13.3 164.6 13.3 164.7 M 17.4 166.1 C 17.4 166.1 17.4 166.1 17.4 166.1 M 28.5 171.9 C 28.6 172.0 28.6 172.0 28.5 171.9 M 29.5 166.3 C 29.6 166.3 29.6 166.3 29.5 166.3 M 22.2 167.0 C 23.8 166.9 22.6 167.4 22.2 167.0 M 33.7 166.7 C 31.7 166.2 35.9 166.3 33.7 166.7 M 35.7 166.2 C 35.9 166.3 35.9 166.3 35.7 166.2 M 26.6 166.5 C 26.5 166.6 26.5 166.6 26.6 166.5 C 26.6 166.5 26.6 166.5 26.6 166.5 Z M 21.5 166.7 C 19.4 166.4 23.6 166.1 21.5 166.7 M 11.5 163.2 C 12.4 163.6 10.9 163.9 11.5 163.2 M 9.9 162.0 C 9.8 162.0 9.8 162.0 9.9 162.0 C 9.9 162.0 9.9 162.0 9.9 162.0 Z M 30.5 166.6 C 30.4 166.6 30.4 166.6 30.5 166.6 C 30.5 166.6 30.5 166.6 30.5 166.6 Z M 32.8 166.5 C 32.7 166.5 32.7 166.5 32.8 166.5 C 32.8 166.5 32.8 166.5 32.8 166.5 Z M 36.7 171.7 C 36.6 171.7 36.6 171.7 36.7 171.7 C 36.7 171.7 36.7 171.7 36.7 171.7 Z M 9.3 164.7 C 8.5 163.3 11.6 164.4 10.5 165.2 C 10.3 165.7 9.5 164.7 9.3 164.7 M 20.0 168.3 C 20.4 170.1 18.4 165.9 20.0 168.3 M 36.0 167.4 C 37.5 169.5 34.0 165.9 36.0 167.4 M 39.2 167.0 C 40.1 167.5 33.2 167.3 38.0 166.7 C 38.5 166.4 38.8 166.8 39.2 167.0 M 17.3 166.9 C 17.5 168.0 15.2 166.1 17.3 166.9 M 26.7 170.1 C 27.4 169.5 29.5 168.9 28.6 170.0 C 28.6 171.4 25.8 170.6 26.7 170.1 M 7.8 159.9 C 9.7 160.2 6.6 160.4 7.8 159.9 M 10.9 164.2 C 11.0 164.2 11.0 164.2 10.9 164.2 C 10.9 164.2 10.9 164.2 10.9 164.2 Z M 12.8 165.3 C 12.8 165.4 12.8 165.4 12.8 165.3 M 9.4 159.9 C 9.4 160.1 9.4 160.1 9.4 159.9 M 26.6 168.5 C 26.8 168.6 26.8 168.6 26.6 168.5 M 21.7 167.4 C 24.1 169.0 20.4 167.8 21.7 167.4 M 15.5 169.8 C 16.1 170.8 14.0 169.5 15.5 169.8 M 25.6 166.9 C 27.2 168.3 23.3 168.3 25.6 166.9 M 20.5 167.3 C 20.7 167.3 20.7 167.3 20.5 167.3 C 20.5 167.3 20.5 167.3 20.5 167.3 Z M 27.3 170.3 C 27.3 170.3 27.3 170.3 27.3 170.3 C 27.3 170.3 27.3 170.3 27.3 170.3 Z M 28.0 170.2 C 27.9 170.2 27.9 170.2 28.0 170.2 C 28.0 170.2 28.0 170.2 28.0 170.2 Z M 27.6 166.7 C 27.6 166.7 27.6 166.7 27.6 166.7 C 27.6 166.7 27.6 166.7 27.6 166.7 Z M 6.6 164.4 C 7.6 166.0 5.5 163.4 6.6 164.4 C 6.6 164.4 6.6 164.4 6.6 164.4 Z M 14.7 165.5 C 16.3 167.5 12.8 165.8 14.7 165.5 C 14.7 165.5 14.7 165.5 14.7 165.5 Z M 16.8 168.2 C 16.8 168.3 16.8 168.3 16.8 168.2 C 16.8 168.2 16.8 168.2 16.8 168.2 Z M 24.5 165.9 C 24.5 166.0 24.5 166.0 24.5 165.9 C 24.5 165.9 24.5 165.9 24.5 165.9 Z M 7.0 165.3 C 7.0 165.3 7.0 165.3 7.0 165.3 C 7.0 165.3 7.0 165.3 7.0 165.3 Z M 32.4 167.5 C 32.4 167.6 32.4 167.6 32.4 167.5 C 32.4 167.5 32.4 167.5 32.4 167.5 Z M 22.8 170.5 C 23.4 170.0 22.9 171.0 22.8 170.5 C 22.8 170.5 22.8 170.5 22.8 170.5 Z M 25.3 170.5 C 25.3 170.5 25.3 170.5 25.3 170.5 C 25.3 170.5 25.3 170.5 25.3 170.5 Z M 36.3 166.1 C 36.4 166.1 36.4 166.1 36.3 166.1 C 36.3 166.1 36.3 166.1 36.3 166.1 Z M 31.6 171.9 C 31.7 171.9 31.7 171.9 31.6 171.9 C 31.6 171.9 31.6 171.9 31.6 171.9 Z M 33.7 170.2 C 33.7 170.2 33.7 170.2 33.7 170.2 C 33.7 170.2 33.7 170.2 33.7 170.2 Z M 27.2 167.0 C 29.7 166.8 26.6 167.7 27.2 167.0 C 27.2 167.0 27.2 167.0 27.2 167.0 Z M 39.9 169.7 C 40.0 169.8 40.0 169.8 39.9 169.7 C 39.9 169.7 39.9 169.7 39.9 169.7 Z M 41.2 167.7 C 41.2 167.8 41.2 167.8 41.2 167.7 C 41.2 167.7 41.2 167.7 41.2 167.7 Z M 41.8 166.6 C 41.9 166.7 41.9 166.7 41.8 166.6 C 41.8 166.6 41.8 166.6 41.8 166.6 Z M 11.6 167.1 C 11.6 167.0 11.6 167.0 11.6 167.1 C 11.6 167.1 11.6 167.1 11.6 167.1 Z M 12.7 163.9 C 12.7 163.8 12.7 163.8 12.7 163.9 C 12.7 163.9 12.7 163.9 12.7 163.9 Z M 15.1 165.1 C 15.1 165.0 15.1 165.0 15.1 165.1 C 15.1 165.1 15.1 165.1 15.1 165.1 Z M 9.9 168.4 C 9.9 168.3 9.9 168.3 9.9 168.4 C 9.9 168.4 9.9 168.4 9.9 168.4 Z M 23.5 168.7 C 23.4 168.7 23.4 168.7 23.5 168.7 C 23.5 168.7 23.5 168.7 23.5 168.7 Z M 24.6 170.1 C 24.6 170.0 24.6 170.0 24.6 170.1 C 24.6 170.1 24.6 170.1 24.6 170.1 Z M 21.7 171.8 C 21.7 171.8 21.7 171.8 21.7 171.8 C 21.7 171.8 21.7 171.8 21.7 171.8 Z M 25.6 171.2 C 25.6 171.2 25.6 171.2 25.6 171.2 C 25.6 171.2 25.6 171.2 25.6 171.2 Z M 4.4 160.7 C 4.4 160.7 4.4 160.7 4.4 160.7 C 4.4 160.7 4.4 160.7 4.4 160.7 Z M 6.7 159.5 C 6.6 159.5 6.6 159.5 6.7 159.5 C 6.7 159.5 6.7 159.5 6.7 159.5 Z M 23.9 166.9 C 24.4 166.4 25.0 167.6 23.9 166.9 M 19.1 167.2 C 19.1 167.2 19.1 167.2 19.1 167.2 C 19.1 167.2 19.1 167.2 19.1 167.2 Z M 32.0 167.0 C 32.6 168.0 29.7 166.5 32.0 167.0 C 32.0 167.0 32.0 167.0 32.0 167.0 Z M 29.4 171.2 C 29.5 171.2 29.5 171.2 29.4 171.2 C 29.4 171.2 29.4 171.2 29.4 171.2 Z M 30.7 170.8 C 30.8 170.9 30.8 170.9 30.7 170.8 C 30.7 170.8 30.7 170.8 30.7 170.8 Z M 37.7 168.1 C 37.8 168.2 37.8 168.2 37.7 168.1 M 18.6 166.3 C 19.2 166.8 19.1 166.7 18.6 166.3 M 33.6 167.0 C 33.5 167.1 33.5 167.1 33.6 167.0 C 33.6 167.0 33.6 167.0 33.6 167.0 Z M 39.2 167.5 C 39.1 167.5 39.1 167.5 39.2 167.5 C 39.2 167.5 39.2 167.5 39.2 167.5 Z M 15.7 166.3 C 15.4 167.5 14.9 167.0 15.7 166.3 M 9.0 161.7 C 8.9 161.7 8.9 161.7 9.0 161.7 C 9.0 161.7 9.0 161.7 9.0 161.7 Z M 46.9 166.6 C 44.2 165.3 44.2 167.2 44.2 167.2 C 44.5 164.7 41.9 168.2 42.4 168.7 C 42.3 169.1 44.4 173.5 46.2 170.9 C 46.7 170.5 47.0 171.3 47.3 171.4 C 50.5 171.2 45.1 170.0 49.0 170.0 C 49.7 170.3 48.9 172.4 51.2 171.0 C 51.3 171.2 53.9 172.0 53.0 171.0 C 54.2 172.0 55.0 170.8 56.2 170.6 C 57.2 171.1 55.3 172.1 59.1 170.9 C 60.7 172.7 61.2 169.6 62.7 171.6 C 63.6 171.6 65.1 168.4 62.9 170.2 C 63.2 170.0 61.8 168.5 64.8 169.1 C 64.4 169.5 62.7 172.7 67.4 171.2 C 68.2 171.2 70.0 170.4 70.4 170.8 C 68.0 171.1 73.7 172.2 73.1 171.2 C 76.8 171.9 74.7 170.4 77.4 171.5 C 79.6 171.5 76.6 170.1 79.4 170.9 C 81.5 170.7 80.1 171.5 79.8 171.5 C 81.6 171.6 82.3 171.1 82.9 171.1 C 83.3 171.3 84.1 171.9 84.6 171.1 C 86.5 169.7 84.7 168.2 85.6 166.7 C 84.2 166.0 85.0 167.9 84.0 166.7 C 83.3 167.7 83.9 166.7 80.1 166.9 C 80.2 167.1 81.1 167.7 80.2 167.8 C 78.7 167.7 79.8 165.2 77.3 167.0 C 80.2 167.5 73.3 167.8 76.0 168.3 C 72.7 168.6 75.0 168.1 72.6 167.5 C 72.8 169.2 72.4 165.7 71.5 167.1 C 71.3 166.4 67.5 166.7 70.2 167.7 C 66.3 168.1 68.8 167.2 67.4 166.3 C 65.6 166.2 67.3 169.0 66.1 167.0 C 63.8 166.0 66.0 168.0 64.3 166.4 C 65.1 167.8 62.6 166.4 63.2 167.9 C 59.2 168.0 63.7 166.3 60.9 167.3 C 61.8 167.4 61.4 165.3 59.7 166.7 C 60.4 169.1 57.4 164.5 58.7 167.8 C 53.0 168.7 57.7 166.4 54.6 166.4 C 53.8 166.4 55.5 167.5 54.8 167.5 C 50.8 167.0 54.1 166.2 52.0 167.8 C 48.1 168.2 50.9 166.4 48.9 166.3 C 48.8 167.0 47.2 168.3 46.9 166.6 M 50.4 167.4 C 51.2 166.9 50.9 167.9 50.4 167.4 M 42.5 166.7 C 43.3 166.1 42.9 167.2 42.5 166.7 M 53.6 166.9 C 54.7 166.4 54.0 167.8 53.6 166.9 M 74.8 167.7 C 73.3 167.7 75.5 167.3 74.8 167.7 M 45.6 166.6 C 46.8 165.9 45.9 167.4 45.6 166.6 M 44.2 167.8 C 44.2 167.8 44.2 167.8 44.2 167.8 M 76.9 166.4 C 77.0 166.4 77.0 166.4 76.9 166.4 M 71.2 166.4 C 72.5 166.4 70.6 166.7 71.2 166.4 M 71.0 171.8 C 72.3 171.8 70.3 172.1 71.0 171.8 M 80.0 166.3 C 81.2 165.9 80.4 166.9 80.0 166.3 M 83.2 167.5 C 84.3 167.0 83.9 168.1 83.2 167.5 M 49.7 169.3 C 49.6 169.4 49.6 169.4 49.7 169.3 C 49.7 169.3 49.7 169.3 49.7 169.3 Z M 60.1 170.6 C 58.8 170.1 61.6 171.3 60.1 170.6 M 58.2 167.1 C 59.0 168.2 56.5 167.0 58.2 167.1 C 58.2 167.1 58.2 167.1 58.2 167.1 Z M 56.3 167.6 C 56.3 167.7 56.3 167.7 56.3 167.6 C 56.3 167.6 56.3 167.6 56.3 167.6 Z M 62.2 167.7 C 62.2 167.7 62.2 167.7 62.2 167.7 C 62.2 167.7 62.2 167.7 62.2 167.7 Z M 61.0 167.8 C 60.5 168.0 60.3 167.5 61.0 167.8 C 61.0 167.8 61.0 167.8 61.0 167.8 Z M 69.6 171.2 C 69.1 171.5 68.9 171.0 69.6 171.2 C 69.6 171.2 69.6 171.2 69.6 171.2 Z M 59.1 168.1 C 59.0 169.2 58.3 167.4 59.1 168.1 C 59.1 168.1 59.1 168.1 59.1 168.1 Z M 65.5 170.7 C 66.0 170.4 66.6 171.8 65.5 170.7 M 78.1 166.6 C 78.6 166.3 79.2 167.6 78.1 166.6 M 65.7 166.3 C 66.2 166.0 66.8 167.3 65.7 166.3 M 51.0 166.9 C 51.2 167.1 51.2 167.1 51.0 166.9 M 57.9 171.7 C 58.8 171.3 58.4 172.2 57.9 171.7 M 46.2 171.3 C 47.0 170.9 46.6 171.8 46.2 171.3 M 76.4 171.7 C 76.3 171.4 77.6 171.8 76.4 171.7 M 67.1 168.0 C 68.2 168.2 69.3 168.8 67.1 168.7 C 66.9 168.4 67.6 168.3 67.1 168.0 C 67.1 168.0 67.1 168.0 67.1 168.0 Z M 71.1 170.5 C 71.2 170.6 71.2 170.6 71.1 170.5 M 69.1 167.0 C 69.2 167.1 69.2 167.1 69.1 167.0 M 75.4 167.1 C 75.6 167.3 75.6 167.3 75.4 167.1 M 76.2 166.8 C 76.2 166.9 76.2 166.9 76.2 166.8 C 76.2 166.8 76.2 166.8 76.2 166.8 Z M 83.2 166.4 C 83.2 166.4 83.2 166.4 83.2 166.4 C 83.2 166.4 83.2 166.4 83.2 166.4 Z M 73.4 167.3 C 73.4 167.3 73.4 167.3 73.4 167.3 C 73.4 167.3 73.4 167.3 73.4 167.3 Z M 79.2 171.4 C 79.2 171.5 79.2 171.5 79.2 171.4 C 79.2 171.4 79.2 171.4 79.2 171.4 Z M 78.5 170.8 C 78.5 170.8 78.5 170.8 78.5 170.8 C 78.5 170.8 78.5 170.8 78.5 170.8 Z M 47.4 166.6 C 48.4 165.9 47.9 168.5 47.4 166.6 M 81.6 170.8 C 82.5 171.5 79.9 170.9 81.6 170.8 C 81.6 170.8 81.6 170.8 81.6 170.8 Z M 72.7 168.2 C 72.7 168.3 72.7 168.3 72.7 168.2 M 76.6 166.9 C 76.7 167.1 76.7 167.1 76.6 166.9 M 58.1 166.1 C 58.2 166.2 58.2 166.2 58.1 166.1 M 81.6 167.1 C 84.5 167.4 80.2 168.7 81.6 167.1 M 56.7 167.2 C 56.7 167.1 56.7 167.1 56.7 167.2 M 63.4 169.2 C 65.4 169.1 62.7 169.8 63.4 169.2 M 68.5 167.8 C 68.4 167.9 68.4 167.9 68.5 167.8 C 68.5 167.8 68.5 167.8 68.5 167.8 Z M 65.5 167.8 C 64.1 168.0 65.2 167.5 65.5 167.8 C 65.5 167.8 65.5 167.8 65.5 167.8 Z M 48.8 167.6 C 50.7 167.8 46.9 168.0 48.8 167.6 C 48.8 167.6 48.8 167.6 48.8 167.6 Z M 80.2 169.7 C 80.1 169.8 80.1 169.8 80.2 169.7 C 80.2 169.7 80.2 169.7 80.2 169.7 Z M 73.1 166.5 C 72.2 166.8 72.6 166.2 73.1 166.5 C 73.1 166.5 73.1 166.5 73.1 166.5 Z M 84.3 166.4 C 83.4 166.7 83.9 166.1 84.3 166.4 C 84.3 166.4 84.3 166.4 84.3 166.4 Z M 46.6 167.5 C 53.5 169.3 37.4 167.0 46.6 167.5 C 46.6 167.5 46.6 167.5 46.6 167.5 Z M 66.7 167.1 C 66.7 167.1 66.7 167.1 66.7 167.1 C 66.7 167.1 66.7 167.1 66.7 167.1 Z M 54.0 166.3 C 54.0 166.4 54.0 166.4 54.0 166.3 C 54.0 166.3 54.0 166.3 54.0 166.3 Z M 51.8 167.3 C 51.8 167.4 51.8 167.4 51.8 167.3 C 51.8 167.3 51.8 167.3 51.8 167.3 Z M 52.4 171.6 C 52.4 171.6 52.4 171.6 52.4 171.6 C 52.4 171.6 52.4 171.6 52.4 171.6 Z M 53.2 169.6 C 53.1 169.8 53.1 169.8 53.2 169.6 C 53.2 169.6 53.2 169.6 53.2 169.6 Z M 48.7 170.4 C 48.7 170.4 48.7 170.4 48.7 170.4 C 48.7 170.4 48.7 170.4 48.7 170.4 Z M 48.8 170.9 C 48.8 171.0 48.8 171.0 48.8 170.9 C 48.8 170.9 48.8 170.9 48.8 170.9 Z M 76.6 168.1 C 76.6 168.2 76.6 168.2 76.6 168.1 C 76.6 168.1 76.6 168.1 76.6 168.1 Z M 74.3 169.9 C 75.9 169.3 73.8 170.8 74.3 169.9 C 74.3 169.9 74.3 169.9 74.3 169.9 Z M 60.0 169.0 C 61.5 168.8 59.1 169.6 60.0 169.0 C 60.0 169.0 60.0 169.0 60.0 169.0 Z M 61.6 171.4 C 61.7 171.4 61.7 171.4 61.6 171.4 C 61.6 171.4 61.6 171.4 61.6 171.4 Z M 51.8 166.3 C 51.8 166.4 51.8 166.4 51.8 166.3 C 51.8 166.3 51.8 166.3 51.8 166.3 Z M 49.1 167.0 C 49.0 167.9 48.3 166.6 49.1 167.0 M 62.8 166.5 C 62.8 166.6 62.8 166.6 62.8 166.5 C 62.8 166.5 62.8 166.5 62.8 166.5 Z M 71.4 167.9 C 71.4 168.0 71.4 168.0 71.4 167.9 C 71.4 167.9 71.4 167.9 71.4 167.9 Z M 80.0 167.3 C 80.0 167.4 80.0 167.4 80.0 167.3 C 80.0 167.3 80.0 167.3 80.0 167.3 Z M 68.2 166.6 C 68.1 166.7 68.1 166.7 68.2 166.6 C 68.2 166.6 68.2 166.6 68.2 166.6 Z M 64.1 167.4 C 64.0 167.5 64.0 167.5 64.1 167.4 C 64.1 167.4 64.1 167.4 64.1 167.4 Z M 81.9 168.6 C 81.8 168.6 81.8 168.6 81.9 168.6 C 81.9 168.6 81.9 168.6 81.9 168.6 Z M 69.1 166.5 C 69.1 166.5 69.1 166.5 69.1 166.5 C 69.1 166.5 69.1 166.5 69.1 166.5 Z M 71.6 169.3 C 71.5 169.4 71.5 169.4 71.6 169.3 C 71.6 169.3 71.6 169.3 71.6 169.3 Z M 49.5 165.7 C 49.5 165.8 49.5 165.8 49.5 165.7 C 49.5 165.7 49.5 165.7 49.5 165.7 Z M 82.0 167.4 C 81.9 167.4 81.9 167.4 82.0 167.4 C 82.0 167.4 82.0 167.4 82.0 167.4 Z M 82.5 166.6 C 82.5 166.6 82.5 166.6 82.5 166.6 C 82.5 166.6 82.5 166.6 82.5 166.6 Z M 76.4 170.9 C 73.4 170.4 79.1 170.7 76.9 169.7 C 81.3 169.4 77.1 170.9 76.4 170.9 C 76.4 170.9 76.4 170.9 76.4 170.9 Z M 86.6 166.3 C 84.9 167.5 84.9 168.6 85.6 169.9 C 86.4 170.5 86.4 168.1 86.4 170.1 C 84.5 170.5 87.3 173.2 87.2 170.6 C 89.8 170.2 87.6 172.3 89.2 171.2 C 91.9 171.0 90.5 171.8 92.5 171.6 C 93.8 170.1 93.8 172.3 94.3 170.9 C 93.3 172.4 96.5 170.5 96.6 171.2 C 94.7 172.1 103.8 171.2 98.8 170.8 C 100.9 170.1 100.5 171.3 101.2 171.5 C 102.0 170.6 104.5 172.2 105.7 171.3 C 105.5 171.1 104.9 171.1 104.7 170.8 C 104.3 170.2 106.1 170.9 105.9 170.8 C 106.7 170.5 110.0 169.6 106.5 171.2 C 106.3 171.9 109.3 170.9 109.2 171.5 C 112.3 171.5 110.0 170.1 111.3 171.1 C 113.5 171.2 115.0 171.2 115.0 171.0 C 116.3 171.2 116.6 172.0 117.8 171.2 C 120.4 172.8 119.7 168.2 120.7 171.2 C 121.4 170.5 122.1 172.5 122.0 170.6 C 121.1 171.5 126.5 172.1 124.2 170.7 C 124.8 170.3 128.2 172.7 127.7 170.7 C 129.0 169.3 128.7 167.9 126.1 166.6 C 126.4 167.7 123.3 165.4 125.3 167.3 C 127.5 167.9 121.1 168.0 122.5 167.3 C 122.8 165.0 119.3 168.7 118.0 167.1 C 119.1 168.0 113.8 168.4 115.4 166.8 C 114.4 166.6 114.2 167.4 113.1 166.4 C 116.2 166.6 111.9 168.2 112.1 167.2 C 112.6 166.5 107.9 166.0 108.4 167.0 C 110.0 169.3 107.2 166.5 106.4 167.4 C 103.8 167.9 106.8 165.4 104.8 167.1 C 104.3 166.8 100.9 166.8 103.1 166.4 C 103.9 166.6 101.0 168.9 100.7 166.9 C 104.3 165.8 96.4 166.3 97.7 166.9 C 103.3 168.0 91.7 168.2 96.1 167.1 C 93.6 166.0 96.8 166.6 93.7 167.1 C 94.1 167.7 91.7 168.3 92.3 167.1 C 91.8 165.2 91.4 169.6 89.5 167.0 C 89.2 165.9 85.7 167.8 87.1 166.6 C 87.2 166.5 86.6 166.3 86.6 166.3 M 87.7 166.5 C 87.3 166.9 87.0 166.0 87.7 166.5 M 87.2 166.9 C 87.2 166.9 87.2 166.9 87.2 166.9 C 87.2 166.9 87.2 166.9 87.2 166.9 Z M 93.3 167.2 C 93.2 167.1 93.2 167.1 93.3 167.2 C 93.3 167.2 93.3 167.2 93.3 167.2 Z M 98.0 171.9 C 98.0 171.9 98.0 171.9 98.0 171.9 C 98.0 171.9 98.0 171.9 98.0 171.9 Z M 97.3 167.3 C 97.2 167.3 97.2 167.3 97.3 167.3 C 97.3 167.3 97.3 167.3 97.3 167.3 Z M 91.1 167.5 C 91.1 167.5 91.1 167.5 91.1 167.5 C 91.1 167.5 91.1 167.5 91.1 167.5 Z M 96.9 166.6 C 97.2 167.3 95.5 166.1 97.0 166.5 C 97.0 166.5 96.8 166.5 96.9 166.6 M 102.2 166.3 C 102.2 166.4 102.2 166.4 102.2 166.3 M 113.8 171.9 C 113.8 172.0 113.8 172.0 113.8 171.9 M 114.7 166.3 C 114.8 166.3 114.8 166.3 114.7 166.3 M 107.4 167.0 C 109.0 166.9 107.8 167.4 107.4 167.0 M 119.0 166.7 C 116.9 166.2 121.1 166.3 119.0 166.7 M 120.9 166.2 C 121.1 166.3 121.1 166.3 120.9 166.2 M 111.8 166.5 C 111.8 166.6 111.8 166.6 111.8 166.5 C 111.8 166.5 111.8 166.5 111.8 166.5 Z M 106.7 166.7 C 104.6 166.4 108.9 166.1 106.7 166.7 M 94.0 166.5 C 95.1 166.2 94.0 167.4 94.0 166.5 M 91.6 166.9 C 91.6 166.9 91.6 166.9 91.6 166.9 C 91.6 166.9 91.6 166.9 91.6 166.9 Z M 115.7 166.6 C 115.6 166.6 115.6 166.6 115.7 166.6 C 115.7 166.6 115.7 166.6 115.7 166.6 Z M 118.0 166.5 C 118.0 166.5 118.0 166.5 118.0 166.5 C 118.0 166.5 118.0 166.5 118.0 166.5 Z M 121.9 171.7 C 121.8 171.7 121.8 171.7 121.9 171.7 C 121.9 171.7 121.9 171.7 121.9 171.7 Z M 93.3 169.1 C 91.8 168.7 94.9 167.4 94.6 168.6 C 94.8 169.2 93.5 168.9 93.3 169.1 M 105.2 168.3 C 105.6 170.1 103.7 165.9 105.2 168.3 M 121.2 167.4 C 122.8 169.5 119.2 165.9 121.2 167.4 M 124.4 167.0 C 125.3 167.5 118.5 167.3 123.3 166.7 C 123.7 166.4 124.1 166.8 124.4 167.0 M 102.2 167.2 C 102.7 168.2 99.8 166.7 102.2 167.2 M 111.9 170.1 C 112.7 169.5 114.7 168.9 113.8 170.0 C 113.8 171.4 111.0 170.6 111.9 170.1 M 88.1 167.5 C 89.4 165.9 88.1 168.8 88.1 167.5 M 94.3 167.6 C 94.3 167.5 94.3 167.5 94.3 167.6 C 94.3 167.6 94.3 167.6 94.3 167.6 Z M 96.7 167.4 C 96.8 167.5 96.8 167.5 96.7 167.4 M 89.1 166.1 C 89.2 166.2 89.2 166.2 89.1 166.1 M 111.9 168.5 C 112.0 168.6 112.0 168.6 111.9 168.5 M 107.0 167.4 C 109.3 169.0 105.7 167.8 107.0 167.4 M 101.2 170.4 C 101.9 171.2 99.7 170.5 101.2 170.4 M 110.8 166.9 C 112.5 168.3 108.5 168.3 110.8 166.9 M 105.8 167.3 C 105.9 167.3 105.9 167.3 105.8 167.3 C 105.8 167.3 105.8 167.3 105.8 167.3 Z M 112.5 170.3 C 112.5 170.3 112.5 170.3 112.5 170.3 C 112.5 170.3 112.5 170.3 112.5 170.3 Z M 113.3 170.2 C 113.2 170.2 113.2 170.2 113.3 170.2 C 113.3 170.2 113.3 170.2 113.3 170.2 Z M 112.9 166.7 C 112.8 166.7 112.8 166.7 112.9 166.7 C 112.9 166.7 112.9 166.7 112.9 166.7 Z M 91.4 171.0 C 93.1 171.1 90.1 171.2 91.4 171.0 C 91.4 171.0 91.4 171.0 91.4 171.0 Z M 98.8 166.6 C 101.6 167.8 96.9 167.7 98.8 166.6 C 98.8 166.6 98.8 166.6 98.8 166.6 Z M 102.0 168.5 C 102.0 168.6 102.0 168.6 102.0 168.5 C 102.0 168.5 102.0 168.5 102.0 168.5 Z M 109.7 165.9 C 109.7 166.0 109.7 166.0 109.7 165.9 C 109.7 165.9 109.7 165.9 109.7 165.9 Z M 92.3 171.2 C 92.3 171.2 92.3 171.2 92.3 171.2 C 92.3 171.2 92.3 171.2 92.3 171.2 Z M 117.6 167.5 C 117.6 167.6 117.6 167.6 117.6 167.5 C 117.6 167.5 117.6 167.5 117.6 167.5 Z M 108.0 170.5 C 108.6 170.0 108.1 171.0 108.0 170.5 C 108.0 170.5 108.0 170.5 108.0 170.5 Z M 110.5 170.5 C 110.6 170.5 110.6 170.5 110.5 170.5 C 110.5 170.5 110.5 170.5 110.5 170.5 Z M 121.5 166.1 C 121.6 166.1 121.6 166.1 121.5 166.1 C 121.5 166.1 121.5 166.1 121.5 166.1 Z M 116.9 171.9 C 116.9 171.9 116.9 171.9 116.9 171.9 C 116.9 171.9 116.9 171.9 116.9 171.9 Z M 119.0 170.2 C 118.9 170.2 118.9 170.2 119.0 170.2 C 119.0 170.2 119.0 170.2 119.0 170.2 Z M 112.4 167.0 C 114.9 166.8 111.8 167.7 112.4 167.0 C 112.4 167.0 112.4 167.0 112.4 167.0 Z M 125.1 169.7 C 125.2 169.8 125.2 169.8 125.1 169.7 C 125.1 169.7 125.1 169.7 125.1 169.7 Z M 126.4 167.7 C 126.5 167.8 126.5 167.8 126.4 167.7 C 126.4 167.7 126.4 167.7 126.4 167.7 Z M 127.0 166.6 C 127.1 166.7 127.1 166.7 127.0 166.6 C 127.0 166.6 127.0 166.6 127.0 166.6 Z M 96.6 169.5 C 96.6 169.5 96.6 169.5 96.6 169.5 C 96.6 169.5 96.6 169.5 96.6 169.5 Z M 95.7 166.3 C 95.6 166.2 95.6 166.2 95.7 166.3 C 95.7 166.3 95.7 166.3 95.7 166.3 Z M 99.0 166.1 C 99.0 166.1 99.0 166.1 99.0 166.1 C 99.0 166.1 99.0 166.1 99.0 166.1 Z M 96.0 171.5 C 96.0 171.5 96.0 171.5 96.0 171.5 C 96.0 171.5 96.0 171.5 96.0 171.5 Z M 108.7 168.7 C 108.6 168.7 108.6 168.7 108.7 168.7 C 108.7 168.7 108.7 168.7 108.7 168.7 Z M 109.9 170.1 C 109.8 170.0 109.8 170.0 109.9 170.1 C 109.9 170.1 109.9 170.1 109.9 170.1 Z M 107.0 171.8 C 106.9 171.8 106.9 171.8 107.0 171.8 C 107.0 171.8 107.0 171.8 107.0 171.8 Z M 110.8 171.2 C 110.8 171.2 110.8 171.2 110.8 171.2 C 110.8 171.2 110.8 171.2 110.8 171.2 Z M 87.5 170.9 C 87.5 171.0 87.5 171.0 87.5 170.9 C 87.5 170.9 87.5 170.9 87.5 170.9 Z M 87.3 168.4 C 87.2 168.5 87.2 168.5 87.3 168.4 C 87.3 168.4 87.3 168.4 87.3 168.4 Z M 109.1 166.9 C 109.7 166.4 110.2 167.6 109.1 166.9 M 104.3 167.2 C 104.2 167.3 104.2 167.3 104.3 167.2 C 104.3 167.2 104.3 167.2 104.3 167.2 Z M 117.2 167.0 C 117.8 168.0 114.9 166.5 117.2 167.0 C 117.2 167.0 117.2 167.0 117.2 167.0 Z M 114.6 171.2 C 114.7 171.2 114.7 171.2 114.6 171.2 C 114.6 171.2 114.6 171.2 114.6 171.2 Z M 115.9 170.8 C 116.0 170.9 116.0 170.9 115.9 170.8 C 115.9 170.8 115.9 170.8 115.9 170.8 Z M 122.9 168.1 C 123.0 168.2 123.0 168.2 122.9 168.1 M 103.6 166.3 C 104.4 166.8 104.2 166.7 103.6 166.3 M 118.8 167.0 C 118.8 167.1 118.8 167.1 118.8 167.0 C 118.8 167.0 118.8 167.0 118.8 167.0 Z M 124.4 167.5 C 124.4 167.5 124.4 167.5 124.4 167.5 C 124.4 167.5 124.4 167.5 124.4 167.5 Z M 100.2 167.0 C 100.3 168.2 99.7 167.9 100.2 167.0 M 90.6 167.4 C 90.6 167.5 90.6 167.5 90.6 167.4 C 90.6 167.4 90.6 167.4 90.6 167.4 Z M 132.4 167.6 C 126.6 166.0 128.0 168.7 127.8 169.2 C 127.0 169.9 127.8 170.4 128.9 170.9 C 130.1 172.6 130.7 169.2 131.6 170.8 C 133.2 173.1 133.4 168.9 134.0 171.3 C 133.8 171.9 136.0 171.4 135.8 171.2 C 137.0 172.4 138.6 170.3 138.6 170.1 C 139.3 170.4 139.4 172.6 141.8 171.0 C 143.5 170.4 144.3 172.5 143.8 171.1 C 145.2 172.7 144.8 170.6 146.1 171.1 C 147.0 172.0 145.9 169.8 148.0 171.4 C 148.7 170.0 147.6 173.1 152.2 170.5 C 149.8 171.2 154.0 168.7 153.5 169.9 C 152.3 171.5 155.4 168.7 157.6 167.7 C 157.8 166.9 158.7 164.2 159.4 165.5 C 162.1 164.8 160.1 163.2 161.7 163.0 C 162.6 162.6 161.7 161.7 162.0 161.3 C 163.2 161.0 163.1 160.1 164.0 157.1 C 164.8 153.9 163.9 153.6 163.1 153.8 C 162.4 154.0 161.6 154.7 161.4 153.6 C 161.0 153.3 157.6 156.0 160.1 155.1 C 159.4 155.4 160.9 159.9 158.9 157.3 C 159.5 159.0 158.3 156.6 158.1 159.8 C 161.6 157.1 156.5 164.2 157.6 160.4 C 156.8 160.7 156.0 162.0 157.0 161.3 C 158.7 161.9 154.6 163.0 157.3 163.0 C 155.1 164.7 156.7 165.5 155.3 164.9 C 153.4 163.6 155.8 165.4 154.3 165.6 C 151.6 167.3 152.7 163.8 151.6 166.0 C 148.5 166.1 151.3 167.2 150.3 167.7 C 150.4 169.3 147.0 167.2 149.2 166.6 C 148.2 167.6 149.0 165.9 147.7 167.0 C 148.8 168.3 145.7 165.5 146.2 166.7 C 144.8 167.0 145.5 167.9 145.1 167.9 C 142.9 167.9 143.6 166.5 143.2 167.6 C 142.7 168.1 141.7 166.3 141.4 166.7 C 143.6 166.8 139.6 168.2 139.4 167.5 C 140.7 167.4 138.7 165.6 137.8 166.7 C 138.9 169.8 136.0 165.9 135.0 167.0 C 135.9 168.7 130.2 167.2 132.4 166.4 C 132.2 166.6 132.5 167.6 132.4 167.6 M 140.8 167.0 C 142.6 167.1 138.8 167.3 140.8 167.0 M 140.7 166.5 C 141.5 167.1 139.0 166.1 140.8 166.3 C 140.8 166.4 140.6 166.5 140.7 166.5 M 147.9 166.4 C 147.8 166.9 147.0 166.2 147.9 166.4 M 149.3 167.3 C 150.4 167.6 147.9 167.7 149.3 167.3 M 159.3 158.1 C 161.3 160.3 157.5 159.1 159.3 158.1 M 153.4 164.8 C 152.2 166.0 153.4 163.6 153.4 164.8 M 153.3 165.6 C 152.8 166.4 152.9 165.2 153.3 165.6 M 158.2 160.6 C 158.4 160.5 158.4 160.5 158.2 160.6 C 158.2 160.6 158.2 160.6 158.2 160.6 Z M 159.8 156.6 C 159.8 156.6 159.8 156.6 159.8 156.6 C 159.8 156.6 159.8 156.6 159.8 156.6 Z M 155.9 163.9 C 154.6 164.3 157.3 162.3 155.9 163.9 C 155.9 163.9 155.9 163.9 155.9 163.9 Z M 162.9 159.9 C 162.9 160.1 162.9 160.1 162.9 159.9 C 162.9 159.9 162.9 159.9 162.9 159.9 Z M 139.4 168.2 C 139.3 168.2 139.3 168.2 139.4 168.2 C 139.4 168.2 139.4 168.2 139.4 168.2 Z M 133.8 167.2 C 133.9 167.5 132.8 166.9 133.8 167.2 C 133.8 167.2 133.8 167.2 133.8 167.2 Z M 129.4 170.1 C 129.3 170.2 129.3 170.2 129.4 170.1 C 129.4 170.1 129.4 170.1 129.4 170.1 Z M 137.5 169.5 C 137.5 169.6 137.5 169.6 137.5 169.5 C 137.5 169.5 137.5 169.5 137.5 169.5 Z M 138.3 167.6 C 137.4 166.2 140.4 168.0 138.3 167.6 C 138.3 167.6 138.3 167.6 138.3 167.6 Z M 156.8 167.8 C 156.5 167.3 158.0 167.1 156.8 167.8 C 156.8 167.8 156.8 167.8 156.8 167.8 Z M 149.6 167.8 C 149.8 167.5 150.4 167.8 149.6 167.8 C 149.6 167.8 149.6 167.8 149.6 167.8 Z M 146.7 166.2 C 146.9 165.9 147.5 166.4 146.7 166.2 C 146.7 166.2 146.7 166.2 146.7 166.2 Z M 133.9 166.8 C 134.1 166.7 134.1 166.7 133.9 166.8 C 133.9 166.8 133.9 166.8 133.9 166.8 Z M 135.9 167.9 C 134.6 166.6 138.0 168.6 135.9 167.9 C 135.9 167.9 135.9 167.9 135.9 167.9 Z M 133.6 168.3 C 134.3 168.8 131.8 168.0 133.6 168.3 M 134.9 170.3 C 136.6 169.7 133.4 172.7 134.9 170.3 C 134.9 170.3 134.9 170.3 134.9 170.3 Z M 143.4 170.8 C 143.5 170.9 143.5 170.9 143.4 170.8 C 143.4 170.8 143.4 170.8 143.4 170.8 Z M 142.5 166.9 C 144.0 167.0 141.6 167.3 142.5 166.9 C 142.5 166.9 142.5 166.9 142.5 166.9 Z M 129.7 166.7 C 131.2 166.7 128.8 167.0 129.7 166.7 C 129.7 166.7 129.7 166.7 129.7 166.7 Z M 148.5 169.4 C 151.0 169.0 147.0 170.3 148.5 169.4 C 148.5 169.4 148.5 169.4 148.5 169.4 Z M 155.7 164.8 C 155.8 164.8 155.8 164.8 155.7 164.8 C 155.7 164.8 155.7 164.8 155.7 164.8 Z M 156.4 163.4 C 156.5 163.4 156.5 163.4 156.4 163.4 C 156.4 163.4 156.4 163.4 156.4 163.4 Z M 160.8 158.7 C 160.9 158.6 160.9 158.6 160.8 158.7 C 160.8 158.7 160.8 158.7 160.8 158.7 Z M 156.8 162.0 C 156.8 162.0 156.8 162.0 156.8 162.0 C 156.8 162.0 156.8 162.0 156.8 162.0 Z M 159.1 158.7 C 159.1 158.6 159.1 158.6 159.1 158.7 C 159.1 158.7 159.1 158.7 159.1 158.7 Z M 157.8 158.8 C 157.9 158.7 157.9 158.7 157.8 158.8 C 157.8 158.8 157.8 158.8 157.8 158.8 Z M 154.9 169.8 C 155.1 169.8 155.1 169.8 154.9 169.8 C 154.9 169.8 154.9 169.8 154.9 169.8 Z M 136.5 166.4 C 136.7 166.5 136.7 166.5 136.5 166.4 C 136.5 166.4 136.5 166.4 136.5 166.4 Z M 159.4 159.2 C 159.5 159.2 159.5 159.2 159.4 159.2 C 159.4 159.2 159.4 159.2 159.4 159.2 Z M 152.9 167.4 C 153.4 168.4 151.4 166.5 153.1 167.2 C 153.1 167.3 152.7 167.3 152.9 167.4 M 155.1 168.3 C 155.1 168.4 155.1 168.4 155.1 168.3 C 155.1 168.3 155.1 168.3 155.1 168.3 Z M 149.9 171.0 C 149.8 171.1 149.8 171.1 149.9 171.0 C 149.9 171.0 149.9 171.0 149.9 171.0 Z M 156.2 162.4 C 155.6 162.1 157.2 161.9 156.1 162.5 M 162.7 159.3 C 162.0 159.3 163.6 158.1 162.7 159.5 M 128.0 167.1 C 127.8 167.6 127.1 166.8 128.0 167.1 M 148.6 171.8 C 148.4 172.3 147.3 171.6 148.6 171.8 M 151.1 169.9 C 150.7 169.3 152.6 170.0 150.9 170.0 M 161.0 162.9 C 161.0 162.8 161.0 162.8 161.0 162.9 C 161.0 162.9 161.0 162.9 161.0 162.9 Z M 144.8 167.1 C 144.8 167.1 144.8 167.1 144.8 167.1 C 144.8 167.1 144.8 167.1 144.8 167.1 Z M 151.0 167.8 C 150.0 167.2 152.2 168.0 151.0 167.8 M 142.9 168.6 C 141.6 167.5 144.9 168.9 142.9 168.6 M 163.7 156.4 C 162.2 157.8 164.5 155.2 163.7 156.4 M 158.1 161.8 C 156.3 162.2 159.3 161.5 158.1 161.8 M 146.1 167.6 C 146.0 167.0 147.5 168.0 146.1 167.6 M 131.4 167.0 C 130.0 166.8 133.2 166.4 131.4 167.0 M 158.7 165.9 C 158.8 165.8 158.8 165.8 158.7 165.9 C 158.7 165.9 158.7 165.9 158.7 165.9 Z M 135.8 171.9 C 135.9 172.0 135.9 172.0 135.8 171.9 C 135.8 171.9 135.8 171.9 135.8 171.9 Z M 159.6 154.2 C 159.6 154.1 159.6 154.1 159.6 154.2 C 159.6 154.2 159.6 154.2 159.6 154.2 Z M 158.1 162.8 C 158.2 162.9 158.2 162.9 158.1 162.8 C 158.1 162.8 158.1 162.8 158.1 162.8 Z M 159.1 156.5 C 159.2 156.5 159.2 156.5 159.1 156.5 C 159.1 156.5 159.1 156.5 159.1 156.5 Z M 155.8 166.5 C 155.8 166.5 155.8 166.5 155.8 166.5 C 155.8 166.5 155.8 166.5 155.8 166.5 Z M 153.2 164.2 C 153.3 164.3 153.3 164.3 153.2 164.2 C 153.2 164.2 153.2 164.2 153.2 164.2 Z M 150.0 167.1 C 150.1 167.1 150.1 167.1 150.0 167.1 C 150.0 167.1 150.0 167.1 150.0 167.1 Z M 154.8 163.4 C 156.5 161.7 154.6 165.0 154.8 163.4 C 154.8 163.4 154.8 163.4 154.8 163.4 Z M 152.6 168.5 C 152.6 168.6 152.6 168.6 152.6 168.5 C 152.6 168.5 152.6 168.5 152.6 168.5 Z M 151.4 166.5 C 152.6 165.1 152.8 167.7 151.4 166.5 M 143.9 166.6 C 144.5 166.1 144.2 167.3 143.9 166.6 M 140.7 170.9 C 140.7 170.9 140.7 170.9 140.7 170.9 C 140.7 170.9 140.7 170.9 140.7 170.9 Z M 141.5 170.5 C 141.6 170.6 141.6 170.6 141.5 170.5 C 141.5 170.5 141.5 170.5 141.5 170.5 Z M 141.9 166.4 C 142.0 166.4 142.0 166.4 141.9 166.4 C 141.9 166.4 141.9 166.4 141.9 166.4 Z M 141.7 171.8 C 141.8 171.8 141.8 171.8 141.7 171.8 C 141.7 171.8 141.7 171.8 141.7 171.8 Z M 152.5 164.8 C 152.6 164.8 152.6 164.8 152.5 164.8 C 152.5 164.8 152.5 164.8 152.5 164.8 Z M 158.9 155.3 C 158.9 155.2 158.9 155.2 158.9 155.3 C 158.9 155.3 158.9 155.3 158.9 155.3 Z M 131.8 170.4 C 131.9 170.5 131.9 170.5 131.8 170.4 C 131.8 170.4 131.8 170.4 131.8 170.4 Z M 154.3 165.2 C 154.4 165.2 154.4 165.2 154.3 165.2 C 154.3 165.2 154.3 165.2 154.3 165.2 Z M 138.6 170.7 C 138.6 170.7 138.6 170.7 138.6 170.7 C 138.6 170.7 138.6 170.7 138.6 170.7 Z M 153.5 165.4 C 153.5 165.4 153.5 165.4 153.5 165.4 C 153.5 165.4 153.5 165.4 153.5 165.4 Z M 158.5 166.4 C 158.5 166.4 158.5 166.4 158.5 166.4 C 158.5 166.4 158.5 166.4 158.5 166.4 Z M 161.4 164.2 C 161.4 164.1 161.4 164.1 161.4 164.2 C 161.4 164.2 161.4 164.2 161.4 164.2 Z M 156.8 164.9 C 156.8 164.9 156.8 164.9 156.8 164.9 C 156.8 164.9 156.8 164.9 156.8 164.9 Z M 137.5 169.3 C 131.7 168.1 142.2 168.8 137.5 169.3 M 157.6 164.4 C 154.7 167.1 158.9 161.2 157.6 164.4 C 157.7 163.9 157.6 164.3 157.6 164.4 M 159.4 149.8 C 158.1 152.4 160.0 152.4 160.0 152.4 C 157.5 152.1 161.0 154.8 161.5 154.3 C 161.9 154.4 166.3 152.3 163.6 150.5 C 163.3 150.0 164.1 149.7 164.1 149.3 C 164.0 146.1 162.7 151.5 162.7 147.6 C 163.1 146.9 165.2 147.7 163.8 145.4 C 164.0 145.3 164.7 142.7 163.8 143.7 C 164.8 142.5 163.6 141.7 163.3 140.5 C 163.9 139.4 164.9 141.4 163.7 137.6 C 165.5 136.0 162.4 135.4 164.3 134.0 C 164.4 133.0 161.2 131.6 163.0 133.8 C 162.8 133.5 161.3 134.8 161.8 131.9 C 162.2 132.3 165.5 133.9 163.9 129.2 C 164.0 128.5 163.2 126.7 163.5 126.3 C 163.9 128.7 165.0 123.0 164.0 123.6 C 164.7 119.8 163.2 122.0 164.3 119.3 C 164.3 117.1 162.8 120.0 163.7 117.3 C 163.5 115.2 164.3 116.6 164.3 116.8 C 164.4 115.0 163.8 114.4 163.9 113.8 C 164.0 113.4 164.7 112.5 163.9 112.1 C 162.4 110.2 161.0 111.9 159.5 111.1 C 158.8 112.5 160.6 111.7 159.5 112.7 C 160.4 113.4 159.4 112.8 159.6 116.6 C 159.9 116.5 160.5 115.5 160.6 116.5 C 160.5 117.9 158.0 116.9 159.8 119.3 C 160.3 116.4 160.5 123.3 161.1 120.7 C 161.4 124.0 160.9 121.6 160.3 124.0 C 161.9 123.9 158.5 124.2 159.8 125.1 C 159.1 125.4 159.4 129.1 160.5 126.4 C 160.9 130.4 159.9 127.9 159.1 129.3 C 159.0 131.1 161.8 129.4 159.7 130.5 C 158.8 132.9 160.7 130.6 159.1 132.4 C 160.6 131.6 159.1 134.1 160.7 133.4 C 160.8 137.5 159.0 132.9 160.1 135.8 C 160.2 134.9 158.1 135.2 159.4 137.0 C 161.9 136.2 157.3 139.3 160.5 138.0 C 161.4 143.6 159.2 138.9 159.2 142.0 C 159.2 142.8 160.2 141.2 160.3 141.9 C 159.8 145.9 158.9 142.6 160.5 144.7 C 160.9 148.6 159.2 145.8 159.1 147.7 C 159.8 147.9 161.1 149.5 159.4 149.8 M 160.2 146.3 C 159.7 145.5 160.7 145.8 160.2 146.3 M 159.4 154.2 C 158.9 153.5 160.0 153.8 159.4 154.2 M 159.7 143.1 C 159.2 142.0 160.6 142.7 159.7 143.1 M 160.5 121.8 C 160.5 123.3 160.1 121.2 160.5 121.8 M 159.3 151.1 C 158.7 149.9 160.2 150.7 159.3 151.1 M 160.6 152.5 C 160.6 152.4 160.6 152.4 160.6 152.5 M 159.2 119.7 C 159.2 119.7 159.2 119.7 159.2 119.7 M 159.2 125.4 C 159.2 124.2 159.5 126.1 159.2 125.4 M 164.5 125.6 C 164.6 124.4 164.9 126.3 164.5 125.6 M 159.1 116.6 C 158.7 115.4 159.7 116.3 159.1 116.6 M 160.3 113.5 C 159.8 112.4 160.8 112.8 160.3 113.5 M 162.1 147.0 C 162.1 147.0 162.1 147.0 162.1 147.0 C 162.1 147.0 162.1 147.0 162.1 147.0 Z M 163.4 136.6 C 162.9 137.8 164.1 135.1 163.4 136.6 M 159.9 138.5 C 161.0 137.7 159.8 140.1 159.9 138.5 C 159.9 138.5 159.9 138.5 159.9 138.5 Z M 160.4 140.3 C 160.4 140.4 160.4 140.4 160.4 140.3 C 160.4 140.3 160.4 140.3 160.4 140.3 Z M 160.4 134.4 C 160.5 134.5 160.5 134.5 160.4 134.4 C 160.4 134.4 160.4 134.4 160.4 134.4 Z M 160.5 135.7 C 160.8 136.1 160.3 136.3 160.5 135.7 C 160.5 135.7 160.5 135.7 160.5 135.7 Z M 164.0 127.1 C 164.2 127.6 163.8 127.8 164.0 127.1 C 164.0 127.1 164.0 127.1 164.0 127.1 Z M 160.9 137.5 C 162.0 137.7 160.2 138.4 160.9 137.5 C 160.9 137.5 160.9 137.5 160.9 137.5 Z M 163.5 131.2 C 163.2 130.7 164.5 130.1 163.5 131.2 M 159.4 118.5 C 159.1 118.0 160.4 117.4 159.4 118.5 M 159.1 131.0 C 158.8 130.5 160.1 129.9 159.1 131.0 M 159.7 145.6 C 159.8 145.5 159.8 145.5 159.7 145.6 M 164.4 138.7 C 164.0 137.9 164.9 138.3 164.4 138.7 M 164.1 150.4 C 163.7 149.6 164.6 150.1 164.1 150.4 M 164.4 120.3 C 164.1 120.3 164.6 119.0 164.4 120.3 M 160.8 129.5 C 160.9 128.4 161.5 127.3 161.5 129.6 C 161.2 129.7 161.1 129.1 160.8 129.5 C 160.8 129.5 160.8 129.5 160.8 129.5 Z M 163.3 125.6 C 163.4 125.5 163.4 125.5 163.3 125.6 M 159.8 127.6 C 159.9 127.4 159.9 127.4 159.8 127.6 M 159.9 121.2 C 160.1 121.1 160.1 121.1 159.9 121.2 M 159.6 120.4 C 159.6 120.4 159.6 120.4 159.6 120.4 C 159.6 120.4 159.6 120.4 159.6 120.4 Z M 159.2 113.4 C 159.2 113.4 159.2 113.4 159.2 113.4 C 159.2 113.4 159.2 113.4 159.2 113.4 Z M 160.0 123.3 C 160.1 123.3 160.1 123.3 160.0 123.3 C 160.0 123.3 160.0 123.3 160.0 123.3 Z M 164.2 117.5 C 164.3 117.5 164.3 117.5 164.2 117.5 C 164.2 117.5 164.2 117.5 164.2 117.5 Z M 163.6 118.2 C 163.6 118.2 163.6 118.2 163.6 118.2 C 163.6 118.2 163.6 118.2 163.6 118.2 Z M 159.4 149.3 C 158.6 148.3 161.3 148.7 159.4 149.3 M 163.6 115.1 C 164.3 114.2 163.7 116.7 163.6 115.1 C 163.6 115.1 163.6 115.1 163.6 115.1 Z M 161.0 124.0 C 161.1 123.9 161.1 123.9 161.0 124.0 M 159.7 120.0 C 159.8 119.9 159.8 119.9 159.7 120.0 M 158.9 138.6 C 159.0 138.5 159.0 138.5 158.9 138.6 M 159.9 115.1 C 160.2 112.1 161.5 116.5 159.9 115.1 M 159.9 139.9 C 159.8 140.0 159.8 140.0 159.9 139.9 M 162.0 133.2 C 161.9 131.2 162.6 133.9 162.0 133.2 M 160.6 128.2 C 160.6 128.2 160.6 128.2 160.6 128.2 C 160.6 128.2 160.6 128.2 160.6 128.2 Z M 160.6 131.1 C 160.7 132.6 160.3 131.5 160.6 131.1 C 160.6 131.1 160.6 131.1 160.6 131.1 Z M 160.4 147.9 C 160.6 146.0 160.8 149.8 160.4 147.9 C 160.4 147.9 160.4 147.9 160.4 147.9 Z M 162.4 116.5 C 162.5 116.5 162.5 116.5 162.4 116.5 C 162.4 116.5 162.4 116.5 162.4 116.5 Z M 159.3 123.6 C 159.6 124.5 159.0 124.0 159.3 123.6 C 159.3 123.6 159.3 123.6 159.3 123.6 Z M 159.2 112.4 C 159.4 113.3 158.8 112.8 159.2 112.4 C 159.2 112.4 159.2 112.4 159.2 112.4 Z M 160.2 150.1 C 162.0 143.2 159.8 159.3 160.2 150.1 C 160.2 150.1 160.2 150.1 160.2 150.1 Z M 159.8 129.9 C 159.9 130.0 159.9 130.0 159.8 129.9 C 159.8 129.9 159.8 129.9 159.8 129.9 Z M 159.1 142.7 C 159.1 142.7 159.1 142.7 159.1 142.7 C 159.1 142.7 159.1 142.7 159.1 142.7 Z M 160.1 144.8 C 160.1 144.9 160.1 144.9 160.1 144.8 C 160.1 144.8 160.1 144.8 160.1 144.8 Z M 164.3 144.2 C 164.4 144.3 164.4 144.3 164.3 144.2 C 164.3 144.2 164.3 144.2 164.3 144.2 Z M 162.4 143.5 C 162.5 143.6 162.5 143.6 162.4 143.5 C 162.4 143.5 162.4 143.5 162.4 143.5 Z M 163.1 147.9 C 163.2 148.0 163.2 148.0 163.1 147.9 C 163.1 147.9 163.1 147.9 163.1 147.9 Z M 163.7 147.8 C 163.7 147.9 163.7 147.9 163.7 147.8 C 163.7 147.8 163.7 147.8 163.7 147.8 Z M 160.9 120.0 C 161.0 120.1 161.0 120.1 160.9 120.0 C 160.9 120.0 160.9 120.0 160.9 120.0 Z M 162.7 122.4 C 162.0 120.8 163.6 122.9 162.7 122.4 C 162.7 122.4 162.7 122.4 162.7 122.4 Z M 161.8 136.6 C 161.6 135.1 162.4 137.6 161.8 136.6 C 161.8 136.6 161.8 136.6 161.8 136.6 Z M 164.1 135.0 C 164.2 135.0 164.2 135.0 164.1 135.0 C 164.1 135.0 164.1 135.0 164.1 135.0 Z M 159.1 144.8 C 159.2 144.9 159.2 144.9 159.1 144.8 C 159.1 144.8 159.1 144.8 159.1 144.8 Z M 159.8 147.5 C 160.7 147.6 159.3 148.4 159.8 147.5 M 159.3 133.9 C 159.4 133.9 159.4 133.9 159.3 133.9 C 159.3 133.9 159.3 133.9 159.3 133.9 Z M 160.7 125.2 C 160.7 125.3 160.7 125.3 160.7 125.2 C 160.7 125.2 160.7 125.2 160.7 125.2 Z M 160.1 116.7 C 160.2 116.7 160.2 116.7 160.1 116.7 C 160.1 116.7 160.1 116.7 160.1 116.7 Z M 159.4 128.5 C 159.5 128.6 159.5 128.6 159.4 128.5 C 159.4 128.5 159.4 128.5 159.4 128.5 Z M 160.2 132.6 C 160.3 132.6 160.3 132.6 160.2 132.6 C 160.2 132.6 160.2 132.6 160.2 132.6 Z M 161.4 114.8 C 161.4 114.9 161.4 114.9 161.4 114.8 C 161.4 114.8 161.4 114.8 161.4 114.8 Z M 159.2 127.5 C 159.3 127.6 159.3 127.6 159.2 127.5 C 159.2 127.5 159.2 127.5 159.2 127.5 Z M 162.1 125.1 C 162.2 125.1 162.2 125.1 162.1 125.1 C 162.1 125.1 162.1 125.1 162.1 125.1 Z M 158.5 147.1 C 158.5 147.2 158.5 147.2 158.5 147.1 C 158.5 147.1 158.5 147.1 158.5 147.1 Z M 160.2 114.7 C 160.2 114.7 160.2 114.7 160.2 114.7 C 160.2 114.7 160.2 114.7 160.2 114.7 Z M 159.4 114.2 C 159.4 114.2 159.4 114.2 159.4 114.2 C 159.4 114.2 159.4 114.2 159.4 114.2 Z M 163.6 120.2 C 163.1 123.3 163.4 117.5 162.5 119.7 C 162.2 115.4 163.7 119.6 163.6 120.2 C 163.6 120.2 163.6 120.2 163.6 120.2 Z M 159.0 110.1 C 160.2 111.8 161.4 111.8 162.7 111.1 C 163.3 110.2 160.9 110.3 162.9 110.2 C 163.3 112.1 166.0 109.4 163.4 109.4 C 163.0 106.9 165.0 109.0 164.0 107.5 C 163.7 104.8 164.5 106.2 164.4 104.1 C 162.9 102.9 165.1 102.9 163.7 102.4 C 165.2 103.4 163.3 100.1 164.0 100.1 C 164.9 102.0 164.0 92.9 163.5 97.8 C 162.8 95.8 164.1 96.2 164.3 95.5 C 163.4 94.6 164.9 92.2 164.1 90.9 C 163.9 91.2 163.8 91.8 163.5 92.0 C 163.0 92.3 163.7 90.6 163.6 90.8 C 163.3 89.9 162.4 86.7 164.0 90.2 C 164.7 90.3 163.6 87.3 164.3 87.4 C 164.3 84.4 162.8 86.7 163.9 85.3 C 163.9 83.2 164.0 81.6 163.8 81.6 C 163.9 80.3 164.8 80.1 164.0 78.9 C 165.5 76.2 160.9 77.0 164.0 76.0 C 163.3 75.2 165.3 74.5 163.4 74.6 C 164.3 75.6 164.9 70.1 163.5 72.5 C 163.0 71.8 165.5 68.4 163.5 68.9 C 162.1 67.7 160.7 67.9 159.3 70.6 C 160.4 70.3 158.2 73.4 160.1 71.4 C 160.7 69.1 160.8 75.6 160.1 74.2 C 157.8 73.9 161.5 77.3 159.9 78.7 C 160.8 77.6 161.2 82.8 159.5 81.3 C 159.4 82.3 160.2 82.5 159.2 83.6 C 159.4 80.4 161.0 84.8 159.9 84.6 C 159.3 84.1 158.8 88.8 159.7 88.3 C 162.1 86.6 159.3 89.5 160.2 90.3 C 160.7 92.9 158.2 89.9 159.9 91.8 C 159.6 92.3 159.6 95.8 159.1 93.6 C 159.4 92.8 161.7 95.6 159.7 96.0 C 158.6 92.3 159.1 100.2 159.7 99.0 C 160.8 93.3 160.9 105.0 159.8 100.6 C 158.8 103.1 159.4 99.8 159.9 102.9 C 160.5 102.5 161.1 105.0 159.9 104.4 C 158.0 104.9 162.4 105.2 159.8 107.2 C 158.7 107.4 160.6 111.0 159.4 109.6 C 159.2 109.5 159.0 110.0 159.0 110.1 M 159.3 109.0 C 159.7 109.4 158.7 109.7 159.3 109.0 M 159.7 109.5 C 159.6 109.5 159.6 109.5 159.7 109.5 C 159.7 109.5 159.7 109.5 159.7 109.5 Z M 160.0 103.4 C 159.9 103.4 159.9 103.4 160.0 103.4 C 160.0 103.4 160.0 103.4 160.0 103.4 Z M 164.7 98.6 C 164.6 98.7 164.6 98.7 164.7 98.6 C 164.7 98.6 164.7 98.6 164.7 98.6 Z M 160.1 99.4 C 160.1 99.4 160.1 99.4 160.1 99.4 C 160.1 99.4 160.1 99.4 160.1 99.4 Z M 160.3 105.6 C 160.2 105.6 160.2 105.6 160.3 105.6 C 160.3 105.6 160.3 105.6 160.3 105.6 Z M 159.4 99.8 C 160.1 99.4 158.8 101.2 159.3 99.7 C 159.3 99.6 159.3 99.9 159.4 99.8 M 159.1 94.5 C 159.2 94.5 159.2 94.5 159.1 94.5 M 164.7 82.9 C 164.7 82.9 164.7 82.9 164.7 82.9 M 159.0 81.9 C 159.1 81.8 159.1 81.8 159.0 81.9 M 159.8 89.3 C 159.7 87.6 160.2 88.9 159.8 89.3 M 159.4 77.7 C 159.0 79.7 159.0 75.5 159.4 77.7 M 159.0 75.7 C 159.1 75.6 159.1 75.6 159.0 75.7 M 159.3 84.9 C 159.3 84.9 159.3 84.9 159.3 84.9 C 159.3 84.9 159.3 84.9 159.3 84.9 Z M 159.5 89.9 C 159.1 92.0 158.9 87.8 159.5 89.9 M 159.3 102.7 C 158.9 101.5 160.2 102.7 159.3 102.7 M 159.7 105.1 C 159.7 105.1 159.7 105.1 159.7 105.1 C 159.7 105.1 159.7 105.1 159.7 105.1 Z M 159.4 81.0 C 159.4 81.0 159.4 81.0 159.4 81.0 C 159.4 81.0 159.4 81.0 159.4 81.0 Z M 159.3 78.6 C 159.3 78.7 159.3 78.7 159.3 78.6 C 159.3 78.6 159.3 78.6 159.3 78.6 Z M 164.5 74.7 C 164.5 74.8 164.5 74.8 164.5 74.7 C 164.5 74.7 164.5 74.7 164.5 74.7 Z M 161.8 103.3 C 161.5 104.9 160.1 101.7 161.4 102.0 C 161.9 101.9 161.7 103.1 161.8 103.3 M 161.1 91.5 C 162.9 91.1 158.7 93.0 161.1 91.5 M 160.2 75.5 C 162.3 73.9 158.7 77.4 160.2 75.5 M 159.8 72.3 C 160.2 71.3 160.1 78.2 159.5 73.4 C 159.2 72.9 159.6 72.6 159.8 72.3 M 159.9 94.4 C 160.9 94.0 159.5 96.9 159.9 94.4 M 162.9 84.7 C 162.3 84.0 161.7 82.0 162.8 82.9 C 164.2 82.9 163.4 85.7 162.9 84.7 M 160.3 108.5 C 158.7 107.2 161.6 108.6 160.3 108.5 M 160.4 102.4 C 160.3 102.4 160.3 102.4 160.4 102.4 C 160.4 102.4 160.4 102.4 160.4 102.4 Z M 160.1 100.0 C 160.3 99.9 160.3 99.9 160.1 100.0 M 158.9 107.5 C 159.0 107.4 159.0 107.4 158.9 107.5 M 161.3 84.8 C 161.4 84.7 161.4 84.7 161.3 84.8 M 160.2 89.7 C 161.8 87.4 160.5 91.0 160.2 89.7 M 163.2 95.5 C 163.9 94.8 163.3 97.0 163.2 95.5 M 159.6 85.9 C 161.1 84.2 161.0 88.1 159.6 85.9 M 160.1 90.9 C 160.1 90.8 160.1 90.8 160.1 90.9 C 160.1 90.9 160.1 90.9 160.1 90.9 Z M 163.1 84.1 C 163.1 84.2 163.1 84.2 163.1 84.1 C 163.1 84.1 163.1 84.1 163.1 84.1 Z M 163.0 83.4 C 163.0 83.5 163.0 83.5 163.0 83.4 C 163.0 83.4 163.0 83.4 163.0 83.4 Z M 159.5 83.8 C 159.5 83.9 159.5 83.9 159.5 83.8 C 159.5 83.8 159.5 83.8 159.5 83.8 Z M 163.7 105.2 C 163.8 103.6 164.0 106.5 163.7 105.2 C 163.7 105.2 163.7 105.2 163.7 105.2 Z M 159.4 97.8 C 160.6 95.1 160.5 99.8 159.4 97.8 C 159.4 97.8 159.4 97.8 159.4 97.8 Z M 161.3 94.7 C 161.4 94.7 161.4 94.7 161.3 94.7 C 161.3 94.7 161.3 94.7 161.3 94.7 Z M 158.7 86.9 C 158.8 86.9 158.8 86.9 158.7 86.9 C 158.7 86.9 158.7 86.9 158.7 86.9 Z M 163.9 104.4 C 164.0 104.4 164.0 104.4 163.9 104.4 C 163.9 104.4 163.9 104.4 163.9 104.4 Z M 160.3 79.1 C 160.3 79.1 160.3 79.1 160.3 79.1 C 160.3 79.1 160.3 79.1 160.3 79.1 Z M 163.3 88.7 C 162.7 88.0 163.7 88.5 163.3 88.7 C 163.3 88.7 163.3 88.7 163.3 88.7 Z M 163.3 86.2 C 163.3 86.1 163.3 86.1 163.3 86.2 C 163.3 86.2 163.3 86.2 163.3 86.2 Z M 158.9 75.1 C 158.9 75.1 158.9 75.1 158.9 75.1 C 158.9 75.1 158.9 75.1 158.9 75.1 Z M 164.7 79.8 C 164.7 79.7 164.7 79.7 164.7 79.8 C 164.7 79.8 164.7 79.8 164.7 79.8 Z M 163.0 77.7 C 163.0 77.7 163.0 77.7 163.0 77.7 C 163.0 77.7 163.0 77.7 163.0 77.7 Z M 159.8 84.2 C 159.5 81.8 160.5 84.8 159.8 84.2 C 159.8 84.2 159.8 84.2 159.8 84.2 Z M 162.5 71.5 C 162.6 71.5 162.6 71.5 162.5 71.5 C 162.5 71.5 162.5 71.5 162.5 71.5 Z M 160.5 70.3 C 160.6 70.2 160.6 70.2 160.5 70.3 C 160.5 70.3 160.5 70.3 160.5 70.3 Z M 159.4 69.6 C 159.5 69.6 159.5 69.6 159.4 69.6 C 159.4 69.6 159.4 69.6 159.4 69.6 Z M 162.3 100.0 C 162.2 100.1 162.2 100.1 162.3 100.0 C 162.3 100.0 162.3 100.0 162.3 100.0 Z M 159.0 101.0 C 159.0 101.0 159.0 101.0 159.0 101.0 C 159.0 101.0 159.0 101.0 159.0 101.0 Z M 158.9 97.6 C 158.8 97.7 158.8 97.7 158.9 97.6 C 158.9 97.6 158.9 97.6 158.9 97.6 Z M 164.3 100.6 C 164.3 100.7 164.3 100.7 164.3 100.6 C 164.3 100.6 164.3 100.6 164.3 100.6 Z M 161.5 88.0 C 161.4 88.0 161.4 88.0 161.5 88.0 C 161.5 88.0 161.5 88.0 161.5 88.0 Z M 162.8 86.8 C 162.8 86.8 162.8 86.8 162.8 86.8 C 162.8 86.8 162.8 86.8 162.8 86.8 Z M 164.6 89.7 C 164.6 89.7 164.6 89.7 164.6 89.7 C 164.6 89.7 164.6 89.7 164.6 89.7 Z M 164.0 85.9 C 164.0 85.9 164.0 85.9 164.0 85.9 C 164.0 85.9 164.0 85.9 164.0 85.9 Z M 163.7 109.1 C 163.7 109.1 163.7 109.1 163.7 109.1 C 163.7 109.1 163.7 109.1 163.7 109.1 Z M 161.2 109.4 C 161.3 109.4 161.3 109.4 161.2 109.4 C 161.2 109.4 161.2 109.4 161.2 109.4 Z M 159.7 87.6 C 159.1 87.0 160.4 86.4 159.7 87.6 M 160.0 92.4 C 160.0 92.4 160.0 92.4 160.0 92.4 C 160.0 92.4 160.0 92.4 160.0 92.4 Z M 159.8 79.5 C 160.8 78.8 159.3 81.7 159.8 79.5 C 159.8 79.5 159.8 79.5 159.8 79.5 Z M 164.0 82.0 C 164.0 82.0 164.0 82.0 164.0 82.0 C 164.0 82.0 164.0 82.0 164.0 82.0 Z M 163.6 80.8 C 163.6 80.7 163.6 80.7 163.6 80.8 C 163.6 80.8 163.6 80.8 163.6 80.8 Z M 160.8 73.8 C 160.9 73.7 160.9 73.7 160.8 73.8 M 159.1 93.0 C 159.5 92.3 159.5 92.4 159.1 93.0 M 159.8 77.8 C 159.8 77.9 159.8 77.9 159.8 77.8 C 159.8 77.8 159.8 77.8 159.8 77.8 Z M 160.3 72.2 C 160.3 72.3 160.3 72.3 160.3 72.2 C 160.3 72.2 160.3 72.2 160.3 72.2 Z M 159.8 96.5 C 161.0 96.3 160.7 97.0 159.8 96.5 M 160.2 106.0 C 160.3 106.0 160.3 106.0 160.2 106.0 C 160.2 106.0 160.2 106.0 160.2 106.0 Z M 159.4 64.6 C 158.1 67.2 160.0 67.2 160.0 67.2 C 157.5 66.9 161.0 69.5 161.5 69.0 C 161.9 69.1 166.3 67.1 163.6 65.2 C 163.3 64.8 164.1 64.5 164.1 64.1 C 164.0 60.9 162.7 66.3 162.7 62.4 C 163.1 61.7 165.2 62.5 163.8 60.2 C 164.0 60.1 164.7 57.5 163.8 58.5 C 164.8 57.2 163.6 56.4 163.3 55.3 C 163.9 54.2 164.9 56.1 163.7 52.4 C 165.5 50.8 162.4 50.2 164.3 48.7 C 164.4 47.8 161.2 46.3 163.0 48.5 C 162.8 48.2 161.3 49.6 161.8 46.6 C 162.2 47.1 165.5 48.7 163.9 44.0 C 164.0 43.3 163.2 41.5 163.5 41.1 C 163.9 43.5 165.0 37.8 164.0 38.3 C 164.7 34.6 163.2 36.8 164.3 34.1 C 164.3 31.9 162.8 34.8 163.7 32.0 C 163.5 30.0 164.3 31.4 164.3 31.6 C 164.4 29.8 163.8 29.1 163.9 28.5 C 164.0 28.1 164.7 27.3 163.9 26.9 C 162.4 25.0 161.0 26.7 159.5 25.9 C 158.8 27.3 160.6 26.5 159.5 27.4 C 160.4 28.1 159.4 27.5 159.6 31.3 C 159.9 31.2 160.5 30.3 160.6 31.2 C 160.5 32.7 158.0 31.7 159.8 34.1 C 160.3 31.2 160.5 38.1 161.1 35.4 C 161.4 38.8 160.9 36.4 160.3 38.8 C 161.9 38.7 158.5 39.0 159.8 39.9 C 159.1 40.1 159.4 43.9 160.5 41.2 C 160.9 45.1 159.9 42.6 159.1 44.0 C 159.0 45.9 161.8 44.2 159.7 45.3 C 158.8 47.7 160.7 45.4 159.1 47.1 C 160.6 46.4 159.1 48.9 160.7 48.2 C 160.8 52.2 159.0 47.7 160.1 50.5 C 160.2 49.7 158.1 50.0 159.4 51.8 C 161.9 51.0 157.3 54.0 160.5 52.8 C 161.4 58.4 159.2 53.7 159.2 56.8 C 159.2 57.6 160.2 55.9 160.3 56.6 C 159.8 60.6 158.9 57.3 160.5 59.4 C 160.9 63.4 159.2 60.6 159.1 62.5 C 159.8 62.6 161.1 64.2 159.4 64.6 M 160.2 61.1 C 159.7 60.3 160.7 60.6 160.2 61.1 M 159.4 69.0 C 158.9 68.2 160.0 68.5 159.4 69.0 M 159.7 57.8 C 159.2 56.7 160.6 57.5 159.7 57.8 M 160.5 36.6 C 160.5 38.1 160.1 35.9 160.5 36.6 M 159.3 65.8 C 158.7 64.7 160.2 65.5 159.3 65.8 M 160.6 67.3 C 160.6 67.2 160.6 67.2 160.6 67.3 M 159.2 34.5 C 159.2 34.4 159.2 34.4 159.2 34.5 M 159.2 40.2 C 159.2 39.0 159.5 40.9 159.2 40.2 M 164.5 40.4 C 164.6 39.2 164.9 41.1 164.5 40.4 M 159.1 31.4 C 158.7 30.2 159.7 31.0 159.1 31.4 M 160.3 28.2 C 159.8 27.1 160.8 27.5 160.3 28.2 M 162.1 61.8 C 162.1 61.8 162.1 61.8 162.1 61.8 C 162.1 61.8 162.1 61.8 162.1 61.8 Z M 163.4 51.4 C 162.9 52.6 164.1 49.8 163.4 51.4 M 159.9 53.3 C 161.0 52.4 159.8 54.9 159.9 53.3 C 159.9 53.3 159.9 53.3 159.9 53.3 Z M 160.4 55.1 C 160.4 55.1 160.4 55.1 160.4 55.1 C 160.4 55.1 160.4 55.1 160.4 55.1 Z M 160.4 49.2 C 160.5 49.3 160.5 49.3 160.4 49.2 C 160.4 49.2 160.4 49.2 160.4 49.2 Z M 160.5 50.4 C 160.8 50.9 160.3 51.1 160.5 50.4 C 160.5 50.4 160.5 50.4 160.5 50.4 Z M 164.0 41.9 C 164.2 42.4 163.8 42.5 164.0 41.9 C 164.0 41.9 164.0 41.9 164.0 41.9 Z M 160.9 52.3 C 162.0 52.4 160.2 53.1 160.9 52.3 C 160.9 52.3 160.9 52.3 160.9 52.3 Z M 163.5 46.0 C 163.2 45.4 164.5 44.9 163.5 46.0 M 159.4 33.3 C 159.1 32.8 160.4 32.2 159.4 33.3 M 159.1 45.8 C 158.8 45.2 160.1 44.7 159.1 45.8 M 159.7 60.4 C 159.8 60.3 159.8 60.3 159.7 60.4 M 164.4 53.5 C 164.0 52.7 164.9 53.1 164.4 53.5 M 164.1 65.2 C 163.7 64.4 164.6 64.8 164.1 65.2 M 164.4 35.1 C 164.1 35.1 164.6 33.8 164.4 35.1 M 160.8 44.3 C 160.9 43.2 161.5 42.1 161.5 44.4 C 161.2 44.5 161.1 43.8 160.8 44.3 C 160.8 44.3 160.8 44.3 160.8 44.3 Z M 163.3 40.4 C 163.4 40.2 163.4 40.2 163.3 40.4 M 159.8 42.4 C 159.9 42.2 159.9 42.2 159.8 42.4 M 159.9 36.0 C 160.1 35.8 160.1 35.8 159.9 36.0 M 159.6 35.2 C 159.6 35.2 159.6 35.2 159.6 35.2 C 159.6 35.2 159.6 35.2 159.6 35.2 Z M 159.2 28.2 C 159.2 28.2 159.2 28.2 159.2 28.2 C 159.2 28.2 159.2 28.2 159.2 28.2 Z M 160.0 38.0 C 160.1 38.0 160.1 38.0 160.0 38.0 C 160.0 38.0 160.0 38.0 160.0 38.0 Z M 164.2 32.3 C 164.3 32.2 164.3 32.2 164.2 32.3 C 164.2 32.3 164.2 32.3 164.2 32.3 Z M 163.6 33.0 C 163.6 33.0 163.6 33.0 163.6 33.0 C 163.6 33.0 163.6 33.0 163.6 33.0 Z M 159.4 64.0 C 158.6 63.1 161.3 63.5 159.4 64.0 M 163.6 29.9 C 164.3 29.0 163.7 31.5 163.6 29.9 C 163.6 29.9 163.6 29.9 163.6 29.9 Z M 161.0 38.8 C 161.1 38.7 161.1 38.7 161.0 38.8 M 159.7 34.8 C 159.8 34.7 159.8 34.7 159.7 34.8 M 158.9 53.3 C 159.0 53.2 159.0 53.2 158.9 53.3 M 159.9 29.9 C 160.2 26.9 161.5 31.2 159.9 29.9 M 159.9 54.7 C 159.8 54.8 159.8 54.8 159.9 54.7 M 162.0 48.0 C 161.9 46.0 162.6 48.7 162.0 48.0 M 160.6 42.9 C 160.6 43.0 160.6 43.0 160.6 42.9 C 160.6 42.9 160.6 42.9 160.6 42.9 Z M 160.6 45.9 C 160.7 47.3 160.3 46.3 160.6 45.9 C 160.6 45.9 160.6 45.9 160.6 45.9 Z M 160.4 62.6 C 160.6 60.7 160.8 64.5 160.4 62.6 C 160.4 62.6 160.4 62.6 160.4 62.6 Z M 162.4 31.2 C 162.5 31.3 162.5 31.3 162.4 31.2 C 162.4 31.2 162.4 31.2 162.4 31.2 Z M 159.3 38.4 C 159.6 39.3 159.0 38.8 159.3 38.4 C 159.3 38.4 159.3 38.4 159.3 38.4 Z M 159.2 27.2 C 159.4 28.0 158.8 27.6 159.2 27.2 C 159.2 27.2 159.2 27.2 159.2 27.2 Z M 160.2 64.9 C 162.0 58.0 159.8 74.1 160.2 64.9 C 160.2 64.9 160.2 64.9 160.2 64.9 Z M 159.8 44.7 C 159.9 44.8 159.9 44.8 159.8 44.7 C 159.8 44.7 159.8 44.7 159.8 44.7 Z M 159.1 57.4 C 159.1 57.5 159.1 57.5 159.1 57.4 C 159.1 57.4 159.1 57.4 159.1 57.4 Z M 160.1 59.6 C 160.1 59.6 160.1 59.6 160.1 59.6 C 160.1 59.6 160.1 59.6 160.1 59.6 Z M 164.3 59.0 C 164.4 59.0 164.4 59.0 164.3 59.0 C 164.3 59.0 164.3 59.0 164.3 59.0 Z M 162.4 58.2 C 162.5 58.3 162.5 58.3 162.4 58.2 C 162.4 58.2 162.4 58.2 162.4 58.2 Z M 163.1 62.7 C 163.2 62.7 163.2 62.7 163.1 62.7 C 163.1 62.7 163.1 62.7 163.1 62.7 Z M 163.7 62.6 C 163.7 62.6 163.7 62.6 163.7 62.6 C 163.7 62.6 163.7 62.6 163.7 62.6 Z M 160.9 34.8 C 161.0 34.8 161.0 34.8 160.9 34.8 C 160.9 34.8 160.9 34.8 160.9 34.8 Z M 162.7 37.2 C 162.0 35.6 163.6 37.7 162.7 37.2 C 162.7 37.2 162.7 37.2 162.7 37.2 Z M 161.8 51.4 C 161.6 49.9 162.4 52.4 161.8 51.4 C 161.8 51.4 161.8 51.4 161.8 51.4 Z M 164.1 49.8 C 164.2 49.8 164.2 49.8 164.1 49.8 C 164.1 49.8 164.1 49.8 164.1 49.8 Z M 159.1 59.6 C 159.2 59.6 159.2 59.6 159.1 59.6 C 159.1 59.6 159.1 59.6 159.1 59.6 Z M 159.8 62.3 C 160.7 62.4 159.3 63.1 159.8 62.3 M 159.3 48.6 C 159.4 48.6 159.4 48.6 159.3 48.6 C 159.3 48.6 159.3 48.6 159.3 48.6 Z M 160.7 40.0 C 160.7 40.0 160.7 40.0 160.7 40.0 C 160.7 40.0 160.7 40.0 160.7 40.0 Z M 160.1 31.4 C 160.2 31.5 160.2 31.5 160.1 31.4 C 160.1 31.4 160.1 31.4 160.1 31.4 Z M 159.4 43.3 C 159.5 43.3 159.5 43.3 159.4 43.3 C 159.4 43.3 159.4 43.3 159.4 43.3 Z M 160.2 47.4 C 160.3 47.4 160.3 47.4 160.2 47.4 C 160.2 47.4 160.2 47.4 160.2 47.4 Z M 161.4 29.6 C 161.4 29.6 161.4 29.6 161.4 29.6 C 161.4 29.6 161.4 29.6 161.4 29.6 Z M 159.2 42.3 C 159.3 42.3 159.3 42.3 159.2 42.3 C 159.2 42.3 159.2 42.3 159.2 42.3 Z M 162.1 39.8 C 162.2 39.9 162.2 39.9 162.1 39.8 C 162.1 39.8 162.1 39.8 162.1 39.8 Z M 158.5 61.9 C 158.5 61.9 158.5 61.9 158.5 61.9 C 158.5 61.9 158.5 61.9 158.5 61.9 Z M 160.2 29.5 C 160.2 29.5 160.2 29.5 160.2 29.5 C 160.2 29.5 160.2 29.5 160.2 29.5 Z M 159.4 28.9 C 159.4 29.0 159.4 29.0 159.4 28.9 C 159.4 28.9 159.4 28.9 159.4 28.9 Z M 163.6 35.0 C 163.1 38.0 163.4 32.3 162.5 34.5 C 162.2 30.2 163.7 34.4 163.6 35.0 C 163.6 35.0 163.6 35.0 163.6 35.0 Z M 159.0 24.9 C 160.2 26.6 161.4 26.6 162.7 25.8 C 163.3 25.0 160.9 25.0 162.9 25.0 C 163.3 26.9 166.0 24.2 163.4 24.2 C 163.0 21.7 165.0 23.8 164.0 22.3 C 163.7 19.6 164.7 21.1 164.3 18.7 C 162.7 17.3 164.8 17.0 163.4 16.7 C 165.1 17.6 162.3 14.4 162.9 14.1 C 164.5 15.8 159.3 7.1 161.5 12.0 C 159.8 10.4 161.0 10.2 160.7 9.5 C 159.4 9.2 158.6 6.1 156.9 6.0 C 157.0 6.3 157.6 6.8 157.5 7.1 C 157.5 7.8 156.4 6.1 156.5 6.3 C 155.6 6.0 152.0 4.8 156.2 5.6 C 156.7 5.1 153.2 4.4 153.6 3.9 C 150.4 2.5 152.4 4.9 151.2 3.4 C 148.8 2.8 146.9 2.8 146.9 3.0 C 145.4 2.8 145.3 2.0 144.2 2.8 C 141.5 1.2 142.3 5.8 141.3 2.8 C 140.5 3.5 139.8 1.5 139.9 3.4 C 140.8 2.5 135.4 1.9 137.7 3.3 C 137.1 3.7 133.7 1.3 134.2 3.3 C 133.0 4.7 133.2 6.1 135.9 7.4 C 135.6 6.3 138.7 8.6 136.7 6.7 C 134.4 6.1 140.9 6.0 139.5 6.7 C 139.2 9.0 142.6 5.3 144.0 6.9 C 142.9 6.0 148.1 5.6 146.6 7.3 C 147.6 7.4 147.8 6.6 148.6 7.7 C 146.0 7.2 149.9 6.2 149.5 7.1 C 149.0 7.6 152.4 9.4 152.5 8.3 C 152.3 5.6 153.1 9.2 154.2 8.8 C 156.3 9.7 152.7 10.1 155.1 9.8 C 155.2 10.3 157.2 12.3 155.6 11.4 C 155.4 10.8 158.8 11.2 157.3 12.6 C 154.6 10.7 158.4 15.9 158.6 14.7 C 157.6 9.9 161.4 19.2 159.2 15.9 C 158.8 18.3 158.8 15.3 159.7 17.9 C 160.3 17.5 161.1 19.7 159.8 19.2 C 158.0 19.8 162.4 20.0 159.8 21.9 C 158.7 22.2 160.6 25.7 159.4 24.3 C 159.2 24.3 159.0 24.8 159.0 24.9 M 159.3 23.8 C 159.7 24.2 158.7 24.4 159.3 23.8 M 159.7 24.2 C 159.6 24.3 159.6 24.3 159.7 24.2 C 159.7 24.2 159.7 24.2 159.7 24.2 Z M 159.9 18.3 C 159.8 18.4 159.8 18.4 159.9 18.3 C 159.9 18.3 159.9 18.3 159.9 18.3 Z M 163.0 12.3 C 162.9 12.4 162.9 12.4 163.0 12.3 C 163.0 12.3 163.0 12.3 163.0 12.3 Z M 159.0 14.9 C 159.1 14.9 159.1 14.9 159.0 14.9 C 159.0 14.9 159.0 14.9 159.0 14.9 Z M 160.3 20.3 C 160.2 20.4 160.2 20.4 160.3 20.3 C 160.3 20.3 160.3 20.3 160.3 20.3 Z M 158.5 15.4 C 159.1 14.9 158.5 16.7 158.4 15.4 C 158.4 15.4 158.5 15.6 158.5 15.4 M 156.1 12.0 C 156.1 11.9 156.1 11.9 156.1 12.0 M 148.5 2.2 C 148.5 2.1 148.5 2.1 148.5 2.2 M 147.2 7.7 C 147.1 7.7 147.1 7.7 147.2 7.7 M 153.2 8.7 C 152.0 8.1 153.1 8.2 153.2 8.7 M 143.0 7.3 C 145.0 7.8 140.8 7.7 143.0 7.3 M 141.0 7.8 C 140.8 7.7 140.8 7.7 141.0 7.8 M 149.6 7.8 C 149.7 7.8 149.7 7.8 149.6 7.8 C 149.6 7.8 149.6 7.8 149.6 7.8 Z M 153.6 9.2 C 154.9 10.5 151.7 8.8 153.6 9.2 M 159.1 17.8 C 158.6 16.9 160.0 17.7 159.1 17.8 M 159.7 19.9 C 159.7 19.9 159.7 19.9 159.7 19.9 C 159.7 19.9 159.7 19.9 159.7 19.9 Z M 146.2 7.4 C 146.3 7.4 146.3 7.4 146.2 7.4 C 146.2 7.4 146.2 7.4 146.2 7.4 Z M 143.9 7.5 C 144.0 7.5 144.0 7.5 143.9 7.5 C 143.9 7.5 143.9 7.5 143.9 7.5 Z M 140.0 2.3 C 140.1 2.3 140.1 2.3 140.0 2.3 C 140.0 2.3 140.0 2.3 140.0 2.3 Z M 161.7 18.0 C 161.6 19.6 159.8 16.8 161.1 16.8 C 161.5 16.5 161.6 17.8 161.7 18.0 M 155.6 8.7 C 156.4 7.1 155.2 11.5 155.6 8.7 M 140.7 6.6 C 139.2 4.5 142.7 8.1 140.7 6.6 M 137.5 7.0 C 136.6 6.5 143.5 6.7 138.7 7.3 C 138.2 7.6 137.9 7.2 137.5 7.0 M 156.7 11.3 C 157.2 10.4 157.8 13.2 156.7 11.3 M 150.3 4.3 C 149.4 4.7 147.2 5.0 148.3 4.1 C 148.4 2.7 151.4 4.0 150.3 4.3 M 160.3 23.3 C 158.7 22.0 161.6 23.3 160.3 23.3 M 160.1 17.4 C 160.1 17.4 160.1 17.4 160.1 17.4 C 160.1 17.4 160.1 17.4 160.1 17.4 Z M 159.3 15.4 C 159.4 15.2 159.4 15.2 159.3 15.4 M 158.9 22.3 C 159.0 22.2 159.0 22.2 158.9 22.3 M 150.0 5.9 C 149.9 5.7 149.9 5.7 150.0 5.9 M 153.8 8.5 C 152.9 6.1 154.9 8.8 153.8 8.5 M 159.9 10.1 C 160.0 9.0 160.9 11.3 159.9 10.1 M 150.5 7.7 C 149.6 5.9 152.8 6.9 150.5 7.7 M 154.6 9.2 C 154.5 9.2 154.5 9.2 154.6 9.2 C 154.6 9.2 154.6 9.2 154.6 9.2 Z M 149.7 4.0 C 149.7 4.0 149.7 4.0 149.7 4.0 C 149.7 4.0 149.7 4.0 149.7 4.0 Z M 148.9 3.9 C 149.0 3.9 149.0 3.9 148.9 3.9 C 148.9 3.9 148.9 3.9 148.9 3.9 Z M 148.8 7.5 C 148.8 7.4 148.8 7.4 148.8 7.5 C 148.8 7.5 148.8 7.5 148.8 7.5 Z M 163.7 20.0 C 163.8 18.3 164.0 21.3 163.7 20.0 C 163.7 20.0 163.7 20.0 163.7 20.0 Z M 157.9 14.0 C 157.8 11.4 159.6 14.9 157.9 14.0 C 157.9 14.0 157.9 14.0 157.9 14.0 Z M 157.9 10.6 C 158.0 10.6 158.0 10.6 157.9 10.6 C 157.9 10.6 157.9 10.6 157.9 10.6 Z M 151.0 8.8 C 151.1 8.8 151.1 8.8 151.0 8.8 C 151.0 8.8 151.0 8.8 151.0 8.8 Z M 163.9 19.0 C 164.0 19.0 164.0 19.0 163.9 19.0 C 163.9 19.0 163.9 19.0 163.9 19.0 Z M 144.3 6.5 C 144.3 6.4 144.3 6.4 144.3 6.5 C 144.3 6.5 144.3 6.5 144.3 6.5 Z M 154.4 5.4 C 153.6 5.5 154.5 4.9 154.4 5.4 C 154.4 5.4 154.4 5.4 154.4 5.4 Z M 151.9 4.3 C 151.8 4.3 151.8 4.3 151.9 4.3 C 151.9 4.3 151.9 4.3 151.9 4.3 Z M 140.4 7.9 C 140.3 7.9 140.3 7.9 140.4 7.9 C 140.4 7.9 140.4 7.9 140.4 7.9 Z M 145.1 2.1 C 145.0 2.1 145.0 2.1 145.1 2.1 C 145.1 2.1 145.1 2.1 145.1 2.1 Z M 143.0 3.8 C 143.0 3.8 143.0 3.8 143.0 3.8 C 143.0 3.8 143.0 3.8 143.0 3.8 Z M 149.2 7.2 C 147.0 7.1 149.8 6.6 149.2 7.2 C 149.2 7.2 149.2 7.2 149.2 7.2 Z M 136.8 4.3 C 136.7 4.2 136.7 4.2 136.8 4.3 C 136.8 4.3 136.8 4.3 136.8 4.3 Z M 135.5 6.3 C 135.5 6.2 135.5 6.2 135.5 6.3 C 135.5 6.3 135.5 6.3 135.5 6.3 Z M 134.9 7.4 C 134.8 7.3 134.8 7.3 134.9 7.4 C 134.9 7.4 134.9 7.4 134.9 7.4 Z M 161.4 14.6 C 161.3 14.7 161.3 14.7 161.4 14.6 C 161.4 14.6 161.4 14.6 161.4 14.6 Z M 158.5 16.5 C 158.5 16.6 158.5 16.6 158.5 16.5 C 158.5 16.5 158.5 16.5 158.5 16.5 Z M 157.3 14.1 C 157.3 14.1 157.3 14.1 157.3 14.1 C 157.3 14.1 157.3 14.1 157.3 14.1 Z M 163.5 14.6 C 163.4 14.7 163.4 14.7 163.5 14.6 C 163.5 14.6 163.5 14.6 163.5 14.6 Z M 153.0 6.6 C 153.0 6.7 153.0 6.7 153.0 6.6 C 153.0 6.6 153.0 6.6 153.0 6.6 Z M 152.4 5.0 C 152.4 5.0 152.4 5.0 152.4 5.0 C 152.4 5.0 152.4 5.0 152.4 5.0 Z M 156.1 4.8 C 156.1 4.8 156.1 4.8 156.1 4.8 C 156.1 4.8 156.1 4.8 156.1 4.8 Z M 151.8 3.5 C 151.8 3.6 151.8 3.6 151.8 3.5 C 151.8 3.5 151.8 3.5 151.8 3.5 Z M 163.7 23.9 C 163.7 23.9 163.7 23.9 163.7 23.9 C 163.7 23.9 163.7 23.9 163.7 23.9 Z M 161.2 24.2 C 161.3 24.2 161.3 24.2 161.2 24.2 C 161.2 24.2 161.2 24.2 161.2 24.2 Z M 151.9 8.2 C 151.3 8.5 151.3 7.1 151.9 8.2 M 155.5 10.1 C 155.6 10.1 155.6 10.1 155.5 10.1 C 155.5 10.1 155.5 10.1 155.5 10.1 Z M 144.7 7.0 C 144.1 6.0 147.0 7.5 144.7 7.0 C 144.7 7.0 144.7 7.0 144.7 7.0 Z M 147.4 2.8 C 147.3 2.8 147.3 2.8 147.4 2.8 C 147.4 2.8 147.4 2.8 147.4 2.8 Z M 146.0 3.2 C 145.9 3.1 145.9 3.1 146.0 3.2 C 146.0 3.2 146.0 3.2 146.0 3.2 Z M 139.1 5.9 C 138.9 5.8 138.9 5.8 139.1 5.9 M 155.3 11.1 C 155.2 10.4 155.2 10.5 155.3 11.1 M 143.1 7.0 C 143.2 6.9 143.2 6.9 143.1 7.0 C 143.1 7.0 143.1 7.0 143.1 7.0 Z M 137.5 6.5 C 137.6 6.5 137.6 6.5 137.5 6.5 C 137.5 6.5 137.5 6.5 137.5 6.5 Z M 157.6 12.8 C 158.6 12.0 158.6 12.7 157.6 12.8 M 160.2 20.8 C 160.3 20.8 160.3 20.8 160.2 20.8 C 160.2 20.8 160.2 20.8 160.2 20.8 Z M 129.9 7.4 C 132.5 8.7 132.5 6.8 132.5 6.8 C 132.2 9.3 134.8 5.8 134.3 5.3 C 134.4 4.9 132.4 0.5 130.5 3.2 C 130.0 3.5 129.7 2.7 129.4 2.6 C 126.2 2.8 131.6 4.0 127.7 4.0 C 127.0 3.7 127.8 1.6 125.5 3.0 C 125.4 2.8 122.8 2.0 123.8 3.0 C 122.5 2.0 121.7 3.2 120.5 3.4 C 119.5 2.9 121.4 1.9 117.7 3.1 C 116.0 1.3 115.5 4.4 114.0 2.4 C 113.1 2.4 111.6 5.6 113.8 3.8 C 113.5 4.0 114.9 5.5 111.9 4.9 C 112.3 4.5 114.0 1.3 109.3 2.8 C 108.5 2.8 106.7 3.6 106.3 3.2 C 108.7 2.9 103.1 1.8 103.6 2.8 C 99.9 2.1 102.0 3.6 99.3 2.5 C 97.1 2.5 100.1 4.0 97.3 3.1 C 95.3 3.3 96.7 2.5 96.9 2.5 C 95.1 2.4 94.4 2.9 93.8 2.9 C 93.4 2.7 92.6 2.1 92.1 2.9 C 90.3 4.3 92.0 5.8 91.1 7.3 C 92.5 8.0 91.8 6.2 92.7 7.3 C 93.4 6.3 92.8 7.3 96.6 7.1 C 96.5 6.9 95.6 6.3 96.5 6.2 C 98.0 6.3 96.9 8.8 99.4 7.0 C 96.5 6.5 103.4 6.2 100.7 5.7 C 104.0 5.4 101.7 5.9 104.1 6.5 C 104.0 4.8 104.3 8.3 105.2 6.9 C 105.4 7.6 109.2 7.3 106.5 6.3 C 110.4 5.9 107.9 6.8 109.3 7.7 C 111.1 7.8 109.5 5.0 110.6 7.0 C 112.9 8.0 110.7 6.0 112.4 7.6 C 111.6 6.2 114.1 7.7 113.5 6.1 C 117.5 6.0 113.0 7.7 115.8 6.7 C 114.9 6.6 115.3 8.7 117.0 7.3 C 116.3 4.9 119.3 9.5 118.0 6.3 C 123.7 5.3 119.0 7.6 122.1 7.6 C 122.9 7.6 121.2 6.6 121.9 6.5 C 125.9 7.0 122.6 7.8 124.7 6.2 C 128.6 5.8 125.8 7.6 127.8 7.7 C 127.9 7.0 129.5 5.7 129.9 7.4 M 126.3 6.6 C 125.5 7.1 125.8 6.1 126.3 6.6 M 134.3 7.4 C 133.4 7.9 133.8 6.8 134.3 7.4 M 123.1 7.1 C 122.0 7.6 122.8 6.2 123.1 7.1 M 101.9 6.3 C 103.4 6.3 101.2 6.7 101.9 6.3 M 131.1 7.5 C 130.0 8.1 130.8 6.6 131.1 7.5 M 132.5 6.2 C 132.5 6.2 132.5 6.2 132.5 6.2 M 99.8 7.6 C 99.7 7.6 99.7 7.6 99.8 7.6 M 105.5 7.6 C 104.3 7.6 106.1 7.3 105.5 7.6 M 105.7 2.2 C 104.4 2.2 106.4 1.9 105.7 2.2 M 96.7 7.7 C 95.5 8.1 96.3 7.1 96.7 7.7 M 93.5 6.5 C 92.4 7.0 92.8 5.9 93.5 6.5 M 127.1 4.7 C 127.1 4.7 127.1 4.7 127.1 4.7 C 127.1 4.7 127.1 4.7 127.1 4.7 Z M 116.6 3.4 C 117.9 3.9 115.1 2.7 116.6 3.4 M 118.6 6.9 C 117.7 5.8 120.2 7.0 118.6 6.9 C 118.6 6.9 118.6 6.9 118.6 6.9 Z M 120.4 6.4 C 120.4 6.4 120.4 6.4 120.4 6.4 C 120.4 6.4 120.4 6.4 120.4 6.4 Z M 114.5 6.3 C 114.6 6.3 114.6 6.3 114.5 6.3 C 114.5 6.3 114.5 6.3 114.5 6.3 Z M 115.7 6.2 C 116.2 6.0 116.4 6.5 115.7 6.2 C 115.7 6.2 115.7 6.2 115.7 6.2 Z M 107.2 2.8 C 107.7 2.6 107.8 3.0 107.2 2.8 C 107.2 2.8 107.2 2.8 107.2 2.8 Z M 117.6 5.9 C 117.7 4.8 118.4 6.6 117.6 5.9 C 117.6 5.9 117.6 5.9 117.6 5.9 Z M 111.2 3.3 C 110.7 3.6 110.2 2.2 111.2 3.3 M 98.6 7.4 C 98.1 7.7 97.5 6.4 98.6 7.4 M 111.0 7.7 C 110.5 8.0 109.9 6.7 111.0 7.7 M 125.7 7.1 C 125.5 6.9 125.5 6.9 125.7 7.1 M 118.8 2.3 C 118.0 2.7 118.3 1.8 118.8 2.3 M 130.5 2.7 C 129.7 3.1 130.1 2.2 130.5 2.7 M 100.4 2.4 C 100.4 2.6 99.1 2.2 100.4 2.4 M 109.6 6.0 C 108.5 5.8 107.4 5.2 109.6 5.3 C 109.8 5.6 109.1 5.7 109.6 6.0 C 109.6 6.0 109.6 6.0 109.6 6.0 Z M 105.7 3.5 C 105.5 3.4 105.5 3.4 105.7 3.5 M 107.6 7.0 C 107.5 6.9 107.5 6.9 107.6 7.0 M 101.3 6.9 C 101.1 6.7 101.1 6.7 101.3 6.9 M 100.5 7.2 C 100.5 7.1 100.5 7.1 100.5 7.2 C 100.5 7.2 100.5 7.2 100.5 7.2 Z M 93.5 7.6 C 93.5 7.6 93.5 7.6 93.5 7.6 C 93.5 7.6 93.5 7.6 93.5 7.6 Z M 103.3 6.7 C 103.3 6.7 103.3 6.7 103.3 6.7 C 103.3 6.7 103.3 6.7 103.3 6.7 Z M 97.5 2.6 C 97.5 2.5 97.5 2.5 97.5 2.6 C 97.5 2.6 97.5 2.6 97.5 2.6 Z M 98.3 3.2 C 98.2 3.2 98.2 3.2 98.3 3.2 C 98.3 3.2 98.3 3.2 98.3 3.2 Z M 129.3 7.4 C 128.3 8.1 128.8 5.5 129.3 7.4 M 95.1 3.2 C 94.2 2.5 96.8 3.1 95.1 3.2 C 95.1 3.2 95.1 3.2 95.1 3.2 Z M 104.1 5.8 C 104.0 5.7 104.0 5.7 104.1 5.8 M 100.1 7.1 C 100.0 6.9 100.0 6.9 100.1 7.1 M 118.6 7.9 C 118.5 7.8 118.5 7.8 118.6 7.9 M 95.2 6.9 C 92.2 6.6 96.5 5.3 95.2 6.9 M 120.0 6.9 C 120.0 7.0 120.0 7.0 120.0 6.9 M 113.3 4.8 C 111.3 4.9 114.0 4.2 113.3 4.8 M 108.2 6.2 C 108.3 6.1 108.3 6.1 108.2 6.2 C 108.2 6.2 108.2 6.2 108.2 6.2 Z M 111.2 6.2 C 112.6 6.0 111.5 6.5 111.2 6.2 C 111.2 6.2 111.2 6.2 111.2 6.2 Z M 127.9 6.4 C 126.0 6.2 129.8 6.0 127.9 6.4 C 127.9 6.4 127.9 6.4 127.9 6.4 Z M 96.5 4.3 C 96.6 4.2 96.6 4.2 96.5 4.3 C 96.5 4.3 96.5 4.3 96.5 4.3 Z M 103.7 7.5 C 104.5 7.2 104.1 7.8 103.7 7.5 C 103.7 7.5 103.7 7.5 103.7 7.5 Z M 92.4 7.6 C 93.3 7.3 92.8 7.9 92.4 7.6 C 92.4 7.6 92.4 7.6 92.4 7.6 Z M 130.2 6.6 C 123.3 4.7 139.4 7.0 130.2 6.6 C 130.2 6.6 130.2 6.6 130.2 6.6 Z M 110.0 6.9 C 110.0 6.9 110.0 6.9 110.0 6.9 C 110.0 6.9 110.0 6.9 110.0 6.9 Z M 122.7 7.7 C 122.7 7.6 122.7 7.6 122.7 7.7 C 122.7 7.7 122.7 7.7 122.7 7.7 Z M 124.9 6.7 C 124.9 6.6 124.9 6.6 124.9 6.7 C 124.9 6.7 124.9 6.7 124.9 6.7 Z M 124.3 2.4 C 124.3 2.4 124.3 2.4 124.3 2.4 C 124.3 2.4 124.3 2.4 124.3 2.4 Z M 123.5 4.4 C 123.6 4.2 123.6 4.2 123.5 4.4 C 123.5 4.4 123.5 4.4 123.5 4.4 Z M 128.0 3.7 C 128.0 3.6 128.0 3.6 128.0 3.7 C 128.0 3.7 128.0 3.7 128.0 3.7 Z M 127.9 3.1 C 127.9 3.0 127.9 3.0 127.9 3.1 C 127.9 3.1 127.9 3.1 127.9 3.1 Z M 100.1 5.9 C 100.1 5.8 100.1 5.8 100.1 5.9 C 100.1 5.9 100.1 5.9 100.1 5.9 Z M 102.4 4.1 C 100.8 4.7 102.9 3.2 102.4 4.1 C 102.4 4.1 102.4 4.1 102.4 4.1 Z M 116.7 5.0 C 115.2 5.2 117.6 4.4 116.7 5.0 C 116.7 5.0 116.7 5.0 116.7 5.0 Z M 115.1 2.6 C 115.0 2.6 115.0 2.6 115.1 2.6 C 115.1 2.6 115.1 2.6 115.1 2.6 Z M 124.9 7.7 C 124.9 7.6 124.9 7.6 124.9 7.7 C 124.9 7.7 124.9 7.7 124.9 7.7 Z M 127.6 7.0 C 127.7 6.1 128.4 7.4 127.6 7.0 M 113.9 7.5 C 113.9 7.4 113.9 7.4 113.9 7.5 C 113.9 7.5 113.9 7.5 113.9 7.5 Z M 105.3 6.1 C 105.3 6.0 105.3 6.0 105.3 6.1 C 105.3 6.1 105.3 6.1 105.3 6.1 Z M 96.7 6.7 C 96.8 6.6 96.8 6.6 96.7 6.7 C 96.7 6.7 96.7 6.7 96.7 6.7 Z M 108.6 7.4 C 108.6 7.3 108.6 7.3 108.6 7.4 C 108.6 7.4 108.6 7.4 108.6 7.4 Z M 112.6 6.6 C 112.7 6.5 112.7 6.5 112.6 6.6 C 112.6 6.6 112.6 6.6 112.6 6.6 Z M 94.8 5.4 C 94.9 5.4 94.9 5.4 94.8 5.4 C 94.8 5.4 94.8 5.4 94.8 5.4 Z M 107.6 7.5 C 107.6 7.5 107.6 7.5 107.6 7.5 C 107.6 7.5 107.6 7.5 107.6 7.5 Z M 105.1 4.7 C 105.2 4.6 105.2 4.6 105.1 4.7 C 105.1 4.7 105.1 4.7 105.1 4.7 Z M 127.2 8.3 C 127.2 8.2 127.2 8.2 127.2 8.3 C 127.2 8.3 127.2 8.3 127.2 8.3 Z M 94.7 6.6 C 94.8 6.6 94.8 6.6 94.7 6.6 C 94.7 6.6 94.7 6.6 94.7 6.6 Z M 94.2 7.4 C 94.3 7.4 94.3 7.4 94.2 7.4 C 94.2 7.4 94.2 7.4 94.2 7.4 Z M 100.3 3.1 C 103.3 3.7 97.6 3.3 99.8 4.3 C 95.4 4.6 99.6 3.1 100.3 3.1 C 100.3 3.1 100.3 3.1 100.3 3.1 Z M 90.2 7.7 C 91.9 6.5 91.8 5.4 91.1 4.1 C 90.3 3.5 90.3 5.9 90.3 3.9 C 92.2 3.5 89.4 0.8 89.5 3.4 C 86.9 3.8 89.1 1.7 87.6 2.8 C 84.9 3.1 86.2 2.2 84.2 2.4 C 82.9 3.9 82.9 1.7 82.4 3.1 C 83.4 1.6 80.2 3.5 80.1 2.8 C 82.0 1.9 72.9 2.8 77.9 3.2 C 75.8 3.9 76.2 2.7 75.5 2.5 C 74.7 3.4 72.2 1.8 71.0 2.7 C 71.2 2.9 71.8 3.0 72.0 3.2 C 72.4 3.8 70.6 3.1 70.8 3.2 C 70.0 3.5 66.7 4.4 70.2 2.8 C 70.4 2.1 67.4 3.2 67.5 2.5 C 64.4 2.5 66.7 3.9 65.4 2.9 C 63.2 2.8 61.7 2.8 61.7 3.0 C 60.4 2.8 60.1 2.0 58.9 2.8 C 56.3 1.2 57.1 5.8 56.1 2.8 C 55.3 3.5 54.6 1.5 54.7 3.4 C 55.6 2.5 50.2 1.9 52.5 3.3 C 51.9 3.7 48.5 1.3 49.0 3.3 C 47.8 4.7 48.0 6.1 50.6 7.4 C 50.3 6.3 53.4 8.6 51.4 6.7 C 49.2 6.1 55.6 6.0 54.3 6.7 C 53.9 9.0 57.4 5.3 58.7 6.9 C 57.6 6.0 62.9 5.6 61.4 7.3 C 62.3 7.4 62.6 6.6 63.6 7.6 C 60.5 7.4 64.8 5.8 64.6 6.8 C 64.1 7.5 68.8 8.0 68.3 7.0 C 66.7 4.7 69.5 7.5 70.3 6.6 C 72.9 6.1 69.9 8.6 71.9 6.9 C 72.4 7.2 75.8 7.2 73.6 7.6 C 72.8 7.4 75.7 5.1 76.1 7.1 C 72.4 8.2 80.3 7.7 79.0 7.1 C 73.4 6.0 85.0 5.8 80.6 6.9 C 83.1 8.0 79.9 7.4 83.0 6.9 C 82.6 6.3 85.0 5.7 84.4 6.9 C 84.9 8.8 85.3 4.4 87.2 7.0 C 87.5 8.1 91.0 6.2 89.6 7.4 C 89.5 7.5 90.1 7.8 90.2 7.7 M 89.0 7.5 C 89.4 7.1 89.7 8.1 89.0 7.5 M 89.5 7.1 C 89.5 7.1 89.5 7.1 89.5 7.1 C 89.5 7.1 89.5 7.1 89.5 7.1 Z M 83.5 6.8 C 83.5 6.9 83.5 6.9 83.5 6.8 C 83.5 6.8 83.5 6.8 83.5 6.8 Z M 78.7 2.1 C 78.7 2.1 78.7 2.1 78.7 2.1 C 78.7 2.1 78.7 2.1 78.7 2.1 Z M 79.4 6.7 C 79.5 6.7 79.5 6.7 79.4 6.7 C 79.4 6.7 79.4 6.7 79.4 6.7 Z M 85.6 6.5 C 85.7 6.5 85.7 6.5 85.6 6.5 C 85.6 6.5 85.6 6.5 85.6 6.5 Z M 79.8 7.4 C 79.5 6.7 81.2 7.9 79.7 7.5 C 79.7 7.5 79.9 7.5 79.8 7.4 M 74.5 7.7 C 74.5 7.6 74.5 7.6 74.5 7.7 M 62.9 2.1 C 62.9 2.0 62.9 2.0 62.9 2.1 M 62.0 7.7 C 61.9 7.7 61.9 7.7 62.0 7.7 M 69.3 7.0 C 67.7 7.1 68.9 6.6 69.3 7.0 M 57.8 7.3 C 59.8 7.8 55.6 7.7 57.8 7.3 M 55.8 7.8 C 55.6 7.7 55.6 7.7 55.8 7.8 M 64.9 7.5 C 65.0 7.4 65.0 7.4 64.9 7.5 C 64.9 7.5 64.9 7.5 64.9 7.5 Z M 70.0 7.3 C 72.1 7.6 67.8 7.9 70.0 7.3 M 82.7 7.5 C 81.6 7.9 82.7 6.6 82.7 7.5 M 85.1 7.1 C 85.1 7.1 85.1 7.1 85.1 7.1 C 85.1 7.1 85.1 7.1 85.1 7.1 Z M 61.0 7.4 C 61.1 7.4 61.1 7.4 61.0 7.4 C 61.0 7.4 61.0 7.4 61.0 7.4 Z M 58.7 7.5 C 58.7 7.5 58.7 7.5 58.7 7.5 C 58.7 7.5 58.7 7.5 58.7 7.5 Z M 54.8 2.3 C 54.9 2.3 54.9 2.3 54.8 2.3 C 54.8 2.3 54.8 2.3 54.8 2.3 Z M 83.4 4.9 C 84.9 5.3 81.8 6.6 82.1 5.4 C 81.9 4.8 83.2 5.1 83.4 4.9 M 71.5 5.7 C 71.1 3.9 73.1 8.1 71.5 5.7 M 55.5 6.6 C 53.9 4.5 57.5 8.1 55.5 6.6 M 52.3 7.0 C 51.4 6.5 58.2 6.7 53.4 7.3 C 53.0 7.6 52.6 7.2 52.3 7.0 M 74.5 6.8 C 74.0 5.8 77.0 7.3 74.5 6.8 M 64.8 3.9 C 64.0 4.5 62.0 5.1 62.9 4.0 C 62.9 2.6 65.7 3.4 64.8 3.9 M 88.6 6.5 C 87.3 8.1 88.6 5.2 88.6 6.5 M 82.4 6.4 C 82.4 6.5 82.4 6.5 82.4 6.4 C 82.4 6.4 82.4 6.4 82.4 6.4 Z M 80.0 6.6 C 79.9 6.5 79.9 6.5 80.0 6.6 M 87.6 7.9 C 87.5 7.8 87.5 7.8 87.6 7.9 M 64.8 5.5 C 64.7 5.4 64.7 5.4 64.8 5.5 M 69.8 6.6 C 67.4 5.0 71.0 6.2 69.8 6.6 M 75.5 3.6 C 74.8 2.8 77.0 3.5 75.5 3.6 M 65.9 7.1 C 64.2 5.7 68.2 5.8 65.9 7.1 M 70.9 6.7 C 70.8 6.7 70.8 6.7 70.9 6.7 C 70.9 6.7 70.9 6.7 70.9 6.7 Z M 64.2 3.7 C 64.2 3.7 64.2 3.7 64.2 3.7 C 64.2 3.7 64.2 3.7 64.2 3.7 Z M 63.5 3.8 C 63.5 3.8 63.5 3.8 63.5 3.8 C 63.5 3.8 63.5 3.8 63.5 3.8 Z M 63.8 7.3 C 63.9 7.3 63.9 7.3 63.8 7.3 C 63.8 7.3 63.8 7.3 63.8 7.3 Z M 85.3 3.0 C 83.6 2.9 86.6 2.8 85.3 3.0 C 85.3 3.0 85.3 3.0 85.3 3.0 Z M 77.9 7.4 C 75.1 6.2 79.8 6.3 77.9 7.4 C 77.9 7.4 77.9 7.4 77.9 7.4 Z M 74.7 5.5 C 74.7 5.4 74.7 5.4 74.7 5.5 C 74.7 5.5 74.7 5.5 74.7 5.5 Z M 67.0 8.1 C 67.0 8.0 67.0 8.0 67.0 8.1 C 67.0 8.1 67.0 8.1 67.0 8.1 Z M 84.4 2.8 C 84.4 2.8 84.4 2.8 84.4 2.8 C 84.4 2.8 84.4 2.8 84.4 2.8 Z M 59.1 6.5 C 59.1 6.4 59.1 6.4 59.1 6.5 C 59.1 6.5 59.1 6.5 59.1 6.5 Z M 68.7 3.5 C 68.1 4.1 68.6 3.0 68.7 3.5 C 68.7 3.5 68.7 3.5 68.7 3.5 Z M 66.2 3.5 C 66.1 3.5 66.1 3.5 66.2 3.5 C 66.2 3.5 66.2 3.5 66.2 3.5 Z M 55.2 7.9 C 55.1 7.9 55.1 7.9 55.2 7.9 C 55.2 7.9 55.2 7.9 55.2 7.9 Z M 59.8 2.1 C 59.8 2.1 59.8 2.1 59.8 2.1 C 59.8 2.1 59.8 2.1 59.8 2.1 Z M 57.7 3.8 C 57.8 3.8 57.8 3.8 57.7 3.8 C 57.7 3.8 57.7 3.8 57.7 3.8 Z M 64.3 7.0 C 61.8 7.2 64.9 6.3 64.3 7.0 C 64.3 7.0 64.3 7.0 64.3 7.0 Z M 51.6 4.3 C 51.5 4.2 51.5 4.2 51.6 4.3 C 51.6 4.3 51.6 4.3 51.6 4.3 Z M 50.3 6.3 C 50.2 6.2 50.2 6.2 50.3 6.3 C 50.3 6.3 50.3 6.3 50.3 6.3 Z M 49.7 7.4 C 49.6 7.3 49.6 7.3 49.7 7.4 C 49.7 7.4 49.7 7.4 49.7 7.4 Z M 80.1 4.5 C 80.1 4.5 80.1 4.5 80.1 4.5 C 80.1 4.5 80.1 4.5 80.1 4.5 Z M 81.1 7.8 C 81.1 7.8 81.1 7.8 81.1 7.8 C 81.1 7.8 81.1 7.8 81.1 7.8 Z M 77.7 7.9 C 77.7 7.9 77.7 7.9 77.7 7.9 C 77.7 7.9 77.7 7.9 77.7 7.9 Z M 80.7 2.5 C 80.7 2.5 80.7 2.5 80.7 2.5 C 80.7 2.5 80.7 2.5 80.7 2.5 Z M 68.0 5.3 C 68.1 5.3 68.1 5.3 68.0 5.3 C 68.0 5.3 68.0 5.3 68.0 5.3 Z M 66.8 3.9 C 66.9 4.0 66.9 4.0 66.8 3.9 C 66.8 3.9 66.8 3.9 66.8 3.9 Z M 69.7 2.2 C 69.8 2.2 69.8 2.2 69.7 2.2 C 69.7 2.2 69.7 2.2 69.7 2.2 Z M 65.9 2.8 C 65.9 2.8 65.9 2.8 65.9 2.8 C 65.9 2.8 65.9 2.8 65.9 2.8 Z M 89.2 3.1 C 89.2 3.1 89.2 3.1 89.2 3.1 C 89.2 3.1 89.2 3.1 89.2 3.1 Z M 89.4 5.6 C 89.5 5.5 89.5 5.5 89.4 5.6 C 89.4 5.6 89.4 5.6 89.4 5.6 Z M 67.6 7.1 C 67.1 7.6 66.5 6.4 67.6 7.1 M 72.5 6.8 C 72.5 6.7 72.5 6.7 72.5 6.8 C 72.5 6.8 72.5 6.8 72.5 6.8 Z M 59.5 7.0 C 58.9 6.0 61.8 7.5 59.5 7.0 C 59.5 7.0 59.5 7.0 59.5 7.0 Z M 62.1 2.8 C 62.0 2.8 62.0 2.8 62.1 2.8 C 62.1 2.8 62.1 2.8 62.1 2.8 Z M 60.8 3.2 C 60.7 3.1 60.7 3.1 60.8 3.2 C 60.8 3.2 60.8 3.2 60.8 3.2 Z M 53.8 5.9 C 53.7 5.8 53.7 5.8 53.8 5.9 M 73.1 7.7 C 72.3 7.2 72.5 7.3 73.1 7.7 M 57.9 7.0 C 58.0 6.9 58.0 6.9 57.9 7.0 C 57.9 7.0 57.9 7.0 57.9 7.0 Z M 52.3 6.5 C 52.3 6.5 52.3 6.5 52.3 6.5 C 52.3 6.5 52.3 6.5 52.3 6.5 Z M 76.5 7.0 C 76.4 5.8 77.0 6.1 76.5 7.0 M 86.1 6.6 C 86.1 6.5 86.1 6.5 86.1 6.6 C 86.1 6.6 86.1 6.6 86.1 6.6 Z M 44.3 6.4 C 50.1 8.0 48.7 5.3 48.9 4.8 C 49.7 4.1 48.9 3.6 47.8 3.1 C 46.6 1.4 46.0 4.8 45.1 3.2 C 43.6 0.9 43.4 5.1 42.7 2.7 C 42.9 2.1 40.7 2.6 40.9 2.8 C 39.8 1.6 38.1 3.7 38.1 3.9 C 37.4 3.6 37.3 1.4 34.9 3.0 C 33.2 3.6 32.4 1.5 32.9 2.9 C 31.5 1.3 31.9 3.4 30.6 2.9 C 29.7 2.0 30.6 4.3 28.9 2.5 C 28.2 3.9 29.7 1.6 25.2 2.6 C 27.4 2.7 23.2 3.7 24.0 2.8 C 25.5 1.8 22.3 3.1 19.9 2.5 C 19.2 3.1 16.7 4.6 16.9 3.2 C 14.2 2.1 14.9 4.7 13.5 3.9 C 12.5 3.6 12.7 4.9 12.2 5.0 C 11.0 4.5 10.6 5.3 8.2 7.1 C 5.7 9.1 6.2 9.9 6.9 10.1 C 7.7 10.4 8.7 10.4 8.2 11.3 C 8.4 11.8 12.6 11.8 10.1 11.0 C 10.8 11.2 12.2 6.8 12.3 10.0 C 12.8 8.3 12.3 10.9 14.4 8.5 C 10.0 8.6 18.4 6.1 15.2 8.4 C 16.0 8.6 17.4 8.1 16.2 8.0 C 15.3 6.5 19.3 8.1 17.1 6.4 C 19.9 6.4 19.1 4.8 19.9 6.1 C 20.6 8.4 19.8 5.6 21.3 6.2 C 24.9 6.2 22.1 8.8 24.3 7.1 C 27.7 8.2 25.0 6.1 26.2 5.8 C 26.6 4.3 29.8 7.0 27.1 7.2 C 28.5 6.4 27.4 8.0 28.9 7.0 C 27.8 5.6 31.0 8.5 30.5 7.4 C 32.0 7.0 31.2 6.1 31.7 6.1 C 33.8 6.1 33.1 7.5 33.5 6.4 C 34.0 5.9 35.0 7.7 35.3 7.3 C 33.1 7.2 37.1 5.8 37.3 6.5 C 36.0 6.6 38.0 8.4 38.9 7.3 C 37.8 4.2 40.7 8.1 41.7 7.0 C 40.8 5.3 46.5 6.8 44.3 7.6 C 44.5 7.4 44.3 6.4 44.3 6.4 M 35.9 7.0 C 34.1 6.9 37.9 6.7 35.9 7.0 M 36.0 7.5 C 35.2 6.9 37.7 7.9 35.9 7.7 C 35.9 7.6 36.1 7.5 36.0 7.5 M 28.6 7.5 C 28.8 7.0 29.6 7.8 28.6 7.5 M 27.2 6.5 C 26.0 6.0 28.8 6.4 27.2 6.5 M 12.4 9.2 C 12.1 6.2 14.5 9.5 12.4 9.2 M 21.7 7.3 C 23.7 7.0 21.0 8.4 21.7 7.3 M 22.3 6.7 C 23.2 6.3 22.5 7.3 22.3 6.7 M 14.8 7.9 C 14.6 7.9 14.6 7.9 14.8 7.9 C 14.8 7.9 14.8 7.9 14.8 7.9 Z M 11.2 10.0 C 11.2 10.1 11.2 10.1 11.2 10.0 C 11.2 10.0 11.2 10.0 11.2 10.0 Z M 18.7 6.6 C 20.2 7.1 16.5 7.0 18.7 6.6 C 18.7 6.6 18.7 6.6 18.7 6.6 Z M 10.7 5.5 C 10.7 5.5 10.7 5.5 10.7 5.5 C 10.7 5.5 10.7 5.5 10.7 5.5 Z M 37.3 5.8 C 37.4 5.8 37.4 5.8 37.3 5.8 C 37.3 5.8 37.3 5.8 37.3 5.8 Z M 42.9 6.8 C 42.8 6.5 43.9 7.1 42.9 6.8 C 42.9 6.8 42.9 6.8 42.9 6.8 Z M 47.3 3.9 C 47.4 3.8 47.4 3.8 47.3 3.9 C 47.3 3.9 47.3 3.9 47.3 3.9 Z M 39.2 4.5 C 39.3 4.4 39.3 4.4 39.2 4.5 C 39.2 4.5 39.2 4.5 39.2 4.5 Z M 38.4 6.4 C 39.3 7.8 36.3 6.0 38.4 6.4 C 38.4 6.4 38.4 6.4 38.4 6.4 Z M 20.5 3.0 C 20.5 3.6 19.2 2.8 20.5 3.0 C 20.5 3.0 20.5 3.0 20.5 3.0 Z M 27.0 5.9 C 26.8 6.2 26.2 5.7 27.0 5.9 C 27.0 5.9 27.0 5.9 27.0 5.9 Z M 30.0 7.8 C 29.8 8.1 29.2 7.7 30.0 7.8 C 30.0 7.8 30.0 7.8 30.0 7.8 Z M 42.8 7.2 C 42.6 7.3 42.6 7.3 42.8 7.2 C 42.8 7.2 42.8 7.2 42.8 7.2 Z M 40.8 6.1 C 42.1 7.4 38.7 5.4 40.8 6.1 C 40.8 6.1 40.8 6.1 40.8 6.1 Z M 43.1 5.7 C 42.4 5.2 44.9 6.0 43.1 5.7 M 41.8 3.7 C 40.1 4.3 43.3 1.3 41.8 3.7 C 41.8 3.7 41.8 3.7 41.8 3.7 Z M 33.3 3.2 C 33.2 3.1 33.2 3.1 33.3 3.2 C 33.3 3.2 33.3 3.2 33.3 3.2 Z M 34.2 7.1 C 32.7 7.0 35.1 6.7 34.2 7.1 C 34.2 7.1 34.2 7.1 34.2 7.1 Z M 47.0 7.4 C 45.5 7.3 47.9 7.0 47.0 7.4 C 47.0 7.4 47.0 7.4 47.0 7.4 Z M 28.4 4.5 C 25.9 4.7 29.8 3.8 28.4 4.5 C 28.4 4.5 28.4 4.5 28.4 4.5 Z M 19.5 6.0 C 19.4 6.0 19.4 6.0 19.5 6.0 C 19.5 6.0 19.5 6.0 19.5 6.0 Z M 18.0 6.7 C 18.0 6.7 18.0 6.7 18.0 6.7 C 18.0 6.7 18.0 6.7 18.0 6.7 Z M 11.6 7.8 C 11.5 7.8 11.5 7.8 11.6 7.8 C 11.6 7.8 11.6 7.8 11.6 7.8 Z M 16.8 7.6 C 16.8 7.6 16.8 7.6 16.8 7.6 C 16.8 7.6 16.8 7.6 16.8 7.6 Z M 13.0 8.8 C 12.9 8.8 12.9 8.8 13.0 8.8 C 13.0 8.8 13.0 8.8 13.0 8.8 Z M 14.1 9.6 C 14.0 9.5 14.0 9.5 14.1 9.6 C 14.1 9.6 14.1 9.6 14.1 9.6 Z M 22.8 2.2 C 22.7 2.2 22.7 2.2 22.8 2.2 C 22.8 2.2 22.8 2.2 22.8 2.2 Z M 40.2 7.6 C 40.0 7.5 40.0 7.5 40.2 7.6 C 40.2 7.6 40.2 7.6 40.2 7.6 Z M 13.0 8.2 C 13.0 8.2 13.0 8.2 13.0 8.2 C 13.0 8.2 13.0 8.2 13.0 8.2 Z M 23.6 5.3 C 23.5 4.2 24.6 6.8 23.3 5.3 C 23.4 5.3 23.7 5.5 23.6 5.3 M 22.0 3.4 C 22.1 3.4 22.1 3.4 22.0 3.4 C 22.0 3.4 22.0 3.4 22.0 3.4 Z M 27.3 2.7 C 27.4 2.7 27.4 2.7 27.3 2.7 C 27.3 2.7 27.3 2.7 27.3 2.7 Z M 17.6 7.6 C 17.9 8.2 16.4 7.4 17.7 7.6 M 10.5 6.2 C 11.0 6.5 9.0 6.6 10.6 6.0 M 48.7 6.9 C 48.9 6.4 49.7 7.2 48.7 6.9 M 28.5 2.1 C 28.7 1.6 29.5 2.4 28.5 2.1 M 26.0 3.6 C 26.2 4.2 24.7 3.1 26.2 3.5 M 14.0 4.4 C 13.9 4.4 13.9 4.4 14.0 4.4 C 14.0 4.4 14.0 4.4 14.0 4.4 Z M 31.9 6.9 C 31.9 6.9 31.9 6.9 31.9 6.9 C 31.9 6.9 31.9 6.9 31.9 6.9 Z M 25.5 5.6 C 26.4 6.5 24.4 5.0 25.5 5.6 M 33.8 5.4 C 35.1 6.5 31.8 5.1 33.8 5.4 M 8.0 7.9 C 10.0 7.7 6.7 8.2 8.0 7.9 M 15.6 6.9 C 17.3 7.7 14.5 6.5 15.6 6.9 M 30.6 6.4 C 30.7 7.1 29.2 6.0 30.6 6.4 M 45.3 7.0 C 46.7 7.2 43.5 7.6 45.3 7.0 M 17.7 3.4 C 17.7 3.3 17.7 3.3 17.7 3.4 C 17.7 3.4 17.7 3.4 17.7 3.4 Z M 40.9 2.1 C 40.8 2.0 40.8 2.0 40.9 2.1 C 40.9 2.1 40.9 2.1 40.9 2.1 Z M 10.0 12.0 C 9.9 12.0 9.9 12.0 10.0 12.0 C 10.0 12.0 10.0 12.0 10.0 12.0 Z M 16.3 6.1 C 16.2 6.0 16.2 6.0 16.3 6.1 C 16.3 6.1 16.3 6.1 16.3 6.1 Z M 11.6 10.5 C 11.5 10.5 11.5 10.5 11.6 10.5 C 11.6 10.5 11.6 10.5 11.6 10.5 Z M 20.6 4.6 C 20.6 4.6 20.6 4.6 20.6 4.6 C 20.6 4.6 20.6 4.6 20.6 4.6 Z M 21.5 7.9 C 21.5 7.9 21.5 7.9 21.5 7.9 C 21.5 7.9 21.5 7.9 21.5 7.9 Z M 26.3 6.5 C 26.3 6.5 26.3 6.5 26.3 6.5 C 26.3 6.5 26.3 6.5 26.3 6.5 Z M 19.4 7.7 C 16.9 8.0 20.6 6.5 19.4 7.7 C 19.4 7.7 19.4 7.7 19.4 7.7 Z M 24.3 4.3 C 24.3 4.3 24.3 4.3 24.3 4.3 C 24.3 4.3 24.3 4.3 24.3 4.3 Z M 24.7 6.7 C 22.9 7.6 23.7 5.1 24.7 6.7 M 32.8 7.5 C 32.2 8.0 32.5 6.7 32.8 7.5 M 36.0 3.1 C 36.0 3.1 36.0 3.1 36.0 3.1 C 36.0 3.1 36.0 3.1 36.0 3.1 Z M 35.2 3.5 C 35.1 3.4 35.1 3.4 35.2 3.5 C 35.2 3.5 35.2 3.5 35.2 3.5 Z M 34.8 7.6 C 34.7 7.6 34.7 7.6 34.8 7.6 C 34.8 7.6 34.8 7.6 34.8 7.6 Z M 35.0 2.2 C 35.0 2.2 35.0 2.2 35.0 2.2 C 35.0 2.2 35.0 2.2 35.0 2.2 Z M 22.6 7.8 C 22.6 7.8 22.6 7.8 22.6 7.8 C 22.6 7.8 22.6 7.8 22.6 7.8 Z M 11.2 11.6 C 11.1 11.6 11.1 11.6 11.2 11.6 C 11.2 11.6 11.2 11.6 11.2 11.6 Z M 44.9 3.6 C 44.8 3.5 44.8 3.5 44.9 3.6 C 44.9 3.6 44.9 3.6 44.9 3.6 Z M 21.0 6.5 C 21.0 6.5 21.0 6.5 21.0 6.5 C 21.0 6.5 21.0 6.5 21.0 6.5 Z M 38.1 3.3 C 38.1 3.3 38.1 3.3 38.1 3.3 C 38.1 3.3 38.1 3.3 38.1 3.3 Z M 22.0 6.8 C 22.0 6.8 22.0 6.8 22.0 6.8 C 22.0 6.8 22.0 6.8 22.0 6.8 Z M 18.2 3.0 C 18.2 3.0 18.2 3.0 18.2 3.0 C 18.2 3.0 18.2 3.0 18.2 3.0 Z M 14.4 3.1 C 14.4 3.1 14.4 3.1 14.4 3.1 C 14.4 3.1 14.4 3.1 14.4 3.1 Z M 18.7 5.3 C 18.6 5.3 18.6 5.3 18.7 5.3 C 18.7 5.3 18.7 5.3 18.7 5.3 Z M 39.2 4.7 C 45.0 5.9 34.5 5.3 39.2 4.7 M 17.7 5.1 C 21.8 4.8 14.6 6.9 17.7 5.1 C 17.3 5.6 17.6 5.2 17.7 5.1 " fill="#F38F18"></path></g></svg>