<?xml version="1.0" encoding="UTF-8" standalone="no"?><svg xmlns="http://www.w3.org/2000/svg" xmlns:xlink="http://www.w3.org/1999/xlink" clip-rule="evenodd" stroke-miterlimit="4.00" viewBox="0 0 36 37"><desc>SVG generated by Keynote</desc><defs></defs><g transform="matrix(1.00, 0.00, -0.00, -1.00, 0.0, 37.0)"><path d="M 28.1 28.5 C 33.6 23.0 33.6 14.1 28.1 8.6 C 22.6 3.1 13.7 3.1 8.2 8.6 C 2.6 14.1 2.6 23.0 8.2 28.5 C 13.7 34.0 22.6 34.0 28.1 28.5 Z M 28.1 28.5 " fill="#6FBF40"></path><path d="M 24.1 4.1 C 29.6 9.6 29.6 18.6 24.1 24.1 C 18.6 29.6 9.6 29.6 4.1 24.1 C -1.4 18.6 -1.4 9.6 4.1 4.1 C 9.6 -1.4 18.6 -1.4 24.1 4.1 Z M 24.1 4.1 " fill="none" stroke="#0B5C18" stroke-width="5.00" transform="matrix(1.00, 0.00, 0.00, -1.00, 4.0, 32.6)"></path></g></svg>