<?xml version="1.0" encoding="UTF-8" standalone="no"?><svg xmlns="http://www.w3.org/2000/svg" xmlns:xlink="http://www.w3.org/1999/xlink" clip-rule="evenodd" stroke-miterlimit="4.00" viewBox="0 0 87 174"><desc>SVG generated by Keynote</desc><defs></defs><g transform="matrix(1.00, 0.00, -0.00, -1.00, 0.0, 174.0)"><path d="M 6.4 30.4 C 6.3 30.2 6.5 29.4 6.4 29.2 M 6.4 30.4 C 7.5 29.7 7.6 28.4 7.8 26.6 C 7.9 24.7 6.8 26.7 6.4 26.5 C 5.9 24.0 6.7 24.0 7.9 24.3 C 7.1 23.4 8.5 20.5 7.0 21.1 C 7.0 25.2 6.7 18.3 5.8 21.7 C 5.6 22.0 5.2 21.1 5.2 20.7 C 4.6 21.8 3.9 19.9 3.4 21.7 C 2.5 21.9 2.9 21.6 2.2 22.8 C 2.1 23.2 2.4 23.0 2.6 23.0 C 3.7 23.2 2.0 24.4 2.7 25.3 C 1.2 26.2 2.9 27.0 3.5 26.3 C 3.4 27.1 1.9 28.1 2.9 29.0 C 2.2 29.5 2.7 31.8 3.6 30.4 C 4.1 29.4 4.6 30.5 4.9 30.7 C 5.2 30.3 4.7 28.9 5.0 28.7 C 5.2 29.1 5.8 30.9 5.7 29.0 C 6.2 29.6 6.5 28.7 6.4 30.4 C 6.4 30.4 6.4 30.4 6.4 30.4 Z M 7.3 23.6 C 7.6 23.6 7.3 24.3 7.3 23.6 C 7.3 23.6 7.3 23.6 7.3 23.6 Z M 2.2 28.3 C 2.6 28.3 2.2 28.9 2.2 28.3 C 2.2 28.3 2.2 28.3 2.2 28.3 Z M 2.6 23.3 C 3.0 23.3 2.6 24.0 2.6 23.3 C 2.6 23.3 2.6 23.3 2.6 23.3 Z M 7.0 25.4 C 6.7 26.5 6.5 24.5 6.8 24.4 C 6.8 24.6 7.3 25.2 7.0 25.4 C 7.0 25.4 7.0 25.4 7.0 25.4 Z M 4.8 25.6 C 5.0 25.6 5.0 26.1 4.6 26.0 C 4.5 25.8 4.7 25.5 4.8 25.6 C 4.8 25.6 4.8 25.6 4.8 25.6 Z M 6.4 20.3 C 6.5 20.4 6.6 20.8 6.2 20.7 C 6.1 20.5 6.2 20.2 6.4 20.3 C 6.4 20.3 6.4 20.3 6.4 20.3 Z M 6.0 26.6 C 5.9 26.9 5.6 27.0 5.5 26.7 C 5.7 26.5 5.8 25.8 6.0 26.6 C 6.0 26.6 6.0 26.6 6.0 26.6 Z M 7.3 28.3 C 7.1 29.2 6.5 27.4 6.7 27.4 C 7.0 27.1 7.6 27.8 7.3 28.3 C 7.3 28.3 7.3 28.3 7.3 28.3 Z M 5.5 27.1 C 5.3 27.9 5.2 26.8 5.5 27.1 C 5.5 27.1 5.5 27.1 5.5 27.1 Z M 3.6 21.0 C 3.4 21.7 3.3 20.7 3.6 21.0 C 3.6 21.0 3.6 21.0 3.6 21.0 Z M 2.4 24.9 C 2.2 25.6 2.1 24.6 2.4 24.9 C 2.4 24.9 2.4 24.9 2.4 24.9 Z M 6.3 23.4 C 6.3 22.2 7.2 23.3 6.3 23.4 C 6.3 23.4 6.3 23.4 6.3 23.4 Z M 7.4 30.4 C 7.4 29.1 8.3 30.2 7.4 30.4 C 7.4 30.4 7.4 30.4 7.4 30.4 Z M 7.1 18.5 C 7.2 19.5 9.1 15.9 7.3 17.0 C 6.0 17.2 7.0 14.5 7.8 15.5 C 8.2 14.8 8.3 14.9 7.9 14.2 C 8.8 14.5 10.1 13.3 10.0 12.5 C 9.7 11.7 9.2 13.4 9.2 12.1 C 10.4 10.0 8.3 11.7 8.2 10.3 C 8.3 10.2 8.7 10.5 8.6 10.1 C 8.0 9.4 6.4 10.3 6.3 9.3 C 6.2 9.7 4.1 11.0 5.3 10.6 C 6.2 10.9 3.1 12.3 4.6 12.8 C 3.6 13.1 4.2 14.2 3.2 14.6 C 2.9 15.1 3.6 15.3 3.8 15.3 C 4.5 15.4 2.1 15.6 3.2 16.7 C 2.8 16.7 2.5 19.3 3.4 17.5 C 3.2 18.0 2.7 20.8 4.1 19.4 C 4.8 17.5 5.3 21.3 5.5 19.2 C 5.7 17.7 5.6 17.4 6.1 18.6 C 6.0 18.9 6.1 20.6 6.7 19.2 C 6.6 18.9 6.8 18.2 7.1 18.5 C 7.1 18.5 7.1 18.5 7.1 18.5 Z M 5.1 18.6 C 5.2 17.6 5.7 18.5 5.1 18.6 C 5.1 18.6 5.1 18.6 5.1 18.6 Z M 3.0 14.4 C 3.3 13.3 3.5 14.5 3.0 14.4 C 3.0 14.4 3.0 14.4 3.0 14.4 Z M 8.0 16.1 C 7.7 15.6 9.0 16.0 8.0 16.1 C 8.0 16.1 8.0 16.1 8.0 16.1 Z M 3.6 16.4 C 3.6 16.3 3.7 16.6 3.8 16.8 C 3.7 16.7 3.6 16.5 3.6 16.4 C 3.6 16.4 3.6 16.4 3.6 16.4 Z M 8.4 14.9 C 8.3 13.7 9.5 15.2 8.4 14.9 C 8.4 14.9 8.4 14.9 8.4 14.9 Z M 8.4 12.2 C 7.4 11.3 9.4 11.3 8.4 12.2 C 8.4 12.2 8.4 12.2 8.4 12.2 Z M 4.9 12.4 C 5.0 12.7 4.6 12.5 4.9 12.4 C 4.9 12.4 4.9 12.4 4.9 12.4 Z M 2.9 18.8 C 3.2 19.1 2.7 19.0 2.9 18.8 C 2.9 18.8 2.9 18.8 2.9 18.8 Z M 5.9 10.8 C 6.3 11.2 5.4 11.1 5.9 10.8 C 5.9 10.8 5.9 10.8 5.9 10.8 Z M 7.5 15.8 C 8.2 17.1 5.6 16.5 7.5 15.8 C 7.5 15.8 7.5 15.8 7.5 15.8 Z M 7.1 17.7 C 7.2 18.5 6.5 17.4 6.7 17.1 C 6.8 17.2 7.1 17.5 7.1 17.7 C 7.1 17.7 7.1 17.7 7.1 17.7 Z M 7.8 14.7 C 8.0 15.6 7.3 15.2 7.8 14.7 C 7.8 14.7 7.8 14.7 7.8 14.7 Z M 7.7 16.6 C 7.5 16.9 7.7 16.3 7.7 16.6 C 7.7 16.6 7.7 16.6 7.7 16.6 Z M 9.4 13.9 C 9.2 14.1 9.5 13.6 9.4 13.9 C 9.4 13.9 9.4 13.9 9.4 13.9 Z M 7.6 18.7 C 7.4 19.0 7.4 18.3 7.6 18.7 C 7.6 18.7 7.6 18.7 7.6 18.7 Z M 8.7 13.8 C 8.3 13.5 6.8 13.8 8.6 12.7 C 9.1 12.6 9.3 13.6 8.7 13.8 C 8.7 13.8 8.7 13.8 8.7 13.8 Z M 6.4 34.2 C 7.9 28.8 5.3 30.1 4.8 29.9 C 4.0 29.1 3.6 29.8 3.1 30.9 C 1.4 32.0 4.8 32.6 3.1 33.4 C 0.8 34.9 5.1 35.1 2.7 35.7 C 2.1 35.5 2.6 37.6 2.7 37.4 C 1.6 38.4 3.6 39.9 3.8 39.9 C 3.5 40.7 1.4 40.7 3.0 42.9 C 3.6 44.6 1.4 45.3 2.9 44.9 C 1.3 46.1 3.4 45.7 2.8 46.9 C 1.9 47.8 4.2 47.0 2.5 48.5 C 3.9 49.2 1.6 47.8 2.6 52.0 C 2.7 50.0 3.7 53.9 2.7 53.1 C 1.7 51.7 3.1 55.1 2.5 57.0 C 3.0 57.5 4.3 59.7 2.9 59.4 C 1.3 61.3 3.9 61.4 2.6 62.2 C 2.0 62.8 3.2 63.1 3.1 63.5 C 2.1 64.2 2.8 64.8 2.5 67.3 C 2.0 72.6 5.0 68.1 5.3 70.1 C 5.8 70.4 9.0 67.5 6.6 68.7 C 7.3 68.3 4.8 63.9 7.4 66.1 C 6.3 64.4 8.5 66.4 7.2 63.1 C 5.4 67.7 6.5 57.9 7.4 62.3 C 7.9 61.6 7.8 59.8 7.4 61.1 C 5.7 61.6 8.1 57.9 6.1 59.8 C 6.7 57.0 4.8 57.7 6.1 56.9 C 8.3 56.2 5.5 57.1 6.2 55.6 C 6.2 52.3 8.7 54.9 7.1 52.9 C 8.2 49.6 6.1 52.2 5.8 51.0 C 4.3 50.7 7.0 47.7 7.2 50.2 C 6.4 48.9 7.9 50.0 6.9 48.5 C 5.5 49.6 8.5 46.6 7.3 47.0 C 7.0 45.7 6.1 46.4 6.1 46.0 C 6.1 44.0 7.5 44.6 6.4 44.2 C 5.8 43.8 7.7 42.8 7.2 42.6 C 7.1 44.6 5.7 40.9 6.5 40.7 C 6.6 41.9 8.4 40.1 7.2 39.3 C 4.1 40.3 8.0 37.5 6.9 36.6 C 5.2 37.5 6.7 32.2 7.5 34.2 C 7.4 34.0 6.4 34.2 6.4 34.2 M 7.0 42.0 C 6.8 43.7 6.6 40.2 7.0 42.0 M 7.4 41.9 C 6.8 42.6 7.9 40.3 7.6 42.0 C 7.6 42.0 7.5 41.8 7.4 41.9 M 7.5 48.8 C 7.0 48.6 7.8 47.9 7.5 48.8 M 6.4 50.1 C 6.0 51.2 6.3 48.7 6.4 50.1 M 6.8 65.4 C 4.2 63.9 8.2 63.8 6.8 65.4 M 7.3 55.3 C 6.9 53.4 8.4 56.0 7.3 55.3 M 6.6 54.8 C 6.2 53.9 7.2 54.6 6.6 54.8 M 6.8 62.5 C 6.7 62.6 6.7 62.6 6.8 62.5 C 6.8 62.5 6.8 62.5 6.8 62.5 Z M 6.7 67.0 C 6.7 67.0 6.7 67.0 6.7 67.0 C 6.7 67.0 6.7 67.0 6.7 67.0 Z M 6.5 58.1 C 7.1 56.7 6.7 60.4 6.5 58.1 C 6.5 58.1 6.5 58.1 6.5 58.1 Z M 2.8 64.9 C 2.7 64.8 2.7 64.8 2.8 64.9 C 2.8 64.9 2.8 64.9 2.8 64.9 Z M 5.8 40.7 C 5.8 40.6 5.8 40.6 5.8 40.7 C 5.8 40.7 5.8 40.7 5.8 40.7 Z M 6.8 35.5 C 6.4 35.6 7.0 34.6 6.8 35.5 C 6.8 35.5 6.8 35.5 6.8 35.5 Z M 3.8 31.4 C 3.8 31.3 3.8 31.3 3.8 31.4 C 3.8 31.4 3.8 31.4 3.8 31.4 Z M 4.4 38.9 C 4.4 38.9 4.4 38.9 4.4 38.9 C 4.4 38.9 4.4 38.9 4.4 38.9 Z M 6.4 39.7 C 7.8 38.9 6.0 41.6 6.4 39.7 C 6.4 39.7 6.4 39.7 6.4 39.7 Z M 2.9 56.4 C 3.6 56.4 2.7 57.6 2.9 56.4 C 2.9 56.4 2.9 56.4 2.9 56.4 Z M 5.9 50.3 C 6.2 50.6 5.7 51.1 5.9 50.3 C 5.9 50.3 5.9 50.3 5.9 50.3 Z M 7.8 47.5 C 8.1 47.7 7.6 48.3 7.8 47.5 C 7.8 47.5 7.8 47.5 7.8 47.5 Z M 7.2 35.6 C 7.2 35.7 7.2 35.7 7.2 35.6 C 7.2 35.6 7.2 35.6 7.2 35.6 Z M 6.1 37.5 C 7.4 36.2 5.4 39.4 6.1 37.5 C 6.1 37.5 6.1 37.5 6.1 37.5 Z M 5.7 35.3 C 5.2 36.0 5.9 33.6 5.7 35.3 M 3.7 36.5 C 4.2 38.1 1.3 35.1 3.7 36.5 C 3.7 36.5 3.7 36.5 3.7 36.5 Z M 3.1 44.5 C 3.1 44.5 3.1 44.5 3.1 44.5 C 3.1 44.5 3.1 44.5 3.1 44.5 Z M 7.0 43.6 C 7.0 45.0 6.7 42.7 7.0 43.6 C 7.0 43.6 7.0 43.6 7.0 43.6 Z M 7.3 31.7 C 7.3 33.1 7.0 30.8 7.3 31.7 C 7.3 31.7 7.3 31.7 7.3 31.7 Z M 4.4 49.1 C 4.7 51.3 3.7 47.7 4.4 49.1 C 4.4 49.1 4.4 49.1 4.4 49.1 Z M 6.0 57.3 C 5.9 57.4 5.9 57.4 6.0 57.3 C 6.0 57.3 6.0 57.3 6.0 57.3 Z M 6.5 58.9 C 6.5 58.9 6.5 58.9 6.5 58.9 C 6.5 58.9 6.5 58.9 6.5 58.9 Z M 5.2 65.3 C 5.1 65.4 5.1 65.4 5.2 65.3 C 5.2 65.3 5.2 65.3 5.2 65.3 Z M 7.2 60.3 C 7.1 60.3 7.1 60.3 7.2 60.3 C 7.2 60.3 7.2 60.3 7.2 60.3 Z M 6.8 64.7 C 6.8 64.8 6.8 64.8 6.8 64.7 C 6.8 64.7 6.8 64.7 6.8 64.7 Z M 8.0 64.1 C 7.9 64.2 7.9 64.2 8.0 64.1 C 8.0 64.1 8.0 64.1 8.0 64.1 Z M 2.2 54.2 C 2.1 54.3 2.1 54.3 2.2 54.2 C 2.2 54.2 2.2 54.2 2.2 54.2 Z M 7.6 38.0 C 7.5 38.2 7.5 38.2 7.6 38.0 C 7.6 38.0 7.6 38.0 7.6 38.0 Z M 6.3 64.3 C 6.3 64.4 6.3 64.4 6.3 64.3 C 6.3 64.3 6.3 64.3 6.3 64.3 Z M 5.3 53.5 C 4.1 53.6 6.7 52.6 5.3 53.8 C 5.2 53.7 5.4 53.4 5.3 53.5 M 3.4 55.0 C 3.3 54.9 3.3 54.9 3.4 55.0 C 3.4 55.0 3.4 55.0 3.4 55.0 Z M 2.7 50.0 C 2.6 50.0 2.6 50.0 2.7 50.0 C 2.7 50.0 2.7 50.0 2.7 50.0 Z M 7.4 59.5 C 8.0 59.3 6.9 60.7 7.3 59.3 M 3.2 65.3 C 3.8 65.1 2.7 66.5 3.1 65.1 M 6.9 30.1 C 6.4 29.9 7.2 29.2 6.9 30.1 M 2.1 49.0 C 1.6 48.8 2.4 48.0 2.1 49.0 M 3.5 51.2 C 4.2 51.0 3.0 52.5 3.5 51.1 M 3.2 61.9 C 3.2 62.0 3.2 62.0 3.2 61.9 C 3.2 61.9 3.2 61.9 3.2 61.9 Z M 6.9 45.7 C 6.9 45.8 6.9 45.8 6.9 45.7 C 6.9 45.7 6.9 45.7 6.9 45.7 Z M 5.6 51.7 C 6.4 50.9 5.0 52.8 5.6 51.7 M 5.4 44.0 C 6.5 42.8 5.0 45.9 5.4 44.0 M 2.9 67.9 C 4.2 66.5 2.2 68.8 2.9 67.9 M 6.2 61.3 C 7.5 59.9 5.5 62.2 6.2 61.3 M 6.3 46.9 C 7.0 46.8 5.9 48.3 6.3 46.9 M 7.0 33.2 C 7.1 32.0 7.5 34.9 7.0 33.2 M 3.2 58.7 C 3.1 58.8 3.1 58.8 3.2 58.7 C 3.2 58.7 3.2 58.7 3.2 58.7 Z M 2.0 37.4 C 2.0 37.4 2.0 37.4 2.0 37.4 C 2.0 37.4 2.0 37.4 2.0 37.4 Z M 7.2 69.6 C 7.1 69.6 7.1 69.6 7.2 69.6 C 7.2 69.6 7.2 69.6 7.2 69.6 Z M 5.6 60.5 C 5.5 60.5 5.5 60.5 5.6 60.5 C 5.6 60.5 5.6 60.5 5.6 60.5 Z M 7.3 67.0 C 7.3 67.1 7.3 67.1 7.3 67.0 C 7.3 67.0 7.3 67.0 7.3 67.0 Z M 4.6 56.3 C 4.5 56.3 4.5 56.3 4.6 56.3 C 4.6 56.3 4.6 56.3 4.6 56.3 Z M 7.9 55.5 C 7.8 55.5 7.8 55.5 7.9 55.5 C 7.9 55.5 7.9 55.5 7.9 55.5 Z M 6.5 50.9 C 6.4 51.0 6.4 51.0 6.5 50.9 C 6.5 50.9 6.5 50.9 6.5 50.9 Z M 7.6 57.5 C 7.8 60.3 6.5 56.2 7.6 57.5 C 7.6 57.5 7.6 57.5 7.6 57.5 Z M 4.3 52.9 C 4.3 52.9 4.3 52.9 4.3 52.9 C 4.3 52.9 4.3 52.9 4.3 52.9 Z M 6.6 52.5 C 7.6 54.2 5.0 53.4 6.6 52.5 M 7.4 44.9 C 7.9 45.4 6.6 45.2 7.4 44.9 M 3.1 41.9 C 3.0 41.9 3.0 41.9 3.1 41.9 C 3.1 41.9 3.1 41.9 3.1 41.9 Z M 3.4 42.7 C 3.4 42.8 3.4 42.8 3.4 42.7 C 3.4 42.7 3.4 42.7 3.4 42.7 Z M 7.6 43.1 C 7.6 43.1 7.6 43.1 7.6 43.1 C 7.6 43.1 7.6 43.1 7.6 43.1 Z M 2.2 42.8 C 2.2 42.9 2.2 42.9 2.2 42.8 C 2.2 42.8 2.2 42.8 2.2 42.8 Z M 7.8 54.4 C 7.8 54.5 7.8 54.5 7.8 54.4 C 7.8 54.4 7.8 54.4 7.8 54.4 Z M 7.8 68.3 C 7.8 68.4 7.8 68.4 7.8 68.3 C 7.8 68.3 7.8 68.3 7.8 68.3 Z M 3.5 33.6 C 3.5 33.7 3.5 33.7 3.5 33.6 C 3.5 33.6 3.5 33.6 3.5 33.6 Z M 6.5 55.9 C 6.4 55.9 6.4 55.9 6.5 55.9 C 6.5 55.9 6.5 55.9 6.5 55.9 Z M 3.3 39.9 C 3.2 40.0 3.2 40.0 3.3 39.9 C 3.3 39.9 3.3 39.9 3.3 39.9 Z M 6.7 55.0 C 6.7 55.0 6.7 55.0 6.7 55.0 C 6.7 55.0 6.7 55.0 6.7 55.0 Z M 2.9 58.3 C 2.9 58.3 2.9 58.3 2.9 58.3 C 2.9 58.3 2.9 58.3 2.9 58.3 Z M 2.2 61.2 C 2.2 61.3 2.2 61.3 2.2 61.2 C 2.2 61.2 2.2 61.2 2.2 61.2 Z M 5.2 58.0 C 5.2 58.1 5.2 58.1 5.2 58.0 C 5.2 58.0 5.2 58.0 5.2 58.0 Z M 4.7 39.0 C 5.8 33.5 5.2 43.3 4.7 39.0 M 4.9 59.0 C 5.2 55.1 6.2 62.0 4.9 59.0 C 5.3 59.4 5.0 59.0 4.9 59.0 M 7.7 70.9 C 6.5 69.3 5.3 69.3 4.1 70.0 C 3.4 70.8 5.9 70.8 3.8 70.8 C 3.4 69.0 0.7 71.6 3.4 71.6 C 3.8 73.9 1.7 71.9 2.8 73.4 C 3.0 75.9 2.2 74.6 2.4 76.5 C 3.8 77.6 1.7 77.6 3.1 78.1 C 1.6 77.2 3.5 80.2 2.8 80.3 C 1.9 78.5 2.8 87.0 3.2 82.4 C 3.9 84.3 2.7 83.9 2.5 84.6 C 3.4 85.4 1.8 87.7 2.7 88.8 C 2.9 88.6 2.9 88.0 3.2 87.8 C 3.8 87.5 3.1 89.2 3.1 89.0 C 3.4 89.7 4.4 92.8 2.8 89.5 C 2.1 89.4 3.1 92.2 2.5 92.1 C 2.4 94.9 3.9 92.8 2.8 94.0 C 2.8 96.1 2.8 97.5 3.0 97.5 C 2.8 98.7 2.0 99.0 2.8 100.1 C 1.2 102.5 5.8 101.8 2.7 102.7 C 3.5 103.5 1.4 104.1 3.4 104.0 C 2.5 103.2 1.9 108.2 3.3 106.1 C 3.7 106.6 1.3 109.8 3.2 109.4 C 4.6 110.5 6.1 110.3 7.4 107.8 C 6.3 108.1 8.6 105.2 6.7 107.0 C 6.0 109.2 6.0 103.1 6.7 104.4 C 8.9 104.7 5.3 101.5 6.9 100.2 C 6.0 101.3 5.5 96.4 7.2 97.8 C 7.4 96.9 6.6 96.7 7.5 95.7 C 7.4 98.6 5.8 94.6 6.8 94.7 C 7.4 95.2 7.9 90.8 7.0 91.3 C 4.7 92.8 7.5 90.2 6.6 89.4 C 6.1 87.0 8.5 89.8 6.8 88.0 C 7.1 87.5 7.1 84.3 7.6 86.3 C 7.4 87.1 5.1 84.4 7.0 84.1 C 8.2 87.5 7.7 80.1 7.0 81.3 C 6.0 86.6 5.8 75.7 6.9 79.8 C 8.0 77.5 7.3 80.5 6.9 77.6 C 6.2 78.0 5.6 75.7 6.9 76.3 C 8.8 75.8 4.4 75.5 6.9 73.7 C 8.1 73.4 6.1 70.1 7.4 71.4 C 7.5 71.5 7.7 71.0 7.7 70.9 M 7.5 72.0 C 7.1 71.6 8.0 71.3 7.5 72.0 M 7.1 71.5 C 7.1 71.5 7.1 71.5 7.1 71.5 C 7.1 71.5 7.1 71.5 7.1 71.5 Z M 6.8 77.2 C 6.8 77.1 6.8 77.1 6.8 77.2 C 6.8 77.2 6.8 77.2 6.8 77.2 Z M 2.0 81.6 C 2.1 81.6 2.1 81.6 2.0 81.6 C 2.0 81.6 2.0 81.6 2.0 81.6 Z M 6.7 80.9 C 6.7 80.9 6.7 80.9 6.7 80.9 C 6.7 80.9 6.7 80.9 6.7 80.9 Z M 6.5 75.2 C 6.5 75.1 6.5 75.1 6.5 75.2 C 6.5 75.2 6.5 75.2 6.5 75.2 Z M 7.4 80.6 C 6.7 80.9 7.9 79.3 7.5 80.7 C 7.4 80.7 7.4 80.5 7.4 80.6 M 7.7 85.5 C 7.6 85.5 7.6 85.5 7.7 85.5 M 2.1 96.3 C 2.0 96.3 2.0 96.3 2.1 96.3 M 7.7 97.2 C 7.6 97.3 7.6 97.3 7.7 97.2 M 6.9 90.4 C 7.0 91.9 6.6 90.8 6.9 90.4 M 7.3 101.2 C 7.8 99.3 7.7 103.2 7.3 101.2 M 7.7 103.0 C 7.7 103.2 7.7 103.2 7.7 103.0 M 7.4 94.5 C 7.4 94.4 7.4 94.4 7.4 94.5 C 7.4 94.5 7.4 94.5 7.4 94.5 Z M 7.2 89.8 C 7.6 87.8 7.9 91.7 7.2 89.8 M 7.5 77.8 C 7.8 78.9 6.6 77.8 7.5 77.8 M 7.1 75.6 C 7.0 75.6 7.0 75.6 7.1 75.6 C 7.1 75.6 7.1 75.6 7.1 75.6 Z M 7.3 98.1 C 7.3 98.1 7.3 98.1 7.3 98.1 C 7.3 98.1 7.3 98.1 7.3 98.1 Z M 7.5 100.3 C 7.5 100.2 7.5 100.2 7.5 100.3 C 7.5 100.3 7.5 100.3 7.5 100.3 Z M 2.3 103.9 C 2.2 103.9 2.2 103.9 2.3 103.9 C 2.3 103.9 2.3 103.9 2.3 103.9 Z M 4.9 77.3 C 5.3 75.8 6.6 78.8 5.3 78.5 C 4.8 78.6 5.0 77.4 4.9 77.3 M 5.6 88.3 C 3.9 88.7 8.1 86.9 5.6 88.3 M 6.6 103.3 C 4.4 104.7 8.0 101.4 6.6 103.3 M 6.9 106.2 C 6.5 107.1 6.7 100.7 7.2 105.2 C 7.6 105.6 7.2 105.9 6.9 106.2 M 6.8 85.6 C 5.8 86.0 7.2 83.2 6.8 85.6 M 3.8 94.6 C 4.5 95.3 5.0 97.2 4.0 96.4 C 2.6 96.3 3.3 93.7 3.8 94.6 M 6.5 72.4 C 8.1 73.6 5.1 72.4 6.5 72.4 M 6.3 78.1 C 6.4 78.1 6.4 78.1 6.3 78.1 C 6.3 78.1 6.3 78.1 6.3 78.1 Z M 6.6 80.4 C 6.5 80.5 6.5 80.5 6.6 80.4 M 7.9 73.3 C 7.7 73.4 7.7 73.4 7.9 73.3 M 5.5 94.6 C 5.4 94.7 5.4 94.7 5.5 94.6 M 6.5 90.0 C 5.0 92.1 6.2 88.8 6.5 90.0 M 3.5 84.6 C 2.8 85.2 3.5 83.2 3.5 84.6 M 7.1 93.6 C 5.6 95.1 5.7 91.4 7.1 93.6 M 6.7 88.9 C 6.7 89.0 6.7 89.0 6.7 88.9 C 6.7 88.9 6.7 88.9 6.7 88.9 Z M 3.7 95.2 C 3.7 95.1 3.7 95.1 3.7 95.2 C 3.7 95.2 3.7 95.2 3.7 95.2 Z M 3.8 95.8 C 3.7 95.8 3.7 95.8 3.8 95.8 C 3.8 95.8 3.8 95.8 3.8 95.8 Z M 7.3 95.5 C 7.2 95.4 7.2 95.4 7.3 95.5 C 7.3 95.5 7.3 95.5 7.3 95.5 Z M 3.0 75.5 C 2.9 77.0 2.8 74.3 3.0 75.5 C 3.0 75.5 3.0 75.5 3.0 75.5 Z M 7.4 82.4 C 6.2 85.0 6.2 80.6 7.4 82.4 C 7.4 82.4 7.4 82.4 7.4 82.4 Z M 5.4 85.3 C 5.3 85.3 5.3 85.3 5.4 85.3 C 5.4 85.3 5.4 85.3 5.4 85.3 Z M 8.0 92.6 C 7.9 92.6 7.9 92.6 8.0 92.6 C 8.0 92.6 8.0 92.6 8.0 92.6 Z M 2.8 76.3 C 2.7 76.3 2.7 76.3 2.8 76.3 C 2.8 76.3 2.8 76.3 2.8 76.3 Z M 6.5 99.9 C 6.4 99.9 6.4 99.9 6.5 99.9 C 6.5 99.9 6.5 99.9 6.5 99.9 Z M 3.5 91.0 C 4.0 91.5 3.0 91.1 3.5 91.0 C 3.5 91.0 3.5 91.0 3.5 91.0 Z M 3.4 93.3 C 3.5 93.3 3.5 93.3 3.4 93.3 C 3.4 93.3 3.4 93.3 3.4 93.3 Z M 7.8 103.6 C 7.8 103.6 7.8 103.6 7.8 103.6 C 7.8 103.6 7.8 103.6 7.8 103.6 Z M 2.0 99.2 C 2.1 99.3 2.1 99.3 2.0 99.2 C 2.0 99.2 2.0 99.2 2.0 99.2 Z M 3.8 101.2 C 3.8 101.1 3.8 101.1 3.8 101.2 C 3.8 101.2 3.8 101.2 3.8 101.2 Z M 6.9 95.1 C 7.2 97.4 6.3 94.5 6.9 95.1 C 6.9 95.1 6.9 95.1 6.9 95.1 Z M 4.3 106.9 C 4.2 107.0 4.2 107.0 4.3 106.9 C 4.3 106.9 4.3 106.9 4.3 106.9 Z M 6.3 108.1 C 6.2 108.2 6.2 108.2 6.3 108.1 C 6.3 108.1 6.3 108.1 6.3 108.1 Z M 7.4 108.7 C 7.3 108.8 7.3 108.8 7.4 108.7 C 7.4 108.7 7.4 108.7 7.4 108.7 Z M 4.4 80.3 C 4.5 80.3 4.5 80.3 4.4 80.3 C 4.4 80.3 4.4 80.3 4.4 80.3 Z M 7.7 79.4 C 7.7 79.4 7.7 79.4 7.7 79.4 C 7.7 79.4 7.7 79.4 7.7 79.4 Z M 7.9 82.6 C 7.9 82.5 7.9 82.5 7.9 82.6 C 7.9 82.6 7.9 82.6 7.9 82.6 Z M 2.4 79.8 C 2.5 79.7 2.5 79.7 2.4 79.8 C 2.4 79.8 2.4 79.8 2.4 79.8 Z M 5.2 91.6 C 5.3 91.5 5.3 91.5 5.2 91.6 C 5.2 91.6 5.2 91.6 5.2 91.6 Z M 3.9 92.7 C 4.0 92.6 4.0 92.6 3.9 92.7 C 3.9 92.7 3.9 92.7 3.9 92.7 Z M 2.1 90.0 C 2.2 89.9 2.2 89.9 2.1 90.0 C 2.1 90.0 2.1 90.0 2.1 90.0 Z M 2.8 93.6 C 2.8 93.5 2.8 93.5 2.8 93.6 C 2.8 93.6 2.8 93.6 2.8 93.6 Z M 3.1 71.8 C 3.0 71.8 3.0 71.8 3.1 71.8 C 3.1 71.8 3.1 71.8 3.1 71.8 Z M 5.6 71.6 C 5.5 71.6 5.5 71.6 5.6 71.6 C 5.6 71.6 5.6 71.6 5.6 71.6 Z M 7.1 91.9 C 7.6 92.5 6.3 93.0 7.1 91.9 M 6.7 87.4 C 6.7 87.4 6.7 87.4 6.7 87.4 C 6.7 87.4 6.7 87.4 6.7 87.4 Z M 7.0 99.5 C 6.0 100.1 7.5 97.4 7.0 99.5 C 7.0 99.5 7.0 99.5 7.0 99.5 Z M 2.8 97.1 C 2.7 97.2 2.7 97.2 2.8 97.1 C 2.8 97.1 2.8 97.1 2.8 97.1 Z M 3.2 98.3 C 3.1 98.4 3.1 98.4 3.2 98.3 C 3.2 98.3 3.2 98.3 3.2 98.3 Z M 5.9 104.8 C 5.8 104.9 5.8 104.9 5.9 104.8 M 7.6 86.9 C 7.2 87.5 7.3 87.4 7.6 86.9 M 6.9 101.0 C 6.9 101.0 6.9 101.0 6.9 101.0 C 6.9 101.0 6.9 101.0 6.9 101.0 Z M 6.5 106.3 C 6.4 106.2 6.4 106.2 6.5 106.3 C 6.5 106.3 6.5 106.3 6.5 106.3 Z M 7.0 83.7 C 5.7 83.8 6.0 83.2 7.0 83.7 M 6.6 74.7 C 6.5 74.7 6.5 74.7 6.6 74.7 C 6.6 74.7 6.6 74.7 6.6 74.7 Z M 7.3 113.4 C 8.7 111.0 6.8 111.0 6.7 111.0 C 9.3 111.2 5.7 108.8 5.2 109.3 C 4.9 109.2 0.4 111.1 3.1 112.8 C 3.5 113.3 2.7 113.5 2.6 113.9 C 2.7 116.9 4.0 111.8 4.0 115.5 C 3.6 116.1 1.5 115.4 3.0 117.5 C 2.8 117.6 2.0 120.0 3.0 119.1 C 2.0 120.3 3.2 121.0 3.4 122.1 C 2.8 123.1 1.9 121.3 3.0 124.8 C 1.3 126.3 4.3 126.8 2.4 128.2 C 2.3 129.1 5.5 130.4 3.7 128.4 C 3.9 128.7 5.4 127.4 4.9 130.2 C 4.5 129.8 1.3 128.2 2.8 132.6 C 2.7 133.3 3.6 135.0 3.2 135.4 C 2.8 133.1 1.8 138.4 2.8 137.9 C 2.1 141.4 3.5 139.4 2.5 141.9 C 2.4 144.0 3.9 141.2 3.1 143.8 C 3.2 145.7 2.4 144.4 2.5 144.2 C 2.3 145.9 2.9 146.5 2.9 147.1 C 2.7 147.4 2.0 148.2 2.9 148.6 C 4.3 150.4 5.8 148.7 7.2 149.5 C 7.9 148.2 6.1 149.0 7.2 148.1 C 6.3 147.4 7.3 148.0 7.1 144.4 C 6.9 144.5 6.2 145.4 6.1 144.5 C 6.3 143.2 8.7 144.1 7.0 141.9 C 6.5 144.5 6.2 138.1 5.7 140.6 C 5.4 137.5 5.9 139.7 6.5 137.5 C 4.8 137.6 8.2 137.3 6.9 136.4 C 7.6 136.2 7.3 132.7 6.3 135.2 C 5.8 131.6 6.8 133.9 7.7 132.6 C 7.8 130.9 5.0 132.4 7.0 131.4 C 7.9 129.2 6.0 131.3 7.6 129.7 C 6.2 130.4 7.6 128.1 6.1 128.7 C 5.9 124.9 7.7 129.2 6.6 126.5 C 6.6 127.3 8.7 127.0 7.3 125.4 C 4.9 126.1 9.5 123.3 6.2 124.4 C 5.3 119.2 7.6 123.6 7.6 120.7 C 7.6 119.9 6.5 121.5 6.5 120.8 C 7.0 117.1 7.8 120.2 6.2 118.2 C 5.8 114.6 7.6 117.2 7.7 115.4 C 6.9 115.2 5.6 113.7 7.3 113.4 M 6.6 116.7 C 7.1 117.4 6.0 117.2 6.6 116.7 M 7.3 109.3 C 7.8 110.1 6.8 109.8 7.3 109.3 M 7.0 119.7 C 7.6 120.7 6.2 120.0 7.0 119.7 M 6.2 139.5 C 6.2 138.1 6.7 140.2 6.2 139.5 M 7.4 112.2 C 8.0 113.3 6.5 112.5 7.4 112.2 M 6.1 110.9 C 6.1 111.0 6.1 111.0 6.1 110.9 M 7.6 141.5 C 7.5 141.5 7.5 141.5 7.6 141.5 M 7.6 136.2 C 7.5 137.3 7.2 135.5 7.6 136.2 M 2.2 136.0 C 2.2 137.1 1.9 135.3 2.2 136.0 M 7.6 144.4 C 8.0 145.5 7.0 144.7 7.6 144.4 M 6.4 147.3 C 6.9 148.3 5.9 148.0 6.4 147.3 M 4.7 116.0 C 4.6 116.0 4.6 116.0 4.7 116.0 C 4.7 116.0 4.7 116.0 4.7 116.0 Z M 3.3 125.7 C 3.9 124.6 2.7 127.2 3.3 125.7 M 6.9 124.0 C 5.8 124.7 6.9 122.4 6.9 124.0 C 6.9 124.0 6.9 124.0 6.9 124.0 Z M 6.4 122.3 C 6.3 122.2 6.3 122.2 6.4 122.3 C 6.4 122.3 6.4 122.3 6.4 122.3 Z M 6.3 127.7 C 6.3 127.7 6.3 127.7 6.3 127.7 C 6.3 127.7 6.3 127.7 6.3 127.7 Z M 6.2 126.6 C 6.0 126.2 6.4 126.0 6.2 126.6 C 6.2 126.6 6.2 126.6 6.2 126.6 Z M 2.7 134.6 C 2.5 134.1 3.0 134.0 2.7 134.6 C 2.7 134.6 2.7 134.6 2.7 134.6 Z M 5.8 124.9 C 4.7 124.7 6.6 124.1 5.8 124.9 C 5.8 124.9 5.8 124.9 5.8 124.9 Z M 3.2 130.8 C 3.5 131.3 2.2 131.8 3.2 130.8 M 7.4 142.6 C 7.7 143.1 6.3 143.6 7.4 142.6 M 7.7 131.0 C 8.0 131.5 6.6 132.0 7.7 131.0 M 7.0 117.3 C 6.9 117.4 6.9 117.4 7.0 117.3 M 2.3 123.8 C 2.7 124.5 1.8 124.2 2.3 123.8 M 2.7 112.8 C 3.1 113.6 2.2 113.2 2.7 112.8 M 2.3 140.9 C 2.6 140.9 2.2 142.1 2.3 140.9 M 5.9 132.3 C 5.8 133.4 5.2 134.4 5.3 132.3 C 5.5 132.1 5.7 132.8 5.9 132.3 C 5.9 132.3 5.9 132.3 5.9 132.3 Z M 3.4 136.0 C 3.3 136.1 3.3 136.1 3.4 136.0 M 6.9 134.1 C 6.8 134.3 6.8 134.3 6.9 134.1 M 6.8 140.1 C 6.7 140.2 6.7 140.2 6.8 140.1 M 7.1 140.8 C 7.1 140.8 7.1 140.8 7.1 140.8 C 7.1 140.8 7.1 140.8 7.1 140.8 Z M 7.6 147.4 C 7.5 147.3 7.5 147.3 7.6 147.4 C 7.6 147.4 7.6 147.4 7.6 147.4 Z M 6.7 138.2 C 6.6 138.2 6.6 138.2 6.7 138.2 C 6.7 138.2 6.7 138.2 6.7 138.2 Z M 2.5 143.6 C 2.5 143.6 2.5 143.6 2.5 143.6 C 2.5 143.6 2.5 143.6 2.5 143.6 Z M 3.2 142.9 C 3.1 142.9 3.1 142.9 3.2 142.9 C 3.2 142.9 3.2 142.9 3.2 142.9 Z M 7.3 113.9 C 8.1 114.8 5.4 114.4 7.3 113.9 M 3.2 145.8 C 2.4 146.7 3.0 144.3 3.2 145.8 C 3.2 145.8 3.2 145.8 3.2 145.8 Z M 5.8 137.5 C 5.6 137.6 5.6 137.6 5.8 137.5 M 7.0 141.2 C 6.9 141.3 6.9 141.3 7.0 141.2 M 7.9 123.9 C 7.7 124.0 7.7 124.0 7.9 123.9 M 6.8 145.8 C 6.6 148.6 5.3 144.5 6.8 145.8 M 6.8 122.6 C 6.9 122.6 6.9 122.6 6.8 122.6 M 4.8 128.9 C 4.9 130.7 4.2 128.2 4.8 128.9 M 6.2 133.6 C 6.1 133.6 6.1 133.6 6.2 133.6 C 6.2 133.6 6.2 133.6 6.2 133.6 Z M 6.2 130.9 C 6.0 129.5 6.5 130.5 6.2 130.9 C 6.2 130.9 6.2 130.9 6.2 130.9 Z M 6.3 115.2 C 6.2 117.0 6.0 113.4 6.3 115.2 C 6.3 115.2 6.3 115.2 6.3 115.2 Z M 4.3 144.5 C 4.2 144.5 4.2 144.5 4.3 144.5 C 4.3 144.5 4.3 144.5 4.3 144.5 Z M 7.4 137.9 C 7.2 137.0 7.8 137.5 7.4 137.9 C 7.4 137.9 7.4 137.9 7.4 137.9 Z M 7.6 148.3 C 7.3 147.5 7.9 148.0 7.6 148.3 C 7.6 148.3 7.6 148.3 7.6 148.3 Z M 6.5 113.1 C 4.7 119.6 7.0 104.5 6.5 113.1 C 6.5 113.1 6.5 113.1 6.5 113.1 Z M 6.9 132.0 C 6.8 131.9 6.8 131.9 6.9 132.0 C 6.9 132.0 6.9 132.0 6.9 132.0 Z M 7.7 120.1 C 7.6 120.0 7.6 120.0 7.7 120.1 C 7.7 120.1 7.7 120.1 7.7 120.1 Z M 6.7 118.1 C 6.6 118.0 6.6 118.0 6.7 118.1 C 6.7 118.1 6.7 118.1 6.7 118.1 Z M 2.4 118.6 C 2.3 118.6 2.3 118.6 2.4 118.6 C 2.4 118.6 2.4 118.6 2.4 118.6 Z M 4.3 119.3 C 4.2 119.2 4.2 119.2 4.3 119.3 C 4.3 119.3 4.3 119.3 4.3 119.3 Z M 3.6 115.2 C 3.5 115.1 3.5 115.1 3.6 115.2 C 3.6 115.2 3.6 115.2 3.6 115.2 Z M 3.0 115.3 C 3.0 115.2 3.0 115.2 3.0 115.3 C 3.0 115.3 3.0 115.3 3.0 115.3 Z M 5.8 141.2 C 5.7 141.2 5.7 141.2 5.8 141.2 C 5.8 141.2 5.8 141.2 5.8 141.2 Z M 4.1 139.0 C 4.7 140.5 3.1 138.5 4.1 139.0 C 4.1 139.0 4.1 139.0 4.1 139.0 Z M 4.9 125.7 C 5.2 127.1 4.4 124.8 4.9 125.7 C 4.9 125.7 4.9 125.7 4.9 125.7 Z M 2.6 127.2 C 2.6 127.2 2.6 127.2 2.6 127.2 C 2.6 127.2 2.6 127.2 2.6 127.2 Z M 7.7 118.1 C 7.6 118.0 7.6 118.0 7.7 118.1 C 7.7 118.1 7.7 118.1 7.7 118.1 Z M 7.0 115.5 C 6.1 115.4 7.4 114.8 7.0 115.5 M 7.5 128.3 C 7.4 128.3 7.4 128.3 7.5 128.3 C 7.5 128.3 7.5 128.3 7.5 128.3 Z M 6.1 136.3 C 6.0 136.3 6.0 136.3 6.1 136.3 C 6.1 136.3 6.1 136.3 6.1 136.3 Z M 6.7 144.3 C 6.5 144.3 6.5 144.3 6.7 144.3 C 6.7 144.3 6.7 144.3 6.7 144.3 Z M 7.4 133.3 C 7.2 133.3 7.2 133.3 7.4 133.3 C 7.4 133.3 7.4 133.3 7.4 133.3 Z M 6.5 129.5 C 6.4 129.4 6.4 129.4 6.5 129.5 C 6.5 129.5 6.5 129.5 6.5 129.5 Z M 5.4 146.1 C 5.3 146.0 5.3 146.0 5.4 146.1 C 5.4 146.1 5.4 146.1 5.4 146.1 Z M 7.5 134.2 C 7.5 134.2 7.5 134.2 7.5 134.2 C 7.5 134.2 7.5 134.2 7.5 134.2 Z M 4.6 136.5 C 4.6 136.4 4.6 136.4 4.6 136.5 C 4.6 136.5 4.6 136.5 4.6 136.5 Z M 8.2 115.9 C 8.2 115.9 8.2 115.9 8.2 115.9 C 8.2 115.9 8.2 115.9 8.2 115.9 Z M 6.6 146.2 C 6.5 146.1 6.5 146.1 6.6 146.2 C 6.6 146.2 6.6 146.2 6.6 146.2 Z M 7.4 146.7 C 7.3 146.6 7.3 146.6 7.4 146.7 C 7.4 146.7 7.4 146.7 7.4 146.7 Z M 3.1 141.0 C 3.6 138.2 3.3 143.5 4.3 141.5 C 4.5 145.5 3.1 141.6 3.1 141.0 C 3.1 141.0 3.1 141.0 3.1 141.0 Z M 7.7 150.5 C 6.5 148.9 5.3 148.9 4.1 149.6 C 3.4 150.3 5.9 150.3 3.8 150.3 C 3.4 148.6 0.7 151.1 3.4 151.1 C 3.8 153.4 1.7 151.5 2.8 152.9 C 3.0 155.4 2.1 154.2 2.6 156.5 C 4.2 157.6 2.1 158.0 3.6 158.2 C 1.9 157.5 4.7 160.2 4.1 160.6 C 2.5 159.1 7.7 167.0 5.5 162.5 C 7.1 163.9 6.0 164.2 6.3 164.9 C 7.5 165.0 8.3 168.0 9.8 168.0 C 9.8 167.7 9.3 167.3 9.3 167.0 C 9.4 166.3 10.4 167.9 10.3 167.8 C 11.1 168.0 14.5 169.1 10.6 168.4 C 10.0 168.9 13.3 169.5 13.0 170.0 C 15.9 171.4 14.1 169.0 15.2 170.5 C 17.4 171.1 19.1 171.2 19.1 171.0 C 20.6 171.2 20.7 172.0 21.8 171.2 C 24.3 172.8 23.6 168.2 24.5 171.2 C 25.2 170.5 25.9 172.5 25.8 170.6 C 24.9 171.5 30.0 172.1 27.8 170.7 C 28.4 170.3 31.6 172.7 31.1 170.7 C 32.2 169.3 32.0 167.9 29.6 166.6 C 29.8 167.7 27.0 165.4 28.8 167.3 C 30.9 167.9 24.9 168.0 26.2 167.3 C 26.5 165.0 23.3 168.7 22.0 167.1 C 23.0 168.0 18.3 168.4 19.6 166.8 C 18.8 166.6 18.5 167.4 17.8 166.3 C 20.2 166.8 16.5 167.8 16.9 166.8 C 17.4 166.3 14.2 164.6 14.2 165.6 C 14.3 168.3 13.6 164.8 12.5 165.2 C 10.5 164.4 14.0 163.9 11.7 164.2 C 11.6 163.7 9.7 161.9 11.2 162.7 C 11.5 163.3 8.2 163.1 9.6 161.7 C 12.2 163.4 8.5 158.6 8.4 159.7 C 9.4 164.2 5.5 155.7 7.7 158.6 C 8.0 156.4 8.2 159.2 7.1 156.8 C 6.6 157.3 5.7 155.3 7.0 155.6 C 8.8 155.0 4.4 155.0 6.9 153.2 C 8.1 152.9 6.1 149.7 7.4 151.0 C 7.5 151.0 7.7 150.5 7.7 150.5 M 7.5 151.5 C 7.1 151.1 8.0 150.9 7.5 151.5 M 7.1 151.1 C 7.1 151.0 7.1 151.0 7.1 151.1 C 7.1 151.1 7.1 151.1 7.1 151.1 Z M 7.0 156.4 C 7.1 156.4 7.1 156.4 7.0 156.4 C 7.0 156.4 7.0 156.4 7.0 156.4 Z M 4.1 162.3 C 4.1 162.2 4.1 162.2 4.1 162.3 C 4.1 162.3 4.1 162.3 4.1 162.3 Z M 7.9 159.6 C 7.9 159.6 7.9 159.6 7.9 159.6 C 7.9 159.6 7.9 159.6 7.9 159.6 Z M 6.5 154.7 C 6.5 154.6 6.5 154.6 6.5 154.7 C 6.5 154.7 6.5 154.7 6.5 154.7 Z M 8.4 159.0 C 7.9 159.6 8.5 157.9 8.5 159.1 C 8.5 159.1 8.4 158.9 8.4 159.0 M 10.8 162.2 C 10.8 162.3 10.8 162.3 10.8 162.2 M 17.6 171.7 C 17.7 171.8 17.7 171.8 17.6 171.7 M 19.1 166.2 C 19.2 166.3 19.2 166.3 19.1 166.2 M 13.4 165.3 C 14.6 165.9 13.5 165.8 13.4 165.3 M 22.9 166.7 C 21.0 166.2 24.9 166.3 22.9 166.7 M 24.7 166.2 C 24.9 166.3 24.9 166.3 24.7 166.2 M 16.8 166.1 C 16.8 166.2 16.8 166.2 16.8 166.1 C 16.8 166.1 16.8 166.1 16.8 166.1 Z M 13.1 164.8 C 12.0 163.6 14.9 165.1 13.1 164.8 M 7.8 156.9 C 8.3 157.7 6.9 157.1 7.8 156.9 M 7.1 155.0 C 7.1 155.0 7.1 155.0 7.1 155.0 C 7.1 155.0 7.1 155.0 7.1 155.0 Z M 19.9 166.6 C 19.8 166.6 19.8 166.6 19.9 166.6 C 19.9 166.6 19.9 166.6 19.9 166.6 Z M 22.1 166.5 C 22.0 166.5 22.0 166.5 22.1 166.5 C 22.1 166.5 22.1 166.5 22.1 166.5 Z M 25.7 171.7 C 25.6 171.7 25.6 171.7 25.7 171.7 C 25.7 171.7 25.7 171.7 25.7 171.7 Z M 5.2 156.9 C 5.2 155.4 7.2 157.9 5.9 157.9 C 5.4 158.2 5.3 157.0 5.2 156.9 M 11.2 165.3 C 10.4 167.0 11.6 162.6 11.2 165.3 M 25.0 167.4 C 26.5 169.5 23.2 165.9 25.0 167.4 M 28.0 167.0 C 28.9 167.5 22.5 167.3 26.9 166.7 C 27.4 166.4 27.7 166.8 28.0 167.0 M 10.2 162.8 C 9.7 163.8 9.2 161.1 10.2 162.8 M 16.0 169.6 C 16.9 169.2 19.0 168.9 17.9 169.9 C 17.7 171.3 15.0 169.9 16.0 169.6 M 6.5 151.9 C 8.1 153.1 5.1 151.9 6.5 151.9 M 6.8 157.4 C 6.8 157.4 6.8 157.4 6.8 157.4 C 6.8 157.4 6.8 157.4 6.8 157.4 Z M 7.6 159.2 C 7.6 159.3 7.6 159.3 7.6 159.2 M 7.9 152.9 C 7.7 153.0 7.7 153.0 7.9 152.9 M 16.4 168.0 C 16.5 168.2 16.5 168.2 16.4 168.0 M 12.9 165.5 C 13.7 167.8 11.9 165.2 12.9 165.5 M 7.1 164.2 C 7.0 165.2 6.1 163.1 7.1 164.2 M 16.0 166.2 C 16.8 168.0 13.8 167.0 16.0 166.2 M 12.2 164.8 C 12.3 164.9 12.3 164.9 12.2 164.8 C 12.2 164.8 12.2 164.8 12.2 164.8 Z M 16.6 169.9 C 16.6 170.0 16.6 170.0 16.6 169.9 C 16.6 169.9 16.6 169.9 16.6 169.9 Z M 17.3 170.0 C 17.3 170.0 17.3 170.0 17.3 170.0 C 17.3 170.0 17.3 170.0 17.3 170.0 Z M 17.6 166.5 C 17.5 166.5 17.5 166.5 17.6 166.5 C 17.6 166.5 17.6 166.5 17.6 166.5 Z M 3.0 155.2 C 3.1 157.0 2.7 153.8 3.0 155.2 C 3.0 155.2 3.0 155.2 3.0 155.2 Z M 9.1 160.4 C 9.1 162.8 7.4 159.6 9.1 160.4 C 9.1 160.4 9.1 160.4 9.1 160.4 Z M 9.0 163.6 C 9.0 163.6 9.0 163.6 9.0 163.6 C 9.0 163.6 9.0 163.6 9.0 163.6 Z M 15.5 165.1 C 15.5 165.2 15.5 165.2 15.5 165.1 C 15.5 165.1 15.5 165.1 15.5 165.1 Z M 2.9 156.1 C 2.9 156.1 2.9 156.1 2.9 156.1 C 2.9 156.1 2.9 156.1 2.9 156.1 Z M 21.7 167.5 C 21.7 167.6 21.7 167.6 21.7 167.5 C 21.7 167.5 21.7 167.5 21.7 167.5 Z M 12.2 168.6 C 13.0 168.4 12.1 169.1 12.2 168.6 C 12.2 168.6 12.2 168.6 12.2 168.6 Z M 14.6 169.6 C 14.6 169.6 14.6 169.6 14.6 169.6 C 14.6 169.6 14.6 169.6 14.6 169.6 Z M 25.3 166.1 C 25.4 166.1 25.4 166.1 25.3 166.1 C 25.3 166.1 25.3 166.1 25.3 166.1 Z M 21.0 171.9 C 21.0 171.9 21.0 171.9 21.0 171.9 C 21.0 171.9 21.0 171.9 21.0 171.9 Z M 22.9 170.2 C 22.9 170.2 22.9 170.2 22.9 170.2 C 22.9 170.2 22.9 170.2 22.9 170.2 Z M 17.2 166.7 C 19.2 166.9 16.6 167.3 17.2 166.7 C 17.2 166.7 17.2 166.7 17.2 166.7 Z M 28.7 169.7 C 28.7 169.8 28.7 169.8 28.7 169.7 C 28.7 169.7 28.7 169.7 28.7 169.7 Z M 29.9 167.7 C 29.9 167.8 29.9 167.8 29.9 167.7 C 29.9 167.7 29.9 167.7 29.9 167.7 Z M 30.5 166.6 C 30.5 166.7 30.5 166.7 30.5 166.6 C 30.5 166.6 30.5 166.6 30.5 166.6 Z M 5.6 160.0 C 5.7 159.9 5.7 159.9 5.6 160.0 C 5.6 160.0 5.6 160.0 5.6 160.0 Z M 8.4 158.0 C 8.4 158.0 8.4 158.0 8.4 158.0 C 8.4 158.0 8.4 158.0 8.4 158.0 Z M 9.6 160.2 C 9.6 160.2 9.6 160.2 9.6 160.2 C 9.6 160.2 9.6 160.2 9.6 160.2 Z M 3.5 160.1 C 3.6 160.1 3.6 160.1 3.5 160.1 C 3.5 160.1 3.5 160.1 3.5 160.1 Z M 13.6 167.3 C 13.6 167.2 13.6 167.2 13.6 167.3 C 13.6 167.3 13.6 167.3 13.6 167.3 Z M 14.1 169.0 C 14.1 168.9 14.1 168.9 14.1 169.0 C 14.1 169.0 14.1 169.0 14.1 169.0 Z M 10.6 169.2 C 10.6 169.2 10.6 169.2 10.6 169.2 C 10.6 169.2 10.6 169.2 10.6 169.2 Z M 14.6 170.4 C 14.6 170.3 14.6 170.3 14.6 170.4 C 14.6 170.4 14.6 170.4 14.6 170.4 Z M 3.1 151.4 C 3.0 151.4 3.0 151.4 3.1 151.4 C 3.1 151.4 3.1 151.4 3.1 151.4 Z M 5.6 151.1 C 5.5 151.1 5.5 151.1 5.6 151.1 C 5.6 151.1 5.6 151.1 5.6 151.1 Z M 14.7 165.8 C 15.3 165.5 15.2 166.8 14.7 165.8 M 11.3 164.0 C 11.3 164.0 11.3 164.0 11.3 164.0 C 11.3 164.0 11.3 164.0 11.3 164.0 Z M 21.3 167.0 C 21.9 168.0 19.2 166.5 21.3 167.0 C 21.3 167.0 21.3 167.0 21.3 167.0 Z M 18.7 171.2 C 18.7 171.2 18.7 171.2 18.7 171.2 C 18.7 171.2 18.7 171.2 18.7 171.2 Z M 20.1 170.8 C 20.2 170.9 20.2 170.9 20.1 170.8 C 20.1 170.8 20.1 170.8 20.1 170.8 Z M 26.6 168.1 C 26.7 168.2 26.7 168.2 26.6 168.1 M 11.5 163.0 C 11.6 163.7 11.6 163.6 11.5 163.0 M 22.8 167.0 C 22.7 167.1 22.7 167.1 22.8 167.0 C 22.8 167.0 22.8 167.0 22.8 167.0 Z M 28.0 167.5 C 28.0 167.5 28.0 167.5 28.0 167.5 C 28.0 167.5 28.0 167.5 28.0 167.5 Z M 9.3 161.5 C 8.4 162.3 8.3 161.7 9.3 161.5 M 6.6 154.2 C 6.5 154.2 6.5 154.2 6.6 154.2 C 6.6 154.2 6.6 154.2 6.6 154.2 Z M 35.2 166.6 C 32.7 165.3 32.7 167.2 32.7 167.2 C 33.0 164.7 30.5 168.2 31.0 168.7 C 30.9 169.1 32.8 173.5 34.5 170.9 C 35.0 170.5 35.3 171.3 35.6 171.4 C 38.6 171.2 33.6 170.0 37.2 170.0 C 37.9 170.3 37.1 172.4 39.2 171.0 C 39.3 171.2 41.8 172.0 40.9 171.0 C 42.0 172.0 42.8 170.8 43.9 170.6 C 44.8 171.1 43.0 172.1 46.6 170.9 C 48.1 172.7 48.6 169.6 50.0 171.6 C 50.8 171.6 52.2 168.4 50.1 170.2 C 50.4 170.0 49.2 168.5 51.9 169.1 C 51.5 169.5 50.0 172.7 54.4 171.2 C 55.1 171.2 56.7 170.4 57.1 170.8 C 54.9 171.1 60.2 172.2 59.6 171.2 C 63.1 171.9 61.1 170.4 63.6 171.5 C 65.7 171.5 63.0 170.1 65.5 170.9 C 67.5 170.7 66.1 171.5 66.0 171.5 C 67.6 171.6 68.4 171.0 69.1 171.0 C 69.6 171.1 70.6 171.6 70.9 170.7 C 72.5 168.9 70.5 167.8 70.7 166.2 C 69.4 165.9 70.4 167.5 69.5 166.5 C 69.1 167.5 69.7 166.7 66.2 166.9 C 66.3 167.1 67.2 167.7 66.3 167.8 C 64.9 167.7 65.9 165.2 63.6 167.0 C 66.3 167.5 59.9 167.8 62.4 168.3 C 59.3 168.6 61.5 168.1 59.2 167.5 C 59.3 169.2 59.0 165.7 58.2 167.1 C 58.0 166.4 54.5 166.7 57.0 167.7 C 53.3 168.1 55.6 167.2 54.3 166.3 C 52.6 166.2 54.2 169.0 53.1 167.0 C 50.9 166.0 53.1 168.0 51.5 166.4 C 52.2 167.8 49.8 166.4 50.4 167.9 C 46.7 168.0 50.9 166.3 48.3 167.3 C 49.1 167.4 48.8 165.3 47.1 166.7 C 47.8 169.1 45.0 164.5 46.2 167.8 C 40.9 168.7 45.3 166.4 42.4 166.4 C 41.7 166.4 43.2 167.5 42.6 167.5 C 38.8 167.0 41.9 166.2 40.0 167.8 C 36.3 168.2 38.9 166.4 37.1 166.3 C 37.0 167.0 35.5 168.3 35.2 166.6 M 38.4 167.4 C 39.2 166.9 38.9 167.9 38.4 167.4 M 31.1 166.7 C 31.8 166.1 31.5 167.2 31.1 166.7 M 41.5 166.9 C 42.5 166.4 41.8 167.8 41.5 166.9 M 61.3 167.7 C 59.9 167.7 61.9 167.3 61.3 167.7 M 34.0 166.6 C 35.1 165.9 34.3 167.4 34.0 166.6 M 32.7 167.8 C 32.7 167.8 32.7 167.8 32.7 167.8 M 63.2 166.4 C 63.3 166.4 63.3 166.4 63.2 166.4 M 57.9 166.4 C 59.1 166.4 57.3 166.7 57.9 166.4 M 57.7 171.8 C 58.9 171.8 57.1 172.1 57.7 171.8 M 66.1 166.3 C 67.3 165.9 66.5 166.9 66.1 166.3 M 69.0 167.4 C 69.8 166.8 69.6 167.9 69.0 167.4 M 37.8 169.3 C 37.8 169.4 37.8 169.4 37.8 169.3 C 37.8 169.3 37.8 169.3 37.8 169.3 Z M 47.5 170.6 C 46.3 170.1 48.9 171.3 47.5 170.6 M 45.7 167.1 C 46.5 168.2 44.2 167.0 45.7 167.1 C 45.7 167.1 45.7 167.1 45.7 167.1 Z M 44.0 167.6 C 44.0 167.7 44.0 167.7 44.0 167.6 C 44.0 167.6 44.0 167.6 44.0 167.6 Z M 49.5 167.7 C 49.4 167.7 49.4 167.7 49.5 167.7 C 49.5 167.7 49.5 167.7 49.5 167.7 Z M 48.4 167.8 C 47.9 168.0 47.7 167.5 48.4 167.8 C 48.4 167.8 48.4 167.8 48.4 167.8 Z M 56.4 171.2 C 55.9 171.5 55.7 171.0 56.4 171.2 C 56.4 171.2 56.4 171.2 56.4 171.2 Z M 46.6 168.1 C 46.5 169.2 45.9 167.4 46.6 168.1 C 46.6 168.1 46.6 168.1 46.6 168.1 Z M 52.5 170.7 C 53.0 170.4 53.6 171.8 52.5 170.7 M 64.3 166.6 C 64.8 166.3 65.4 167.6 64.3 166.6 M 52.7 166.3 C 53.2 166.0 53.8 167.3 52.7 166.3 M 39.1 166.9 C 39.2 167.1 39.2 167.1 39.1 166.9 M 45.5 171.7 C 46.3 171.3 45.9 172.2 45.5 171.7 M 34.6 171.3 C 35.3 170.9 34.9 171.8 34.6 171.3 M 62.7 171.7 C 62.7 171.4 63.9 171.8 62.7 171.7 M 54.1 168.0 C 55.1 168.2 56.2 168.8 54.0 168.7 C 53.9 168.4 54.5 168.3 54.1 168.0 C 54.1 168.0 54.1 168.0 54.1 168.0 Z M 57.8 170.5 C 57.9 170.6 57.9 170.6 57.8 170.5 M 55.9 167.0 C 56.0 167.1 56.0 167.1 55.9 167.0 M 61.8 167.1 C 62.0 167.3 62.0 167.3 61.8 167.1 M 62.6 166.8 C 62.6 166.9 62.6 166.9 62.6 166.8 C 62.6 166.8 62.6 166.8 62.6 166.8 Z M 68.8 166.3 C 68.8 166.3 68.8 166.3 68.8 166.3 C 68.8 166.3 68.8 166.3 68.8 166.3 Z M 60.0 167.3 C 59.9 167.3 59.9 167.3 60.0 167.3 C 60.0 167.3 60.0 167.3 60.0 167.3 Z M 65.3 171.4 C 65.3 171.5 65.3 171.5 65.3 171.4 C 65.3 171.4 65.3 171.4 65.3 171.4 Z M 64.7 170.8 C 64.7 170.8 64.7 170.8 64.7 170.8 C 64.7 170.8 64.7 170.8 64.7 170.8 Z M 35.7 166.6 C 36.6 165.9 36.2 168.5 35.7 166.6 M 67.6 170.8 C 68.6 171.5 65.8 171.0 67.6 170.8 C 67.6 170.8 67.6 170.8 67.6 170.8 Z M 59.2 168.2 C 59.3 168.3 59.3 168.3 59.2 168.2 M 63.0 166.9 C 63.0 167.1 63.0 167.1 63.0 166.9 M 45.7 166.1 C 45.8 166.2 45.8 166.2 45.7 166.1 M 67.5 167.1 C 70.1 167.3 66.4 168.7 67.5 167.1 M 44.4 167.2 C 44.3 167.1 44.3 167.1 44.4 167.2 M 50.6 169.2 C 52.5 169.1 50.0 169.8 50.6 169.2 M 55.4 167.8 C 55.3 167.9 55.3 167.9 55.4 167.8 C 55.4 167.8 55.4 167.8 55.4 167.8 Z M 52.6 167.8 C 51.3 168.0 52.3 167.5 52.6 167.8 C 52.6 167.8 52.6 167.8 52.6 167.8 Z M 37.0 167.6 C 38.8 167.8 35.2 168.0 37.0 167.6 C 37.0 167.6 37.0 167.6 37.0 167.6 Z M 66.3 169.7 C 66.2 169.8 66.2 169.8 66.3 169.7 C 66.3 169.7 66.3 169.7 66.3 169.7 Z M 59.6 166.5 C 58.8 166.8 59.2 166.2 59.6 166.5 C 59.6 166.5 59.6 166.5 59.6 166.5 Z M 69.6 166.2 C 69.0 166.6 69.3 165.9 69.6 166.2 C 69.6 166.2 69.6 166.2 69.6 166.2 Z M 34.9 167.5 C 41.3 169.3 26.3 167.0 34.9 167.5 C 34.9 167.5 34.9 167.5 34.9 167.5 Z M 53.7 167.1 C 53.7 167.1 53.7 167.1 53.7 167.1 C 53.7 167.1 53.7 167.1 53.7 167.1 Z M 41.8 166.3 C 41.8 166.4 41.8 166.4 41.8 166.3 C 41.8 166.3 41.8 166.3 41.8 166.3 Z M 39.8 167.3 C 39.8 167.4 39.8 167.4 39.8 167.3 C 39.8 167.3 39.8 167.3 39.8 167.3 Z M 40.4 171.6 C 40.4 171.6 40.4 171.6 40.4 171.6 C 40.4 171.6 40.4 171.6 40.4 171.6 Z M 41.1 169.6 C 41.0 169.8 41.0 169.8 41.1 169.6 C 41.1 169.6 41.1 169.6 41.1 169.6 Z M 36.9 170.4 C 36.9 170.4 36.9 170.4 36.9 170.4 C 36.9 170.4 36.9 170.4 36.9 170.4 Z M 37.0 170.9 C 37.0 171.0 37.0 171.0 37.0 170.9 C 37.0 170.9 37.0 170.9 37.0 170.9 Z M 63.0 168.1 C 62.9 168.2 62.9 168.2 63.0 168.1 C 63.0 168.1 63.0 168.1 63.0 168.1 Z M 60.8 169.9 C 62.2 169.3 60.3 170.8 60.8 169.9 C 60.8 169.9 60.8 169.9 60.8 169.9 Z M 47.5 169.0 C 48.9 168.8 46.6 169.6 47.5 169.0 C 47.5 169.0 47.5 169.0 47.5 169.0 Z M 49.0 171.4 C 49.0 171.4 49.0 171.4 49.0 171.4 C 49.0 171.4 49.0 171.4 49.0 171.4 Z M 39.8 166.3 C 39.8 166.4 39.8 166.4 39.8 166.3 C 39.8 166.3 39.8 166.3 39.8 166.3 Z M 37.3 167.0 C 37.2 167.9 36.5 166.6 37.3 167.0 M 50.0 166.5 C 50.0 166.6 50.0 166.6 50.0 166.5 C 50.0 166.5 50.0 166.5 50.0 166.5 Z M 58.1 167.9 C 58.1 168.0 58.1 168.0 58.1 167.9 C 58.1 167.9 58.1 167.9 58.1 167.9 Z M 66.1 167.3 C 66.1 167.4 66.1 167.4 66.1 167.3 C 66.1 167.3 66.1 167.3 66.1 167.3 Z M 55.0 166.6 C 55.0 166.7 55.0 166.7 55.0 166.6 C 55.0 166.6 55.0 166.6 55.0 166.6 Z M 51.2 167.4 C 51.2 167.5 51.2 167.5 51.2 167.4 C 51.2 167.4 51.2 167.4 51.2 167.4 Z M 67.9 168.6 C 67.8 168.6 67.8 168.6 67.9 168.6 C 67.9 168.6 67.9 168.6 67.9 168.6 Z M 55.9 166.5 C 55.9 166.5 55.9 166.5 55.9 166.5 C 55.9 166.5 55.9 166.5 55.9 166.5 Z M 58.3 169.3 C 58.2 169.4 58.2 169.4 58.3 169.3 C 58.3 169.3 58.3 169.3 58.3 169.3 Z M 37.7 165.7 C 37.6 165.8 37.6 165.8 37.7 165.7 C 37.7 165.7 37.7 165.7 37.7 165.7 Z M 67.9 167.4 C 67.9 167.4 67.9 167.4 67.9 167.4 C 67.9 167.4 67.9 167.4 67.9 167.4 Z M 68.3 166.5 C 68.2 166.6 68.2 166.6 68.3 166.5 C 68.3 166.5 68.3 166.5 68.3 166.5 Z M 62.8 170.9 C 59.9 170.4 65.3 170.7 63.2 169.7 C 67.3 169.4 63.4 170.9 62.8 170.9 C 62.8 170.9 62.8 170.9 62.8 170.9 Z M 71.3 165.6 C 70.5 167.1 70.6 168.3 71.6 169.3 C 72.5 169.6 71.7 167.3 72.5 169.3 C 70.8 170.3 74.4 171.8 73.4 169.4 C 75.6 168.1 74.5 170.8 75.4 169.1 C 77.8 167.5 77.0 169.0 78.6 167.4 C 78.6 165.4 80.1 167.0 79.4 165.7 C 79.8 167.5 80.6 163.7 81.2 164.0 C 80.7 166.1 84.7 157.5 82.0 161.8 C 82.4 159.7 83.2 160.5 83.6 159.9 C 83.1 158.7 85.2 156.4 84.4 155.0 C 84.2 155.2 84.1 155.9 83.8 156.0 C 83.2 156.4 84.0 154.6 84.0 154.7 C 83.7 153.8 82.8 150.2 84.4 154.1 C 85.1 154.3 84.0 151.4 84.7 151.5 C 84.7 148.7 83.2 150.8 84.3 149.6 C 84.3 147.6 84.3 146.1 84.2 146.1 C 84.3 144.9 85.2 144.7 84.4 143.6 C 85.9 141.1 81.3 141.8 84.4 140.9 C 83.7 140.2 85.7 139.5 83.8 139.6 C 84.7 140.4 85.3 135.4 83.9 137.6 C 83.4 137.0 85.8 133.8 83.9 134.3 C 82.5 133.1 81.1 133.3 79.7 135.8 C 80.8 135.5 78.6 138.4 80.5 136.6 C 81.1 134.4 81.2 140.5 80.5 139.2 C 78.2 138.9 81.9 142.1 80.3 143.4 C 81.2 142.3 81.6 147.3 79.9 145.8 C 79.8 146.7 80.6 146.9 79.6 147.9 C 79.8 145.0 81.4 149.1 80.3 148.9 C 79.7 148.4 79.2 152.8 80.1 152.3 C 82.5 150.8 79.7 153.5 80.6 154.2 C 81.1 156.5 78.7 153.7 80.2 155.5 C 79.9 155.9 79.3 158.5 79.2 156.8 C 79.6 156.2 81.2 159.2 79.2 158.7 C 79.2 155.6 77.1 161.3 78.2 160.8 C 81.4 157.6 76.3 165.4 77.6 161.9 C 75.5 162.8 77.8 161.3 76.4 163.4 C 77.0 163.6 75.9 165.4 75.5 164.1 C 74.0 162.9 76.3 166.8 73.7 165.3 C 72.9 164.4 71.2 167.3 71.8 165.7 C 71.8 165.6 71.3 165.5 71.3 165.6 M 72.1 165.5 C 72.0 166.0 71.5 165.2 72.1 165.5 M 72.0 166.0 C 71.9 166.0 71.9 166.0 72.0 166.0 C 72.0 166.0 72.0 166.0 72.0 166.0 Z M 76.1 163.7 C 76.1 163.6 76.1 163.6 76.1 163.7 C 76.1 163.7 76.1 163.7 76.1 163.7 Z M 82.6 163.1 C 82.5 163.1 82.5 163.1 82.6 163.1 C 82.6 163.1 82.6 163.1 82.6 163.1 Z M 78.3 161.3 C 78.3 161.3 78.3 161.3 78.3 161.3 C 78.3 161.3 78.3 161.3 78.3 161.3 Z M 75.0 165.0 C 75.0 165.0 75.0 165.0 75.0 165.0 C 75.0 165.0 75.0 165.0 75.0 165.0 Z M 77.6 161.1 C 78.3 161.3 76.5 161.7 77.5 161.0 C 77.6 161.0 77.4 161.2 77.6 161.1 M 79.0 157.4 C 79.1 157.4 79.1 157.4 79.0 157.4 M 85.1 147.3 C 85.1 147.3 85.1 147.3 85.1 147.3 M 79.4 146.4 C 79.5 146.3 79.5 146.3 79.4 146.4 M 80.2 153.2 C 80.1 151.7 80.6 152.9 80.2 153.2 M 79.8 142.5 C 79.4 144.3 79.4 140.4 79.8 142.5 M 79.4 140.6 C 79.5 140.5 79.5 140.5 79.4 140.6 M 79.7 149.1 C 79.7 149.2 79.7 149.2 79.7 149.1 C 79.7 149.1 79.7 149.1 79.7 149.1 Z M 79.9 153.9 C 79.5 155.8 79.3 151.9 79.9 153.9 M 76.1 162.8 C 76.4 161.9 76.7 163.4 76.1 162.8 M 75.0 164.3 C 75.0 164.3 75.0 164.3 75.0 164.3 C 75.0 164.3 75.0 164.3 75.0 164.3 Z M 79.8 145.5 C 79.8 145.6 79.8 145.6 79.8 145.5 C 79.8 145.5 79.8 145.5 79.8 145.5 Z M 79.7 143.3 C 79.7 143.4 79.7 143.4 79.7 143.3 C 79.7 143.3 79.7 143.3 79.7 143.3 Z M 84.9 139.7 C 84.9 139.8 84.9 139.8 84.9 139.7 C 84.9 139.7 84.9 139.7 84.9 139.7 Z M 77.5 165.0 C 76.2 165.7 77.2 162.8 78.0 163.9 C 78.5 164.1 77.5 164.8 77.5 165.0 M 81.4 155.3 C 83.2 155.1 78.9 156.5 81.4 155.3 M 80.6 140.4 C 82.7 138.9 79.1 142.2 80.6 140.4 M 80.2 137.4 C 80.6 136.5 80.5 142.9 79.9 138.4 C 79.6 138.0 80.0 137.7 80.2 137.4 M 79.9 157.6 C 80.9 157.5 78.9 159.4 79.9 157.6 M 83.3 149.0 C 82.7 148.3 82.1 146.4 83.2 147.3 C 84.6 147.3 83.8 149.9 83.3 149.0 M 72.9 166.2 C 73.2 164.3 73.4 167.4 72.9 166.2 M 77.0 163.4 C 77.0 163.3 77.0 163.3 77.0 163.4 C 77.0 163.4 77.0 163.4 77.0 163.4 Z M 78.1 161.7 C 78.2 161.7 78.2 161.7 78.1 161.7 M 73.0 164.6 C 73.1 164.7 73.1 164.7 73.0 164.6 M 81.7 149.1 C 81.8 149.0 81.8 149.0 81.7 149.1 M 80.6 153.7 C 82.2 151.5 80.9 154.9 80.6 153.7 M 82.7 159.5 C 83.6 159.1 82.2 160.9 82.7 159.5 M 80.0 150.1 C 81.5 148.5 81.4 152.2 80.0 150.1 M 80.4 154.7 C 80.4 154.6 80.4 154.6 80.4 154.7 C 80.4 154.7 80.4 154.7 80.4 154.7 Z M 83.5 148.5 C 83.5 148.5 83.5 148.5 83.5 148.5 C 83.5 148.5 83.5 148.5 83.5 148.5 Z M 83.4 147.8 C 83.4 147.9 83.4 147.9 83.4 147.8 C 83.4 147.8 83.4 147.8 83.4 147.8 Z M 79.9 148.1 C 79.9 148.2 79.9 148.2 79.9 148.1 C 79.9 148.1 79.9 148.1 79.9 148.1 Z M 77.3 167.6 C 78.7 166.7 76.3 168.6 77.3 167.6 C 77.3 167.6 77.3 167.6 77.3 167.6 Z M 78.3 159.9 C 80.4 158.6 78.6 161.7 78.3 159.9 C 78.3 159.9 78.3 159.9 78.3 159.9 Z M 81.1 158.2 C 81.2 158.2 81.2 158.2 81.1 158.2 C 81.1 158.2 81.1 158.2 81.1 158.2 Z M 79.1 151.1 C 79.2 151.1 79.2 151.1 79.1 151.1 C 79.1 151.1 79.1 151.1 79.1 151.1 Z M 78.1 167.3 C 78.1 167.3 78.1 167.3 78.1 167.3 C 78.1 167.3 78.1 167.3 78.1 167.3 Z M 80.7 143.7 C 80.7 143.7 80.7 143.7 80.7 143.7 C 80.7 143.7 80.7 143.7 80.7 143.7 Z M 83.7 152.7 C 83.1 152.1 84.1 152.6 83.7 152.7 C 83.7 152.7 83.7 152.7 83.7 152.7 Z M 83.7 150.3 C 83.7 150.3 83.7 150.3 83.7 150.3 C 83.7 150.3 83.7 150.3 83.7 150.3 Z M 79.3 140.0 C 79.3 140.0 79.3 140.0 79.3 140.0 C 79.3 140.0 79.3 140.0 79.3 140.0 Z M 85.1 144.4 C 85.1 144.3 85.1 144.3 85.1 144.4 C 85.1 144.4 85.1 144.4 85.1 144.4 Z M 83.4 142.5 C 83.4 142.5 83.4 142.5 83.4 142.5 C 83.4 142.5 83.4 142.5 83.4 142.5 Z M 80.2 148.6 C 79.9 146.2 80.9 149.1 80.2 148.6 C 80.2 148.6 80.2 148.6 80.2 148.6 Z M 82.9 136.7 C 83.0 136.6 83.0 136.6 82.9 136.7 C 82.9 136.7 82.9 136.7 82.9 136.7 Z M 80.9 135.5 C 81.0 135.4 81.0 135.4 80.9 135.5 C 80.9 135.5 80.9 135.5 80.9 135.5 Z M 79.8 134.9 C 79.9 134.9 79.9 134.9 79.8 134.9 C 79.8 134.9 79.8 134.9 79.8 134.9 Z M 79.8 163.0 C 79.7 163.0 79.7 163.0 79.8 163.0 C 79.8 163.0 79.8 163.0 79.8 163.0 Z M 76.7 161.7 C 76.7 161.7 76.7 161.7 76.7 161.7 C 76.7 161.7 76.7 161.7 76.7 161.7 Z M 77.9 159.5 C 77.9 159.5 77.9 159.5 77.9 159.5 C 77.9 159.5 77.9 159.5 77.9 159.5 Z M 81.1 164.7 C 81.0 164.7 81.0 164.7 81.1 164.7 C 81.1 164.7 81.1 164.7 81.1 164.7 Z M 81.9 152.0 C 81.8 152.1 81.8 152.1 81.9 152.0 C 81.9 152.0 81.9 152.0 81.9 152.0 Z M 83.2 150.9 C 83.2 151.0 83.2 151.0 83.2 150.9 C 83.2 150.9 83.2 150.9 83.2 150.9 Z M 85.0 153.7 C 85.0 153.7 85.0 153.7 85.0 153.7 C 85.0 153.7 85.0 153.7 85.0 153.7 Z M 84.4 150.1 C 84.4 150.1 84.4 150.1 84.4 150.1 C 84.4 150.1 84.4 150.1 84.4 150.1 Z M 73.8 169.6 C 73.8 169.6 73.8 169.6 73.8 169.6 C 73.8 169.6 73.8 169.6 73.8 169.6 Z M 72.6 167.3 C 72.6 167.4 72.6 167.4 72.6 167.3 C 72.6 167.3 72.6 167.3 72.6 167.3 Z M 80.1 151.7 C 79.5 151.1 80.8 150.6 80.1 151.7 M 80.3 156.0 C 80.3 156.0 80.3 156.0 80.3 156.0 C 80.3 156.0 80.3 156.0 80.3 156.0 Z M 80.2 144.1 C 81.2 143.5 79.7 146.2 80.2 144.1 C 80.2 144.1 80.2 144.1 80.2 144.1 Z M 84.4 146.5 C 84.4 146.4 84.4 146.4 84.4 146.5 C 84.4 146.5 84.4 146.5 84.4 146.5 Z M 83.9 145.3 C 84.0 145.2 84.0 145.2 83.9 145.3 C 83.9 145.3 83.9 145.3 83.9 145.3 Z M 81.2 138.8 C 81.3 138.7 81.3 138.7 81.2 138.8 M 79.3 156.3 C 79.8 155.8 79.7 155.9 79.3 156.3 M 80.2 142.6 C 80.2 142.6 80.2 142.6 80.2 142.6 C 80.2 142.6 80.2 142.6 80.2 142.6 Z M 80.7 137.4 C 80.7 137.4 80.7 137.4 80.7 137.4 C 80.7 137.4 80.7 137.4 80.7 137.4 Z M 79.2 159.1 C 80.3 159.5 79.8 159.8 79.2 159.1 M 74.6 165.1 C 74.7 165.2 74.7 165.2 74.6 165.1 C 74.6 165.1 74.6 165.1 74.6 165.1 Z M 80.7 129.9 C 79.2 135.3 81.9 134.0 82.4 134.2 C 83.1 135.0 83.6 134.2 84.1 133.2 C 85.8 132.0 82.3 131.5 84.0 130.7 C 86.3 129.2 82.0 129.0 84.4 128.4 C 85.1 128.6 84.6 126.5 84.4 126.7 C 85.5 125.7 83.5 124.2 83.3 124.2 C 83.6 123.4 85.7 123.4 84.1 121.2 C 83.6 119.5 85.7 118.8 84.2 119.2 C 85.9 118.0 83.8 118.4 84.3 117.2 C 85.2 116.3 82.9 117.1 84.6 115.6 C 83.3 114.9 85.6 116.3 84.6 112.1 C 84.5 114.1 83.5 110.2 84.4 111.0 C 85.4 112.4 84.0 109.0 84.6 107.1 C 84.1 106.6 82.9 104.3 84.2 104.7 C 85.8 102.8 83.3 102.7 84.6 101.9 C 85.1 101.3 84.0 101.0 84.0 100.6 C 85.0 99.9 84.4 99.3 84.6 96.8 C 85.1 91.5 82.1 96.0 81.8 94.0 C 81.4 93.7 78.1 96.6 80.6 95.4 C 79.9 95.8 82.4 100.2 79.7 98.0 C 80.8 99.7 78.6 97.6 79.9 101.0 C 81.8 96.4 80.7 106.2 79.8 101.8 C 79.2 102.5 79.3 104.3 79.8 103.0 C 81.5 102.5 79.0 106.1 81.1 104.3 C 80.5 107.1 82.3 106.4 81.0 107.2 C 78.8 107.8 81.6 107.0 81.0 108.5 C 80.9 111.8 78.4 109.2 80.1 111.2 C 79.0 114.4 81.1 111.9 81.3 113.0 C 82.9 113.4 80.2 116.4 80.0 113.9 C 80.8 115.2 79.2 114.1 80.2 115.6 C 81.6 114.5 78.7 117.5 79.8 117.1 C 80.2 118.4 81.0 117.7 81.1 118.1 C 81.1 120.1 79.7 119.5 80.7 119.9 C 81.3 120.3 79.5 121.3 79.9 121.5 C 80.0 119.5 81.4 123.2 80.7 123.4 C 80.5 122.2 78.8 124.0 79.9 124.8 C 83.0 123.8 79.1 126.6 80.2 127.5 C 81.9 126.6 80.4 131.9 79.6 129.9 C 79.8 130.1 80.7 129.9 80.7 129.9 M 80.2 122.1 C 80.3 120.4 80.5 123.9 80.2 122.1 M 79.7 122.2 C 80.3 121.4 79.3 123.7 79.5 122.1 C 79.5 122.1 79.7 122.3 79.7 122.2 M 79.6 115.3 C 80.1 115.5 79.4 116.2 79.6 115.3 M 80.7 114.0 C 81.2 112.8 80.8 115.4 80.7 114.0 M 80.4 98.7 C 82.9 100.2 78.9 100.3 80.4 98.7 M 79.8 108.8 C 80.2 110.6 78.8 108.1 79.8 108.8 M 80.5 109.3 C 80.9 110.2 79.9 109.5 80.5 109.3 M 80.4 101.6 C 80.4 101.5 80.4 101.5 80.4 101.6 C 80.4 101.6 80.4 101.6 80.4 101.6 Z M 80.4 97.1 C 80.4 97.1 80.4 97.1 80.4 97.1 C 80.4 97.1 80.4 97.1 80.4 97.1 Z M 80.6 106.0 C 80.0 107.4 80.4 103.7 80.6 106.0 C 80.6 106.0 80.6 106.0 80.6 106.0 Z M 84.3 99.2 C 84.4 99.3 84.4 99.3 84.3 99.2 C 84.3 99.2 84.3 99.2 84.3 99.2 Z M 81.3 123.4 C 81.4 123.5 81.4 123.5 81.3 123.4 C 81.3 123.4 81.3 123.4 81.3 123.4 Z M 80.4 128.6 C 80.7 128.5 80.1 129.5 80.4 128.6 C 80.4 128.6 80.4 128.6 80.4 128.6 Z M 83.3 132.7 C 83.3 132.8 83.3 132.8 83.3 132.7 C 83.3 132.7 83.3 132.7 83.3 132.7 Z M 82.7 125.1 C 82.7 125.2 82.7 125.2 82.7 125.1 C 82.7 125.1 82.7 125.1 82.7 125.1 Z M 80.8 124.4 C 79.4 125.2 81.2 122.5 80.8 124.4 C 80.8 124.4 80.8 124.4 80.8 124.4 Z M 84.2 107.7 C 83.6 107.7 84.4 106.5 84.2 107.7 C 84.2 107.7 84.2 107.7 84.2 107.7 Z M 81.3 113.8 C 81.0 113.5 81.4 113.0 81.3 113.8 C 81.3 113.8 81.3 113.8 81.3 113.8 Z M 79.4 116.6 C 79.0 116.4 79.5 115.8 79.4 116.6 C 79.4 116.6 79.4 116.6 79.4 116.6 Z M 80.0 128.5 C 79.9 128.4 79.9 128.4 80.0 128.5 C 80.0 128.5 80.0 128.5 80.0 128.5 Z M 81.0 126.6 C 79.7 127.9 81.8 124.7 81.0 126.6 C 81.0 126.6 81.0 126.6 81.0 126.6 Z M 81.4 128.8 C 81.9 128.1 81.2 130.5 81.4 128.8 M 83.5 127.6 C 82.9 126.0 85.8 129.0 83.5 127.6 C 83.5 127.6 83.5 127.6 83.5 127.6 Z M 84.0 119.6 C 84.0 119.5 84.0 119.5 84.0 119.6 C 84.0 119.6 84.0 119.6 84.0 119.6 Z M 80.1 120.5 C 80.2 119.1 80.4 121.4 80.1 120.5 C 80.1 120.5 80.1 120.5 80.1 120.5 Z M 79.8 132.4 C 79.9 131.0 80.1 133.3 79.8 132.4 C 79.8 132.4 79.8 132.4 79.8 132.4 Z M 82.7 115.0 C 82.5 112.8 83.4 116.4 82.7 115.0 C 82.7 115.0 82.7 115.0 82.7 115.0 Z M 81.2 106.8 C 81.2 106.7 81.2 106.7 81.2 106.8 C 81.2 106.8 81.2 106.8 81.2 106.8 Z M 80.6 105.2 C 80.6 105.2 80.6 105.2 80.6 105.2 C 80.6 105.2 80.6 105.2 80.6 105.2 Z M 82.0 98.8 C 82.0 98.7 82.0 98.7 82.0 98.8 C 82.0 98.8 82.0 98.8 82.0 98.8 Z M 80.0 103.8 C 80.0 103.8 80.0 103.8 80.0 103.8 C 80.0 103.8 80.0 103.8 80.0 103.8 Z M 80.3 99.4 C 80.4 99.3 80.4 99.3 80.3 99.4 C 80.3 99.4 80.3 99.4 80.3 99.4 Z M 79.2 100.0 C 79.2 99.9 79.2 99.9 79.2 100.0 C 79.2 100.0 79.2 100.0 79.2 100.0 Z M 85.0 109.9 C 85.0 109.8 85.0 109.8 85.0 109.9 C 85.0 109.9 85.0 109.9 85.0 109.9 Z M 79.5 126.0 C 79.7 125.9 79.7 125.9 79.5 126.0 C 79.5 126.0 79.5 126.0 79.5 126.0 Z M 80.8 99.7 C 80.9 99.7 80.9 99.7 80.8 99.7 C 80.8 99.7 80.8 99.7 80.8 99.7 Z M 81.9 110.6 C 83.0 110.5 80.4 111.5 81.8 110.3 C 81.9 110.4 81.7 110.7 81.9 110.6 M 83.8 109.1 C 83.8 109.2 83.8 109.2 83.8 109.1 C 83.8 109.1 83.8 109.1 83.8 109.1 Z M 84.5 114.0 C 84.5 114.1 84.5 114.1 84.5 114.0 C 84.5 114.0 84.5 114.0 84.5 114.0 Z M 79.8 104.6 C 79.1 104.8 80.2 103.4 79.8 104.8 M 84.0 98.8 C 83.3 99.0 84.4 97.6 84.0 99.0 M 80.2 134.0 C 80.7 134.2 80.0 134.9 80.2 134.0 M 85.1 115.1 C 85.5 115.3 84.8 116.1 85.1 115.1 M 83.6 112.8 C 83.0 113.0 84.1 111.6 83.6 113.0 M 83.9 102.2 C 83.9 102.1 83.9 102.1 83.9 102.2 C 83.9 102.2 83.9 102.2 83.9 102.2 Z M 80.2 118.4 C 80.3 118.3 80.3 118.3 80.2 118.4 C 80.2 118.4 80.2 118.4 80.2 118.4 Z M 81.6 112.4 C 80.7 113.2 82.1 111.3 81.6 112.4 M 81.8 120.1 C 80.7 121.3 82.1 118.2 81.8 120.1 M 84.2 96.2 C 82.9 97.6 84.9 95.3 84.2 96.2 M 81.0 102.8 C 79.7 104.1 81.7 101.8 81.0 102.8 M 80.8 117.2 C 80.1 117.3 81.2 115.8 80.8 117.2 M 80.1 130.9 C 80.0 132.1 79.6 129.2 80.1 130.9 M 84.0 105.4 C 84.0 105.3 84.0 105.3 84.0 105.4 C 84.0 105.4 84.0 105.4 84.0 105.4 Z M 85.1 126.7 C 85.1 126.7 85.1 126.7 85.1 126.7 C 85.1 126.7 85.1 126.7 85.1 126.7 Z M 80.0 94.5 C 80.0 94.5 80.0 94.5 80.0 94.5 C 80.0 94.5 80.0 94.5 80.0 94.5 Z M 81.6 103.6 C 81.7 103.6 81.7 103.6 81.6 103.6 C 81.6 103.6 81.6 103.6 81.6 103.6 Z M 79.8 97.1 C 79.9 97.0 79.9 97.0 79.8 97.1 C 79.8 97.1 79.8 97.1 79.8 97.1 Z M 82.6 107.8 C 82.6 107.8 82.6 107.8 82.6 107.8 C 82.6 107.8 82.6 107.8 82.6 107.8 Z M 79.3 108.6 C 79.3 108.6 79.3 108.6 79.3 108.6 C 79.3 108.6 79.3 108.6 79.3 108.6 Z M 80.7 113.2 C 80.7 113.1 80.7 113.1 80.7 113.2 C 80.7 113.2 80.7 113.2 80.7 113.2 Z M 79.5 106.5 C 79.3 103.8 80.6 107.9 79.5 106.5 C 79.5 106.5 79.5 106.5 79.5 106.5 Z M 82.8 111.2 C 82.9 111.2 82.9 111.2 82.8 111.2 C 82.8 111.2 82.8 111.2 82.8 111.2 Z M 80.5 111.6 C 79.6 109.9 82.1 110.7 80.5 111.6 M 79.7 119.2 C 79.2 118.7 80.5 118.9 79.7 119.2 M 84.0 122.2 C 84.1 122.2 84.1 122.2 84.0 122.2 C 84.0 122.2 84.0 122.2 84.0 122.2 Z M 83.7 121.4 C 83.8 121.3 83.8 121.3 83.7 121.4 C 83.7 121.4 83.7 121.4 83.7 121.4 Z M 79.5 121.0 C 79.5 121.0 79.5 121.0 79.5 121.0 C 79.5 121.0 79.5 121.0 79.5 121.0 Z M 85.0 121.3 C 85.0 121.2 85.0 121.2 85.0 121.3 C 85.0 121.3 85.0 121.3 85.0 121.3 Z M 79.4 109.7 C 79.4 109.6 79.4 109.6 79.4 109.7 C 79.4 109.7 79.4 109.7 79.4 109.7 Z M 79.3 95.8 C 79.3 95.7 79.3 95.7 79.3 95.8 C 79.3 95.8 79.3 95.8 79.3 95.8 Z M 83.6 130.5 C 83.6 130.4 83.6 130.4 83.6 130.5 C 83.6 130.5 83.6 130.5 83.6 130.5 Z M 80.7 108.2 C 80.7 108.2 80.7 108.2 80.7 108.2 C 80.7 108.2 80.7 108.2 80.7 108.2 Z M 83.9 124.2 C 83.9 124.1 83.9 124.1 83.9 124.2 C 83.9 124.2 83.9 124.2 83.9 124.2 Z M 80.4 109.1 C 80.4 109.1 80.4 109.1 80.4 109.1 C 80.4 109.1 80.4 109.1 80.4 109.1 Z M 84.2 105.8 C 84.2 105.8 84.2 105.8 84.2 105.8 C 84.2 105.8 84.2 105.8 84.2 105.8 Z M 85.0 102.8 C 85.0 102.8 85.0 102.8 85.0 102.8 C 85.0 102.8 85.0 102.8 85.0 102.8 Z M 81.9 106.0 C 82.0 106.0 82.0 106.0 81.9 106.0 C 81.9 106.0 81.9 106.0 81.9 106.0 Z M 82.4 125.1 C 81.3 130.6 81.9 120.8 82.4 125.1 M 82.2 105.1 C 81.9 108.9 80.9 102.1 82.2 105.1 C 81.9 104.7 82.2 105.1 82.2 105.1 M 79.8 90.4 C 78.5 92.9 80.4 92.9 80.4 92.9 C 77.9 92.6 81.4 95.1 81.9 94.6 C 82.3 94.7 86.7 92.8 84.0 91.1 C 83.7 90.6 84.5 90.3 84.5 90.0 C 84.4 87.0 83.1 92.1 83.1 88.4 C 83.5 87.8 85.6 88.5 84.2 86.4 C 84.4 86.3 85.1 83.8 84.2 84.8 C 85.2 83.6 84.0 82.8 83.7 81.8 C 84.3 80.8 85.3 82.6 84.1 79.1 C 85.9 77.6 82.8 77.0 84.7 75.7 C 84.8 74.8 81.6 73.4 83.4 75.5 C 83.2 75.2 81.7 76.5 82.2 73.7 C 82.6 74.1 85.9 75.6 84.3 71.3 C 84.4 70.5 83.6 68.9 83.9 68.5 C 84.3 70.7 85.4 65.4 84.4 66.0 C 85.0 62.5 83.6 64.5 84.7 62.0 C 84.7 59.9 83.2 62.7 84.1 60.1 C 83.9 58.2 84.7 59.5 84.6 59.7 C 84.8 58.0 84.2 57.4 84.3 56.8 C 84.4 56.4 85.1 55.7 84.3 55.3 C 82.8 53.5 81.4 55.1 79.9 54.3 C 79.2 55.6 81.0 54.9 79.9 55.8 C 80.8 56.4 79.8 55.9 80.0 59.4 C 80.3 59.3 80.9 58.5 81.0 59.3 C 80.9 60.7 78.4 59.7 80.1 62.0 C 80.7 59.3 80.9 65.8 81.5 63.3 C 81.8 66.4 81.3 64.1 80.7 66.4 C 82.3 66.3 78.9 66.6 80.2 67.4 C 79.5 67.6 79.8 71.2 80.9 68.6 C 81.3 72.3 80.3 70.0 79.5 71.3 C 79.4 73.0 82.2 71.4 80.1 72.5 C 79.2 74.7 81.1 72.6 79.5 74.2 C 81.0 73.4 79.5 75.8 81.1 75.2 C 81.2 78.9 79.4 74.7 80.5 77.4 C 80.6 76.5 78.5 76.9 79.8 78.5 C 82.3 77.8 77.6 80.6 80.9 79.4 C 81.8 84.7 79.6 80.3 79.6 83.2 C 79.6 83.9 80.6 82.4 80.6 83.0 C 80.2 86.8 79.3 83.7 80.9 85.6 C 81.3 89.3 79.6 86.7 79.4 88.5 C 80.2 88.6 81.5 90.1 79.8 90.4 M 80.6 87.2 C 80.1 86.4 81.1 86.7 80.6 87.2 M 79.8 94.6 C 79.3 93.8 80.3 94.1 79.8 94.6 M 80.1 84.1 C 79.6 83.1 81.0 83.8 80.1 84.1 M 80.9 64.3 C 80.9 65.7 80.5 63.7 80.9 64.3 M 79.7 91.6 C 79.1 90.5 80.6 91.3 79.7 91.6 M 81.0 93.0 C 81.0 92.9 81.0 92.9 81.0 93.0 M 79.6 62.4 C 79.6 62.3 79.6 62.3 79.6 62.4 M 79.6 67.7 C 79.6 66.6 79.9 68.3 79.6 67.7 M 84.9 67.9 C 85.0 66.7 85.3 68.5 84.9 67.9 M 79.5 59.5 C 79.1 58.4 80.1 59.1 79.5 59.5 M 80.7 56.5 C 80.2 55.5 81.2 55.9 80.7 56.5 M 82.5 87.8 C 82.5 87.9 82.5 87.9 82.5 87.8 C 82.5 87.8 82.5 87.8 82.5 87.8 Z M 83.8 78.1 C 83.3 79.3 84.5 76.7 83.8 78.1 M 80.3 79.9 C 81.4 79.1 80.2 81.4 80.3 79.9 C 80.3 79.9 80.3 79.9 80.3 79.9 Z M 80.8 81.6 C 80.8 81.6 80.8 81.6 80.8 81.6 C 80.8 81.6 80.8 81.6 80.8 81.6 Z M 80.8 76.1 C 80.8 76.2 80.8 76.2 80.8 76.1 C 80.8 76.1 80.8 76.1 80.8 76.1 Z M 80.9 77.2 C 81.2 77.7 80.7 77.9 80.9 77.2 C 80.9 77.2 80.9 77.2 80.9 77.2 Z M 84.4 69.3 C 84.6 69.7 84.2 69.9 84.4 69.3 C 84.4 69.3 84.4 69.3 84.4 69.3 Z M 81.3 79.0 C 82.4 79.1 80.6 79.8 81.3 79.0 C 81.3 79.0 81.3 79.0 81.3 79.0 Z M 83.9 73.1 C 83.6 72.6 84.9 72.1 83.9 73.1 M 79.8 61.3 C 79.5 60.8 80.8 60.2 79.8 61.3 M 79.5 72.9 C 79.2 72.4 80.5 71.9 79.5 72.9 M 80.1 86.5 C 80.2 86.4 80.2 86.4 80.1 86.5 M 84.8 80.1 C 84.4 79.3 85.3 79.7 84.8 80.1 M 84.5 91.0 C 84.1 90.3 85.0 90.7 84.5 91.0 M 84.8 62.9 C 84.5 63.0 85.0 61.7 84.8 62.9 M 81.2 71.5 C 81.3 70.5 81.9 69.5 81.9 71.6 C 81.6 71.7 81.5 71.1 81.2 71.5 C 81.2 71.5 81.2 71.5 81.2 71.5 Z M 83.7 67.9 C 83.8 67.7 83.8 67.7 83.7 67.9 M 80.2 69.7 C 80.3 69.6 80.3 69.6 80.2 69.7 M 80.3 63.8 C 80.5 63.6 80.5 63.6 80.3 63.8 M 80.0 63.0 C 80.0 63.0 80.0 63.0 80.0 63.0 C 80.0 63.0 80.0 63.0 80.0 63.0 Z M 79.6 56.5 C 79.6 56.5 79.6 56.5 79.6 56.5 C 79.6 56.5 79.6 56.5 79.6 56.5 Z M 80.4 65.7 C 80.5 65.7 80.5 65.7 80.4 65.7 C 80.4 65.7 80.4 65.7 80.4 65.7 Z M 84.6 60.3 C 84.7 60.3 84.7 60.3 84.6 60.3 C 84.6 60.3 84.6 60.3 84.6 60.3 Z M 84.0 61.0 C 84.0 61.0 84.0 61.0 84.0 61.0 C 84.0 61.0 84.0 61.0 84.0 61.0 Z M 79.8 89.9 C 79.0 89.0 81.7 89.4 79.8 89.9 M 84.0 58.1 C 84.7 57.2 84.1 59.6 84.0 58.1 C 84.0 58.1 84.0 58.1 84.0 58.1 Z M 81.4 66.4 C 81.5 66.3 81.5 66.3 81.4 66.4 M 80.1 62.6 C 80.2 62.6 80.2 62.6 80.1 62.6 M 79.3 79.9 C 79.4 79.9 79.4 79.9 79.3 79.9 M 80.3 58.1 C 80.6 55.3 81.9 59.3 80.3 58.1 M 80.3 81.2 C 80.2 81.3 80.2 81.3 80.3 81.2 M 82.3 75.0 C 82.3 73.1 83.0 75.6 82.3 75.0 M 81.0 70.3 C 81.0 70.3 81.0 70.3 81.0 70.3 C 81.0 70.3 81.0 70.3 81.0 70.3 Z M 81.0 73.0 C 81.1 74.4 80.7 73.3 81.0 73.0 C 81.0 73.0 81.0 73.0 81.0 73.0 Z M 80.8 88.6 C 81.0 86.9 81.2 90.4 80.8 88.6 C 80.8 88.6 80.8 88.6 80.8 88.6 Z M 82.8 59.3 C 82.9 59.4 82.9 59.4 82.8 59.3 C 82.8 59.3 82.8 59.3 82.8 59.3 Z M 79.7 66.0 C 80.0 66.8 79.4 66.4 79.7 66.0 C 79.7 66.0 79.7 66.0 79.7 66.0 Z M 79.6 55.5 C 79.8 56.3 79.2 55.9 79.6 55.5 C 79.6 55.5 79.6 55.5 79.6 55.5 Z M 80.6 90.7 C 82.4 84.3 80.2 99.3 80.6 90.7 C 80.6 90.7 80.6 90.7 80.6 90.7 Z M 80.2 71.9 C 80.3 71.9 80.3 71.9 80.2 71.9 C 80.2 71.9 80.2 71.9 80.2 71.9 Z M 79.5 83.8 C 79.5 83.8 79.5 83.8 79.5 83.8 C 79.5 83.8 79.5 83.8 79.5 83.8 Z M 80.5 85.8 C 80.5 85.8 80.5 85.8 80.5 85.8 C 80.5 85.8 80.5 85.8 80.5 85.8 Z M 84.7 85.2 C 84.8 85.3 84.8 85.3 84.7 85.2 C 84.7 85.2 84.7 85.2 84.7 85.2 Z M 82.8 84.5 C 82.9 84.6 82.9 84.6 82.8 84.5 C 82.8 84.5 82.8 84.5 82.8 84.5 Z M 83.5 88.7 C 83.6 88.7 83.6 88.7 83.5 88.7 C 83.5 88.7 83.5 88.7 83.5 88.7 Z M 84.1 88.6 C 84.1 88.6 84.1 88.6 84.1 88.6 C 84.1 88.6 84.1 88.6 84.1 88.6 Z M 81.3 62.6 C 81.4 62.7 81.4 62.7 81.3 62.6 C 81.3 62.6 81.3 62.6 81.3 62.6 Z M 83.1 64.9 C 82.4 63.4 84.0 65.3 83.1 64.9 C 83.1 64.9 83.1 64.9 83.1 64.9 Z M 82.2 78.1 C 82.0 76.8 82.8 79.0 82.2 78.1 C 82.2 78.1 82.2 78.1 82.2 78.1 Z M 84.5 76.7 C 84.5 76.6 84.5 76.6 84.5 76.7 C 84.5 76.7 84.5 76.7 84.5 76.7 Z M 79.4 85.8 C 79.6 85.8 79.6 85.8 79.4 85.8 C 79.4 85.8 79.4 85.8 79.4 85.8 Z M 80.2 88.3 C 81.1 88.4 79.7 89.1 80.2 88.3 M 79.7 75.6 C 79.8 75.6 79.8 75.6 79.7 75.6 C 79.7 75.6 79.7 75.6 79.7 75.6 Z M 81.1 67.5 C 81.1 67.5 81.1 67.5 81.1 67.5 C 81.1 67.5 81.1 67.5 81.1 67.5 Z M 80.5 59.5 C 80.6 59.6 80.6 59.6 80.5 59.5 C 80.5 59.5 80.5 59.5 80.5 59.5 Z M 79.8 70.6 C 79.9 70.6 79.9 70.6 79.8 70.6 C 79.8 70.6 79.8 70.6 79.8 70.6 Z M 80.6 74.4 C 80.7 74.4 80.7 74.4 80.6 74.4 C 80.6 74.4 80.6 74.4 80.6 74.4 Z M 81.8 57.8 C 81.8 57.8 81.8 57.8 81.8 57.8 C 81.8 57.8 81.8 57.8 81.8 57.8 Z M 79.6 69.7 C 79.7 69.7 79.7 69.7 79.6 69.7 C 79.6 69.7 79.6 69.7 79.6 69.7 Z M 82.5 67.4 C 82.6 67.4 82.6 67.4 82.5 67.4 C 82.5 67.4 82.5 67.4 82.5 67.4 Z M 78.9 88.0 C 78.9 88.0 78.9 88.0 78.9 88.0 C 78.9 88.0 78.9 88.0 78.9 88.0 Z M 80.6 57.7 C 80.6 57.7 80.6 57.7 80.6 57.7 C 80.6 57.7 80.6 57.7 80.6 57.7 Z M 79.8 57.2 C 79.8 57.2 79.8 57.2 79.8 57.2 C 79.8 57.2 79.8 57.2 79.8 57.2 Z M 84.0 62.9 C 83.5 65.7 83.8 60.3 82.9 62.4 C 82.6 58.3 84.1 62.3 84.0 62.9 C 84.0 62.9 84.0 62.9 84.0 62.9 Z M 79.4 53.4 C 80.6 55.0 81.8 55.0 83.1 54.3 C 83.7 53.5 81.3 53.5 83.3 53.5 C 83.7 55.3 86.4 52.7 83.7 52.8 C 83.4 50.4 85.4 52.4 84.4 51.0 C 84.1 48.5 84.9 49.7 84.7 47.8 C 83.3 46.7 85.5 46.7 84.1 46.2 C 85.6 47.1 83.7 44.1 84.4 44.0 C 85.3 45.8 84.4 37.3 83.9 41.9 C 83.2 40.0 84.5 40.4 84.6 39.8 C 83.8 38.9 85.3 36.7 84.5 35.5 C 84.3 35.7 84.2 36.3 83.9 36.5 C 83.4 36.8 84.0 35.2 84.0 35.3 C 83.7 34.6 82.8 31.5 84.4 34.8 C 85.1 34.9 84.0 32.1 84.7 32.2 C 84.7 29.4 83.2 31.5 84.3 30.3 C 84.3 28.3 84.3 26.8 84.2 26.8 C 84.3 25.6 85.2 25.4 84.4 24.3 C 85.9 21.8 81.3 22.5 84.4 21.6 C 83.7 20.9 85.7 20.2 83.8 20.3 C 84.7 21.2 84.9 15.4 83.8 18.0 C 83.2 17.4 84.6 13.3 83.0 14.4 C 81.2 13.7 80.2 14.7 79.4 17.0 C 80.4 16.6 78.7 19.5 80.2 17.5 C 80.5 15.5 81.2 21.1 80.5 19.9 C 78.2 19.6 81.9 22.8 80.3 24.1 C 81.2 23.1 81.6 28.0 79.9 26.5 C 79.8 27.4 80.6 27.7 79.6 28.6 C 79.8 25.7 81.4 29.8 80.3 29.6 C 79.7 29.1 79.2 33.5 80.1 33.0 C 82.5 31.5 79.7 34.2 80.6 34.9 C 81.1 37.3 78.6 34.5 80.3 36.3 C 80.0 36.8 80.0 40.0 79.5 38.0 C 79.8 37.2 82.1 39.9 80.1 40.2 C 79.0 36.8 79.5 44.2 80.1 43.0 C 81.2 37.7 81.3 48.6 80.2 44.5 C 79.2 46.8 79.8 43.8 80.3 46.7 C 80.9 46.3 81.5 48.6 80.3 48.1 C 78.4 48.5 82.8 48.9 80.2 50.7 C 79.1 50.9 81.0 54.2 79.8 52.9 C 79.6 52.8 79.4 53.3 79.4 53.4 M 79.7 52.4 C 80.1 52.7 79.1 53.0 79.7 52.4 M 80.1 52.8 C 80.0 52.8 80.0 52.8 80.1 52.8 C 80.1 52.8 80.1 52.8 80.1 52.8 Z M 80.4 47.1 C 80.3 47.2 80.3 47.2 80.4 47.1 C 80.4 47.1 80.4 47.1 80.4 47.1 Z M 85.1 42.7 C 85.0 42.7 85.0 42.7 85.1 42.7 C 85.1 42.7 85.1 42.7 85.1 42.7 Z M 80.5 43.4 C 80.5 43.4 80.5 43.4 80.5 43.4 C 80.5 43.4 80.5 43.4 80.5 43.4 Z M 80.7 49.2 C 80.6 49.2 80.6 49.2 80.7 49.2 C 80.7 49.2 80.7 49.2 80.7 49.2 Z M 79.8 43.7 C 80.5 43.4 79.2 45.0 79.7 43.7 C 79.7 43.6 79.7 43.9 79.8 43.7 M 79.5 38.8 C 79.6 38.8 79.6 38.8 79.5 38.8 M 85.1 28.0 C 85.1 28.0 85.1 28.0 85.1 28.0 M 79.4 27.1 C 79.5 27.0 79.5 27.0 79.4 27.1 M 80.2 34.0 C 80.1 32.4 80.6 33.6 80.2 34.0 M 79.8 23.2 C 79.4 25.0 79.4 21.1 79.8 23.2 M 79.4 21.3 C 79.5 21.2 79.5 21.2 79.4 21.3 M 79.7 29.8 C 79.7 29.9 79.7 29.9 79.7 29.8 C 79.7 29.8 79.7 29.8 79.7 29.8 Z M 79.9 34.6 C 79.5 36.5 79.3 32.6 79.9 34.6 M 79.7 46.5 C 79.3 45.4 80.6 46.5 79.7 46.5 M 80.1 48.7 C 80.1 48.7 80.1 48.7 80.1 48.7 C 80.1 48.7 80.1 48.7 80.1 48.7 Z M 79.8 26.2 C 79.8 26.3 79.8 26.3 79.8 26.2 C 79.8 26.2 79.8 26.2 79.8 26.2 Z M 79.7 24.0 C 79.7 24.1 79.7 24.1 79.7 24.0 C 79.7 24.0 79.7 24.0 79.7 24.0 Z M 84.9 20.4 C 84.9 20.5 84.9 20.5 84.9 20.4 C 84.9 20.4 84.9 20.4 84.9 20.4 Z M 82.2 47.1 C 81.9 48.5 80.5 45.6 81.8 45.9 C 82.3 45.7 82.1 46.9 82.2 47.1 M 81.5 36.0 C 83.3 35.6 79.1 37.4 81.5 36.0 M 80.6 21.1 C 82.7 19.6 79.1 22.9 80.6 21.1 M 80.1 18.3 C 80.4 17.5 80.7 23.1 79.9 19.2 C 79.5 18.9 79.9 18.6 80.1 18.3 M 80.3 38.8 C 81.3 38.3 79.9 41.1 80.3 38.8 M 83.3 29.7 C 82.7 29.0 82.1 27.2 83.2 28.0 C 84.6 28.0 83.8 30.6 83.3 29.7 M 80.7 51.9 C 79.1 50.7 82.0 52.0 80.7 51.9 M 80.8 46.2 C 80.7 46.2 80.7 46.2 80.8 46.2 C 80.8 46.2 80.8 46.2 80.8 46.2 Z M 80.5 44.0 C 80.7 43.8 80.7 43.8 80.5 44.0 M 79.3 51.0 C 79.4 50.9 79.4 50.9 79.3 51.0 M 81.7 29.8 C 81.8 29.7 81.8 29.7 81.7 29.8 M 80.6 34.4 C 82.2 32.2 80.9 35.6 80.6 34.4 M 83.6 39.8 C 84.3 39.1 83.7 41.1 83.6 39.8 M 80.0 30.8 C 81.5 29.2 81.4 32.9 80.0 30.8 M 80.5 35.5 C 80.5 35.3 80.5 35.3 80.5 35.5 C 80.5 35.5 80.5 35.5 80.5 35.5 Z M 83.5 29.2 C 83.5 29.2 83.5 29.2 83.5 29.2 C 83.5 29.2 83.5 29.2 83.5 29.2 Z M 83.4 28.5 C 83.4 28.6 83.4 28.6 83.4 28.5 C 83.4 28.5 83.4 28.5 83.4 28.5 Z M 79.9 28.8 C 79.9 28.9 79.9 28.9 79.9 28.8 C 79.9 28.8 79.9 28.8 79.9 28.8 Z M 84.1 48.9 C 84.2 47.3 84.4 50.1 84.1 48.9 C 84.1 48.9 84.1 48.9 84.1 48.9 Z M 79.8 41.9 C 81.0 39.4 80.9 43.7 79.8 41.9 C 79.8 41.9 79.8 41.9 79.8 41.9 Z M 81.7 39.0 C 81.8 39.0 81.8 39.0 81.7 39.0 C 81.7 39.0 81.7 39.0 81.7 39.0 Z M 79.1 31.8 C 79.2 31.8 79.2 31.8 79.1 31.8 C 79.1 31.8 79.1 31.8 79.1 31.8 Z M 84.3 48.1 C 84.4 48.1 84.4 48.1 84.3 48.1 C 84.3 48.1 84.3 48.1 84.3 48.1 Z M 80.7 24.4 C 80.7 24.4 80.7 24.4 80.7 24.4 C 80.7 24.4 80.7 24.4 80.7 24.4 Z M 83.7 33.4 C 83.1 32.8 84.1 33.3 83.7 33.4 C 83.7 33.4 83.7 33.4 83.7 33.4 Z M 83.7 31.0 C 83.7 31.0 83.7 31.0 83.7 31.0 C 83.7 31.0 83.7 31.0 83.7 31.0 Z M 79.3 20.8 C 79.3 20.7 79.3 20.7 79.3 20.8 C 79.3 20.8 79.3 20.8 79.3 20.8 Z M 85.1 25.1 C 85.1 25.0 85.1 25.0 85.1 25.1 C 85.1 25.1 85.1 25.1 85.1 25.1 Z M 83.4 23.2 C 83.4 23.2 83.4 23.2 83.4 23.2 C 83.4 23.2 83.4 23.2 83.4 23.2 Z M 80.2 29.3 C 79.9 26.9 80.9 29.8 80.2 29.3 C 80.2 29.3 80.2 29.3 80.2 29.3 Z M 82.6 17.2 C 82.7 17.1 82.7 17.1 82.6 17.2 C 82.6 17.2 82.6 17.2 82.6 17.2 Z M 80.4 16.5 C 80.5 16.4 80.5 16.4 80.4 16.5 C 80.4 16.5 80.4 16.5 80.4 16.5 Z M 79.2 16.3 C 79.3 16.2 79.3 16.2 79.2 16.3 C 79.2 16.3 79.2 16.3 79.2 16.3 Z M 82.7 44.0 C 82.6 44.0 82.6 44.0 82.7 44.0 C 82.7 44.0 82.7 44.0 82.7 44.0 Z M 79.4 44.9 C 79.4 44.9 79.4 44.9 79.4 44.9 C 79.4 44.9 79.4 44.9 79.4 44.9 Z M 79.3 41.8 C 79.2 41.8 79.2 41.8 79.3 41.8 C 79.3 41.8 79.3 41.8 79.3 41.8 Z M 84.7 44.6 C 84.7 44.6 84.7 44.6 84.7 44.6 C 84.7 44.6 84.7 44.6 84.7 44.6 Z M 81.9 32.7 C 81.8 32.8 81.8 32.8 81.9 32.7 C 81.9 32.7 81.9 32.7 81.9 32.7 Z M 83.2 31.6 C 83.2 31.7 83.2 31.7 83.2 31.6 C 83.2 31.6 83.2 31.6 83.2 31.6 Z M 85.0 34.4 C 85.0 34.4 85.0 34.4 85.0 34.4 C 85.0 34.4 85.0 34.4 85.0 34.4 Z M 84.4 30.8 C 84.4 30.8 84.4 30.8 84.4 30.8 C 84.4 30.8 84.4 30.8 84.4 30.8 Z M 84.1 52.5 C 84.1 52.5 84.1 52.5 84.1 52.5 C 84.1 52.5 84.1 52.5 84.1 52.5 Z M 81.6 52.7 C 81.6 52.8 81.6 52.8 81.6 52.7 C 81.6 52.7 81.6 52.7 81.6 52.7 Z M 80.1 32.4 C 79.5 31.8 80.8 31.3 80.1 32.4 M 80.4 36.9 C 80.4 36.9 80.4 36.9 80.4 36.9 C 80.4 36.9 80.4 36.9 80.4 36.9 Z M 80.2 24.8 C 81.2 24.2 79.7 26.9 80.2 24.8 C 80.2 24.8 80.2 24.8 80.2 24.8 Z M 84.4 27.2 C 84.4 27.1 84.4 27.1 84.4 27.2 C 84.4 27.2 84.4 27.2 84.4 27.2 Z M 83.9 26.0 C 84.0 25.9 84.0 25.9 83.9 26.0 C 83.9 26.0 83.9 26.0 83.9 26.0 Z M 81.2 19.5 C 81.3 19.4 81.3 19.4 81.2 19.5 M 79.5 37.5 C 79.9 36.8 79.9 36.9 79.5 37.5 M 80.2 23.3 C 80.2 23.4 80.2 23.4 80.2 23.3 C 80.2 23.3 80.2 23.3 80.2 23.3 Z M 80.6 18.2 C 80.6 18.3 80.6 18.3 80.6 18.2 C 80.6 18.2 80.6 18.2 80.6 18.2 Z M 80.2 40.7 C 81.4 40.5 81.1 41.2 80.2 40.7 M 80.6 49.6 C 80.6 49.6 80.6 49.6 80.6 49.6 C 80.6 49.6 80.6 49.6 80.6 49.6 Z M 77.6 12.8 C 77.6 15.2 79.1 14.3 79.1 14.3 C 76.7 15.2 80.8 15.8 81.1 15.2 C 81.5 15.1 84.7 11.1 81.4 11.0 C 80.8 10.7 81.3 10.1 81.1 9.7 C 79.1 7.1 81.5 12.1 79.0 9.3 C 78.8 8.5 80.9 7.4 78.1 7.0 C 78.2 6.8 76.4 4.6 76.7 5.9 C 76.2 4.4 74.8 5.0 73.7 4.7 C 72.9 3.8 75.1 3.2 70.9 3.5 C 69.6 1.4 68.4 4.4 67.0 2.4 C 66.2 2.4 64.8 5.6 66.9 3.8 C 66.6 4.0 67.8 5.5 65.1 4.9 C 65.5 4.5 67.0 1.3 62.6 2.8 C 61.9 2.8 60.3 3.6 59.9 3.2 C 62.1 2.9 56.8 1.8 57.3 2.8 C 53.9 2.1 55.9 3.6 53.3 2.5 C 51.3 2.5 54.0 4.0 51.5 3.1 C 49.5 3.3 50.8 2.5 51.0 2.5 C 49.4 2.4 48.7 2.9 48.2 2.9 C 47.8 2.7 47.0 2.1 46.6 2.9 C 44.9 4.3 46.5 5.8 45.7 7.3 C 47.0 8.0 46.3 6.2 47.2 7.3 C 47.8 6.3 47.3 7.3 50.8 7.1 C 50.7 6.9 49.8 6.3 50.7 6.2 C 52.1 6.3 51.1 8.8 53.4 7.0 C 50.7 6.5 57.1 6.2 54.6 5.7 C 57.7 5.4 55.5 5.9 57.8 6.5 C 57.6 4.8 57.9 8.3 58.8 6.9 C 59.0 7.6 62.5 7.3 60.0 6.3 C 63.7 5.9 61.3 6.8 62.7 7.7 C 64.4 7.8 62.8 5.0 63.8 7.0 C 66.0 8.0 63.9 6.0 65.5 7.6 C 64.8 6.2 67.2 7.7 66.5 6.1 C 70.3 6.0 66.1 7.6 68.6 6.7 C 67.9 6.6 67.9 8.6 69.5 7.6 C 69.3 5.0 70.8 10.1 70.5 6.7 C 75.4 6.9 71.0 8.0 73.1 9.1 C 73.6 9.4 72.9 7.8 73.5 8.1 C 76.1 10.0 73.2 9.3 75.5 9.1 C 78.4 10.7 75.4 10.7 76.3 11.8 C 77.0 11.4 78.8 11.6 77.6 12.8 M 76.4 10.2 C 75.5 10.1 76.4 9.6 76.4 10.2 M 79.1 15.8 C 78.4 15.4 79.5 15.3 79.1 15.8 M 74.0 9.0 C 73.0 9.0 74.2 8.1 74.0 9.0 M 55.7 6.3 C 57.1 6.3 55.1 6.7 55.7 6.3 M 78.0 13.7 C 77.0 13.2 78.6 13.0 78.0 13.7 M 79.7 14.1 C 79.7 14.0 79.7 14.0 79.7 14.1 M 53.8 7.6 C 53.7 7.6 53.7 7.6 53.8 7.6 M 59.1 7.6 C 57.9 7.6 59.7 7.3 59.1 7.6 M 59.3 2.2 C 58.1 2.2 59.9 1.9 59.3 2.2 M 50.9 7.7 C 49.7 8.1 50.5 7.1 50.9 7.7 M 47.9 6.5 C 46.9 7.0 47.2 5.9 47.9 6.5 M 78.1 9.3 C 78.2 9.3 78.2 9.3 78.1 9.3 C 78.1 9.3 78.1 9.3 78.1 9.3 Z M 69.8 3.6 C 71.0 4.3 68.3 2.7 69.8 3.6 M 70.8 7.4 C 70.4 6.2 72.0 7.8 70.8 7.4 C 70.8 7.4 70.8 7.4 70.8 7.4 Z M 72.4 7.4 C 72.4 7.4 72.4 7.4 72.4 7.4 C 72.4 7.4 72.4 7.4 72.4 7.4 Z M 67.5 6.3 C 67.5 6.3 67.5 6.3 67.5 6.3 C 67.5 6.3 67.5 6.3 67.5 6.3 Z M 68.5 6.3 C 69.0 6.1 69.1 6.6 68.5 6.3 C 68.5 6.3 68.5 6.3 68.5 6.3 Z M 60.6 2.8 C 61.1 2.6 61.2 3.0 60.6 2.8 C 60.6 2.8 60.6 2.8 60.6 2.8 Z M 70.2 6.2 C 70.6 5.2 70.8 7.1 70.2 6.2 C 70.2 6.2 70.2 6.2 70.2 6.2 Z M 64.5 3.3 C 64.0 3.6 63.4 2.2 64.5 3.3 M 52.6 7.4 C 52.2 7.7 51.6 6.4 52.6 7.4 M 64.3 7.7 C 63.8 8.0 63.2 6.7 64.3 7.7 M 75.6 10.2 C 75.6 10.1 75.6 10.1 75.6 10.2 M 72.2 3.1 C 71.3 3.2 71.9 2.5 72.2 3.1 M 81.8 10.7 C 81.0 10.2 82.0 10.1 81.8 10.7 M 54.3 2.4 C 54.3 2.6 53.1 2.2 54.3 2.4 M 62.9 6.0 C 61.9 5.8 60.8 5.2 63.0 5.3 C 63.1 5.6 62.4 5.7 62.9 6.0 C 62.9 6.0 62.9 6.0 62.9 6.0 Z M 59.2 3.5 C 59.1 3.4 59.1 3.4 59.2 3.5 M 61.1 7.0 C 60.9 6.9 60.9 6.9 61.1 7.0 M 55.1 6.9 C 55.0 6.7 55.0 6.7 55.1 6.9 M 54.4 7.2 C 54.4 7.1 54.4 7.1 54.4 7.2 C 54.4 7.2 54.4 7.2 54.4 7.2 Z M 47.9 7.6 C 47.9 7.6 47.9 7.6 47.9 7.6 C 47.9 7.6 47.9 7.6 47.9 7.6 Z M 57.0 6.7 C 57.1 6.7 57.1 6.7 57.0 6.7 C 57.0 6.7 57.0 6.7 57.0 6.7 Z M 51.7 2.6 C 51.6 2.5 51.6 2.5 51.7 2.6 C 51.7 2.6 51.7 2.6 51.7 2.6 Z M 52.3 3.2 C 52.3 3.2 52.3 3.2 52.3 3.2 C 52.3 3.2 52.3 3.2 52.3 3.2 Z M 77.3 12.5 C 76.3 12.3 78.6 11.0 77.3 12.5 M 49.4 3.2 C 48.6 2.5 51.0 3.1 49.4 3.2 C 49.4 3.2 49.4 3.2 49.4 3.2 Z M 57.7 5.8 C 57.7 5.7 57.7 5.7 57.7 5.8 M 54.0 7.1 C 53.9 6.9 53.9 6.9 54.0 7.1 M 70.5 8.4 C 70.5 8.2 70.5 8.2 70.5 8.4 M 49.4 6.9 C 46.7 6.6 50.7 5.3 49.4 6.9 M 71.9 7.7 C 71.9 7.8 71.9 7.8 71.9 7.7 M 66.4 4.8 C 64.5 4.9 67.0 4.2 66.4 4.8 M 61.6 6.2 C 61.7 6.1 61.7 6.1 61.6 6.2 C 61.6 6.2 61.6 6.2 61.6 6.2 Z M 64.4 6.2 C 65.7 6.0 64.7 6.5 64.4 6.2 C 64.4 6.2 64.4 6.2 64.4 6.2 Z M 77.4 11.0 C 76.5 9.7 78.7 11.9 77.4 11.0 C 77.4 11.0 77.4 11.0 77.4 11.0 Z M 50.7 4.3 C 50.8 4.2 50.8 4.2 50.7 4.3 C 50.7 4.3 50.7 4.3 50.7 4.3 Z M 57.4 7.5 C 58.2 7.2 57.8 7.8 57.4 7.5 C 57.4 7.5 57.4 7.5 57.4 7.5 Z M 46.9 7.6 C 47.7 7.3 47.3 7.9 46.9 7.6 C 46.9 7.6 46.9 7.6 46.9 7.6 Z M 78.4 12.5 C 76.8 6.9 82.1 19.0 78.4 12.5 C 78.4 12.5 78.4 12.5 78.4 12.5 Z M 63.3 6.9 C 63.3 6.9 63.3 6.9 63.3 6.9 C 63.3 6.9 63.3 6.9 63.3 6.9 Z M 73.4 9.4 C 73.5 9.4 73.5 9.4 73.4 9.4 C 73.4 9.4 73.4 9.4 73.4 9.4 Z M 75.4 9.5 C 75.4 9.5 75.4 9.5 75.4 9.5 C 75.4 9.5 75.4 9.5 75.4 9.5 Z M 77.5 5.8 C 77.6 5.8 77.6 5.8 77.5 5.8 C 77.5 5.8 77.5 5.8 77.5 5.8 Z M 75.8 7.0 C 75.9 6.9 75.9 6.9 75.8 7.0 C 75.8 7.0 75.8 7.0 75.8 7.0 Z M 79.5 9.2 C 79.6 9.2 79.6 9.2 79.5 9.2 C 79.5 9.2 79.5 9.2 79.5 9.2 Z M 79.8 8.8 C 79.9 8.8 79.9 8.8 79.8 8.8 C 79.8 8.8 79.8 8.8 79.8 8.8 Z M 54.0 5.9 C 54.1 5.8 54.1 5.8 54.0 5.9 C 54.0 5.9 54.0 5.9 54.0 5.9 Z M 56.2 4.1 C 54.7 4.7 56.7 3.2 56.2 4.1 C 56.2 4.1 56.2 4.1 56.2 4.1 Z M 69.6 5.2 C 68.2 5.2 70.6 4.8 69.6 5.2 C 69.6 5.2 69.6 5.2 69.6 5.2 Z M 68.2 2.7 C 68.2 2.7 68.2 2.7 68.2 2.7 C 68.2 2.7 68.2 2.7 68.2 2.7 Z M 74.7 10.3 C 74.8 10.3 74.8 10.3 74.7 10.3 C 74.7 10.3 74.7 10.3 74.7 10.3 Z M 76.7 11.2 C 77.5 10.7 76.9 12.0 76.7 11.2 M 67.0 7.5 C 67.0 7.4 67.0 7.4 67.0 7.5 C 67.0 7.5 67.0 7.5 67.0 7.5 Z M 58.9 6.1 C 58.9 6.0 58.9 6.0 58.9 6.1 C 58.9 6.1 58.9 6.1 58.9 6.1 Z M 50.9 6.7 C 50.9 6.6 50.9 6.6 50.9 6.7 C 50.9 6.7 50.9 6.7 50.9 6.7 Z M 61.9 7.4 C 62.0 7.3 62.0 7.3 61.9 7.4 C 61.9 7.4 61.9 7.4 61.9 7.4 Z M 65.7 6.6 C 65.8 6.5 65.8 6.5 65.7 6.6 C 65.7 6.6 65.7 6.6 65.7 6.6 Z M 49.1 5.4 C 49.2 5.4 49.2 5.4 49.1 5.4 C 49.1 5.4 49.1 5.4 49.1 5.4 Z M 61.0 7.5 C 61.1 7.5 61.1 7.5 61.0 7.5 C 61.0 7.5 61.0 7.5 61.0 7.5 Z M 58.7 4.7 C 58.8 4.6 58.8 4.6 58.7 4.7 C 58.7 4.7 58.7 4.7 58.7 4.7 Z M 75.6 11.9 C 75.7 11.8 75.7 11.8 75.6 11.9 C 75.6 11.9 75.6 11.9 75.6 11.9 Z M 49.1 6.6 C 49.1 6.6 49.1 6.6 49.1 6.6 C 49.1 6.6 49.1 6.6 49.1 6.6 Z M 48.6 7.4 C 48.6 7.4 48.6 7.4 48.6 7.4 C 48.6 7.4 48.6 7.4 48.6 7.4 Z M 54.2 3.1 C 57.0 3.7 51.7 3.3 53.8 4.3 C 49.7 4.6 53.6 3.1 54.2 3.1 C 54.2 3.1 54.2 3.1 54.2 3.1 Z M 44.8 7.7 C 46.4 6.5 46.3 5.4 45.7 4.1 C 44.9 3.5 44.9 5.9 44.9 3.9 C 46.7 3.5 44.1 0.8 44.1 3.4 C 41.8 3.8 43.8 1.7 42.3 2.8 C 39.8 3.1 41.1 2.2 39.2 2.4 C 38.0 3.9 38.1 1.7 37.6 3.1 C 38.5 1.6 35.5 3.5 35.4 2.8 C 37.2 1.9 28.7 2.8 33.3 3.2 C 31.4 3.9 31.8 2.7 31.1 2.5 C 30.3 3.4 28.0 1.8 26.9 2.7 C 27.1 2.9 27.7 3.0 27.9 3.2 C 28.2 3.8 26.5 3.1 26.7 3.2 C 26.0 3.5 22.9 4.4 26.2 2.8 C 26.3 2.1 23.5 3.2 23.6 2.5 C 20.8 2.5 22.9 3.9 21.7 2.9 C 19.6 2.8 17.9 3.0 17.9 3.1 C 16.5 3.1 16.0 2.4 15.0 3.6 C 11.8 2.9 14.5 6.9 12.1 4.6 C 11.8 5.6 10.1 4.3 11.2 5.9 C 11.5 4.6 6.7 7.5 9.4 7.1 C 9.2 7.8 5.0 8.8 6.9 9.6 C 7.2 11.4 8.6 11.7 11.0 11.2 C 10.0 10.6 13.4 10.6 10.9 10.3 C 9.1 11.0 13.2 7.7 12.7 8.9 C 13.7 10.9 14.5 6.3 16.0 7.5 C 14.9 6.9 19.1 5.5 18.2 7.4 C 19.0 7.4 19.0 6.6 20.0 7.6 C 17.1 7.4 21.1 5.8 21.0 6.8 C 20.5 7.5 24.9 8.0 24.4 7.0 C 22.9 4.7 25.5 7.5 26.3 6.6 C 28.7 6.1 25.9 8.6 27.7 6.9 C 28.2 7.2 31.4 7.2 29.4 7.6 C 28.6 7.4 31.3 5.1 31.6 7.1 C 28.2 8.2 35.6 7.7 34.4 7.1 C 29.1 6.0 40.0 5.8 35.9 6.9 C 38.2 8.0 35.2 7.4 38.1 6.9 C 37.7 6.3 40.0 5.7 39.4 6.9 C 39.9 8.8 40.2 4.4 42.0 7.0 C 42.3 8.1 45.6 6.2 44.3 7.4 C 44.2 7.5 44.7 7.8 44.8 7.7 M 43.7 7.5 C 44.1 7.1 44.4 8.1 43.7 7.5 M 44.2 7.1 C 44.2 7.1 44.2 7.1 44.2 7.1 C 44.2 7.1 44.2 7.1 44.2 7.1 Z M 38.5 6.8 C 38.6 6.9 38.6 6.9 38.5 6.8 C 38.5 6.8 38.5 6.8 38.5 6.8 Z M 34.1 2.1 C 34.1 2.1 34.1 2.1 34.1 2.1 C 34.1 2.1 34.1 2.1 34.1 2.1 Z M 34.8 6.7 C 34.8 6.7 34.8 6.7 34.8 6.7 C 34.8 6.7 34.8 6.7 34.8 6.7 Z M 40.5 6.5 C 40.6 6.5 40.6 6.5 40.5 6.5 C 40.5 6.5 40.5 6.5 40.5 6.5 Z M 35.1 7.4 C 34.8 6.7 36.4 7.9 35.0 7.5 C 35.0 7.5 35.2 7.5 35.1 7.4 M 30.2 7.7 C 30.2 7.6 30.2 7.6 30.2 7.7 M 19.2 2.1 C 19.2 2.1 19.2 2.1 19.2 2.1 M 18.7 7.8 C 18.6 7.7 18.6 7.7 18.7 7.8 M 25.3 7.0 C 23.8 7.1 24.9 6.6 25.3 7.0 M 15.4 8.2 C 17.1 8.0 14.0 9.1 15.4 8.2 M 14.2 9.2 C 14.1 9.2 14.1 9.2 14.2 9.2 M 21.2 7.5 C 21.3 7.4 21.3 7.4 21.2 7.5 C 21.2 7.5 21.2 7.5 21.2 7.5 Z M 25.9 7.3 C 27.9 7.6 24.0 7.9 25.9 7.3 M 37.9 7.5 C 36.8 7.9 37.9 6.6 37.9 7.5 M 40.1 7.1 C 40.1 7.1 40.1 7.1 40.1 7.1 C 40.1 7.1 40.1 7.1 40.1 7.1 Z M 17.9 7.6 C 18.0 7.5 18.0 7.5 17.9 7.6 C 17.9 7.6 17.9 7.6 17.9 7.6 Z M 16.2 8.1 C 16.2 8.1 16.2 8.1 16.2 8.1 C 16.2 8.1 16.2 8.1 16.2 8.1 Z M 10.8 4.9 C 10.8 4.8 10.8 4.8 10.8 4.9 C 10.8 4.9 10.8 4.9 10.8 4.9 Z M 38.4 4.9 C 39.9 5.3 36.9 6.6 37.2 5.4 C 37.1 4.8 38.3 5.1 38.4 4.9 M 27.4 5.7 C 27.0 3.9 28.8 8.1 27.4 5.7 M 13.5 8.3 C 11.4 7.0 15.6 8.8 13.5 8.3 M 11.6 10.0 C 10.8 10.1 15.1 7.1 12.5 9.7 C 12.4 10.2 11.9 10.0 11.6 10.0 M 30.1 6.8 C 29.7 5.8 32.5 7.3 30.1 6.8 M 21.1 3.9 C 20.4 4.5 18.4 5.1 19.3 4.0 C 19.2 2.6 22.0 3.4 21.1 3.9 M 43.3 6.5 C 42.1 8.1 43.3 5.2 43.3 6.5 M 37.6 6.4 C 37.6 6.5 37.6 6.5 37.6 6.4 C 37.6 6.4 37.6 6.4 37.6 6.4 Z M 35.3 6.6 C 35.2 6.5 35.2 6.5 35.3 6.6 M 42.4 7.9 C 42.3 7.8 42.3 7.8 42.4 7.9 M 21.1 5.5 C 21.0 5.4 21.0 5.4 21.1 5.5 M 25.7 6.6 C 23.6 5.0 26.9 6.2 25.7 6.6 M 31.1 3.6 C 30.5 2.8 32.5 3.5 31.1 3.6 M 22.1 7.1 C 20.6 5.7 24.3 5.8 22.1 7.1 M 26.8 6.7 C 26.7 6.7 26.7 6.7 26.8 6.7 C 26.8 6.7 26.8 6.7 26.8 6.7 Z M 20.5 3.7 C 20.6 3.7 20.6 3.7 20.5 3.7 C 20.5 3.7 20.5 3.7 20.5 3.7 Z M 19.8 3.8 C 19.9 3.8 19.9 3.8 19.8 3.8 C 19.8 3.8 19.8 3.8 19.8 3.8 Z M 20.2 7.3 C 20.3 7.3 20.3 7.3 20.2 7.3 C 20.2 7.3 20.2 7.3 20.2 7.3 Z M 40.2 3.0 C 38.7 2.9 41.4 2.8 40.2 3.0 C 40.2 3.0 40.2 3.0 40.2 3.0 Z M 33.3 7.4 C 30.7 6.2 35.1 6.3 33.3 7.4 C 33.3 7.4 33.3 7.4 33.3 7.4 Z M 30.4 5.5 C 30.4 5.4 30.4 5.4 30.4 5.5 C 30.4 5.5 30.4 5.5 30.4 5.5 Z M 23.1 8.1 C 23.1 8.0 23.1 8.0 23.1 8.1 C 23.1 8.1 23.1 8.1 23.1 8.1 Z M 39.4 2.8 C 39.4 2.8 39.4 2.8 39.4 2.8 C 39.4 2.8 39.4 2.8 39.4 2.8 Z M 16.2 7.1 C 16.2 7.0 16.2 7.0 16.2 7.1 C 16.2 7.1 16.2 7.1 16.2 7.1 Z M 24.7 3.5 C 24.2 4.1 24.6 3.0 24.7 3.5 C 24.7 3.5 24.7 3.5 24.7 3.5 Z M 22.4 3.5 C 22.4 3.5 22.4 3.5 22.4 3.5 C 22.4 3.5 22.4 3.5 22.4 3.5 Z M 13.9 9.5 C 13.9 9.5 13.9 9.5 13.9 9.5 C 13.9 9.5 13.9 9.5 13.9 9.5 Z M 15.8 2.6 C 15.7 2.6 15.7 2.6 15.8 2.6 C 15.8 2.6 15.8 2.6 15.8 2.6 Z M 14.2 4.9 C 14.2 4.9 14.2 4.9 14.2 4.9 C 14.2 4.9 14.2 4.9 14.2 4.9 Z M 20.6 7.0 C 18.3 7.2 21.2 6.3 20.6 7.0 C 20.6 7.0 20.6 7.0 20.6 7.0 Z M 9.4 8.4 C 9.2 8.4 9.2 8.4 9.4 8.4 C 9.4 8.4 9.4 8.4 9.4 8.4 Z M 10.0 10.6 C 9.9 10.6 9.9 10.6 10.0 10.6 C 10.0 10.6 10.0 10.6 10.0 10.6 Z M 10.4 11.7 C 10.3 11.7 10.3 11.7 10.4 11.7 C 10.4 11.7 10.4 11.7 10.4 11.7 Z M 35.4 4.5 C 35.4 4.5 35.4 4.5 35.4 4.5 C 35.4 4.5 35.4 4.5 35.4 4.5 Z M 36.3 7.8 C 36.3 7.8 36.3 7.8 36.3 7.8 C 36.3 7.8 36.3 7.8 36.3 7.8 Z M 33.1 7.9 C 33.2 7.9 33.2 7.9 33.1 7.9 C 33.1 7.9 33.1 7.9 33.1 7.9 Z M 35.9 2.5 C 36.0 2.5 36.0 2.5 35.9 2.5 C 35.9 2.5 35.9 2.5 35.9 2.5 Z M 24.1 5.3 C 24.2 5.3 24.2 5.3 24.1 5.3 C 24.1 5.3 24.1 5.3 24.1 5.3 Z M 23.0 3.9 C 23.1 4.0 23.1 4.0 23.0 3.9 C 23.0 3.9 23.0 3.9 23.0 3.9 Z M 25.7 2.2 C 25.8 2.2 25.8 2.2 25.7 2.2 C 25.7 2.2 25.7 2.2 25.7 2.2 Z M 22.1 2.8 C 22.2 2.8 22.2 2.8 22.1 2.8 C 22.1 2.8 22.1 2.8 22.1 2.8 Z M 43.9 3.1 C 43.9 3.1 43.9 3.1 43.9 3.1 C 43.9 3.1 43.9 3.1 43.9 3.1 Z M 44.1 5.6 C 44.1 5.5 44.1 5.5 44.1 5.6 C 44.1 5.6 44.1 5.6 44.1 5.6 Z M 23.8 7.1 C 23.2 7.6 22.7 6.4 23.8 7.1 M 28.3 6.8 C 28.3 6.7 28.3 6.7 28.3 6.8 C 28.3 6.8 28.3 6.8 28.3 6.8 Z M 16.6 7.4 C 15.9 6.6 18.6 7.5 16.6 7.4 C 16.6 7.4 16.6 7.4 16.6 7.4 Z M 18.3 2.9 C 18.3 2.9 18.3 2.9 18.3 2.9 C 18.3 2.9 18.3 2.9 18.3 2.9 Z M 17.0 3.5 C 16.9 3.4 16.9 3.4 17.0 3.5 C 17.0 3.5 17.0 3.5 17.0 3.5 Z M 12.0 8.4 C 11.8 8.4 11.8 8.4 12.0 8.4 M 28.8 7.7 C 28.2 7.2 28.3 7.3 28.8 7.7 M 15.4 7.8 C 15.4 7.7 15.4 7.7 15.4 7.8 C 15.4 7.8 15.4 7.8 15.4 7.8 Z M 11.3 9.7 C 11.3 9.6 11.3 9.6 11.3 9.7 C 11.3 9.7 11.3 9.7 11.3 9.7 Z M 32.0 7.0 C 31.9 5.8 32.5 6.1 32.0 7.0 M 41.0 6.6 C 41.0 6.5 41.0 6.5 41.0 6.6 C 41.0 6.6 41.0 6.6 41.0 6.6 Z M 41.0 6.6 " fill="#F38F18"></path></g></svg>