<?xml version="1.0" encoding="UTF-8" standalone="no"?><svg xmlns="http://www.w3.org/2000/svg" xmlns:xlink="http://www.w3.org/1999/xlink" clip-rule="evenodd" stroke-miterlimit="4.00" viewBox="0 0 572 73"><desc>SVG generated by Keynote</desc><defs></defs><g transform="matrix(1.00, 0.00, -0.00, -1.00, 0.0, 73.0)"><path d="M 5.8 66.8 L 566.2 66.8 L 566.2 6.2 L 5.8 6.2 Z M 5.8 66.8 " fill="#FEFFFF"></path><path d="M 6.8 63.9 C 5.5 63.9 3.6 64.2 3.4 66.2 C 3.2 68.2 4.7 69.7 6.7 69.7 C 8.7 69.7 8.2 68.6 12.9 68.6 C 14.7 68.6 14.8 65.0 13.0 65.0 C 8.8 65.0 9.3 63.9 6.8 63.9 C 6.8 63.9 6.8 63.9 6.8 63.9 Z M 564.9 69.7 C 565.4 69.7 565.8 69.7 566.2 69.6 L 569.0 66.8 C 568.7 65.2 567.8 64.6 566.2 64.5 C 564.6 64.5 563.7 65.4 563.4 66.8 L 566.2 64.0 C 565.8 63.9 565.4 63.9 564.9 63.9 C 562.8 63.9 562.9 65.0 559.2 65.0 C 557.2 64.9 557.5 68.6 559.1 68.6 C 563.1 68.6 562.5 69.7 564.9 69.7 C 564.9 69.7 564.9 69.7 564.9 69.7 Z M 13.1 65.0 C 11.4 65.0 11.3 68.7 13.4 68.7 C 15.6 68.7 20.3 68.0 21.6 68.1 C 22.8 68.2 26.2 68.9 27.3 68.9 C 28.4 68.9 33.7 67.8 35.9 68.1 C 38.2 68.4 38.8 68.2 40.4 68.2 C 41.9 68.2 44.4 68.0 45.9 67.9 C 47.4 67.8 48.7 68.8 50.6 68.6 C 52.6 68.3 53.6 68.7 54.9 68.7 C 57.1 68.7 56.9 65.0 55.0 65.0 C 53.0 65.0 51.7 64.8 50.1 64.8 C 48.4 64.9 47.0 65.3 45.5 64.9 C 43.9 64.5 40.9 64.9 39.1 65.2 C 37.2 65.4 35.1 65.3 33.7 65.1 C 30.7 64.8 23.7 65.5 22.7 65.2 C 21.6 64.9 18.4 65.2 17.3 65.2 C 16.1 65.2 15.5 65.0 13.1 65.0 C 13.1 65.0 13.1 65.0 13.1 65.0 Z M 96.8 68.7 C 98.8 68.7 99.1 65.0 96.8 65.0 C 94.5 65.0 90.3 65.3 89.1 65.3 C 87.8 65.2 82.7 65.0 81.6 65.0 C 80.5 65.0 76.6 65.5 74.3 65.2 C 72.1 64.9 69.9 65.5 68.3 65.3 C 66.4 65.1 65.4 65.3 63.9 65.4 C 62.4 65.5 60.2 64.7 58.9 65.0 C 57.7 65.3 57.0 65.0 55.2 65.0 C 53.5 65.0 53.5 68.6 55.1 68.6 C 56.8 68.6 58.2 68.6 59.8 68.5 C 61.5 68.4 63.4 68.4 65.2 68.4 C 66.8 68.4 69.2 68.8 71.1 68.6 C 72.9 68.4 75.6 68.3 76.7 68.2 C 78.1 68.2 81.0 68.3 82.2 68.1 C 83.8 67.8 86.6 68.2 87.6 68.5 C 88.6 68.8 89.3 68.4 91.5 68.5 C 92.8 68.5 94.9 68.7 96.8 68.7 C 96.8 68.7 96.8 68.7 96.8 68.7 Z M 97.4 68.7 C 99.7 68.7 103.4 68.2 104.2 68.2 C 105.1 68.2 108.2 68.4 109.6 68.4 C 111.0 68.3 111.5 68.0 113.9 67.9 C 116.9 67.8 118.8 68.2 119.0 68.2 C 119.4 68.4 120.8 68.7 122.9 68.6 C 125.5 68.5 126.4 68.8 127.6 68.7 C 129.6 68.2 129.8 68.6 131.4 68.6 C 133.0 68.5 133.9 68.6 135.2 68.4 C 136.6 68.2 137.6 68.7 138.8 68.7 C 140.8 68.7 140.6 65.0 138.8 65.0 C 137.6 65.0 136.6 65.4 135.4 65.4 C 134.2 65.4 133.2 65.3 132.0 65.1 C 130.8 65.0 128.3 65.2 126.4 65.1 C 124.4 65.1 121.2 64.8 119.0 64.9 C 116.7 65.0 115.3 65.9 110.7 65.3 C 109.3 65.1 106.3 65.3 105.1 65.3 C 103.0 65.3 99.0 65.0 97.2 65.0 C 95.1 65.0 95.2 68.7 97.4 68.7 C 97.4 68.7 97.4 68.7 97.4 68.7 Z M 180.8 68.7 C 182.7 68.7 183.1 65.0 180.8 65.0 C 178.5 65.0 174.3 65.3 173.0 65.3 C 171.8 65.2 166.6 65.0 165.5 65.0 C 164.5 65.0 160.6 65.5 158.3 65.2 C 156.1 64.9 153.9 65.5 152.3 65.3 C 150.4 65.1 149.4 65.3 147.9 65.4 C 146.4 65.5 144.1 64.7 142.9 65.0 C 141.7 65.3 140.9 65.0 139.2 65.0 C 137.5 65.0 137.5 68.6 139.1 68.6 C 140.8 68.6 142.2 68.6 143.8 68.5 C 145.4 68.4 147.4 68.4 149.2 68.4 C 150.8 68.4 153.2 68.8 155.0 68.6 C 156.9 68.4 159.6 68.3 160.7 68.2 C 162.1 68.2 165.0 68.3 166.2 68.1 C 167.8 67.8 170.5 68.2 171.6 68.5 C 172.6 68.8 173.3 68.4 175.5 68.5 C 176.8 68.5 178.9 68.7 180.8 68.7 C 180.8 68.7 180.8 68.7 180.8 68.7 Z M 181.4 68.7 C 183.7 68.7 187.3 68.2 188.2 68.2 C 189.1 68.2 192.1 68.4 193.6 68.4 C 195.0 68.3 195.4 68.0 197.8 67.9 C 200.8 67.8 202.8 68.2 202.9 68.2 C 203.4 68.4 204.8 68.7 206.8 68.6 C 209.5 68.5 210.3 68.8 211.5 68.7 C 213.6 68.2 213.8 68.6 215.3 68.6 C 216.9 68.5 217.9 68.6 219.2 68.4 C 220.5 68.2 221.5 68.7 222.8 68.7 C 224.8 68.7 224.6 65.0 222.7 65.0 C 221.6 65.0 220.6 65.4 219.4 65.4 C 218.2 65.4 217.1 65.3 215.9 65.1 C 214.7 65.0 212.3 65.2 210.4 65.1 C 208.4 65.1 205.2 64.8 202.9 64.9 C 200.7 65.0 199.3 65.9 194.7 65.3 C 193.2 65.1 190.3 65.3 189.1 65.3 C 187.0 65.3 182.9 65.0 181.2 65.0 C 179.1 65.0 179.2 68.7 181.4 68.7 C 181.4 68.7 181.4 68.7 181.4 68.7 Z M 264.8 68.7 C 266.7 68.7 267.1 65.0 264.8 65.0 C 262.5 65.0 258.3 65.3 257.0 65.3 C 255.8 65.2 250.6 65.0 249.5 65.0 C 248.4 65.0 244.5 65.5 242.3 65.2 C 240.0 64.9 237.8 65.5 236.3 65.3 C 234.4 65.1 233.3 65.3 231.9 65.4 C 230.4 65.5 228.1 64.7 226.9 65.0 C 225.6 65.3 224.9 65.0 223.2 65.0 C 221.4 65.0 221.4 68.6 223.1 68.6 C 224.7 68.6 226.1 68.6 227.8 68.5 C 229.4 68.4 231.4 68.4 233.1 68.4 C 234.8 68.4 237.2 68.8 239.0 68.6 C 240.9 68.4 243.6 68.3 244.7 68.2 C 246.0 68.2 248.9 68.3 250.2 68.1 C 251.8 67.8 254.5 68.2 255.5 68.5 C 256.5 68.8 257.2 68.4 259.4 68.5 C 260.7 68.5 262.8 68.7 264.8 68.7 C 264.8 68.7 264.8 68.7 264.8 68.7 Z M 265.0 65.0 C 263.3 65.0 263.3 68.7 265.3 68.7 C 267.5 68.7 272.2 68.0 273.5 68.1 C 274.7 68.2 278.2 68.9 279.3 68.9 C 280.3 68.9 285.6 67.8 287.9 68.1 C 290.1 68.4 290.7 68.2 292.3 68.2 C 293.9 68.2 296.3 68.0 297.8 67.9 C 299.3 67.8 300.6 68.8 302.5 68.6 C 304.5 68.3 305.5 68.7 306.8 68.7 C 309.0 68.7 308.9 65.0 306.9 65.0 C 304.9 65.0 303.6 64.8 302.0 64.8 C 300.4 64.9 299.0 65.3 297.4 64.9 C 295.9 64.5 292.9 64.9 291.0 65.2 C 289.1 65.4 287.1 65.3 285.6 65.1 C 282.6 64.8 275.6 65.5 274.6 65.2 C 273.6 64.9 270.3 65.2 269.2 65.2 C 268.0 65.2 267.4 65.0 265.0 65.0 C 265.0 65.0 265.0 65.0 265.0 65.0 Z M 307.4 68.7 C 309.6 68.7 313.3 68.2 314.2 68.2 C 315.1 68.2 318.1 68.4 319.5 68.4 C 320.9 68.3 321.4 68.0 323.8 67.9 C 326.8 67.8 328.8 68.2 328.9 68.2 C 329.3 68.4 330.8 68.7 332.8 68.6 C 335.5 68.5 336.3 68.8 337.5 68.7 C 339.5 68.2 339.7 68.6 341.3 68.6 C 342.9 68.5 343.9 68.6 345.1 68.4 C 346.5 68.2 347.5 68.7 348.8 68.7 C 350.8 68.7 350.6 65.0 348.7 65.0 C 347.5 65.0 346.5 65.4 345.3 65.4 C 344.1 65.4 343.1 65.3 341.9 65.1 C 340.7 65.0 338.3 65.2 336.3 65.1 C 334.4 65.1 331.1 64.8 328.9 64.9 C 326.7 65.0 325.3 65.9 320.7 65.3 C 319.2 65.1 316.2 65.3 315.0 65.3 C 312.9 65.3 308.9 65.0 307.1 65.0 C 305.1 65.0 305.1 68.7 307.4 68.7 C 307.4 68.7 307.4 68.7 307.4 68.7 Z M 390.7 68.7 C 392.7 68.7 393.0 65.0 390.7 65.0 C 388.4 65.0 384.2 65.3 383.0 65.3 C 381.7 65.2 376.6 65.0 375.5 65.0 C 374.4 65.0 370.5 65.5 368.2 65.2 C 366.0 64.9 363.8 65.5 362.2 65.3 C 360.3 65.1 359.3 65.3 357.8 65.4 C 356.3 65.5 354.1 64.7 352.8 65.0 C 351.6 65.3 350.9 65.0 349.1 65.0 C 347.4 65.0 347.4 68.6 349.0 68.6 C 350.7 68.6 352.1 68.6 353.7 68.5 C 355.4 68.4 357.3 68.4 359.1 68.4 C 360.7 68.4 363.1 68.8 365.0 68.6 C 366.8 68.4 369.5 68.3 370.6 68.2 C 372.0 68.2 374.9 68.3 376.1 68.1 C 377.7 67.8 380.5 68.2 381.5 68.5 C 382.5 68.8 383.2 68.4 385.4 68.5 C 386.7 68.5 388.8 68.7 390.7 68.7 C 390.7 68.7 390.7 68.7 390.7 68.7 Z M 391.3 68.7 C 393.6 68.7 397.3 68.2 398.2 68.2 C 399.0 68.2 402.1 68.4 403.5 68.4 C 404.9 68.3 405.4 68.0 407.8 67.9 C 410.8 67.8 412.7 68.2 412.9 68.2 C 413.3 68.4 414.7 68.7 416.8 68.6 C 419.4 68.5 420.3 68.8 421.5 68.7 C 423.5 68.2 423.7 68.6 425.3 68.6 C 426.9 68.5 427.8 68.6 429.1 68.4 C 430.5 68.2 431.5 68.7 432.7 68.7 C 434.7 68.7 434.5 65.0 432.7 65.0 C 431.5 65.0 430.5 65.4 429.3 65.4 C 428.1 65.4 427.1 65.3 425.9 65.1 C 424.7 65.0 422.2 65.2 420.3 65.1 C 418.3 65.1 415.1 64.8 412.9 64.9 C 410.6 65.0 409.2 65.9 404.6 65.3 C 403.2 65.1 400.2 65.3 399.0 65.3 C 396.9 65.3 392.9 65.0 391.1 65.0 C 389.0 65.0 389.1 68.7 391.3 68.7 C 391.3 68.7 391.3 68.7 391.3 68.7 Z M 474.7 68.7 C 476.6 68.7 477.0 65.0 474.7 65.0 C 472.4 65.0 468.2 65.3 466.9 65.3 C 465.7 65.2 460.5 65.0 459.4 65.0 C 458.4 65.0 454.5 65.5 452.2 65.2 C 450.0 64.9 447.8 65.5 446.2 65.3 C 444.3 65.1 443.3 65.3 441.8 65.4 C 440.3 65.5 438.0 64.7 436.8 65.0 C 435.6 65.3 434.8 65.0 433.1 65.0 C 431.4 65.0 431.4 68.6 433.0 68.6 C 434.7 68.6 436.1 68.6 437.7 68.5 C 439.3 68.4 441.3 68.4 443.1 68.4 C 444.7 68.4 447.1 68.8 448.9 68.6 C 450.8 68.4 453.5 68.3 454.6 68.2 C 456.0 68.2 458.9 68.3 460.1 68.1 C 461.7 67.8 464.4 68.2 465.5 68.5 C 466.5 68.8 467.2 68.4 469.4 68.5 C 470.7 68.5 472.8 68.7 474.7 68.7 C 474.7 68.7 474.7 68.7 474.7 68.7 Z M 475.3 68.7 C 477.6 68.7 481.2 68.2 482.1 68.2 C 483.0 68.2 486.0 68.4 487.5 68.4 C 488.9 68.3 489.3 68.0 491.7 67.9 C 494.7 67.8 496.7 68.2 496.8 68.2 C 497.3 68.4 498.7 68.7 500.7 68.6 C 503.4 68.5 504.2 68.8 505.4 68.7 C 507.5 68.2 507.7 68.6 509.2 68.6 C 510.8 68.5 511.8 68.6 513.1 68.4 C 514.4 68.2 515.4 68.7 516.7 68.7 C 518.7 68.7 518.5 65.0 516.6 65.0 C 515.5 65.0 514.5 65.4 513.3 65.4 C 512.1 65.4 511.0 65.3 509.8 65.1 C 508.6 65.0 506.2 65.2 504.3 65.1 C 502.3 65.1 499.1 64.8 496.8 64.9 C 494.6 65.0 493.2 65.9 488.6 65.3 C 487.1 65.1 484.2 65.3 483.0 65.3 C 480.9 65.3 476.8 65.0 475.1 65.0 C 473.0 65.0 473.1 68.7 475.3 68.7 C 475.3 68.7 475.3 68.7 475.3 68.7 Z M 558.7 68.7 C 560.6 68.7 561.0 65.0 558.7 65.0 C 556.4 65.0 552.2 65.3 550.9 65.3 C 549.7 65.2 544.5 65.0 543.4 65.0 C 542.3 65.0 538.4 65.5 536.2 65.2 C 533.9 64.9 531.7 65.5 530.2 65.3 C 528.3 65.1 527.2 65.3 525.8 65.4 C 524.3 65.5 522.0 64.7 520.8 65.0 C 519.5 65.3 518.8 65.0 517.1 65.0 C 515.3 65.0 515.3 68.6 517.0 68.6 C 518.6 68.6 520.0 68.6 521.7 68.5 C 523.3 68.4 525.3 68.4 527.0 68.4 C 528.7 68.4 531.1 68.8 532.9 68.6 C 534.8 68.4 537.5 68.3 538.6 68.2 C 539.9 68.2 542.8 68.3 544.1 68.1 C 545.7 67.8 548.4 68.2 549.4 68.5 C 550.4 68.8 551.1 68.4 553.3 68.5 C 554.6 68.5 556.7 68.7 558.7 68.7 C 558.7 68.7 558.7 68.7 558.7 68.7 Z M 563.3 65.8 C 563.3 67.2 563.5 69.0 565.5 69.3 C 567.5 69.5 569.1 68.0 569.1 66.0 C 569.1 63.9 568.0 64.5 568.0 59.7 C 568.0 58.0 564.3 57.9 564.3 59.6 C 564.3 63.9 563.3 63.3 563.3 65.8 C 563.3 65.8 563.3 65.8 563.3 65.8 Z M 569.1 7.4 C 569.1 6.9 569.1 6.5 569.0 6.2 L 566.2 3.3 C 564.6 3.6 563.9 4.5 563.9 6.1 C 563.8 7.8 564.7 8.7 566.2 9.0 L 563.4 6.2 C 563.3 6.5 563.2 6.9 563.2 7.4 C 563.2 9.6 564.3 9.5 564.3 13.2 C 564.3 15.1 568.0 14.8 568.0 13.2 C 568.0 9.3 569.1 9.9 569.1 7.4 C 569.1 7.4 569.1 7.4 569.1 7.4 Z M 564.3 59.5 C 564.3 60.5 568.0 60.5 568.0 59.4 C 568.0 58.2 567.3 55.6 567.4 54.9 C 567.5 54.2 568.2 52.3 568.2 51.7 C 568.2 51.1 567.1 48.2 567.4 47.0 C 567.7 45.8 567.6 45.4 567.6 44.6 C 567.6 43.7 567.3 42.4 567.3 41.5 C 567.2 40.7 568.2 40.0 567.9 38.9 C 567.6 37.9 568.0 37.3 568.0 36.6 C 568.0 35.4 564.3 35.5 564.3 36.6 C 564.3 37.6 564.1 38.3 564.2 39.2 C 564.3 40.1 564.6 40.9 564.3 41.8 C 563.9 42.6 564.3 44.3 564.5 45.3 C 564.8 46.3 564.6 47.4 564.5 48.2 C 564.2 49.9 564.9 53.7 564.6 54.3 C 564.3 54.9 564.6 56.6 564.6 57.3 C 564.6 57.9 564.3 58.2 564.3 59.5 C 564.3 59.5 564.3 59.5 564.3 59.5 Z M 568.0 36.3 C 568.0 35.0 567.5 33.0 567.5 32.5 C 567.5 32.0 567.8 30.4 567.7 29.6 C 567.6 28.8 567.3 28.6 567.3 27.3 C 567.2 25.6 567.5 24.5 567.6 24.5 C 567.7 24.2 568.1 23.4 568.0 22.3 C 567.8 20.8 568.2 20.4 568.0 19.7 C 567.6 18.6 568.0 18.5 567.9 17.6 C 567.8 16.8 568.0 16.2 567.8 15.5 C 567.6 14.8 568.0 14.2 568.0 13.5 C 568.0 12.4 564.3 12.5 564.3 13.6 C 564.3 14.2 564.7 14.8 564.7 15.4 C 564.7 16.1 564.6 16.7 564.5 17.3 C 564.3 18.0 564.6 19.3 564.5 20.4 C 564.4 21.4 564.2 23.2 564.3 24.5 C 564.3 25.7 565.2 26.5 564.6 29.0 C 564.5 29.8 564.6 31.4 564.6 32.1 C 564.6 33.2 564.3 35.4 564.3 36.4 C 564.3 37.6 568.0 37.5 568.0 36.3 C 568.0 36.3 568.0 36.3 568.0 36.3 Z M 565.2 9.1 C 566.5 9.1 568.4 8.8 568.6 6.8 C 568.8 4.8 567.3 3.2 565.3 3.2 C 563.3 3.2 563.8 4.3 559.1 4.3 C 557.3 4.3 557.2 8.0 559.0 8.0 C 563.2 8.0 562.7 9.1 565.2 9.1 C 565.2 9.1 565.2 9.1 565.2 9.1 Z M 7.1 3.2 C 6.6 3.2 6.2 3.3 5.8 3.3 L 3.0 6.2 C 3.3 7.7 4.2 8.4 5.8 8.5 C 7.4 8.5 8.3 7.6 8.6 6.2 L 5.8 9.0 C 6.2 9.1 6.6 9.1 7.1 9.1 C 9.2 9.1 9.1 8.0 12.8 8.0 C 14.8 8.0 14.5 4.4 12.9 4.4 C 8.9 4.4 9.5 3.2 7.1 3.2 C 7.1 3.2 7.1 3.2 7.1 3.2 Z M 517.2 4.3 C 515.2 4.3 514.9 8.0 517.2 8.0 C 519.4 8.0 523.7 7.7 524.9 7.7 C 526.2 7.8 531.3 8.0 532.4 8.0 C 533.5 8.0 537.4 7.5 539.6 7.8 C 541.9 8.1 544.1 7.5 545.6 7.7 C 547.6 7.9 548.6 7.7 550.1 7.6 C 551.5 7.5 553.8 8.3 555.1 8.0 C 556.3 7.6 557.0 8.0 558.8 8.0 C 560.5 8.0 560.5 4.3 558.9 4.3 C 557.2 4.3 555.8 4.4 554.2 4.5 C 552.5 4.6 550.5 4.6 548.8 4.6 C 547.2 4.6 544.8 4.2 542.9 4.4 C 541.0 4.6 538.3 4.7 537.3 4.8 C 535.9 4.8 533.0 4.7 531.8 4.9 C 530.2 5.2 527.4 4.8 526.4 4.5 C 525.4 4.2 524.7 4.6 522.5 4.5 C 521.2 4.5 519.1 4.3 517.2 4.3 C 517.2 4.3 517.2 4.3 517.2 4.3 Z M 516.5 4.3 C 514.3 4.3 510.6 4.8 509.7 4.8 C 508.8 4.8 505.8 4.5 504.4 4.6 C 503.0 4.7 502.5 5.0 500.1 5.1 C 497.1 5.2 495.2 4.8 495.0 4.8 C 494.6 4.6 493.1 4.3 491.1 4.4 C 488.4 4.5 487.6 4.2 486.4 4.3 C 484.4 4.8 484.2 4.4 482.6 4.4 C 481.0 4.5 480.1 4.4 478.8 4.6 C 477.4 4.8 476.4 4.3 475.2 4.3 C 473.2 4.3 473.3 8.0 475.2 8.0 C 476.4 8.0 477.4 7.6 478.6 7.6 C 479.8 7.6 480.8 7.7 482.0 7.9 C 483.2 8.0 485.7 7.8 487.6 7.9 C 489.5 7.9 492.8 8.1 495.0 8.1 C 497.3 8.0 498.7 7.1 503.2 7.7 C 504.7 7.9 507.7 7.7 508.9 7.7 C 511.0 7.7 515.0 8.0 516.8 8.0 C 518.9 8.0 518.8 4.3 516.5 4.3 C 516.5 4.3 516.5 4.3 516.5 4.3 Z M 474.9 8.0 C 476.7 8.0 476.7 4.3 474.6 4.3 C 472.5 4.3 467.7 5.0 466.5 4.9 C 465.2 4.8 461.8 4.1 460.7 4.1 C 459.6 4.1 454.3 5.2 452.1 4.9 C 449.8 4.6 449.2 4.8 447.6 4.8 C 446.1 4.8 443.6 5.0 442.1 5.1 C 440.7 5.2 439.3 4.2 437.4 4.4 C 435.5 4.7 434.4 4.3 433.1 4.3 C 431.0 4.3 431.1 8.0 433.1 8.0 C 435.0 8.0 436.3 8.2 438.0 8.2 C 439.6 8.1 441.0 7.7 442.5 8.1 C 444.1 8.5 447.1 8.1 449.0 7.8 C 450.8 7.6 452.9 7.7 454.3 7.9 C 457.3 8.1 464.4 7.5 465.4 7.8 C 466.4 8.1 469.6 7.8 470.8 7.8 C 471.9 7.8 472.5 8.0 474.9 8.0 C 474.9 8.0 474.9 8.0 474.9 8.0 Z M 432.6 4.3 C 430.3 4.3 426.7 4.8 425.8 4.8 C 424.9 4.8 421.9 4.5 420.4 4.6 C 419.0 4.7 418.5 5.0 416.1 5.1 C 413.2 5.2 411.2 4.8 411.0 4.8 C 410.6 4.6 409.2 4.3 407.2 4.4 C 404.5 4.5 403.7 4.2 402.5 4.3 C 400.4 4.8 400.2 4.4 398.6 4.4 C 397.1 4.5 396.1 4.4 394.8 4.6 C 393.5 4.8 392.5 4.3 391.2 4.3 C 389.2 4.3 389.4 8.0 391.3 8.0 C 392.4 8.0 393.4 7.6 394.6 7.6 C 395.8 7.6 396.8 7.7 398.0 7.9 C 399.2 8.0 401.7 7.8 403.6 7.9 C 405.6 7.9 408.8 8.1 411.0 8.1 C 413.3 8.0 414.7 7.1 419.3 7.7 C 420.8 7.9 423.7 7.7 424.9 7.7 C 427.0 7.7 431.0 8.0 432.8 8.0 C 434.9 8.0 434.8 4.3 432.6 4.3 C 432.6 4.3 432.6 4.3 432.6 4.3 Z M 390.9 8.0 C 392.7 8.0 392.7 4.3 390.7 4.3 C 388.5 4.3 383.7 5.0 382.5 4.9 C 381.2 4.8 377.8 4.1 376.7 4.1 C 375.6 4.1 370.4 5.2 368.1 4.9 C 365.9 4.6 365.2 4.8 363.7 4.8 C 362.1 4.8 359.6 5.0 358.2 5.1 C 356.7 5.2 355.4 4.2 353.4 4.4 C 351.5 4.7 350.5 4.3 349.1 4.3 C 347.0 4.3 347.1 8.0 349.1 8.0 C 351.0 8.0 352.3 8.2 354.0 8.2 C 355.6 8.1 357.0 7.7 358.6 8.1 C 360.1 8.5 363.1 8.1 365.0 7.8 C 366.8 7.6 368.9 7.7 370.4 7.9 C 373.3 8.1 380.4 7.5 381.4 7.8 C 382.4 8.1 385.6 7.8 386.8 7.8 C 387.9 7.8 388.6 8.0 390.9 8.0 C 390.9 8.0 390.9 8.0 390.9 8.0 Z M 348.6 4.3 C 346.4 4.3 342.7 4.8 341.8 4.8 C 340.9 4.8 337.9 4.5 336.5 4.6 C 335.0 4.7 334.6 5.0 332.2 5.1 C 329.2 5.2 327.2 4.8 327.1 4.8 C 326.7 4.6 325.2 4.3 323.2 4.4 C 320.5 4.5 319.7 4.2 318.5 4.3 C 316.4 4.8 316.2 4.4 314.7 4.4 C 313.1 4.5 312.1 4.4 310.9 4.6 C 309.5 4.8 308.5 4.3 307.2 4.3 C 305.2 4.3 305.4 8.0 307.3 8.0 C 308.4 8.0 309.4 7.6 310.6 7.6 C 311.8 7.6 312.9 7.7 314.1 7.9 C 315.3 8.0 317.7 7.8 319.7 7.9 C 321.6 7.9 324.8 8.1 327.1 8.1 C 329.3 8.0 330.7 7.1 335.3 7.7 C 336.8 7.9 339.7 7.7 340.9 7.7 C 343.0 7.7 347.1 8.0 348.8 8.0 C 350.9 8.0 350.9 4.3 348.6 4.3 C 348.6 4.3 348.6 4.3 348.6 4.3 Z M 307.0 8.0 C 308.7 8.0 308.7 4.3 306.7 4.3 C 304.5 4.3 299.8 5.0 298.5 4.9 C 297.3 4.8 293.8 4.1 292.7 4.1 C 291.7 4.1 286.4 5.2 284.1 4.9 C 281.9 4.6 281.3 4.8 279.7 4.8 C 278.1 4.8 275.7 5.0 274.2 5.1 C 272.7 5.2 271.4 4.2 269.5 4.4 C 267.5 4.7 266.5 4.3 265.2 4.3 C 263.0 4.3 263.1 8.0 265.1 8.0 C 267.1 8.0 268.4 8.2 270.0 8.2 C 271.6 8.1 273.0 7.7 274.6 8.1 C 276.1 8.5 279.1 8.1 281.0 7.8 C 282.9 7.6 284.9 7.7 286.4 7.9 C 289.4 8.1 296.4 7.5 297.4 7.8 C 298.4 8.1 301.7 7.8 302.8 7.8 C 304.0 7.8 304.6 8.0 307.0 8.0 C 307.0 8.0 307.0 8.0 307.0 8.0 Z M 223.3 4.3 C 221.3 4.3 221.0 8.0 223.3 8.0 C 225.5 8.0 229.8 7.7 231.0 7.7 C 232.3 7.8 237.4 8.0 238.5 8.0 C 239.6 8.0 243.5 7.5 245.7 7.8 C 248.0 8.1 250.2 7.5 251.7 7.7 C 253.7 7.9 254.7 7.7 256.2 7.6 C 257.6 7.5 259.9 8.3 261.2 8.0 C 262.4 7.6 263.1 8.0 264.9 8.0 C 266.6 8.0 266.6 4.3 264.9 4.3 C 263.3 4.3 261.9 4.4 260.3 4.5 C 258.6 4.6 256.6 4.6 254.9 4.6 C 253.3 4.6 250.9 4.2 249.0 4.4 C 247.1 4.6 244.4 4.7 243.4 4.8 C 242.0 4.8 239.1 4.7 237.9 4.9 C 236.3 5.2 233.5 4.8 232.5 4.5 C 231.5 4.2 230.8 4.6 228.6 4.5 C 227.3 4.5 225.2 4.3 223.3 4.3 C 223.3 4.3 223.3 4.3 223.3 4.3 Z M 222.6 4.3 C 220.4 4.3 216.7 4.8 215.8 4.8 C 214.9 4.8 211.9 4.5 210.5 4.6 C 209.1 4.7 208.6 5.0 206.2 5.1 C 203.2 5.2 201.3 4.8 201.1 4.8 C 200.7 4.6 199.2 4.3 197.2 4.4 C 194.5 4.5 193.7 4.2 192.5 4.3 C 190.5 4.8 190.3 4.4 188.7 4.4 C 187.1 4.5 186.2 4.4 184.9 4.6 C 183.5 4.8 182.5 4.3 181.3 4.3 C 179.3 4.3 179.4 8.0 181.3 8.0 C 182.5 8.0 183.5 7.6 184.7 7.6 C 185.9 7.6 186.9 7.7 188.1 7.9 C 189.3 8.0 191.8 7.8 193.7 7.9 C 195.6 7.9 198.9 8.1 201.1 8.1 C 203.4 8.0 204.8 7.1 209.3 7.7 C 210.8 7.9 213.8 7.7 215.0 7.7 C 217.1 7.7 221.1 8.0 222.9 8.0 C 225.0 8.0 224.9 4.3 222.6 4.3 C 222.6 4.3 222.6 4.3 222.6 4.3 Z M 181.0 8.0 C 182.8 8.0 182.8 4.3 180.7 4.3 C 178.6 4.3 173.8 5.0 172.6 4.9 C 171.3 4.8 167.9 4.1 166.8 4.1 C 165.7 4.1 160.4 5.2 158.2 4.9 C 155.9 4.6 155.3 4.8 153.7 4.8 C 152.2 4.8 149.7 5.0 148.2 5.1 C 146.8 5.2 145.4 4.2 143.5 4.4 C 141.6 4.7 140.5 4.3 139.2 4.3 C 137.1 4.3 137.2 8.0 139.2 8.0 C 141.1 8.0 142.4 8.2 144.1 8.2 C 145.7 8.1 147.1 7.7 148.6 8.1 C 150.2 8.5 153.2 8.1 155.1 7.8 C 156.9 7.6 159.0 7.7 160.4 7.9 C 163.4 8.1 170.5 7.5 171.5 7.8 C 172.5 8.1 175.7 7.8 176.9 7.8 C 178.0 7.8 178.6 8.0 181.0 8.0 C 181.0 8.0 181.0 8.0 181.0 8.0 Z M 97.3 4.3 C 95.4 4.3 95.0 8.0 97.3 8.0 C 99.6 8.0 103.8 7.7 105.1 7.7 C 106.3 7.8 111.5 8.0 112.6 8.0 C 113.6 8.0 117.5 7.5 119.8 7.8 C 122.0 8.1 124.2 7.5 125.8 7.7 C 127.7 7.9 128.7 7.7 130.2 7.6 C 131.7 7.5 134.0 8.3 135.2 8.0 C 136.4 7.6 137.2 8.0 138.9 8.0 C 140.6 8.0 140.6 4.3 139.0 4.3 C 137.3 4.3 135.9 4.4 134.3 4.5 C 132.7 4.6 130.7 4.6 128.9 4.6 C 127.3 4.6 124.9 4.2 123.1 4.4 C 121.2 4.6 118.5 4.7 117.4 4.8 C 116.0 4.8 113.1 4.7 111.9 4.9 C 110.3 5.2 107.6 4.8 106.5 4.5 C 105.5 4.2 104.8 4.6 102.6 4.5 C 101.3 4.5 99.2 4.3 97.3 4.3 C 97.3 4.3 97.3 4.3 97.3 4.3 Z M 97.0 8.0 C 98.8 8.0 98.8 4.3 96.8 4.3 C 94.6 4.3 89.8 5.0 88.6 4.9 C 87.3 4.8 83.9 4.1 82.8 4.1 C 81.7 4.1 76.5 5.2 74.2 4.9 C 72.0 4.6 71.3 4.8 69.8 4.8 C 68.2 4.8 65.7 5.0 64.3 5.1 C 62.8 5.2 61.5 4.2 59.5 4.4 C 57.6 4.7 56.6 4.3 55.2 4.3 C 53.1 4.3 53.2 8.0 55.2 8.0 C 57.1 8.0 58.4 8.2 60.1 8.2 C 61.7 8.1 63.1 7.7 64.7 8.1 C 66.2 8.5 69.2 8.1 71.1 7.8 C 72.9 7.6 75.0 7.7 76.5 7.9 C 79.4 8.1 86.5 7.5 87.5 7.8 C 88.5 8.1 91.7 7.8 92.9 7.8 C 94.0 7.8 94.7 8.0 97.0 8.0 C 97.0 8.0 97.0 8.0 97.0 8.0 Z M 54.7 4.3 C 52.5 4.3 48.8 4.8 47.9 4.8 C 47.0 4.8 44.0 4.5 42.6 4.6 C 41.1 4.7 40.7 5.0 38.3 5.1 C 35.3 5.2 33.3 4.8 33.2 4.8 C 32.8 4.6 31.3 4.3 29.3 4.4 C 26.6 4.5 25.8 4.2 24.6 4.3 C 22.5 4.8 22.3 4.4 20.8 4.4 C 19.2 4.5 18.2 4.4 17.0 4.6 C 15.6 4.8 14.6 4.3 13.3 4.3 C 11.3 4.3 11.5 8.0 13.4 8.0 C 14.5 8.0 15.5 7.6 16.7 7.6 C 17.9 7.6 19.0 7.7 20.2 7.9 C 21.4 8.0 23.8 7.8 25.8 7.9 C 27.7 7.9 30.9 8.1 33.2 8.1 C 35.4 8.0 36.8 7.1 41.4 7.7 C 42.9 7.9 45.8 7.7 47.0 7.7 C 49.1 7.7 53.2 8.0 54.9 8.0 C 57.0 8.0 57.0 4.3 54.7 4.3 C 54.7 4.3 54.7 4.3 54.7 4.3 Z M 8.7 7.2 C 8.7 5.8 8.5 4.0 6.5 3.7 C 4.5 3.5 2.9 5.0 2.9 7.0 C 2.9 9.1 4.0 8.5 4.0 13.3 C 4.0 15.0 7.7 15.1 7.7 13.3 C 7.7 9.1 8.7 9.7 8.7 7.2 C 8.7 7.2 8.7 7.2 8.7 7.2 Z M 2.9 65.6 C 2.9 68.1 3.8 69.1 5.8 69.1 C 7.8 69.2 8.8 67.8 8.8 65.6 C 8.8 63.4 7.7 63.5 7.7 59.8 C 7.7 57.9 4.0 58.2 4.0 59.8 C 4.0 63.7 2.9 63.1 2.9 65.6 C 2.9 65.6 2.9 65.6 2.9 65.6 Z M 4.0 36.4 C 4.0 37.4 7.7 37.6 7.7 36.4 C 7.7 35.1 7.3 32.8 7.4 32.1 C 7.5 31.4 7.7 28.6 7.7 28.0 C 7.7 27.4 7.2 25.3 7.5 24.0 C 7.8 22.8 7.2 21.6 7.3 20.7 C 7.5 19.7 7.3 19.1 7.3 18.3 C 7.2 17.5 7.9 16.2 7.6 15.6 C 7.3 14.9 7.7 14.5 7.7 13.5 C 7.7 12.6 4.0 12.6 4.0 13.5 C 4.0 14.4 4.1 15.1 4.1 16.0 C 4.2 16.9 4.3 18.0 4.3 19.0 C 4.3 19.9 3.8 21.2 4.1 22.2 C 4.3 23.3 4.4 24.7 4.4 25.3 C 4.5 26.1 4.4 27.7 4.6 28.4 C 4.8 29.2 4.5 30.7 4.1 31.3 C 3.8 31.9 4.3 32.2 4.2 33.4 C 4.1 34.2 4.0 35.3 4.0 36.4 C 4.0 36.4 4.0 36.4 4.0 36.4 Z M 4.0 36.7 C 4.0 37.9 4.5 40.0 4.5 40.5 C 4.5 40.9 4.2 42.6 4.3 43.4 C 4.4 44.2 4.7 44.4 4.7 45.7 C 4.8 47.4 4.5 48.5 4.4 48.5 C 4.3 48.8 3.9 49.6 4.0 50.7 C 4.2 52.2 3.8 52.6 4.0 53.3 C 4.4 54.4 4.0 54.5 4.1 55.4 C 4.2 56.2 4.0 56.8 4.2 57.5 C 4.4 58.2 4.0 58.8 4.0 59.5 C 4.0 60.6 7.7 60.4 7.7 59.4 C 7.7 58.8 7.3 58.2 7.3 57.6 C 7.3 56.9 7.4 56.3 7.5 55.7 C 7.7 55.0 7.4 53.7 7.5 52.6 C 7.6 51.5 7.8 49.8 7.7 48.5 C 7.7 47.3 6.8 46.5 7.4 44.0 C 7.5 43.2 7.4 41.6 7.4 40.9 C 7.4 39.8 7.7 37.6 7.7 36.6 C 7.7 35.4 4.0 35.5 4.0 36.7 C 4.0 36.7 4.0 36.7 4.0 36.7 Z M 4.0 36.7 " fill="#000000"></path><g><clipPath id="clip-290"><path d="M 4.8 8.8 L 567.2 8.8 L 567.2 63.8 L 4.8 63.8 Z M 4.8 8.8 "></path></clipPath><g clip-path="url(#clip-290)"><text xml:space="preserve" font-family="Helvetica-Bold" font-weight="bold" font-size="32.0" fill="#0264C0" transform="matrix(1.00, 0.00, -0.00, -1.00, 236.0, 24.0)">T</text><text xml:space="preserve" font-family="Helvetica-Bold" font-weight="bold" font-size="32.0" fill="#0264C0" transform="matrix(1.00, 0.00, -0.00, -1.00, 255.0, 24.0)">i</text><text xml:space="preserve" font-family="Helvetica-Bold" font-weight="bold" font-size="32.0" fill="#0264C0" transform="matrix(1.00, 0.00, -0.00, -1.00, 263.9, 24.0)">m</text><text xml:space="preserve" font-family="Helvetica-Bold" font-weight="bold" font-size="32.0" fill="#0264C0" transform="matrix(1.00, 0.00, -0.00, -1.00, 292.3, 24.0)">e</text><text xml:space="preserve" font-family="Helvetica-Bold" font-weight="bold" font-size="32.0" fill="#0264C0" transform="matrix(1.00, 0.00, -0.00, -1.00, 310.1, 24.0)">l</text><text xml:space="preserve" font-family="Helvetica-Bold" font-weight="bold" font-size="32.0" fill="#0264C0" transform="matrix(1.00, 0.00, -0.00, -1.00, 319.1, 24.0)">y</text></g></g></g></svg>