<?xml version="1.0" encoding="UTF-8" standalone="no"?><svg xmlns="http://www.w3.org/2000/svg" xmlns:xlink="http://www.w3.org/1999/xlink" clip-rule="evenodd" stroke-miterlimit="4.00" viewBox="0 0 300 73"><desc>SVG generated by Keynote</desc><defs></defs><g transform="matrix(1.00, 0.00, -0.00, -1.00, 0.0, 73.0)"><path d="M 6.0 66.8 L 292.9 66.8 L 292.9 6.1 L 6.0 6.1 Z M 6.0 66.8 " fill="#FEFFFF"></path><path d="M 7.0 63.9 C 5.6 63.9 3.8 64.1 3.6 66.1 C 3.3 68.1 4.8 69.7 6.9 69.7 C 8.9 69.7 8.3 68.6 13.1 68.6 C 14.9 68.6 15.0 64.9 13.2 64.9 C 8.9 64.9 9.5 63.9 7.0 63.9 C 7.0 63.9 7.0 63.9 7.0 63.9 Z M 291.7 69.7 C 292.2 69.7 292.6 69.7 292.9 69.6 L 295.8 66.8 C 295.5 65.2 294.6 64.5 293.0 64.5 C 291.3 64.4 290.4 65.3 290.1 66.8 L 292.9 64.0 C 292.6 63.9 292.2 63.9 291.7 63.9 C 289.5 63.9 289.6 65.0 285.9 64.9 C 284.0 64.9 284.3 68.6 285.9 68.6 C 289.8 68.6 289.2 69.7 291.7 69.7 C 291.7 69.7 291.7 69.7 291.7 69.7 Z M 13.3 64.9 C 11.7 64.9 11.6 68.6 13.5 68.6 C 15.5 68.6 19.9 68.0 21.1 68.0 C 22.3 68.1 25.4 68.8 26.5 68.8 C 27.5 68.8 32.3 67.7 34.4 68.0 C 36.5 68.3 37.1 68.2 38.6 68.2 C 40.0 68.2 42.3 68.0 43.6 67.9 C 45.0 67.8 46.2 68.8 48.0 68.5 C 49.8 68.2 50.8 68.6 52.0 68.6 C 54.0 68.6 53.9 65.0 52.1 65.0 C 50.3 65.0 49.0 64.7 47.5 64.8 C 46.0 64.9 44.7 65.2 43.3 64.9 C 41.8 64.5 39.1 64.9 37.3 65.1 C 35.6 65.4 33.7 65.3 32.3 65.1 C 29.6 64.8 23.0 65.5 22.1 65.2 C 21.2 64.9 18.2 65.2 17.1 65.2 C 16.1 65.2 15.5 64.9 13.3 64.9 C 13.3 64.9 13.3 64.9 13.3 64.9 Z M 90.9 68.6 C 92.7 68.6 93.0 64.9 90.9 64.9 C 88.7 64.9 84.8 65.3 83.7 65.2 C 82.5 65.1 77.7 64.9 76.7 64.9 C 75.7 64.9 72.1 65.4 70.0 65.1 C 67.9 64.8 65.9 65.4 64.5 65.3 C 62.7 65.1 61.7 65.3 60.4 65.3 C 59.0 65.4 56.9 64.7 55.7 65.0 C 54.6 65.3 53.9 64.9 52.3 64.9 C 50.7 64.9 50.7 68.6 52.2 68.6 C 53.8 68.6 55.1 68.5 56.6 68.5 C 58.1 68.4 59.9 68.3 61.6 68.3 C 63.0 68.3 65.3 68.8 67.0 68.5 C 68.7 68.3 71.2 68.2 72.2 68.2 C 73.5 68.1 76.2 68.2 77.3 68.0 C 78.8 67.8 81.4 68.2 82.3 68.5 C 83.2 68.8 83.9 68.3 85.9 68.4 C 87.1 68.5 89.1 68.6 90.9 68.6 C 90.9 68.6 90.9 68.6 90.9 68.6 Z M 91.4 68.6 C 93.5 68.6 96.9 68.1 97.7 68.1 C 98.6 68.1 101.4 68.4 102.7 68.3 C 104.0 68.2 104.4 68.0 106.7 67.9 C 109.4 67.8 111.3 68.1 111.4 68.2 C 111.8 68.3 113.1 68.7 115.0 68.6 C 117.5 68.4 118.2 68.8 119.3 68.6 C 121.3 68.2 121.4 68.6 122.9 68.5 C 124.4 68.4 125.3 68.6 126.4 68.4 C 127.7 68.2 128.6 68.6 129.8 68.6 C 131.7 68.6 131.5 64.9 129.7 64.9 C 128.7 64.9 127.7 65.3 126.6 65.3 C 125.5 65.3 124.5 65.2 123.4 65.1 C 122.3 64.9 120.1 65.2 118.3 65.1 C 116.5 65.0 113.5 64.8 111.4 64.9 C 109.3 65.0 108.0 65.8 103.8 65.2 C 102.4 65.1 99.7 65.2 98.6 65.2 C 96.6 65.2 92.8 65.0 91.2 65.0 C 89.3 65.0 89.3 68.6 91.4 68.6 C 91.4 68.6 91.4 68.6 91.4 68.6 Z M 168.7 68.6 C 170.5 68.6 170.8 64.9 168.7 64.9 C 166.6 64.9 162.7 65.3 161.5 65.2 C 160.4 65.1 155.6 64.9 154.6 64.9 C 153.6 64.9 150.0 65.4 147.9 65.1 C 145.8 64.8 143.7 65.4 142.3 65.3 C 140.5 65.1 139.6 65.3 138.2 65.3 C 136.8 65.4 134.7 64.7 133.6 65.0 C 132.4 65.3 131.8 64.9 130.1 64.9 C 128.5 64.9 128.5 68.6 130.1 68.6 C 131.6 68.6 132.9 68.5 134.4 68.5 C 135.9 68.4 137.8 68.3 139.4 68.3 C 140.9 68.3 143.1 68.8 144.8 68.5 C 146.6 68.3 149.1 68.2 150.1 68.2 C 151.3 68.1 154.0 68.2 155.2 68.0 C 156.6 67.8 159.2 68.2 160.1 68.5 C 161.1 68.8 161.7 68.3 163.8 68.4 C 165.0 68.5 166.9 68.6 168.7 68.6 C 168.7 68.6 168.7 68.6 168.7 68.6 Z M 169.3 68.6 C 171.4 68.6 174.8 68.1 175.6 68.1 C 176.4 68.1 179.2 68.4 180.5 68.3 C 181.8 68.2 182.3 68.0 184.5 67.9 C 187.3 67.8 189.1 68.1 189.2 68.2 C 189.6 68.3 191.0 68.7 192.8 68.6 C 195.3 68.4 196.1 68.8 197.2 68.6 C 199.1 68.2 199.3 68.6 200.7 68.5 C 202.2 68.4 203.1 68.6 204.3 68.4 C 205.5 68.2 206.5 68.6 207.6 68.6 C 209.5 68.6 209.3 64.9 207.6 64.9 C 206.5 64.9 205.6 65.3 204.5 65.3 C 203.4 65.3 202.4 65.2 201.3 65.1 C 200.2 64.9 197.9 65.2 196.1 65.1 C 194.3 65.0 191.3 64.8 189.2 64.9 C 187.1 65.0 185.9 65.8 181.6 65.2 C 180.2 65.1 177.5 65.2 176.4 65.2 C 174.4 65.2 170.7 65.0 169.1 65.0 C 167.1 65.0 167.2 68.6 169.3 68.6 C 169.3 68.6 169.3 68.6 169.3 68.6 Z M 246.5 68.6 C 248.3 68.6 248.7 64.9 246.5 64.9 C 244.4 64.9 240.5 65.3 239.4 65.2 C 238.2 65.1 233.4 64.9 232.4 64.9 C 231.4 64.9 227.8 65.4 225.7 65.1 C 223.6 64.8 221.6 65.4 220.1 65.3 C 218.4 65.1 217.4 65.3 216.0 65.3 C 214.7 65.4 212.6 64.7 211.4 65.0 C 210.3 65.3 209.6 64.9 208.0 64.9 C 206.4 64.9 206.4 68.6 207.9 68.6 C 209.4 68.6 210.7 68.5 212.2 68.5 C 213.7 68.4 215.6 68.3 217.2 68.3 C 218.7 68.3 220.9 68.8 222.7 68.5 C 224.4 68.3 226.9 68.2 227.9 68.2 C 229.2 68.1 231.9 68.2 233.0 68.0 C 234.5 67.8 237.0 68.2 238.0 68.5 C 238.9 68.8 239.6 68.3 241.6 68.4 C 242.8 68.5 244.7 68.6 246.5 68.6 C 246.5 68.6 246.5 68.6 246.5 68.6 Z M 246.8 64.9 C 245.2 64.9 245.1 68.6 247.0 68.6 C 249.1 68.6 253.5 68.0 254.6 68.0 C 255.8 68.1 258.9 68.8 260.0 68.8 C 261.0 68.8 265.8 67.7 267.9 68.0 C 270.0 68.3 270.6 68.2 272.1 68.2 C 273.5 68.2 275.8 68.0 277.2 67.9 C 278.5 67.8 279.7 68.8 281.5 68.5 C 283.3 68.2 284.3 68.6 285.5 68.6 C 287.5 68.6 287.4 65.0 285.6 65.0 C 283.8 65.0 282.6 64.7 281.0 64.8 C 279.5 64.9 278.2 65.2 276.8 64.9 C 275.4 64.5 272.6 64.9 270.8 65.1 C 269.1 65.4 267.2 65.3 265.8 65.1 C 263.1 64.8 256.6 65.5 255.6 65.2 C 254.7 64.9 251.7 65.2 250.6 65.2 C 249.6 65.2 249.0 64.9 246.8 64.9 C 246.8 64.9 246.8 64.9 246.8 64.9 Z M 290.0 65.8 C 290.0 67.2 290.3 69.0 292.3 69.2 C 294.3 69.4 295.9 68.0 295.9 65.9 C 295.9 63.9 294.8 64.5 294.8 59.7 C 294.8 57.9 291.1 57.8 291.1 59.6 C 291.1 63.9 290.0 63.3 290.0 65.8 C 290.0 65.8 290.0 65.8 290.0 65.8 Z M 295.9 7.3 C 295.9 6.9 295.8 6.5 295.8 6.1 L 292.9 3.3 C 291.4 3.6 290.7 4.5 290.6 6.1 C 290.6 7.7 291.5 8.6 292.9 8.9 L 290.1 6.1 C 290.0 6.5 290.0 6.9 290.0 7.3 C 290.0 9.5 291.1 9.4 291.1 13.1 C 291.1 15.1 294.7 14.8 294.7 13.1 C 294.7 9.2 295.9 9.8 295.9 7.3 C 295.9 7.3 295.9 7.3 295.9 7.3 Z M 294.8 59.3 C 294.8 58.1 294.3 56.1 294.3 55.6 C 294.3 55.1 294.6 53.4 294.5 52.6 C 294.4 51.9 294.1 51.6 294.0 50.3 C 293.9 48.6 294.3 47.6 294.3 47.5 C 294.5 47.2 294.8 46.4 294.7 45.3 C 294.6 43.9 294.9 43.4 294.8 42.8 C 294.3 41.6 294.7 41.5 294.7 40.7 C 294.6 39.8 294.7 39.3 294.5 38.6 C 294.3 37.8 294.8 37.3 294.8 36.6 C 294.8 35.5 291.1 35.6 291.1 36.6 C 291.1 37.2 291.5 37.8 291.5 38.4 C 291.5 39.1 291.4 39.7 291.3 40.3 C 291.1 41.0 291.3 42.3 291.3 43.4 C 291.2 44.5 291.0 46.2 291.0 47.5 C 291.1 48.7 292.0 49.5 291.4 52.0 C 291.2 52.8 291.4 54.4 291.4 55.1 C 291.4 56.2 291.1 58.5 291.1 59.4 C 291.1 60.6 294.8 60.5 294.8 59.3 C 294.8 59.3 294.8 59.3 294.8 59.3 Z M 294.8 13.5 C 294.8 12.4 291.1 12.2 291.1 13.5 C 291.1 14.8 291.4 17.1 291.4 17.8 C 291.3 18.4 291.1 21.3 291.1 21.9 C 291.1 22.5 291.6 24.6 291.3 25.9 C 291.0 27.1 291.6 28.3 291.4 29.2 C 291.2 30.2 291.4 30.8 291.5 31.6 C 291.6 32.4 290.8 33.6 291.1 34.3 C 291.5 35.0 291.1 35.4 291.1 36.4 C 291.1 37.3 294.8 37.3 294.8 36.4 C 294.8 35.5 294.7 34.7 294.6 33.8 C 294.5 32.9 294.5 31.8 294.5 30.9 C 294.5 30.0 294.9 28.7 294.7 27.7 C 294.5 26.6 294.4 25.1 294.3 24.5 C 294.3 23.8 294.4 22.2 294.2 21.5 C 293.9 20.7 294.3 19.1 294.6 18.6 C 294.9 18.0 294.5 17.6 294.6 16.4 C 294.6 15.7 294.8 14.6 294.8 13.5 C 294.8 13.5 294.8 13.5 294.8 13.5 Z M 292.0 9.0 C 293.3 9.0 295.1 8.8 295.4 6.8 C 295.6 4.8 294.1 3.2 292.1 3.2 C 290.0 3.2 290.6 4.3 285.8 4.3 C 284.1 4.3 284.0 8.0 285.8 8.0 C 290.0 8.0 289.4 9.0 292.0 9.0 C 292.0 9.0 292.0 9.0 292.0 9.0 Z M 7.2 3.2 C 6.8 3.2 6.3 3.2 6.0 3.3 L 3.2 6.1 C 3.4 7.7 4.4 8.4 6.0 8.4 C 7.6 8.5 8.5 7.6 8.8 6.1 L 6.0 8.9 C 6.4 9.0 6.8 9.0 7.2 9.0 C 9.4 9.0 9.3 7.9 13.0 8.0 C 15.0 8.0 14.6 4.3 13.0 4.3 C 9.1 4.3 9.7 3.2 7.2 3.2 C 7.2 3.2 7.2 3.2 7.2 3.2 Z M 285.3 4.3 C 283.2 4.3 279.8 4.8 279.0 4.8 C 278.2 4.8 275.4 4.5 274.1 4.6 C 272.8 4.7 272.3 4.9 270.1 5.0 C 267.3 5.1 265.5 4.8 265.4 4.7 C 265.0 4.6 263.6 4.2 261.8 4.3 C 259.3 4.5 258.5 4.1 257.4 4.3 C 255.5 4.7 255.3 4.3 253.9 4.4 C 252.4 4.5 251.5 4.3 250.3 4.5 C 249.1 4.7 248.1 4.3 247.0 4.3 C 245.1 4.3 245.3 8.0 247.0 8.0 C 248.1 8.0 249.0 7.6 250.1 7.6 C 251.2 7.6 252.2 7.7 253.3 7.8 C 254.4 8.0 256.7 7.7 258.5 7.8 C 260.3 7.9 263.3 8.1 265.4 8.0 C 267.4 7.9 268.7 7.1 273.0 7.7 C 274.4 7.8 277.1 7.7 278.2 7.7 C 280.2 7.7 283.9 7.9 285.5 7.9 C 287.5 7.9 287.4 4.3 285.3 4.3 C 285.3 4.3 285.3 4.3 285.3 4.3 Z M 208.1 4.3 C 206.3 4.3 205.9 8.0 208.1 8.0 C 210.2 8.0 214.1 7.6 215.2 7.7 C 216.4 7.8 221.2 8.0 222.2 8.0 C 223.2 8.0 226.8 7.5 228.9 7.8 C 231.0 8.1 233.0 7.5 234.5 7.6 C 236.2 7.8 237.2 7.6 238.6 7.6 C 239.9 7.5 242.0 8.2 243.2 7.9 C 244.3 7.6 245.0 8.0 246.6 8.0 C 248.2 8.0 248.2 4.3 246.7 4.3 C 245.2 4.3 243.9 4.4 242.4 4.4 C 240.8 4.5 239.0 4.6 237.4 4.6 C 235.9 4.6 233.7 4.1 231.9 4.4 C 230.2 4.6 227.7 4.7 226.7 4.7 C 225.4 4.8 222.7 4.7 221.6 4.9 C 220.1 5.1 217.6 4.8 216.6 4.4 C 215.7 4.1 215.0 4.6 213.0 4.5 C 211.8 4.4 209.9 4.3 208.1 4.3 C 208.1 4.3 208.1 4.3 208.1 4.3 Z M 207.5 4.3 C 205.4 4.3 202.0 4.8 201.2 4.8 C 200.3 4.8 197.6 4.5 196.2 4.6 C 194.9 4.7 194.5 4.9 192.3 5.0 C 189.5 5.1 187.7 4.8 187.5 4.7 C 187.1 4.6 185.8 4.2 183.9 4.3 C 181.4 4.5 180.7 4.1 179.6 4.3 C 177.7 4.7 177.5 4.3 176.0 4.4 C 174.6 4.5 173.7 4.3 172.5 4.5 C 171.2 4.7 170.3 4.3 169.1 4.3 C 167.3 4.3 167.4 8.0 169.2 8.0 C 170.2 8.0 171.2 7.6 172.3 7.6 C 173.4 7.6 174.4 7.7 175.5 7.8 C 176.6 8.0 178.9 7.7 180.7 7.8 C 182.5 7.9 185.5 8.1 187.5 8.0 C 189.6 7.9 190.9 7.1 195.2 7.7 C 196.5 7.8 199.3 7.7 200.4 7.7 C 202.3 7.7 206.1 7.9 207.7 7.9 C 209.6 7.9 209.6 4.3 207.5 4.3 C 207.5 4.3 207.5 4.3 207.5 4.3 Z M 130.2 4.3 C 128.4 4.3 128.1 8.0 130.2 8.0 C 132.3 8.0 136.3 7.6 137.4 7.7 C 138.6 7.8 143.4 8.0 144.4 8.0 C 145.4 8.0 149.0 7.5 151.1 7.8 C 153.1 8.1 155.2 7.5 156.6 7.6 C 158.4 7.8 159.4 7.6 160.7 7.6 C 162.1 7.5 164.2 8.2 165.4 7.9 C 166.5 7.6 167.2 8.0 168.8 8.0 C 170.4 8.0 170.4 4.3 168.9 4.3 C 167.3 4.3 166.0 4.4 164.5 4.4 C 163.0 4.5 161.2 4.6 159.5 4.6 C 158.0 4.6 155.8 4.1 154.1 4.4 C 152.4 4.6 149.9 4.7 148.9 4.7 C 147.6 4.8 144.9 4.7 143.8 4.9 C 142.3 5.1 139.7 4.8 138.8 4.4 C 137.8 4.1 137.2 4.6 135.2 4.5 C 133.9 4.4 132.0 4.3 130.2 4.3 C 130.2 4.3 130.2 4.3 130.2 4.3 Z M 130.0 8.0 C 131.6 8.0 131.6 4.3 129.7 4.3 C 127.7 4.3 123.3 4.9 122.2 4.9 C 121.0 4.8 117.8 4.1 116.8 4.1 C 115.8 4.1 110.9 5.2 108.8 4.9 C 106.7 4.6 106.1 4.7 104.7 4.7 C 103.3 4.7 101.0 4.9 99.6 5.0 C 98.2 5.1 97.0 4.1 95.2 4.4 C 93.4 4.7 92.5 4.3 91.2 4.3 C 89.2 4.3 89.4 7.9 91.2 7.9 C 93.0 7.9 94.2 8.2 95.7 8.1 C 97.2 8.0 98.5 7.7 100.0 8.0 C 101.4 8.4 104.2 8.0 105.9 7.8 C 107.6 7.5 109.6 7.6 110.9 7.8 C 113.7 8.1 120.2 7.4 121.1 7.7 C 122.1 8.0 125.1 7.7 126.1 7.7 C 127.2 7.7 127.8 8.0 130.0 8.0 C 130.0 8.0 130.0 8.0 130.0 8.0 Z M 90.7 4.3 C 88.7 4.3 85.3 4.8 84.4 4.8 C 83.6 4.8 80.8 4.5 79.5 4.6 C 78.2 4.7 77.7 4.9 75.5 5.0 C 72.7 5.1 70.9 4.8 70.8 4.7 C 70.4 4.6 69.0 4.2 67.2 4.3 C 64.7 4.5 63.9 4.1 62.8 4.3 C 60.9 4.7 60.7 4.3 59.3 4.4 C 57.8 4.5 56.9 4.3 55.7 4.5 C 54.5 4.7 53.5 4.3 52.4 4.3 C 50.5 4.3 50.7 8.0 52.4 8.0 C 53.5 8.0 54.4 7.6 55.5 7.6 C 56.7 7.6 57.6 7.7 58.7 7.8 C 59.8 8.0 62.1 7.7 63.9 7.8 C 65.7 7.9 68.7 8.1 70.8 8.0 C 72.9 7.9 74.1 7.1 78.4 7.7 C 79.8 7.8 82.5 7.7 83.6 7.7 C 85.6 7.7 89.3 7.9 90.9 7.9 C 92.9 7.9 92.8 4.3 90.7 4.3 C 90.7 4.3 90.7 4.3 90.7 4.3 Z M 13.5 4.3 C 11.7 4.3 11.3 8.0 13.5 8.0 C 15.6 8.0 19.5 7.6 20.7 7.7 C 21.8 7.8 26.6 8.0 27.6 8.0 C 28.6 8.0 32.2 7.5 34.3 7.8 C 36.4 8.1 38.4 7.5 39.9 7.6 C 41.7 7.8 42.6 7.6 44.0 7.6 C 45.3 7.5 47.4 8.2 48.6 7.9 C 49.8 7.6 50.4 8.0 52.0 8.0 C 53.6 8.0 53.6 4.3 52.1 4.3 C 50.6 4.3 49.3 4.4 47.8 4.4 C 46.3 4.5 44.4 4.6 42.8 4.6 C 41.3 4.6 39.1 4.1 37.3 4.4 C 35.6 4.6 33.1 4.7 32.1 4.7 C 30.8 4.8 28.2 4.7 27.0 4.9 C 25.5 5.1 23.0 4.8 22.0 4.4 C 21.1 4.1 20.4 4.6 18.4 4.5 C 17.2 4.4 15.3 4.3 13.5 4.3 C 13.5 4.3 13.5 4.3 13.5 4.3 Z M 8.9 7.1 C 8.9 5.7 8.7 3.9 6.6 3.7 C 4.6 3.5 3.1 4.9 3.1 7.0 C 3.1 9.0 4.2 8.4 4.2 13.2 C 4.2 15.0 7.8 15.1 7.8 13.3 C 7.8 9.0 8.9 9.6 8.9 7.1 C 8.9 7.1 8.9 7.1 8.9 7.1 Z M 3.1 65.6 C 3.1 68.0 4.0 69.0 6.0 69.1 C 8.0 69.1 8.9 67.8 8.9 65.6 C 8.9 63.4 7.8 63.5 7.8 59.8 C 7.9 57.8 4.2 58.1 4.2 59.8 C 4.2 63.7 3.1 63.1 3.1 65.6 C 3.1 65.6 3.1 65.6 3.1 65.6 Z M 4.2 13.6 C 4.2 14.8 4.6 16.8 4.6 17.3 C 4.6 17.8 4.4 19.5 4.4 20.3 C 4.5 21.0 4.8 21.3 4.9 22.6 C 5.0 24.3 4.6 25.3 4.6 25.4 C 4.5 25.7 4.1 26.5 4.2 27.6 C 4.4 29.0 4.0 29.5 4.2 30.1 C 4.6 31.3 4.2 31.4 4.3 32.2 C 4.3 33.1 4.2 33.6 4.4 34.3 C 4.6 35.1 4.1 35.6 4.2 36.3 C 4.2 37.4 7.8 37.3 7.8 36.3 C 7.8 35.7 7.4 35.1 7.4 34.5 C 7.4 33.8 7.5 33.2 7.7 32.6 C 7.8 31.9 7.6 30.6 7.7 29.5 C 7.8 28.4 8.0 26.7 7.9 25.4 C 7.8 24.2 6.9 23.4 7.5 20.9 C 7.7 20.1 7.5 18.5 7.5 17.8 C 7.5 16.7 7.8 14.4 7.8 13.5 C 7.8 12.3 4.2 12.4 4.2 13.6 C 4.2 13.6 4.2 13.6 4.2 13.6 Z M 7.8 36.5 C 7.8 35.5 4.2 35.5 4.2 36.6 C 4.2 37.8 4.8 40.4 4.7 41.1 C 4.7 41.8 4.0 43.7 4.0 44.3 C 4.0 44.9 5.0 47.8 4.7 49.0 C 4.4 50.2 4.6 50.6 4.6 51.5 C 4.6 52.3 4.8 53.7 4.9 54.5 C 5.0 55.3 4.0 56.0 4.3 57.1 C 4.5 58.1 4.2 58.7 4.2 59.4 C 4.2 60.6 7.8 60.6 7.8 59.5 C 7.8 58.4 8.1 57.7 8.0 56.8 C 7.9 55.9 7.5 55.1 7.9 54.3 C 8.3 53.4 7.9 51.8 7.6 50.7 C 7.4 49.7 7.5 48.6 7.7 47.8 C 8.0 46.2 7.3 42.3 7.6 41.7 C 7.9 41.2 7.6 39.4 7.6 38.7 C 7.6 38.1 7.8 37.8 7.8 36.5 C 7.8 36.5 7.8 36.5 7.8 36.5 Z M 7.8 36.5 " fill="#000000"></path></g></svg>