<?xml version="1.0" encoding="UTF-8" standalone="no"?><svg xmlns="http://www.w3.org/2000/svg" xmlns:xlink="http://www.w3.org/1999/xlink" clip-rule="evenodd" stroke-miterlimit="4.00" viewBox="0 0 300 74"><desc>SVG generated by Keynote</desc><defs></defs><g transform="matrix(1.00, 0.00, -0.00, -1.00, 0.0, 74.0)"><path d="M 6.0 67.8 L 292.9 67.8 L 292.9 7.1 L 6.0 7.1 Z M 6.0 67.8 " fill="#FEFFFF"></path><path d="M 7.0 64.9 C 5.6 64.9 3.8 65.1 3.6 67.1 C 3.3 69.1 4.8 70.7 6.9 70.7 C 8.9 70.7 8.3 69.6 13.1 69.6 C 14.9 69.6 15.0 65.9 13.2 65.9 C 8.9 65.9 9.5 64.9 7.0 64.9 C 7.0 64.9 7.0 64.9 7.0 64.9 Z M 291.7 70.7 C 292.2 70.7 292.6 70.7 292.9 70.6 L 295.8 67.8 C 295.5 66.2 294.6 65.5 293.0 65.5 C 291.3 65.4 290.4 66.3 290.1 67.8 L 292.9 65.0 C 292.6 64.9 292.2 64.9 291.7 64.9 C 289.5 64.9 289.6 66.0 285.9 65.9 C 284.0 65.9 284.3 69.6 285.9 69.6 C 289.8 69.6 289.2 70.7 291.7 70.7 C 291.7 70.7 291.7 70.7 291.7 70.7 Z M 13.3 65.9 C 11.7 65.9 11.6 69.6 13.5 69.6 C 15.5 69.6 19.9 69.0 21.1 69.0 C 22.3 69.1 25.4 69.8 26.5 69.8 C 27.5 69.8 32.3 68.7 34.4 69.0 C 36.5 69.3 37.1 69.2 38.6 69.2 C 40.0 69.2 42.3 69.0 43.6 68.9 C 45.0 68.8 46.2 69.8 48.0 69.5 C 49.8 69.2 50.8 69.6 52.0 69.6 C 54.0 69.6 53.9 66.0 52.1 66.0 C 50.3 66.0 49.0 65.7 47.5 65.8 C 46.0 65.9 44.7 66.2 43.3 65.9 C 41.8 65.5 39.1 65.9 37.3 66.1 C 35.6 66.4 33.7 66.3 32.3 66.1 C 29.6 65.8 23.0 66.5 22.1 66.2 C 21.2 65.9 18.2 66.2 17.1 66.2 C 16.1 66.2 15.5 65.9 13.3 65.9 C 13.3 65.9 13.3 65.9 13.3 65.9 Z M 90.9 69.6 C 92.7 69.6 93.0 65.9 90.9 65.9 C 88.7 65.9 84.8 66.3 83.7 66.2 C 82.5 66.1 77.7 65.9 76.7 65.9 C 75.7 65.9 72.1 66.4 70.0 66.1 C 67.9 65.8 65.9 66.4 64.5 66.3 C 62.7 66.1 61.7 66.3 60.4 66.3 C 59.0 66.4 56.9 65.7 55.7 66.0 C 54.6 66.3 53.9 65.9 52.3 65.9 C 50.7 65.9 50.7 69.6 52.2 69.6 C 53.8 69.6 55.1 69.5 56.6 69.5 C 58.1 69.4 59.9 69.3 61.6 69.3 C 63.0 69.3 65.3 69.8 67.0 69.5 C 68.7 69.3 71.2 69.2 72.2 69.2 C 73.5 69.1 76.2 69.2 77.3 69.0 C 78.8 68.8 81.4 69.2 82.3 69.5 C 83.2 69.8 83.9 69.3 85.9 69.4 C 87.1 69.5 89.1 69.6 90.9 69.6 C 90.9 69.6 90.9 69.6 90.9 69.6 Z M 91.4 69.6 C 93.5 69.6 96.9 69.1 97.7 69.1 C 98.6 69.1 101.4 69.4 102.7 69.3 C 104.0 69.2 104.4 69.0 106.7 68.9 C 109.4 68.8 111.3 69.1 111.4 69.2 C 111.8 69.3 113.1 69.7 115.0 69.6 C 117.5 69.4 118.2 69.8 119.3 69.6 C 121.3 69.2 121.4 69.6 122.9 69.5 C 124.4 69.4 125.3 69.6 126.4 69.4 C 127.7 69.2 128.6 69.6 129.8 69.6 C 131.7 69.6 131.5 65.9 129.7 65.9 C 128.7 65.9 127.7 66.3 126.6 66.3 C 125.5 66.3 124.5 66.2 123.4 66.1 C 122.3 65.9 120.1 66.2 118.3 66.1 C 116.5 66.0 113.5 65.8 111.4 65.9 C 109.3 66.0 108.0 66.8 103.8 66.2 C 102.4 66.1 99.7 66.2 98.6 66.2 C 96.6 66.2 92.8 66.0 91.2 66.0 C 89.3 66.0 89.3 69.6 91.4 69.6 C 91.4 69.6 91.4 69.6 91.4 69.6 Z M 168.7 69.6 C 170.5 69.6 170.8 65.9 168.7 65.9 C 166.6 65.9 162.7 66.3 161.5 66.2 C 160.4 66.1 155.6 65.9 154.6 65.9 C 153.6 65.9 150.0 66.4 147.9 66.1 C 145.8 65.8 143.7 66.4 142.3 66.3 C 140.5 66.1 139.6 66.3 138.2 66.3 C 136.8 66.4 134.7 65.7 133.6 66.0 C 132.4 66.3 131.8 65.9 130.1 65.9 C 128.5 65.9 128.5 69.6 130.1 69.6 C 131.6 69.6 132.9 69.5 134.4 69.5 C 135.9 69.4 137.8 69.3 139.4 69.3 C 140.9 69.3 143.1 69.8 144.8 69.5 C 146.6 69.3 149.1 69.2 150.1 69.2 C 151.3 69.1 154.0 69.2 155.2 69.0 C 156.6 68.8 159.2 69.2 160.1 69.5 C 161.1 69.8 161.7 69.3 163.8 69.4 C 165.0 69.5 166.9 69.6 168.7 69.6 C 168.7 69.6 168.7 69.6 168.7 69.6 Z M 169.3 69.6 C 171.4 69.6 174.8 69.1 175.6 69.1 C 176.4 69.1 179.2 69.4 180.5 69.3 C 181.8 69.2 182.3 69.0 184.5 68.9 C 187.3 68.8 189.1 69.1 189.2 69.2 C 189.6 69.3 191.0 69.7 192.8 69.6 C 195.3 69.4 196.1 69.8 197.2 69.6 C 199.1 69.2 199.3 69.6 200.7 69.5 C 202.2 69.4 203.1 69.6 204.3 69.4 C 205.5 69.2 206.5 69.6 207.6 69.6 C 209.5 69.6 209.3 65.9 207.6 65.9 C 206.5 65.9 205.6 66.3 204.5 66.3 C 203.4 66.3 202.4 66.2 201.3 66.1 C 200.2 65.9 197.9 66.2 196.1 66.1 C 194.3 66.0 191.3 65.8 189.2 65.9 C 187.1 66.0 185.9 66.8 181.6 66.2 C 180.2 66.1 177.5 66.2 176.4 66.2 C 174.4 66.2 170.7 66.0 169.1 66.0 C 167.1 66.0 167.2 69.6 169.3 69.6 C 169.3 69.6 169.3 69.6 169.3 69.6 Z M 246.5 69.6 C 248.3 69.6 248.7 65.9 246.5 65.9 C 244.4 65.9 240.5 66.3 239.4 66.2 C 238.2 66.1 233.4 65.9 232.4 65.9 C 231.4 65.9 227.8 66.4 225.7 66.1 C 223.6 65.8 221.6 66.4 220.1 66.3 C 218.4 66.1 217.4 66.3 216.0 66.3 C 214.7 66.4 212.6 65.7 211.4 66.0 C 210.3 66.3 209.6 65.9 208.0 65.9 C 206.4 65.9 206.4 69.6 207.9 69.6 C 209.4 69.6 210.7 69.5 212.2 69.5 C 213.7 69.4 215.6 69.3 217.2 69.3 C 218.7 69.3 220.9 69.8 222.7 69.5 C 224.4 69.3 226.9 69.2 227.9 69.2 C 229.2 69.1 231.9 69.2 233.0 69.0 C 234.5 68.8 237.0 69.2 238.0 69.5 C 238.9 69.8 239.6 69.3 241.6 69.4 C 242.8 69.5 244.7 69.6 246.5 69.6 C 246.5 69.6 246.5 69.6 246.5 69.6 Z M 246.8 65.9 C 245.2 65.9 245.1 69.6 247.0 69.6 C 249.1 69.6 253.5 69.0 254.6 69.0 C 255.8 69.1 258.9 69.8 260.0 69.8 C 261.0 69.8 265.8 68.7 267.9 69.0 C 270.0 69.3 270.6 69.2 272.1 69.2 C 273.5 69.2 275.8 69.0 277.2 68.9 C 278.5 68.8 279.7 69.8 281.5 69.5 C 283.3 69.2 284.3 69.6 285.5 69.6 C 287.5 69.6 287.4 66.0 285.6 66.0 C 283.8 66.0 282.6 65.7 281.0 65.8 C 279.5 65.9 278.2 66.2 276.8 65.9 C 275.4 65.5 272.6 65.9 270.8 66.1 C 269.1 66.4 267.2 66.3 265.8 66.1 C 263.1 65.8 256.6 66.5 255.6 66.2 C 254.7 65.9 251.7 66.2 250.6 66.2 C 249.6 66.2 249.0 65.9 246.8 65.9 C 246.8 65.9 246.8 65.9 246.8 65.9 Z M 290.0 66.8 C 290.0 68.2 290.3 70.0 292.3 70.2 C 294.3 70.4 295.9 69.0 295.9 66.9 C 295.9 64.9 294.8 65.5 294.8 60.7 C 294.8 58.9 291.1 58.8 291.1 60.6 C 291.1 64.9 290.0 64.3 290.0 66.8 C 290.0 66.8 290.0 66.8 290.0 66.8 Z M 295.9 8.3 C 295.9 7.9 295.8 7.5 295.8 7.1 L 292.9 4.3 C 291.4 4.6 290.7 5.5 290.6 7.1 C 290.6 8.7 291.5 9.6 292.9 9.9 L 290.1 7.1 C 290.0 7.5 290.0 7.9 290.0 8.3 C 290.0 10.5 291.1 10.4 291.1 14.1 C 291.1 16.1 294.7 15.8 294.7 14.1 C 294.7 10.2 295.9 10.8 295.9 8.3 C 295.9 8.3 295.9 8.3 295.9 8.3 Z M 294.8 60.3 C 294.8 59.1 294.3 57.1 294.3 56.6 C 294.3 56.1 294.6 54.4 294.5 53.6 C 294.4 52.9 294.1 52.6 294.0 51.3 C 293.9 49.6 294.3 48.6 294.3 48.5 C 294.5 48.2 294.8 47.4 294.7 46.3 C 294.6 44.9 294.9 44.4 294.8 43.8 C 294.3 42.6 294.7 42.5 294.7 41.7 C 294.6 40.8 294.7 40.3 294.5 39.6 C 294.3 38.8 294.8 38.3 294.8 37.6 C 294.8 36.5 291.1 36.6 291.1 37.6 C 291.1 38.2 291.5 38.8 291.5 39.4 C 291.5 40.1 291.4 40.7 291.3 41.3 C 291.1 42.0 291.3 43.3 291.3 44.4 C 291.2 45.5 291.0 47.2 291.0 48.5 C 291.1 49.7 292.0 50.5 291.4 53.0 C 291.2 53.8 291.4 55.4 291.4 56.1 C 291.4 57.2 291.1 59.5 291.1 60.4 C 291.1 61.6 294.8 61.5 294.8 60.3 C 294.8 60.3 294.8 60.3 294.8 60.3 Z M 294.8 14.5 C 294.8 13.4 291.1 13.2 291.1 14.5 C 291.1 15.8 291.4 18.1 291.4 18.8 C 291.3 19.4 291.1 22.3 291.1 22.9 C 291.1 23.5 291.6 25.6 291.3 26.9 C 291.0 28.1 291.6 29.3 291.4 30.2 C 291.2 31.2 291.4 31.8 291.5 32.6 C 291.6 33.4 290.8 34.6 291.1 35.3 C 291.5 36.0 291.1 36.4 291.1 37.4 C 291.1 38.3 294.8 38.3 294.8 37.4 C 294.8 36.5 294.7 35.7 294.6 34.8 C 294.5 33.9 294.5 32.8 294.5 31.9 C 294.5 31.0 294.9 29.7 294.7 28.7 C 294.5 27.6 294.4 26.1 294.3 25.5 C 294.3 24.8 294.4 23.2 294.2 22.5 C 293.9 21.7 294.3 20.1 294.6 19.6 C 294.9 19.0 294.5 18.6 294.6 17.4 C 294.6 16.7 294.8 15.6 294.8 14.5 C 294.8 14.5 294.8 14.5 294.8 14.5 Z M 292.0 10.0 C 293.3 10.0 295.1 9.8 295.4 7.8 C 295.6 5.8 294.1 4.2 292.1 4.2 C 290.0 4.2 290.6 5.3 285.8 5.3 C 284.1 5.3 284.0 9.0 285.8 9.0 C 290.0 9.0 289.4 10.0 292.0 10.0 C 292.0 10.0 292.0 10.0 292.0 10.0 Z M 7.2 4.2 C 6.8 4.2 6.3 4.2 6.0 4.3 L 3.2 7.1 C 3.4 8.7 4.4 9.4 6.0 9.4 C 7.6 9.5 8.5 8.6 8.8 7.1 L 6.0 9.9 C 6.4 10.0 6.8 10.0 7.2 10.0 C 9.4 10.0 9.3 8.9 13.0 9.0 C 15.0 9.0 14.6 5.3 13.0 5.3 C 9.1 5.3 9.7 4.2 7.2 4.2 C 7.2 4.2 7.2 4.2 7.2 4.2 Z M 285.3 5.3 C 283.2 5.3 279.8 5.8 279.0 5.8 C 278.2 5.8 275.4 5.5 274.1 5.6 C 272.8 5.7 272.3 5.9 270.1 6.0 C 267.3 6.1 265.5 5.8 265.4 5.7 C 265.0 5.6 263.6 5.2 261.8 5.3 C 259.3 5.5 258.5 5.1 257.4 5.3 C 255.5 5.7 255.3 5.3 253.9 5.4 C 252.4 5.5 251.5 5.3 250.3 5.5 C 249.1 5.7 248.1 5.3 247.0 5.3 C 245.1 5.3 245.3 9.0 247.0 9.0 C 248.1 9.0 249.0 8.6 250.1 8.6 C 251.2 8.6 252.2 8.7 253.3 8.8 C 254.4 9.0 256.7 8.7 258.5 8.8 C 260.3 8.9 263.3 9.1 265.4 9.0 C 267.4 8.9 268.7 8.1 273.0 8.7 C 274.4 8.8 277.1 8.7 278.2 8.7 C 280.2 8.7 283.9 8.9 285.5 8.9 C 287.5 8.9 287.4 5.3 285.3 5.3 C 285.3 5.3 285.3 5.3 285.3 5.3 Z M 208.1 5.3 C 206.3 5.3 205.9 9.0 208.1 9.0 C 210.2 9.0 214.1 8.6 215.2 8.7 C 216.4 8.8 221.2 9.0 222.2 9.0 C 223.2 9.0 226.8 8.5 228.9 8.8 C 231.0 9.1 233.0 8.5 234.5 8.6 C 236.2 8.8 237.2 8.6 238.6 8.6 C 239.9 8.5 242.0 9.2 243.2 8.9 C 244.3 8.6 245.0 9.0 246.6 9.0 C 248.2 9.0 248.2 5.3 246.7 5.3 C 245.2 5.3 243.9 5.4 242.4 5.4 C 240.8 5.5 239.0 5.6 237.4 5.6 C 235.9 5.6 233.7 5.1 231.9 5.4 C 230.2 5.6 227.7 5.7 226.7 5.7 C 225.4 5.8 222.7 5.7 221.6 5.9 C 220.1 6.1 217.6 5.8 216.6 5.4 C 215.7 5.1 215.0 5.6 213.0 5.5 C 211.8 5.4 209.9 5.3 208.1 5.3 C 208.1 5.3 208.1 5.3 208.1 5.3 Z M 207.5 5.3 C 205.4 5.3 202.0 5.8 201.2 5.8 C 200.3 5.8 197.6 5.5 196.2 5.6 C 194.9 5.7 194.5 5.9 192.3 6.0 C 189.5 6.1 187.7 5.8 187.5 5.7 C 187.1 5.6 185.8 5.2 183.9 5.3 C 181.4 5.5 180.7 5.1 179.6 5.3 C 177.7 5.7 177.5 5.3 176.0 5.4 C 174.6 5.5 173.7 5.3 172.5 5.5 C 171.2 5.7 170.3 5.3 169.1 5.3 C 167.3 5.3 167.4 9.0 169.2 9.0 C 170.2 9.0 171.2 8.6 172.3 8.6 C 173.4 8.6 174.4 8.7 175.5 8.8 C 176.6 9.0 178.9 8.7 180.7 8.8 C 182.5 8.9 185.5 9.1 187.5 9.0 C 189.6 8.9 190.9 8.1 195.2 8.7 C 196.5 8.8 199.3 8.7 200.4 8.7 C 202.3 8.7 206.1 8.9 207.7 8.9 C 209.6 8.9 209.6 5.3 207.5 5.3 C 207.5 5.3 207.5 5.3 207.5 5.3 Z M 130.2 5.3 C 128.4 5.3 128.1 9.0 130.2 9.0 C 132.3 9.0 136.3 8.6 137.4 8.7 C 138.6 8.8 143.4 9.0 144.4 9.0 C 145.4 9.0 149.0 8.5 151.1 8.8 C 153.1 9.1 155.2 8.5 156.6 8.6 C 158.4 8.8 159.4 8.6 160.7 8.6 C 162.1 8.5 164.2 9.2 165.4 8.9 C 166.5 8.6 167.2 9.0 168.8 9.0 C 170.4 9.0 170.4 5.3 168.9 5.3 C 167.3 5.3 166.0 5.4 164.5 5.4 C 163.0 5.5 161.2 5.6 159.5 5.6 C 158.0 5.6 155.8 5.1 154.1 5.4 C 152.4 5.6 149.9 5.7 148.9 5.7 C 147.6 5.8 144.9 5.7 143.8 5.9 C 142.3 6.1 139.7 5.8 138.8 5.4 C 137.8 5.1 137.2 5.6 135.2 5.5 C 133.9 5.4 132.0 5.3 130.2 5.3 C 130.2 5.3 130.2 5.3 130.2 5.3 Z M 130.0 9.0 C 131.6 9.0 131.6 5.3 129.7 5.3 C 127.7 5.3 123.3 5.9 122.2 5.9 C 121.0 5.8 117.8 5.1 116.8 5.1 C 115.8 5.1 110.9 6.2 108.8 5.9 C 106.7 5.6 106.1 5.7 104.7 5.7 C 103.3 5.7 101.0 5.9 99.6 6.0 C 98.2 6.1 97.0 5.1 95.2 5.4 C 93.4 5.7 92.5 5.3 91.2 5.3 C 89.2 5.3 89.4 8.9 91.2 8.9 C 93.0 8.9 94.2 9.2 95.7 9.1 C 97.2 9.0 98.5 8.7 100.0 9.0 C 101.4 9.4 104.2 9.0 105.9 8.8 C 107.6 8.5 109.6 8.6 110.9 8.8 C 113.7 9.1 120.2 8.4 121.1 8.7 C 122.1 9.0 125.1 8.7 126.1 8.7 C 127.2 8.7 127.8 9.0 130.0 9.0 C 130.0 9.0 130.0 9.0 130.0 9.0 Z M 90.7 5.3 C 88.7 5.3 85.3 5.8 84.4 5.8 C 83.6 5.8 80.8 5.5 79.5 5.6 C 78.2 5.7 77.7 5.9 75.5 6.0 C 72.7 6.1 70.9 5.8 70.8 5.7 C 70.4 5.6 69.0 5.2 67.2 5.3 C 64.7 5.5 63.9 5.1 62.8 5.3 C 60.9 5.7 60.7 5.3 59.3 5.4 C 57.8 5.5 56.9 5.3 55.7 5.5 C 54.5 5.7 53.5 5.3 52.4 5.3 C 50.5 5.3 50.7 9.0 52.4 9.0 C 53.5 9.0 54.4 8.6 55.5 8.6 C 56.7 8.6 57.6 8.7 58.7 8.8 C 59.8 9.0 62.1 8.7 63.9 8.8 C 65.7 8.9 68.7 9.1 70.8 9.0 C 72.9 8.9 74.1 8.1 78.4 8.7 C 79.8 8.8 82.5 8.7 83.6 8.7 C 85.6 8.7 89.3 8.9 90.9 8.9 C 92.9 8.9 92.8 5.3 90.7 5.3 C 90.7 5.3 90.7 5.3 90.7 5.3 Z M 13.5 5.3 C 11.7 5.3 11.3 9.0 13.5 9.0 C 15.6 9.0 19.5 8.6 20.7 8.7 C 21.8 8.8 26.6 9.0 27.6 9.0 C 28.6 9.0 32.2 8.5 34.3 8.8 C 36.4 9.1 38.4 8.5 39.9 8.6 C 41.7 8.8 42.6 8.6 44.0 8.6 C 45.3 8.5 47.4 9.2 48.6 8.9 C 49.8 8.6 50.4 9.0 52.0 9.0 C 53.6 9.0 53.6 5.3 52.1 5.3 C 50.6 5.3 49.3 5.4 47.8 5.4 C 46.3 5.5 44.4 5.6 42.8 5.6 C 41.3 5.6 39.1 5.1 37.3 5.4 C 35.6 5.6 33.1 5.7 32.1 5.7 C 30.8 5.8 28.2 5.7 27.0 5.9 C 25.5 6.1 23.0 5.8 22.0 5.4 C 21.1 5.1 20.4 5.6 18.4 5.5 C 17.2 5.4 15.3 5.3 13.5 5.3 C 13.5 5.3 13.5 5.3 13.5 5.3 Z M 8.9 8.1 C 8.9 6.7 8.7 4.9 6.6 4.7 C 4.6 4.5 3.1 5.9 3.1 8.0 C 3.1 10.0 4.2 9.4 4.2 14.2 C 4.2 16.0 7.8 16.1 7.8 14.3 C 7.8 10.0 8.9 10.6 8.9 8.1 C 8.9 8.1 8.9 8.1 8.9 8.1 Z M 3.1 66.6 C 3.1 69.0 4.0 70.0 6.0 70.1 C 8.0 70.1 8.9 68.8 8.9 66.6 C 8.9 64.4 7.8 64.5 7.8 60.8 C 7.9 58.8 4.2 59.1 4.2 60.8 C 4.2 64.7 3.1 64.1 3.1 66.6 C 3.1 66.6 3.1 66.6 3.1 66.6 Z M 4.2 14.6 C 4.2 15.8 4.6 17.8 4.6 18.3 C 4.6 18.8 4.4 20.5 4.4 21.3 C 4.5 22.0 4.8 22.3 4.9 23.6 C 5.0 25.3 4.6 26.3 4.6 26.4 C 4.5 26.7 4.1 27.5 4.2 28.6 C 4.4 30.0 4.0 30.5 4.2 31.1 C 4.6 32.3 4.2 32.4 4.3 33.2 C 4.3 34.1 4.2 34.6 4.4 35.3 C 4.6 36.1 4.1 36.6 4.2 37.3 C 4.2 38.4 7.8 38.3 7.8 37.3 C 7.8 36.7 7.4 36.1 7.4 35.5 C 7.4 34.8 7.5 34.2 7.7 33.6 C 7.8 32.9 7.6 31.6 7.7 30.5 C 7.8 29.4 8.0 27.7 7.9 26.4 C 7.8 25.2 6.9 24.4 7.5 21.9 C 7.7 21.1 7.5 19.5 7.5 18.8 C 7.5 17.7 7.8 15.4 7.8 14.5 C 7.8 13.3 4.2 13.4 4.2 14.6 C 4.2 14.6 4.2 14.6 4.2 14.6 Z M 7.8 37.5 C 7.8 36.5 4.2 36.5 4.2 37.6 C 4.2 38.8 4.8 41.4 4.7 42.1 C 4.7 42.8 4.0 44.7 4.0 45.3 C 4.0 45.9 5.0 48.8 4.7 50.0 C 4.4 51.2 4.6 51.6 4.6 52.5 C 4.6 53.3 4.8 54.7 4.9 55.5 C 5.0 56.3 4.0 57.0 4.3 58.1 C 4.5 59.1 4.2 59.7 4.2 60.4 C 4.2 61.6 7.8 61.6 7.8 60.5 C 7.8 59.4 8.1 58.7 8.0 57.8 C 7.9 56.9 7.5 56.1 7.9 55.3 C 8.3 54.4 7.9 52.8 7.6 51.7 C 7.4 50.7 7.5 49.6 7.7 48.8 C 8.0 47.2 7.3 43.3 7.6 42.7 C 7.9 42.2 7.6 40.4 7.6 39.7 C 7.6 39.1 7.8 38.8 7.8 37.5 C 7.8 37.5 7.8 37.5 7.8 37.5 Z M 7.8 37.5 " fill="#000000"></path></g></svg>