<?xml version="1.0" encoding="UTF-8" standalone="no"?><svg xmlns="http://www.w3.org/2000/svg" xmlns:xlink="http://www.w3.org/1999/xlink" clip-rule="evenodd" stroke-miterlimit="4.00" viewBox="0 0 572 74"><desc>SVG generated by Keynote</desc><defs></defs><g transform="matrix(1.00, 0.00, -0.00, -1.00, 0.0, 74.0)"><path d="M 5.8 67.8 L 566.2 67.8 L 566.2 7.2 L 5.8 7.2 Z M 5.8 67.8 " fill="#FEFFFF"></path><path d="M 6.8 64.9 C 5.5 64.9 3.6 65.2 3.4 67.2 C 3.2 69.2 4.7 70.7 6.7 70.7 C 8.7 70.7 8.2 69.6 12.9 69.6 C 14.7 69.6 14.8 66.0 13.0 66.0 C 8.8 66.0 9.3 64.9 6.8 64.9 C 6.8 64.9 6.8 64.9 6.8 64.9 Z M 564.9 70.7 C 565.4 70.7 565.8 70.7 566.2 70.6 L 569.0 67.8 C 568.7 66.2 567.8 65.6 566.2 65.5 C 564.6 65.5 563.7 66.4 563.4 67.8 L 566.2 65.0 C 565.8 64.9 565.4 64.9 564.9 64.9 C 562.8 64.9 562.9 66.0 559.2 66.0 C 557.2 65.9 557.5 69.6 559.1 69.6 C 563.1 69.6 562.5 70.7 564.9 70.7 C 564.9 70.7 564.9 70.7 564.9 70.7 Z M 13.1 66.0 C 11.4 66.0 11.3 69.7 13.4 69.7 C 15.6 69.7 20.3 69.0 21.6 69.1 C 22.8 69.2 26.2 69.9 27.3 69.9 C 28.4 69.9 33.7 68.8 35.9 69.1 C 38.2 69.4 38.8 69.2 40.4 69.2 C 41.9 69.2 44.4 69.0 45.9 68.9 C 47.4 68.8 48.7 69.8 50.6 69.6 C 52.6 69.3 53.6 69.7 54.9 69.7 C 57.1 69.7 56.9 66.0 55.0 66.0 C 53.0 66.0 51.7 65.8 50.1 65.8 C 48.4 65.9 47.0 66.3 45.5 65.9 C 43.9 65.5 40.9 65.9 39.1 66.2 C 37.2 66.4 35.1 66.3 33.7 66.1 C 30.7 65.8 23.7 66.5 22.7 66.2 C 21.6 65.9 18.4 66.2 17.3 66.2 C 16.1 66.2 15.5 66.0 13.1 66.0 C 13.1 66.0 13.1 66.0 13.1 66.0 Z M 96.8 69.7 C 98.8 69.7 99.1 66.0 96.8 66.0 C 94.5 66.0 90.3 66.3 89.1 66.3 C 87.8 66.2 82.7 66.0 81.6 66.0 C 80.5 66.0 76.6 66.5 74.3 66.2 C 72.1 65.9 69.9 66.5 68.3 66.3 C 66.4 66.1 65.4 66.3 63.9 66.4 C 62.4 66.5 60.2 65.7 58.9 66.0 C 57.7 66.3 57.0 66.0 55.2 66.0 C 53.5 66.0 53.5 69.6 55.1 69.6 C 56.8 69.6 58.2 69.6 59.8 69.5 C 61.5 69.4 63.4 69.4 65.2 69.4 C 66.8 69.4 69.2 69.8 71.1 69.6 C 72.9 69.4 75.6 69.3 76.7 69.2 C 78.1 69.2 81.0 69.3 82.2 69.1 C 83.8 68.8 86.6 69.2 87.6 69.5 C 88.6 69.8 89.3 69.4 91.5 69.5 C 92.8 69.5 94.9 69.7 96.8 69.7 C 96.8 69.7 96.8 69.7 96.8 69.7 Z M 97.4 69.7 C 99.7 69.7 103.4 69.2 104.2 69.2 C 105.1 69.2 108.2 69.4 109.6 69.4 C 111.0 69.3 111.5 69.0 113.9 68.9 C 116.9 68.8 118.8 69.2 119.0 69.2 C 119.4 69.4 120.8 69.7 122.9 69.6 C 125.5 69.5 126.4 69.8 127.6 69.7 C 129.6 69.2 129.8 69.6 131.4 69.6 C 133.0 69.5 133.9 69.6 135.2 69.4 C 136.6 69.2 137.6 69.7 138.8 69.7 C 140.8 69.7 140.6 66.0 138.8 66.0 C 137.6 66.0 136.6 66.4 135.4 66.4 C 134.2 66.4 133.2 66.3 132.0 66.1 C 130.8 66.0 128.3 66.2 126.4 66.1 C 124.4 66.1 121.2 65.8 119.0 65.9 C 116.7 66.0 115.3 66.9 110.7 66.3 C 109.3 66.1 106.3 66.3 105.1 66.3 C 103.0 66.3 99.0 66.0 97.2 66.0 C 95.1 66.0 95.2 69.7 97.4 69.7 C 97.4 69.7 97.4 69.7 97.4 69.7 Z M 180.8 69.7 C 182.7 69.7 183.1 66.0 180.8 66.0 C 178.5 66.0 174.3 66.3 173.0 66.3 C 171.8 66.2 166.6 66.0 165.5 66.0 C 164.5 66.0 160.6 66.5 158.3 66.2 C 156.1 65.9 153.9 66.5 152.3 66.3 C 150.4 66.1 149.4 66.3 147.9 66.4 C 146.4 66.5 144.1 65.7 142.9 66.0 C 141.7 66.3 140.9 66.0 139.2 66.0 C 137.5 66.0 137.5 69.6 139.1 69.6 C 140.8 69.6 142.2 69.6 143.8 69.5 C 145.4 69.4 147.4 69.4 149.2 69.4 C 150.8 69.4 153.2 69.8 155.0 69.6 C 156.9 69.4 159.6 69.3 160.7 69.2 C 162.1 69.2 165.0 69.3 166.2 69.1 C 167.8 68.8 170.5 69.2 171.6 69.5 C 172.6 69.8 173.3 69.4 175.5 69.5 C 176.8 69.5 178.9 69.7 180.8 69.7 C 180.8 69.7 180.8 69.7 180.8 69.7 Z M 181.4 69.7 C 183.7 69.7 187.3 69.2 188.2 69.2 C 189.1 69.2 192.1 69.4 193.6 69.4 C 195.0 69.3 195.4 69.0 197.8 68.9 C 200.8 68.8 202.8 69.2 202.9 69.2 C 203.4 69.4 204.8 69.7 206.8 69.6 C 209.5 69.5 210.3 69.8 211.5 69.7 C 213.6 69.2 213.8 69.6 215.3 69.6 C 216.9 69.5 217.9 69.6 219.2 69.4 C 220.5 69.2 221.5 69.7 222.8 69.7 C 224.8 69.7 224.6 66.0 222.7 66.0 C 221.6 66.0 220.6 66.4 219.4 66.4 C 218.2 66.4 217.1 66.3 215.9 66.1 C 214.7 66.0 212.3 66.2 210.4 66.1 C 208.4 66.1 205.2 65.8 202.9 65.9 C 200.7 66.0 199.3 66.9 194.7 66.3 C 193.2 66.1 190.3 66.3 189.1 66.3 C 187.0 66.3 182.9 66.0 181.2 66.0 C 179.1 66.0 179.2 69.7 181.4 69.7 C 181.4 69.7 181.4 69.7 181.4 69.7 Z M 264.8 69.7 C 266.7 69.7 267.1 66.0 264.8 66.0 C 262.5 66.0 258.3 66.3 257.0 66.3 C 255.8 66.2 250.6 66.0 249.5 66.0 C 248.4 66.0 244.5 66.5 242.3 66.2 C 240.0 65.9 237.8 66.5 236.3 66.3 C 234.4 66.1 233.3 66.3 231.9 66.4 C 230.4 66.5 228.1 65.7 226.9 66.0 C 225.6 66.3 224.9 66.0 223.2 66.0 C 221.4 66.0 221.4 69.6 223.1 69.6 C 224.7 69.6 226.1 69.6 227.8 69.5 C 229.4 69.4 231.4 69.4 233.1 69.4 C 234.8 69.4 237.2 69.8 239.0 69.6 C 240.9 69.4 243.6 69.3 244.7 69.2 C 246.0 69.2 248.9 69.3 250.2 69.1 C 251.8 68.8 254.5 69.2 255.5 69.5 C 256.5 69.8 257.2 69.4 259.4 69.5 C 260.7 69.5 262.8 69.7 264.8 69.7 C 264.8 69.7 264.8 69.7 264.8 69.7 Z M 265.0 66.0 C 263.3 66.0 263.3 69.7 265.3 69.7 C 267.5 69.7 272.2 69.0 273.5 69.1 C 274.7 69.2 278.2 69.9 279.3 69.9 C 280.3 69.9 285.6 68.8 287.9 69.1 C 290.1 69.4 290.7 69.2 292.3 69.2 C 293.9 69.2 296.3 69.0 297.8 68.9 C 299.3 68.8 300.6 69.8 302.5 69.6 C 304.5 69.3 305.5 69.7 306.8 69.7 C 309.0 69.7 308.9 66.0 306.9 66.0 C 304.9 66.0 303.6 65.8 302.0 65.8 C 300.4 65.9 299.0 66.3 297.4 65.9 C 295.9 65.5 292.9 65.9 291.0 66.2 C 289.1 66.4 287.1 66.3 285.6 66.1 C 282.6 65.8 275.6 66.5 274.6 66.2 C 273.6 65.9 270.3 66.2 269.2 66.2 C 268.0 66.2 267.4 66.0 265.0 66.0 C 265.0 66.0 265.0 66.0 265.0 66.0 Z M 307.4 69.7 C 309.6 69.7 313.3 69.2 314.2 69.2 C 315.1 69.2 318.1 69.4 319.5 69.4 C 320.9 69.3 321.4 69.0 323.8 68.9 C 326.8 68.8 328.8 69.2 328.9 69.2 C 329.3 69.4 330.8 69.7 332.8 69.6 C 335.5 69.5 336.3 69.8 337.5 69.7 C 339.5 69.2 339.7 69.6 341.3 69.6 C 342.9 69.5 343.9 69.6 345.1 69.4 C 346.5 69.2 347.5 69.7 348.8 69.7 C 350.8 69.7 350.6 66.0 348.7 66.0 C 347.5 66.0 346.5 66.4 345.3 66.4 C 344.1 66.4 343.1 66.3 341.9 66.1 C 340.7 66.0 338.3 66.2 336.3 66.1 C 334.4 66.1 331.1 65.8 328.9 65.9 C 326.7 66.0 325.3 66.9 320.7 66.3 C 319.2 66.1 316.2 66.3 315.0 66.3 C 312.9 66.3 308.9 66.0 307.1 66.0 C 305.1 66.0 305.1 69.7 307.4 69.7 C 307.4 69.7 307.4 69.7 307.4 69.7 Z M 390.7 69.7 C 392.7 69.7 393.0 66.0 390.7 66.0 C 388.4 66.0 384.2 66.3 383.0 66.3 C 381.7 66.2 376.6 66.0 375.5 66.0 C 374.4 66.0 370.5 66.5 368.2 66.2 C 366.0 65.9 363.8 66.5 362.2 66.3 C 360.3 66.1 359.3 66.3 357.8 66.4 C 356.3 66.5 354.1 65.7 352.8 66.0 C 351.6 66.3 350.9 66.0 349.1 66.0 C 347.4 66.0 347.4 69.6 349.0 69.6 C 350.7 69.6 352.1 69.6 353.7 69.5 C 355.4 69.4 357.3 69.4 359.1 69.4 C 360.7 69.4 363.1 69.8 365.0 69.6 C 366.8 69.4 369.5 69.3 370.6 69.2 C 372.0 69.2 374.9 69.3 376.1 69.1 C 377.7 68.8 380.5 69.2 381.5 69.5 C 382.5 69.8 383.2 69.4 385.4 69.5 C 386.7 69.5 388.8 69.7 390.7 69.7 C 390.7 69.7 390.7 69.7 390.7 69.7 Z M 391.3 69.7 C 393.6 69.7 397.3 69.2 398.2 69.2 C 399.0 69.2 402.1 69.4 403.5 69.4 C 404.9 69.3 405.4 69.0 407.8 68.9 C 410.8 68.8 412.7 69.2 412.9 69.2 C 413.3 69.4 414.7 69.7 416.8 69.6 C 419.4 69.5 420.3 69.8 421.5 69.7 C 423.5 69.2 423.7 69.6 425.3 69.6 C 426.9 69.5 427.8 69.6 429.1 69.4 C 430.5 69.2 431.5 69.7 432.7 69.7 C 434.7 69.7 434.5 66.0 432.7 66.0 C 431.5 66.0 430.5 66.4 429.3 66.4 C 428.1 66.4 427.1 66.3 425.9 66.1 C 424.7 66.0 422.2 66.2 420.3 66.1 C 418.3 66.1 415.1 65.8 412.9 65.9 C 410.6 66.0 409.2 66.9 404.6 66.3 C 403.2 66.1 400.2 66.3 399.0 66.3 C 396.9 66.3 392.9 66.0 391.1 66.0 C 389.0 66.0 389.1 69.7 391.3 69.7 C 391.3 69.7 391.3 69.7 391.3 69.7 Z M 474.7 69.7 C 476.6 69.7 477.0 66.0 474.7 66.0 C 472.4 66.0 468.2 66.3 466.9 66.3 C 465.7 66.2 460.5 66.0 459.4 66.0 C 458.4 66.0 454.5 66.5 452.2 66.2 C 450.0 65.9 447.8 66.5 446.2 66.3 C 444.3 66.1 443.3 66.3 441.8 66.4 C 440.3 66.5 438.0 65.7 436.8 66.0 C 435.6 66.3 434.8 66.0 433.1 66.0 C 431.4 66.0 431.4 69.6 433.0 69.6 C 434.7 69.6 436.1 69.6 437.7 69.5 C 439.3 69.4 441.3 69.4 443.1 69.4 C 444.7 69.4 447.1 69.8 448.9 69.6 C 450.8 69.4 453.5 69.3 454.6 69.2 C 456.0 69.2 458.9 69.3 460.1 69.1 C 461.7 68.8 464.4 69.2 465.5 69.5 C 466.5 69.8 467.2 69.4 469.4 69.5 C 470.7 69.5 472.8 69.7 474.7 69.7 C 474.7 69.7 474.7 69.7 474.7 69.7 Z M 475.3 69.7 C 477.6 69.7 481.2 69.2 482.1 69.2 C 483.0 69.2 486.0 69.4 487.5 69.4 C 488.9 69.3 489.3 69.0 491.7 68.9 C 494.7 68.8 496.7 69.2 496.8 69.2 C 497.3 69.4 498.7 69.7 500.7 69.6 C 503.4 69.5 504.2 69.8 505.4 69.7 C 507.5 69.2 507.7 69.6 509.2 69.6 C 510.8 69.5 511.8 69.6 513.1 69.4 C 514.4 69.2 515.4 69.7 516.7 69.7 C 518.7 69.7 518.5 66.0 516.6 66.0 C 515.5 66.0 514.5 66.4 513.3 66.4 C 512.1 66.4 511.0 66.3 509.8 66.1 C 508.6 66.0 506.2 66.2 504.3 66.1 C 502.3 66.1 499.1 65.8 496.8 65.9 C 494.6 66.0 493.2 66.9 488.6 66.3 C 487.1 66.1 484.2 66.3 483.0 66.3 C 480.9 66.3 476.8 66.0 475.1 66.0 C 473.0 66.0 473.1 69.7 475.3 69.7 C 475.3 69.7 475.3 69.7 475.3 69.7 Z M 558.7 69.7 C 560.6 69.7 561.0 66.0 558.7 66.0 C 556.4 66.0 552.2 66.3 550.9 66.3 C 549.7 66.2 544.5 66.0 543.4 66.0 C 542.3 66.0 538.4 66.5 536.2 66.2 C 533.9 65.9 531.7 66.5 530.2 66.3 C 528.3 66.1 527.2 66.3 525.8 66.4 C 524.3 66.5 522.0 65.7 520.8 66.0 C 519.5 66.3 518.8 66.0 517.1 66.0 C 515.3 66.0 515.3 69.6 517.0 69.6 C 518.6 69.6 520.0 69.6 521.7 69.5 C 523.3 69.4 525.3 69.4 527.0 69.4 C 528.7 69.4 531.1 69.8 532.9 69.6 C 534.8 69.4 537.5 69.3 538.6 69.2 C 539.9 69.2 542.8 69.3 544.1 69.1 C 545.7 68.8 548.4 69.2 549.4 69.5 C 550.4 69.8 551.1 69.4 553.3 69.5 C 554.6 69.5 556.7 69.7 558.7 69.7 C 558.7 69.7 558.7 69.7 558.7 69.7 Z M 563.3 66.8 C 563.3 68.2 563.5 70.0 565.5 70.3 C 567.5 70.5 569.1 69.0 569.1 67.0 C 569.1 64.9 568.0 65.5 568.0 60.7 C 568.0 59.0 564.3 58.9 564.3 60.6 C 564.3 64.9 563.3 64.3 563.3 66.8 C 563.3 66.8 563.3 66.8 563.3 66.8 Z M 569.1 8.4 C 569.1 7.9 569.1 7.5 569.0 7.2 L 566.2 4.3 C 564.6 4.6 563.9 5.5 563.9 7.1 C 563.8 8.8 564.7 9.7 566.2 10.0 L 563.4 7.2 C 563.3 7.5 563.2 7.9 563.2 8.4 C 563.2 10.6 564.3 10.5 564.3 14.2 C 564.3 16.1 568.0 15.8 568.0 14.2 C 568.0 10.3 569.1 10.9 569.1 8.4 C 569.1 8.4 569.1 8.4 569.1 8.4 Z M 564.3 60.5 C 564.3 61.5 568.0 61.5 568.0 60.4 C 568.0 59.2 567.3 56.6 567.4 55.9 C 567.5 55.2 568.2 53.3 568.2 52.7 C 568.2 52.1 567.1 49.2 567.4 48.0 C 567.7 46.8 567.6 46.4 567.6 45.6 C 567.6 44.7 567.3 43.4 567.3 42.5 C 567.2 41.7 568.2 41.0 567.9 39.9 C 567.6 38.9 568.0 38.3 568.0 37.6 C 568.0 36.4 564.3 36.5 564.3 37.6 C 564.3 38.6 564.1 39.3 564.2 40.2 C 564.3 41.1 564.6 41.9 564.3 42.8 C 563.9 43.6 564.3 45.3 564.5 46.3 C 564.8 47.3 564.6 48.4 564.5 49.2 C 564.2 50.9 564.9 54.7 564.6 55.3 C 564.3 55.9 564.6 57.6 564.6 58.3 C 564.6 58.9 564.3 59.2 564.3 60.5 C 564.3 60.5 564.3 60.5 564.3 60.5 Z M 568.0 37.3 C 568.0 36.0 567.5 34.0 567.5 33.5 C 567.5 33.0 567.8 31.4 567.7 30.6 C 567.6 29.8 567.3 29.6 567.3 28.3 C 567.2 26.6 567.5 25.5 567.6 25.5 C 567.7 25.2 568.1 24.4 568.0 23.3 C 567.8 21.8 568.2 21.4 568.0 20.7 C 567.6 19.6 568.0 19.5 567.9 18.6 C 567.8 17.8 568.0 17.2 567.8 16.5 C 567.6 15.8 568.0 15.2 568.0 14.5 C 568.0 13.4 564.3 13.5 564.3 14.6 C 564.3 15.2 564.7 15.8 564.7 16.4 C 564.7 17.1 564.6 17.7 564.5 18.3 C 564.3 19.0 564.6 20.3 564.5 21.4 C 564.4 22.4 564.2 24.2 564.3 25.5 C 564.3 26.7 565.2 27.5 564.6 30.0 C 564.5 30.8 564.6 32.4 564.6 33.1 C 564.6 34.2 564.3 36.4 564.3 37.4 C 564.3 38.6 568.0 38.5 568.0 37.3 C 568.0 37.3 568.0 37.3 568.0 37.3 Z M 565.2 10.1 C 566.5 10.1 568.4 9.8 568.6 7.8 C 568.8 5.8 567.3 4.2 565.3 4.2 C 563.3 4.2 563.8 5.3 559.1 5.3 C 557.3 5.3 557.2 9.0 559.0 9.0 C 563.2 9.0 562.7 10.1 565.2 10.1 C 565.2 10.1 565.2 10.1 565.2 10.1 Z M 7.1 4.2 C 6.6 4.2 6.2 4.3 5.8 4.3 L 3.0 7.2 C 3.3 8.7 4.2 9.4 5.8 9.5 C 7.4 9.5 8.3 8.6 8.6 7.2 L 5.8 10.0 C 6.2 10.1 6.6 10.1 7.1 10.1 C 9.2 10.1 9.1 9.0 12.8 9.0 C 14.8 9.0 14.5 5.4 12.9 5.4 C 8.9 5.4 9.5 4.2 7.1 4.2 C 7.1 4.2 7.1 4.2 7.1 4.2 Z M 517.2 5.3 C 515.2 5.3 514.9 9.0 517.2 9.0 C 519.4 9.0 523.7 8.7 524.9 8.7 C 526.2 8.8 531.3 9.0 532.4 9.0 C 533.5 9.0 537.4 8.5 539.6 8.8 C 541.9 9.1 544.1 8.5 545.6 8.7 C 547.6 8.9 548.6 8.7 550.1 8.6 C 551.5 8.5 553.8 9.3 555.1 9.0 C 556.3 8.6 557.0 9.0 558.8 9.0 C 560.5 9.0 560.5 5.3 558.9 5.3 C 557.2 5.3 555.8 5.4 554.2 5.5 C 552.5 5.6 550.5 5.6 548.8 5.6 C 547.2 5.6 544.8 5.2 542.9 5.4 C 541.0 5.6 538.3 5.7 537.3 5.8 C 535.9 5.8 533.0 5.7 531.8 5.9 C 530.2 6.2 527.4 5.8 526.4 5.5 C 525.4 5.2 524.7 5.6 522.5 5.5 C 521.2 5.5 519.1 5.3 517.2 5.3 C 517.2 5.3 517.2 5.3 517.2 5.3 Z M 516.5 5.3 C 514.3 5.3 510.6 5.8 509.7 5.8 C 508.8 5.8 505.8 5.5 504.4 5.6 C 503.0 5.7 502.5 6.0 500.1 6.1 C 497.1 6.2 495.2 5.8 495.0 5.8 C 494.6 5.6 493.1 5.3 491.1 5.4 C 488.4 5.5 487.6 5.2 486.4 5.3 C 484.4 5.8 484.2 5.4 482.6 5.4 C 481.0 5.5 480.1 5.4 478.8 5.6 C 477.4 5.8 476.4 5.3 475.2 5.3 C 473.2 5.3 473.3 9.0 475.2 9.0 C 476.4 9.0 477.4 8.6 478.6 8.6 C 479.8 8.6 480.8 8.7 482.0 8.9 C 483.2 9.0 485.7 8.8 487.6 8.9 C 489.5 8.9 492.8 9.1 495.0 9.1 C 497.3 9.0 498.7 8.1 503.2 8.7 C 504.7 8.9 507.7 8.7 508.9 8.7 C 511.0 8.7 515.0 9.0 516.8 9.0 C 518.9 9.0 518.8 5.3 516.5 5.3 C 516.5 5.3 516.5 5.3 516.5 5.3 Z M 474.9 9.0 C 476.7 9.0 476.7 5.3 474.6 5.3 C 472.5 5.3 467.7 6.0 466.5 5.9 C 465.2 5.8 461.8 5.1 460.7 5.1 C 459.6 5.1 454.3 6.2 452.1 5.9 C 449.8 5.6 449.2 5.8 447.6 5.8 C 446.1 5.8 443.6 6.0 442.1 6.1 C 440.7 6.2 439.3 5.2 437.4 5.4 C 435.5 5.7 434.4 5.3 433.1 5.3 C 431.0 5.3 431.1 9.0 433.1 9.0 C 435.0 9.0 436.3 9.2 438.0 9.2 C 439.6 9.1 441.0 8.7 442.5 9.1 C 444.1 9.5 447.1 9.1 449.0 8.8 C 450.8 8.6 452.9 8.7 454.3 8.9 C 457.3 9.1 464.4 8.5 465.4 8.8 C 466.4 9.1 469.6 8.8 470.8 8.8 C 471.9 8.8 472.5 9.0 474.9 9.0 C 474.9 9.0 474.9 9.0 474.9 9.0 Z M 432.6 5.3 C 430.3 5.3 426.7 5.8 425.8 5.8 C 424.9 5.8 421.9 5.5 420.4 5.6 C 419.0 5.7 418.5 6.0 416.1 6.1 C 413.2 6.2 411.2 5.8 411.0 5.8 C 410.6 5.6 409.2 5.3 407.2 5.4 C 404.5 5.5 403.7 5.2 402.5 5.3 C 400.4 5.8 400.2 5.4 398.6 5.4 C 397.1 5.5 396.1 5.4 394.8 5.6 C 393.5 5.8 392.5 5.3 391.2 5.3 C 389.2 5.3 389.4 9.0 391.3 9.0 C 392.4 9.0 393.4 8.6 394.6 8.6 C 395.8 8.6 396.8 8.7 398.0 8.9 C 399.2 9.0 401.7 8.8 403.6 8.9 C 405.6 8.9 408.8 9.1 411.0 9.1 C 413.3 9.0 414.7 8.1 419.3 8.7 C 420.8 8.9 423.7 8.7 424.9 8.7 C 427.0 8.7 431.0 9.0 432.8 9.0 C 434.9 9.0 434.8 5.3 432.6 5.3 C 432.6 5.3 432.6 5.3 432.6 5.3 Z M 390.9 9.0 C 392.7 9.0 392.7 5.3 390.7 5.3 C 388.5 5.3 383.7 6.0 382.5 5.9 C 381.2 5.8 377.8 5.1 376.7 5.1 C 375.6 5.1 370.4 6.2 368.1 5.9 C 365.9 5.6 365.2 5.8 363.7 5.8 C 362.1 5.8 359.6 6.0 358.2 6.1 C 356.7 6.2 355.4 5.2 353.4 5.4 C 351.5 5.7 350.5 5.3 349.1 5.3 C 347.0 5.3 347.1 9.0 349.1 9.0 C 351.0 9.0 352.3 9.2 354.0 9.2 C 355.6 9.1 357.0 8.7 358.6 9.1 C 360.1 9.5 363.1 9.1 365.0 8.8 C 366.8 8.6 368.9 8.7 370.4 8.9 C 373.3 9.1 380.4 8.5 381.4 8.8 C 382.4 9.1 385.6 8.8 386.8 8.8 C 387.9 8.8 388.6 9.0 390.9 9.0 C 390.9 9.0 390.9 9.0 390.9 9.0 Z M 348.6 5.3 C 346.4 5.3 342.7 5.8 341.8 5.8 C 340.9 5.8 337.9 5.5 336.5 5.6 C 335.0 5.7 334.6 6.0 332.2 6.1 C 329.2 6.2 327.2 5.8 327.1 5.8 C 326.7 5.6 325.2 5.3 323.2 5.4 C 320.5 5.5 319.7 5.2 318.5 5.3 C 316.4 5.8 316.2 5.4 314.7 5.4 C 313.1 5.5 312.1 5.4 310.9 5.6 C 309.5 5.8 308.5 5.3 307.2 5.3 C 305.2 5.3 305.4 9.0 307.3 9.0 C 308.4 9.0 309.4 8.6 310.6 8.6 C 311.8 8.6 312.9 8.7 314.1 8.9 C 315.3 9.0 317.7 8.8 319.7 8.9 C 321.6 8.9 324.8 9.1 327.1 9.1 C 329.3 9.0 330.7 8.1 335.3 8.7 C 336.8 8.9 339.7 8.7 340.9 8.7 C 343.0 8.7 347.1 9.0 348.8 9.0 C 350.9 9.0 350.9 5.3 348.6 5.3 C 348.6 5.3 348.6 5.3 348.6 5.3 Z M 307.0 9.0 C 308.7 9.0 308.7 5.3 306.7 5.3 C 304.5 5.3 299.8 6.0 298.5 5.9 C 297.3 5.8 293.8 5.1 292.7 5.1 C 291.7 5.1 286.4 6.2 284.1 5.9 C 281.9 5.6 281.3 5.8 279.7 5.8 C 278.1 5.8 275.7 6.0 274.2 6.1 C 272.7 6.2 271.4 5.2 269.5 5.4 C 267.5 5.7 266.5 5.3 265.2 5.3 C 263.0 5.3 263.1 9.0 265.1 9.0 C 267.1 9.0 268.4 9.2 270.0 9.2 C 271.6 9.1 273.0 8.7 274.6 9.1 C 276.1 9.5 279.1 9.1 281.0 8.8 C 282.9 8.6 284.9 8.7 286.4 8.9 C 289.4 9.1 296.4 8.5 297.4 8.8 C 298.4 9.1 301.7 8.8 302.8 8.8 C 304.0 8.8 304.6 9.0 307.0 9.0 C 307.0 9.0 307.0 9.0 307.0 9.0 Z M 223.3 5.3 C 221.3 5.3 221.0 9.0 223.3 9.0 C 225.5 9.0 229.8 8.7 231.0 8.7 C 232.3 8.8 237.4 9.0 238.5 9.0 C 239.6 9.0 243.5 8.5 245.7 8.8 C 248.0 9.1 250.2 8.5 251.7 8.7 C 253.7 8.9 254.7 8.7 256.2 8.6 C 257.6 8.5 259.9 9.3 261.2 9.0 C 262.4 8.6 263.1 9.0 264.9 9.0 C 266.6 9.0 266.6 5.3 264.9 5.3 C 263.3 5.3 261.9 5.4 260.3 5.5 C 258.6 5.6 256.6 5.6 254.9 5.6 C 253.3 5.6 250.9 5.2 249.0 5.4 C 247.1 5.6 244.4 5.7 243.4 5.8 C 242.0 5.8 239.1 5.7 237.9 5.9 C 236.3 6.2 233.5 5.8 232.5 5.5 C 231.5 5.2 230.8 5.6 228.6 5.5 C 227.3 5.5 225.2 5.3 223.3 5.3 C 223.3 5.3 223.3 5.3 223.3 5.3 Z M 222.6 5.3 C 220.4 5.3 216.7 5.8 215.8 5.8 C 214.9 5.8 211.9 5.5 210.5 5.6 C 209.1 5.7 208.6 6.0 206.2 6.1 C 203.2 6.2 201.3 5.8 201.1 5.8 C 200.7 5.6 199.2 5.3 197.2 5.4 C 194.5 5.5 193.7 5.2 192.5 5.3 C 190.5 5.8 190.3 5.4 188.7 5.4 C 187.1 5.5 186.2 5.4 184.9 5.6 C 183.5 5.8 182.5 5.3 181.3 5.3 C 179.3 5.3 179.4 9.0 181.3 9.0 C 182.5 9.0 183.5 8.6 184.7 8.6 C 185.9 8.6 186.9 8.7 188.1 8.9 C 189.3 9.0 191.8 8.8 193.7 8.9 C 195.6 8.9 198.9 9.1 201.1 9.1 C 203.4 9.0 204.8 8.1 209.3 8.7 C 210.8 8.9 213.8 8.7 215.0 8.7 C 217.1 8.7 221.1 9.0 222.9 9.0 C 225.0 9.0 224.9 5.3 222.6 5.3 C 222.6 5.3 222.6 5.3 222.6 5.3 Z M 181.0 9.0 C 182.8 9.0 182.8 5.3 180.7 5.3 C 178.6 5.3 173.8 6.0 172.6 5.9 C 171.3 5.8 167.9 5.1 166.8 5.1 C 165.7 5.1 160.4 6.2 158.2 5.9 C 155.9 5.6 155.3 5.8 153.7 5.8 C 152.2 5.8 149.7 6.0 148.2 6.1 C 146.8 6.2 145.4 5.2 143.5 5.4 C 141.6 5.7 140.5 5.3 139.2 5.3 C 137.1 5.3 137.2 9.0 139.2 9.0 C 141.1 9.0 142.4 9.2 144.1 9.2 C 145.7 9.1 147.1 8.7 148.6 9.1 C 150.2 9.5 153.2 9.1 155.1 8.8 C 156.9 8.6 159.0 8.7 160.4 8.9 C 163.4 9.1 170.5 8.5 171.5 8.8 C 172.5 9.1 175.7 8.8 176.9 8.8 C 178.0 8.8 178.6 9.0 181.0 9.0 C 181.0 9.0 181.0 9.0 181.0 9.0 Z M 97.3 5.3 C 95.4 5.3 95.0 9.0 97.3 9.0 C 99.6 9.0 103.8 8.7 105.1 8.7 C 106.3 8.8 111.5 9.0 112.6 9.0 C 113.6 9.0 117.5 8.5 119.8 8.8 C 122.0 9.1 124.2 8.5 125.8 8.7 C 127.7 8.9 128.7 8.7 130.2 8.6 C 131.7 8.5 134.0 9.3 135.2 9.0 C 136.4 8.6 137.2 9.0 138.9 9.0 C 140.6 9.0 140.6 5.3 139.0 5.3 C 137.3 5.3 135.9 5.4 134.3 5.5 C 132.7 5.6 130.7 5.6 128.9 5.6 C 127.3 5.6 124.9 5.2 123.1 5.4 C 121.2 5.6 118.5 5.7 117.4 5.8 C 116.0 5.8 113.1 5.7 111.9 5.9 C 110.3 6.2 107.6 5.8 106.5 5.5 C 105.5 5.2 104.8 5.6 102.6 5.5 C 101.3 5.5 99.2 5.3 97.3 5.3 C 97.3 5.3 97.3 5.3 97.3 5.3 Z M 97.0 9.0 C 98.8 9.0 98.8 5.3 96.8 5.3 C 94.6 5.3 89.8 6.0 88.6 5.9 C 87.3 5.8 83.9 5.1 82.8 5.1 C 81.7 5.1 76.5 6.2 74.2 5.9 C 72.0 5.6 71.3 5.8 69.8 5.8 C 68.2 5.8 65.7 6.0 64.3 6.1 C 62.8 6.2 61.5 5.2 59.5 5.4 C 57.6 5.7 56.6 5.3 55.2 5.3 C 53.1 5.3 53.2 9.0 55.2 9.0 C 57.1 9.0 58.4 9.2 60.1 9.2 C 61.7 9.1 63.1 8.7 64.7 9.1 C 66.2 9.5 69.2 9.1 71.1 8.8 C 72.9 8.6 75.0 8.7 76.5 8.9 C 79.4 9.1 86.5 8.5 87.5 8.8 C 88.5 9.1 91.7 8.8 92.9 8.8 C 94.0 8.8 94.7 9.0 97.0 9.0 C 97.0 9.0 97.0 9.0 97.0 9.0 Z M 54.7 5.3 C 52.5 5.3 48.8 5.8 47.9 5.8 C 47.0 5.8 44.0 5.5 42.6 5.6 C 41.1 5.7 40.7 6.0 38.3 6.1 C 35.3 6.2 33.3 5.8 33.2 5.8 C 32.8 5.6 31.3 5.3 29.3 5.4 C 26.6 5.5 25.8 5.2 24.6 5.3 C 22.5 5.8 22.3 5.4 20.8 5.4 C 19.2 5.5 18.2 5.4 17.0 5.6 C 15.6 5.8 14.6 5.3 13.3 5.3 C 11.3 5.3 11.5 9.0 13.4 9.0 C 14.5 9.0 15.5 8.6 16.7 8.6 C 17.9 8.6 19.0 8.7 20.2 8.9 C 21.4 9.0 23.8 8.8 25.8 8.9 C 27.7 8.9 30.9 9.1 33.2 9.1 C 35.4 9.0 36.8 8.1 41.4 8.7 C 42.9 8.9 45.8 8.7 47.0 8.7 C 49.1 8.7 53.2 9.0 54.9 9.0 C 57.0 9.0 57.0 5.3 54.7 5.3 C 54.7 5.3 54.7 5.3 54.7 5.3 Z M 8.7 8.2 C 8.7 6.8 8.5 5.0 6.5 4.7 C 4.5 4.5 2.9 6.0 2.9 8.0 C 2.9 10.1 4.0 9.5 4.0 14.3 C 4.0 16.0 7.7 16.1 7.7 14.3 C 7.7 10.1 8.7 10.7 8.7 8.2 C 8.7 8.2 8.7 8.2 8.7 8.2 Z M 2.9 66.6 C 2.9 69.1 3.8 70.1 5.8 70.1 C 7.8 70.2 8.8 68.8 8.8 66.6 C 8.8 64.4 7.7 64.5 7.7 60.8 C 7.7 58.9 4.0 59.2 4.0 60.8 C 4.0 64.7 2.9 64.1 2.9 66.6 C 2.9 66.6 2.9 66.6 2.9 66.6 Z M 4.0 37.4 C 4.0 38.4 7.7 38.6 7.7 37.4 C 7.7 36.1 7.3 33.8 7.4 33.1 C 7.5 32.4 7.7 29.6 7.7 29.0 C 7.7 28.4 7.2 26.3 7.5 25.0 C 7.8 23.8 7.2 22.6 7.3 21.7 C 7.5 20.7 7.3 20.1 7.3 19.3 C 7.2 18.5 7.9 17.2 7.6 16.6 C 7.3 15.9 7.7 15.5 7.7 14.5 C 7.7 13.6 4.0 13.6 4.0 14.5 C 4.0 15.4 4.1 16.1 4.1 17.0 C 4.2 17.9 4.3 19.0 4.3 20.0 C 4.3 20.9 3.8 22.2 4.1 23.2 C 4.3 24.3 4.4 25.7 4.4 26.3 C 4.5 27.1 4.4 28.7 4.6 29.4 C 4.8 30.2 4.5 31.7 4.1 32.3 C 3.8 32.9 4.3 33.2 4.2 34.4 C 4.1 35.2 4.0 36.3 4.0 37.4 C 4.0 37.4 4.0 37.4 4.0 37.4 Z M 4.0 37.7 C 4.0 38.9 4.5 41.0 4.5 41.5 C 4.5 41.9 4.2 43.6 4.3 44.4 C 4.4 45.2 4.7 45.4 4.7 46.7 C 4.8 48.4 4.5 49.5 4.4 49.5 C 4.3 49.8 3.9 50.6 4.0 51.7 C 4.2 53.2 3.8 53.6 4.0 54.3 C 4.4 55.4 4.0 55.5 4.1 56.4 C 4.2 57.2 4.0 57.8 4.2 58.5 C 4.4 59.2 4.0 59.8 4.0 60.5 C 4.0 61.6 7.7 61.4 7.7 60.4 C 7.7 59.8 7.3 59.2 7.3 58.6 C 7.3 57.9 7.4 57.3 7.5 56.7 C 7.7 56.0 7.4 54.7 7.5 53.6 C 7.6 52.5 7.8 50.8 7.7 49.5 C 7.7 48.3 6.8 47.5 7.4 45.0 C 7.5 44.2 7.4 42.6 7.4 41.9 C 7.4 40.8 7.7 38.6 7.7 37.6 C 7.7 36.4 4.0 36.5 4.0 37.7 C 4.0 37.7 4.0 37.7 4.0 37.7 Z M 4.0 37.7 " fill="#000000"></path><g><clipPath id="clip-289"><path d="M 4.8 9.8 L 567.2 9.8 L 567.2 64.8 L 4.8 64.8 Z M 4.8 9.8 "></path></clipPath><g clip-path="url(#clip-289)"><text xml:space="preserve" font-family="Helvetica-Bold" font-weight="bold" font-size="32.0" fill="#0264C0" transform="matrix(1.00, 0.00, -0.00, -1.00, 236.0, 25.0)">T</text><text xml:space="preserve" font-family="Helvetica-Bold" font-weight="bold" font-size="32.0" fill="#0264C0" transform="matrix(1.00, 0.00, -0.00, -1.00, 255.0, 25.0)">i</text><text xml:space="preserve" font-family="Helvetica-Bold" font-weight="bold" font-size="32.0" fill="#0264C0" transform="matrix(1.00, 0.00, -0.00, -1.00, 263.9, 25.0)">m</text><text xml:space="preserve" font-family="Helvetica-Bold" font-weight="bold" font-size="32.0" fill="#0264C0" transform="matrix(1.00, 0.00, -0.00, -1.00, 292.3, 25.0)">e</text><text xml:space="preserve" font-family="Helvetica-Bold" font-weight="bold" font-size="32.0" fill="#0264C0" transform="matrix(1.00, 0.00, -0.00, -1.00, 310.1, 25.0)">l</text><text xml:space="preserve" font-family="Helvetica-Bold" font-weight="bold" font-size="32.0" fill="#0264C0" transform="matrix(1.00, 0.00, -0.00, -1.00, 319.1, 25.0)">y</text></g></g></g></svg>