<?xml version="1.0" encoding="UTF-8" standalone="no"?><svg xmlns="http://www.w3.org/2000/svg" xmlns:xlink="http://www.w3.org/1999/xlink" clip-rule="evenodd" stroke-miterlimit="4.00" viewBox="0 0 208 36"><desc>SVG generated by Keynote</desc><defs></defs><g transform="matrix(1.00, 0.00, -0.00, -1.00, 0.0, 36.0)"><text xml:space="preserve" font-family="Helvetica-Bold" font-weight="bold" font-size="32.0" fill="#164E86" transform="matrix(1.00, 0.00, -0.00, -1.00, 0.0, 10.0)">C</text><text xml:space="preserve" font-family="Helvetica-Bold" font-weight="bold" font-size="32.0" fill="#164E86" transform="matrix(1.00, 0.00, -0.00, -1.00, 23.1, 10.0)">o</text><text xml:space="preserve" font-family="Helvetica-Bold" font-weight="bold" font-size="32.0" fill="#164E86" transform="matrix(1.00, 0.00, -0.00, -1.00, 42.7, 10.0)">n</text><text xml:space="preserve" font-family="Helvetica-Bold" font-weight="bold" font-size="32.0" fill="#164E86" transform="matrix(1.00, 0.00, -0.00, -1.00, 62.2, 10.0)">t</text><text xml:space="preserve" font-family="Helvetica-Bold" font-weight="bold" font-size="32.0" fill="#164E86" transform="matrix(1.00, 0.00, -0.00, -1.00, 72.9, 10.0)">r</text><text xml:space="preserve" font-family="Helvetica-Bold" font-weight="bold" font-size="32.0" fill="#164E86" transform="matrix(1.00, 0.00, -0.00, -1.00, 85.3, 10.0)">o</text><text xml:space="preserve" font-family="Helvetica-Bold" font-weight="bold" font-size="32.0" fill="#164E86" transform="matrix(1.00, 0.00, -0.00, -1.00, 104.9, 10.0)">l</text><text xml:space="preserve" font-family="Helvetica-Bold" font-weight="bold" font-size="32.0" fill="#164E86" transform="matrix(1.00, 0.00, -0.00, -1.00, 113.7, 10.0)"> </text><text xml:space="preserve" font-family="Helvetica-Bold" font-weight="bold" font-size="32.0" fill="#164E86" transform="matrix(1.00, 0.00, -0.00, -1.00, 122.6, 10.0)">p</text><text xml:space="preserve" font-family="Helvetica-Bold" font-weight="bold" font-size="32.0" fill="#164E86" transform="matrix(1.00, 0.00, -0.00, -1.00, 142.2, 10.0)">l</text><text xml:space="preserve" font-family="Helvetica-Bold" font-weight="bold" font-size="32.0" fill="#164E86" transform="matrix(1.00, 0.00, -0.00, -1.00, 151.0, 10.0)">a</text><text xml:space="preserve" font-family="Helvetica-Bold" font-weight="bold" font-size="32.0" fill="#164E86" transform="matrix(1.00, 0.00, -0.00, -1.00, 168.8, 10.0)">n</text><text xml:space="preserve" font-family="Helvetica-Bold" font-weight="bold" font-size="32.0" fill="#164E86" transform="matrix(1.00, 0.00, -0.00, -1.00, 188.4, 10.0)">e</text></g></svg>