<?xml version="1.0" encoding="UTF-8" standalone="no"?><svg xmlns="http://www.w3.org/2000/svg" xmlns:xlink="http://www.w3.org/1999/xlink" clip-rule="evenodd" stroke-miterlimit="4.00" viewBox="0 0 273 74"><desc>SVG generated by Keynote</desc><defs></defs><g transform="matrix(1.00, 0.00, -0.00, -1.00, 0.0, 74.0)"><path d="M 6.2 67.8 L 266.0 67.8 L 266.0 7.1 L 6.2 7.1 Z M 6.2 67.8 " fill="#FEFFFF"></path><path d="M 7.2 64.9 C 5.8 64.9 4.0 65.1 3.8 67.1 C 3.6 69.1 5.0 70.7 7.1 70.7 C 9.1 70.7 8.5 69.6 13.3 69.6 C 15.1 69.6 15.2 65.9 13.4 65.9 C 9.1 65.9 9.7 64.9 7.2 64.9 C 7.2 64.9 7.2 64.9 7.2 64.9 Z M 264.8 70.7 C 265.2 70.7 265.7 70.7 266.0 70.6 L 268.8 67.8 C 268.6 66.2 267.6 65.5 266.0 65.5 C 264.4 65.4 263.5 66.3 263.2 67.8 L 266.0 65.0 C 265.6 64.9 265.2 64.9 264.8 64.9 C 262.6 64.9 262.7 66.0 259.0 65.9 C 257.0 65.9 257.4 69.6 259.0 69.6 C 262.9 69.6 262.3 70.7 264.8 70.7 C 264.8 70.7 264.8 70.7 264.8 70.7 Z M 13.5 65.9 C 11.8 65.9 11.8 69.6 13.8 69.6 C 15.9 69.6 20.5 69.0 21.7 69.0 C 22.9 69.1 26.3 69.8 27.4 69.8 C 28.4 69.8 33.5 68.7 35.7 69.0 C 37.9 69.3 38.5 69.2 40.1 69.2 C 41.6 69.2 44.0 69.0 45.4 68.9 C 46.9 68.8 48.1 69.8 50.0 69.5 C 51.9 69.2 52.9 69.6 54.2 69.6 C 56.3 69.6 56.2 66.0 54.2 66.0 C 52.4 66.0 51.1 65.7 49.5 65.8 C 47.9 65.9 46.5 66.2 45.0 65.9 C 43.5 65.5 40.6 65.9 38.8 66.1 C 37.0 66.4 35.0 66.3 33.5 66.1 C 30.7 65.8 23.8 66.5 22.8 66.2 C 21.8 65.9 18.7 66.2 17.5 66.2 C 16.4 66.2 15.8 65.9 13.5 65.9 C 13.5 65.9 13.5 65.9 13.5 65.9 Z M 95.0 69.6 C 96.9 69.6 97.2 65.9 95.0 65.9 C 92.8 65.9 88.7 66.3 87.5 66.2 C 86.2 66.1 81.2 65.9 80.2 65.9 C 79.1 65.9 75.3 66.4 73.1 66.1 C 70.9 65.8 68.8 66.4 67.3 66.3 C 65.4 66.1 64.4 66.3 63.0 66.3 C 61.5 66.4 59.3 65.7 58.1 66.0 C 56.9 66.3 56.2 65.9 54.5 65.9 C 52.8 65.9 52.8 69.6 54.4 69.6 C 56.0 69.6 57.4 69.5 59.0 69.5 C 60.6 69.4 62.5 69.3 64.2 69.3 C 65.8 69.3 68.1 69.8 69.9 69.5 C 71.8 69.3 74.4 69.2 75.4 69.2 C 76.8 69.1 79.6 69.2 80.8 69.0 C 82.3 68.8 85.0 69.2 86.0 69.5 C 87.0 69.8 87.7 69.3 89.8 69.4 C 91.1 69.5 93.1 69.6 95.0 69.6 C 95.0 69.6 95.0 69.6 95.0 69.6 Z M 95.6 69.6 C 97.8 69.6 101.4 69.1 102.2 69.1 C 103.1 69.1 106.0 69.4 107.4 69.3 C 108.8 69.2 109.3 69.0 111.6 68.9 C 114.5 68.8 116.4 69.1 116.6 69.2 C 117.0 69.3 118.4 69.7 120.3 69.6 C 123.0 69.4 123.8 69.8 124.9 69.6 C 126.9 69.2 127.1 69.6 128.6 69.5 C 130.2 69.4 131.1 69.6 132.4 69.4 C 133.7 69.2 134.7 69.6 135.9 69.6 C 137.9 69.6 137.7 65.9 135.8 65.9 C 134.7 65.9 133.7 66.3 132.6 66.3 C 131.4 66.3 130.4 66.2 129.2 66.1 C 128.1 65.9 125.7 66.2 123.8 66.1 C 121.9 66.0 118.8 65.8 116.6 65.9 C 114.4 66.0 113.0 66.8 108.6 66.2 C 107.1 66.1 104.2 66.2 103.1 66.2 C 101.0 66.2 97.1 66.0 95.4 66.0 C 93.4 66.0 93.4 69.6 95.6 69.6 C 95.6 69.6 95.6 69.6 95.6 69.6 Z M 176.8 69.6 C 178.7 69.6 179.0 65.9 176.8 65.9 C 174.5 65.9 170.4 66.3 169.2 66.2 C 168.0 66.1 163.0 65.9 161.9 65.9 C 160.9 65.9 157.1 66.4 154.9 66.1 C 152.7 65.8 150.5 66.4 149.0 66.3 C 147.2 66.1 146.2 66.3 144.7 66.3 C 143.3 66.4 141.1 65.7 139.9 66.0 C 138.7 66.3 138.0 65.9 136.3 65.9 C 134.6 65.9 134.6 69.6 136.2 69.6 C 137.8 69.6 139.1 69.5 140.7 69.5 C 142.3 69.4 144.3 69.3 146.0 69.3 C 147.5 69.3 149.9 69.8 151.7 69.5 C 153.5 69.3 156.1 69.2 157.2 69.2 C 158.5 69.1 161.3 69.2 162.6 69.0 C 164.1 68.8 166.8 69.2 167.8 69.5 C 168.8 69.8 169.4 69.3 171.6 69.4 C 172.8 69.5 174.9 69.6 176.8 69.6 C 176.8 69.6 176.8 69.6 176.8 69.6 Z M 177.4 69.6 C 179.5 69.6 183.1 69.1 184.0 69.1 C 184.9 69.1 187.8 69.4 189.2 69.3 C 190.6 69.2 191.0 69.0 193.4 68.9 C 196.3 68.8 198.2 69.1 198.3 69.2 C 198.7 69.3 200.1 69.7 202.1 69.6 C 204.7 69.4 205.5 69.8 206.7 69.6 C 208.7 69.2 208.9 69.6 210.4 69.5 C 211.9 69.4 212.9 69.6 214.1 69.4 C 215.5 69.2 216.4 69.6 217.7 69.6 C 219.6 69.6 219.4 65.9 217.6 65.9 C 216.5 65.9 215.5 66.3 214.3 66.3 C 213.2 66.3 212.1 66.2 211.0 66.1 C 209.8 65.9 207.4 66.2 205.5 66.1 C 203.7 66.0 200.5 65.8 198.3 65.9 C 196.1 66.0 194.8 66.8 190.3 66.2 C 188.9 66.1 186.0 66.2 184.8 66.2 C 182.8 66.2 178.8 66.0 177.1 66.0 C 175.1 66.0 175.2 69.6 177.4 69.6 C 177.4 69.6 177.4 69.6 177.4 69.6 Z M 258.5 69.6 C 260.4 69.6 260.8 65.9 258.5 65.9 C 256.3 65.9 252.2 66.3 251.0 66.2 C 249.8 66.1 244.7 65.9 243.7 65.9 C 242.6 65.9 238.8 66.4 236.6 66.1 C 234.4 65.8 232.3 66.4 230.8 66.3 C 228.9 66.1 227.9 66.3 226.5 66.3 C 225.0 66.4 222.8 65.7 221.6 66.0 C 220.4 66.3 219.7 65.9 218.0 65.9 C 216.3 65.9 216.3 69.6 217.9 69.6 C 219.5 69.6 220.9 69.5 222.5 69.5 C 224.1 69.4 226.0 69.3 227.7 69.3 C 229.3 69.3 231.6 69.8 233.4 69.5 C 235.3 69.3 237.9 69.2 239.0 69.2 C 240.3 69.1 243.1 69.2 244.3 69.0 C 245.9 68.8 248.5 69.2 249.5 69.5 C 250.5 69.8 251.2 69.3 253.3 69.4 C 254.6 69.5 256.6 69.6 258.5 69.6 C 258.5 69.6 258.5 69.6 258.5 69.6 Z M 263.1 66.8 C 263.1 68.2 263.3 70.0 265.4 70.2 C 267.4 70.4 268.9 69.0 268.9 66.9 C 268.9 64.9 267.8 65.5 267.8 60.7 C 267.8 58.9 264.2 58.8 264.2 60.6 C 264.2 64.9 263.1 64.3 263.1 66.8 C 263.1 66.8 263.1 66.8 263.1 66.8 Z M 268.9 8.3 C 268.9 7.9 268.9 7.5 268.8 7.1 L 266.0 4.3 C 264.4 4.6 263.8 5.5 263.7 7.1 C 263.7 8.7 264.5 9.6 266.0 9.9 L 263.2 7.1 C 263.1 7.5 263.1 7.9 263.1 8.3 C 263.1 10.5 264.2 10.4 264.2 14.1 C 264.1 16.1 267.8 15.8 267.8 14.1 C 267.8 10.2 268.9 10.8 268.9 8.3 C 268.9 8.3 268.9 8.3 268.9 8.3 Z M 264.2 60.5 C 264.2 61.5 267.8 61.5 267.8 60.3 C 267.8 59.1 267.2 56.5 267.3 55.9 C 267.3 55.2 268.0 53.3 268.0 52.7 C 268.0 52.1 267.0 49.2 267.3 48.0 C 267.6 46.7 267.4 46.4 267.4 45.5 C 267.4 44.7 267.2 43.3 267.1 42.5 C 267.0 41.7 268.0 41.0 267.7 39.9 C 267.5 38.8 267.8 38.3 267.8 37.5 C 267.8 36.3 264.2 36.4 264.2 37.5 C 264.2 38.6 263.9 39.3 264.0 40.2 C 264.1 41.1 264.5 41.9 264.1 42.7 C 263.7 43.6 264.1 45.2 264.4 46.2 C 264.6 47.3 264.5 48.4 264.3 49.2 C 264.0 50.8 264.7 54.7 264.4 55.3 C 264.1 55.8 264.4 57.6 264.4 58.2 C 264.4 58.8 264.2 59.2 264.2 60.5 C 264.2 60.5 264.2 60.5 264.2 60.5 Z M 267.8 37.2 C 267.8 36.0 267.4 34.0 267.4 33.5 C 267.4 33.0 267.6 31.3 267.6 30.6 C 267.5 29.8 267.2 29.5 267.1 28.2 C 267.0 26.6 267.4 25.5 267.4 25.4 C 267.5 25.2 267.9 24.4 267.8 23.3 C 267.6 21.8 268.0 21.4 267.8 20.7 C 267.4 19.6 267.8 19.5 267.7 18.6 C 267.7 17.7 267.8 17.2 267.6 16.5 C 267.4 15.7 267.9 15.2 267.8 14.5 C 267.8 13.4 264.2 13.5 264.2 14.5 C 264.2 15.2 264.6 15.7 264.6 16.4 C 264.6 17.0 264.5 17.6 264.3 18.3 C 264.2 18.9 264.4 20.3 264.3 21.3 C 264.2 22.4 264.0 24.2 264.1 25.4 C 264.2 26.6 265.1 27.4 264.5 29.9 C 264.3 30.7 264.5 32.4 264.5 33.0 C 264.5 34.2 264.2 36.4 264.2 37.4 C 264.2 38.5 267.8 38.5 267.8 37.2 C 267.8 37.2 267.8 37.2 267.8 37.2 Z M 265.0 10.0 C 266.4 10.0 268.2 9.8 268.4 7.8 C 268.7 5.8 267.2 4.2 265.1 4.2 C 263.1 4.2 263.7 5.3 258.9 5.3 C 257.1 5.3 257.0 9.0 258.8 9.0 C 263.1 9.0 262.5 10.0 265.0 10.0 C 265.0 10.0 265.0 10.0 265.0 10.0 Z M 7.4 4.2 C 7.0 4.2 6.6 4.2 6.2 4.3 L 3.4 7.1 C 3.7 8.7 4.6 9.4 6.2 9.4 C 7.8 9.5 8.7 8.6 9.0 7.1 L 6.2 9.9 C 6.6 10.0 7.0 10.0 7.4 10.0 C 9.6 10.0 9.5 8.9 13.2 9.0 C 15.2 9.0 14.9 5.3 13.2 5.3 C 9.3 5.3 9.9 4.2 7.4 4.2 C 7.4 4.2 7.4 4.2 7.4 4.2 Z M 218.1 5.3 C 216.2 5.3 215.9 9.0 218.1 9.0 C 220.3 9.0 224.4 8.6 225.7 8.7 C 226.9 8.8 231.9 9.0 233.0 9.0 C 234.0 9.0 237.8 8.5 240.0 8.8 C 242.2 9.1 244.3 8.5 245.8 8.6 C 247.7 8.8 248.7 8.6 250.1 8.6 C 251.6 8.5 253.8 9.2 255.0 8.9 C 256.2 8.6 256.9 9.0 258.6 9.0 C 260.3 9.0 260.3 5.3 258.7 5.3 C 257.1 5.3 255.7 5.4 254.1 5.4 C 252.5 5.5 250.6 5.6 248.9 5.6 C 247.3 5.6 245.0 5.1 243.2 5.4 C 241.4 5.6 238.7 5.7 237.7 5.7 C 236.3 5.8 233.5 5.7 232.3 5.9 C 230.8 6.1 228.1 5.8 227.1 5.4 C 226.1 5.1 225.4 5.6 223.3 5.5 C 222.0 5.4 220.0 5.3 218.1 5.3 C 218.1 5.3 218.1 5.3 218.1 5.3 Z M 217.5 5.3 C 215.3 5.3 211.7 5.8 210.9 5.8 C 210.0 5.8 207.1 5.5 205.7 5.6 C 204.3 5.7 203.8 5.9 201.5 6.0 C 198.6 6.1 196.7 5.8 196.5 5.7 C 196.1 5.6 194.7 5.2 192.8 5.3 C 190.1 5.5 189.4 5.1 188.2 5.3 C 186.2 5.7 186.0 5.3 184.5 5.4 C 182.9 5.5 182.0 5.3 180.8 5.5 C 179.4 5.7 178.4 5.3 177.2 5.3 C 175.3 5.3 175.4 9.0 177.3 9.0 C 178.4 9.0 179.4 8.6 180.5 8.6 C 181.7 8.6 182.7 8.7 183.9 8.8 C 185.1 9.0 187.4 8.7 189.3 8.8 C 191.2 8.9 194.4 9.1 196.5 9.0 C 198.7 8.9 200.1 8.1 204.6 8.7 C 206.0 8.8 208.9 8.7 210.0 8.7 C 212.1 8.7 216.0 8.9 217.7 8.9 C 219.8 8.9 219.7 5.3 217.5 5.3 C 217.5 5.3 217.5 5.3 217.5 5.3 Z M 136.3 5.3 C 134.5 5.3 134.1 9.0 136.3 9.0 C 138.6 9.0 142.7 8.6 143.9 8.7 C 145.1 8.8 150.1 9.0 151.2 9.0 C 152.3 9.0 156.0 8.5 158.2 8.8 C 160.4 9.1 162.6 8.5 164.1 8.6 C 166.0 8.8 167.0 8.6 168.4 8.6 C 169.8 8.5 172.0 9.2 173.2 8.9 C 174.5 8.6 175.1 9.0 176.8 9.0 C 178.5 9.0 178.5 5.3 176.9 5.3 C 175.3 5.3 174.0 5.4 172.4 5.4 C 170.8 5.5 168.9 5.6 167.1 5.6 C 165.6 5.6 163.2 5.1 161.4 5.4 C 159.6 5.6 157.0 5.7 155.9 5.7 C 154.6 5.8 151.8 5.7 150.6 5.9 C 149.0 6.1 146.3 5.8 145.3 5.4 C 144.4 5.1 143.7 5.6 141.5 5.5 C 140.3 5.4 138.2 5.3 136.3 5.3 C 136.3 5.3 136.3 5.3 136.3 5.3 Z M 135.8 5.3 C 133.6 5.3 130.0 5.8 129.1 5.8 C 128.2 5.8 125.3 5.5 123.9 5.6 C 122.6 5.7 122.1 5.9 119.8 6.0 C 116.8 6.1 114.9 5.8 114.8 5.7 C 114.4 5.6 113.0 5.2 111.0 5.3 C 108.4 5.5 107.6 5.1 106.4 5.3 C 104.4 5.7 104.2 5.3 102.7 5.4 C 101.2 5.5 100.2 5.3 99.0 5.5 C 97.7 5.7 96.7 5.3 95.5 5.3 C 93.5 5.3 93.7 9.0 95.5 9.0 C 96.6 9.0 97.6 8.6 98.8 8.6 C 100.0 8.6 101.0 8.7 102.1 8.8 C 103.3 9.0 105.7 8.7 107.6 8.8 C 109.5 8.9 112.6 9.1 114.8 9.0 C 117.0 8.9 118.3 8.1 122.8 8.7 C 124.2 8.8 127.1 8.7 128.3 8.7 C 130.3 8.7 134.3 8.9 136.0 8.9 C 138.0 8.9 137.9 5.3 135.8 5.3 C 135.8 5.3 135.8 5.3 135.8 5.3 Z M 54.6 5.3 C 52.7 5.3 52.4 9.0 54.6 9.0 C 56.8 9.0 60.9 8.6 62.1 8.7 C 63.4 8.8 68.4 9.0 69.4 9.0 C 70.5 9.0 74.3 8.5 76.5 8.8 C 78.7 9.1 80.8 8.5 82.3 8.6 C 84.2 8.8 85.2 8.6 86.6 8.6 C 88.1 8.5 90.3 9.2 91.5 8.9 C 92.7 8.6 93.4 9.0 95.1 9.0 C 96.8 9.0 96.8 5.3 95.2 5.3 C 93.6 5.3 92.2 5.4 90.6 5.4 C 89.0 5.5 87.1 5.6 85.4 5.6 C 83.8 5.6 81.5 5.1 79.7 5.4 C 77.8 5.6 75.2 5.7 74.2 5.7 C 72.8 5.8 70.0 5.7 68.8 5.9 C 67.3 6.1 64.6 5.8 63.6 5.4 C 62.6 5.1 61.9 5.6 59.8 5.5 C 58.5 5.4 56.5 5.3 54.6 5.3 C 54.6 5.3 54.6 5.3 54.6 5.3 Z M 54.3 9.0 C 56.0 9.0 56.1 5.3 54.1 5.3 C 51.9 5.3 47.3 5.9 46.1 5.9 C 44.9 5.8 41.6 5.1 40.5 5.1 C 39.4 5.1 34.3 6.2 32.1 5.9 C 29.9 5.6 29.3 5.7 27.8 5.7 C 26.3 5.7 23.9 5.9 22.4 6.0 C 21.0 6.1 19.7 5.1 17.8 5.4 C 15.9 5.7 14.9 5.3 13.6 5.3 C 11.5 5.3 11.7 8.9 13.6 8.9 C 15.5 8.9 16.8 9.2 18.4 9.1 C 19.9 9.0 21.3 8.7 22.8 9.0 C 24.3 9.4 27.2 9.0 29.1 8.8 C 30.9 8.5 32.9 8.6 34.3 8.8 C 37.2 9.1 44.1 8.4 45.1 8.7 C 46.0 9.0 49.2 8.7 50.3 8.7 C 51.4 8.7 52.0 9.0 54.3 9.0 C 54.3 9.0 54.3 9.0 54.3 9.0 Z M 9.1 8.1 C 9.1 6.7 8.9 4.9 6.9 4.7 C 4.9 4.5 3.3 5.9 3.3 8.0 C 3.3 10.0 4.4 9.4 4.4 14.2 C 4.4 16.0 8.1 16.1 8.1 14.3 C 8.1 10.0 9.1 10.6 9.1 8.1 C 9.1 8.1 9.1 8.1 9.1 8.1 Z M 3.3 66.6 C 3.3 69.0 4.2 70.0 6.2 70.1 C 8.2 70.1 9.2 68.8 9.2 66.6 C 9.2 64.4 8.0 64.5 8.1 60.8 C 8.1 58.8 4.4 59.1 4.4 60.8 C 4.4 64.7 3.3 64.1 3.3 66.6 C 3.3 66.6 3.3 66.6 3.3 66.6 Z M 4.4 14.6 C 4.4 15.8 4.9 17.8 4.9 18.3 C 4.9 18.8 4.6 20.5 4.7 21.3 C 4.8 22.0 5.0 22.3 5.1 23.6 C 5.2 25.3 4.9 26.3 4.8 26.4 C 4.7 26.7 4.3 27.5 4.4 28.6 C 4.6 30.0 4.2 30.5 4.4 31.1 C 4.8 32.3 4.4 32.4 4.5 33.2 C 4.6 34.1 4.4 34.6 4.6 35.3 C 4.8 36.1 4.4 36.6 4.4 37.3 C 4.4 38.4 8.1 38.3 8.1 37.3 C 8.1 36.7 7.7 36.1 7.7 35.5 C 7.7 34.8 7.8 34.2 7.9 33.6 C 8.1 32.9 7.8 31.6 7.9 30.5 C 8.0 29.4 8.2 27.7 8.1 26.4 C 8.0 25.2 7.2 24.4 7.8 21.9 C 7.9 21.1 7.8 19.5 7.8 18.8 C 7.8 17.7 8.0 15.4 8.0 14.5 C 8.0 13.3 4.4 13.4 4.4 14.6 C 4.4 14.6 4.4 14.6 4.4 14.6 Z M 4.4 60.4 C 4.4 61.5 8.1 61.7 8.1 60.4 C 8.1 59.1 7.7 56.8 7.8 56.1 C 7.9 55.5 8.1 52.6 8.1 52.0 C 8.1 51.4 7.6 49.3 7.9 48.0 C 8.2 46.8 7.6 45.6 7.7 44.7 C 7.9 43.7 7.7 43.1 7.7 42.3 C 7.6 41.5 8.3 40.3 8.0 39.6 C 7.7 38.9 8.1 38.5 8.1 37.5 C 8.1 36.6 4.4 36.6 4.4 37.5 C 4.4 38.4 4.5 39.2 4.5 40.1 C 4.6 41.0 4.7 42.1 4.7 43.0 C 4.7 43.9 4.2 45.2 4.5 46.2 C 4.7 47.3 4.8 48.8 4.8 49.4 C 4.9 50.1 4.8 51.7 5.0 52.4 C 5.2 53.2 4.9 54.8 4.5 55.3 C 4.2 55.9 4.7 56.3 4.6 57.5 C 4.5 58.2 4.4 59.3 4.4 60.4 C 4.4 60.4 4.4 60.4 4.4 60.4 Z M 4.4 60.4 " fill="#000000"></path></g></svg>