<?xml version="1.0" encoding="UTF-8" standalone="no"?><svg xmlns="http://www.w3.org/2000/svg" xmlns:xlink="http://www.w3.org/1999/xlink" clip-rule="evenodd" stroke-miterlimit="4.00" viewBox="0 0 305 83"><desc>SVG generated by Keynote</desc><defs></defs><g transform="matrix(1.00, 0.00, -0.00, -1.00, 0.0, 83.0)"><image xlink:href="DB389F4608891DBB563AD86A29F7C405.png" width="301.00" height="75.00" transform="matrix(1.00, 0.00, -0.00, -1.00, 1.7, 77.0)" opacity="0.50"></image><path d="M 9.0 71.8 L 295.9 71.8 L 295.9 11.1 L 9.0 11.1 Z M 9.0 71.8 " fill="#FEFFFF"></path><path d="M 10.0 68.9 C 8.6 68.9 6.8 69.1 6.6 71.1 C 6.3 73.1 7.8 74.7 9.9 74.7 C 11.9 74.7 11.3 73.6 16.1 73.6 C 17.9 73.6 18.0 69.9 16.2 69.9 C 11.9 69.9 12.5 68.9 10.0 68.9 C 10.0 68.9 10.0 68.9 10.0 68.9 Z M 294.7 74.7 C 295.2 74.7 295.6 74.7 295.9 74.6 L 298.8 71.8 C 298.5 70.2 297.6 69.5 296.0 69.5 C 294.3 69.4 293.4 70.3 293.1 71.8 L 295.9 69.0 C 295.6 68.9 295.2 68.9 294.7 68.9 C 292.5 68.9 292.6 70.0 288.9 69.9 C 287.0 69.9 287.3 73.6 288.9 73.6 C 292.8 73.6 292.2 74.7 294.7 74.7 C 294.7 74.7 294.7 74.7 294.7 74.7 Z M 16.3 69.9 C 14.7 69.9 14.6 73.6 16.5 73.6 C 18.5 73.6 22.9 73.0 24.1 73.0 C 25.3 73.1 28.4 73.8 29.5 73.8 C 30.5 73.8 35.3 72.7 37.4 73.0 C 39.5 73.3 40.1 73.2 41.6 73.2 C 43.0 73.2 45.3 73.0 46.6 72.9 C 48.0 72.8 49.2 73.8 51.0 73.5 C 52.8 73.2 53.8 73.6 55.0 73.6 C 57.0 73.6 56.9 70.0 55.1 70.0 C 53.3 70.0 52.0 69.7 50.5 69.8 C 49.0 69.9 47.7 70.2 46.3 69.9 C 44.8 69.5 42.1 69.9 40.3 70.1 C 38.6 70.4 36.7 70.3 35.3 70.1 C 32.6 69.8 26.0 70.5 25.1 70.2 C 24.2 69.9 21.2 70.2 20.1 70.2 C 19.1 70.2 18.5 69.9 16.3 69.9 C 16.3 69.9 16.3 69.9 16.3 69.9 Z M 93.9 73.6 C 95.7 73.6 96.0 69.9 93.9 69.9 C 91.7 69.9 87.8 70.3 86.7 70.2 C 85.5 70.1 80.7 69.9 79.7 69.9 C 78.7 69.9 75.1 70.4 73.0 70.1 C 70.9 69.8 68.9 70.4 67.5 70.3 C 65.7 70.1 64.7 70.3 63.4 70.3 C 62.0 70.4 59.9 69.7 58.7 70.0 C 57.6 70.3 56.9 69.9 55.3 69.9 C 53.7 69.9 53.7 73.6 55.2 73.6 C 56.8 73.6 58.1 73.5 59.6 73.5 C 61.1 73.4 62.9 73.3 64.6 73.3 C 66.0 73.3 68.3 73.8 70.0 73.5 C 71.7 73.3 74.2 73.2 75.2 73.2 C 76.5 73.1 79.2 73.2 80.3 73.0 C 81.8 72.8 84.4 73.2 85.3 73.5 C 86.2 73.8 86.9 73.3 88.9 73.4 C 90.1 73.5 92.1 73.6 93.9 73.6 C 93.9 73.6 93.9 73.6 93.9 73.6 Z M 94.4 73.6 C 96.5 73.6 99.9 73.1 100.7 73.1 C 101.6 73.1 104.4 73.4 105.7 73.3 C 107.0 73.2 107.4 73.0 109.7 72.9 C 112.4 72.8 114.3 73.1 114.4 73.2 C 114.8 73.3 116.1 73.7 118.0 73.6 C 120.5 73.4 121.2 73.8 122.3 73.6 C 124.3 73.2 124.4 73.6 125.9 73.5 C 127.4 73.4 128.3 73.6 129.4 73.4 C 130.7 73.2 131.6 73.6 132.8 73.6 C 134.7 73.6 134.5 69.9 132.7 69.9 C 131.7 69.9 130.7 70.3 129.6 70.3 C 128.5 70.3 127.5 70.2 126.4 70.1 C 125.3 69.9 123.1 70.2 121.3 70.1 C 119.5 70.0 116.5 69.8 114.4 69.9 C 112.3 70.0 111.0 70.8 106.8 70.2 C 105.4 70.1 102.7 70.2 101.6 70.2 C 99.6 70.2 95.8 70.0 94.2 70.0 C 92.3 70.0 92.3 73.6 94.4 73.6 C 94.4 73.6 94.4 73.6 94.4 73.6 Z M 171.7 73.6 C 173.5 73.6 173.8 69.9 171.7 69.9 C 169.6 69.9 165.7 70.3 164.5 70.2 C 163.4 70.1 158.6 69.9 157.6 69.9 C 156.6 69.9 153.0 70.4 150.9 70.1 C 148.8 69.8 146.7 70.4 145.3 70.3 C 143.5 70.1 142.6 70.3 141.2 70.3 C 139.8 70.4 137.7 69.7 136.6 70.0 C 135.4 70.3 134.8 69.9 133.1 69.9 C 131.5 69.9 131.5 73.6 133.1 73.6 C 134.6 73.6 135.9 73.5 137.4 73.5 C 138.9 73.4 140.8 73.3 142.4 73.3 C 143.9 73.3 146.1 73.8 147.8 73.5 C 149.6 73.3 152.1 73.2 153.1 73.2 C 154.3 73.1 157.0 73.2 158.2 73.0 C 159.6 72.8 162.2 73.2 163.1 73.5 C 164.1 73.8 164.7 73.3 166.8 73.4 C 168.0 73.5 169.9 73.6 171.7 73.6 C 171.7 73.6 171.7 73.6 171.7 73.6 Z M 172.3 73.6 C 174.4 73.6 177.8 73.1 178.6 73.1 C 179.4 73.1 182.2 73.4 183.5 73.3 C 184.8 73.2 185.3 73.0 187.5 72.9 C 190.3 72.8 192.1 73.1 192.2 73.2 C 192.6 73.3 194.0 73.7 195.8 73.6 C 198.3 73.4 199.1 73.8 200.2 73.6 C 202.1 73.2 202.3 73.6 203.7 73.5 C 205.2 73.4 206.1 73.6 207.3 73.4 C 208.5 73.2 209.5 73.6 210.6 73.6 C 212.5 73.6 212.3 69.9 210.6 69.9 C 209.5 69.9 208.6 70.3 207.5 70.3 C 206.4 70.3 205.4 70.2 204.3 70.1 C 203.2 69.9 200.9 70.2 199.1 70.1 C 197.3 70.0 194.3 69.8 192.2 69.9 C 190.1 70.0 188.9 70.8 184.6 70.2 C 183.2 70.1 180.5 70.2 179.4 70.2 C 177.4 70.2 173.7 70.0 172.1 70.0 C 170.1 70.0 170.2 73.6 172.3 73.6 C 172.3 73.6 172.3 73.6 172.3 73.6 Z M 249.5 73.6 C 251.3 73.6 251.7 69.9 249.5 69.9 C 247.4 69.9 243.5 70.3 242.4 70.2 C 241.2 70.1 236.4 69.9 235.4 69.9 C 234.4 69.9 230.8 70.4 228.7 70.1 C 226.6 69.8 224.6 70.4 223.1 70.3 C 221.4 70.1 220.4 70.3 219.0 70.3 C 217.7 70.4 215.6 69.7 214.4 70.0 C 213.3 70.3 212.6 69.9 211.0 69.9 C 209.4 69.9 209.4 73.6 210.9 73.6 C 212.4 73.6 213.7 73.5 215.2 73.5 C 216.7 73.4 218.6 73.3 220.2 73.3 C 221.7 73.3 223.9 73.8 225.7 73.5 C 227.4 73.3 229.9 73.2 230.9 73.2 C 232.2 73.1 234.9 73.2 236.0 73.0 C 237.5 72.8 240.0 73.2 241.0 73.5 C 241.9 73.8 242.6 73.3 244.6 73.4 C 245.8 73.5 247.7 73.6 249.5 73.6 C 249.5 73.6 249.5 73.6 249.5 73.6 Z M 249.8 69.9 C 248.2 69.9 248.1 73.6 250.0 73.6 C 252.1 73.6 256.5 73.0 257.6 73.0 C 258.8 73.1 261.9 73.8 263.0 73.8 C 264.0 73.8 268.8 72.7 270.9 73.0 C 273.0 73.3 273.6 73.2 275.1 73.2 C 276.5 73.2 278.8 73.0 280.2 72.9 C 281.5 72.8 282.7 73.8 284.5 73.5 C 286.3 73.2 287.3 73.6 288.5 73.6 C 290.5 73.6 290.4 70.0 288.6 70.0 C 286.8 70.0 285.6 69.7 284.0 69.8 C 282.5 69.9 281.2 70.2 279.8 69.9 C 278.4 69.5 275.6 69.9 273.8 70.1 C 272.1 70.4 270.2 70.3 268.8 70.1 C 266.1 69.8 259.6 70.5 258.6 70.2 C 257.7 69.9 254.7 70.2 253.6 70.2 C 252.6 70.2 252.0 69.9 249.8 69.9 C 249.8 69.9 249.8 69.9 249.8 69.9 Z M 293.0 70.8 C 293.0 72.2 293.3 74.0 295.3 74.2 C 297.3 74.4 298.9 73.0 298.9 70.9 C 298.9 68.9 297.8 69.5 297.8 64.7 C 297.8 62.9 294.1 62.8 294.1 64.6 C 294.1 68.9 293.0 68.3 293.0 70.8 C 293.0 70.8 293.0 70.8 293.0 70.8 Z M 298.9 12.3 C 298.9 11.9 298.8 11.5 298.8 11.1 L 295.9 8.3 C 294.4 8.6 293.7 9.5 293.6 11.1 C 293.6 12.7 294.5 13.6 295.9 13.9 L 293.1 11.1 C 293.0 11.5 293.0 11.9 293.0 12.3 C 293.0 14.5 294.1 14.4 294.1 18.1 C 294.1 20.1 297.7 19.8 297.7 18.1 C 297.7 14.2 298.9 14.8 298.9 12.3 C 298.9 12.3 298.9 12.3 298.9 12.3 Z M 297.8 64.3 C 297.8 63.1 297.3 61.1 297.3 60.6 C 297.3 60.1 297.6 58.4 297.5 57.6 C 297.4 56.9 297.1 56.6 297.0 55.3 C 296.9 53.6 297.3 52.6 297.3 52.5 C 297.5 52.2 297.8 51.4 297.7 50.3 C 297.6 48.9 297.9 48.4 297.8 47.8 C 297.3 46.6 297.7 46.5 297.7 45.7 C 297.6 44.8 297.7 44.3 297.5 43.6 C 297.3 42.8 297.8 42.3 297.8 41.6 C 297.8 40.5 294.1 40.6 294.1 41.6 C 294.1 42.2 294.5 42.8 294.5 43.4 C 294.5 44.1 294.4 44.7 294.3 45.3 C 294.1 46.0 294.3 47.3 294.3 48.4 C 294.2 49.5 294.0 51.2 294.0 52.5 C 294.1 53.7 295.0 54.5 294.4 57.0 C 294.2 57.8 294.4 59.4 294.4 60.1 C 294.4 61.2 294.1 63.5 294.1 64.4 C 294.1 65.6 297.8 65.5 297.8 64.3 C 297.8 64.3 297.8 64.3 297.8 64.3 Z M 297.8 18.5 C 297.8 17.4 294.1 17.2 294.1 18.5 C 294.1 19.8 294.4 22.1 294.4 22.8 C 294.3 23.4 294.1 26.3 294.1 26.9 C 294.1 27.5 294.6 29.6 294.3 30.9 C 294.0 32.1 294.6 33.3 294.4 34.2 C 294.2 35.2 294.4 35.8 294.5 36.6 C 294.6 37.4 293.8 38.6 294.1 39.3 C 294.5 40.0 294.1 40.4 294.1 41.4 C 294.1 42.3 297.8 42.3 297.8 41.4 C 297.8 40.5 297.7 39.7 297.6 38.8 C 297.5 37.9 297.5 36.8 297.5 35.9 C 297.5 35.0 297.9 33.7 297.7 32.7 C 297.5 31.6 297.4 30.1 297.3 29.5 C 297.3 28.8 297.4 27.2 297.2 26.5 C 296.9 25.7 297.3 24.1 297.6 23.6 C 297.9 23.0 297.5 22.6 297.6 21.4 C 297.6 20.7 297.8 19.6 297.8 18.5 C 297.8 18.5 297.8 18.5 297.8 18.5 Z M 295.0 14.0 C 296.3 14.0 298.1 13.8 298.4 11.8 C 298.6 9.8 297.1 8.2 295.1 8.2 C 293.0 8.2 293.6 9.3 288.8 9.3 C 287.1 9.3 287.0 13.0 288.8 13.0 C 293.0 13.0 292.4 14.0 295.0 14.0 C 295.0 14.0 295.0 14.0 295.0 14.0 Z M 10.2 8.2 C 9.8 8.2 9.3 8.2 9.0 8.3 L 6.2 11.1 C 6.4 12.7 7.4 13.4 9.0 13.4 C 10.6 13.5 11.5 12.6 11.8 11.1 L 9.0 13.9 C 9.4 14.0 9.8 14.0 10.2 14.0 C 12.4 14.0 12.3 12.9 16.0 13.0 C 18.0 13.0 17.6 9.3 16.0 9.3 C 12.1 9.3 12.7 8.2 10.2 8.2 C 10.2 8.2 10.2 8.2 10.2 8.2 Z M 288.3 9.3 C 286.2 9.3 282.8 9.8 282.0 9.8 C 281.2 9.8 278.4 9.5 277.1 9.6 C 275.8 9.7 275.3 9.9 273.1 10.0 C 270.3 10.1 268.5 9.8 268.4 9.7 C 268.0 9.6 266.6 9.2 264.8 9.3 C 262.3 9.5 261.5 9.1 260.4 9.3 C 258.5 9.7 258.3 9.3 256.9 9.4 C 255.4 9.5 254.5 9.3 253.3 9.5 C 252.1 9.7 251.1 9.3 250.0 9.3 C 248.1 9.3 248.3 13.0 250.0 13.0 C 251.1 13.0 252.0 12.6 253.1 12.6 C 254.2 12.6 255.2 12.7 256.3 12.8 C 257.4 13.0 259.7 12.7 261.5 12.8 C 263.3 12.9 266.3 13.1 268.4 13.0 C 270.4 12.9 271.7 12.1 276.0 12.7 C 277.4 12.8 280.1 12.7 281.2 12.7 C 283.2 12.7 286.9 12.9 288.5 12.9 C 290.5 12.9 290.4 9.3 288.3 9.3 C 288.3 9.3 288.3 9.3 288.3 9.3 Z M 211.1 9.3 C 209.3 9.3 208.9 13.0 211.1 13.0 C 213.2 13.0 217.1 12.6 218.2 12.7 C 219.4 12.8 224.2 13.0 225.2 13.0 C 226.2 13.0 229.8 12.5 231.9 12.8 C 234.0 13.1 236.0 12.5 237.5 12.6 C 239.2 12.8 240.2 12.6 241.6 12.6 C 242.9 12.5 245.0 13.2 246.2 12.9 C 247.3 12.6 248.0 13.0 249.6 13.0 C 251.2 13.0 251.2 9.3 249.7 9.3 C 248.2 9.3 246.9 9.4 245.4 9.4 C 243.8 9.5 242.0 9.6 240.4 9.6 C 238.9 9.6 236.7 9.1 234.9 9.4 C 233.2 9.6 230.7 9.7 229.7 9.7 C 228.4 9.8 225.7 9.7 224.6 9.9 C 223.1 10.1 220.6 9.8 219.6 9.4 C 218.7 9.1 218.0 9.6 216.0 9.5 C 214.8 9.4 212.9 9.3 211.1 9.3 C 211.1 9.3 211.1 9.3 211.1 9.3 Z M 210.5 9.3 C 208.4 9.3 205.0 9.8 204.2 9.8 C 203.3 9.8 200.6 9.5 199.2 9.6 C 197.9 9.7 197.5 9.9 195.3 10.0 C 192.5 10.1 190.7 9.8 190.5 9.7 C 190.1 9.6 188.8 9.2 186.9 9.3 C 184.4 9.5 183.7 9.1 182.6 9.3 C 180.7 9.7 180.5 9.3 179.0 9.4 C 177.6 9.5 176.7 9.3 175.5 9.5 C 174.2 9.7 173.3 9.3 172.1 9.3 C 170.3 9.3 170.4 13.0 172.2 13.0 C 173.2 13.0 174.2 12.6 175.3 12.6 C 176.4 12.6 177.4 12.7 178.5 12.8 C 179.6 13.0 181.9 12.7 183.7 12.8 C 185.5 12.9 188.5 13.1 190.5 13.0 C 192.6 12.9 193.9 12.1 198.2 12.7 C 199.5 12.8 202.3 12.7 203.4 12.7 C 205.3 12.7 209.1 12.9 210.7 12.9 C 212.6 12.9 212.6 9.3 210.5 9.3 C 210.5 9.3 210.5 9.3 210.5 9.3 Z M 133.2 9.3 C 131.4 9.3 131.1 13.0 133.2 13.0 C 135.3 13.0 139.3 12.6 140.4 12.7 C 141.6 12.8 146.4 13.0 147.4 13.0 C 148.4 13.0 152.0 12.5 154.1 12.8 C 156.1 13.1 158.2 12.5 159.6 12.6 C 161.4 12.8 162.4 12.6 163.7 12.6 C 165.1 12.5 167.2 13.2 168.4 12.9 C 169.5 12.6 170.2 13.0 171.8 13.0 C 173.4 13.0 173.4 9.3 171.9 9.3 C 170.3 9.3 169.0 9.4 167.5 9.4 C 166.0 9.5 164.2 9.6 162.5 9.6 C 161.0 9.6 158.8 9.1 157.1 9.4 C 155.4 9.6 152.9 9.7 151.9 9.7 C 150.6 9.8 147.9 9.7 146.8 9.9 C 145.3 10.1 142.7 9.8 141.8 9.4 C 140.8 9.1 140.2 9.6 138.2 9.5 C 136.9 9.4 135.0 9.3 133.2 9.3 C 133.2 9.3 133.2 9.3 133.2 9.3 Z M 133.0 13.0 C 134.6 13.0 134.6 9.3 132.7 9.3 C 130.7 9.3 126.3 9.9 125.2 9.9 C 124.0 9.8 120.8 9.1 119.8 9.1 C 118.8 9.1 113.9 10.2 111.8 9.9 C 109.7 9.6 109.1 9.7 107.7 9.7 C 106.3 9.7 104.0 9.9 102.6 10.0 C 101.2 10.1 100.0 9.1 98.2 9.4 C 96.4 9.7 95.5 9.3 94.2 9.3 C 92.2 9.3 92.4 12.9 94.2 12.9 C 96.0 12.9 97.2 13.2 98.7 13.1 C 100.2 13.0 101.5 12.7 103.0 13.0 C 104.4 13.4 107.2 13.0 108.9 12.8 C 110.6 12.5 112.6 12.6 113.9 12.8 C 116.7 13.1 123.2 12.4 124.1 12.7 C 125.1 13.0 128.1 12.7 129.1 12.7 C 130.2 12.7 130.8 13.0 133.0 13.0 C 133.0 13.0 133.0 13.0 133.0 13.0 Z M 93.7 9.3 C 91.7 9.3 88.3 9.8 87.4 9.8 C 86.6 9.8 83.8 9.5 82.5 9.6 C 81.2 9.7 80.7 9.9 78.5 10.0 C 75.7 10.1 73.9 9.8 73.8 9.7 C 73.4 9.6 72.0 9.2 70.2 9.3 C 67.7 9.5 66.9 9.1 65.8 9.3 C 63.9 9.7 63.7 9.3 62.3 9.4 C 60.8 9.5 59.9 9.3 58.7 9.5 C 57.5 9.7 56.5 9.3 55.4 9.3 C 53.5 9.3 53.7 13.0 55.4 13.0 C 56.5 13.0 57.4 12.6 58.5 12.6 C 59.7 12.6 60.6 12.7 61.7 12.8 C 62.8 13.0 65.1 12.7 66.9 12.8 C 68.7 12.9 71.7 13.1 73.8 13.0 C 75.9 12.9 77.1 12.1 81.4 12.7 C 82.8 12.8 85.5 12.7 86.6 12.7 C 88.6 12.7 92.3 12.9 93.9 12.9 C 95.9 12.9 95.8 9.3 93.7 9.3 C 93.7 9.3 93.7 9.3 93.7 9.3 Z M 16.5 9.3 C 14.7 9.3 14.3 13.0 16.5 13.0 C 18.6 13.0 22.5 12.6 23.7 12.7 C 24.8 12.8 29.6 13.0 30.6 13.0 C 31.6 13.0 35.2 12.5 37.3 12.8 C 39.4 13.1 41.4 12.5 42.9 12.6 C 44.7 12.8 45.6 12.6 47.0 12.6 C 48.3 12.5 50.4 13.2 51.6 12.9 C 52.8 12.6 53.4 13.0 55.0 13.0 C 56.6 13.0 56.6 9.3 55.1 9.3 C 53.6 9.3 52.3 9.4 50.8 9.4 C 49.3 9.5 47.4 9.6 45.8 9.6 C 44.3 9.6 42.1 9.1 40.3 9.4 C 38.6 9.6 36.1 9.7 35.1 9.7 C 33.8 9.8 31.2 9.7 30.0 9.9 C 28.5 10.1 26.0 9.8 25.0 9.4 C 24.1 9.1 23.4 9.6 21.4 9.5 C 20.2 9.4 18.3 9.3 16.5 9.3 C 16.5 9.3 16.5 9.3 16.5 9.3 Z M 11.9 12.1 C 11.9 10.7 11.7 8.9 9.6 8.7 C 7.6 8.5 6.1 9.9 6.1 12.0 C 6.1 14.0 7.2 13.4 7.2 18.2 C 7.2 20.0 10.8 20.1 10.8 18.3 C 10.8 14.0 11.9 14.6 11.9 12.1 C 11.9 12.1 11.9 12.1 11.9 12.1 Z M 6.1 70.6 C 6.1 73.0 7.0 74.0 9.0 74.1 C 11.0 74.1 11.9 72.8 11.9 70.6 C 11.9 68.4 10.8 68.5 10.8 64.8 C 10.9 62.8 7.2 63.1 7.2 64.8 C 7.2 68.7 6.1 68.1 6.1 70.6 C 6.1 70.6 6.1 70.6 6.1 70.6 Z M 7.2 18.6 C 7.2 19.8 7.6 21.8 7.6 22.3 C 7.6 22.8 7.4 24.5 7.4 25.3 C 7.5 26.0 7.8 26.3 7.9 27.6 C 8.0 29.3 7.6 30.3 7.6 30.4 C 7.5 30.7 7.1 31.5 7.2 32.6 C 7.4 34.0 7.0 34.5 7.2 35.1 C 7.6 36.3 7.2 36.4 7.3 37.2 C 7.3 38.1 7.2 38.6 7.4 39.3 C 7.6 40.1 7.1 40.6 7.2 41.3 C 7.2 42.4 10.8 42.3 10.8 41.3 C 10.8 40.7 10.4 40.1 10.4 39.5 C 10.4 38.8 10.5 38.2 10.7 37.6 C 10.8 36.9 10.6 35.6 10.7 34.5 C 10.8 33.4 11.0 31.7 10.9 30.4 C 10.8 29.2 9.9 28.4 10.5 25.9 C 10.7 25.1 10.5 23.5 10.5 22.8 C 10.5 21.7 10.8 19.4 10.8 18.5 C 10.8 17.3 7.2 17.4 7.2 18.6 C 7.2 18.6 7.2 18.6 7.2 18.6 Z M 10.8 41.5 C 10.8 40.5 7.2 40.5 7.2 41.6 C 7.2 42.8 7.8 45.4 7.7 46.1 C 7.7 46.8 7.0 48.7 7.0 49.3 C 7.0 49.9 8.0 52.8 7.7 54.0 C 7.4 55.2 7.6 55.6 7.6 56.5 C 7.6 57.3 7.8 58.7 7.9 59.5 C 8.0 60.3 7.0 61.0 7.3 62.1 C 7.5 63.1 7.2 63.7 7.2 64.4 C 7.2 65.6 10.8 65.6 10.8 64.5 C 10.8 63.4 11.1 62.7 11.0 61.8 C 10.9 60.9 10.5 60.1 10.9 59.3 C 11.3 58.4 10.9 56.8 10.6 55.7 C 10.4 54.7 10.5 53.6 10.7 52.8 C 11.0 51.2 10.3 47.3 10.6 46.7 C 10.9 46.2 10.6 44.4 10.6 43.7 C 10.6 43.1 10.8 42.8 10.8 41.5 C 10.8 41.5 10.8 41.5 10.8 41.5 Z M 10.8 41.5 " fill="#000000"></path><g><clipPath id="clip-286"><path d="M 8.0 13.8 L 296.9 13.8 L 296.9 68.8 L 8.0 68.8 Z M 8.0 13.8 "></path></clipPath><g clip-path="url(#clip-286)"><text xml:space="preserve" font-family="Helvetica-Bold" font-weight="bold" font-size="32.0" fill="#164E86" transform="matrix(1.00, 0.00, -0.00, -1.00, 72.0, 29.0)">D</text><text xml:space="preserve" font-family="Helvetica-Bold" font-weight="bold" font-size="32.0" fill="#164E86" transform="matrix(1.00, 0.00, -0.00, -1.00, 95.1, 29.0)">a</text><text xml:space="preserve" font-family="Helvetica-Bold" font-weight="bold" font-size="32.0" fill="#164E86" transform="matrix(1.00, 0.00, -0.00, -1.00, 112.9, 29.0)">t</text><text xml:space="preserve" font-family="Helvetica-Bold" font-weight="bold" font-size="32.0" fill="#164E86" transform="matrix(1.00, 0.00, -0.00, -1.00, 123.6, 29.0)">a</text><text xml:space="preserve" font-family="Helvetica-Bold" font-weight="bold" font-size="32.0" fill="#164E86" transform="matrix(1.00, 0.00, -0.00, -1.00, 141.4, 29.0)"> </text><text xml:space="preserve" font-family="Helvetica-Bold" font-weight="bold" font-size="32.0" fill="#164E86" transform="matrix(1.00, 0.00, -0.00, -1.00, 150.3, 29.0)">p</text><text xml:space="preserve" font-family="Helvetica-Bold" font-weight="bold" font-size="32.0" fill="#164E86" transform="matrix(1.00, 0.00, -0.00, -1.00, 169.8, 29.0)">l</text><text xml:space="preserve" font-family="Helvetica-Bold" font-weight="bold" font-size="32.0" fill="#164E86" transform="matrix(1.00, 0.00, -0.00, -1.00, 178.7, 29.0)">a</text><text xml:space="preserve" font-family="Helvetica-Bold" font-weight="bold" font-size="32.0" fill="#164E86" transform="matrix(1.00, 0.00, -0.00, -1.00, 196.5, 29.0)">n</text><text xml:space="preserve" font-family="Helvetica-Bold" font-weight="bold" font-size="32.0" fill="#164E86" transform="matrix(1.00, 0.00, -0.00, -1.00, 216.0, 29.0)">e</text></g></g></g></svg>