<?xml version="1.0" encoding="UTF-8" standalone="yes"?>
<svg xmlns="http://www.w3.org/2000/svg" xmlns:xlink="http://www.w3.org/1999/xlink" width="170.223pt" height="150.195pt" version="1.1" viewBox="-151.405 1158.142 170.223 150.196">
  <!--
	Exported with Concepts: Smarter Sketching
	Version: 973 on iOS 14.5
	https://concepts.app/
	-->
  <title>Untitled 16</title>
  <desc>Drawing exported from Concepts: Smarter Sketching</desc>
  <defs></defs>
  <rect x="-151.405" y="1158.142" width="170.223" height="150.196" stroke="none" fill="white"></rect>
  <g id="Pen" opacity="1.000">
    <path id="STROKE_6b268876-6d51-45ec-b146-c3cdda1b6a15" opacity="1.000" fill="none" stroke="#5a6edc" stroke-width="0.855" stroke-opacity="1.000" stroke-linecap="round" stroke-linejoin="round" d="M -92.643 1236.967 Q -92.587 1237.151 -87.968 1237.333 Q -83.350 1237.514 -80.794 1237.479 Q -78.239 1237.444 -77.109 1237.393 Q -75.979 1237.342 -73.922 1237.299 Q -71.865 1237.257 -67.530 1237.371 Q -63.195 1237.485 -61.014 1237.480 Q -58.833 1237.475 -55.292 1237.438 Q -51.751 1237.400 -49.744 1237.425 Q -47.736 1237.449 -46.460 1237.510 Q -45.183 1237.572 -37.298 1237.674 Q -29.413 1237.777 -24.938 1237.773 Q -20.464 1237.769 -18.446 1237.760 Q -16.429 1237.752 -15.283 1237.686 Q -14.137 1237.620 -8.179 1237.346 "></path>
    <path id="STROKE_f4239cec-6c87-4214-a888-18e6a71c5146" opacity="1.000" fill="none" stroke="#5a6edc" stroke-width="0.839" stroke-opacity="1.000" stroke-linecap="round" stroke-linejoin="round" d="M -93.695 1248.420 Q -93.677 1248.469 -93.297 1248.465 Q -92.917 1248.461 -92.175 1248.405 Q -91.433 1248.348 -90.788 1248.297 Q -90.142 1248.247 -89.593 1248.203 Q -89.044 1248.159 -88.281 1248.158 Q -87.518 1248.156 -86.786 1248.188 Q -86.053 1248.219 -85.384 1248.240 Q -84.714 1248.260 -83.864 1248.281 Q -83.013 1248.302 -82.239 1248.318 Q -81.466 1248.333 -80.905 1248.344 Q -80.343 1248.354 -79.737 1248.365 Q -79.131 1248.375 -78.558 1248.385 Q -77.986 1248.395 -77.179 1248.410 Q -76.373 1248.424 -75.434 1248.442 Q -74.495 1248.461 -73.693 1248.477 Q -72.891 1248.494 -72.226 1248.510 Q -71.562 1248.525 -70.824 1248.526 Q -70.087 1248.527 -69.276 1248.514 Q -68.466 1248.501 -67.583 1248.474 Q -66.700 1248.446 -65.745 1248.404 Q -64.789 1248.363 -63.940 1248.328 Q -63.091 1248.294 -62.350 1248.267 Q -61.608 1248.240 -60.973 1248.221 Q -60.339 1248.201 -59.547 1248.183 Q -58.755 1248.165 -57.747 1248.151 Q -56.739 1248.137 -56.019 1248.133 Q -55.299 1248.130 -54.707 1248.109 Q -54.115 1248.089 -53.412 1248.050 Q -52.709 1248.011 -51.894 1247.954 Q -51.079 1247.897 -50.152 1247.821 Q -49.226 1247.746 -48.415 1247.678 Q -47.605 1247.611 -46.911 1247.551 Q -46.217 1247.491 -45.639 1247.439 Q -45.061 1247.388 -44.369 1247.322 Q -43.677 1247.256 -42.954 1247.192 Q -42.230 1247.128 -41.707 1247.088 Q -41.184 1247.048 -40.559 1247.003 Q -39.935 1246.958 -39.442 1246.924 Q -38.949 1246.889 -38.378 1246.850 Q -37.808 1246.810 -37.169 1246.773 Q -36.530 1246.735 -35.824 1246.700 Q -35.117 1246.665 -34.342 1246.632 Q -33.567 1246.600 -32.724 1246.569 Q -31.880 1246.538 -31.038 1246.509 Q -30.195 1246.480 -29.352 1246.451 Q -28.509 1246.423 -27.667 1246.396 Q -26.824 1246.369 -25.982 1246.343 Q -25.139 1246.317 -24.410 1246.293 Q -23.680 1246.269 -23.063 1246.247 Q -22.446 1246.225 -21.942 1246.206 Q -21.437 1246.186 -20.850 1246.160 Q -20.263 1246.134 -19.512 1246.097 Q -18.762 1246.060 -18.045 1246.021 Q -17.329 1245.983 -16.530 1245.958 Q -15.731 1245.933 -15.117 1245.920 Q -14.503 1245.906 -13.815 1245.897 Q -13.128 1245.887 -12.544 1245.879 Q -11.960 1245.871 -11.243 1245.861 Q -10.526 1245.851 -9.928 1245.831 Q -9.329 1245.811 -8.867 1245.786 Q -8.405 1245.761 -7.892 1245.712 Q -7.379 1245.663 -6.539 1245.557 Q -6.543 1245.569 -6.606 1245.640 Q -6.668 1245.711 -6.702 1245.723 "></path>
    <path id="STROKE_be41d258-ffb9-41a1-951a-941988293662" opacity="1.000" fill="none" stroke="#5a6edc" stroke-width="1.499" stroke-opacity="1.000" stroke-linecap="round" stroke-linejoin="round" d="M -6.974 1231.808 Q -6.869 1231.656 -6.891 1231.697 Q -6.879 1231.690 -6.880 1231.673 Q -7.004 1231.636 -7.113 1231.981 Q -7.221 1232.326 -7.301 1232.886 Q -7.381 1233.445 -7.432 1233.908 Q -7.484 1234.370 -7.533 1234.914 Q -7.582 1235.459 -7.629 1236.080 Q -7.676 1236.701 -7.721 1237.404 "></path>
    <path id="STROKE_d2745e81-1e00-4daf-ad4d-9c7e8e285911" opacity="1.000" fill="none" stroke="#5a6edc" stroke-width="1.744" stroke-opacity="1.000" stroke-linecap="round" stroke-linejoin="round" d="M -7.115 1245.950 Q -7.223 1245.879 -6.693 1245.998 Q -6.640 1245.895 -6.617 1246.198 Q -6.595 1246.501 -6.584 1247.257 Q -6.573 1248.012 -6.558 1248.891 Q -6.542 1249.770 -6.517 1250.770 Q -6.414 1250.807 -6.239 1250.840 "></path>
    <path id="STROKE_d8f891b7-d7e1-49e3-a141-9217d65890cc" opacity="1.000" fill="none" stroke="#5a6edc" stroke-width="1.219" stroke-opacity="1.000" stroke-linecap="round" stroke-linejoin="round" d="M -7.083 1231.853 Q -7.107 1231.897 -6.740 1232.196 Q -6.373 1232.494 -5.995 1232.806 Q -5.617 1233.117 -5.113 1233.539 Q -4.609 1233.960 -4.234 1234.268 Q -3.859 1234.576 -3.482 1234.873 Q -3.104 1235.170 -2.712 1235.374 Q -2.320 1235.578 -2.080 1235.647 Q -1.841 1235.715 -1.475 1236.075 Q -1.108 1236.436 -0.836 1236.729 Q -0.564 1237.024 -0.402 1237.099 Q -0.240 1237.175 -0.056 1237.268 Q 0.128 1237.362 0.253 1237.425 Q 0.378 1237.488 0.385 1237.486 Q 0.392 1237.483 0.458 1237.553 Q 0.523 1237.623 0.761 1237.920 Q 0.999 1238.218 1.649 1238.501 Q 2.300 1238.785 2.629 1238.958 Q 2.958 1239.133 3.038 1239.233 Q 3.119 1239.333 3.061 1239.339 Q 3.003 1239.344 3.336 1239.576 Q 3.669 1239.808 4.009 1239.979 Q 4.348 1240.151 4.594 1240.249 Q 4.841 1240.347 4.905 1240.363 Q 4.969 1240.379 4.958 1240.387 Q 4.948 1240.396 4.947 1240.352 Q 4.946 1240.309 5.226 1240.499 Q 5.507 1240.688 5.754 1240.970 Q 6.001 1241.251 6.018 1241.225 Q 6.034 1241.198 6.074 1241.219 Q 6.113 1241.240 6.069 1241.243 Q 6.025 1241.246 6.563 1241.359 "></path>
    <path id="STROKE_5437e0cb-3f6f-41a7-b4e5-a64c49cc5292" opacity="1.000" fill="none" stroke="#5a6edc" stroke-width="1.014" stroke-opacity="1.000" stroke-linecap="round" stroke-linejoin="round" d="M -6.020 1250.895 Q -6.147 1250.947 -6.034 1250.875 Q -5.921 1250.802 -5.777 1250.703 Q -5.634 1250.605 -5.441 1250.469 Q -5.249 1250.334 -5.151 1250.256 Q -5.053 1250.177 -4.900 1250.113 Q -4.746 1250.049 -4.345 1249.806 Q -3.943 1249.564 -3.389 1249.228 Q -2.834 1248.893 -2.391 1248.604 Q -1.948 1248.315 -1.429 1247.960 Q -0.910 1247.604 -0.315 1247.177 Q 0.281 1246.751 0.952 1246.245 Q 1.623 1245.740 2.242 1245.280 Q 2.861 1244.820 3.422 1244.407 Q 3.983 1243.995 4.483 1243.636 Q 4.983 1243.277 5.642 1242.826 Q 6.302 1242.376 6.744 1242.066 Q 7.186 1241.757 7.192 1241.750 "></path>
    <path id="STROKE_21fc3d0d-dade-4706-99d2-a6789e734287" opacity="1.000" fill="none" stroke="#5a6edc" stroke-width="0.862" stroke-opacity="1.000" stroke-linecap="round" stroke-linejoin="round" d="M -84.489 1166.316 Q -84.356 1166.298 -83.934 1166.299 Q -83.512 1166.300 -83.124 1166.305 Q -82.735 1166.310 -82.240 1166.320 Q -81.744 1166.330 -81.191 1166.328 Q -80.639 1166.326 -80.210 1166.322 Q -79.782 1166.318 -79.293 1166.311 Q -78.804 1166.304 -78.255 1166.294 Q -77.706 1166.283 -77.096 1166.270 Q -76.487 1166.257 -75.817 1166.241 Q -75.148 1166.225 -74.418 1166.206 Q -73.688 1166.186 -72.996 1166.168 Q -72.304 1166.150 -71.651 1166.133 Q -70.997 1166.115 -70.381 1166.099 Q -69.766 1166.083 -69.188 1166.067 Q -68.611 1166.052 -68.071 1166.038 Q -67.532 1166.023 -67.031 1166.010 Q -66.529 1165.997 -66.066 1165.984 Q -65.603 1165.972 -64.966 1165.955 Q -64.328 1165.938 -63.506 1165.921 Q -62.684 1165.903 -61.890 1165.891 Q -61.096 1165.879 -60.331 1165.873 Q -59.565 1165.867 -58.828 1165.865 Q -58.090 1165.865 -57.295 1165.864 Q -56.499 1165.863 -55.646 1165.863 Q -54.793 1165.863 -53.881 1165.863 Q -52.970 1165.863 -52.001 1165.864 Q -51.031 1165.864 -50.210 1165.865 Q -49.389 1165.866 -48.715 1165.867 Q -48.041 1165.868 -47.516 1165.869 Q -46.990 1165.870 -46.423 1165.873 Q -45.856 1165.875 -45.131 1165.883 Q -44.406 1165.892 -43.870 1165.900 Q -43.335 1165.908 -42.746 1165.918 Q -42.157 1165.929 -41.529 1165.942 Q -40.900 1165.955 -40.231 1165.972 Q -39.562 1165.988 -38.852 1166.008 Q -38.143 1166.028 -37.394 1166.051 Q -36.644 1166.074 -35.966 1166.095 Q -35.288 1166.117 -34.681 1166.137 Q -34.074 1166.158 -33.539 1166.177 Q -33.004 1166.196 -32.308 1166.223 Q -31.612 1166.250 -30.715 1166.283 Q -29.817 1166.317 -28.950 1166.350 Q -28.083 1166.382 -27.326 1166.414 Q -26.569 1166.447 -25.922 1166.480 Q -25.276 1166.513 -24.713 1166.540 Q -24.150 1166.567 -23.671 1166.589 Q -23.192 1166.610 -22.686 1166.631 Q -22.180 1166.652 -21.647 1166.673 Q -21.113 1166.694 -20.657 1166.710 Q -20.201 1166.727 -19.633 1166.745 Q -19.065 1166.763 -18.546 1166.770 Q -18.028 1166.778 -17.584 1166.786 Q -17.141 1166.795 -16.599 1166.807 Q -16.057 1166.820 -15.506 1166.830 Q -14.956 1166.841 -14.397 1166.849 Q -13.839 1166.857 -13.183 1166.863 Q -12.527 1166.869 -11.777 1166.869 Q -11.027 1166.869 -10.362 1166.857 Q -9.697 1166.845 -9.115 1166.822 Q -8.533 1166.799 -7.928 1166.759 Q -7.323 1166.719 -6.693 1166.662 Q -6.064 1166.606 -5.731 1166.573 Q -5.398 1166.541 -5.359 1166.537 "></path>
    <path id="STROKE_2dd40ecc-8423-4ffc-8d2b-35b3697709a8" opacity="1.000" fill="none" stroke="#5a6edc" stroke-width="0.905" stroke-opacity="1.000" stroke-linecap="round" stroke-linejoin="round" d="M -84.827 1176.262 Q -84.390 1176.266 -83.715 1176.263 Q -83.041 1176.261 -82.357 1176.255 Q -81.673 1176.250 -81.158 1176.244 Q -80.643 1176.239 -80.068 1176.232 Q -79.493 1176.225 -78.859 1176.216 Q -78.225 1176.208 -77.532 1176.198 Q -76.838 1176.188 -76.132 1176.176 Q -75.425 1176.164 -74.705 1176.150 Q -73.986 1176.135 -73.253 1176.118 Q -72.520 1176.102 -71.774 1176.083 Q -71.027 1176.064 -70.268 1176.042 Q -69.509 1176.021 -68.736 1175.998 Q -67.964 1175.974 -67.178 1175.948 Q -66.392 1175.923 -65.594 1175.895 Q -64.795 1175.866 -64.029 1175.841 Q -63.264 1175.815 -62.532 1175.792 Q -61.801 1175.769 -61.102 1175.749 Q -60.404 1175.729 -59.739 1175.711 Q -59.075 1175.693 -58.444 1175.678 Q -57.813 1175.662 -57.215 1175.650 Q -56.617 1175.637 -56.053 1175.627 Q -55.489 1175.617 -54.959 1175.609 Q -54.429 1175.602 -53.938 1175.595 Q -53.447 1175.588 -52.769 1175.579 Q -52.092 1175.570 -51.347 1175.560 Q -50.602 1175.551 -50.015 1175.544 Q -49.428 1175.538 -48.784 1175.532 Q -48.140 1175.526 -47.234 1175.518 Q -46.328 1175.509 -45.613 1175.502 Q -44.898 1175.495 -44.393 1175.490 Q -43.887 1175.485 -43.353 1175.479 Q -42.819 1175.474 -42.256 1175.468 Q -41.693 1175.462 -41.101 1175.455 Q -40.509 1175.449 -39.969 1175.444 Q -39.429 1175.439 -38.940 1175.434 Q -38.451 1175.430 -38.014 1175.427 Q -37.577 1175.423 -36.998 1175.419 Q -36.420 1175.416 -35.678 1175.414 Q -34.936 1175.413 -34.224 1175.415 Q -33.512 1175.417 -32.935 1175.422 Q -32.357 1175.427 -31.914 1175.436 Q -31.471 1175.444 -30.989 1175.463 Q -30.507 1175.481 -29.987 1175.509 Q -29.466 1175.537 -28.864 1175.556 Q -28.262 1175.575 -27.790 1175.587 Q -27.318 1175.598 -26.776 1175.609 Q -26.233 1175.620 -25.756 1175.629 Q -25.279 1175.638 -24.661 1175.649 Q -24.043 1175.660 -23.480 1175.666 Q -22.917 1175.673 -22.202 1175.669 Q -21.487 1175.665 -20.621 1175.651 Q -19.754 1175.637 -19.097 1175.625 Q -18.440 1175.613 -17.768 1175.597 Q -17.097 1175.582 -16.671 1175.582 Q -16.245 1175.582 -15.937 1175.546 Q -15.628 1175.510 -15.072 1175.474 Q -14.516 1175.438 -13.613 1175.391 Q -12.711 1175.345 -12.014 1175.337 Q -11.317 1175.329 -10.822 1175.358 Q -10.327 1175.387 -9.795 1175.388 Q -9.263 1175.388 -8.702 1175.365 Q -8.141 1175.341 -7.715 1175.339 Q -7.290 1175.337 -6.841 1175.361 Q -6.392 1175.384 -5.865 1175.469 Q -5.338 1175.554 -5.091 1175.528 Q -4.843 1175.501 -4.707 1175.470 Q -4.571 1175.440 -4.536 1175.344 "></path>
    <path id="STROKE_36955c1b-16eb-4f7a-aa11-0edc16585ce4" opacity="1.000" fill="none" stroke="#5a6edc" stroke-width="0.862" stroke-opacity="1.000" stroke-linecap="round" stroke-linejoin="round" d="M -87.054 1189.327 Q -86.553 1189.295 -80.526 1189.382 Q -74.498 1189.468 -71.444 1189.501 Q -68.390 1189.533 -66.844 1189.538 Q -65.297 1189.543 -64.358 1189.511 Q -63.420 1189.478 -62.091 1189.447 Q -60.763 1189.415 -60.093 1189.418 Q -59.424 1189.421 -58.715 1189.427 Q -58.006 1189.434 -53.451 1189.453 Q -48.896 1189.471 -46.336 1189.505 Q -43.776 1189.539 -41.569 1189.592 Q -39.363 1189.646 -37.958 1189.695 Q -36.554 1189.744 -35.315 1189.808 Q -34.076 1189.873 -33.387 1189.903 Q -32.697 1189.934 -32.219 1189.956 Q -31.741 1189.978 -31.435 1189.988 Q -31.129 1189.999 -28.863 1190.166 Q -26.597 1190.333 -25.705 1190.397 Q -24.814 1190.460 -23.542 1190.522 Q -22.270 1190.584 -20.356 1190.665 Q -18.442 1190.747 -16.891 1190.807 Q -15.341 1190.867 -14.133 1190.905 Q -12.926 1190.944 -11.967 1190.985 Q -11.008 1191.026 -9.941 1191.091 Q -8.875 1191.157 -7.894 1191.204 Q -6.914 1191.251 -6.576 1191.268 Q -6.238 1191.285 -5.027 1191.328 "></path>
    <path id="STROKE_e6145415-8a79-4e9f-a3cd-544249261d9b" opacity="1.000" fill="none" stroke="#5a6edc" stroke-width="0.843" stroke-opacity="1.000" stroke-linecap="round" stroke-linejoin="round" d="M -88.564 1215.466 Q -87.792 1215.430 -87.511 1215.436 Q -86.760 1215.417 -83.720 1215.382 Q -80.680 1215.346 -78.645 1215.379 Q -76.611 1215.413 -74.770 1215.462 Q -72.929 1215.510 -70.990 1215.599 Q -69.050 1215.687 -65.969 1215.766 Q -62.887 1215.846 -58.316 1215.953 Q -53.745 1216.059 -50.668 1216.143 Q -47.591 1216.227 -44.858 1216.311 Q -42.125 1216.394 -39.984 1216.482 Q -37.844 1216.570 -36.293 1216.631 Q -34.742 1216.692 -33.814 1216.732 Q -32.885 1216.772 -32.237 1216.792 Q -31.590 1216.812 -30.373 1216.874 Q -29.156 1216.936 -27.275 1217.046 Q -25.395 1217.156 -24.022 1217.259 Q -22.649 1217.361 -21.255 1217.504 Q -19.861 1217.647 -18.285 1217.727 Q -16.708 1217.806 -15.509 1217.858 Q -14.310 1217.910 -13.754 1217.911 Q -13.197 1217.913 -12.424 1217.906 Q -11.651 1217.900 -10.681 1217.956 Q -9.711 1218.013 -9.235 1218.044 Q -8.759 1218.076 -6.873 1217.868 Q -6.873 1217.862 -6.872 1217.849 Q -6.908 1217.843 -6.933 1217.854 Q -6.957 1217.864 -6.971 1217.883 "></path>
    <path id="STROKE_6891eb5f-4eba-4556-8d98-3e9f2393d91f" opacity="1.000" fill="none" stroke="#5a6edc" stroke-width="1.214" stroke-opacity="1.000" stroke-linecap="round" stroke-linejoin="round" d="M -4.973 1187.362 Q -4.985 1187.763 -5.045 1188.858 Q -5.105 1189.954 -5.125 1190.468 Q -5.146 1190.982 -5.136 1191.179 Q -5.126 1191.375 -5.050 1191.567 Q -4.974 1191.759 -4.869 1191.784 "></path>
    <path id="STROKE_6b4dc783-8156-4880-9234-18d19be902d2" opacity="1.000" fill="none" stroke="#5a6edc" stroke-width="1.167" stroke-opacity="1.000" stroke-linecap="round" stroke-linejoin="round" d="M -7.398 1218.610 Q -7.274 1218.351 -7.282 1218.357 Q -7.289 1218.364 -7.288 1218.396 Q -7.287 1218.428 -7.152 1217.997 Q -7.125 1217.869 -7.169 1218.197 Q -7.212 1218.525 -7.231 1219.478 Q -7.250 1220.430 -7.163 1221.143 Q -7.075 1221.856 -7.003 1222.558 Q -7.016 1222.557 -7.029 1222.556 "></path>
    <path id="STROKE_2fa61c92-c01e-4a0e-8f51-36391f1fca27" opacity="1.000" fill="none" stroke="#5a6edc" stroke-width="1.149" stroke-opacity="1.000" stroke-linecap="round" stroke-linejoin="round" d="M -5.322 1161.653 Q -5.321 1161.824 -5.352 1162.207 Q -5.383 1162.590 -5.448 1163.191 Q -5.512 1163.792 -5.474 1164.538 Q -5.437 1165.284 -5.297 1166.211 Q -5.277 1166.219 -5.264 1166.225 Q -5.269 1166.227 -5.277 1166.229 Q -5.264 1166.235 -5.256 1166.238 "></path>
    <path id="STROKE_1027939c-a494-470f-b068-9ec55e621c39" opacity="1.000" fill="none" stroke="#5a6edc" stroke-width="1.012" stroke-opacity="1.000" stroke-linecap="round" stroke-linejoin="round" d="M -4.506 1175.563 Q -4.499 1175.567 -4.467 1175.587 Q -4.456 1175.792 -4.469 1176.119 Q -4.481 1176.445 -4.488 1176.811 Q -4.495 1177.176 -4.501 1177.690 Q -4.507 1178.204 -4.511 1178.886 Q -4.515 1179.567 -4.517 1180.414 Q -4.510 1180.416 -4.477 1180.420 Q -4.477 1180.407 -4.475 1180.340 "></path>
    <path id="STROKE_da8f5756-e1cb-40f8-bc6d-8c4ba2579fb3" opacity="1.000" fill="none" stroke="#5a6edc" stroke-width="0.865" stroke-opacity="1.000" stroke-linecap="round" stroke-linejoin="round" d="M 5.273 1171.110 Q 5.312 1171.040 5.009 1171.425 Q 4.707 1171.809 3.852 1172.568 Q 2.997 1173.328 2.259 1173.991 Q 1.520 1174.654 1.152 1174.981 Q 0.783 1175.307 0.543 1175.532 Q 0.304 1175.757 0.225 1175.816 Q 0.146 1175.875 0.097 1175.916 Q 0.049 1175.957 0.009 1175.990 Q -0.032 1176.022 -0.041 1176.029 Q -0.050 1176.036 -0.054 1176.039 Q -0.059 1176.042 -0.174 1176.131 Q -0.288 1176.220 -0.318 1176.247 Q -0.347 1176.273 -0.406 1176.329 Q -0.466 1176.385 -0.514 1176.391 Q -0.563 1176.398 -1.034 1176.939 Q -1.505 1177.480 -2.277 1178.160 Q -3.049 1178.840 -3.395 1179.177 Q -3.742 1179.514 -3.889 1179.649 Q -4.037 1179.783 -4.198 1179.907 Q -4.358 1180.032 -4.342 1180.014 Q -4.326 1179.996 -4.326 1179.997 Q -4.325 1179.999 -4.409 1180.068 Q -4.492 1180.137 -4.661 1180.256 "></path>
    <path id="STROKE_6d15d2f0-b425-4973-8da8-3b44fa12825a" opacity="1.000" fill="none" stroke="#5a6edc" stroke-width="1.226" stroke-opacity="1.000" stroke-linecap="round" stroke-linejoin="round" d="M 5.535 1171.039 Q 5.537 1171.081 4.957 1170.521 Q 4.377 1169.961 4.051 1169.693 Q 3.725 1169.426 3.108 1168.842 Q 2.490 1168.257 1.757 1167.596 Q 1.024 1166.935 0.633 1166.629 Q 0.242 1166.323 -0.165 1165.894 Q -0.572 1165.466 -0.960 1165.086 Q -1.348 1164.706 -1.672 1164.518 Q -1.996 1164.330 -2.206 1164.154 Q -2.415 1163.978 -2.936 1163.591 Q -3.457 1163.203 -3.745 1163.084 Q -4.033 1162.966 -4.099 1162.840 Q -4.165 1162.714 -4.253 1162.599 Q -4.341 1162.484 -4.438 1162.375 Q -4.536 1162.267 -4.637 1162.168 Q -4.737 1162.069 -4.742 1162.064 Q -4.746 1162.059 -4.742 1162.070 Q -4.854 1162.111 -5.302 1161.900 Q -5.751 1161.689 -5.763 1161.682 "></path>
    <path id="STROKE_f05f4c67-cae0-4741-bd07-850e143fb199" opacity="1.000" fill="none" stroke="#5a6edc" stroke-width="0.984" stroke-opacity="1.000" stroke-linecap="round" stroke-linejoin="round" d="M -5.046 1186.729 Q -5.013 1186.785 -4.990 1186.822 Q -4.967 1186.858 -4.849 1186.977 Q -4.731 1187.095 -4.662 1187.160 Q -4.593 1187.224 -4.573 1187.241 Q -4.553 1187.258 -4.476 1187.334 Q -4.399 1187.410 -4.061 1187.687 Q -3.724 1187.964 -3.519 1188.134 Q -3.314 1188.304 -3.285 1188.345 Q -3.256 1188.387 -2.651 1188.932 Q -2.046 1189.478 -1.336 1190.001 Q -0.627 1190.524 -0.149 1190.919 Q 0.330 1191.314 0.606 1191.646 Q 0.882 1191.978 1.308 1192.435 Q 1.735 1192.893 2.401 1193.586 Q 3.067 1194.280 3.563 1194.809 Q 4.058 1195.339 4.386 1195.704 Q 4.714 1196.069 4.994 1196.362 Q 5.275 1196.655 5.510 1196.875 Q 5.744 1197.096 6.162 1197.492 Q 6.580 1197.887 7.181 1198.458 Q 7.782 1199.030 8.242 1199.466 Q 8.702 1199.903 9.180 1200.356 Q 9.658 1200.809 10.074 1201.328 Q 10.490 1201.847 11.021 1202.332 Q 11.553 1202.817 11.895 1203.142 Q 12.237 1203.468 12.376 1203.608 Q 12.514 1203.748 12.537 1203.766 Q 12.560 1203.784 12.614 1203.832 Q 12.668 1203.881 12.713 1203.922 Q 12.759 1203.963 12.810 1203.979 Q 12.862 1203.996 14.103 1205.229 Q 14.084 1205.180 13.984 1205.071 Q 13.884 1204.962 13.898 1204.982 Q 13.912 1205.002 13.923 1205.008 Q 13.934 1205.013 13.847 1204.945 "></path>
    <path id="STROKE_a2632b16-3c88-42ff-a7d8-8e97655e13ee" opacity="1.000" fill="none" stroke="#5a6edc" stroke-width="0.903" stroke-opacity="1.000" stroke-linecap="round" stroke-linejoin="round" d="M 14.320 1205.239 Q 14.100 1205.364 14.146 1205.347 Q 14.031 1205.473 14.067 1205.425 Q 14.104 1205.378 14.017 1205.482 Q 13.931 1205.587 13.894 1205.649 Q 13.858 1205.711 13.795 1205.795 Q 13.732 1205.879 13.662 1205.971 Q 13.591 1206.062 13.585 1206.101 Q 13.578 1206.139 12.088 1207.430 Q 10.598 1208.720 9.825 1209.429 Q 9.051 1210.137 8.696 1210.457 Q 8.341 1210.776 7.896 1211.061 Q 7.451 1211.346 6.975 1211.724 Q 6.499 1212.102 6.079 1212.380 Q 5.659 1212.658 5.152 1213.062 Q 4.645 1213.466 4.156 1213.894 Q 3.668 1214.322 3.065 1214.744 Q 2.462 1215.165 2.065 1215.616 Q 1.669 1216.066 1.366 1216.369 Q 1.062 1216.671 0.819 1216.834 Q 0.576 1216.997 0.058 1217.234 Q -0.460 1217.472 -1.251 1218.178 Q -2.042 1218.884 -2.480 1219.324 Q -2.918 1219.764 -3.303 1220.037 Q -3.689 1220.311 -4.159 1220.697 Q -4.629 1221.084 -5.287 1221.529 Q -5.945 1221.974 -6.267 1222.196 Q -6.590 1222.419 -6.986 1222.645 Q -7.382 1222.871 -7.412 1222.904 "></path>
    <path id="STROKE_9b2ff851-01c6-41a2-8b5a-71ef1837bc87" opacity="1.000" fill="none" stroke="#000000" stroke-width="1.024" stroke-opacity="1.000" stroke-linecap="round" stroke-linejoin="round" d="M -131.729 1168.575 Q -131.773 1168.491 -131.702 1168.524 Q -131.632 1168.557 -131.726 1168.490 Q -131.820 1168.423 -131.940 1168.368 Q -132.060 1168.313 -132.037 1168.330 Q -132.015 1168.348 -132.334 1168.208 Q -132.653 1168.069 -133.279 1168.316 Q -133.904 1168.563 -134.169 1168.756 Q -134.434 1168.949 -134.596 1169.033 Q -134.759 1169.117 -135.132 1169.987 Q -135.148 1170.139 -134.277 1170.314 Q -133.407 1170.489 -132.943 1170.676 Q -132.479 1170.863 -132.050 1171.205 Q -131.621 1171.548 -131.399 1171.916 Q -131.178 1172.284 -131.032 1172.738 Q -130.886 1173.191 -131.074 1173.491 Q -131.263 1173.792 -131.452 1173.847 Q -131.642 1173.903 -132.057 1174.098 Q -132.473 1174.292 -135.023 1174.108 Q -134.653 1174.156 -134.625 1174.167 Q -134.647 1174.170 -134.835 1174.139 Q -135.023 1174.108 -135.107 1174.090 "></path>
    <path id="STROKE_fd9f707a-58ae-41a7-8a99-0790bddbee73" opacity="1.000" fill="none" stroke="#000000" stroke-width="1.160" stroke-opacity="1.000" stroke-linecap="round" stroke-linejoin="round" d="M -128.238 1171.830 Q -128.316 1171.811 -127.978 1171.787 Q -127.640 1171.764 -127.230 1171.600 Q -126.820 1171.436 -126.667 1171.177 Q -126.515 1170.919 -126.463 1170.726 Q -126.411 1170.533 -126.429 1170.387 Q -126.448 1170.241 -126.539 1170.165 Q -126.631 1170.088 -126.822 1170.020 Q -127.014 1169.952 -127.104 1169.939 Q -127.193 1169.927 -127.228 1169.936 Q -127.263 1169.944 -127.258 1169.887 Q -127.253 1169.830 -127.582 1169.884 Q -127.911 1169.938 -128.136 1170.095 Q -128.362 1170.252 -128.401 1170.344 Q -128.440 1170.437 -128.544 1170.470 Q -128.648 1170.504 -128.839 1171.082 Q -129.031 1171.660 -129.095 1172.003 Q -129.159 1172.345 -129.134 1172.585 Q -129.110 1172.825 -129.012 1173.004 Q -128.914 1173.182 -128.561 1173.508 Q -128.208 1173.833 -127.610 1173.980 Q -127.012 1174.128 -126.145 1174.102 Q -125.278 1174.077 -123.659 1172.799 "></path>
    <path id="STROKE_450cc4f5-4068-4962-84af-50b64a70f089" opacity="1.000" fill="none" stroke="#000000" stroke-width="1.112" stroke-opacity="1.000" stroke-linecap="round" stroke-linejoin="round" d="M -123.706 1169.846 Q -123.744 1169.859 -123.663 1169.969 Q -123.581 1170.079 -123.290 1170.897 Q -122.999 1171.716 -122.839 1172.428 Q -122.679 1173.140 -123.045 1173.634 Q -123.068 1173.631 -123.102 1173.627 Q -123.078 1173.310 -123.076 1173.352 Q -123.004 1173.185 -122.998 1172.638 Q -122.992 1172.092 -122.741 1171.549 Q -122.491 1171.007 -122.163 1170.690 Q -121.836 1170.373 -121.292 1170.254 Q -120.747 1170.136 -120.316 1170.199 Q -119.885 1170.263 -119.512 1171.039 Q -119.138 1171.815 -118.957 1172.405 Q -118.776 1172.996 -118.638 1174.731 Q -118.629 1174.732 -118.606 1174.735 "></path>
    <path id="STROKE_82f46606-f06c-4e10-bec0-65b5c9a26808" opacity="1.000" fill="none" stroke="#000000" stroke-width="1.231" stroke-opacity="1.000" stroke-linecap="round" stroke-linejoin="round" d="M -113.012 1169.673 Q -113.028 1169.578 -113.933 1169.868 Q -114.839 1170.158 -115.391 1170.440 Q -115.943 1170.722 -116.215 1170.928 Q -116.487 1171.134 -116.469 1171.317 Q -116.451 1171.500 -115.575 1171.638 Q -114.698 1171.776 -114.268 1171.812 Q -113.838 1171.848 -113.504 1171.991 Q -113.171 1172.135 -113.146 1172.688 Q -113.122 1173.240 -113.134 1173.587 Q -113.145 1173.934 -113.631 1174.339 Q -114.116 1174.744 -114.795 1174.899 Q -115.474 1175.054 -116.336 1174.771 "></path>
    <path id="STROKE_c200fc8c-36aa-46b2-81c0-814158cac7fc" opacity="1.000" fill="none" stroke="#000000" stroke-width="1.165" stroke-opacity="1.000" stroke-linecap="round" stroke-linejoin="round" d="M -109.979 1170.847 Q -110.288 1170.976 -110.477 1171.108 Q -110.666 1171.240 -110.898 1171.488 Q -111.129 1171.735 -111.307 1172.228 Q -111.484 1172.721 -111.295 1173.092 Q -111.107 1173.463 -110.664 1173.737 Q -110.221 1174.011 -109.739 1174.103 Q -109.256 1174.196 -108.691 1174.033 Q -108.125 1173.870 -107.762 1173.619 Q -107.400 1173.367 -107.240 1173.154 Q -107.081 1172.941 -107.033 1172.786 Q -106.986 1172.632 -106.969 1172.324 Q -106.952 1172.016 -107.134 1171.452 Q -107.316 1170.888 -108.314 1170.558 Q -109.313 1170.227 -110.579 1170.250 "></path>
    <path id="STROKE_aec06641-5d77-4cca-bc72-5c8a348a19c8" opacity="1.000" fill="none" stroke="#000000" stroke-width="0.947" stroke-opacity="1.000" stroke-linecap="round" stroke-linejoin="round" d="M -105.721 1170.582 Q -105.897 1170.571 -104.600 1173.685 Q -104.859 1173.901 -104.972 1170.449 Q -104.936 1170.157 -103.451 1170.065 Q -101.966 1169.974 -101.874 1169.977 "></path>
    <path id="STROKE_c60c5abe-30df-4c64-a1fb-b727383d5cf1" opacity="1.000" fill="none" stroke="#000000" stroke-width="1.201" stroke-opacity="1.000" stroke-linecap="round" stroke-linejoin="round" d="M -95.545 1170.004 Q -95.743 1170.016 -96.087 1169.925 Q -96.431 1169.834 -97.163 1170.052 Q -97.894 1170.269 -98.319 1170.511 Q -98.743 1170.752 -98.997 1170.898 Q -99.252 1171.044 -99.365 1171.632 Q -99.370 1171.680 -98.662 1171.824 Q -97.954 1171.968 -97.530 1172.142 Q -97.106 1172.316 -96.714 1172.583 Q -96.322 1172.850 -96.264 1173.362 Q -96.207 1173.874 -96.276 1174.279 Q -96.344 1174.685 -96.701 1175.079 Q -97.057 1175.473 -97.384 1175.709 Q -97.711 1175.946 -97.828 1176.002 Q -97.946 1176.059 -98.629 1176.382 Q -99.312 1176.705 -100.638 1176.695 "></path>
    <path id="STROKE_53d2e909-4bf8-42e0-9c01-7112af8fa3b5" opacity="1.000" fill="none" stroke="#000000" stroke-width="0.955" stroke-opacity="1.000" stroke-linecap="round" stroke-linejoin="round" d="M -136.567 1198.036 Q -136.501 1198.254 -136.342 1199.040 Q -136.183 1199.826 -136.102 1200.363 Q -136.021 1200.900 -135.870 1201.774 Q -135.879 1201.768 -135.904 1201.716 Q -135.930 1201.664 -135.973 1201.560 Q -136.017 1201.456 -136.059 1201.347 Q -136.101 1201.238 -136.124 1201.156 Q -136.146 1201.075 -136.171 1201.030 Q -136.197 1200.984 -136.350 1200.394 Q -136.504 1199.804 -136.408 1199.163 Q -136.313 1198.522 -136.270 1198.172 Q -136.227 1197.822 -135.846 1197.562 Q -135.465 1197.302 -134.716 1197.360 Q -133.968 1197.419 -132.984 1197.473 Q -132.001 1197.526 -131.458 1197.559 Q -130.916 1197.591 -130.820 1197.604 "></path>
    <path id="STROKE_a7fdf2c8-c240-4b48-88c2-172ca85ce70e" opacity="1.000" fill="none" stroke="#000000" stroke-width="1.298" stroke-opacity="1.000" stroke-linecap="round" stroke-linejoin="round" d="M -130.618 1200.274 Q -130.608 1200.324 -130.298 1200.492 Q -129.987 1200.660 -128.975 1200.589 Q -127.963 1200.518 -127.455 1200.392 Q -126.948 1200.266 -126.721 1200.193 Q -126.495 1200.120 -126.423 1199.998 Q -126.351 1199.876 -126.277 1199.749 Q -126.204 1199.621 -126.364 1199.398 Q -126.525 1199.175 -126.710 1199.035 Q -126.895 1198.895 -127.186 1198.748 Q -127.477 1198.600 -128.108 1198.726 Q -128.739 1198.852 -129.184 1199.104 Q -129.629 1199.356 -129.893 1199.803 Q -130.156 1200.250 -130.252 1200.646 Q -130.347 1201.043 -130.318 1201.436 Q -130.289 1201.829 -129.709 1202.201 Q -129.130 1202.572 -128.482 1202.761 Q -127.833 1202.951 -127.308 1202.789 Q -126.783 1202.628 -126.707 1202.596 "></path>
    <path id="STROKE_5fa85dc1-8f8f-4b4a-84bd-8a0776eebabd" opacity="1.000" fill="none" stroke="#000000" stroke-width="1.385" stroke-opacity="1.000" stroke-linecap="round" stroke-linejoin="round" d="M -121.963 1199.707 Q -122.201 1199.545 -122.201 1199.552 Q -122.316 1199.411 -122.920 1199.445 Q -123.524 1199.480 -123.956 1199.658 Q -124.387 1199.837 -124.741 1200.125 Q -125.096 1200.414 -125.269 1200.787 Q -125.442 1201.160 -125.467 1201.535 Q -125.491 1201.909 -125.042 1202.307 Q -124.593 1202.704 -124.078 1202.919 Q -123.563 1203.133 -123.092 1203.198 Q -122.621 1203.263 -122.189 1202.719 Q -121.756 1202.175 -121.706 1202.086 "></path>
    <path id="STROKE_0cd1171d-0f4f-44ec-b0c0-31e6f4e45cd6" opacity="1.000" fill="none" stroke="#000000" stroke-width="1.505" stroke-opacity="1.000" stroke-linecap="round" stroke-linejoin="round" d="M -121.995 1199.409 Q -122.011 1199.592 -121.868 1200.408 Q -121.725 1201.223 -121.661 1201.682 Q -121.596 1202.140 -121.486 1202.363 Q -121.375 1202.586 -121.106 1202.697 Q -120.837 1202.807 -120.560 1202.724 Q -120.284 1202.640 -120.222 1202.607 "></path>
    <path id="STROKE_c7b6e72c-26e0-4203-9b4a-62d9a0fe29dc" opacity="1.000" fill="none" stroke="#000000" stroke-width="1.521" stroke-opacity="1.000" stroke-linecap="round" stroke-linejoin="round" d="M -116.148 1199.761 Q -116.130 1199.747 -116.305 1199.533 Q -116.479 1199.318 -117.100 1199.331 Q -117.720 1199.345 -118.406 1199.785 Q -119.092 1200.225 -119.487 1200.602 Q -119.883 1200.979 -120.052 1201.370 Q -120.221 1201.762 -120.175 1202.094 Q -120.129 1202.425 -119.629 1202.563 Q -119.130 1202.701 -118.625 1202.763 Q -118.120 1202.825 -116.873 1202.167 "></path>
    <path id="STROKE_019df1c1-e2f8-4b0c-9418-fecd418e2cd0" opacity="1.000" fill="none" stroke="#000000" stroke-width="1.624" stroke-opacity="1.000" stroke-linecap="round" stroke-linejoin="round" d="M -116.000 1196.228 Q -115.995 1196.205 -115.981 1196.141 L -115.973 1196.142 Q -115.988 1196.162 -115.825 1197.553 Q -115.662 1198.945 -115.700 1200.059 Q -115.739 1201.173 -115.763 1201.578 Q -115.786 1201.984 -115.730 1202.458 Q -115.673 1202.933 -115.403 1203.079 Q -115.133 1203.225 -114.852 1203.297 Q -114.571 1203.369 -113.932 1202.971 "></path>
    <path id="STROKE_20c1a0c0-2fde-4760-a117-332fab591612" opacity="1.000" fill="none" stroke="#000000" stroke-width="1.211" stroke-opacity="1.000" stroke-linecap="round" stroke-linejoin="round" d="M -111.567 1200.631 Q -111.517 1200.850 -111.439 1201.030 Q -111.361 1201.210 -111.154 1201.929 Q -110.947 1202.648 -110.967 1203.233 Q -110.988 1203.818 -110.992 1203.840 "></path>
    <path id="STROKE_fc1a4e5a-6c00-46fc-8525-c8033b9c5c38" opacity="1.000" fill="none" stroke="#000000" stroke-width="1.139" stroke-opacity="1.000" stroke-linecap="round" stroke-linejoin="round" d="M -109.497 1200.309 Q -109.351 1200.443 -108.585 1203.923 Q -108.568 1203.926 -108.560 1203.928 Q -108.494 1203.769 -108.454 1203.118 Q -108.415 1202.466 -108.290 1201.990 Q -108.166 1201.513 -107.840 1201.142 Q -107.515 1200.771 -107.048 1200.552 Q -106.580 1200.333 -106.363 1200.270 Q -106.147 1200.206 -105.929 1200.221 Q -105.711 1200.236 -105.610 1200.562 Q -105.509 1200.887 -105.494 1201.102 Q -105.480 1201.316 -105.507 1202.234 Q -105.535 1203.152 -105.502 1203.618 Q -105.469 1204.084 -105.454 1204.328 Q -105.439 1204.571 -105.236 1204.599 Q -105.034 1204.627 -105.000 1204.605 "></path>
    <path id="STROKE_83966266-08b8-4984-a9fd-3ddd991555aa" opacity="1.000" fill="none" stroke="#000000" stroke-width="1.197" stroke-opacity="1.000" stroke-linecap="round" stroke-linejoin="round" d="M -100.969 1201.030 Q -101.327 1201.138 -101.945 1201.652 Q -102.563 1202.166 -102.900 1202.655 Q -103.236 1203.145 -103.340 1203.462 Q -103.443 1203.779 -103.454 1204.015 Q -103.465 1204.251 -103.344 1204.426 Q -103.224 1204.600 -102.980 1204.732 Q -102.737 1204.863 -102.519 1204.893 Q -102.300 1204.924 -102.130 1204.975 Q -101.959 1205.026 -101.550 1204.875 Q -101.142 1204.723 -100.742 1204.302 Q -100.342 1203.880 -100.168 1203.320 Q -99.994 1202.760 -100.000 1202.371 Q -100.006 1201.982 -100.452 1201.737 Q -100.897 1201.492 -102.045 1201.345 "></path>
    <path id="STROKE_d028b499-fcce-4a24-a38c-dc5f6476b9d4" opacity="1.000" fill="none" stroke="#000000" stroke-width="1.217" stroke-opacity="1.000" stroke-linecap="round" stroke-linejoin="round" d="M -102.271 1205.336 Q -102.444 1205.465 -102.997 1206.020 Q -103.549 1206.576 -103.810 1207.243 Q -104.070 1207.911 -104.072 1208.328 Q -104.074 1208.744 -104.013 1208.911 Q -103.952 1209.079 -103.539 1209.423 Q -103.127 1209.768 -102.327 1209.642 Q -101.527 1209.516 -101.026 1209.395 Q -100.524 1209.275 -100.337 1209.192 Q -100.150 1209.108 -100.011 1208.852 Q -99.871 1208.595 -99.856 1208.478 Q -99.842 1208.360 -99.867 1208.023 Q -99.893 1207.687 -100.108 1206.962 Q -100.324 1206.237 -100.629 1205.611 Q -100.935 1204.986 -101.873 1204.425 "></path>
    <path id="STROKE_faf86226-afcb-4cc6-97d2-973d0963f517" opacity="1.000" fill="none" stroke="#000000" stroke-width="1.165" stroke-opacity="1.000" stroke-linecap="round" stroke-linejoin="round" d="M -95.060 1200.262 Q -95.025 1200.235 -94.961 1200.144 Q -94.897 1200.052 -94.901 1200.049 Q -94.904 1200.046 -94.898 1200.044 Q -94.892 1200.043 -94.837 1199.813 Q -94.784 1199.886 -94.937 1199.775 Q -95.090 1199.665 -95.777 1199.827 Q -96.465 1199.989 -96.901 1200.160 Q -97.338 1200.331 -97.557 1200.484 Q -97.775 1200.637 -97.827 1200.792 Q -97.880 1200.948 -97.894 1201.052 Q -97.909 1201.156 -97.860 1201.181 Q -97.811 1201.206 -97.839 1201.193 Q -97.868 1201.181 -97.767 1201.233 Q -97.666 1201.285 -97.389 1201.342 Q -97.112 1201.399 -96.960 1201.438 Q -96.808 1201.477 -96.561 1201.524 Q -96.314 1201.571 -95.888 1201.645 Q -95.461 1201.720 -95.228 1201.844 Q -94.995 1201.969 -94.890 1202.259 Q -94.786 1202.550 -94.784 1202.807 Q -94.783 1203.065 -94.974 1203.393 Q -95.164 1203.720 -95.692 1204.054 Q -96.220 1204.388 -97.127 1204.321 Q -98.034 1204.253 -98.157 1204.228 "></path>
    <path id="STROKE_96f0aae6-a070-448f-85a1-031812b53bd1" opacity="1.000" fill="none" stroke="#000000" stroke-width="0.873" stroke-opacity="1.000" stroke-linecap="round" stroke-linejoin="round" d="M -100.870 1200.609 Q -100.870 1200.449 -100.762 1200.268 Q -100.655 1200.087 -100.615 1200.050 "></path>
    <path id="STROKE_551ad40c-d884-4204-badb-1aeabea29847" opacity="1.000" fill="none" stroke="#000000" stroke-width="1.598" stroke-opacity="1.000" stroke-linecap="round" stroke-linejoin="round" d="M -112.678 1198.305 Q -112.750 1198.474 -112.756 1198.494 Q -112.762 1198.514 -112.777 1198.561 Q -112.785 1198.559 -112.821 1198.552 Q -112.820 1198.545 -112.818 1198.538 "></path>
    <path id="STROKE_7772935d-69ef-4c4e-967e-04bbada334e7" opacity="1.000" fill="none" stroke="#000000" stroke-width="0.944" stroke-opacity="1.000" stroke-linecap="round" stroke-linejoin="round" d="M -139.793 1238.618 Q -139.741 1238.657 -140.112 1238.496 Q -140.483 1238.335 -140.836 1238.254 Q -141.188 1238.173 -141.566 1238.320 Q -141.943 1238.467 -142.397 1238.712 Q -142.851 1238.958 -143.232 1239.226 Q -143.612 1239.494 -143.839 1239.944 Q -144.067 1240.393 -144.094 1240.657 Q -144.122 1240.921 -144.113 1241.203 Q -144.105 1241.484 -143.688 1241.748 Q -143.271 1242.012 -142.406 1242.129 Q -141.541 1242.246 -141.067 1242.319 Q -140.593 1242.392 -139.940 1242.243 Q -139.288 1242.094 -139.024 1241.741 Q -138.759 1241.389 -138.744 1241.344 "></path>
    <path id="STROKE_de7fbfe6-07af-440c-bc7e-8c5d81d2bbcb" opacity="1.000" fill="none" stroke="#000000" stroke-width="1.342" stroke-opacity="1.000" stroke-linecap="round" stroke-linejoin="round" d="M -139.213 1239.378 Q -139.197 1239.302 -139.191 1239.718 Q -139.184 1240.133 -139.239 1241.415 Q -139.295 1242.696 -139.180 1243.827 Q -139.066 1244.958 -139.094 1245.842 Q -139.123 1246.725 -139.038 1247.608 Q -139.023 1247.610 -138.993 1247.623 Q -138.964 1247.635 -138.955 1247.636 "></path>
    <path id="STROKE_5e924cb9-102b-4b68-af8b-5057b27ca75d" opacity="1.000" fill="none" stroke="#000000" stroke-width="1.485" stroke-opacity="1.000" stroke-linecap="round" stroke-linejoin="round" d="M -136.780 1239.682 Q -136.780 1239.681 -136.445 1240.614 Q -136.110 1241.546 -135.800 1242.057 Q -135.489 1242.568 -135.209 1242.776 Q -134.929 1242.984 -134.703 1242.980 Q -134.478 1242.977 -134.253 1242.881 Q -134.029 1242.786 -133.758 1242.263 Q -133.486 1241.740 -133.474 1241.069 Q -133.462 1240.397 -133.521 1239.964 Q -133.580 1239.531 -133.691 1239.204 Q -133.801 1238.878 -133.805 1238.845 "></path>
    <path id="STROKE_f2126c16-1e0c-41ab-a00d-30ef3544fcd3" opacity="1.000" fill="none" stroke="#000000" stroke-width="1.141" stroke-opacity="1.000" stroke-linecap="round" stroke-linejoin="round" d="M -131.006 1241.495 Q -131.075 1241.547 -130.606 1241.591 Q -130.138 1241.635 -129.754 1241.528 Q -129.371 1241.421 -129.225 1241.357 Q -129.079 1241.292 -128.844 1241.188 Q -128.610 1241.084 -128.447 1240.930 Q -128.284 1240.776 -128.163 1240.579 Q -128.041 1240.383 -128.225 1240.147 Q -128.408 1239.911 -128.739 1239.821 Q -129.070 1239.730 -129.556 1239.714 Q -130.042 1239.698 -130.410 1239.988 Q -130.778 1240.277 -130.886 1240.384 Q -130.994 1240.490 -131.175 1240.766 Q -131.357 1241.043 -131.449 1241.438 Q -131.541 1241.833 -131.371 1242.253 Q -131.201 1242.674 -130.667 1243.023 Q -130.133 1243.371 -129.577 1243.470 Q -129.022 1243.569 -128.580 1243.638 Q -128.139 1243.707 -126.774 1242.989 "></path>
    <path id="STROKE_073042b2-47af-47fa-9bc8-034269d52d94" opacity="1.000" fill="none" stroke="#000000" stroke-width="1.036" stroke-opacity="1.000" stroke-linecap="round" stroke-linejoin="round" d="M -125.163 1240.617 Q -124.807 1240.627 -124.150 1243.497 Q -124.288 1243.324 -124.476 1242.463 Q -124.664 1241.601 -124.602 1240.949 Q -124.540 1240.297 -124.464 1239.956 Q -124.389 1239.614 -124.019 1239.376 Q -123.649 1239.138 -123.306 1239.039 Q -122.963 1238.940 -122.585 1239.026 Q -122.208 1239.112 -121.858 1239.464 Q -121.507 1239.817 -120.922 1240.665 "></path>
    <path id="STROKE_efd8f3b1-8ede-4b4d-9bb7-0633ba8b0023" opacity="1.000" fill="none" stroke="#000000" stroke-width="1.446" stroke-opacity="1.000" stroke-linecap="round" stroke-linejoin="round" d="M -118.705 1240.809 Q -118.699 1241.040 -118.684 1241.026 Q -118.546 1241.396 -118.583 1241.303 Q -118.526 1241.447 -118.446 1242.157 Q -118.367 1242.867 -118.316 1243.272 Q -118.265 1243.676 -118.147 1243.928 Q -118.029 1244.180 -117.871 1244.226 Q -117.714 1244.271 -117.675 1244.277 "></path>
    <path id="STROKE_198bcb89-4a68-4a2b-a664-a0fac8425a47" opacity="1.000" fill="none" stroke="#000000" stroke-width="1.024" stroke-opacity="1.000" stroke-linecap="round" stroke-linejoin="round" d="M -119.133 1237.163 Q -119.124 1237.164 -119.009 1237.182 "></path>
    <path id="STROKE_c0b85d72-0691-4c20-bf25-ddd75b8926f1" opacity="1.000" fill="none" stroke="#000000" stroke-width="1.192" stroke-opacity="1.000" stroke-linecap="round" stroke-linejoin="round" d="M -114.999 1242.535 Q -114.707 1242.696 -113.784 1242.572 Q -112.861 1242.448 -112.357 1242.199 Q -111.853 1241.950 -111.636 1241.831 Q -111.420 1241.713 -111.361 1241.633 Q -111.301 1241.553 -111.195 1241.305 Q -111.089 1241.057 -111.196 1240.896 Q -111.303 1240.736 -111.542 1240.652 Q -111.782 1240.569 -112.053 1240.434 Q -112.323 1240.299 -112.988 1240.541 Q -113.653 1240.784 -114.141 1241.126 Q -114.629 1241.469 -114.880 1241.865 Q -115.130 1242.262 -115.188 1242.522 Q -115.247 1242.783 -115.037 1243.157 Q -114.828 1243.531 -114.045 1243.807 Q -113.262 1244.083 -112.483 1244.114 Q -111.704 1244.145 -110.975 1243.932 "></path>
    <path id="STROKE_0ae0ef0a-1eb3-4b09-8c96-67907f24ed94" opacity="1.000" fill="none" stroke="#000000" stroke-width="1.362" stroke-opacity="1.000" stroke-linecap="round" stroke-linejoin="round" d="M -103.862 1240.266 Q -103.791 1240.326 -104.163 1240.164 Q -104.534 1240.002 -105.261 1240.115 Q -105.989 1240.227 -106.750 1240.431 Q -107.512 1240.635 -107.982 1240.798 Q -108.453 1240.961 -108.657 1241.203 Q -108.861 1241.444 -108.775 1241.646 Q -108.689 1241.849 -108.449 1241.943 Q -108.209 1242.037 -107.869 1242.156 Q -107.529 1242.275 -106.764 1242.454 Q -105.998 1242.634 -105.485 1242.813 Q -104.971 1242.992 -104.750 1243.177 Q -104.528 1243.361 -104.514 1243.607 Q -104.500 1243.852 -104.584 1244.029 Q -104.668 1244.207 -104.721 1244.204 Q -104.774 1244.202 -105.136 1244.487 Q -105.497 1244.771 -106.719 1245.074 Q -107.941 1245.378 -107.973 1245.373 "></path>
    <path id="STROKE_a54522be-49df-47ec-805e-364cf936d646" opacity="1.000" fill="none" stroke="#79ca42" stroke-width="0.880" stroke-opacity="1.000" stroke-linecap="round" stroke-linejoin="round" d="M -67.648 1242.338 Q -67.618 1242.339 -67.580 1242.340 Q -67.565 1242.298 -66.719 1242.307 Q -65.873 1242.317 -65.068 1242.350 Q -64.264 1242.383 -63.803 1242.395 Q -63.342 1242.407 -62.899 1242.428 Q -62.456 1242.449 -61.188 1242.504 Q -59.920 1242.560 -58.316 1242.504 Q -56.711 1242.448 -55.584 1242.463 Q -54.456 1242.478 -53.605 1242.492 Q -52.753 1242.506 -52.023 1242.488 Q -51.292 1242.470 -49.945 1242.441 Q -48.598 1242.412 -47.233 1242.465 Q -45.868 1242.517 -44.884 1242.494 Q -43.899 1242.471 -43.254 1242.381 Q -42.610 1242.291 -41.977 1242.220 Q -41.343 1242.149 -40.738 1242.109 Q -40.133 1242.068 -39.533 1242.052 Q -38.932 1242.035 -38.303 1241.974 "></path>
    <path id="STROKE_e4a9a6a6-8ac0-4c64-a72b-739daca56eb8" opacity="1.000" fill="none" stroke="#79ca42" stroke-width="1.484" stroke-opacity="1.000" stroke-linecap="round" stroke-linejoin="round" d="M -68.427 1240.686 Q -68.482 1240.558 -68.473 1244.732 Q -68.473 1244.728 -68.472 1244.704 Q -68.472 1244.709 -68.473 1244.723 "></path>
    <path id="STROKE_3174ca7b-6298-4ddd-a444-45b0112f3c46" opacity="1.000" fill="none" stroke="#79ca42" stroke-width="1.122" stroke-opacity="1.000" stroke-linecap="round" stroke-linejoin="round" d="M -37.976 1240.252 Q -37.985 1240.312 -37.983 1241.099 Q -37.981 1241.886 -37.970 1242.484 Q -37.959 1243.082 -37.852 1243.699 Q -37.903 1243.741 -37.945 1243.799 "></path>
    <path id="STROKE_a485490e-ede9-4b2b-9d59-fcefa77b2221" opacity="1.000" fill="none" stroke="#79ca42" stroke-width="1.112" stroke-opacity="1.000" stroke-linecap="round" stroke-linejoin="round" d="M -68.686 1212.564 Q -68.684 1212.542 -68.689 1212.579 Q -68.694 1212.615 -68.678 1212.157 Q -68.663 1211.699 -68.663 1211.637 "></path>
    <path id="STROKE_082b50a5-98a7-4890-a072-11ddb4e0431d" opacity="1.000" fill="none" stroke="#79ca42" stroke-width="0.842" stroke-opacity="1.000" stroke-linecap="round" stroke-linejoin="round" d="M -68.601 1208.878 Q -68.669 1208.854 -68.471 1207.364 "></path>
    <path id="STROKE_48b9b881-137c-4c91-9d31-d92670e87a7f" opacity="1.000" fill="none" stroke="#79ca42" stroke-width="0.846" stroke-opacity="1.000" stroke-linecap="round" stroke-linejoin="round" d="M -68.377 1203.389 Q -68.373 1203.491 -68.383 1202.344 Q -68.392 1201.197 -68.400 1201.135 "></path>
    <path id="STROKE_6fcfa989-357a-4744-b1d3-b7b777128be4" opacity="1.000" fill="none" stroke="#79ca42" stroke-width="0.876" stroke-opacity="1.000" stroke-linecap="round" stroke-linejoin="round" d="M -68.230 1198.090 Q -68.207 1198.321 -68.187 1197.594 Q -68.167 1196.868 -68.167 1196.793 "></path>
    <path id="STROKE_fd11028a-cc2f-4206-b189-a248535104e2" opacity="1.000" fill="none" stroke="#79ca42" stroke-width="0.879" stroke-opacity="1.000" stroke-linecap="round" stroke-linejoin="round" d="M -68.098 1193.094 Q -68.012 1192.964 -68.007 1192.123 "></path>
    <path id="STROKE_623e13c0-4866-4df5-b343-da3d272a6817" opacity="1.000" fill="none" stroke="#79ca42" stroke-width="0.854" stroke-opacity="1.000" stroke-linecap="round" stroke-linejoin="round" d="M -67.556 1173.061 Q -67.561 1172.845 -67.546 1172.666 Q -67.530 1172.487 -67.517 1172.365 Q -67.504 1172.244 -67.503 1172.092 "></path>
    <path id="STROKE_3dd18a70-0ada-4f99-b811-dfebfc3cc56e" opacity="1.000" fill="none" stroke="#79ca42" stroke-width="0.850" stroke-opacity="1.000" stroke-linecap="round" stroke-linejoin="round" d="M -67.402 1169.908 Q -67.433 1170.031 -67.323 1168.924 "></path>
    <path id="STROKE_781a7939-52fc-4cca-bec6-3edd950bdac9" opacity="1.000" fill="none" stroke="#79ca42" stroke-width="1.037" stroke-opacity="1.000" stroke-linecap="round" stroke-linejoin="round" d="M -34.852 1213.674 Q -34.861 1213.677 -34.645 1210.506 "></path>
    <path id="STROKE_a4bbfe02-3b19-44ba-9382-3dc72818e812" opacity="1.000" fill="none" stroke="#79ca42" stroke-width="0.847" stroke-opacity="1.000" stroke-linecap="round" stroke-linejoin="round" d="M -34.791 1207.543 Q -34.792 1207.304 -34.796 1206.068 "></path>
    <path id="STROKE_cafe6959-8a51-4477-9dee-c4c4bb25007c" opacity="1.000" fill="none" stroke="#79ca42" stroke-width="0.843" stroke-opacity="1.000" stroke-linecap="round" stroke-linejoin="round" d="M -34.213 1201.110 Q -34.248 1200.910 -34.097 1199.950 "></path>
    <path id="STROKE_73017493-334c-4552-97b4-a64c77f5bc00" opacity="1.000" fill="none" stroke="#79ca42" stroke-width="0.846" stroke-opacity="1.000" stroke-linecap="round" stroke-linejoin="round" d="M -33.646 1195.646 Q -33.647 1195.374 -33.647 1195.380 Q -33.647 1195.394 -33.647 1195.208 Q -33.648 1195.022 -33.649 1194.785 Q -33.650 1194.547 -33.650 1194.513 "></path>
    <path id="STROKE_9a3943d2-a48c-4c80-b690-1fb7ced3927b" opacity="1.000" fill="none" stroke="#79ca42" stroke-width="0.845" stroke-opacity="1.000" stroke-linecap="round" stroke-linejoin="round" d="M -33.686 1191.757 Q -33.687 1191.476 -33.687 1191.531 Q -33.687 1191.419 -33.688 1191.325 Q -33.688 1191.230 -33.688 1191.169 "></path>
    <path id="STROKE_8aac3f2b-76bb-4dfc-9a63-ced4219fdcf5" opacity="1.000" fill="none" stroke="#79ca42" stroke-width="0.846" stroke-opacity="1.000" stroke-linecap="round" stroke-linejoin="round" d="M -32.513 1173.033 Q -32.513 1172.991 -32.431 1172.633 Q -32.350 1172.274 -32.335 1172.198 "></path>
    <path id="STROKE_6d69fe2d-c1f6-43f6-b6f5-566d7511f4f3" opacity="1.000" fill="none" stroke="#79ca42" stroke-width="0.851" stroke-opacity="1.000" stroke-linecap="round" stroke-linejoin="round" d="M -32.534 1170.262 Q -32.478 1170.056 -32.480 1170.055 Q -32.446 1169.989 -32.412 1169.511 "></path>
    <circle id="STROKE_35cea0e9-d708-414f-91ac-f34c76b2a5f4" opacity="1.000" fill="#79ca42" stroke="#79ca42" stroke-width="0.1" stroke-opacity="1.000" fill-opacity="1.000" cx="-32.625" cy="1167.845" r="0.424"></circle>
    <path id="STROKE_b46ab2cb-9f5e-41a6-99ab-1ef1beae8e5f" opacity="1.000" fill="none" stroke="#5a6edc" stroke-width="0.872" stroke-opacity="1.000" stroke-linecap="round" stroke-linejoin="round" d="M -96.001 1277.609 Q -96.013 1277.609 -96.092 1277.643 Q -96.092 1277.650 -96.092 1277.664 Q -96.146 1277.776 -93.835 1277.638 Q -91.524 1277.499 -90.281 1277.378 Q -89.037 1277.257 -88.312 1277.210 Q -87.587 1277.163 -85.752 1277.189 Q -83.918 1277.215 -81.830 1277.211 Q -79.742 1277.206 -78.721 1277.188 Q -77.699 1277.171 -77.212 1277.177 Q -76.725 1277.184 -76.447 1277.190 Q -76.169 1277.195 -75.547 1277.209 Q -74.926 1277.223 -74.641 1277.229 Q -74.356 1277.235 -73.168 1277.261 Q -71.979 1277.288 -71.334 1277.301 Q -70.689 1277.313 -70.153 1277.309 Q -69.618 1277.306 -69.288 1277.279 Q -68.959 1277.252 -67.439 1277.251 Q -65.920 1277.251 -62.503 1277.373 Q -59.085 1277.494 -57.101 1277.493 Q -55.118 1277.491 -54.160 1277.485 Q -53.202 1277.479 -52.867 1277.479 Q -52.532 1277.479 -51.587 1277.472 Q -50.641 1277.464 -47.575 1277.409 Q -44.509 1277.353 -42.968 1277.338 Q -41.427 1277.323 -40.746 1277.318 Q -40.064 1277.313 -39.100 1277.306 Q -38.135 1277.299 -36.497 1277.321 Q -34.858 1277.343 -33.179 1277.384 Q -31.500 1277.426 -29.862 1277.472 Q -28.224 1277.518 -27.250 1277.538 Q -26.277 1277.557 -24.636 1277.610 Q -22.996 1277.663 -20.982 1277.604 Q -18.969 1277.545 -16.945 1277.462 Q -14.921 1277.380 -13.883 1277.326 Q -12.845 1277.273 -12.352 1277.277 Q -11.859 1277.281 -11.522 1277.279 Q -11.185 1277.277 -10.963 1277.306 Q -10.741 1277.334 -6.969 1277.234 Q -6.969 1277.228 -6.969 1277.222 Q -7.005 1277.215 -7.048 1277.210 Q -7.091 1277.206 -7.141 1277.197 "></path>
    <path id="STROKE_1d41b48f-9523-4cad-b738-4f083466817a" opacity="1.000" fill="none" stroke="#5a6edc" stroke-width="0.865" stroke-opacity="1.000" stroke-linecap="round" stroke-linejoin="round" d="M -96.214 1294.909 Q -96.196 1294.876 -94.897 1294.817 Q -93.599 1294.757 -91.854 1294.585 Q -90.109 1294.412 -89.079 1294.352 Q -88.050 1294.291 -86.677 1294.233 Q -85.304 1294.175 -83.082 1294.156 Q -80.860 1294.137 -79.684 1294.108 Q -78.508 1294.079 -77.984 1294.072 Q -77.460 1294.065 -76.498 1294.024 Q -75.536 1293.983 -73.260 1293.914 Q -70.984 1293.845 -69.770 1293.865 Q -68.557 1293.884 -66.857 1293.923 Q -65.157 1293.962 -64.177 1293.987 Q -63.196 1294.011 -62.584 1294.011 Q -61.971 1294.011 -57.998 1294.135 Q -54.026 1294.260 -51.614 1294.346 Q -49.203 1294.432 -47.822 1294.484 Q -46.441 1294.535 -45.334 1294.571 Q -44.228 1294.607 -41.138 1294.678 Q -38.048 1294.749 -36.355 1294.765 Q -34.661 1294.782 -33.364 1294.855 Q -32.066 1294.929 -31.172 1295.067 Q -30.277 1295.205 -28.880 1295.305 Q -27.483 1295.405 -25.996 1295.356 Q -24.508 1295.308 -22.551 1295.240 Q -20.593 1295.173 -19.654 1295.155 Q -18.714 1295.138 -17.675 1295.133 Q -16.635 1295.129 -16.160 1295.075 Q -15.684 1295.021 -15.247 1295.008 Q -14.809 1294.995 -14.275 1295.016 Q -13.740 1295.036 -13.312 1295.058 Q -12.883 1295.081 -12.038 1294.979 Q -11.193 1294.878 -9.928 1294.838 Q -8.664 1294.798 -7.812 1294.828 Q -6.960 1294.858 -6.599 1294.883 Q -6.237 1294.909 -5.836 1294.976 Q -5.435 1295.042 -5.051 1295.077 Q -5.051 1295.070 -5.050 1295.038 "></path>
    <path id="STROKE_02e7a0b3-d816-4043-a6e7-3129221798a1" opacity="1.000" fill="none" stroke="#5a6edc" stroke-width="1.049" stroke-opacity="1.000" stroke-linecap="round" stroke-linejoin="round" d="M -6.717 1277.296 Q -6.587 1277.014 -6.694 1275.396 Q -6.801 1273.777 -6.920 1272.780 Q -7.039 1271.783 -7.025 1271.037 Q -7.011 1270.291 -7.037 1269.814 Q -7.063 1269.336 -6.744 1266.554 "></path>
    <path id="STROKE_4efded0e-069a-4c2a-bb6a-357fbceafb1b" opacity="1.000" fill="none" stroke="#5a6edc" stroke-width="1.213" stroke-opacity="1.000" stroke-linecap="round" stroke-linejoin="round" d="M -5.225 1295.450 Q -5.217 1295.449 -5.188 1295.833 Q -5.159 1296.216 -5.127 1297.066 Q -5.095 1297.915 -4.999 1299.145 Q -4.904 1300.375 -4.870 1301.694 Q -4.837 1303.013 -4.890 1303.615 Q -4.943 1304.215 -4.949 1304.235 "></path>
    <path id="STROKE_038edae7-e599-4c3f-b2d0-84e958e2897e" opacity="1.000" fill="none" stroke="#5a6edc" stroke-width="0.885" stroke-opacity="1.000" stroke-linecap="round" stroke-linejoin="round" d="M 15.448 1284.278 Q 15.349 1284.394 14.385 1285.331 Q 13.421 1286.269 12.848 1286.823 Q 12.275 1287.377 11.382 1288.328 Q 10.488 1289.279 9.856 1289.877 Q 9.224 1290.475 8.789 1290.908 Q 8.354 1291.340 7.908 1291.890 Q 7.463 1292.439 6.890 1293.032 Q 6.317 1293.626 5.713 1294.372 Q 5.109 1295.117 4.621 1295.640 Q 4.133 1296.162 3.802 1296.444 Q 3.470 1296.726 3.127 1297.132 Q 2.783 1297.537 2.531 1297.861 Q 2.279 1298.184 2.091 1298.424 Q 1.904 1298.664 1.795 1298.809 Q 1.685 1298.955 1.241 1299.356 Q 0.796 1299.757 0.312 1300.266 Q -0.171 1300.776 -0.438 1301.054 Q -0.705 1301.332 -0.907 1301.556 Q -1.109 1301.779 -1.486 1302.082 Q -1.864 1302.384 -2.061 1302.576 Q -2.258 1302.767 -2.381 1302.860 Q -2.504 1302.953 -2.598 1303.044 Q -2.692 1303.135 -2.696 1303.133 Q -2.699 1303.131 -2.690 1303.129 Q -2.681 1303.127 -2.718 1303.146 Q -2.756 1303.163 -3.069 1303.385 Q -3.381 1303.606 -3.524 1303.749 Q -3.667 1303.891 -3.817 1304.051 Q -3.966 1304.209 -4.821 1305.027 Q -4.823 1304.703 -4.828 1304.772 Q -4.828 1304.721 -4.829 1304.612 "></path>
    <path id="STROKE_4ce1657a-9702-4212-a6a5-9c5c1b4eb8cc" opacity="1.000" fill="none" stroke="#5a6edc" stroke-width="1.128" stroke-opacity="1.000" stroke-linecap="round" stroke-linejoin="round" d="M 15.517 1284.004 Q 15.526 1284.038 15.481 1283.901 Q 15.482 1283.956 15.541 1283.990 Q 15.561 1283.744 15.107 1283.528 Q 14.654 1283.312 13.804 1282.791 Q 12.954 1282.270 11.817 1281.207 Q 10.681 1280.143 9.781 1279.337 Q 8.882 1278.531 8.421 1278.210 Q 7.960 1277.890 7.692 1277.666 Q 7.424 1277.442 7.122 1277.104 Q 6.820 1276.767 5.891 1276.177 Q 4.962 1275.587 4.267 1275.101 Q 3.572 1274.615 2.840 1274.011 Q 2.107 1273.408 1.519 1272.886 Q 0.931 1272.365 0.491 1272.048 Q 0.052 1271.731 -0.343 1271.568 Q -0.737 1271.406 -0.986 1271.255 Q -1.235 1271.103 -1.380 1271.014 Q -1.524 1270.925 -1.814 1270.705 Q -2.104 1270.486 -2.874 1269.987 Q -3.643 1269.489 -4.295 1269.085 Q -4.947 1268.681 -5.306 1268.383 Q -5.664 1268.084 -5.815 1267.952 Q -5.966 1267.821 -6.045 1267.718 Q -6.124 1267.615 -6.202 1267.534 Q -6.280 1267.453 -6.343 1267.359 Q -6.406 1267.265 -6.500 1267.157 Q -6.595 1267.049 -6.636 1267.018 Q -6.678 1266.987 -6.773 1266.920 Q -6.868 1266.853 -6.825 1266.883 Q -6.782 1266.914 -6.967 1266.789 "></path>
    <path id="STROKE_47476da6-51e6-43f6-8a83-da5cf26367fe" opacity="1.000" fill="none" stroke="#000000" stroke-width="1.388" stroke-opacity="1.000" stroke-linecap="round" stroke-linejoin="round" d="M -147.026 1281.390 Q -147.013 1281.226 -147.090 1284.650 Q -147.166 1288.074 -147.072 1290.369 Q -146.977 1292.664 -146.967 1292.665 "></path>
    <path id="STROKE_78dc1795-319d-43ac-989f-4f7ff04a3855" opacity="1.000" fill="none" stroke="#000000" stroke-width="0.913" stroke-opacity="1.000" stroke-linecap="round" stroke-linejoin="round" d="M -148.207 1281.372 Q -147.899 1281.295 -148.020 1281.352 Q -148.140 1281.410 -147.265 1281.206 Q -146.389 1281.002 -145.764 1280.877 Q -145.139 1280.752 -144.720 1280.772 Q -144.300 1280.792 -143.824 1281.053 Q -143.347 1281.314 -142.824 1281.940 Q -142.301 1282.566 -142.156 1283.639 Q -142.010 1284.711 -142.031 1285.252 Q -142.052 1285.793 -142.149 1286.212 Q -142.245 1286.630 -142.484 1287.085 Q -142.722 1287.541 -143.089 1287.779 Q -143.457 1288.018 -143.764 1288.173 Q -144.072 1288.327 -146.444 1288.363 "></path>
    <path id="STROKE_4f49c4d0-8470-443c-a17e-be517c2f210c" opacity="1.000" fill="none" stroke="#000000" stroke-width="1.846" stroke-opacity="1.000" stroke-linecap="round" stroke-linejoin="round" d="M -146.327 1288.251 Q -145.972 1288.257 -145.983 1288.257 Q -145.553 1288.205 -144.343 1289.813 Q -143.133 1291.422 -141.194 1293.174 "></path>
    <path id="STROKE_a205dbf2-d60f-4068-bdb2-b613a400879b" opacity="1.000" fill="none" stroke="#000000" stroke-width="1.427" stroke-opacity="1.000" stroke-linecap="round" stroke-linejoin="round" d="M -138.474 1286.328 Q -138.460 1286.293 -138.722 1288.248 Q -138.984 1290.203 -139.013 1291.250 Q -139.043 1292.297 -139.086 1292.902 Q -139.129 1293.508 -138.894 1293.775 Q -138.659 1294.042 -138.305 1293.994 Q -137.950 1293.946 -137.740 1293.690 Q -137.529 1293.434 -137.335 1293.149 Q -137.140 1292.864 -136.946 1292.495 "></path>
    <path id="STROKE_c14eacd1-3821-45f8-9fc6-172080d15e04" opacity="1.000" fill="none" stroke="#000000" stroke-width="1.158" stroke-opacity="1.000" stroke-linecap="round" stroke-linejoin="round" d="M -139.642 1290.220 Q -139.571 1289.998 -137.860 1289.526 Q -136.148 1289.054 -136.111 1289.034 "></path>
    <path id="STROKE_7ff01f56-4c9f-45e2-ae72-e9dc9e02b57c" opacity="1.000" fill="none" stroke="#000000" stroke-width="1.664" stroke-opacity="1.000" stroke-linecap="round" stroke-linejoin="round" d="M -139.347 1286.087 Q -139.249 1285.987 -138.295 1285.907 Q -137.341 1285.827 -136.546 1285.730 Q -135.752 1285.632 -135.094 1285.026 "></path>
    <path id="STROKE_5c395bda-6af9-4d38-b71f-8a9e13fedc5f" opacity="1.000" fill="none" stroke="#000000" stroke-width="1.258" stroke-opacity="1.000" stroke-linecap="round" stroke-linejoin="round" d="M -130.665 1284.863 Q -130.809 1284.672 -131.662 1285.457 Q -132.515 1286.242 -133.121 1286.880 Q -133.728 1287.517 -134.069 1287.891 Q -134.409 1288.265 -134.758 1289.132 Q -134.597 1289.200 -133.693 1289.049 Q -132.790 1288.898 -132.211 1288.908 Q -131.632 1288.918 -131.277 1288.935 Q -130.923 1288.951 -130.501 1289.312 Q -130.079 1289.674 -129.896 1290.237 Q -129.713 1290.800 -129.804 1291.414 Q -129.895 1292.027 -130.109 1292.351 Q -130.323 1292.675 -130.657 1293.099 Q -130.992 1293.522 -131.497 1293.854 Q -132.002 1294.186 -132.392 1294.282 Q -132.781 1294.378 -133.261 1294.457 Q -133.740 1294.536 -134.313 1294.328 Q -134.887 1294.120 -135.139 1293.729 Q -135.391 1293.338 -135.465 1293.185 "></path>
    <path id="STROKE_2691c8bd-c3e6-4ac2-9c00-35f44c496c45" opacity="1.000" fill="none" stroke="#000000" stroke-width="1.188" stroke-opacity="1.000" stroke-linecap="round" stroke-linejoin="round" d="M -128.293 1287.019 Q -128.255 1287.344 -128.261 1289.083 Q -128.266 1290.822 -128.295 1291.769 Q -128.324 1292.715 -128.274 1293.112 Q -128.224 1293.510 -128.004 1293.690 Q -127.785 1293.871 -127.264 1293.974 Q -126.743 1294.077 -125.971 1293.742 Q -125.199 1293.407 -124.593 1292.954 Q -123.988 1292.501 -123.634 1291.406 Q -123.279 1290.310 -123.248 1290.129 "></path>
    <path id="STROKE_7392db40-c702-4594-a9a1-35be4e3ce4d9" opacity="1.000" fill="none" stroke="#000000" stroke-width="1.214" stroke-opacity="1.000" stroke-linecap="round" stroke-linejoin="round" d="M -123.786 1286.838 Q -123.804 1286.776 -123.572 1291.400 "></path>
    <path id="STROKE_bad6bb82-e6a5-4ae8-a68d-4ada5e579d16" opacity="1.000" fill="none" stroke="#000000" stroke-width="1.430" stroke-opacity="1.000" stroke-linecap="round" stroke-linejoin="round" d="M -120.654 1286.677 Q -120.618 1286.843 -120.716 1287.916 Q -120.815 1288.989 -120.849 1290.291 Q -120.883 1291.593 -120.918 1292.308 Q -120.953 1293.024 -120.883 1293.309 Q -120.813 1293.594 -120.746 1293.674 Q -120.679 1293.755 -120.601 1293.807 Q -120.522 1293.859 -120.381 1293.865 Q -120.240 1293.872 -120.054 1293.859 Q -119.867 1293.846 -119.916 1293.858 Q -119.965 1293.870 -117.082 1292.779 "></path>
    <path id="STROKE_3699f603-6469-4379-b0b6-70f99ec42b30" opacity="1.000" fill="none" stroke="#000000" stroke-width="1.272" stroke-opacity="1.000" stroke-linecap="round" stroke-linejoin="round" d="M -114.072 1286.854 Q -114.105 1287.077 -114.089 1287.719 Q -114.073 1288.361 -114.013 1289.746 Q -113.953 1291.131 -114.061 1292.205 Q -114.170 1293.279 -114.757 1295.239 "></path>
    <path id="STROKE_229f9a3d-d312-4484-bd31-e4f4bf185126" opacity="1.000" fill="none" stroke="#000000" stroke-width="1.875" stroke-opacity="1.000" stroke-linecap="round" stroke-linejoin="round" d="M -117.232 1287.474 Q -117.144 1287.419 -115.804 1286.825 Q -114.463 1286.230 -112.759 1285.826 "></path>
    <path id="STROKE_eed77643-3cf1-4d5a-9593-1bb6a0dd904c" opacity="1.000" fill="none" stroke="#000000" stroke-width="1.201" stroke-opacity="1.000" stroke-linecap="round" stroke-linejoin="round" d="M -106.010 1284.971 Q -106.287 1285.146 -106.280 1285.130 Q -106.433 1285.264 -106.647 1285.347 Q -106.860 1285.431 -107.518 1285.544 Q -108.175 1285.658 -108.745 1286.085 Q -109.315 1286.512 -109.574 1286.794 Q -109.834 1287.075 -109.947 1287.671 Q -109.728 1287.746 -108.793 1287.691 Q -107.858 1287.637 -107.255 1287.852 Q -106.651 1288.066 -106.172 1288.523 Q -105.693 1288.981 -105.443 1289.432 Q -105.192 1289.884 -105.194 1289.861 Q -105.195 1289.839 -105.119 1290.260 Q -105.043 1290.681 -105.036 1291.028 Q -105.028 1291.374 -105.239 1291.815 Q -105.449 1292.255 -105.693 1292.464 Q -105.936 1292.673 -106.173 1292.926 Q -106.410 1293.180 -107.205 1293.314 Q -108.000 1293.448 -108.407 1293.486 Q -108.814 1293.524 -109.527 1293.227 Q -110.241 1292.930 -110.577 1292.639 Q -110.914 1292.349 -110.952 1292.301 "></path>
    <path id="STROKE_9f47bafd-d1b8-4d00-8a44-1e500353ec4a" opacity="1.000" fill="none" stroke="#79ca42" stroke-width="0.971" stroke-opacity="1.000" stroke-linecap="round" stroke-linejoin="round" d="M -71.510 1282.572 Q -71.356 1282.580 -71.379 1282.579 Q -71.295 1282.529 -69.799 1282.513 Q -68.303 1282.498 -67.511 1282.519 Q -66.718 1282.541 -66.339 1282.538 Q -65.960 1282.535 -65.795 1282.534 Q -65.630 1282.534 -64.357 1282.522 Q -63.085 1282.510 -62.311 1282.525 Q -61.538 1282.540 -59.737 1282.563 Q -57.936 1282.585 -56.675 1282.560 Q -55.413 1282.535 -54.863 1282.514 Q -54.314 1282.493 -53.085 1282.436 Q -51.857 1282.379 -50.973 1282.357 Q -50.090 1282.335 -49.135 1282.289 Q -48.179 1282.243 -47.176 1282.187 Q -46.173 1282.131 -45.468 1282.090 Q -44.762 1282.050 -43.946 1282.034 Q -43.129 1282.018 -41.883 1281.917 Q -41.882 1281.910 -41.882 1281.906 Q -42.028 1281.888 -42.025 1281.889 Q -42.022 1281.890 -42.015 1281.891 Q -42.166 1281.882 -42.147 1281.883 Q -42.128 1281.883 -42.156 1281.884 Q -42.184 1281.885 -42.208 1281.888 "></path>
    <path id="STROKE_cc081ddb-aab8-4162-bdec-c0d60dba4406" opacity="1.000" fill="none" stroke="#79ca42" stroke-width="0.845" stroke-opacity="1.000" stroke-linecap="round" stroke-linejoin="round" d="M -71.212 1286.130 Q -71.220 1286.090 -70.157 1286.047 Q -69.093 1286.005 -68.460 1285.962 Q -67.827 1285.918 -67.336 1285.944 Q -66.846 1285.969 -65.958 1285.957 Q -65.070 1285.944 -64.332 1285.903 Q -63.594 1285.862 -63.015 1285.827 Q -62.435 1285.793 -61.062 1285.704 Q -59.689 1285.615 -58.973 1285.581 Q -58.256 1285.547 -57.899 1285.540 Q -57.541 1285.533 -57.293 1285.531 Q -57.046 1285.528 -54.402 1285.516 Q -51.759 1285.503 -50.364 1285.467 Q -48.970 1285.430 -48.365 1285.447 Q -47.761 1285.465 -47.473 1285.478 Q -47.184 1285.491 -46.749 1285.492 Q -46.314 1285.492 -45.837 1285.471 Q -45.359 1285.450 -44.562 1285.405 Q -43.764 1285.359 -43.234 1285.338 Q -42.704 1285.316 -42.469 1285.293 Q -42.234 1285.271 -42.012 1285.218 Q -41.790 1285.164 -41.347 1285.174 Q -41.513 1285.165 -41.477 1285.167 Q -41.527 1285.164 -41.552 1285.163 "></path>
    <path id="STROKE_029e0cae-6d9b-440c-98f1-daea517a013e" opacity="1.000" fill="none" stroke="#79ca42" stroke-width="1.284" stroke-opacity="1.000" stroke-linecap="round" stroke-linejoin="round" d="M -42.220 1279.993 Q -42.220 1279.989 -42.217 1279.936 Q -42.243 1279.837 -42.212 1280.189 Q -42.181 1280.542 -42.159 1280.710 Q -42.137 1280.879 -42.107 1281.033 Q -42.077 1281.187 -42.043 1281.288 Q -42.009 1281.389 -42.000 1281.387 Q -41.991 1281.386 -42.008 1281.382 Q -42.025 1281.379 -41.936 1281.401 "></path>
    <path id="STROKE_e1c38643-f11d-49c0-aa00-ffc9bae23636" opacity="1.000" fill="none" stroke="#79ca42" stroke-width="1.182" stroke-opacity="1.000" stroke-linecap="round" stroke-linejoin="round" d="M -41.630 1285.405 Q -41.652 1285.356 -41.599 1285.616 Q -41.545 1285.876 -41.499 1286.182 Q -41.453 1286.487 -41.494 1286.908 Q -41.487 1286.913 -41.417 1286.925 "></path>
    <path id="STROKE_c7b82d4b-6dea-470d-bf98-df6de4cf89a6" opacity="1.000" fill="none" stroke="#79ca42" stroke-width="0.874" stroke-opacity="1.000" stroke-linecap="round" stroke-linejoin="round" d="M -41.393 1287.106 Q -41.293 1287.018 -40.929 1286.603 Q -40.565 1286.188 -40.218 1285.872 Q -39.872 1285.556 -39.735 1285.458 Q -39.598 1285.359 -39.119 1284.786 "></path>
    <path id="STROKE_9d172e6a-e800-4569-8a13-4f68a715b4b7" opacity="1.000" fill="none" stroke="#79ca42" stroke-width="0.975" stroke-opacity="1.000" stroke-linecap="round" stroke-linejoin="round" d="M -39.524 1281.255 Q -39.556 1281.204 -40.027 1280.940 Q -40.498 1280.676 -40.745 1280.529 Q -40.992 1280.381 -41.299 1280.224 Q -41.606 1280.067 -41.895 1279.905 Q -41.895 1279.900 -41.894 1279.895 Q -41.899 1279.895 -41.907 1279.895 Q -41.916 1279.894 -41.928 1279.893 "></path>
    <path id="STROKE_e80b1c09-a2e7-4a46-9dec-63868772555b" opacity="1.000" fill="none" stroke="#79ca42" stroke-width="1.061" stroke-opacity="1.000" stroke-linecap="round" stroke-linejoin="round" d="M -39.337 1281.716 Q -39.358 1281.649 -39.331 1281.880 Q -39.303 1282.110 -39.274 1282.770 Q -39.245 1283.430 -39.260 1283.822 Q -39.275 1284.214 -39.329 1284.804 Q -39.338 1284.807 -39.366 1284.806 Q -39.395 1284.804 -39.399 1284.804 "></path>
    <path id="STROKE_85089a6f-3292-4dfd-928c-263600d096f2" opacity="1.000" fill="none" stroke="#79ca42" stroke-width="1.195" stroke-opacity="1.000" stroke-linecap="round" stroke-linejoin="round" d="M -71.824 1283.202 Q -71.825 1283.224 -71.816 1283.055 Q -71.821 1283.054 -71.847 1283.041 Q -71.838 1282.874 -71.841 1282.926 Q -71.839 1282.902 -71.834 1282.808 Q -71.865 1282.977 -71.861 1282.962 Q -71.861 1282.775 -72.042 1286.174 Q -72.024 1286.307 -72.032 1286.278 Q -72.033 1286.298 -72.036 1286.348 "></path>
  </g>
</svg>