<?xml version="1.0" encoding="UTF-8" standalone="yes"?>
<svg xmlns="http://www.w3.org/2000/svg" xmlns:xlink="http://www.w3.org/1999/xlink" width="218.436pt" height="141.455pt" version="1.1" viewBox="-117.531 941.228 218.436 141.455">
  <!--
	Exported with Concepts: Smarter Sketching
	Version: 973 on iOS 14.5
	https://concepts.app/
	-->
  <title>Untitled 16</title>
  <desc>Drawing exported from Concepts: Smarter Sketching</desc>
  <defs></defs>
  <rect x="-117.531" y="941.228" width="218.436" height="141.455" stroke="none" fill="white"></rect>
  <g id="Pen" opacity="1.000">
    <path id="STROKE_d4caf513-9799-41a0-86e1-faba45f6f72a" opacity="1.000" fill="none" stroke="#5a6edc" stroke-width="1.279" stroke-opacity="1.000" stroke-linecap="round" stroke-linejoin="round" d="M -109.156 958.808 Q -108.877 959.013 -105.144 959.202 Q -101.410 959.391 -98.862 959.504 Q -96.315 959.618 -95.066 959.728 Q -93.818 959.837 -92.589 959.942 Q -91.360 960.047 -87.920 960.230 Q -84.480 960.414 -81.296 960.464 Q -78.112 960.515 -75.982 960.574 Q -73.851 960.633 -68.922 960.691 Q -63.993 960.749 -60.308 960.707 Q -56.624 960.666 -53.740 960.687 Q -50.857 960.708 -48.055 960.688 Q -45.254 960.668 -43.404 960.636 Q -41.554 960.604 -39.702 960.542 Q -37.850 960.480 -35.906 960.424 Q -33.961 960.369 -32.968 960.377 Q -31.975 960.386 -30.147 960.434 Q -28.319 960.483 -26.442 960.525 L -26.442 960.504 Q -26.490 960.459 -26.696 960.461 Q -26.903 960.464 -26.914 960.464 "></path>
    <path id="STROKE_84cfb018-8c16-49cf-8a53-2e28dc2b3974" opacity="1.000" fill="none" stroke="#5a6edc" stroke-width="1.279" stroke-opacity="1.000" stroke-linecap="round" stroke-linejoin="round" d="M -109.497 974.374 Q -109.205 974.175 -105.391 974.119 Q -101.577 974.062 -98.975 974.039 Q -96.373 974.015 -95.096 973.949 Q -93.819 973.883 -92.562 973.821 Q -91.306 973.759 -87.791 973.697 Q -84.277 973.634 -81.028 973.699 Q -77.780 973.764 -75.605 973.781 Q -73.430 973.798 -68.402 973.919 Q -63.374 974.039 -59.618 974.215 Q -55.863 974.391 -52.922 974.475 Q -49.981 974.558 -47.125 974.681 Q -44.269 974.803 -42.383 974.903 Q -40.498 975.003 -38.612 975.134 Q -36.726 975.264 -34.745 975.392 Q -32.765 975.520 -31.752 975.547 Q -30.739 975.574 -28.873 975.591 Q -27.007 975.608 -25.092 975.634 L -25.092 975.656 Q -25.143 975.699 -25.354 975.689 Q -25.564 975.679 -25.575 975.679 "></path>
    <path id="STROKE_83a53665-a5e4-4bf1-9d55-6b7b5081e921" opacity="1.000" fill="none" stroke="#5a6edc" stroke-width="2.462" stroke-opacity="1.000" stroke-linecap="round" stroke-linejoin="round" d="M -26.181 959.761 Q -26.191 959.596 -26.222 959.687 Q -26.254 959.778 -26.237 957.765 Q -26.219 955.751 -26.074 952.541 "></path>
    <path id="STROKE_d36974a2-1e8d-46ca-b362-cd6cc5d2294e" opacity="1.000" fill="none" stroke="#5a6edc" stroke-width="1.645" stroke-opacity="1.000" stroke-linecap="round" stroke-linejoin="round" d="M -25.714 975.853 Q -25.731 975.593 -25.527 975.199 L -25.516 975.199 Q -25.523 975.558 -25.522 975.549 Q -25.699 976.083 -25.263 982.315 Q -25.303 982.193 -25.356 982.129 Q -25.316 982.251 -25.289 982.283 Q -25.263 982.315 -25.233 982.328 "></path>
    <path id="STROKE_a6fe571b-f024-41cf-8630-c67d6f466e33" opacity="1.000" fill="none" stroke="#5a6edc" stroke-width="1.496" stroke-opacity="1.000" stroke-linecap="round" stroke-linejoin="round" d="M -24.888 983.541 Q -24.810 983.578 -23.939 982.858 Q -23.068 982.138 -21.461 981.079 Q -19.854 980.019 -17.569 978.158 Q -15.284 976.298 -14.160 975.238 Q -13.037 974.178 -12.350 973.592 Q -11.663 973.005 -10.180 971.764 Q -8.696 970.522 -7.660 969.709 Q -6.624 968.895 -5.558 967.870 Q -4.492 966.846 -3.858 966.292 Q -3.223 965.738 -3.032 965.166 L -3.082 965.165 L -3.032 965.166 Q -3.082 965.165 -3.133 965.164 "></path>
    <path id="STROKE_cbf9c96a-fa9d-4656-a3a3-3391bcdb1a62" opacity="1.000" fill="none" stroke="#5a6edc" stroke-width="1.327" stroke-opacity="1.000" stroke-linecap="round" stroke-linejoin="round" d="M -26.708 951.444 Q -26.630 951.466 -26.037 951.773 Q -25.444 952.080 -24.464 952.701 Q -23.484 953.322 -22.413 953.956 Q -21.341 954.590 -19.449 955.573 Q -17.557 956.557 -15.831 957.649 Q -14.104 958.740 -12.801 959.369 Q -11.498 959.998 -10.074 960.729 Q -8.650 961.459 -7.602 962.182 Q -6.555 962.904 -6.037 963.221 Q -5.519 963.538 -4.519 963.908 Q -3.520 964.277 -2.979 964.567 Q -2.438 964.856 -2.024 965.208 "></path>
    <path id="STROKE_f4c3e923-dd9e-44b0-a167-691bd171b3b5" opacity="1.000" fill="none" stroke="#000000" stroke-width="1.679" stroke-opacity="1.000" stroke-linecap="round" stroke-linejoin="round" d="M -56.877 966.787 Q -56.877 966.766 -56.884 966.583 Q -57.051 966.500 -57.010 966.517 Q -57.268 966.478 -57.208 966.494 Q -57.505 966.546 -57.451 966.607 Q -57.540 966.671 -57.698 967.087 Q -57.856 967.503 -57.842 967.718 Q -57.829 967.932 -57.834 968.082 Q -57.840 968.231 -57.620 968.316 Q -57.400 968.401 -57.173 968.329 Q -56.945 968.257 -56.819 968.135 Q -56.693 968.013 -56.580 967.988 Q -56.467 967.962 -56.049 966.836 Q -55.981 966.835 -56.433 966.808 Q -56.884 966.781 -57.045 968.048 Q -57.059 968.128 -56.715 968.080 Q -56.372 968.033 -56.208 967.703 Q -56.044 967.374 -56.051 967.174 Q -56.058 966.974 -56.155 966.830 Q -56.252 966.686 -56.445 966.662 Q -56.638 966.638 -56.848 966.690 Q -57.057 966.743 -57.194 967.395 "></path>
    <path id="STROKE_25d87fa5-1cee-40a9-baeb-5a94ecb34a6a" opacity="1.000" fill="none" stroke="#000000" stroke-width="1.539" stroke-opacity="1.000" stroke-linecap="round" stroke-linejoin="round" d="M -57.080 966.017 Q -57.031 965.987 -57.159 965.971 Q -57.287 965.955 -57.304 965.960 Q -57.320 965.964 -57.408 966.000 Q -57.495 966.035 -57.536 966.099 Q -57.578 966.162 -57.694 966.320 Q -57.809 966.478 -57.885 966.682 Q -57.961 966.885 -58.026 967.050 Q -58.091 967.215 -58.142 967.551 Q -58.193 967.888 -58.168 968.137 Q -58.143 968.386 -57.988 968.540 Q -57.834 968.695 -57.513 968.802 Q -57.193 968.909 -56.909 968.827 Q -56.625 968.744 -56.300 968.526 Q -55.974 968.307 -55.811 967.893 Q -55.647 967.479 -55.652 967.137 Q -55.657 966.794 -55.752 966.525 Q -55.847 966.256 -56.090 966.039 Q -56.333 965.823 -56.558 965.720 Q -56.784 965.617 -56.975 965.590 Q -57.166 965.563 -57.350 965.565 Q -57.535 965.567 -57.770 965.805 Q -58.005 966.044 -58.099 966.287 Q -58.194 966.530 -58.250 966.889 Q -58.305 967.248 -58.155 967.562 Q -58.005 967.876 -57.739 968.110 Q -57.473 968.344 -57.153 968.398 Q -56.833 968.452 -56.680 968.453 Q -56.527 968.454 -56.362 968.266 Q -56.197 968.079 -56.247 967.537 Q -56.246 967.592 -56.244 967.646 Q -56.247 967.537 -56.249 967.483 "></path>
    <path id="STROKE_c776cafc-0a12-47a5-97fe-02e8a8910b6f" opacity="1.000" fill="none" stroke="#000000" stroke-width="1.046" stroke-opacity="1.000" stroke-linecap="round" stroke-linejoin="round" d="M -56.675 966.418 Q -56.624 966.292 -55.816 964.326 Q -55.007 962.361 -54.406 961.112 Q -53.806 959.864 -53.491 959.267 Q -53.176 958.671 -52.851 958.048 Q -52.526 957.426 -52.355 957.105 Q -52.185 956.784 -51.901 956.227 Q -51.617 955.669 -51.266 954.957 Q -50.914 954.245 -50.547 953.603 Q -50.180 952.960 -50.100 952.809 "></path>
    <path id="STROKE_0492c10e-b708-49d7-bc8d-fdfc087052ce" opacity="1.000" fill="none" stroke="#000000" stroke-width="1.561" stroke-opacity="1.000" stroke-linecap="round" stroke-linejoin="round" d="M -48.000 946.353 Q -48.017 946.483 -48.183 947.361 Q -48.348 948.239 -48.401 948.827 Q -48.454 949.415 -48.452 949.751 Q -48.449 950.087 -48.365 950.272 Q -48.281 950.458 -48.176 950.515 Q -48.071 950.572 -48.049 950.563 Q -48.027 950.554 -47.999 950.576 Q -47.970 950.599 -47.690 950.533 Q -47.409 950.468 -47.176 950.125 Q -46.942 949.782 -46.918 949.737 "></path>
    <path id="STROKE_a065f2aa-aa02-4baa-9a61-02074404e4a2" opacity="1.000" fill="none" stroke="#000000" stroke-width="1.883" stroke-opacity="1.000" stroke-linecap="round" stroke-linejoin="round" d="M -49.227 947.943 Q -49.214 947.790 -48.750 947.748 Q -48.285 947.706 -47.953 947.718 Q -47.621 947.730 -47.276 947.475 "></path>
    <path id="STROKE_a21876fb-4671-4178-9daa-ad86004ec06d" opacity="1.000" fill="none" stroke="#000000" stroke-width="1.590" stroke-opacity="1.000" stroke-linecap="round" stroke-linejoin="round" d="M -44.910 947.938 Q -44.946 947.894 -44.872 947.510 Q -44.908 947.461 -44.916 948.160 Q -44.923 948.859 -44.967 949.459 Q -45.012 950.059 -45.011 950.104 "></path>
    <circle id="STROKE_ed84cfec-feff-4bfe-b298-3029e194e757" opacity="1.000" fill="#000000" stroke="#000000" stroke-width="0.1" stroke-opacity="1.000" fill-opacity="1.000" cx="-45.080" cy="945.343" r="0.420"></circle>
    <path id="STROKE_0181a544-59f6-4ec6-bef4-c2d6a41e6115" opacity="1.000" fill="none" stroke="#000000" stroke-width="1.284" stroke-opacity="1.000" stroke-linecap="round" stroke-linejoin="round" d="M -43.412 947.589 Q -43.316 947.620 -43.236 949.698 Q -43.230 949.626 -43.256 949.283 Q -43.282 948.940 -43.223 948.636 Q -43.163 948.332 -42.882 947.812 Q -42.602 947.292 -42.260 946.864 Q -42.326 946.727 -42.086 947.175 Q -41.845 947.623 -41.778 948.023 Q -41.712 948.424 -41.690 948.665 Q -41.669 948.905 -41.630 949.090 Q -41.541 949.135 -41.469 948.566 Q -41.396 947.998 -41.328 947.612 Q -41.260 947.225 -41.103 946.952 Q -40.946 946.679 -40.814 946.494 Q -40.681 946.310 -40.408 946.303 Q -40.202 946.450 -40.013 948.889 Q -40.008 948.864 -40.004 948.839 "></path>
    <path id="STROKE_b5fa2004-3b30-4634-b8e4-6f9ab87a94f7" opacity="1.000" fill="none" stroke="#000000" stroke-width="1.323" stroke-opacity="1.000" stroke-linecap="round" stroke-linejoin="round" d="M -38.548 947.629 Q -38.439 947.748 -38.101 947.504 Q -37.763 947.260 -37.627 947.048 Q -37.492 946.836 -37.395 946.693 Q -37.298 946.551 -37.298 945.953 Q -37.340 945.918 -37.479 945.901 Q -37.618 945.884 -37.775 945.921 Q -37.932 945.959 -38.072 946.093 Q -38.213 946.226 -38.430 946.502 Q -38.646 946.778 -38.747 947.211 Q -38.847 947.643 -38.863 947.978 Q -38.878 948.314 -38.835 948.464 Q -38.793 948.615 -38.733 948.689 Q -38.673 948.764 -38.613 948.812 Q -38.554 948.860 -38.446 948.907 Q -38.338 948.954 -38.135 948.997 Q -37.932 949.041 -37.653 948.955 Q -37.375 948.870 -37.212 948.753 Q -37.050 948.635 -36.923 948.552 Q -36.795 948.468 -36.569 948.157 Q -36.343 947.847 -36.320 947.797 "></path>
    <path id="STROKE_780f7242-90f4-4587-964c-84591ebd4719" opacity="1.000" fill="none" stroke="#000000" stroke-width="1.016" stroke-opacity="1.000" stroke-linecap="round" stroke-linejoin="round" d="M -45.364 945.450 Q -45.359 945.449 -45.335 945.439 "></path>
    <path id="STROKE_47fd04f8-1e12-4f9d-932d-e54a0a177151" opacity="1.000" fill="none" stroke="#000000" stroke-width="1.276" stroke-opacity="1.000" stroke-linecap="round" stroke-linejoin="round" d="M -45.109 945.412 Q -45.030 945.221 -45.050 945.276 Q -45.069 945.331 -45.024 945.193 Q -44.971 945.162 -45.097 945.223 Q -45.224 945.283 -45.347 945.676 Q -45.353 945.657 -45.274 945.680 Q -45.194 945.704 -45.059 945.630 Q -44.924 945.555 -44.916 945.179 Q -45.108 945.151 -45.065 945.163 Q -45.189 945.165 -45.189 945.365 Q -45.224 945.406 -44.981 945.270 "></path>
    <path id="STROKE_f73e20b1-0c09-4561-b16e-0ac1a4c5023e" opacity="1.000" fill="none" stroke="#5a6edc" stroke-width="1.279" stroke-opacity="1.000" stroke-linecap="round" stroke-linejoin="round" d="M -78.895 1002.867 Q -78.626 1002.691 -75.148 1002.695 Q -71.669 1002.698 -69.297 1002.715 Q -66.924 1002.731 -65.759 1002.690 Q -64.593 1002.648 -63.447 1002.610 Q -62.300 1002.571 -59.095 1002.566 Q -55.890 1002.560 -52.929 1002.666 Q -49.968 1002.773 -47.985 1002.820 Q -46.003 1002.867 -41.420 1003.050 Q -36.838 1003.233 -33.416 1003.448 Q -29.995 1003.663 -27.314 1003.782 Q -24.634 1003.901 -22.032 1004.054 Q -19.430 1004.207 -17.712 1004.326 Q -15.995 1004.445 -14.277 1004.591 Q -12.559 1004.738 -10.755 1004.883 Q -8.952 1005.028 -8.028 1005.068 Q -7.105 1005.108 -5.404 1005.150 Q -3.703 1005.193 -1.957 1005.244 L -1.958 1005.264 Q -2.005 1005.303 -2.197 1005.291 Q -2.388 1005.279 -2.399 1005.278 "></path>
    <path id="STROKE_c25abd0e-8adc-4bcf-bc49-899f3a22eb28" opacity="1.000" fill="none" stroke="#5a6edc" stroke-width="1.279" stroke-opacity="1.000" stroke-linecap="round" stroke-linejoin="round" d="M -78.464 988.388 Q -78.202 988.587 -74.661 988.823 Q -71.120 989.058 -68.704 989.205 Q -66.287 989.352 -65.104 989.474 Q -63.920 989.597 -62.755 989.715 Q -61.591 989.833 -58.328 990.060 Q -55.066 990.286 -52.044 990.382 Q -49.023 990.478 -47.001 990.566 Q -44.980 990.655 -40.302 990.784 Q -35.624 990.914 -32.126 990.931 Q -28.628 990.947 -25.892 991.011 Q -23.155 991.074 -20.495 991.098 Q -17.836 991.121 -16.079 991.119 Q -14.323 991.116 -12.564 991.086 Q -10.805 991.055 -8.959 991.031 Q -7.112 991.008 -6.170 991.031 Q -5.227 991.054 -3.492 991.128 Q -1.758 991.202 0.023 991.270 L 0.023 991.250 Q -0.022 991.207 -0.218 991.206 Q -0.414 991.205 -0.424 991.205 "></path>
    <path id="STROKE_87ebe770-52ce-40c0-8912-4110cf9e9bc2" opacity="1.000" fill="none" stroke="#5a6edc" stroke-width="2.462" stroke-opacity="1.000" stroke-linecap="round" stroke-linejoin="round" d="M -1.751 1005.966 Q -1.768 1006.120 -1.794 1006.033 Q -1.819 1005.947 -1.899 1007.818 Q -1.980 1009.690 -1.999 1012.680 "></path>
    <path id="STROKE_a9dbdb25-1aaa-4cbf-b1c2-4f05aee813a2" opacity="1.000" fill="none" stroke="#5a6edc" stroke-width="1.645" stroke-opacity="1.000" stroke-linecap="round" stroke-linejoin="round" d="M -0.545 991.037 Q -0.573 991.277 -0.403 991.653 L -0.393 991.653 Q -0.381 991.320 -0.382 991.328 Q -0.520 990.824 0.184 985.054 Q 0.141 985.166 0.089 985.222 Q 0.132 985.110 0.158 985.082 Q 0.184 985.054 0.213 985.044 "></path>
    <path id="STROKE_a8fc7710-a566-42fa-ae0a-2588ef95a188" opacity="1.000" fill="none" stroke="#5a6edc" stroke-width="1.496" stroke-opacity="1.000" stroke-linecap="round" stroke-linejoin="round" d="M 0.591 983.932 Q 0.666 983.902 1.441 984.613 Q 2.215 985.324 3.658 986.385 Q 5.100 987.447 7.134 989.286 Q 9.168 991.124 10.161 992.163 Q 11.154 993.201 11.764 993.780 Q 12.374 994.358 13.693 995.582 Q 15.012 996.807 15.935 997.612 Q 16.859 998.418 17.800 999.421 Q 18.741 1000.425 19.304 1000.970 Q 19.867 1001.515 20.018 1002.055 L 19.970 1002.054 L 20.018 1002.055 Q 19.970 1002.054 19.923 1002.052 "></path>
    <path id="STROKE_fa7d78fb-bd9f-4c3e-8a67-064acece86d0" opacity="1.000" fill="none" stroke="#5a6edc" stroke-width="1.327" stroke-opacity="1.000" stroke-linecap="round" stroke-linejoin="round" d="M -2.640 1013.669 Q -2.567 1013.652 -2.001 1013.395 Q -1.436 1013.138 -0.495 1012.608 Q 0.445 1012.079 1.471 1011.541 Q 2.497 1011.004 4.303 1010.181 Q 6.108 1009.358 7.764 1008.426 Q 9.421 1007.494 10.662 1006.973 Q 11.903 1006.451 13.261 1005.841 Q 14.619 1005.230 15.627 1004.609 Q 16.635 1003.988 17.132 1003.718 Q 17.628 1003.449 18.575 1003.153 Q 19.521 1002.858 20.038 1002.615 Q 20.555 1002.372 20.955 1002.065 "></path>
    <path id="STROKE_ef3850db-2cff-4578-88f2-35e37434bd1f" opacity="1.000" fill="none" stroke="#000000" stroke-width="1.679" stroke-opacity="1.000" stroke-linecap="round" stroke-linejoin="round" d="M -31.026 997.780 Q -31.027 997.808 -31.043 998.043 Q -31.262 998.145 -31.208 998.124 Q -31.543 998.165 -31.465 998.146 Q -31.846 998.068 -31.775 997.991 Q -31.887 997.905 -32.075 997.362 Q -32.264 996.819 -32.238 996.542 Q -32.212 996.265 -32.214 996.072 Q -32.216 995.880 -31.928 995.778 Q -31.641 995.677 -31.350 995.778 Q -31.059 995.879 -30.901 996.041 Q -30.743 996.204 -30.597 996.241 Q -30.452 996.278 -29.956 997.749 Q -29.868 997.753 -30.452 997.770 Q -31.036 997.788 -31.196 996.145 Q -31.211 996.042 -30.769 996.116 Q -30.327 996.191 -30.128 996.622 Q -29.928 997.053 -29.945 997.312 Q -29.961 997.570 -30.092 997.753 Q -30.223 997.935 -30.473 997.959 Q -30.723 997.982 -30.992 997.906 Q -31.261 997.830 -31.413 996.984 "></path>
    <path id="STROKE_10edaad7-f150-4ec5-afee-895d9ff0ad6c" opacity="1.000" fill="none" stroke="#000000" stroke-width="1.539" stroke-opacity="1.000" stroke-linecap="round" stroke-linejoin="round" d="M -31.317 998.767 Q -31.256 998.807 -31.422 998.823 Q -31.588 998.839 -31.609 998.833 Q -31.630 998.826 -31.741 998.777 Q -31.853 998.727 -31.904 998.644 Q -31.955 998.561 -32.099 998.353 Q -32.242 998.145 -32.332 997.878 Q -32.422 997.612 -32.500 997.397 Q -32.578 997.182 -32.632 996.745 Q -32.685 996.309 -32.642 995.988 Q -32.600 995.667 -32.395 995.474 Q -32.190 995.281 -31.772 995.154 Q -31.354 995.028 -30.990 995.145 Q -30.627 995.262 -30.215 995.557 Q -29.803 995.852 -29.608 996.392 Q -29.412 996.933 -29.432 997.375 Q -29.451 997.817 -29.583 998.161 Q -29.716 998.506 -30.038 998.776 Q -30.360 999.047 -30.655 999.171 Q -30.951 999.295 -31.198 999.323 Q -31.446 999.350 -31.684 999.340 Q -31.922 999.331 -32.217 999.014 Q -32.511 998.698 -32.624 998.380 Q -32.737 998.062 -32.795 997.596 Q -32.853 997.130 -32.647 996.730 Q -32.441 996.331 -32.089 996.039 Q -31.737 995.747 -31.322 995.689 Q -30.907 995.632 -30.709 995.636 Q -30.511 995.641 -30.305 995.889 Q -30.099 996.138 -30.185 996.835 Q -30.181 996.765 -30.177 996.695 Q -30.185 996.835 -30.189 996.905 "></path>
    <path id="STROKE_f2125b07-15c0-4176-a308-b829c89ddec9" opacity="1.000" fill="none" stroke="#000000" stroke-width="1.046" stroke-opacity="1.000" stroke-linecap="round" stroke-linejoin="round" d="M -30.780 998.264 Q -30.719 998.429 -29.749 1000.998 Q -28.779 1003.567 -28.051 1005.202 Q -27.323 1006.837 -26.939 1007.620 Q -26.555 1008.402 -26.159 1009.218 Q -25.763 1010.034 -25.554 1010.455 Q -25.346 1010.876 -25.001 1011.607 Q -24.656 1012.337 -24.229 1013.270 Q -23.802 1014.203 -23.353 1015.047 Q -22.903 1015.891 -22.805 1016.089 "></path>
    <path id="STROKE_00ebf597-1fbb-454c-b9a4-3d13df65209a" opacity="1.000" fill="none" stroke="#000000" stroke-width="1.561" stroke-opacity="1.000" stroke-linecap="round" stroke-linejoin="round" d="M -16.855 1016.710 Q -16.893 1016.849 -17.206 1017.785 Q -17.519 1018.722 -17.665 1019.358 Q -17.811 1019.994 -17.859 1020.362 Q -17.906 1020.731 -17.841 1020.946 Q -17.777 1021.162 -17.671 1021.240 Q -17.565 1021.318 -17.539 1021.312 Q -17.514 1021.305 -17.486 1021.334 Q -17.458 1021.363 -17.141 1021.333 Q -16.825 1021.303 -16.517 1020.963 Q -16.210 1020.623 -16.177 1020.577 "></path>
    <path id="STROKE_71d06cae-62b2-47b3-b8aa-4b7b4ba89455" opacity="1.000" fill="none" stroke="#000000" stroke-width="1.883" stroke-opacity="1.000" stroke-linecap="round" stroke-linejoin="round" d="M -18.437 1018.266 Q -18.400 1018.101 -17.885 1018.125 Q -17.370 1018.148 -17.008 1018.211 Q -16.647 1018.274 -16.231 1018.046 "></path>
    <path id="STROKE_34067bd6-4321-445c-91bd-f2e6723d3a50" opacity="1.000" fill="none" stroke="#000000" stroke-width="1.590" stroke-opacity="1.000" stroke-linecap="round" stroke-linejoin="round" d="M -13.709 1018.908 Q -13.741 1018.854 -13.604 1018.444 Q -13.636 1018.386 -13.748 1019.150 Q -13.861 1019.914 -14.000 1020.564 Q -14.138 1021.215 -14.143 1021.264 "></path>
    <circle id="STROKE_15a24a5d-ad97-4514-ac1c-0960274e30ca" opacity="1.000" fill="#000000" stroke="#000000" stroke-width="0.1" stroke-opacity="1.000" fill-opacity="1.000" cx="-13.507" cy="1016.040" r="0.420"></circle>
    <path id="STROKE_38e9d524-4017-4cfe-8315-8a78e9928e80" opacity="1.000" fill="none" stroke="#000000" stroke-width="1.284" stroke-opacity="1.000" stroke-linecap="round" stroke-linejoin="round" d="M -12.016 1018.750 Q -11.916 1018.798 -12.139 1021.085 Q -12.122 1021.008 -12.099 1020.628 Q -12.076 1020.248 -11.966 1019.924 Q -11.855 1019.600 -11.470 1019.073 Q -11.085 1018.546 -10.646 1018.128 Q -10.698 1017.969 -10.502 1018.495 Q -10.306 1019.021 -10.293 1019.470 Q -10.279 1019.918 -10.292 1020.185 Q -10.304 1020.452 -10.290 1020.660 Q -10.199 1020.722 -10.035 1020.111 Q -9.870 1019.500 -9.738 1019.086 Q -9.605 1018.673 -9.393 1018.398 Q -9.180 1018.122 -9.007 1017.940 Q -8.835 1017.757 -8.535 1017.792 Q -8.330 1017.983 -8.489 1020.682 Q -8.480 1020.655 -8.471 1020.629 "></path>
    <path id="STROKE_5b7d7acc-230f-43d0-b8a5-4dea01ecc406" opacity="1.000" fill="none" stroke="#000000" stroke-width="1.323" stroke-opacity="1.000" stroke-linecap="round" stroke-linejoin="round" d="M -6.696 1019.522 Q -6.595 1019.668 -6.188 1019.452 Q -5.781 1019.236 -5.601 1019.023 Q -5.421 1018.811 -5.293 1018.670 Q -5.166 1018.529 -5.076 1017.874 Q -5.117 1017.829 -5.267 1017.789 Q -5.417 1017.750 -5.594 1017.767 Q -5.772 1017.785 -5.945 1017.910 Q -6.119 1018.036 -6.398 1018.306 Q -6.677 1018.575 -6.851 1019.034 Q -7.026 1019.492 -7.093 1019.857 Q -7.160 1020.222 -7.136 1020.393 Q -7.112 1020.565 -7.057 1020.655 Q -7.003 1020.746 -6.945 1020.807 Q -6.887 1020.869 -6.776 1020.937 Q -6.665 1021.004 -6.449 1021.082 Q -6.233 1021.160 -5.915 1021.108 Q -5.597 1021.056 -5.402 1020.952 Q -5.206 1020.848 -5.055 1020.775 Q -4.903 1020.703 -4.609 1020.396 Q -4.315 1020.090 -4.282 1020.039 "></path>
    <path id="STROKE_30e7d9a2-e789-4770-8f2f-6d0212c14f8b" opacity="1.000" fill="none" stroke="#000000" stroke-width="1.016" stroke-opacity="1.000" stroke-linecap="round" stroke-linejoin="round" d="M -13.834 1016.115 Q -13.828 1016.115 -13.800 1016.108 "></path>
    <path id="STROKE_5388ff4f-b1c3-48fa-b7f3-f7cf38443214" opacity="1.000" fill="none" stroke="#000000" stroke-width="1.276" stroke-opacity="1.000" stroke-linecap="round" stroke-linejoin="round" d="M -13.548 1016.112 Q -13.434 1015.914 -13.463 1015.972 Q -13.492 1016.029 -13.423 1015.884 Q -13.360 1015.859 -13.508 1015.906 Q -13.655 1015.953 -13.849 1016.365 Q -13.853 1016.343 -13.769 1016.381 Q -13.686 1016.419 -13.526 1016.357 Q -13.367 1016.296 -13.302 1015.886 Q -13.509 1015.826 -13.463 1015.846 Q -13.599 1015.829 -13.629 1016.048 Q -13.673 1016.087 -13.388 1015.975 "></path>
    <path id="STROKE_a1967a81-f803-413c-bfa3-234280c339de" opacity="1.000" fill="none" stroke="#000000" stroke-width="1.493" stroke-opacity="1.000" stroke-linecap="round" stroke-linejoin="round" d="M -59.397 979.846 Q -59.396 979.821 -59.376 979.377 Q -59.531 979.454 -59.669 982.766 Q -59.806 986.077 -59.808 986.113 "></path>
    <path id="STROKE_d056af3e-1f6a-485e-af8d-788bebb7a4a5" opacity="1.000" fill="none" stroke="#000000" stroke-width="1.343" stroke-opacity="1.000" stroke-linecap="round" stroke-linejoin="round" d="M -30.194 979.403 Q -30.178 979.350 -30.201 979.686 Q -30.225 980.021 -30.223 980.593 Q -30.221 981.164 -30.205 981.769 Q -30.189 982.373 -30.240 987.337 "></path>
    <path id="STROKE_f6b8d906-7ca2-49e8-aed7-a46e54c880e2" opacity="1.000" fill="none" stroke="#000000" stroke-width="1.315" stroke-opacity="1.000" stroke-linecap="round" stroke-linejoin="round" d="M -50.674 978.969 Q -50.726 979.118 -50.662 980.959 Q -50.598 982.799 -50.694 984.681 "></path>
    <path id="STROKE_e5352048-f4b2-4844-a13c-4a739a20f412" opacity="1.000" fill="none" stroke="#000000" stroke-width="1.021" stroke-opacity="1.000" stroke-linecap="round" stroke-linejoin="round" d="M -50.699 982.770 Q -50.716 982.691 -50.499 982.346 Q -50.281 982.001 -50.116 981.812 Q -49.951 981.622 -49.794 981.511 Q -49.637 981.401 -49.427 981.339 Q -49.218 981.278 -48.791 981.257 Q -48.364 981.235 -48.187 981.735 Q -48.010 982.235 -47.989 982.773 Q -47.969 983.310 -47.946 983.827 Q -47.924 984.344 -47.936 984.638 Q -47.948 984.932 -47.944 985.244 Q -47.806 985.250 -47.825 985.249 "></path>
    <path id="STROKE_17719750-1660-4c05-bd71-ba2e25f7d5b3" opacity="1.000" fill="none" stroke="#000000" stroke-width="1.140" stroke-opacity="1.000" stroke-linecap="round" stroke-linejoin="round" d="M -45.914 981.816 Q -46.016 981.871 -46.264 982.422 Q -46.511 982.974 -46.584 983.402 Q -46.657 983.830 -46.625 984.097 Q -46.593 984.365 -46.544 984.519 Q -46.494 984.672 -46.275 984.875 Q -46.056 985.077 -45.864 985.170 Q -45.671 985.263 -45.303 985.307 Q -44.934 985.350 -44.589 985.260 Q -44.245 985.169 -44.000 984.823 Q -43.755 984.476 -43.692 983.921 Q -43.629 983.366 -43.621 983.034 Q -43.613 982.702 -43.711 982.419 Q -43.809 982.135 -43.963 981.922 Q -44.117 981.710 -44.269 981.591 Q -44.420 981.471 -44.534 981.426 Q -44.648 981.380 -44.985 981.320 Q -45.322 981.259 -46.038 981.758 "></path>
    <path id="STROKE_80cc0fb0-92bf-458d-8069-5e03cd3ee01c" opacity="1.000" fill="none" stroke="#000000" stroke-width="1.293" stroke-opacity="1.000" stroke-linecap="round" stroke-linejoin="round" d="M -42.548 982.210 Q -42.509 982.188 -42.590 982.737 Q -42.671 983.287 -42.627 983.824 Q -42.582 984.361 -42.413 984.743 Q -42.245 985.124 -42.072 985.332 Q -41.898 985.540 -41.652 985.591 Q -41.406 985.642 -41.210 985.560 Q -41.014 985.478 -40.913 985.369 Q -40.813 985.260 -40.816 985.251 Q -40.820 985.242 -40.733 985.136 Q -40.646 985.030 -40.404 984.718 Q -40.163 984.405 -40.215 983.100 Q -40.268 981.795 -40.272 981.769 "></path>
    <path id="STROKE_ad320e0b-0b0d-46a0-8d27-667b0da0c390" opacity="1.000" fill="none" stroke="#000000" stroke-width="1.414" stroke-opacity="1.000" stroke-linecap="round" stroke-linejoin="round" d="M -38.945 982.038 Q -38.908 982.001 -38.631 985.802 L -38.627 985.802 "></path>
    <path id="STROKE_903e821d-8c27-4de1-8e34-27fd0c2cf235" opacity="1.000" fill="none" stroke="#000000" stroke-width="1.302" stroke-opacity="1.000" stroke-linecap="round" stroke-linejoin="round" d="M -38.900 983.586 Q -38.919 983.613 -38.863 983.205 Q -38.806 982.798 -38.649 982.522 Q -38.491 982.245 -38.298 982.141 Q -38.104 982.038 -37.989 982.051 Q -37.874 982.065 -37.044 981.826 Q -36.214 981.587 -36.188 981.578 "></path>
    <path id="STROKE_9025385b-04a2-4ae0-9dad-f5ce14c3dc6b" opacity="1.000" fill="none" stroke="#000000" stroke-width="1.080" stroke-opacity="1.000" stroke-linecap="round" stroke-linejoin="round" d="M -30.731 983.013 Q -30.737 983.012 -30.883 983.056 Q -31.028 983.100 -31.194 983.089 Q -31.359 983.078 -31.435 983.075 Q -31.511 983.073 -31.568 983.071 Q -31.625 983.069 -31.608 983.062 Q -31.592 983.056 -31.681 983.089 Q -31.771 983.123 -31.924 983.158 Q -32.077 983.193 -32.087 983.192 "></path>
    <path id="STROKE_29284752-b6c3-4e7c-8087-83254d917f01" opacity="1.000" fill="none" stroke="#000000" stroke-width="1.136" stroke-opacity="1.000" stroke-linecap="round" stroke-linejoin="round" d="M -59.092 982.554 Q -58.928 982.508 -58.486 982.520 Q -58.044 982.531 -57.768 982.552 Q -57.492 982.573 -57.382 982.482 Q -57.272 982.390 -57.243 982.355 "></path>
    <path id="STROKE_69e1892a-1da9-4b74-909b-5696b46fc03e" opacity="1.000" fill="none" stroke="#000000" stroke-width="1.872" stroke-opacity="1.000" stroke-linecap="round" stroke-linejoin="round" d="M 51.397 967.145 Q 51.356 967.417 51.252 969.767 Q 51.149 972.118 51.154 972.143 "></path>
    <path id="STROKE_cbe85316-cdfc-4c24-824c-abd63dbe2e6b" opacity="1.000" fill="none" stroke="#000000" stroke-width="0.949" stroke-opacity="1.000" stroke-linecap="round" stroke-linejoin="round" d="M 51.025 962.416 Q 51.024 962.432 51.019 962.508 Q 51.014 962.585 51.011 962.619 "></path>
    <path id="STROKE_908bedbf-eafa-4446-a553-af9c761ec0f9" opacity="1.000" fill="none" stroke="#000000" stroke-width="1.374" stroke-opacity="1.000" stroke-linecap="round" stroke-linejoin="round" d="M 50.846 961.480 Q 50.858 961.517 50.668 961.465 Q 50.478 961.412 50.365 961.436 Q 50.252 961.460 49.998 962.414 Q 50.271 962.420 50.232 962.447 Q 50.194 962.475 50.465 962.232 Q 50.736 961.989 50.855 961.556 Q 50.804 961.479 50.576 961.559 Q 50.348 961.639 50.230 961.984 Q 50.112 962.330 50.120 962.357 "></path>
    <path id="STROKE_7d5b614e-639e-4f08-82d8-772625df1eb4" opacity="1.000" fill="none" stroke="#000000" stroke-width="1.274" stroke-opacity="1.000" stroke-linecap="round" stroke-linejoin="round" d="M 54.210 967.346 Q 54.034 967.463 54.718 971.880 Q 54.765 971.577 54.775 971.074 Q 54.784 970.570 54.842 970.077 Q 54.900 969.583 55.145 969.016 Q 55.390 968.449 55.712 968.011 Q 56.034 967.573 56.323 967.364 Q 56.613 967.155 56.936 967.103 Q 57.259 967.052 57.351 967.078 Q 57.442 967.104 57.448 967.129 Q 57.453 967.154 57.854 967.332 Q 58.254 967.509 58.643 967.774 Q 59.031 968.039 59.188 968.794 Q 59.346 969.550 59.461 970.102 Q 59.577 970.654 59.511 971.067 Q 59.445 971.479 58.909 972.175 Q 58.916 972.175 58.963 972.142 "></path>
    <path id="STROKE_f8b3a728-005c-49b5-bb83-b5da8d0887ea" opacity="1.000" fill="none" stroke="#000000" stroke-width="1.330" stroke-opacity="1.000" stroke-linecap="round" stroke-linejoin="round" d="M 66.704 967.653 Q 66.783 967.515 65.896 967.206 Q 65.010 966.897 63.966 967.195 Q 62.922 967.494 62.364 967.795 Q 61.806 968.095 61.491 968.383 Q 61.176 968.671 61.089 968.897 Q 61.003 969.123 61.058 969.204 Q 61.114 969.285 61.644 969.337 Q 62.175 969.390 62.518 969.429 Q 62.861 969.468 63.032 969.497 Q 63.204 969.526 63.471 969.606 Q 63.738 969.686 64.152 969.911 Q 64.565 970.135 64.918 970.439 Q 65.271 970.742 65.493 971.160 Q 65.716 971.577 65.739 972.037 Q 65.762 972.498 65.602 972.966 Q 65.442 973.434 65.033 973.835 Q 64.624 974.237 64.170 974.314 Q 63.716 974.391 63.251 974.022 Q 62.785 973.653 62.651 973.258 Q 62.517 972.862 62.513 972.819 "></path>
    <path id="STROKE_a56ba838-1661-4368-8537-92eb2b595d77" opacity="1.000" fill="none" stroke="#000000" stroke-width="1.462" stroke-opacity="1.000" stroke-linecap="round" stroke-linejoin="round" d="M 67.535 971.148 Q 67.566 971.173 68.194 971.211 Q 68.822 971.248 69.302 971.154 Q 69.782 971.060 70.294 970.622 Q 70.805 970.183 71.045 969.960 Q 71.285 969.736 71.390 969.398 Q 71.494 969.059 71.502 968.939 Q 71.510 968.819 71.393 968.673 Q 71.277 968.526 71.076 968.493 Q 70.876 968.460 70.780 968.444 Q 70.683 968.429 70.338 968.407 Q 69.993 968.386 69.476 968.681 Q 68.960 968.976 68.565 969.289 Q 68.170 969.601 67.950 970.163 Q 67.729 970.725 67.712 971.131 Q 67.694 971.537 67.909 971.975 Q 68.124 972.414 68.320 972.615 Q 68.515 972.816 68.850 972.978 Q 69.185 973.141 69.625 973.199 Q 70.064 973.256 70.389 973.313 Q 70.714 973.369 71.546 973.216 Q 72.377 973.063 73.184 972.475 Q 73.991 971.888 74.115 971.784 "></path>
    <path id="STROKE_5abbcfc4-c6e5-4efa-a6f7-8ab9419dfdff" opacity="1.000" fill="none" stroke="#000000" stroke-width="1.221" stroke-opacity="1.000" stroke-linecap="round" stroke-linejoin="round" d="M 74.572 969.281 Q 74.579 969.314 74.830 970.110 Q 75.081 970.907 75.220 971.407 Q 75.358 971.908 75.537 972.140 Q 75.715 972.372 75.937 972.522 Q 75.992 972.521 75.884 972.554 Q 75.775 972.586 75.484 972.355 Q 75.194 972.123 75.078 971.896 Q 74.962 971.669 74.927 971.484 Q 74.891 971.299 74.904 971.159 Q 74.917 971.019 74.917 970.762 Q 74.918 970.506 75.170 970.049 Q 75.422 969.591 76.114 969.087 Q 76.807 968.583 77.496 968.273 Q 78.184 967.964 79.024 968.146 Q 79.864 968.329 79.922 968.349 "></path>
    <path id="STROKE_869ec67b-5ed0-46f8-a600-94f009a2e732" opacity="1.000" fill="none" stroke="#000000" stroke-width="2.145" stroke-opacity="1.000" stroke-linecap="round" stroke-linejoin="round" d="M 83.096 964.843 Q 83.305 965.078 83.411 967.225 Q 83.516 969.372 83.621 970.758 Q 83.726 972.145 83.876 972.848 Q 84.026 973.550 84.186 973.905 Q 84.347 974.260 84.587 974.255 Q 84.826 974.250 84.844 974.235 "></path>
    <path id="STROKE_5f2de5d1-0cef-455a-9617-2f650e36608b" opacity="1.000" fill="none" stroke="#000000" stroke-width="2.052" stroke-opacity="1.000" stroke-linecap="round" stroke-linejoin="round" d="M 80.528 969.586 Q 80.571 969.574 81.953 969.587 Q 83.335 969.601 84.443 969.276 Q 85.551 968.950 85.639 968.931 "></path>
    <path id="STROKE_d67bd60f-644a-4466-a771-c6a3d9609e52" opacity="1.000" fill="none" stroke="#000000" stroke-width="1.360" stroke-opacity="1.000" stroke-linecap="round" stroke-linejoin="round" d="M 91.358 968.346 Q 91.070 968.192 91.111 968.236 Q 90.904 967.974 89.930 968.191 Q 88.957 968.408 88.476 968.592 Q 87.996 968.776 87.617 968.948 Q 87.239 969.121 87.038 969.345 Q 86.837 969.569 86.785 969.725 Q 86.733 969.881 87.092 969.994 Q 87.450 970.108 87.759 970.174 Q 88.067 970.241 88.713 970.394 Q 89.358 970.547 89.930 970.751 Q 90.502 970.956 90.931 971.257 Q 91.360 971.558 91.572 972.132 Q 91.783 972.706 91.800 973.185 Q 91.816 973.664 91.514 974.105 Q 91.213 974.545 90.558 974.934 Q 89.902 975.323 89.037 975.184 Q 88.173 975.044 88.051 974.959 "></path>
    <path id="STROKE_87be5175-89dd-40c7-9188-b3ad74a001c9" opacity="1.000" fill="none" stroke="#000000" stroke-width="1.225" stroke-opacity="1.000" stroke-linecap="round" stroke-linejoin="round" d="M 48.584 1002.695 Q 48.552 1002.653 48.434 1002.525 Q 48.317 1002.396 48.324 1002.448 Q 48.331 1002.500 48.303 1002.386 Q 48.274 1002.272 47.647 1002.393 Q 47.019 1002.515 46.553 1002.771 Q 46.087 1003.028 45.718 1003.449 Q 45.349 1003.871 45.180 1004.438 Q 45.011 1005.006 45.070 1005.461 Q 45.129 1005.915 45.560 1006.152 Q 45.990 1006.389 46.591 1006.469 Q 47.192 1006.549 47.959 1006.443 Q 48.726 1006.337 49.347 1005.772 Q 49.969 1005.207 50.071 1005.086 "></path>
    <path id="STROKE_1721f1f2-0ea8-4039-a15d-8238d88a14a3" opacity="1.000" fill="none" stroke="#000000" stroke-width="1.826" stroke-opacity="1.000" stroke-linecap="round" stroke-linejoin="round" d="M 49.330 997.576 Q 49.314 997.552 49.172 997.394 Q 48.986 997.666 49.221 999.662 Q 49.456 1001.658 49.744 1002.924 Q 50.031 1004.189 50.021 1006.235 Q 50.100 1006.297 50.453 1005.502 "></path>
    <path id="STROKE_09c6cdd8-be90-48a2-a46a-b464a1414a4c" opacity="1.000" fill="none" stroke="#000000" stroke-width="1.368" stroke-opacity="1.000" stroke-linecap="round" stroke-linejoin="round" d="M 54.122 1004.427 Q 54.082 1004.374 54.214 1004.482 Q 54.346 1004.590 54.700 1004.663 Q 55.055 1004.736 55.456 1004.714 Q 55.858 1004.691 56.266 1004.323 Q 56.675 1003.955 56.826 1003.530 Q 56.977 1003.104 56.762 1002.807 Q 56.547 1002.510 56.265 1002.244 Q 55.982 1001.978 55.581 1001.892 Q 55.180 1001.807 54.967 1001.765 Q 54.755 1001.723 54.458 1001.843 Q 54.161 1001.963 53.781 1002.573 Q 53.402 1003.183 53.285 1003.777 Q 53.169 1004.372 53.232 1004.743 Q 53.295 1005.114 53.463 1005.407 Q 53.630 1005.700 54.148 1005.953 Q 54.666 1006.206 55.445 1006.302 Q 56.224 1006.398 56.923 1006.351 Q 57.622 1006.304 58.505 1005.688 "></path>
    <path id="STROKE_478ca70e-ad10-49e8-9396-6a0b27e95ada" opacity="1.000" fill="none" stroke="#000000" stroke-width="1.495" stroke-opacity="1.000" stroke-linecap="round" stroke-linejoin="round" d="M 60.147 997.667 Q 60.368 997.881 60.387 999.475 Q 60.406 1001.069 60.594 1002.385 Q 60.781 1003.702 61.005 1004.349 Q 61.228 1004.996 61.394 1005.420 Q 61.561 1005.843 61.647 1006.322 "></path>
    <path id="STROKE_bde2b36c-4ab5-4906-9f45-665fa97bb054" opacity="1.000" fill="none" stroke="#000000" stroke-width="1.198" stroke-opacity="1.000" stroke-linecap="round" stroke-linejoin="round" d="M 65.495 1004.318 Q 65.352 1004.391 65.804 1004.193 Q 66.255 1003.995 66.689 1003.655 Q 67.122 1003.315 67.302 1002.870 Q 67.481 1002.424 67.466 1002.211 Q 67.452 1001.998 67.446 1001.860 Q 67.441 1001.722 67.353 1001.657 Q 67.265 1001.592 67.101 1001.521 Q 66.938 1001.451 66.758 1001.431 Q 66.578 1001.411 66.350 1001.371 Q 66.123 1001.332 65.703 1001.477 Q 65.282 1001.623 64.896 1002.076 Q 64.510 1002.529 64.413 1003.136 Q 64.316 1003.744 64.338 1004.254 Q 64.360 1004.763 64.724 1005.187 Q 65.088 1005.611 65.399 1005.775 Q 65.710 1005.939 66.096 1006.005 Q 66.483 1006.071 66.972 1006.065 Q 67.461 1006.059 68.979 1004.974 "></path>
    <path id="STROKE_884f05df-88fc-47f0-a0a0-f28d89f58473" opacity="1.000" fill="none" stroke="#000000" stroke-width="2.172" stroke-opacity="1.000" stroke-linecap="round" stroke-linejoin="round" d="M 70.327 998.799 Q 70.687 998.833 70.576 998.874 Q 70.648 999.010 70.629 1000.817 Q 70.611 1002.624 70.799 1004.225 Q 70.986 1005.825 71.541 1007.024 Q 71.590 1007.027 71.633 1007.017 Q 71.677 1007.007 71.688 1006.981 "></path>
    <path id="STROKE_1a920fc5-2c93-4366-8025-0fc53d20d51f" opacity="1.000" fill="none" stroke="#000000" stroke-width="2.409" stroke-opacity="1.000" stroke-linecap="round" stroke-linejoin="round" d="M 69.759 1002.492 Q 69.661 1002.470 70.548 1002.579 Q 71.436 1002.687 73.318 1002.229 "></path>
    <path id="STROKE_8cb7a1ea-e7fa-4792-ba29-4fe92d520944" opacity="1.000" fill="none" stroke="#000000" stroke-width="1.300" stroke-opacity="1.000" stroke-linecap="round" stroke-linejoin="round" d="M 75.769 1004.785 Q 75.619 1004.747 76.143 1004.914 Q 76.667 1005.081 77.234 1005.072 Q 77.801 1005.063 78.030 1004.950 Q 78.259 1004.836 78.648 1004.550 Q 79.036 1004.263 79.257 1004.027 Q 79.477 1003.790 79.551 1003.449 Q 79.624 1003.107 79.612 1002.893 Q 79.601 1002.679 79.395 1002.353 Q 79.189 1002.026 78.833 1001.897 Q 78.477 1001.767 78.167 1001.800 Q 77.856 1001.833 77.532 1002.102 Q 77.208 1002.372 76.742 1003.010 Q 76.275 1003.648 76.110 1004.328 Q 75.945 1005.008 75.925 1005.551 Q 75.906 1006.095 76.201 1006.578 Q 76.496 1007.061 77.145 1007.369 Q 77.793 1007.678 78.784 1007.818 Q 79.776 1007.958 82.249 1006.460 "></path>
    <path id="STROKE_cc8f5daf-ac12-4855-b432-f437a3a8431f" opacity="1.000" fill="none" stroke="#000000" stroke-width="1.399" stroke-opacity="1.000" stroke-linecap="round" stroke-linejoin="round" d="M 85.994 1001.350 Q 85.939 1001.215 85.352 1001.210 Q 84.765 1001.205 84.231 1001.410 Q 83.697 1001.614 83.368 1001.854 Q 83.040 1002.093 82.824 1002.550 Q 82.609 1003.006 82.963 1003.289 Q 83.318 1003.571 83.479 1003.660 Q 83.641 1003.748 84.365 1004.076 Q 85.090 1004.404 85.626 1004.699 Q 86.162 1004.994 86.460 1005.284 Q 86.757 1005.573 86.837 1005.945 Q 86.916 1006.317 86.906 1006.755 Q 86.896 1007.192 86.453 1007.533 Q 86.011 1007.874 85.685 1008.058 Q 85.359 1008.243 84.800 1008.371 Q 84.241 1008.499 83.851 1008.487 Q 83.461 1008.474 83.351 1008.467 "></path>
    <path id="STROKE_ea4aa72f-ba89-435b-a6e0-25c877db750b" opacity="1.000" fill="none" stroke="#000000" stroke-width="0.938" stroke-opacity="1.000" stroke-linecap="round" stroke-linejoin="round" d="M 21.770 1023.894 Q 21.910 1023.794 24.890 1023.843 Q 27.871 1023.893 30.958 1023.939 Q 34.046 1023.986 36.706 1023.916 Q 39.366 1023.846 42.401 1023.673 Q 45.435 1023.500 47.263 1023.482 Q 49.091 1023.464 53.666 1023.535 Q 58.242 1023.607 61.862 1023.491 Q 65.482 1023.376 67.418 1023.395 Q 69.355 1023.415 70.214 1023.351 Q 71.073 1023.286 75.971 1023.407 Q 80.869 1023.527 84.027 1023.617 Q 87.186 1023.706 89.221 1023.710 Q 91.256 1023.714 92.770 1023.720 Q 94.284 1023.726 95.271 1023.779 Q 96.258 1023.832 96.617 1023.233 Q 96.746 1023.205 95.591 1023.485 "></path>
    <path id="STROKE_c85e09b9-de95-4631-a91f-95c267e52c8d" opacity="1.000" fill="none" stroke="#5a6edc" stroke-width="1.279" stroke-opacity="1.000" stroke-linecap="round" stroke-linejoin="round" d="M -112.509 1048.762 Q -112.150 1049.018 -107.282 1049.171 Q -102.413 1049.324 -99.090 1049.410 Q -95.767 1049.495 -94.140 1049.605 Q -92.513 1049.716 -90.912 1049.821 Q -89.311 1049.927 -84.825 1050.080 Q -80.339 1050.234 -76.184 1050.222 Q -72.029 1050.211 -69.249 1050.236 Q -66.470 1050.261 -60.037 1050.218 Q -53.605 1050.176 -48.795 1050.035 Q -43.985 1049.895 -40.221 1049.853 Q -36.458 1049.811 -32.801 1049.719 Q -29.143 1049.627 -26.728 1049.542 Q -24.312 1049.457 -21.893 1049.334 Q -19.474 1049.210 -16.936 1049.093 Q -14.397 1048.975 -13.100 1048.962 Q -11.804 1048.949 -9.419 1048.968 Q -7.034 1048.987 -4.585 1048.997 L -4.584 1048.969 Q -4.647 1048.913 -4.916 1048.921 Q -5.185 1048.929 -5.200 1048.929 "></path>
    <path id="STROKE_aff704ac-e80c-4ab0-aa6e-a27304ee722b" opacity="1.000" fill="none" stroke="#5a6edc" stroke-width="1.279" stroke-opacity="1.000" stroke-linecap="round" stroke-linejoin="round" d="M -113.324 1068.719 Q -112.939 1068.458 -107.959 1068.295 Q -102.979 1068.131 -99.582 1068.040 Q -96.186 1067.948 -94.517 1067.833 Q -92.848 1067.718 -91.207 1067.608 Q -89.565 1067.499 -84.976 1067.335 Q -80.387 1067.172 -76.149 1067.178 Q -71.910 1067.184 -69.072 1067.154 Q -66.234 1067.125 -59.673 1067.159 Q -53.113 1067.194 -48.215 1067.331 Q -43.318 1067.467 -39.480 1067.504 Q -35.643 1067.542 -31.918 1067.630 Q -28.194 1067.719 -25.735 1067.803 Q -23.277 1067.886 -20.818 1068.008 Q -18.359 1068.131 -15.777 1068.247 Q -13.195 1068.364 -11.873 1068.375 Q -10.551 1068.386 -8.116 1068.364 Q -5.681 1068.341 -3.182 1068.328 L -3.183 1068.356 Q -3.251 1068.413 -3.525 1068.406 Q -3.799 1068.398 -3.814 1068.398 "></path>
    <path id="STROKE_889b36b8-e938-4b09-83c0-ce737b5f4ce0" opacity="1.000" fill="none" stroke="#5a6edc" stroke-width="2.462" stroke-opacity="1.000" stroke-linecap="round" stroke-linejoin="round" d="M -4.226 1048.011 Q -4.235 1047.799 -4.279 1047.917 Q -4.323 1048.035 -4.252 1045.454 Q -4.181 1042.872 -3.915 1038.755 "></path>
    <path id="STROKE_b5bc5d42-7119-48af-8ef0-2bc2bbb9119c" opacity="1.000" fill="none" stroke="#5a6edc" stroke-width="1.645" stroke-opacity="1.000" stroke-linecap="round" stroke-linejoin="round" d="M -3.999 1068.623 Q -4.016 1068.291 -3.740 1067.781 L -3.726 1067.781 Q -3.743 1068.241 -3.742 1068.230 Q -3.986 1068.918 -3.565 1076.895 Q -3.614 1076.739 -3.681 1076.659 Q -3.632 1076.815 -3.598 1076.855 Q -3.565 1076.895 -3.525 1076.911 "></path>
    <path id="STROKE_564ef52e-fff5-4941-b5d0-78975e2f3ca1" opacity="1.000" fill="none" stroke="#5a6edc" stroke-width="1.496" stroke-opacity="1.000" stroke-linecap="round" stroke-linejoin="round" d="M -3.104 1078.458 Q -3.003 1078.503 -1.849 1077.560 Q -0.695 1076.616 1.427 1075.220 Q 3.550 1073.824 6.577 1071.385 Q 9.604 1068.946 11.096 1067.561 Q 12.587 1066.176 13.498 1065.408 Q 14.408 1064.640 16.375 1063.014 Q 18.341 1061.388 19.712 1060.320 Q 21.083 1059.253 22.499 1057.914 Q 23.915 1056.575 24.756 1055.851 Q 25.598 1055.126 25.861 1054.388 L 25.795 1054.388 L 25.861 1054.388 Q 25.795 1054.388 25.729 1054.388 "></path>
    <path id="STROKE_7a222690-b841-477d-891b-8e1aaae75253" opacity="1.000" fill="none" stroke="#5a6edc" stroke-width="1.327" stroke-opacity="1.000" stroke-linecap="round" stroke-linejoin="round" d="M -4.716 1037.365 Q -4.616 1037.391 -3.849 1037.771 Q -3.082 1038.150 -1.818 1038.922 Q -0.554 1039.695 0.830 1040.481 Q 2.214 1041.268 4.660 1042.484 Q 7.106 1043.699 9.334 1045.058 Q 11.561 1046.416 13.248 1047.191 Q 14.934 1047.965 16.775 1048.868 Q 18.616 1049.771 19.966 1050.672 Q 21.316 1051.573 21.985 1051.967 Q 22.653 1052.361 23.949 1052.811 Q 25.245 1053.261 25.945 1053.619 Q 26.644 1053.977 27.175 1054.418 "></path>
    <path id="STROKE_a12ce28c-b193-4993-860b-ac5bca289295" opacity="1.000" fill="none" stroke="#79ca42" stroke-width="2.009" stroke-opacity="1.000" stroke-linecap="round" stroke-linejoin="round" d="M -63.222 1053.379 Q -63.218 1053.096 -63.219 1053.167 Q -63.216 1052.993 -63.211 1053.026 Q -63.204 1052.998 -63.204 1052.965 Q -63.245 1052.955 -63.158 1054.406 Q -63.071 1055.858 -62.895 1057.748 Q -62.893 1057.597 -62.894 1057.613 Q -62.893 1057.585 -62.893 1057.568 "></path>
    <path id="STROKE_9d5ee120-d016-4948-a01a-383e9f06d122" opacity="1.000" fill="none" stroke="#79ca42" stroke-width="1.529" stroke-opacity="1.000" stroke-linecap="round" stroke-linejoin="round" d="M -63.286 1055.707 Q -63.174 1055.683 -61.964 1055.648 Q -60.753 1055.613 -59.802 1055.612 Q -58.851 1055.611 -58.279 1055.610 Q -57.707 1055.608 -57.498 1055.620 Q -57.289 1055.632 -56.612 1055.604 Q -55.935 1055.577 -54.084 1055.522 Q -52.233 1055.468 -51.136 1055.461 Q -50.040 1055.455 -49.772 1055.455 Q -49.504 1055.456 -49.161 1055.470 Q -48.817 1055.485 -48.523 1055.505 Q -48.228 1055.524 -47.579 1055.524 Q -46.931 1055.525 -46.358 1055.514 Q -45.785 1055.504 -45.283 1055.551 Q -44.781 1055.598 -44.301 1055.651 Q -43.821 1055.704 -43.593 1055.652 Q -43.364 1055.600 -42.989 1055.576 Q -42.613 1055.552 -42.577 1055.559 Q -42.540 1055.566 -41.905 1055.520 Q -41.270 1055.473 -40.535 1055.484 Q -39.800 1055.494 -39.356 1055.514 Q -38.912 1055.534 -38.690 1055.469 Q -38.468 1055.404 -37.912 1055.415 Q -37.357 1055.425 -37.011 1055.448 Q -36.665 1055.472 -36.574 1055.472 Q -36.484 1055.471 -35.964 1055.482 Q -35.934 1055.613 -36.180 1055.676 Q -36.135 1055.654 -36.090 1055.637 Q -36.180 1055.676 -36.225 1055.693 "></path>
    <path id="STROKE_98e65197-ac29-41d2-b263-0f371f2f2239" opacity="1.000" fill="none" stroke="#79ca42" stroke-width="1.775" stroke-opacity="1.000" stroke-linecap="round" stroke-linejoin="round" d="M -35.757 1052.539 Q -35.754 1052.372 -35.754 1052.362 Q -35.754 1052.353 -35.754 1052.354 Q -35.754 1052.355 -35.754 1052.358 Q -35.754 1052.360 -35.753 1052.278 Q -35.752 1052.197 -35.749 1051.988 Q -35.756 1052.074 -35.815 1057.462 Q -35.776 1057.219 -35.782 1057.258 Q -35.788 1057.296 -35.786 1057.300 Q -35.784 1057.304 -35.783 1057.136 Q -35.789 1057.136 -35.857 1057.147 Q -35.924 1057.158 -35.929 1057.158 "></path>
    <path id="STROKE_5b2a64ea-f066-4ff3-9a5a-56c8d4e5a541" opacity="1.000" fill="none" stroke="#79ca42" stroke-width="1.102" stroke-opacity="1.000" stroke-linecap="round" stroke-linejoin="round" d="M -107.360 1061.514 Q -107.216 1061.539 -105.776 1061.495 Q -104.337 1061.452 -103.428 1061.456 Q -102.519 1061.460 -102.121 1061.450 Q -101.724 1061.439 -101.010 1061.316 Q -100.297 1061.193 -99.602 1061.215 Q -98.908 1061.237 -97.794 1061.146 Q -96.680 1061.055 -95.259 1061.073 Q -93.838 1061.091 -93.090 1061.103 Q -92.342 1061.115 -91.981 1061.119 Q -91.620 1061.123 -91.429 1061.126 Q -91.237 1061.129 -91.126 1061.134 Q -91.014 1061.140 -90.780 1061.150 Q -90.545 1061.161 -90.610 1061.168 Q -90.674 1061.175 -88.927 1061.202 Q -87.181 1061.230 -86.155 1061.242 Q -85.130 1061.254 -84.620 1061.263 Q -84.109 1061.273 -83.693 1061.258 L -83.693 1061.252 Q -83.739 1061.252 -83.840 1061.250 Q -83.940 1061.249 -83.962 1061.249 "></path>
    <path id="STROKE_235d3efd-68c1-4d32-a437-7382f541caed" opacity="1.000" fill="none" stroke="#79ca42" stroke-width="2.401" stroke-opacity="1.000" stroke-linecap="round" stroke-linejoin="round" d="M -83.638 1058.700 Q -83.635 1058.485 -83.635 1058.537 Q -83.643 1058.290 -83.643 1058.368 Q -83.659 1058.123 -83.652 1058.177 Q -83.650 1058.026 -83.651 1058.037 Q -83.650 1058.014 -83.649 1057.946 Q -83.706 1058.037 -83.745 1058.972 Q -83.785 1059.908 -83.795 1060.781 Q -83.805 1061.654 -83.809 1062.395 Q -83.813 1063.135 -83.793 1063.713 Q -83.793 1063.690 -83.793 1063.659 Q -83.792 1063.629 -83.792 1063.590 "></path>
    <path id="STROKE_7d252860-075d-4031-9419-c83eaeb6b161" opacity="1.000" fill="none" stroke="#79ca42" stroke-width="1.625" stroke-opacity="1.000" stroke-linecap="round" stroke-linejoin="round" d="M -108.020 1058.548 Q -108.041 1058.401 -108.133 1060.218 Q -108.225 1062.034 -108.268 1064.199 Q -108.092 1064.080 -108.153 1064.112 Q -108.142 1064.095 -108.124 1064.078 "></path>
    <path id="STROKE_06574be6-d998-41f7-aa2c-274085660c0a" opacity="1.000" fill="none" stroke="#bd8ae6" stroke-width="1.636" stroke-opacity="1.000" stroke-linecap="round" stroke-linejoin="round" d="M -97.991 1052.900 Q -98.138 1052.881 -97.726 1057.918 Q -97.645 1057.849 -97.648 1057.684 "></path>
    <path id="STROKE_70e659cf-b409-44bc-89e2-86d9f44c9ff1" opacity="1.000" fill="none" stroke="#bd8ae6" stroke-width="1.395" stroke-opacity="1.000" stroke-linecap="round" stroke-linejoin="round" d="M -70.198 1052.782 Q -70.182 1052.713 -70.103 1052.424 Q -70.111 1052.402 -70.116 1053.303 Q -70.121 1054.205 -70.079 1055.321 Q -70.037 1056.436 -70.033 1057.429 Q -69.976 1057.459 -69.974 1057.890 "></path>
    <path id="STROKE_e3cb91a6-e406-420e-aa38-7fe7db6193ff" opacity="1.000" fill="none" stroke="#bd8ae6" stroke-width="1.108" stroke-opacity="1.000" stroke-linecap="round" stroke-linejoin="round" d="M -97.727 1055.232 Q -97.573 1055.241 -97.212 1055.198 Q -96.852 1055.154 -96.511 1055.151 Q -96.171 1055.148 -95.999 1055.151 Q -95.827 1055.153 -95.237 1055.086 Q -94.647 1055.019 -94.182 1054.989 Q -93.717 1054.958 -93.489 1054.962 Q -93.261 1054.966 -92.715 1054.955 Q -92.169 1054.944 -91.162 1054.960 Q -90.154 1054.977 -89.294 1054.890 Q -88.435 1054.804 -87.722 1054.770 Q -87.009 1054.736 -85.445 1054.708 Q -83.881 1054.679 -83.040 1054.680 Q -82.200 1054.681 -81.853 1054.678 Q -81.507 1054.675 -80.291 1054.760 Q -79.075 1054.844 -78.395 1054.887 Q -77.716 1054.929 -77.000 1054.999 Q -76.284 1055.069 -75.742 1055.100 Q -75.200 1055.130 -74.634 1055.232 Q -74.068 1055.333 -73.384 1055.355 Q -72.700 1055.377 -72.288 1055.359 Q -71.876 1055.341 -71.630 1055.347 Q -71.384 1055.354 -71.346 1055.354 "></path>
    <path id="STROKE_3c73a995-fdc6-4106-b1c1-03287c6b3d62" opacity="1.000" fill="none" stroke="#4378c3" stroke-width="1.609" stroke-opacity="1.000" stroke-linecap="round" stroke-linejoin="round" d="M -75.481 1057.751 Q -75.472 1057.847 -75.521 1058.675 Q -75.570 1059.504 -75.603 1060.878 Q -75.636 1062.252 -75.535 1063.506 Q -75.535 1063.500 -75.534 1063.450 "></path>
    <path id="STROKE_5deb892e-030f-4690-bc6e-5ad34578d141" opacity="1.000" fill="none" stroke="#4378c3" stroke-width="0.889" stroke-opacity="1.000" stroke-linecap="round" stroke-linejoin="round" d="M -75.488 1061.628 Q -75.619 1061.641 -74.324 1061.561 Q -73.029 1061.481 -72.345 1061.405 Q -71.662 1061.328 -71.356 1061.340 Q -71.050 1061.351 -70.369 1061.272 Q -69.689 1061.192 -69.036 1061.198 Q -68.382 1061.205 -67.418 1061.151 Q -66.454 1061.097 -65.648 1061.049 Q -64.842 1061.000 -63.748 1060.998 Q -62.654 1060.996 -62.074 1060.957 Q -61.493 1060.917 -59.426 1060.873 Q -57.359 1060.830 -55.915 1060.857 Q -54.470 1060.884 -53.492 1060.974 Q -52.514 1061.064 -51.643 1061.112 Q -50.772 1061.160 -50.284 1061.189 Q -49.796 1061.218 -48.503 1061.253 Q -48.620 1061.251 -48.783 1061.249 Q -48.947 1061.247 -48.985 1061.246 "></path>
    <path id="STROKE_e548d661-54ee-4d9f-ae86-5f27503754bb" opacity="1.000" fill="none" stroke="#4378c3" stroke-width="1.943" stroke-opacity="1.000" stroke-linecap="round" stroke-linejoin="round" d="M -48.389 1058.747 Q -48.456 1058.687 -48.283 1058.165 Q -48.283 1058.165 -48.283 1058.149 Q -48.284 1058.134 -48.271 1058.226 Q -48.258 1058.319 -48.338 1059.485 Q -48.418 1060.651 -48.447 1061.341 Q -48.477 1062.030 -48.456 1062.386 Q -48.435 1062.743 -48.399 1062.976 Q -48.364 1063.210 -48.294 1063.843 Q -48.283 1063.843 -48.255 1063.843 Q -48.252 1063.827 -48.240 1063.640 "></path>
    <path id="STROKE_b51db82a-9c84-4277-9f50-049decb6abeb" opacity="1.000" fill="none" stroke="#bd8ae6" stroke-width="1.318" stroke-opacity="1.000" stroke-linecap="round" stroke-linejoin="round" d="M -41.498 1059.019 Q -41.460 1058.883 -41.494 1059.856 Q -41.529 1060.829 -41.508 1061.561 Q -41.487 1062.293 -41.421 1062.619 Q -41.355 1062.945 -41.367 1063.126 Q -41.379 1063.307 -41.380 1063.505 Q -41.381 1063.703 -41.383 1063.899 Q -41.312 1063.904 -41.312 1063.643 Q -41.318 1063.643 -41.324 1063.643 "></path>
    <path id="STROKE_8e66f416-c030-48b4-9966-fb47cdc98401" opacity="1.000" fill="none" stroke="#bd8ae6" stroke-width="0.895" stroke-opacity="1.000" stroke-linecap="round" stroke-linejoin="round" d="M -41.103 1061.638 Q -40.913 1061.642 -40.920 1061.642 Q -40.795 1061.658 -39.105 1061.516 Q -37.414 1061.373 -36.343 1061.362 Q -35.273 1061.351 -34.661 1061.350 Q -34.050 1061.349 -33.772 1061.369 Q -33.494 1061.388 -32.456 1061.360 Q -31.418 1061.331 -30.060 1061.283 Q -28.702 1061.236 -27.848 1061.239 Q -26.994 1061.243 -26.427 1061.256 Q -25.861 1061.269 -25.626 1061.289 Q -25.391 1061.309 -23.280 1061.182 Q -23.274 1061.152 -23.274 1061.111 Q -23.079 1061.150 -22.543 1061.109 Q -22.006 1061.069 -21.664 1060.970 Q -21.321 1060.872 -20.872 1060.927 Q -20.859 1061.016 -20.356 1060.992 L -20.351 1060.980 "></path>
    <path id="STROKE_b43fad43-69b2-4ff3-ba7e-33498601e655" opacity="1.000" fill="none" stroke="#bd8ae6" stroke-width="1.417" stroke-opacity="1.000" stroke-linecap="round" stroke-linejoin="round" d="M -20.830 1058.828 Q -20.826 1058.649 -20.826 1058.636 Q -20.826 1058.622 -20.827 1058.662 Q -20.814 1058.755 -20.593 1058.122 Q -20.579 1058.164 -20.639 1059.295 Q -20.700 1060.427 -20.662 1061.286 Q -20.625 1062.144 -20.502 1062.573 Q -20.379 1063.002 -20.521 1063.330 "></path>
    <path id="STROKE_5019d47f-67c0-40c3-bad4-fb4026f06e6b" opacity="1.000" fill="none" stroke="#4378c3" stroke-width="1.287" stroke-opacity="1.000" stroke-linecap="round" stroke-linejoin="round" d="M -22.922 1052.974 Q -22.916 1052.980 -22.903 1052.788 Q -22.999 1052.912 -22.779 1056.951 Q -22.750 1056.916 -22.740 1056.659 "></path>
    <path id="STROKE_72c04596-6a8f-48e3-8872-75942ec6da38" opacity="1.000" fill="none" stroke="#4378c3" stroke-width="0.998" stroke-opacity="1.000" stroke-linecap="round" stroke-linejoin="round" d="M -22.287 1054.721 Q -22.042 1054.668 -22.044 1054.678 Q -22.276 1054.688 -19.887 1054.536 Q -17.498 1054.383 -15.381 1054.250 Q -13.265 1054.118 -12.318 1054.098 Q -11.371 1054.079 -10.953 1054.068 Q -10.535 1054.058 -10.171 1053.935 Q -9.806 1053.812 -9.307 1053.518 Q -9.307 1053.511 -9.307 1053.505 Q -9.542 1053.519 -9.972 1053.545 "></path>
    <path id="STROKE_67c2e444-517a-4221-9cc9-78f578d4ab31" opacity="1.000" fill="none" stroke="#79ca42" stroke-width="1.575" stroke-opacity="1.000" stroke-linecap="round" stroke-linejoin="round" d="M -14.585 1058.194 Q -14.613 1058.253 -14.534 1059.212 Q -14.454 1060.170 -13.913 1064.394 "></path>
    <path id="STROKE_e6307b9c-2adb-4742-870c-51b84e543325" opacity="1.000" fill="none" stroke="#79ca42" stroke-width="1.415" stroke-opacity="1.000" stroke-linecap="round" stroke-linejoin="round" d="M -13.912 1061.655 Q -14.041 1061.669 -7.334 1061.049 Q -7.332 1060.940 -7.335 1060.952 Q -7.335 1060.939 -7.323 1060.890 Q -7.316 1060.889 -7.308 1060.889 Q -7.308 1060.889 -7.499 1060.900 "></path>
    <path id="STROKE_0a7b453f-1855-4557-9099-cefd9f915fe5" opacity="1.000" fill="none" stroke="#000000" stroke-width="1.327" stroke-opacity="1.000" stroke-linecap="round" stroke-linejoin="round" d="M 41.375 1040.825 Q 41.394 1040.711 41.269 1042.001 Q 41.144 1043.290 41.279 1044.340 Q 41.413 1045.391 41.506 1045.825 Q 41.599 1046.260 41.760 1046.598 Q 41.921 1046.936 42.143 1047.013 Q 42.366 1047.090 42.423 1047.070 Q 42.480 1047.050 42.552 1047.117 Q 42.624 1047.184 42.925 1046.960 Q 43.226 1046.736 43.391 1046.491 Q 43.556 1046.245 43.656 1046.086 Q 43.756 1045.927 43.793 1045.841 Q 43.829 1045.754 43.862 1045.749 Q 43.894 1045.743 44.314 1045.064 Q 44.733 1044.385 44.912 1043.834 Q 45.091 1043.283 45.154 1042.918 Q 45.216 1042.553 45.267 1041.719 Q 45.074 1041.992 45.125 1041.989 Q 45.165 1042.294 45.016 1042.897 Q 44.867 1043.499 45.098 1044.351 Q 45.329 1045.202 45.588 1045.699 Q 45.847 1046.196 46.141 1046.453 Q 46.434 1046.711 46.708 1046.747 Q 46.982 1046.784 47.107 1046.798 Q 47.231 1046.811 47.427 1046.688 Q 47.622 1046.564 47.760 1046.387 Q 47.898 1046.210 47.961 1046.079 Q 48.025 1045.948 48.071 1045.779 Q 48.116 1045.609 48.182 1045.508 Q 48.247 1045.406 48.407 1044.145 Q 48.567 1042.884 48.477 1039.707 "></path>
    <path id="STROKE_f6026651-3bf3-4f7d-b8f6-6e6fe03de94e" opacity="1.000" fill="none" stroke="#000000" stroke-width="1.283" stroke-opacity="1.000" stroke-linecap="round" stroke-linejoin="round" d="M 52.089 1041.636 Q 51.978 1041.699 51.986 1044.148 Q 51.994 1046.596 51.999 1046.625 "></path>
    <circle id="STROKE_52ea654a-962a-47dd-8313-da6a6112ed81" opacity="1.000" fill="#000000" stroke="#000000" stroke-width="0.1" stroke-opacity="1.000" fill-opacity="1.000" cx="51.740" cy="1037.583" r="0.425"></circle>
    <path id="STROKE_87189b2f-a611-42bb-ae89-1283f1fbbb0c" opacity="1.000" fill="none" stroke="#000000" stroke-width="1.388" stroke-opacity="1.000" stroke-linecap="round" stroke-linejoin="round" d="M 55.316 1041.940 Q 55.418 1042.377 55.406 1042.387 Q 55.447 1042.353 55.561 1043.741 Q 55.675 1045.130 55.977 1047.037 Q 56.135 1046.947 56.163 1045.939 Q 56.192 1044.931 56.284 1044.240 Q 56.376 1043.550 56.552 1043.268 Q 56.728 1042.987 56.911 1042.740 Q 57.095 1042.494 57.214 1042.379 Q 57.334 1042.264 57.403 1042.199 Q 57.472 1042.135 57.739 1042.049 Q 58.006 1041.963 58.257 1041.964 Q 58.508 1041.965 59.021 1042.498 Q 59.534 1043.031 59.974 1043.608 Q 60.415 1044.186 60.440 1045.196 "></path>
    <path id="STROKE_c95159ab-c5e5-4f95-a5ce-c91f976d16c9" opacity="1.000" fill="none" stroke="#000000" stroke-width="1.155" stroke-opacity="1.000" stroke-linecap="round" stroke-linejoin="round" d="M 59.994 1044.742 Q 59.994 1044.742 59.953 1044.799 Q 59.911 1044.856 60.416 1044.606 Q 60.366 1044.518 60.357 1047.296 Q 60.360 1047.256 60.363 1047.227 Q 60.357 1047.296 60.354 1047.326 "></path>
    <path id="STROKE_a4a11f9e-e6c5-4d77-b4e2-773dad93068a" opacity="1.000" fill="none" stroke="#000000" stroke-width="1.330" stroke-opacity="1.000" stroke-linecap="round" stroke-linejoin="round" d="M 66.514 1043.928 Q 66.566 1044.036 66.342 1043.646 Q 66.117 1043.255 65.623 1043.004 Q 65.128 1042.753 64.711 1042.929 Q 64.293 1043.106 63.789 1043.829 Q 63.284 1044.552 63.025 1045.162 Q 62.766 1045.771 62.668 1046.284 Q 62.570 1046.797 62.786 1047.266 Q 63.001 1047.735 64.005 1047.706 Q 65.009 1047.677 65.153 1047.610 "></path>
    <path id="STROKE_af004b00-dfd3-4250-a9b9-f1230fb7232a" opacity="1.000" fill="none" stroke="#000000" stroke-width="2.101" stroke-opacity="1.000" stroke-linecap="round" stroke-linejoin="round" d="M 66.552 1038.854 Q 66.554 1038.836 66.596 1038.142 Q 66.433 1037.926 66.225 1039.112 Q 66.017 1040.298 66.355 1041.907 Q 66.693 1043.516 66.936 1044.342 Q 67.179 1045.167 67.356 1045.578 Q 67.534 1045.988 67.470 1047.344 Q 67.485 1047.296 67.570 1047.119 "></path>
    <path id="STROKE_a4a7b0d0-8859-42ca-b419-7bd8898b3877" opacity="1.000" fill="none" stroke="#000000" stroke-width="1.150" stroke-opacity="1.000" stroke-linecap="round" stroke-linejoin="round" d="M 72.568 1043.562 Q 72.677 1043.555 72.255 1043.510 Q 71.834 1043.465 71.354 1043.793 Q 70.873 1044.121 70.470 1044.609 Q 70.067 1045.097 69.903 1045.744 Q 69.739 1046.392 69.675 1046.797 Q 69.611 1047.201 69.720 1047.408 Q 69.829 1047.614 70.007 1047.707 Q 70.184 1047.799 70.372 1047.848 Q 70.559 1047.898 71.097 1047.960 Q 71.635 1048.022 72.287 1047.958 Q 72.939 1047.894 73.465 1047.660 Q 73.991 1047.426 74.343 1046.812 Q 74.696 1046.198 74.754 1045.594 Q 74.811 1044.989 74.528 1044.454 Q 74.245 1043.919 73.881 1043.407 Q 73.517 1042.895 72.198 1042.685 "></path>
    <path id="STROKE_b8f43ecb-e035-4e60-b71d-1dd3b3ad39ac" opacity="1.000" fill="none" stroke="#000000" stroke-width="1.153" stroke-opacity="1.000" stroke-linecap="round" stroke-linejoin="round" d="M 77.187 1043.676 Q 77.150 1044.098 77.154 1044.056 Q 76.982 1044.307 77.280 1045.459 Q 77.579 1046.610 77.884 1047.282 Q 78.189 1047.954 78.371 1048.170 Q 78.554 1048.386 78.760 1048.397 Q 78.965 1048.408 79.086 1048.119 Q 79.208 1047.831 79.631 1046.777 Q 80.053 1045.724 80.459 1044.142 Q 80.580 1043.866 80.292 1044.691 Q 80.005 1045.517 79.928 1046.123 Q 79.850 1046.729 79.889 1047.100 Q 79.928 1047.471 80.325 1047.936 Q 80.723 1048.400 81.081 1048.362 Q 81.438 1048.323 81.651 1048.150 Q 81.865 1047.977 82.182 1047.512 Q 82.499 1047.048 82.695 1046.675 Q 82.892 1046.302 83.035 1045.575 Q 83.178 1044.848 83.060 1044.018 "></path>
    <path id="STROKE_7808d859-d944-4bae-a87f-b6e0214577ab" opacity="1.000" fill="none" stroke="#000000" stroke-width="1.210" stroke-opacity="1.000" stroke-linecap="round" stroke-linejoin="round" d="M 84.207 1046.120 Q 84.154 1046.331 84.168 1046.320 Q 84.291 1046.619 85.005 1046.723 Q 85.720 1046.826 86.120 1046.923 Q 86.521 1047.019 87.164 1046.851 Q 87.807 1046.682 88.307 1046.129 Q 88.808 1045.575 89.064 1045.272 Q 89.319 1044.969 89.457 1044.502 Q 89.596 1044.034 89.569 1043.661 Q 89.541 1043.289 89.094 1043.028 Q 88.646 1042.767 88.203 1042.833 Q 87.760 1042.899 87.541 1043.098 Q 87.322 1043.296 87.180 1043.427 Q 87.038 1043.557 86.807 1043.767 Q 86.575 1043.976 86.026 1044.680 Q 85.476 1045.383 85.236 1046.166 Q 84.995 1046.949 84.937 1047.386 Q 84.879 1047.823 84.965 1048.256 Q 85.050 1048.689 85.638 1048.933 Q 86.225 1049.177 87.110 1048.912 Q 87.995 1048.648 88.190 1048.549 "></path>
    <path id="STROKE_c25070ce-ee41-4cdb-8db4-d10499a6f777" opacity="1.000" fill="none" stroke="#000000" stroke-width="1.697" stroke-opacity="1.000" stroke-linecap="round" stroke-linejoin="round" d="M 96.332 1044.271 Q 96.204 1044.058 95.842 1043.671 Q 95.479 1043.283 95.077 1043.236 Q 94.676 1043.189 94.022 1043.380 Q 93.368 1043.572 92.755 1044.237 Q 92.142 1044.902 91.787 1045.304 Q 91.432 1045.707 91.326 1046.073 Q 91.219 1046.439 91.107 1047.083 Q 90.996 1047.728 94.525 1047.872 "></path>
    <path id="STROKE_54c224ba-7cfd-4500-9f8e-7d40f00c228a" opacity="1.000" fill="none" stroke="#000000" stroke-width="2.273" stroke-opacity="1.000" stroke-linecap="round" stroke-linejoin="round" d="M 95.872 1037.269 Q 95.924 1037.320 95.730 1037.098 Q 95.662 1036.972 95.540 1038.283 Q 95.419 1039.593 95.753 1041.369 Q 96.087 1043.146 96.170 1044.685 Q 96.254 1046.224 96.259 1047.042 Q 96.265 1047.861 96.332 1048.154 Q 96.400 1048.446 96.475 1048.708 Q 96.550 1048.970 96.950 1049.066 "></path>
    <path id="STROKE_a5f8dfa1-c77f-49dd-8f73-37091893f58e" opacity="1.000" fill="none" stroke="#000000" stroke-width="1.321" stroke-opacity="1.000" stroke-linecap="round" stroke-linejoin="round" d="M 39.915 1060.222 Q 40.247 1060.491 40.269 1060.492 Q 40.290 1060.493 40.282 1060.474 Q 40.274 1060.455 40.353 1060.502 Q 40.432 1060.549 40.919 1060.572 Q 41.406 1060.594 42.268 1060.090 Q 43.130 1059.585 43.734 1059.123 Q 44.337 1058.661 44.695 1058.214 Q 45.053 1057.766 45.070 1057.487 Q 45.087 1057.208 45.026 1057.076 Q 44.965 1056.945 44.827 1056.846 Q 44.689 1056.746 44.552 1056.677 Q 44.416 1056.608 44.348 1056.605 Q 44.281 1056.601 44.033 1056.499 Q 43.784 1056.396 43.036 1056.500 Q 42.288 1056.604 41.875 1057.203 Q 41.463 1057.802 41.318 1058.344 Q 41.172 1058.886 41.137 1059.209 Q 41.101 1059.533 41.042 1060.081 Q 40.983 1060.628 41.334 1061.005 Q 41.686 1061.382 42.002 1061.543 Q 42.317 1061.705 42.986 1061.802 Q 43.655 1061.898 44.327 1061.778 Q 44.999 1061.658 45.974 1060.897 "></path>
    <path id="STROKE_8bf6afee-7cae-44d1-a0ec-57b02628d612" opacity="1.000" fill="none" stroke="#000000" stroke-width="1.697" stroke-opacity="1.000" stroke-linecap="round" stroke-linejoin="round" d="M 47.082 1057.267 Q 46.850 1057.468 47.296 1058.309 Q 47.742 1059.149 48.371 1059.718 Q 48.999 1060.288 50.656 1061.310 Q 50.720 1061.344 51.335 1059.589 Q 51.950 1057.833 52.896 1056.017 "></path>
    <path id="STROKE_c9bf5d4d-1385-4ce0-adac-7b03db48b278" opacity="1.000" fill="none" stroke="#000000" stroke-width="1.240" stroke-opacity="1.000" stroke-linecap="round" stroke-linejoin="round" d="M 54.707 1060.195 Q 54.809 1060.164 55.159 1060.291 Q 55.509 1060.418 56.412 1059.872 Q 57.314 1059.326 57.860 1058.812 Q 58.405 1058.299 58.691 1057.703 Q 58.977 1057.107 58.961 1056.794 Q 58.945 1056.482 58.838 1056.263 Q 58.731 1056.044 58.480 1055.858 Q 58.229 1055.673 58.033 1055.521 Q 57.838 1055.370 57.474 1055.279 Q 57.110 1055.189 56.857 1055.281 Q 56.604 1055.373 56.398 1055.513 Q 56.191 1055.653 55.688 1056.338 Q 55.185 1057.023 54.924 1057.974 Q 54.662 1058.924 54.668 1059.595 Q 54.674 1060.265 54.731 1060.437 Q 54.787 1060.608 55.109 1061.033 Q 55.431 1061.458 56.075 1061.656 Q 56.720 1061.855 57.365 1061.730 Q 58.009 1061.605 58.601 1060.913 Q 59.194 1060.220 59.304 1060.073 "></path>
    <path id="STROKE_d4d6a23b-7d88-4a81-9f56-652cb9109889" opacity="1.000" fill="none" stroke="#000000" stroke-width="1.328" stroke-opacity="1.000" stroke-linecap="round" stroke-linejoin="round" d="M 60.510 1056.867 Q 60.061 1056.620 61.824 1061.709 Q 61.830 1061.283 62.111 1060.192 Q 62.391 1059.101 62.972 1058.366 Q 63.553 1057.632 63.999 1057.287 Q 64.444 1056.943 64.681 1056.918 Q 64.918 1056.893 65.066 1057.831 Q 65.214 1058.769 65.326 1059.177 Q 65.439 1059.585 65.879 1060.427 Q 66.319 1061.270 66.524 1061.639 Q 66.729 1062.007 66.864 1062.161 Q 66.998 1062.315 67.142 1062.419 Q 67.287 1062.522 67.709 1062.402 "></path>
    <path id="STROKE_b2c1c9a0-fd5e-488e-9b55-ee48eac8e6fc" opacity="1.000" fill="none" stroke="#000000" stroke-width="2.072" stroke-opacity="1.000" stroke-linecap="round" stroke-linejoin="round" d="M 71.184 1053.242 Q 71.226 1053.360 71.042 1054.572 Q 70.859 1055.784 71.250 1057.559 Q 71.642 1059.333 72.028 1060.380 Q 72.413 1061.427 72.735 1062.028 Q 73.057 1062.629 73.314 1062.830 Q 73.572 1063.032 73.982 1062.606 "></path>
    <path id="STROKE_085c731c-ed8f-4492-9814-99069ef1b7f3" opacity="1.000" fill="none" stroke="#000000" stroke-width="2.076" stroke-opacity="1.000" stroke-linecap="round" stroke-linejoin="round" d="M 68.145 1057.892 Q 68.406 1058.065 69.866 1058.455 Q 71.326 1058.845 72.165 1058.936 Q 73.003 1059.027 73.547 1058.970 Q 74.091 1058.913 75.255 1057.974 "></path>
    <path id="STROKE_4024fda2-c74c-4b43-80b2-6969336d603f" opacity="1.000" fill="none" stroke="#000000" stroke-width="1.124" stroke-opacity="1.000" stroke-linecap="round" stroke-linejoin="round" d="M 81.728 1057.505 Q 81.690 1057.386 81.709 1057.396 Q 81.727 1057.405 81.652 1057.282 Q 81.577 1057.160 81.497 1057.071 Q 81.418 1056.981 81.217 1056.965 Q 81.017 1056.948 80.880 1056.876 Q 80.743 1056.805 79.583 1057.340 Q 78.423 1057.876 77.777 1058.260 Q 77.130 1058.643 76.827 1058.927 Q 76.523 1059.210 76.458 1059.589 Q 76.445 1059.855 78.010 1059.768 Q 79.576 1059.681 80.940 1059.698 Q 82.305 1059.715 83.186 1059.950 Q 84.067 1060.184 84.522 1060.513 Q 84.977 1060.843 85.170 1061.089 Q 85.362 1061.336 85.536 1061.886 Q 85.710 1062.436 85.334 1063.075 Q 84.958 1063.715 84.575 1063.956 Q 84.193 1064.197 83.465 1064.598 Q 82.737 1064.999 81.850 1065.234 Q 80.962 1065.469 80.334 1065.448 Q 79.707 1065.426 79.476 1065.219 Q 79.244 1065.012 79.175 1064.908 "></path>
    <path id="STROKE_04dbec88-5f35-4174-adeb-7bb3ba7550e9" opacity="1.000" fill="none" stroke="#79ca42" stroke-width="1.418" stroke-opacity="1.000" stroke-linecap="round" stroke-linejoin="round" d="M -55.017 967.739 Q -54.858 967.785 -52.949 967.821 Q -51.039 967.856 -50.007 967.828 Q -48.974 967.800 -48.475 967.794 Q -47.976 967.789 -47.442 967.705 Q -46.909 967.621 -46.490 967.543 Q -46.071 967.465 -45.163 967.399 Q -44.254 967.333 -43.339 967.357 Q -42.423 967.382 -42.026 967.360 Q -41.629 967.338 -40.661 967.325 Q -39.693 967.311 -39.041 967.297 Q -38.389 967.282 -37.276 967.283 Q -36.163 967.284 -35.434 967.310 Q -34.705 967.336 -34.058 967.369 Q -33.411 967.403 -32.773 967.458 Q -32.134 967.512 -31.571 967.481 Q -31.009 967.450 -30.483 967.458 Q -29.956 967.467 -29.643 967.467 Q -29.329 967.467 -29.009 967.422 Q -28.689 967.377 -28.557 967.384 Q -28.424 967.391 -28.019 967.395 Q -27.615 967.400 -27.197 967.394 Q -26.778 967.389 -26.381 967.322 "></path>
    <path id="STROKE_4c4f8f83-83be-426e-8c33-9bc7d580f8b0" opacity="1.000" fill="none" stroke="#79ca42" stroke-width="1.904" stroke-opacity="1.000" stroke-linecap="round" stroke-linejoin="round" d="M -28.135 997.414 Q -27.999 997.342 -28.005 997.367 Q -27.967 997.412 -27.634 997.442 Q -27.301 997.473 -26.973 997.494 Q -26.645 997.515 -26.203 997.537 Q -25.760 997.559 -25.360 997.577 Q -24.959 997.595 -24.605 997.608 Q -24.251 997.621 -23.947 997.628 Q -23.644 997.635 -23.268 997.637 Q -22.892 997.638 -22.533 997.633 Q -22.174 997.628 -21.852 997.610 Q -21.531 997.591 -21.268 997.594 Q -21.004 997.596 -20.731 997.614 Q -20.458 997.630 -20.086 997.663 Q -19.715 997.695 -19.318 997.720 Q -18.922 997.746 -18.617 997.763 Q -18.313 997.780 -17.970 997.797 Q -17.626 997.815 -17.292 997.828 Q -16.957 997.842 -16.632 997.851 Q -16.307 997.861 -15.990 997.866 Q -15.674 997.872 -15.214 997.874 Q -14.753 997.876 -14.245 997.897 Q -13.737 997.917 -13.334 997.955 Q -12.932 997.993 -12.609 998.024 Q -12.286 998.055 -11.921 998.090 Q -11.556 998.124 -11.248 998.119 Q -10.939 998.113 -10.642 998.131 Q -10.345 998.149 -9.956 998.190 Q -9.567 998.231 -9.177 998.247 Q -8.787 998.264 -8.395 998.256 Q -8.003 998.248 -7.707 998.230 Q -7.411 998.212 -7.210 998.183 Q -7.010 998.154 -6.686 998.156 Q -6.362 998.157 -5.915 998.188 Q -5.469 998.220 -5.102 998.241 Q -4.735 998.263 -4.304 998.280 Q -3.874 998.297 -3.392 998.292 "></path>
    <path id="STROKE_1078e203-d1e5-4552-a90c-46241540ea2d" opacity="1.000" fill="none" stroke="#bd8ae6" stroke-width="1.528" stroke-opacity="1.000" stroke-linecap="round" stroke-linejoin="round" d="M 52.570 983.980 Q 52.457 983.809 53.540 988.920 Q 53.588 988.826 53.461 987.985 Q 53.335 987.143 53.435 986.453 Q 53.536 985.763 53.624 985.446 Q 53.712 985.128 53.858 984.857 Q 54.003 984.587 54.137 984.415 Q 54.270 984.244 54.383 984.178 Q 54.496 984.112 54.448 984.150 Q 54.400 984.187 54.539 984.098 Q 54.678 984.009 55.059 984.427 Q 55.440 984.846 55.946 985.544 Q 56.453 986.243 56.643 987.495 Q 56.631 987.492 56.760 986.743 Q 56.888 985.993 57.077 985.293 Q 57.267 984.592 57.584 984.125 Q 57.902 983.658 58.093 983.493 Q 58.283 983.328 58.371 983.280 Q 58.459 983.232 58.491 983.228 Q 58.524 983.225 58.606 983.232 Q 58.689 983.239 59.070 984.072 Q 59.452 984.905 59.679 985.421 Q 59.907 985.938 59.948 986.205 Q 59.988 986.472 60.082 987.043 Q 60.176 987.613 60.136 988.047 Q 60.096 988.482 60.716 989.057 Q 60.725 989.034 60.726 988.951 "></path>
    <path id="STROKE_7c950f6d-3efd-47fe-ac53-06bb6b428bbd" opacity="1.000" fill="none" stroke="#bd8ae6" stroke-width="2.293" stroke-opacity="1.000" stroke-linecap="round" stroke-linejoin="round" d="M 63.332 984.560 Q 63.340 984.585 63.588 986.048 Q 63.835 987.511 64.015 988.374 Q 64.194 989.236 64.200 989.274 "></path>
    <path id="STROKE_03e70949-3950-42ec-bfda-526d5b25714b" opacity="1.000" fill="none" stroke="#bd8ae6" stroke-width="1.305" stroke-opacity="1.000" stroke-linecap="round" stroke-linejoin="round" d="M 62.756 981.640 Q 62.845 981.636 62.876 981.658 Q 62.853 981.658 62.837 981.642 Q 62.876 981.658 62.892 981.674 "></path>
    <path id="STROKE_57c08568-38a7-4579-9c40-858c610d3ad0" opacity="1.000" fill="none" stroke="#bd8ae6" stroke-width="1.306" stroke-opacity="1.000" stroke-linecap="round" stroke-linejoin="round" d="M 66.713 984.985 Q 66.920 985.242 67.308 986.424 Q 67.697 987.606 67.708 989.519 Q 67.636 989.454 67.676 988.647 Q 67.717 987.840 67.887 987.155 Q 68.056 986.469 68.344 985.842 Q 68.633 985.215 68.877 984.890 Q 69.121 984.566 69.361 984.443 Q 69.601 984.321 69.774 984.429 Q 69.948 984.536 70.039 984.684 Q 70.129 984.831 70.188 984.949 Q 70.247 985.067 70.296 985.168 Q 70.345 985.270 70.644 985.870 Q 70.944 986.471 72.567 989.462 Q 72.506 989.443 72.494 989.432 "></path>
    <path id="STROKE_30f6f7f2-0dad-4afd-bba3-af28f442f1a6" opacity="1.000" fill="none" stroke="#bd8ae6" stroke-width="1.606" stroke-opacity="1.000" stroke-linecap="round" stroke-linejoin="round" d="M 73.426 985.324 Q 73.484 985.242 73.400 985.712 Q 73.316 986.183 73.466 986.883 Q 73.616 987.583 73.811 987.989 Q 74.007 988.395 74.222 988.701 Q 74.437 989.007 74.842 989.169 Q 75.247 989.331 75.659 989.368 Q 76.071 989.405 76.400 989.343 Q 76.728 989.282 76.931 989.011 Q 77.134 988.740 77.356 988.173 Q 77.579 987.606 77.595 986.597 Q 77.611 985.588 77.431 984.636 "></path>
    <path id="STROKE_df48c740-d594-47e2-99c9-7fda06ded766" opacity="1.000" fill="none" stroke="#bd8ae6" stroke-width="1.601" stroke-opacity="1.000" stroke-linecap="round" stroke-linejoin="round" d="M 82.182 983.346 Q 82.206 983.391 81.751 983.260 Q 81.297 983.129 80.714 983.365 Q 80.131 983.601 79.545 984.139 Q 78.959 984.678 78.660 985.074 Q 78.362 985.470 78.322 985.890 Q 78.573 986.036 79.139 986.029 Q 79.705 986.021 80.404 986.093 Q 81.102 986.164 81.523 986.276 Q 81.944 986.387 82.259 986.615 Q 82.573 986.843 82.781 987.167 Q 82.990 987.490 83.022 987.952 Q 83.054 988.414 83.044 988.682 Q 83.035 988.951 82.770 989.241 Q 82.506 989.530 82.133 989.783 Q 81.761 990.035 81.031 990.218 Q 80.301 990.401 79.366 990.116 "></path>
    <path id="STROKE_c5c1448e-e343-4896-9d73-1ad783a5e608" opacity="1.000" fill="none" stroke="#000000" stroke-width="1.552" stroke-opacity="1.000" stroke-linecap="round" stroke-linejoin="round" d="M -28.617 1023.539 Q -28.604 1023.719 -28.592 1024.685 Q -28.581 1025.651 -28.553 1026.219 Q -28.525 1026.787 -28.476 1027.027 Q -28.427 1027.267 -28.412 1027.275 "></path>
    <path id="STROKE_b8a679f4-8bff-4c95-95fd-290125b25152" opacity="1.000" fill="none" stroke="#000000" stroke-width="0.915" stroke-opacity="1.000" stroke-linecap="round" stroke-linejoin="round" d="M -29.782 1025.470 Q -29.759 1025.451 -28.539 1025.494 Q -27.319 1025.538 -27.219 1025.532 "></path>
    <path id="STROKE_0adc1ab3-15e0-4a82-8d07-077c57336c7f" opacity="1.000" fill="none" stroke="#000000" stroke-width="1.545" stroke-opacity="1.000" stroke-linecap="round" stroke-linejoin="round" d="M -22.530 1023.370 Q -22.652 1023.411 -22.138 1027.561 Q -22.138 1027.554 -22.143 1027.533 Q -22.148 1027.511 -22.159 1027.474 "></path>
    <path id="STROKE_4e4ccc76-88d9-43b9-880f-ce9be8eb7ce0" opacity="1.000" fill="none" stroke="#000000" stroke-width="1.268" stroke-opacity="1.000" stroke-linecap="round" stroke-linejoin="round" d="M -17.253 1024.360 Q -17.145 1024.758 -16.993 1028.086 Q -16.956 1027.958 -16.937 1027.361 Q -16.918 1026.765 -16.679 1026.253 Q -16.439 1025.742 -16.148 1025.567 Q -15.856 1025.392 -15.627 1025.370 Q -15.397 1025.347 -15.235 1025.344 Q -15.072 1025.340 -14.902 1025.794 Q -14.731 1026.249 -14.612 1026.983 Q -14.494 1027.717 -14.211 1028.321 Q -14.121 1028.321 -14.082 1028.203 "></path>
    <path id="STROKE_74d985cf-42a8-407d-a415-5db576120da7" opacity="1.000" fill="none" stroke="#000000" stroke-width="1.151" stroke-opacity="1.000" stroke-linecap="round" stroke-linejoin="round" d="M -11.800 1025.693 Q -11.897 1025.638 -12.260 1025.898 Q -12.622 1026.158 -12.827 1026.556 Q -13.031 1026.953 -13.063 1027.206 Q -13.095 1027.459 -13.081 1027.547 Q -13.066 1027.634 -12.814 1027.752 Q -12.562 1027.870 -12.169 1027.880 Q -11.775 1027.890 -11.650 1027.907 Q -11.525 1027.923 -11.049 1027.688 Q -10.573 1027.452 -10.419 1027.141 Q -10.265 1026.831 -10.317 1026.783 Q -10.369 1026.735 -10.443 1026.682 Q -10.516 1026.630 -10.888 1026.427 Q -11.259 1026.223 -11.423 1026.114 Q -11.587 1026.004 -11.723 1025.855 Q -11.860 1025.706 -11.910 1025.457 "></path>
    <path id="STROKE_ac05a20d-fc05-4198-9542-35c063d1fa51" opacity="1.000" fill="none" stroke="#000000" stroke-width="1.354" stroke-opacity="1.000" stroke-linecap="round" stroke-linejoin="round" d="M -9.513 1026.658 Q -9.517 1026.898 -9.510 1026.894 Q -9.528 1027.013 -9.356 1027.301 Q -9.184 1027.589 -8.877 1027.771 Q -8.570 1027.953 -8.211 1028.046 Q -7.852 1028.139 -7.674 1028.136 Q -7.497 1028.134 -7.427 1028.141 Q -7.358 1028.149 -6.983 1027.907 Q -6.608 1027.665 -6.532 1027.163 Q -6.456 1026.660 -6.472 1026.421 Q -6.488 1026.182 -6.583 1026.011 Q -6.678 1025.840 -6.756 1025.704 Q -6.833 1025.567 -6.885 1025.475 Q -6.937 1025.382 -6.944 1025.368 "></path>
    <path id="STROKE_938b3a0b-93ff-4b4b-aa12-b1c3ddbc6eac" opacity="1.000" fill="none" stroke="#000000" stroke-width="1.221" stroke-opacity="1.000" stroke-linecap="round" stroke-linejoin="round" d="M -5.698 1026.023 Q -5.700 1026.096 -5.555 1026.377 Q -5.410 1026.657 -4.886 1027.640 Q -4.862 1027.732 -4.955 1027.591 Q -5.047 1027.450 -5.059 1027.171 Q -5.070 1026.891 -4.862 1026.468 Q -4.655 1026.045 -3.358 1025.534 Q -2.062 1025.023 -1.983 1025.007 "></path>
    <path id="STROKE_a1e563ec-79a8-46fe-a0b8-3ffa3f2e32c3" opacity="1.000" fill="none" stroke="#000000" stroke-width="1.180" stroke-opacity="1.000" stroke-linecap="round" stroke-linejoin="round" d="M -71.496 1037.233 Q -71.493 1037.222 -71.486 1037.878 Q -71.478 1038.534 -71.472 1039.209 Q -71.467 1039.884 -71.457 1040.266 Q -71.447 1040.647 -71.404 1040.857 Q -71.360 1041.067 -71.247 1041.214 Q -71.134 1041.361 -70.983 1041.383 Q -70.832 1041.406 -70.055 1040.487 "></path>
    <path id="STROKE_3542765c-4d87-419b-b7dc-f09734197bad" opacity="1.000" fill="none" stroke="#000000" stroke-width="1.018" stroke-opacity="1.000" stroke-linecap="round" stroke-linejoin="round" d="M -72.725 1039.123 Q -72.620 1039.120 -72.199 1039.121 Q -71.777 1039.123 -71.370 1039.089 Q -70.962 1039.055 -70.462 1038.763 "></path>
    <path id="STROKE_98a53b6e-6a45-4446-ba8a-179fa09bbb06" opacity="1.000" fill="none" stroke="#000000" stroke-width="1.229" stroke-opacity="1.000" stroke-linecap="round" stroke-linejoin="round" d="M -68.426 1038.917 Q -68.426 1039.032 -68.388 1039.656 Q -68.351 1040.279 -68.380 1040.986 "></path>
    <path id="STROKE_5c79ac51-c50e-4074-97dc-1326d230add5" opacity="1.000" fill="none" stroke="#000000" stroke-width="1.729" stroke-opacity="1.000" stroke-linecap="round" stroke-linejoin="round" d="M -68.861 1036.828 Q -68.851 1036.829 -68.805 1036.914 Q -68.799 1036.914 -68.782 1036.911 Q -68.765 1036.909 -68.755 1036.906 "></path>
    <path id="STROKE_cb19aade-b4e1-4a79-bf3d-9bd9a4698f1a" opacity="1.000" fill="none" stroke="#000000" stroke-width="1.084" stroke-opacity="1.000" stroke-linecap="round" stroke-linejoin="round" d="M -66.799 1038.684 Q -66.884 1038.816 -66.419 1040.557 Q -66.443 1040.620 -66.488 1040.445 Q -66.534 1040.271 -66.546 1039.956 Q -66.558 1039.641 -66.496 1039.339 Q -66.433 1039.038 -66.359 1038.846 Q -66.285 1038.654 -66.193 1038.547 Q -66.101 1038.440 -66.045 1038.426 Q -65.988 1038.411 -65.925 1038.409 Q -65.862 1038.407 -65.796 1038.547 Q -65.731 1038.686 -65.625 1038.907 Q -65.520 1039.129 -65.267 1039.828 Q -65.263 1039.828 -65.259 1039.828 Q -65.245 1039.839 -65.255 1039.736 Q -65.265 1039.633 -65.199 1039.349 Q -65.133 1039.065 -65.031 1038.758 Q -64.930 1038.451 -64.865 1038.325 Q -64.801 1038.199 -64.632 1038.158 Q -64.587 1038.211 -64.427 1038.669 Q -64.267 1039.127 -64.186 1039.380 Q -64.106 1039.632 -64.059 1039.866 Q -64.013 1040.100 -63.943 1040.348 L -63.940 1040.348 "></path>
    <path id="STROKE_388e1cd6-161b-4265-b6b2-eacb35bd4a3c" opacity="1.000" fill="none" stroke="#000000" stroke-width="0.991" stroke-opacity="1.000" stroke-linecap="round" stroke-linejoin="round" d="M -62.632 1039.525 Q -62.664 1039.536 -62.501 1039.585 Q -62.337 1039.635 -62.125 1039.545 Q -61.912 1039.456 -61.700 1039.271 Q -61.489 1039.086 -61.394 1038.992 Q -61.299 1038.898 -61.237 1038.835 Q -61.175 1038.772 -61.149 1038.741 Q -61.124 1038.710 -61.109 1038.688 Q -61.095 1038.667 -61.050 1038.613 Q -61.004 1038.559 -60.951 1038.420 Q -60.899 1038.280 -60.907 1038.211 Q -60.916 1038.143 -60.944 1038.065 Q -60.972 1037.987 -61.120 1037.932 Q -61.268 1037.877 -61.464 1037.833 Q -61.660 1037.788 -61.859 1037.920 Q -62.059 1038.052 -62.218 1038.229 Q -62.377 1038.406 -62.470 1038.664 Q -62.563 1038.922 -62.585 1039.122 Q -62.607 1039.322 -62.572 1039.588 Q -62.538 1039.853 -62.417 1040.061 Q -62.296 1040.269 -62.145 1040.453 Q -61.994 1040.638 -61.781 1040.700 Q -61.567 1040.762 -61.218 1040.753 Q -60.868 1040.743 -60.165 1039.950 "></path>
    <path id="STROKE_5c35f3b3-30fe-443d-bb1b-457f66152bb7" opacity="1.000" fill="none" stroke="#000000" stroke-width="1.067" stroke-opacity="1.000" stroke-linecap="round" stroke-linejoin="round" d="M -40.432 1034.877 Q -40.433 1034.869 -40.424 1035.098 Q -40.415 1035.327 -40.406 1035.547 Q -40.398 1035.768 -40.380 1036.197 Q -40.363 1036.626 -40.353 1036.879 Q -40.344 1037.132 -40.241 1037.456 Q -40.138 1037.780 -40.042 1037.984 Q -39.947 1038.188 -39.806 1038.299 Q -39.665 1038.409 -39.464 1038.384 Q -39.264 1038.358 -38.876 1037.804 "></path>
    <path id="STROKE_6d43cf07-4625-465c-af0f-36acab2e668b" opacity="1.000" fill="none" stroke="#000000" stroke-width="1.413" stroke-opacity="1.000" stroke-linecap="round" stroke-linejoin="round" d="M -41.583 1036.180 Q -41.447 1036.159 -41.460 1036.160 Q -41.473 1036.162 -41.448 1036.157 Q -41.422 1036.152 -41.371 1036.151 Q -41.320 1036.150 -40.996 1036.138 Q -40.672 1036.125 -40.428 1036.115 Q -40.183 1036.105 -39.457 1035.682 "></path>
    <path id="STROKE_2e28f5e6-f046-4601-a8c3-c800372ee5fa" opacity="1.000" fill="none" stroke="#000000" stroke-width="1.080" stroke-opacity="1.000" stroke-linecap="round" stroke-linejoin="round" d="M -37.693 1036.219 Q -37.676 1036.186 -37.403 1038.064 "></path>
    <path id="STROKE_974a47c8-284e-400e-b8e7-58cce9c9273a" opacity="1.000" fill="none" stroke="#000000" stroke-width="0.873" stroke-opacity="1.000" stroke-linecap="round" stroke-linejoin="round" d="M -38.143 1033.840 Q -38.143 1033.850 -38.135 1033.903 "></path>
    <path id="STROKE_7af3d225-d17a-4ff1-bebf-3dbf11710f90" opacity="1.000" fill="none" stroke="#000000" stroke-width="0.904" stroke-opacity="1.000" stroke-linecap="round" stroke-linejoin="round" d="M -36.533 1036.061 Q -36.494 1036.085 -36.295 1036.532 Q -36.096 1036.980 -36.024 1037.224 Q -35.951 1037.468 -35.918 1037.651 Q -35.885 1037.835 -35.861 1038.123 Q -35.842 1038.100 -35.867 1037.677 Q -35.891 1037.253 -35.890 1036.939 Q -35.889 1036.626 -35.782 1036.422 Q -35.676 1036.219 -35.581 1036.143 Q -35.486 1036.066 -35.368 1036.069 Q -35.249 1036.071 -34.700 1037.628 Q -34.698 1037.739 -34.661 1037.325 Q -34.624 1036.912 -34.565 1036.582 Q -34.507 1036.253 -34.439 1036.040 Q -34.370 1035.827 -34.015 1035.612 Q -33.970 1035.685 -33.750 1036.207 Q -33.530 1036.729 -33.377 1037.177 Q -33.225 1037.625 -33.192 1037.984 Q -33.185 1037.984 -33.181 1037.984 "></path>
    <path id="STROKE_ac129981-e62d-4dd5-96a1-ef1eb699f899" opacity="1.000" fill="none" stroke="#000000" stroke-width="1.033" stroke-opacity="1.000" stroke-linecap="round" stroke-linejoin="round" d="M -32.316 1036.728 Q -32.348 1036.777 -32.258 1036.875 Q -32.167 1036.973 -32.041 1037.027 Q -31.915 1037.081 -31.754 1036.951 Q -31.594 1036.822 -31.444 1036.521 Q -31.293 1036.221 -31.244 1035.957 Q -31.194 1035.694 -31.191 1035.502 Q -31.188 1035.311 -31.295 1035.280 Q -31.401 1035.249 -31.567 1035.247 Q -31.733 1035.245 -31.892 1035.580 Q -32.051 1035.916 -32.115 1036.253 Q -32.178 1036.590 -32.189 1036.798 Q -32.201 1037.006 -32.191 1037.224 Q -32.180 1037.443 -32.101 1037.629 Q -32.022 1037.815 -31.828 1037.935 Q -31.633 1038.055 -31.214 1037.961 Q -30.794 1037.867 -30.487 1037.734 Q -30.180 1037.601 -29.994 1037.501 Q -29.809 1037.401 -29.714 1037.246 Q -29.619 1037.091 -29.603 1037.051 "></path>
    <path id="STROKE_cf12520b-a715-4047-b56c-09ccf6c53f38" opacity="1.000" fill="none" stroke="#000000" stroke-width="1.130" stroke-opacity="1.000" stroke-linecap="round" stroke-linejoin="round" d="M -44.251 1040.480 Q -44.264 1040.517 -44.098 1043.680 "></path>
    <path id="STROKE_34147376-9ac6-4492-8073-423755b89b41" opacity="1.000" fill="none" stroke="#000000" stroke-width="1.344" stroke-opacity="1.000" stroke-linecap="round" stroke-linejoin="round" d="M -45.447 1042.283 Q -45.360 1042.228 -45.171 1042.075 Q -44.982 1041.923 -44.794 1041.894 Q -44.605 1041.865 -44.408 1041.987 Q -44.211 1042.109 -44.016 1042.172 Q -43.821 1042.235 -43.341 1042.202 "></path>
    <path id="STROKE_10c94baa-8b19-46d5-9351-c4c848d8549c" opacity="1.000" fill="none" stroke="#000000" stroke-width="1.160" stroke-opacity="1.000" stroke-linecap="round" stroke-linejoin="round" d="M -38.784 1040.725 Q -38.816 1040.694 -38.705 1041.609 Q -38.595 1042.524 -38.660 1043.770 "></path>
    <path id="STROKE_487d3751-b873-4941-a016-5b4ff7c19320" opacity="1.000" fill="none" stroke="#000000" stroke-width="0.994" stroke-opacity="1.000" stroke-linecap="round" stroke-linejoin="round" d="M -34.449 1040.466 Q -34.443 1040.612 -34.444 1040.585 Q -34.439 1040.727 -34.440 1040.704 Q -34.439 1040.828 -34.385 1041.399 Q -34.331 1041.970 -34.235 1043.445 "></path>
    <path id="STROKE_fa0a3c1a-5731-4027-bab5-3c044048ad1f" opacity="1.000" fill="none" stroke="#000000" stroke-width="0.957" stroke-opacity="1.000" stroke-linecap="round" stroke-linejoin="round" d="M -34.227 1042.039 Q -34.217 1042.034 -34.043 1041.777 Q -33.870 1041.521 -33.686 1041.358 Q -33.502 1041.196 -33.356 1041.172 Q -33.209 1041.147 -33.144 1041.171 Q -33.079 1041.194 -33.008 1041.258 Q -32.937 1041.322 -32.725 1041.433 Q -32.513 1041.544 -32.405 1041.928 Q -32.298 1042.313 -32.269 1043.471 Q -32.262 1043.474 -32.245 1043.474 "></path>
    <path id="STROKE_699b349a-d807-4443-9346-2ec024f2ad17" opacity="1.000" fill="none" stroke="#000000" stroke-width="0.967" stroke-opacity="1.000" stroke-linecap="round" stroke-linejoin="round" d="M -30.470 1041.205 Q -30.582 1041.184 -30.582 1041.186 Q -30.583 1041.188 -30.584 1041.188 Q -30.585 1041.187 -30.624 1041.184 Q -30.663 1041.182 -30.721 1041.231 Q -30.779 1041.280 -30.939 1041.528 Q -31.099 1041.776 -31.171 1041.998 Q -31.243 1042.220 -31.262 1042.427 Q -31.280 1042.633 -31.263 1042.818 Q -31.246 1043.002 -31.036 1043.204 Q -30.827 1043.405 -30.332 1043.422 Q -29.836 1043.439 -29.569 1043.443 Q -29.301 1043.448 -29.145 1043.425 Q -28.990 1043.403 -28.900 1043.271 Q -28.810 1043.140 -28.748 1042.952 Q -28.686 1042.764 -28.658 1042.559 Q -28.631 1042.354 -28.658 1042.179 Q -28.686 1042.003 -28.749 1041.886 Q -28.812 1041.768 -28.954 1041.677 Q -29.095 1041.586 -29.332 1041.564 Q -29.569 1041.543 -29.762 1041.488 Q -29.954 1041.434 -30.066 1041.356 Q -30.178 1041.279 -30.296 1041.091 Q -30.414 1040.904 -30.418 1040.893 "></path>
    <path id="STROKE_e9bc02f0-2bc9-4bd4-92f7-3c756196fd99" opacity="1.000" fill="none" stroke="#000000" stroke-width="0.977" stroke-opacity="1.000" stroke-linecap="round" stroke-linejoin="round" d="M -27.781 1041.445 Q -27.797 1041.398 -27.764 1041.779 Q -27.731 1042.160 -27.636 1042.411 Q -27.542 1042.662 -27.471 1042.774 Q -27.399 1042.886 -27.304 1042.928 Q -27.210 1042.971 -27.088 1042.953 Q -26.966 1042.935 -26.821 1042.836 Q -26.677 1042.737 -26.514 1042.596 Q -26.352 1042.456 -26.280 1042.343 Q -26.208 1042.230 -26.171 1042.112 Q -26.134 1041.994 -26.116 1041.897 Q -26.097 1041.800 -26.085 1041.729 Q -26.072 1041.657 -26.062 1041.451 Q -26.052 1041.245 -26.197 1040.934 "></path>
    <path id="STROKE_85d388ec-5e39-415c-8d3a-6cc04d57c47d" opacity="1.000" fill="none" stroke="#000000" stroke-width="1.036" stroke-opacity="1.000" stroke-linecap="round" stroke-linejoin="round" d="M -25.274 1041.531 Q -25.291 1041.573 -24.974 1043.016 Q -24.989 1043.033 -24.983 1043.036 Q -24.978 1043.040 -24.973 1043.038 Q -24.969 1043.035 -24.940 1042.993 Q -24.910 1042.951 -24.893 1042.907 Q -24.876 1042.863 -24.872 1042.816 Q -24.868 1042.768 -24.830 1042.566 Q -24.793 1042.364 -24.726 1042.184 Q -24.659 1042.005 -24.513 1041.856 Q -24.367 1041.706 -24.271 1041.641 Q -24.175 1041.575 -24.091 1041.540 Q -24.007 1041.506 -23.973 1041.496 Q -23.939 1041.486 -23.794 1041.437 Q -23.649 1041.387 -23.353 1041.339 Q -23.058 1041.291 -22.805 1041.140 Q -22.553 1040.990 -22.525 1040.968 "></path>
    <path id="STROKE_5d7e7a82-d047-4992-a77f-a2c9df22f68b" opacity="1.000" fill="none" stroke="#000000" stroke-width="1.188" stroke-opacity="1.000" stroke-linecap="round" stroke-linejoin="round" d="M -65.894 1042.714 Q -65.934 1042.733 -65.877 1043.018 Q -65.820 1043.303 -65.666 1043.856 Q -65.512 1044.409 -65.389 1044.836 Q -65.267 1045.263 -65.131 1045.713 Q -64.996 1046.162 -64.924 1046.423 Q -64.852 1046.684 -64.791 1046.811 Q -64.731 1046.939 -64.673 1047.030 Q -64.615 1047.121 -64.524 1047.516 Q -64.433 1047.911 -64.404 1048.161 Q -64.376 1048.411 -64.209 1048.795 Q -64.043 1049.179 -63.978 1049.370 Q -63.912 1049.560 -63.893 1049.700 Q -63.874 1049.840 -63.848 1049.991 Q -63.822 1050.142 -63.779 1050.276 Q -63.736 1050.410 -63.718 1050.507 Q -63.701 1050.604 -63.697 1050.617 Q -63.692 1050.630 -63.680 1050.704 Q -63.668 1050.779 -63.639 1051.004 Q -63.634 1051.105 -63.643 1050.805 "></path>
    <path id="STROKE_f70eea26-2c0b-4f00-977e-d7e9926adaee" opacity="1.000" fill="none" stroke="#000000" stroke-width="0.988" stroke-opacity="1.000" stroke-linecap="round" stroke-linejoin="round" d="M -33.774 1045.570 Q -33.766 1045.540 -33.932 1046.103 Q -34.097 1046.666 -34.341 1047.553 Q -34.584 1048.439 -34.730 1048.852 Q -34.877 1049.264 -34.986 1049.592 Q -35.096 1049.921 -35.243 1050.568 Q -35.247 1050.569 -35.251 1050.569 Q -35.251 1050.563 -35.252 1050.557 "></path>
  </g>
</svg>