<?xml version="1.0" encoding="UTF-8" standalone="yes"?>
<svg xmlns="http://www.w3.org/2000/svg" xmlns:xlink="http://www.w3.org/1999/xlink" width="288.848pt" height="62.803pt" version="1.1" viewBox="-160.738 858.408 288.848 62.803">
  <!--
	Exported with Concepts: Smarter Sketching
	Version: 973 on iOS 14.5
	https://concepts.app/
	-->
  <title>Untitled 16</title>
  <desc>Drawing exported from Concepts: Smarter Sketching</desc>
  <defs></defs>
  <rect x="-160.738" y="858.408" width="288.848" height="62.803" stroke="none" fill="white"></rect>
  <g id="Pen" opacity="1.000">
    <path id="STROKE_83df9ed1-92f6-44e3-a73b-778f42126e52" opacity="1.000" fill="none" stroke="#5a6edc" stroke-width="2.110" stroke-opacity="1.000" stroke-linecap="round" stroke-linejoin="round" d="M -154.948 880.776 Q -155.344 880.945 -148.283 881.069 Q -141.221 881.194 -137.295 881.148 Q -133.369 881.102 -131.556 881.068 Q -129.743 881.033 -128.846 881.003 Q -127.949 880.972 -126.823 880.948 Q -125.697 880.923 -124.659 880.895 Q -123.621 880.866 -121.458 880.794 Q -119.295 880.721 -116.799 880.730 Q -114.303 880.738 -113.170 880.755 Q -112.036 880.773 -110.830 880.804 Q -109.623 880.836 -105.901 880.930 Q -102.178 881.025 -99.625 881.050 Q -97.071 881.075 -92.757 881.304 Q -88.442 881.533 -85.237 881.869 Q -82.033 882.206 -80.177 882.453 Q -78.322 882.699 -75.349 882.881 Q -72.376 883.064 -70.634 883.118 Q -68.892 883.172 -66.401 883.098 Q -66.485 883.234 -66.978 883.378 "></path>
    <path id="STROKE_59914b87-0ff1-4a47-b77e-13f93517f583" opacity="1.000" fill="none" stroke="#5a6edc" stroke-width="1.548" stroke-opacity="1.000" stroke-linecap="round" stroke-linejoin="round" d="M -154.430 901.045 Q -154.455 901.033 -154.614 900.980 L -154.614 900.968 Q -154.932 901.052 -151.343 901.114 Q -147.755 901.177 -142.481 900.954 Q -137.208 900.731 -134.301 900.692 Q -131.393 900.654 -126.607 900.682 Q -121.820 900.710 -118.026 900.867 Q -114.232 901.025 -112.397 901.132 Q -110.562 901.240 -106.787 901.435 Q -103.011 901.630 -100.902 901.640 Q -98.793 901.650 -97.463 901.608 Q -96.132 901.567 -92.689 901.447 Q -89.246 901.328 -86.718 901.266 Q -84.190 901.205 -80.090 901.271 Q -75.990 901.337 -72.406 901.522 Q -68.821 901.706 -66.487 901.995 Q -64.152 902.284 -62.390 902.209 Q -62.389 902.184 -62.388 902.173 Q -62.414 902.171 -62.450 902.170 Q -62.485 902.168 -62.530 902.166 "></path>
    <path id="STROKE_40eccfc4-3ca9-45e9-854a-1b6c890a8c95" opacity="1.000" fill="none" stroke="#5a6edc" stroke-width="2.102" stroke-opacity="1.000" stroke-linecap="round" stroke-linejoin="round" d="M -64.056 863.847 Q -63.925 863.810 -64.317 863.827 Q -64.450 864.053 -64.613 865.521 Q -64.776 866.990 -64.920 868.995 Q -65.063 871.001 -65.197 872.620 Q -65.331 874.240 -65.503 876.110 Q -65.675 877.980 -65.884 880.068 Q -66.094 882.155 -66.341 884.469 Q -66.354 884.471 -66.366 884.473 Q -66.347 884.707 -66.430 883.287 "></path>
    <path id="STROKE_ab701f7f-2443-4692-b98f-df2aff5305d8" opacity="1.000" fill="none" stroke="#5a6edc" stroke-width="2.640" stroke-opacity="1.000" stroke-linecap="round" stroke-linejoin="round" d="M -64.009 903.554 Q -64.061 903.673 -63.655 902.409 Q -63.660 902.367 -63.780 903.150 Q -63.901 903.933 -64.142 905.555 Q -64.383 907.176 -64.742 909.631 Q -65.101 912.086 -65.583 915.387 Q -65.571 915.390 -65.560 915.394 "></path>
    <path id="STROKE_9e556c6c-8cc9-4535-a722-6b3b54db0ec8" opacity="1.000" fill="none" stroke="#5a6edc" stroke-width="2.256" stroke-opacity="1.000" stroke-linecap="round" stroke-linejoin="round" d="M -65.495 915.707 Q -65.428 915.728 -64.660 915.070 Q -63.893 914.412 -63.143 913.749 Q -62.392 913.086 -61.401 912.198 Q -60.411 911.309 -59.459 910.450 Q -58.507 909.591 -57.134 908.344 Q -55.761 907.097 -54.075 905.542 Q -52.388 903.988 -51.076 902.806 Q -49.764 901.625 -48.368 900.423 Q -46.972 899.222 -45.966 898.375 Q -44.960 897.529 -43.763 896.523 Q -42.566 895.518 -41.397 894.607 Q -40.227 893.697 -38.655 892.517 Q -37.083 891.338 -35.548 890.085 Q -34.013 888.832 -32.548 887.533 Q -32.569 887.550 -32.532 887.491 Q -32.494 887.432 -32.582 887.498 Q -32.670 887.563 -32.835 887.787 Q -33.001 888.011 -33.589 888.208 "></path>
    <path id="STROKE_db49d11d-a1ce-4f6b-bd74-bad6b8999c20" opacity="1.000" fill="none" stroke="#5a6edc" stroke-width="2.395" stroke-opacity="1.000" stroke-linecap="round" stroke-linejoin="round" d="M -63.973 864.484 Q -64.177 864.433 -64.558 863.940 Q -64.399 863.762 -63.336 864.554 Q -62.272 865.346 -61.463 865.878 Q -60.653 866.409 -60.022 866.833 Q -59.390 867.256 -58.498 867.890 Q -57.605 868.524 -56.185 869.549 Q -54.765 870.573 -53.621 871.388 Q -52.477 872.203 -51.236 873.067 Q -49.995 873.931 -48.799 874.729 Q -47.603 875.528 -46.480 876.312 Q -45.356 877.095 -43.903 878.132 Q -42.451 879.169 -41.298 879.960 Q -40.144 880.752 -38.870 881.568 Q -37.595 882.384 -36.254 883.735 Q -34.913 885.087 -34.202 885.862 Q -33.491 886.637 -33.161 886.988 Q -32.832 887.340 -32.636 887.566 Q -32.655 887.517 -32.911 887.278 Q -33.166 887.039 -33.681 886.317 Q -33.382 886.408 -33.179 887.153 Q -33.436 887.189 -34.278 887.016 "></path>
    <path id="STROKE_0bdb0336-18b2-4ed2-bd0a-a6d216b28090" opacity="1.000" fill="none" stroke="#79ca42" stroke-width="1.249" stroke-opacity="1.000" stroke-linecap="round" stroke-linejoin="round" d="M -147.207 882.653 Q -147.180 882.648 -146.917 883.157 Q -146.653 883.666 -146.176 884.153 Q -145.700 884.641 -144.522 886.126 Q -143.344 887.611 -142.781 888.426 Q -142.219 889.240 -141.511 890.021 Q -140.803 890.801 -140.425 891.158 Q -140.046 891.516 -139.260 892.556 Q -138.474 893.597 -137.658 894.555 Q -136.842 895.514 -136.468 895.913 Q -136.093 896.312 -135.977 896.450 Q -135.860 896.589 -135.718 896.752 Q -135.577 896.914 -135.499 897.021 Q -135.422 897.127 -135.337 897.237 Q -135.252 897.348 -135.192 897.419 Q -135.132 897.490 -135.120 897.502 Q -135.107 897.513 -134.918 897.736 Q -134.728 897.959 -133.813 899.134 Q -133.858 899.080 -133.892 899.037 Q -133.813 899.134 -133.779 899.177 "></path>
    <path id="STROKE_96455638-6222-41f4-be19-4757a002a32b" opacity="1.000" fill="none" stroke="#79ca42" stroke-width="1.384" stroke-opacity="1.000" stroke-linecap="round" stroke-linejoin="round" d="M -127.663 882.917 Q -127.637 882.898 -126.952 883.602 Q -126.266 884.307 -125.766 885.037 Q -125.265 885.768 -124.826 886.369 Q -124.388 886.971 -124.031 887.333 Q -123.674 887.696 -122.319 889.360 Q -120.964 891.024 -120.232 891.861 Q -119.499 892.698 -119.020 893.258 Q -118.541 893.818 -118.170 894.270 Q -117.798 894.721 -117.358 895.157 Q -116.918 895.593 -116.651 895.872 Q -116.383 896.152 -116.257 896.296 Q -116.131 896.439 -116.131 896.435 Q -116.131 896.431 -115.977 896.617 Q -115.823 896.802 -115.455 897.148 Q -115.088 897.494 -114.797 897.760 Q -114.506 898.027 -114.297 898.265 Q -114.087 898.504 -113.854 898.766 Q -113.622 899.028 -113.057 899.718 "></path>
    <path id="STROKE_0c8f443d-0fbf-433c-9eff-3cda37768a9d" opacity="1.000" fill="none" stroke="#79ca42" stroke-width="1.464" stroke-opacity="1.000" stroke-linecap="round" stroke-linejoin="round" d="M -107.827 882.846 Q -107.856 882.938 -106.985 883.940 Q -106.114 884.943 -105.535 885.630 Q -104.956 886.318 -104.651 886.750 Q -104.345 887.182 -103.544 888.256 Q -102.742 889.329 -102.223 889.900 Q -101.703 890.472 -101.450 890.783 Q -101.198 891.095 -99.964 892.395 Q -98.730 893.694 -97.984 894.459 Q -97.238 895.224 -96.695 895.857 Q -96.153 896.491 -95.728 896.900 Q -95.303 897.310 -94.982 897.655 Q -94.661 898.000 -94.560 898.097 Q -94.458 898.194 -94.375 898.286 Q -94.292 898.379 -94.276 898.447 Q -94.261 898.515 -94.259 898.517 Q -94.256 898.520 -94.177 898.634 Q -94.098 898.748 -93.800 899.112 Q -93.502 899.477 -93.209 899.845 Q -93.209 899.866 -93.530 899.576 "></path>
    <path id="STROKE_296e770c-4c53-4b74-b1f7-2a0341198579" opacity="1.000" fill="none" stroke="#79ca42" stroke-width="1.386" stroke-opacity="1.000" stroke-linecap="round" stroke-linejoin="round" d="M -88.255 883.570 Q -88.156 883.727 -88.147 883.721 Q -88.164 883.734 -87.945 883.957 Q -87.727 884.179 -87.115 884.836 Q -86.502 885.493 -85.737 886.362 Q -84.971 887.230 -84.630 887.641 Q -84.289 888.051 -84.106 888.319 Q -83.924 888.587 -83.235 889.491 Q -82.547 890.395 -82.003 891.013 Q -81.459 891.630 -80.957 892.211 Q -80.455 892.791 -79.724 893.592 Q -78.994 894.393 -78.533 894.907 Q -78.072 895.420 -77.404 896.025 Q -76.736 896.630 -76.255 897.189 Q -75.774 897.749 -75.464 898.023 Q -75.154 898.297 -75.027 898.427 Q -74.899 898.558 -74.893 898.572 Q -74.887 898.586 -74.888 898.588 Q -74.889 898.590 -74.895 898.574 Q -74.902 898.557 -74.888 898.587 Q -74.875 898.617 -74.885 898.589 Q -74.896 898.561 -74.894 898.571 Q -74.893 898.580 -74.890 898.573 Q -74.887 898.566 -74.892 898.567 Q -74.897 898.568 -74.889 898.573 Q -74.881 898.579 -74.836 898.737 Q -74.792 898.895 -74.790 898.891 Q -74.931 898.810 -74.392 899.153 "></path>
    <path id="STROKE_ff302149-922c-42ed-838a-b502728e42b5" opacity="1.000" fill="none" stroke="#79ca42" stroke-width="1.752" stroke-opacity="1.000" stroke-linecap="round" stroke-linejoin="round" d="M -124.937 885.825 Q -124.944 885.802 -124.739 885.596 Q -124.534 885.389 -124.114 884.995 Q -123.694 884.601 -123.358 884.278 Q -123.023 883.955 -122.653 883.582 Q -122.283 883.209 -121.987 882.919 Q -121.690 882.629 -121.474 882.428 Q -121.259 882.228 -121.224 882.191 "></path>
    <path id="STROKE_6b17c5bd-de01-49ff-902c-2579dacf3210" opacity="1.000" fill="none" stroke="#79ca42" stroke-width="1.587" stroke-opacity="1.000" stroke-linecap="round" stroke-linejoin="round" d="M -122.538 887.635 Q -122.493 887.545 -120.977 886.110 Q -119.460 884.675 -117.262 882.591 "></path>
    <path id="STROKE_189fd3cb-c73b-4f9d-a1e2-e516b4935377" opacity="1.000" fill="none" stroke="#79ca42" stroke-width="1.163" stroke-opacity="1.000" stroke-linecap="round" stroke-linejoin="round" d="M -121.060 890.137 Q -121.017 890.091 -120.783 889.859 Q -120.548 889.628 -120.250 889.357 Q -119.953 889.086 -119.704 888.852 Q -119.456 888.619 -119.223 888.400 Q -118.990 888.182 -118.688 887.900 Q -118.386 887.618 -118.110 887.362 Q -117.833 887.106 -117.582 886.877 Q -117.330 886.648 -117.058 886.384 Q -116.786 886.121 -116.491 885.821 Q -116.196 885.522 -115.901 885.236 Q -115.605 884.951 -115.160 884.542 Q -114.715 884.133 -114.245 883.732 Q -113.776 883.331 -113.351 882.903 Q -112.926 882.476 -112.876 882.420 "></path>
    <path id="STROKE_19ee492d-7132-4772-a13e-7f1c99811a8b" opacity="1.000" fill="none" stroke="#79ca42" stroke-width="1.215" stroke-opacity="1.000" stroke-linecap="round" stroke-linejoin="round" d="M -118.832 892.601 Q -118.703 892.478 -118.411 892.128 Q -118.120 891.777 -117.787 891.357 Q -117.455 890.937 -117.177 890.628 Q -116.899 890.319 -116.564 889.981 Q -116.229 889.643 -115.974 889.394 Q -115.719 889.145 -115.457 888.905 Q -115.196 888.666 -114.821 888.249 Q -114.446 887.832 -114.024 887.348 Q -113.603 886.864 -113.405 886.660 Q -113.207 886.456 -112.910 886.156 Q -112.613 885.855 -112.407 885.593 Q -112.200 885.331 -111.852 884.984 Q -111.504 884.636 -111.239 884.414 Q -110.973 884.192 -110.799 884.085 Q -110.624 883.979 -110.520 883.894 Q -110.415 883.808 -110.397 883.780 Q -110.379 883.751 -110.201 883.486 Q -110.024 883.220 -109.700 882.712 "></path>
    <path id="STROKE_d2c71ba1-e209-4841-b230-6bf0c69e15d9" opacity="1.000" fill="none" stroke="#79ca42" stroke-width="1.253" stroke-opacity="1.000" stroke-linecap="round" stroke-linejoin="round" d="M -117.278 895.040 Q -117.229 894.976 -117.198 894.935 Q -117.167 894.893 -117.157 894.885 Q -117.147 894.877 -117.186 894.903 Q -117.225 894.929 -116.992 894.682 Q -116.758 894.434 -116.264 893.921 Q -115.771 893.408 -115.351 892.931 Q -114.931 892.455 -114.583 892.013 Q -114.235 891.571 -113.924 891.174 Q -113.614 890.777 -113.339 890.424 Q -113.064 890.070 -112.843 889.796 Q -112.622 889.523 -112.375 889.234 Q -112.128 888.945 -111.688 888.586 Q -111.249 888.227 -110.911 887.918 Q -110.574 887.609 -110.184 887.225 Q -109.794 886.841 -109.460 886.496 Q -109.125 886.152 -108.719 885.705 Q -108.313 885.258 -107.945 884.977 Q -107.576 884.695 -106.760 883.843 "></path>
    <path id="STROKE_f7be6c6f-4429-49d4-a563-9012c969d789" opacity="1.000" fill="none" stroke="#79ca42" stroke-width="1.254" stroke-opacity="1.000" stroke-linecap="round" stroke-linejoin="round" d="M -115.269 896.592 Q -115.054 896.408 -114.594 895.913 Q -114.133 895.417 -113.728 894.985 Q -113.322 894.553 -113.095 894.287 Q -112.867 894.022 -112.058 893.180 Q -111.248 892.338 -110.375 891.231 Q -109.502 890.123 -109.100 889.520 Q -108.699 888.917 -107.836 888.125 Q -106.973 887.333 -105.894 886.317 "></path>
    <path id="STROKE_edf82350-0c78-4e9d-8a7a-9b564403a6d1" opacity="1.000" fill="none" stroke="#79ca42" stroke-width="1.276" stroke-opacity="1.000" stroke-linecap="round" stroke-linejoin="round" d="M -113.284 898.848 Q -113.111 898.715 -112.785 898.379 Q -112.459 898.043 -112.150 897.739 Q -111.841 897.436 -111.641 897.237 Q -111.441 897.038 -111.051 896.636 Q -110.662 896.234 -110.392 895.953 Q -110.122 895.672 -109.263 894.689 Q -108.403 893.706 -107.953 893.118 Q -107.503 892.529 -106.889 891.910 Q -106.274 891.292 -105.340 890.441 Q -104.406 889.590 -103.921 889.147 Q -103.435 888.704 -103.401 888.673 "></path>
    <path id="STROKE_d4f5f479-6868-49e4-8f22-4ede5429b9ac" opacity="1.000" fill="none" stroke="#79ca42" stroke-width="1.336" stroke-opacity="1.000" stroke-linecap="round" stroke-linejoin="round" d="M -110.031 899.970 Q -110.132 900.070 -109.736 899.616 Q -109.341 899.163 -108.970 898.730 Q -108.600 898.297 -108.132 897.751 Q -107.664 897.205 -107.300 896.790 Q -106.936 896.375 -106.666 896.077 Q -106.397 895.778 -106.124 895.440 Q -105.851 895.102 -105.574 894.724 Q -105.296 894.346 -105.070 894.048 Q -104.843 893.750 -104.576 893.419 Q -104.310 893.088 -104.115 892.894 Q -103.920 892.700 -103.749 892.514 Q -103.579 892.328 -103.475 892.222 Q -103.372 892.117 -103.257 892.017 Q -103.142 891.917 -103.021 891.818 Q -102.900 891.718 -102.850 891.680 Q -102.800 891.642 -102.657 891.512 Q -102.513 891.381 -102.043 890.763 "></path>
    <path id="STROKE_d6e9cb4f-ddf5-4834-8707-2fa40228b20b" opacity="1.000" fill="none" stroke="#79ca42" stroke-width="1.232" stroke-opacity="1.000" stroke-linecap="round" stroke-linejoin="round" d="M -99.712 892.770 Q -99.711 892.763 -99.691 892.677 Q -99.674 892.645 -99.835 892.856 Q -99.996 893.068 -100.337 893.526 Q -100.678 893.984 -100.941 894.328 Q -101.203 894.671 -101.478 895.011 Q -101.752 895.352 -102.339 895.931 Q -102.927 896.510 -103.360 896.942 Q -103.794 897.374 -104.033 897.628 Q -104.272 897.882 -104.431 898.054 Q -104.591 898.225 -104.718 898.365 Q -104.845 898.504 -105.026 898.688 Q -105.208 898.871 -105.163 898.829 Q -105.119 898.786 -105.516 899.146 Q -105.914 899.506 -106.530 900.394 "></path>
    <path id="STROKE_dc883d2f-bf22-4dc8-8395-d892a378c4e0" opacity="1.000" fill="none" stroke="#79ca42" stroke-width="1.468" stroke-opacity="1.000" stroke-linecap="round" stroke-linejoin="round" d="M -98.609 894.828 Q -98.614 894.833 -98.565 894.741 Q -98.717 894.868 -98.687 894.840 Q -98.771 894.918 -99.051 895.236 Q -99.331 895.555 -99.819 896.133 Q -100.307 896.712 -100.767 897.247 Q -101.227 897.783 -101.654 898.271 Q -102.081 898.758 -102.531 899.310 Q -102.981 899.862 -103.447 900.468 "></path>
    <path id="STROKE_88736368-96c9-43aa-b3af-3018e1745f8d" opacity="1.000" fill="none" stroke="#79ca42" stroke-width="1.395" stroke-opacity="1.000" stroke-linecap="round" stroke-linejoin="round" d="M -96.677 896.726 Q -96.679 896.729 -96.927 897.049 Q -97.175 897.370 -97.654 897.985 Q -98.132 898.600 -98.491 899.071 Q -98.849 899.542 -99.217 900.047 Q -99.585 900.552 -99.614 900.587 "></path>
    <path id="STROKE_2b0703e8-c7e1-4dcf-b7a3-3655f117645d" opacity="1.000" fill="none" stroke="#79ca42" stroke-width="1.867" stroke-opacity="1.000" stroke-linecap="round" stroke-linejoin="round" d="M -95.584 898.714 Q -95.593 898.734 -95.942 899.333 Q -96.291 899.933 -96.323 899.992 "></path>
    <path id="STROKE_8f0ff455-b589-4e21-b733-f058ded4c273" opacity="1.000" fill="none" stroke="#000000" stroke-width="1.934" stroke-opacity="1.000" stroke-linecap="round" stroke-linejoin="round" d="M -124.486 868.643 Q -124.575 868.957 -124.258 875.105 Q -124.246 875.105 -124.232 875.105 Q -124.236 875.111 -124.158 874.407 Q -124.081 873.703 -123.992 873.284 Q -123.904 872.864 -123.732 872.454 Q -123.560 872.044 -123.300 871.762 Q -123.040 871.481 -122.795 871.431 Q -122.551 871.381 -122.420 871.485 Q -122.289 871.589 -122.121 871.948 Q -121.954 872.307 -121.837 872.572 Q -121.720 872.838 -121.495 873.911 "></path>
    <path id="STROKE_aa05b4eb-d392-46dc-a5e7-5bf6404eff20" opacity="1.000" fill="none" stroke="#000000" stroke-width="1.365" stroke-opacity="1.000" stroke-linecap="round" stroke-linejoin="round" d="M -118.334 871.310 Q -118.394 871.262 -118.778 871.497 Q -119.162 871.731 -119.457 872.292 Q -119.751 872.853 -119.795 873.261 Q -119.839 873.669 -119.676 873.967 Q -119.513 874.266 -119.236 874.349 Q -118.960 874.433 -118.692 874.446 Q -118.424 874.459 -118.197 874.403 Q -117.970 874.346 -117.716 874.154 Q -117.462 873.962 -117.371 873.799 Q -117.280 873.636 -117.256 873.342 Q -117.232 873.048 -117.341 872.787 Q -117.450 872.526 -117.905 872.256 Q -118.359 871.986 -118.778 871.149 "></path>
    <path id="STROKE_c3e0a4d5-03fe-4df8-9865-860a5805e7e2" opacity="1.000" fill="none" stroke="#000000" stroke-width="1.501" stroke-opacity="1.000" stroke-linecap="round" stroke-linejoin="round" d="M -115.961 871.904 Q -116.013 871.953 -116.033 872.256 Q -116.052 872.559 -115.932 872.716 Q -115.812 872.872 -115.639 873.024 Q -115.466 873.176 -115.025 873.299 Q -114.585 873.421 -114.275 873.431 Q -113.966 873.440 -113.879 873.456 Q -113.793 873.472 -113.715 873.391 Q -113.637 873.310 -113.594 873.268 Q -113.552 873.226 -113.380 872.879 Q -113.208 872.531 -113.173 872.224 Q -113.137 871.916 -113.142 871.777 Q -113.147 871.637 -113.209 871.599 Q -113.271 871.561 -113.632 870.937 Q -113.625 870.963 -113.624 870.981 Q -113.632 870.937 -113.632 870.919 "></path>
    <path id="STROKE_30ac64b0-8b97-458a-92b3-256282ca06e2" opacity="1.000" fill="none" stroke="#000000" stroke-width="1.455" stroke-opacity="1.000" stroke-linecap="round" stroke-linejoin="round" d="M -111.516 871.237 Q -111.626 871.501 -111.408 871.992 Q -111.191 872.483 -110.982 872.719 Q -110.773 872.955 -110.729 873.663 Q -110.748 873.676 -110.769 873.682 Q -110.740 873.726 -110.762 872.915 Q -110.784 872.103 -110.819 871.594 Q -110.855 871.085 -110.703 870.813 Q -110.551 870.542 -110.434 870.392 Q -110.317 870.243 -108.020 870.290 "></path>
    <path id="STROKE_c637feb6-11ac-4c2b-ad43-58f6cc5c691a" opacity="1.000" fill="none" stroke="#000000" stroke-width="1.496" stroke-opacity="1.000" stroke-linecap="round" stroke-linejoin="round" d="M -127.994 872.945 Q -127.940 872.990 -130.375 872.899 L -130.375 872.905 Q -130.405 872.901 -130.287 872.702 Q -130.327 872.701 -130.350 872.709 Q -130.259 872.934 -129.948 875.456 Q -129.936 875.456 -129.926 875.456 Q -129.916 875.456 -129.903 875.455 "></path>
    <path id="STROKE_8f3c67e4-8663-47f0-a97b-187e236d7644" opacity="1.000" fill="none" stroke="#000000" stroke-width="1.261" stroke-opacity="1.000" stroke-linecap="round" stroke-linejoin="round" d="M -108.243 873.224 Q -108.250 873.268 -107.018 873.029 Q -107.080 873.048 -107.131 873.068 Q -107.018 873.029 -106.968 873.009 "></path>
    <path id="STROKE_01a1e751-f864-4345-8a23-cd903038d4e9" opacity="1.000" fill="none" stroke="#000000" stroke-width="1.343" stroke-opacity="1.000" stroke-linecap="round" stroke-linejoin="round" d="M -106.348 873.029 Q -106.332 872.967 -106.336 872.876 Q -106.378 872.873 -106.372 872.878 Q -106.366 872.884 -106.383 872.871 Q -106.399 872.858 -106.513 873.944 Q -106.628 875.030 -106.639 875.118 "></path>
    <path id="STROKE_f732c478-c78d-4055-a2e6-2493e0732f27" opacity="1.000" fill="none" stroke="#5a6edc" stroke-width="1.331" stroke-opacity="1.000" stroke-linecap="round" stroke-linejoin="round" d="M 18.060 887.660 Q 17.888 887.646 17.166 887.347 Q 17.167 887.214 17.174 887.237 Q 17.368 887.163 17.323 887.185 Q 17.342 887.181 17.345 887.169 Q 17.349 887.156 17.543 887.136 Q 17.737 887.116 18.708 887.147 Q 19.679 887.177 20.523 887.259 Q 21.367 887.341 21.801 887.379 Q 22.235 887.417 22.494 887.396 Q 22.752 887.374 26.761 887.600 Q 30.770 887.825 33.090 887.923 Q 35.410 888.020 36.453 888.062 Q 37.497 888.103 38.308 888.144 Q 39.119 888.185 39.554 888.205 Q 39.989 888.224 40.995 888.289 Q 42.002 888.353 44.730 888.442 Q 47.459 888.530 51.352 888.593 Q 55.245 888.656 57.258 888.682 Q 59.271 888.708 60.176 888.731 Q 61.081 888.754 62.199 888.768 Q 63.317 888.781 63.871 888.790 Q 64.425 888.799 65.155 888.807 Q 65.885 888.815 67.804 888.838 Q 69.724 888.860 71.307 888.973 Q 72.889 889.085 73.830 889.182 Q 74.771 889.280 76.322 889.364 Q 77.874 889.448 80.505 889.640 Q 83.136 889.831 84.415 890.048 Q 85.694 890.265 88.993 890.376 Q 92.292 890.486 93.947 890.520 Q 95.602 890.553 96.648 890.575 Q 97.693 890.596 98.209 890.600 Q 98.725 890.604 100.137 890.615 Q 101.549 890.625 102.482 890.631 Q 103.416 890.638 103.838 890.605 Q 104.260 890.572 104.600 890.563 Q 104.939 890.555 105.836 890.732 "></path>
    <path id="STROKE_6e07fb22-2320-43ba-a858-d57ab59b415d" opacity="1.000" fill="none" stroke="#5a6edc" stroke-width="1.184" stroke-opacity="1.000" stroke-linecap="round" stroke-linejoin="round" d="M 18.004 894.506 Q 18.009 894.499 18.871 894.382 Q 19.733 894.265 21.127 894.375 Q 22.521 894.485 24.468 894.652 Q 26.415 894.819 27.503 894.866 Q 28.591 894.913 29.281 894.957 Q 29.971 895.000 30.390 895.033 Q 30.809 895.066 31.079 895.089 Q 31.348 895.113 31.784 895.151 Q 32.220 895.190 32.843 895.246 Q 33.465 895.302 33.770 895.331 Q 34.075 895.360 34.686 895.410 Q 35.297 895.460 35.822 895.494 Q 36.348 895.528 36.938 895.567 Q 37.529 895.605 38.396 895.648 Q 39.263 895.690 40.906 895.835 Q 42.548 895.980 43.428 896.054 Q 44.308 896.128 45.217 896.164 Q 46.126 896.199 48.709 896.303 Q 51.293 896.406 53.232 896.426 Q 55.171 896.446 56.014 896.439 Q 56.858 896.432 57.758 896.429 Q 58.658 896.426 60.871 896.417 Q 63.084 896.407 64.363 896.390 Q 65.641 896.373 67.067 896.380 Q 68.493 896.386 70.387 896.390 Q 72.281 896.394 75.325 896.449 Q 78.369 896.503 80.032 896.507 Q 81.695 896.510 82.925 896.516 Q 84.155 896.522 84.926 896.534 Q 85.698 896.546 87.383 896.605 Q 89.068 896.663 90.854 896.714 Q 92.640 896.764 93.735 896.788 Q 94.830 896.812 96.519 896.810 Q 98.209 896.808 99.977 896.775 Q 101.745 896.742 103.139 896.728 Q 104.534 896.715 106.299 896.904 Q 108.064 897.093 108.070 897.094 "></path>
    <path id="STROKE_1b611fc8-f94b-4235-b781-d31d9cc1fce0" opacity="1.000" fill="none" stroke="#5a6edc" stroke-width="2.274" stroke-opacity="1.000" stroke-linecap="round" stroke-linejoin="round" d="M 106.455 885.286 Q 106.444 885.254 106.494 884.801 Q 106.470 884.802 106.541 884.789 Q 106.611 884.776 106.585 885.652 Q 106.558 886.528 106.445 887.085 Q 106.332 887.643 106.235 888.437 Q 106.137 889.231 106.095 889.784 Q 106.053 890.338 106.053 890.356 "></path>
    <path id="STROKE_05fe1ccf-065e-42a3-8ca1-cbb771e37d96" opacity="1.000" fill="none" stroke="#5a6edc" stroke-width="2.336" stroke-opacity="1.000" stroke-linecap="round" stroke-linejoin="round" d="M 106.978 897.603 Q 107.155 897.537 106.196 904.953 Q 106.226 904.954 106.251 904.942 Q 106.276 904.930 106.302 904.905 "></path>
    <path id="STROKE_134fa391-cf5d-4a2b-9103-4db8ddd54b44" opacity="1.000" fill="none" stroke="#5a6edc" stroke-width="1.742" stroke-opacity="1.000" stroke-linecap="round" stroke-linejoin="round" d="M 122.142 894.231 Q 121.996 894.352 121.209 894.828 Q 120.421 895.304 119.432 896.076 Q 118.443 896.847 117.316 897.587 Q 116.189 898.327 115.514 898.731 Q 114.839 899.134 114.170 899.577 Q 113.500 900.020 113.094 900.263 Q 112.687 900.507 111.814 901.054 Q 110.942 901.602 110.351 902.141 Q 109.760 902.679 109.498 902.995 Q 109.236 903.311 108.880 903.538 Q 108.524 903.766 107.897 904.196 Q 107.270 904.627 105.804 905.259 Q 105.804 905.271 105.804 905.289 Q 106.033 905.293 105.968 905.292 Q 105.998 905.292 106.029 905.293 Q 106.059 905.293 106.071 905.294 "></path>
    <path id="STROKE_59dec6b2-e163-44f2-890d-7acdf9e56e77" opacity="1.000" fill="none" stroke="#5a6edc" stroke-width="1.987" stroke-opacity="1.000" stroke-linecap="round" stroke-linejoin="round" d="M 122.529 894.016 Q 122.593 894.103 122.728 894.143 Q 122.986 893.856 121.253 892.737 Q 119.521 891.617 118.478 890.936 Q 117.435 890.254 116.784 889.829 Q 116.133 889.404 115.713 889.132 Q 115.294 888.860 114.768 888.503 Q 114.242 888.146 113.357 887.572 Q 112.471 886.999 112.001 886.641 Q 111.532 886.282 110.973 886.071 Q 110.413 885.861 110.074 885.694 Q 109.734 885.527 109.588 885.396 Q 109.441 885.265 109.285 885.045 Q 109.129 884.825 108.911 884.659 Q 108.693 884.494 108.563 884.414 Q 108.433 884.335 108.372 884.298 Q 108.311 884.261 108.291 884.248 Q 108.272 884.236 108.223 884.206 Q 108.175 884.175 108.060 884.085 Q 107.945 883.996 107.785 883.926 Q 107.625 883.857 107.601 883.856 "></path>
    <path id="STROKE_8aec7c87-4ed6-4961-ae35-8e73b99cdd5d" opacity="1.000" fill="none" stroke="#79ca42" stroke-width="2.391" stroke-opacity="1.000" stroke-linecap="round" stroke-linejoin="round" d="M -85.640 886.292 Q -85.629 886.250 -85.497 886.126 Q -85.366 886.002 -85.299 885.921 Q -85.232 885.841 -85.137 885.747 Q -85.041 885.653 -85.011 885.590 Q -84.982 885.528 -84.648 885.214 Q -84.314 884.900 -84.116 884.741 Q -83.919 884.582 -83.770 884.473 Q -83.622 884.365 -83.287 884.146 Q -82.952 883.927 -82.892 883.877 "></path>
    <path id="STROKE_f5afbb53-0550-49ae-b64f-03fce53be66b" opacity="1.000" fill="none" stroke="#79ca42" stroke-width="1.807" stroke-opacity="1.000" stroke-linecap="round" stroke-linejoin="round" d="M -84.096 888.581 Q -84.130 888.586 -83.858 888.383 Q -83.586 888.180 -82.620 887.439 Q -81.653 886.699 -81.018 886.119 Q -80.383 885.538 -79.986 885.187 Q -79.589 884.836 -79.553 884.801 "></path>
    <path id="STROKE_d927f4c2-212a-41da-945a-d0811ebd462b" opacity="1.000" fill="none" stroke="#79ca42" stroke-width="1.618" stroke-opacity="1.000" stroke-linecap="round" stroke-linejoin="round" d="M -81.893 890.288 Q -81.975 890.293 -81.357 889.698 Q -80.739 889.103 -79.834 888.409 Q -78.929 887.716 -78.425 887.236 Q -77.921 886.757 -76.765 885.674 Q -75.609 884.591 -75.574 884.549 "></path>
    <path id="STROKE_f5f8153c-05a7-4d52-991c-425c9c29a513" opacity="1.000" fill="none" stroke="#79ca42" stroke-width="1.327" stroke-opacity="1.000" stroke-linecap="round" stroke-linejoin="round" d="M -79.794 892.778 Q -79.800 892.777 -79.828 892.773 Q -79.751 892.587 -79.199 892.154 Q -78.646 891.722 -77.635 890.551 Q -76.623 889.379 -76.127 888.753 Q -75.632 888.126 -74.694 887.228 Q -73.756 886.329 -73.162 885.764 Q -72.568 885.198 -72.052 884.525 "></path>
    <path id="STROKE_f068184a-0062-406d-bd59-45862987a78d" opacity="1.000" fill="none" stroke="#79ca42" stroke-width="1.308" stroke-opacity="1.000" stroke-linecap="round" stroke-linejoin="round" d="M -77.862 895.442 Q -77.928 895.469 -77.420 894.879 Q -76.912 894.288 -76.338 893.692 Q -75.763 893.096 -74.988 892.108 Q -74.213 891.121 -73.598 890.379 Q -72.984 889.637 -72.234 888.894 Q -71.485 888.151 -70.538 887.329 "></path>
    <path id="STROKE_96a40b5d-f1c3-4ab5-9e89-18e6761aacc8" opacity="1.000" fill="none" stroke="#79ca42" stroke-width="1.537" stroke-opacity="1.000" stroke-linecap="round" stroke-linejoin="round" d="M -76.303 897.781 Q -76.277 897.792 -75.551 897.122 Q -74.826 896.453 -74.028 895.660 Q -73.230 894.867 -72.631 894.248 Q -72.032 893.630 -68.619 890.014 "></path>
    <path id="STROKE_8b301de4-d030-4bf1-992c-01733e15be96" opacity="1.000" fill="none" stroke="#79ca42" stroke-width="1.693" stroke-opacity="1.000" stroke-linecap="round" stroke-linejoin="round" d="M -74.039 898.922 Q -74.033 898.911 -72.588 897.757 Q -71.142 896.604 -70.149 895.742 Q -69.155 894.879 -68.385 894.317 Q -67.615 893.755 -67.266 893.427 Q -66.918 893.100 -66.685 892.848 Q -66.451 892.596 -66.010 892.073 Q -65.568 891.550 -65.540 891.520 "></path>
    <path id="STROKE_6fba69f6-93ca-4e5c-a627-4d2e70997817" opacity="1.000" fill="none" stroke="#79ca42" stroke-width="1.552" stroke-opacity="1.000" stroke-linecap="round" stroke-linejoin="round" d="M -69.831 899.666 Q -69.718 899.454 -69.742 899.497 Q -69.765 899.541 -69.751 899.498 Q -69.737 899.455 -69.702 899.407 Q -69.667 899.358 -68.899 898.696 Q -68.131 898.035 -67.252 897.222 Q -66.373 896.410 -65.841 895.895 Q -65.308 895.381 -64.972 895.049 Q -64.635 894.717 -63.389 893.501 "></path>
    <path id="STROKE_06fa3cac-c193-4734-a76e-ee33cf71c5de" opacity="1.000" fill="none" stroke="#79ca42" stroke-width="2.171" stroke-opacity="1.000" stroke-linecap="round" stroke-linejoin="round" d="M -65.820 900.008 Q -65.887 900.019 -64.692 898.872 Q -63.497 897.725 -63.421 897.648 "></path>
    <path id="STROKE_2bf6691d-f509-4fcb-bc68-3a59a560d390" opacity="1.000" fill="none" stroke="#79ca42" stroke-width="1.804" stroke-opacity="1.000" stroke-linecap="round" stroke-linejoin="round" d="M -147.572 882.910 Q -147.579 882.913 -147.338 882.781 Q -147.347 882.584 -148.914 884.012 Q -150.480 885.439 -152.020 886.620 Q -153.560 887.801 -155.377 889.419 Q -155.327 889.414 -155.287 889.387 "></path>
    <path id="STROKE_f7653a56-a0e0-4a78-9fdb-348b44b44c22" opacity="1.000" fill="none" stroke="#79ca42" stroke-width="1.649" stroke-opacity="1.000" stroke-linecap="round" stroke-linejoin="round" d="M -147.158 885.901 Q -147.148 885.849 -147.725 886.412 Q -148.303 886.974 -150.463 889.165 Q -152.624 891.356 -152.812 891.535 "></path>
    <path id="STROKE_230e8630-3921-431b-8601-28cbdb63fcc9" opacity="1.000" fill="none" stroke="#79ca42" stroke-width="2.158" stroke-opacity="1.000" stroke-linecap="round" stroke-linejoin="round" d="M -144.066 888.562 Q -144.266 888.687 -145.032 889.581 Q -145.798 890.474 -146.882 891.560 Q -147.965 892.646 -149.651 893.932 Q -151.337 895.219 -153.172 897.185 Q -153.161 897.141 -153.049 896.870 "></path>
    <path id="STROKE_c3238c3d-2c13-4467-aee1-3917a029b783" opacity="1.000" fill="none" stroke="#79ca42" stroke-width="2.028" stroke-opacity="1.000" stroke-linecap="round" stroke-linejoin="round" d="M -142.134 891.417 Q -141.954 891.399 -143.801 893.165 Q -145.648 894.931 -149.361 898.667 "></path>
    <path id="STROKE_1278c7ef-5f9a-4253-b8d2-ed45359265af" opacity="1.000" fill="none" stroke="#79ca42" stroke-width="1.939" stroke-opacity="1.000" stroke-linecap="round" stroke-linejoin="round" d="M -139.824 892.945 Q -139.816 892.940 -139.766 892.918 Q -139.677 892.989 -140.971 894.311 Q -142.265 895.632 -143.135 896.534 Q -144.005 897.435 -144.609 898.711 "></path>
    <path id="STROKE_24a052de-4b61-4b65-85f6-1c46ba0a6aa4" opacity="1.000" fill="none" stroke="#79ca42" stroke-width="1.910" stroke-opacity="1.000" stroke-linecap="round" stroke-linejoin="round" d="M -138.147 896.071 Q -138.037 896.044 -140.332 898.707 "></path>
    <path id="STROKE_262b7c5a-58df-492f-9df9-f8228575cfc1" opacity="1.000" fill="none" stroke="#79ca42" stroke-width="1.665" stroke-opacity="1.000" stroke-linecap="round" stroke-linejoin="round" d="M -153.573 883.257 Q -153.517 883.155 -153.654 883.402 Q -153.791 883.650 -155.722 885.292 "></path>
    <path id="STROKE_7e1db6a3-0017-489d-80b9-e51c6e0ec5bc" opacity="1.000" fill="none" stroke="#79ca42" stroke-width="1.152" stroke-opacity="1.000" stroke-linecap="round" stroke-linejoin="round" d="M 45.005 889.230 Q 45.147 889.296 45.142 889.295 Q 45.296 889.353 45.318 889.359 Q 45.340 889.366 45.335 889.378 Q 45.585 889.554 46.906 890.209 Q 48.227 890.864 49.130 891.449 Q 50.032 892.034 50.670 892.249 Q 51.307 892.464 52.167 892.731 Q 53.027 892.998 53.443 893.149 Q 53.858 893.300 54.390 893.607 Q 54.923 893.913 55.756 894.213 Q 56.589 894.512 57.260 894.886 Q 57.260 894.894 57.260 894.902 "></path>
    <path id="STROKE_75322618-e759-469b-9a7f-682636c7d963" opacity="1.000" fill="none" stroke="#79ca42" stroke-width="1.268" stroke-opacity="1.000" stroke-linecap="round" stroke-linejoin="round" d="M 67.395 889.942 Q 67.302 889.842 67.599 890.070 Q 67.896 890.297 68.837 890.523 Q 69.778 890.748 70.532 890.868 Q 71.286 890.987 71.914 891.479 Q 72.543 891.972 73.400 892.319 Q 74.256 892.665 74.754 892.850 Q 75.251 893.034 75.726 893.372 Q 76.201 893.710 76.729 893.949 Q 77.258 894.189 77.557 894.176 Q 77.856 894.163 78.052 894.259 Q 78.248 894.355 78.326 894.398 Q 78.405 894.441 78.585 894.536 Q 78.766 894.631 78.871 894.688 Q 78.976 894.744 78.990 894.751 Q 79.005 894.758 78.969 894.731 Q 78.934 894.704 80.339 895.417 Q 80.328 895.410 80.325 895.402 Q 80.363 895.422 80.374 895.431 "></path>
    <path id="STROKE_616be40d-71fa-4156-bb5e-b21d52c4b2aa" opacity="1.000" fill="none" stroke="#79ca42" stroke-width="1.216" stroke-opacity="1.000" stroke-linecap="round" stroke-linejoin="round" d="M 89.140 891.557 Q 89.517 891.642 89.429 891.627 Q 89.415 891.618 89.729 891.712 Q 90.044 891.806 90.688 892.002 Q 91.332 892.199 91.840 892.367 Q 92.349 892.536 92.908 892.745 Q 93.468 892.954 93.731 893.048 Q 93.994 893.142 94.706 893.261 Q 95.418 893.381 95.911 893.605 Q 96.405 893.829 96.656 894.044 Q 96.908 894.258 97.115 894.467 Q 97.323 894.675 97.608 894.925 Q 97.894 895.176 98.730 895.171 Q 99.565 895.165 100.415 895.462 Q 101.265 895.759 101.293 895.776 "></path>
    <path id="STROKE_9522c0f4-8e5e-4252-ac44-5cd20c619e0e" opacity="1.000" fill="none" stroke="#79ca42" stroke-width="1.703" stroke-opacity="1.000" stroke-linecap="round" stroke-linejoin="round" d="M 49.865 890.870 Q 50.049 890.557 49.979 890.646 Q 49.909 890.736 50.200 890.383 Q 50.490 890.030 50.525 889.980 "></path>
    <path id="STROKE_620b3a46-a9a8-4854-a276-b520eee38825" opacity="1.000" fill="none" stroke="#79ca42" stroke-width="1.835" stroke-opacity="1.000" stroke-linecap="round" stroke-linejoin="round" d="M 52.092 892.019 Q 52.439 891.775 53.144 890.829 Q 53.849 889.883 53.931 889.756 "></path>
    <path id="STROKE_bef0aff0-44c3-4795-bcda-a80aa977bb78" opacity="1.000" fill="none" stroke="#79ca42" stroke-width="1.507" stroke-opacity="1.000" stroke-linecap="round" stroke-linejoin="round" d="M 55.437 893.818 Q 55.414 893.828 56.047 892.992 Q 56.680 892.156 57.859 890.393 "></path>
    <path id="STROKE_d702b999-e7fa-43fa-bb2c-030dd31d9753" opacity="1.000" fill="none" stroke="#79ca42" stroke-width="1.716" stroke-opacity="1.000" stroke-linecap="round" stroke-linejoin="round" d="M 58.203 895.409 Q 58.071 895.596 59.732 893.240 Q 61.394 890.883 61.468 890.775 "></path>
    <path id="STROKE_6304b224-0732-4050-9978-7b5c2aa1376d" opacity="1.000" fill="none" stroke="#79ca42" stroke-width="1.407" stroke-opacity="1.000" stroke-linecap="round" stroke-linejoin="round" d="M 62.106 895.134 Q 62.261 895.080 63.629 893.002 Q 64.998 890.923 65.069 890.831 "></path>
    <path id="STROKE_822ac4e4-4581-4398-b51e-4ae6967ea673" opacity="1.000" fill="none" stroke="#79ca42" stroke-width="1.493" stroke-opacity="1.000" stroke-linecap="round" stroke-linejoin="round" d="M 65.618 894.844 Q 65.664 894.782 66.264 893.761 Q 66.863 892.741 68.030 890.904 "></path>
    <path id="STROKE_12f219ea-2b9a-4fd0-b3f5-6436517ca456" opacity="1.000" fill="none" stroke="#79ca42" stroke-width="2.490" stroke-opacity="1.000" stroke-linecap="round" stroke-linejoin="round" d="M 69.141 894.716 Q 69.221 894.691 69.468 894.331 Q 69.714 893.971 70.101 893.237 Q 70.488 892.503 70.672 892.053 Q 70.856 891.602 70.884 891.504 "></path>
    <path id="STROKE_29a6b733-949c-4c2e-bc3b-566dfa078a32" opacity="1.000" fill="none" stroke="#79ca42" stroke-width="1.880" stroke-opacity="1.000" stroke-linecap="round" stroke-linejoin="round" d="M 73.490 894.343 Q 73.466 894.414 74.097 893.626 "></path>
    <path id="STROKE_230ac304-0263-4200-a960-5e6a16f28f58" opacity="1.000" fill="none" stroke="#79ca42" stroke-width="1.857" stroke-opacity="1.000" stroke-linecap="round" stroke-linejoin="round" d="M 97.478 892.152 Q 97.455 892.087 96.451 893.186 "></path>
    <path id="STROKE_422cf729-8074-42ba-bda4-62959285fac3" opacity="1.000" fill="none" stroke="#79ca42" stroke-width="1.429" stroke-opacity="1.000" stroke-linecap="round" stroke-linejoin="round" d="M 100.201 893.454 Q 100.244 893.335 99.865 893.786 Q 99.486 894.236 99.225 894.590 Q 98.964 894.943 98.932 895.005 "></path>
    <path id="STROKE_758b39f6-8bf7-4571-9114-48816c50eb72" opacity="1.000" fill="none" stroke="#79ca42" stroke-width="1.165" stroke-opacity="1.000" stroke-linecap="round" stroke-linejoin="round" d="M 101.803 894.960 Q 101.704 895.040 101.466 895.257 Q 101.229 895.473 101.202 895.506 "></path>
    <path id="STROKE_287f882d-8c31-44cc-98b7-6ad60cd65a52" opacity="1.000" fill="none" stroke="#79ca42" stroke-width="1.235" stroke-opacity="1.000" stroke-linecap="round" stroke-linejoin="round" d="M 22.491 888.689 Q 22.478 888.760 24.602 889.638 Q 26.727 890.516 28.079 891.055 Q 29.432 891.594 30.029 891.975 Q 30.626 892.356 31.356 892.782 Q 32.086 893.207 32.841 893.439 Q 33.596 893.671 34.015 893.806 Q 34.435 893.940 34.951 894.307 Q 35.467 894.674 36.269 894.757 Q 36.207 894.755 36.165 894.744 Q 36.269 894.757 36.311 894.768 "></path>
    <path id="STROKE_99edda04-aacf-47c9-b2a8-4da263ba96f9" opacity="1.000" fill="none" stroke="#79ca42" stroke-width="1.857" stroke-opacity="1.000" stroke-linecap="round" stroke-linejoin="round" d="M 20.617 888.821 Q 20.843 888.725 20.799 888.740 Q 20.842 888.717 20.948 888.676 Q 20.825 888.947 20.794 888.913 Q 20.879 889.024 17.507 891.302 "></path>
    <path id="STROKE_9afa8601-bf2a-4337-a526-64fbfa81c29e" opacity="1.000" fill="none" stroke="#79ca42" stroke-width="2.096" stroke-opacity="1.000" stroke-linecap="round" stroke-linejoin="round" d="M 22.743 890.514 Q 22.636 890.593 21.666 891.690 Q 20.696 892.787 20.598 892.923 "></path>
    <path id="STROKE_7d277d7d-4b31-4e82-bf19-7637dc1ad57b" opacity="1.000" fill="none" stroke="#79ca42" stroke-width="1.411" stroke-opacity="1.000" stroke-linecap="round" stroke-linejoin="round" d="M 25.853 891.640 Q 25.786 891.669 24.329 893.170 "></path>
    <path id="STROKE_be2558af-2875-49f7-aa2d-8a161210e885" opacity="1.000" fill="none" stroke="#79ca42" stroke-width="1.803" stroke-opacity="1.000" stroke-linecap="round" stroke-linejoin="round" d="M 28.188 892.654 Q 28.011 892.865 27.581 893.326 Q 27.151 893.788 27.036 893.905 "></path>
    <path id="STROKE_fe37c423-2312-47f7-af18-3cf720f0caec" opacity="1.000" fill="none" stroke="#79ca42" stroke-width="1.904" stroke-opacity="1.000" stroke-linecap="round" stroke-linejoin="round" d="M 30.990 893.665 Q 31.006 893.632 30.942 893.774 Q 30.879 893.917 30.878 893.935 "></path>
    <path id="STROKE_b50eb425-d83c-4faa-bc86-d5e7f3dad4aa" opacity="1.000" fill="none" stroke="#79ca42" stroke-width="1.468" stroke-opacity="1.000" stroke-linecap="round" stroke-linejoin="round" d="M 93.343 892.611 Q 93.298 892.629 93.975 892.168 "></path>
    <path id="STROKE_c8fb2054-a4f7-47b6-b773-0bf8c13f8e5e" opacity="1.000" fill="none" stroke="#79ca42" stroke-width="1.438" stroke-opacity="1.000" stroke-linecap="round" stroke-linejoin="round" d="M 100.820 892.183 Q 101.007 891.876 100.131 892.975 Q 99.255 894.075 99.183 894.175 "></path>
    <path id="STROKE_b0c9b6f9-2c09-42b0-812f-3cfd721e9903" opacity="1.000" fill="none" stroke="#79ca42" stroke-width="1.436" stroke-opacity="1.000" stroke-linecap="round" stroke-linejoin="round" d="M 101.637 895.298 Q 101.751 895.228 102.380 894.578 Q 103.009 893.927 103.418 893.277 Q 103.828 892.627 103.917 892.501 "></path>
    <path id="STROKE_47c6ff66-6116-45af-8129-3a352755f16f" opacity="1.000" fill="none" stroke="#79ca42" stroke-width="2.100" stroke-opacity="1.000" stroke-linecap="round" stroke-linejoin="round" d="M 103.970 895.282 Q 104.154 895.205 104.112 895.209 Q 104.269 895.059 104.269 895.075 Q 104.360 895.002 104.681 894.715 Q 105.002 894.428 105.080 894.336 "></path>
    <path id="STROKE_bd2830e0-83c0-4b81-9a67-5870615a79df" opacity="1.000" fill="none" stroke="#000000" stroke-width="1.934" stroke-opacity="1.000" stroke-linecap="round" stroke-linejoin="round" d="M 49.872 876.312 Q 49.784 876.627 50.100 882.775 Q 50.112 882.775 50.126 882.775 Q 50.123 882.780 50.200 882.076 Q 50.278 881.373 50.366 880.953 Q 50.455 880.533 50.627 880.123 Q 50.799 879.713 51.059 879.432 Q 51.319 879.150 51.563 879.100 Q 51.807 879.051 51.938 879.155 Q 52.070 879.259 52.237 879.618 Q 52.405 879.977 52.521 880.242 Q 52.638 880.507 52.863 881.581 "></path>
    <path id="STROKE_81846206-78a1-4125-a539-22bfc53107e1" opacity="1.000" fill="none" stroke="#000000" stroke-width="1.365" stroke-opacity="1.000" stroke-linecap="round" stroke-linejoin="round" d="M 56.024 878.979 Q 55.964 878.932 55.580 879.166 Q 55.196 879.401 54.902 879.962 Q 54.607 880.523 54.563 880.931 Q 54.519 881.338 54.682 881.637 Q 54.845 881.935 55.122 882.019 Q 55.399 882.103 55.666 882.116 Q 55.934 882.129 56.161 882.072 Q 56.389 882.016 56.642 881.824 Q 56.896 881.632 56.987 881.469 Q 57.078 881.306 57.102 881.012 Q 57.127 880.717 57.017 880.456 Q 56.908 880.195 56.454 879.925 Q 55.999 879.655 55.580 878.819 "></path>
    <path id="STROKE_1e48164d-57a9-4da7-af95-bb011a429086" opacity="1.000" fill="none" stroke="#000000" stroke-width="1.501" stroke-opacity="1.000" stroke-linecap="round" stroke-linejoin="round" d="M 58.398 879.574 Q 58.345 879.622 58.326 879.926 Q 58.306 880.229 58.426 880.385 Q 58.546 880.542 58.719 880.694 Q 58.893 880.845 59.333 880.968 Q 59.773 881.091 60.083 881.100 Q 60.393 881.110 60.479 881.126 Q 60.566 881.142 60.644 881.061 Q 60.722 880.979 60.764 880.938 Q 60.806 880.896 60.978 880.548 Q 61.150 880.201 61.185 879.893 Q 61.221 879.586 61.216 879.446 Q 61.211 879.306 61.149 879.268 Q 61.087 879.231 60.726 878.607 Q 60.734 878.632 60.734 878.650 Q 60.726 878.607 60.726 878.588 "></path>
    <path id="STROKE_a60c86aa-14b1-462d-98ba-734d554511d0" opacity="1.000" fill="none" stroke="#000000" stroke-width="1.455" stroke-opacity="1.000" stroke-linecap="round" stroke-linejoin="round" d="M 62.843 878.906 Q 62.732 879.170 62.950 879.661 Q 63.167 880.152 63.376 880.389 Q 63.585 880.625 63.629 881.333 Q 63.610 881.345 63.589 881.351 Q 63.619 881.396 63.597 880.584 Q 63.574 879.773 63.539 879.264 Q 63.504 878.755 63.655 878.483 Q 63.807 878.211 63.924 878.062 Q 64.041 877.913 66.338 877.959 "></path>
    <path id="STROKE_7f81ce71-5cd8-4cb5-82d6-d4bef7999c34" opacity="1.000" fill="none" stroke="#000000" stroke-width="1.496" stroke-opacity="1.000" stroke-linecap="round" stroke-linejoin="round" d="M 46.364 880.615 Q 46.419 880.659 43.983 880.568 L 43.983 880.574 Q 43.953 880.570 44.071 880.372 Q 44.032 880.371 44.009 880.378 Q 44.099 880.603 44.411 883.125 Q 44.423 883.125 44.432 883.125 Q 44.442 883.125 44.456 883.125 "></path>
    <path id="STROKE_aae162e7-43ee-4930-bad8-224be58a8a01" opacity="1.000" fill="none" stroke="#000000" stroke-width="1.261" stroke-opacity="1.000" stroke-linecap="round" stroke-linejoin="round" d="M 66.115 880.894 Q 66.109 880.938 67.340 880.698 Q 67.278 880.717 67.228 880.737 Q 67.340 880.698 67.391 880.679 "></path>
    <path id="STROKE_94941493-6815-45dc-b335-2e5fb74a10c3" opacity="1.000" fill="none" stroke="#000000" stroke-width="1.343" stroke-opacity="1.000" stroke-linecap="round" stroke-linejoin="round" d="M 68.010 880.699 Q 68.026 880.636 68.023 880.545 Q 67.981 880.543 67.986 880.548 Q 67.992 880.553 67.975 880.540 Q 67.959 880.527 67.845 881.613 Q 67.731 882.699 67.719 882.788 "></path>
    <path id="STROKE_5ad1ee0a-f88b-4a2b-930d-7504fc247960" opacity="1.000" fill="none" stroke="#bd8ae6" stroke-width="1.186" stroke-opacity="1.000" stroke-linecap="round" stroke-linejoin="round" d="M -141.886 885.219 Q -141.686 885.057 -139.020 882.197 "></path>
    <path id="STROKE_636696a7-a364-4603-a0a2-3d32e2470b38" opacity="1.000" fill="none" stroke="#bd8ae6" stroke-width="1.469" stroke-opacity="1.000" stroke-linecap="round" stroke-linejoin="round" d="M -140.432 888.712 Q -140.279 888.572 -140.283 888.569 Q -140.442 888.742 -139.558 887.964 Q -138.675 887.186 -137.932 886.461 Q -137.189 885.736 -136.682 885.115 Q -136.175 884.495 -135.879 884.105 Q -135.582 883.716 -135.213 883.245 "></path>
    <path id="STROKE_ef55ec5b-290a-446c-9d5a-b4fb98cdf5c8" opacity="1.000" fill="none" stroke="#bd8ae6" stroke-width="1.513" stroke-opacity="1.000" stroke-linecap="round" stroke-linejoin="round" d="M -137.896 891.020 Q -137.907 891.019 -136.983 890.203 Q -136.059 889.388 -135.320 888.688 Q -134.580 887.989 -134.164 887.565 Q -133.749 887.141 -133.248 886.595 Q -132.748 886.049 -132.028 885.301 Q -131.308 884.554 -130.728 883.988 Q -130.148 883.421 -129.895 883.119 Q -129.641 882.818 -129.586 882.730 "></path>
    <path id="STROKE_fc20dafd-491c-4c0e-9849-4adcec45f2bd" opacity="1.000" fill="none" stroke="#bd8ae6" stroke-width="1.298" stroke-opacity="1.000" stroke-linecap="round" stroke-linejoin="round" d="M -134.898 893.573 Q -134.689 893.311 -134.699 893.329 Q -134.731 893.338 -134.451 893.027 Q -134.172 892.717 -133.885 892.406 Q -133.597 892.095 -133.210 891.683 Q -132.823 891.271 -132.475 890.898 Q -132.127 890.525 -131.665 890.030 Q -131.203 889.535 -130.743 889.027 Q -130.284 888.519 -129.884 888.084 Q -129.483 887.648 -129.140 887.279 Q -128.797 886.911 -128.311 886.506 Q -127.825 886.102 -127.196 885.660 "></path>
    <path id="STROKE_fd423b84-9768-483a-ae9f-67b7a32f5598" opacity="1.000" fill="none" stroke="#bd8ae6" stroke-width="1.455" stroke-opacity="1.000" stroke-linecap="round" stroke-linejoin="round" d="M -133.416 896.392 Q -133.408 896.128 -133.021 895.626 Q -132.634 895.123 -132.251 894.689 Q -131.867 894.255 -131.359 893.727 Q -130.852 893.199 -130.377 892.683 Q -129.902 892.167 -129.558 891.794 Q -129.214 891.421 -128.846 891.026 Q -128.478 890.632 -128.091 890.228 Q -127.704 889.823 -127.302 889.422 Q -126.900 889.021 -126.485 888.626 Q -126.070 888.231 -125.634 887.826 "></path>
    <path id="STROKE_0ba89ed5-6be1-46d0-b8f7-dfbaaa2dcca0" opacity="1.000" fill="none" stroke="#bd8ae6" stroke-width="1.534" stroke-opacity="1.000" stroke-linecap="round" stroke-linejoin="round" d="M -130.261 897.971 Q -130.121 897.886 -129.727 897.482 Q -129.332 897.079 -128.974 896.701 Q -128.617 896.322 -128.167 895.842 Q -127.718 895.362 -127.183 894.796 Q -126.648 894.229 -126.189 893.758 Q -125.731 893.286 -125.412 892.969 Q -125.092 892.652 -124.759 892.332 Q -124.426 892.012 -124.079 891.688 Q -123.731 891.365 -123.366 891.029 "></path>
    <path id="STROKE_709c983a-e6c3-46a0-a812-eb27624543aa" opacity="1.000" fill="none" stroke="#bd8ae6" stroke-width="1.337" stroke-opacity="1.000" stroke-linecap="round" stroke-linejoin="round" d="M -126.508 898.141 Q -126.493 898.150 -126.045 897.697 Q -125.596 897.243 -125.149 896.785 Q -124.701 896.327 -124.096 895.705 Q -123.490 895.083 -123.021 894.600 Q -122.551 894.118 -122.063 893.613 Q -121.575 893.109 -121.524 893.044 "></path>
    <path id="STROKE_24c72182-ac09-4487-91ff-96cb0be61e05" opacity="1.000" fill="none" stroke="#bd8ae6" stroke-width="1.244" stroke-opacity="1.000" stroke-linecap="round" stroke-linejoin="round" d="M -123.356 898.544 Q -122.915 898.102 -122.964 898.174 Q -123.013 898.247 -122.257 897.429 Q -121.500 896.611 -119.966 894.939 "></path>
    <path id="STROKE_a598ac2f-9497-4a16-b33e-1d8c671e37e0" opacity="1.000" fill="none" stroke="#bd8ae6" stroke-width="1.554" stroke-opacity="1.000" stroke-linecap="round" stroke-linejoin="round" d="M -120.284 898.501 Q -120.318 898.500 -120.148 898.343 Q -119.978 898.186 -119.500 897.725 Q -119.022 897.264 -118.243 896.499 Q -118.619 896.841 -119.311 897.469 Q -119.174 897.336 -118.933 897.107 Q -118.693 896.878 -118.602 896.783 "></path>
    <path id="STROKE_f88d90b6-055b-40ea-9c80-15fa98e1531c" opacity="1.000" fill="none" stroke="#bd8ae6" stroke-width="1.375" stroke-opacity="1.000" stroke-linecap="round" stroke-linejoin="round" d="M -103.886 884.241 Q -103.864 884.252 -103.816 884.253 Q -103.769 884.254 -103.765 884.247 Q -103.762 884.240 -103.755 884.236 Q -103.747 884.233 -103.626 884.157 Q -103.506 884.080 -103.057 883.766 Q -102.607 883.453 -102.515 883.378 "></path>
    <path id="STROKE_821d7923-f1a8-4f47-a6df-100ac70b4bf3" opacity="1.000" fill="none" stroke="#bd8ae6" stroke-width="1.483" stroke-opacity="1.000" stroke-linecap="round" stroke-linejoin="round" d="M -101.596 887.465 Q -101.665 887.411 -101.445 887.147 Q -101.225 886.883 -100.723 886.422 Q -100.220 885.960 -99.713 885.526 Q -99.206 885.092 -98.697 884.689 Q -98.189 884.286 -97.672 883.843 Q -97.155 883.401 -96.633 882.911 "></path>
    <path id="STROKE_e6f3189f-0978-48cf-969c-5aecf91b8627" opacity="1.000" fill="none" stroke="#bd8ae6" stroke-width="1.439" stroke-opacity="1.000" stroke-linecap="round" stroke-linejoin="round" d="M -99.286 889.971 Q -98.951 889.604 -98.959 889.614 Q -98.917 889.543 -98.557 889.185 Q -98.196 888.827 -97.849 888.491 Q -97.502 888.155 -97.052 887.728 Q -96.602 887.302 -96.047 886.796 Q -95.492 886.290 -95.008 885.870 Q -94.525 885.449 -94.189 885.169 Q -93.853 884.890 -93.504 884.610 Q -93.155 884.331 -92.792 884.053 Q -92.430 883.774 -92.048 883.486 "></path>
    <path id="STROKE_68fb3729-c61c-4793-a96a-5874b546bd60" opacity="1.000" fill="none" stroke="#bd8ae6" stroke-width="1.364" stroke-opacity="1.000" stroke-linecap="round" stroke-linejoin="round" d="M -96.945 892.780 Q -96.914 892.771 -96.510 892.383 Q -96.105 891.996 -95.709 891.612 Q -95.313 891.228 -94.794 890.723 Q -94.274 890.218 -93.796 889.755 Q -93.317 889.292 -92.972 888.961 Q -92.628 888.631 -92.260 888.284 Q -91.892 887.936 -91.506 887.579 Q -91.120 887.222 -90.720 886.863 Q -90.320 886.505 -89.910 886.151 Q -89.500 885.797 -89.076 885.441 Q -89.278 885.679 -89.457 885.897 Q -89.323 885.773 -89.264 885.715 Q -89.205 885.657 -89.146 885.604 "></path>
    <path id="STROKE_d982fa56-e8c7-4b67-a6ab-d68782f7f7bf" opacity="1.000" fill="none" stroke="#bd8ae6" stroke-width="1.428" stroke-opacity="1.000" stroke-linecap="round" stroke-linejoin="round" d="M -94.632 895.028 Q -94.695 894.967 -94.370 894.614 Q -94.046 894.262 -93.703 893.921 Q -93.360 893.580 -92.897 893.142 Q -92.434 892.704 -92.020 892.317 Q -91.606 891.930 -91.058 891.426 Q -90.509 890.922 -89.940 890.412 Q -89.371 889.902 -88.789 889.359 Q -88.208 888.816 -87.607 888.232 "></path>
    <path id="STROKE_aca7aba9-7cf8-45dd-99a2-4b1e6b1bc068" opacity="1.000" fill="none" stroke="#bd8ae6" stroke-width="1.382" stroke-opacity="1.000" stroke-linecap="round" stroke-linejoin="round" d="M -92.233 897.957 Q -92.271 897.817 -91.957 897.405 Q -91.644 896.993 -91.299 896.610 Q -90.953 896.227 -90.569 895.853 Q -90.186 895.479 -89.895 895.198 Q -89.605 894.917 -89.283 894.607 Q -88.961 894.297 -88.609 893.963 Q -88.257 893.629 -87.877 893.277 Q -87.497 892.926 -87.095 892.566 Q -86.693 892.206 -86.272 891.846 Q -85.852 891.486 -85.417 891.130 Q -84.982 890.773 -84.533 890.409 Q -84.602 890.518 -84.651 890.609 Q -84.555 890.500 -84.515 890.449 "></path>
    <path id="STROKE_bc904bd0-a3c2-467f-a416-b703b2c42b6b" opacity="1.000" fill="none" stroke="#bd8ae6" stroke-width="1.475" stroke-opacity="1.000" stroke-linecap="round" stroke-linejoin="round" d="M -89.597 899.748 Q -89.557 899.710 -89.079 899.253 Q -88.601 898.797 -88.136 898.352 Q -87.672 897.907 -87.072 897.328 Q -86.471 896.750 -85.982 896.304 Q -85.493 895.858 -85.166 895.565 Q -84.839 895.272 -84.516 894.987 Q -84.194 894.701 -83.886 894.430 Q -83.578 894.158 -83.295 893.907 Q -83.011 893.656 -82.760 893.431 Q -82.509 893.206 -82.281 892.999 Q -82.824 893.376 -83.320 893.715 Q -83.174 893.595 -83.108 893.544 Q -83.043 893.494 -82.978 893.447 "></path>
    <path id="STROKE_25df58db-d980-426f-b95e-bbf42fb6b038" opacity="1.000" fill="none" stroke="#bd8ae6" stroke-width="1.370" stroke-opacity="1.000" stroke-linecap="round" stroke-linejoin="round" d="M -85.263 899.232 Q -85.302 899.229 -85.023 898.947 Q -84.745 898.665 -84.461 898.388 Q -84.176 898.111 -83.802 897.755 Q -83.428 897.399 -83.060 897.058 Q -82.691 896.718 -82.332 896.396 Q -81.973 896.075 -81.617 895.767 Q -81.261 895.459 -80.899 895.154 "></path>
    <path id="STROKE_9c60842d-ee2d-498d-9206-fd5472d003b5" opacity="1.000" fill="none" stroke="#bd8ae6" stroke-width="1.130" stroke-opacity="1.000" stroke-linecap="round" stroke-linejoin="round" d="M -81.724 899.010 Q -81.613 898.966 -81.476 898.879 Q -81.340 898.791 -81.229 898.705 Q -81.118 898.619 -81.063 898.574 Q -81.007 898.530 -79.835 897.458 Q -80.260 897.834 -80.698 898.261 Q -80.418 898.021 -80.127 897.739 Q -79.835 897.458 -79.688 897.301 "></path>
    <path id="STROKE_76256845-6465-4977-9138-e5781a6a1ff4" opacity="1.000" fill="none" stroke="#bd8ae6" stroke-width="1.802" stroke-opacity="1.000" stroke-linecap="round" stroke-linejoin="round" d="M 28.194 889.672 Q 28.129 889.690 28.451 889.461 "></path>
    <path id="STROKE_5af2b59c-fb07-4be8-a031-5ed5d2625f3c" opacity="1.000" fill="none" stroke="#bd8ae6" stroke-width="1.573" stroke-opacity="1.000" stroke-linecap="round" stroke-linejoin="round" d="M 30.538 890.863 Q 30.570 890.759 31.327 889.982 Q 32.084 889.205 32.162 889.140 "></path>
    <path id="STROKE_bd8ef6a5-eb66-4586-911a-a3e064f55506" opacity="1.000" fill="none" stroke="#bd8ae6" stroke-width="1.481" stroke-opacity="1.000" stroke-linecap="round" stroke-linejoin="round" d="M 32.824 891.593 Q 32.814 891.564 33.488 890.946 Q 34.162 890.327 34.965 889.452 "></path>
    <path id="STROKE_affca828-a25f-4585-baa6-2642ed57b57a" opacity="1.000" fill="none" stroke="#bd8ae6" stroke-width="1.501" stroke-opacity="1.000" stroke-linecap="round" stroke-linejoin="round" d="M 35.178 893.042 Q 35.110 893.062 36.419 891.599 Q 37.729 890.136 37.819 890.041 "></path>
    <path id="STROKE_ffa0a2f9-bcaf-4259-aca6-8c77c4442e6c" opacity="1.000" fill="none" stroke="#bd8ae6" stroke-width="1.620" stroke-opacity="1.000" stroke-linecap="round" stroke-linejoin="round" d="M 37.496 893.615 Q 37.363 893.615 38.832 892.057 Q 40.301 890.498 40.395 890.388 "></path>
    <path id="STROKE_9f9ed46f-e9a8-44ae-bf6b-29cdd9bf16cd" opacity="1.000" fill="none" stroke="#bd8ae6" stroke-width="1.522" stroke-opacity="1.000" stroke-linecap="round" stroke-linejoin="round" d="M 40.429 894.350 Q 40.431 894.292 41.346 893.180 Q 42.260 892.068 43.023 891.091 Q 43.787 890.113 43.885 889.992 "></path>
    <path id="STROKE_f629a60f-c2f6-4116-a468-a778e4380a6a" opacity="1.000" fill="none" stroke="#bd8ae6" stroke-width="1.454" stroke-opacity="1.000" stroke-linecap="round" stroke-linejoin="round" d="M 44.020 894.398 Q 44.025 894.133 46.527 891.766 "></path>
    <path id="STROKE_b6b155ff-799e-4a38-8b8c-c14d44c023f7" opacity="1.000" fill="none" stroke="#bd8ae6" stroke-width="1.609" stroke-opacity="1.000" stroke-linecap="round" stroke-linejoin="round" d="M 47.669 894.614 Q 47.585 894.536 48.207 893.985 Q 48.829 893.435 48.891 893.377 "></path>
    <path id="STROKE_463b5f4f-0d18-4a4d-93c6-0ee87cb0d007" opacity="1.000" fill="none" stroke="#bd8ae6" stroke-width="1.585" stroke-opacity="1.000" stroke-linecap="round" stroke-linejoin="round" d="M 50.802 894.746 Q 50.542 894.862 51.106 894.465 "></path>
    <path id="STROKE_731b62fd-bf0c-440e-b950-02bb824ce7f9" opacity="1.000" fill="none" stroke="#bd8ae6" stroke-width="1.514" stroke-opacity="1.000" stroke-linecap="round" stroke-linejoin="round" d="M 74.419 891.126 Q 74.364 891.149 74.671 890.936 Q 74.978 890.723 75.031 890.672 "></path>
    <path id="STROKE_92c0a4a4-b323-42a3-ac2f-51da7e02b306" opacity="1.000" fill="none" stroke="#bd8ae6" stroke-width="1.525" stroke-opacity="1.000" stroke-linecap="round" stroke-linejoin="round" d="M 77.764 892.875 Q 77.738 892.851 79.236 891.425 "></path>
    <path id="STROKE_e833f649-09db-4662-bb87-27485e828fc2" opacity="1.000" fill="none" stroke="#bd8ae6" stroke-width="1.187" stroke-opacity="1.000" stroke-linecap="round" stroke-linejoin="round" d="M 80.745 893.862 Q 80.876 893.756 81.172 893.499 Q 81.468 893.242 81.979 892.753 Q 82.491 892.264 83.325 891.434 "></path>
    <path id="STROKE_7ddbcc22-0f8d-49d7-8aac-19c3610a2803" opacity="1.000" fill="none" stroke="#bd8ae6" stroke-width="1.509" stroke-opacity="1.000" stroke-linecap="round" stroke-linejoin="round" d="M 83.504 894.988 Q 83.481 894.962 84.111 894.486 Q 84.742 894.009 85.358 893.402 Q 85.973 892.794 86.249 892.424 Q 86.524 892.054 86.587 891.970 "></path>
    <path id="STROKE_37916dd0-100f-43ea-83b4-4c69d4fecd9d" opacity="1.000" fill="none" stroke="#bd8ae6" stroke-width="1.491" stroke-opacity="1.000" stroke-linecap="round" stroke-linejoin="round" d="M 87.154 894.962 Q 87.212 894.922 88.788 893.417 "></path>
    <path id="STROKE_6500c43a-9ac9-4daa-a006-58991f4b7813" opacity="1.000" fill="none" stroke="#bd8ae6" stroke-width="1.275" stroke-opacity="1.000" stroke-linecap="round" stroke-linejoin="round" d="M 90.528 895.145 Q 90.502 895.164 90.973 894.698 Q 91.445 894.231 91.515 894.164 "></path>
    <circle id="STROKE_04621d25-c789-43ce-b187-e4cca1a1e2ad" opacity="1.000" fill="#bd8ae6" stroke="#bd8ae6" stroke-width="0.1" stroke-opacity="1.000" fill-opacity="1.000" cx="93.490" cy="895.040" r="0.571"></circle>
    <path id="STROKE_38c4b0c3-69e6-4b63-b4d0-8486b11c5470" opacity="1.000" fill="none" stroke="#5a6edc" stroke-width="2.083" stroke-opacity="1.000" stroke-linecap="round" stroke-linejoin="round" d="M -21.149 893.434 Q -21.050 893.311 -20.568 892.235 Q -20.087 891.158 -19.741 890.296 Q -19.396 889.433 -19.143 888.604 Q -18.890 887.775 -18.542 886.757 Q -18.193 885.740 -17.903 885.021 Q -17.613 884.302 -16.824 883.929 Q -16.799 883.958 -16.794 884.020 "></path>
    <path id="STROKE_ceefa6b9-3b34-4965-b507-192374cbb1ad" opacity="1.000" fill="none" stroke="#5a6edc" stroke-width="2.862" stroke-opacity="1.000" stroke-linecap="round" stroke-linejoin="round" d="M -16.440 884.682 Q -16.462 884.990 -16.453 884.984 Q -16.496 884.828 -16.170 886.050 Q -15.845 887.273 -15.444 888.350 Q -15.042 889.427 -14.149 890.179 "></path>
    <path id="STROKE_353fcdd2-ef89-4757-a23c-3f6286d61366" opacity="1.000" fill="none" stroke="#5a6edc" stroke-width="1.849" stroke-opacity="1.000" stroke-linecap="round" stroke-linejoin="round" d="M -14.464 889.448 Q -14.590 889.408 -13.785 888.395 Q -12.980 887.381 -12.530 886.571 Q -12.080 885.761 -11.982 885.385 Q -11.884 885.009 -11.660 884.866 Q -11.435 884.722 -11.290 884.737 Q -11.144 884.751 -11.024 884.766 Q -10.904 884.780 -10.910 884.786 Q -10.917 884.793 -10.924 884.790 Q -10.930 884.788 -10.926 884.792 Q -10.922 884.796 -10.549 884.970 Q -10.177 885.145 -9.992 885.985 Q -9.807 886.824 -9.829 887.391 Q -9.852 887.957 -9.674 889.150 Q -9.495 890.344 -9.522 892.086 Q -9.548 893.827 -9.393 897.612 Q -9.376 897.613 -9.366 897.614 "></path>
    <path id="STROKE_d347077b-18d0-4161-8181-1851a3dfd7f7" opacity="1.000" fill="none" stroke="#5a6edc" stroke-width="1.880" stroke-opacity="1.000" stroke-linecap="round" stroke-linejoin="round" d="M -7.521 894.500 Q -7.841 894.135 -6.669 892.236 Q -5.497 890.337 -4.845 889.372 Q -4.192 888.407 -3.843 887.913 Q -3.493 887.419 -3.196 887.373 Q -3.160 887.351 -3.310 888.253 Q -3.460 889.154 -3.300 890.487 Q -3.141 891.821 -3.049 892.517 Q -2.958 893.213 -2.870 893.567 Q -2.782 893.921 -2.681 894.157 Q -2.580 894.393 -2.522 894.524 Q -2.464 894.654 -2.429 894.726 Q -2.395 894.798 -2.367 894.817 Q -2.339 894.836 -2.329 894.837 "></path>
    <path id="STROKE_4769c302-cb53-42b7-9849-e6becdb8a6e8" opacity="1.000" fill="none" stroke="#5a6edc" stroke-width="2.608" stroke-opacity="1.000" stroke-linecap="round" stroke-linejoin="round" d="M -6.720 891.817 Q -7.018 891.786 -5.390 891.905 Q -3.762 892.023 -3.674 892.030 "></path>
    <path id="STROKE_a5eb293d-146b-4080-93ba-4e43ea95f9c6" opacity="1.000" fill="none" stroke="#5a6edc" stroke-width="3.148" stroke-opacity="1.000" stroke-linecap="round" stroke-linejoin="round" d="M 0.196 888.593 Q 0.373 888.512 1.298 889.650 Q 2.223 890.789 3.041 891.601 Q 3.860 892.413 4.014 893.712 Q 4.169 895.011 4.163 895.099 "></path>
    <path id="STROKE_0a29f79e-f1b3-48de-af22-9fc1bf6f944e" opacity="1.000" fill="none" stroke="#5a6edc" stroke-width="2.606" stroke-opacity="1.000" stroke-linecap="round" stroke-linejoin="round" d="M -0.804 895.272 Q -0.823 895.218 0.798 893.358 Q 2.419 891.499 3.188 890.240 Q 3.958 888.982 4.069 888.797 "></path>
    <path id="STROKE_9f291616-2b47-4a28-b346-9bde488658e3" opacity="1.000" fill="none" stroke="#5a6edc" stroke-width="1.933" stroke-opacity="1.000" stroke-linecap="round" stroke-linejoin="round" d="M -22.655 876.757 Q -22.908 876.753 -23.125 878.656 Q -23.342 880.560 -23.431 881.587 Q -23.520 882.614 -23.572 883.087 Q -23.624 883.560 -23.718 884.396 Q -23.813 885.233 -23.898 885.979 Q -23.984 886.726 -24.094 887.700 Q -24.204 888.674 -24.243 889.186 Q -24.282 889.697 -24.499 891.737 Q -24.716 893.776 -24.877 894.933 Q -25.038 896.090 -25.028 897.508 Q -25.018 898.927 -25.014 899.794 Q -25.010 900.661 -24.580 902.330 Q -24.595 902.188 -24.610 902.103 Q -24.624 902.018 -24.624 901.977 "></path>
    <path id="STROKE_a79ac7cb-14e7-4203-aa48-2ad277956da0" opacity="1.000" fill="none" stroke="#5a6edc" stroke-width="1.602" stroke-opacity="1.000" stroke-linecap="round" stroke-linejoin="round" d="M -22.727 876.514 Q -22.648 876.464 -22.382 876.326 Q -22.116 876.188 -20.364 876.179 Q -18.611 876.171 -17.329 876.160 Q -16.047 876.150 -15.365 876.129 Q -14.683 876.108 -13.929 876.107 Q -13.176 876.106 -12.131 876.090 Q -11.086 876.074 -9.179 876.201 Q -7.272 876.327 -5.895 876.457 Q -4.519 876.587 -3.273 876.684 Q -2.028 876.782 -1.410 876.827 Q -0.792 876.873 -0.266 876.913 Q 0.260 876.953 0.616 876.987 Q 0.972 877.022 1.853 877.115 Q 2.735 877.209 3.317 877.270 Q 3.899 877.331 4.550 877.398 Q 5.200 877.465 6.088 877.570 Q 6.977 877.675 8.188 877.802 Q 9.400 877.928 11.099 877.983 Q 10.907 877.914 10.886 878.055 Q 10.864 878.196 10.874 878.219 "></path>
    <path id="STROKE_ddafcc32-e6de-4000-b4b2-2a8d9d9ff7ea" opacity="1.000" fill="none" stroke="#5a6edc" stroke-width="1.368" stroke-opacity="1.000" stroke-linecap="round" stroke-linejoin="round" d="M -25.646 902.698 Q -25.630 902.698 -25.755 902.698 Q -25.569 902.717 -24.383 902.795 Q -23.197 902.873 -20.847 902.900 Q -18.497 902.927 -17.305 902.939 Q -16.113 902.951 -14.197 902.975 Q -12.281 902.999 -11.000 903.000 Q -9.720 903.001 -9.045 903.002 Q -8.370 903.004 -7.807 903.006 Q -7.244 903.008 -5.787 903.005 Q -4.329 903.003 -3.281 903.003 Q -2.233 903.003 -0.192 903.004 Q 1.850 903.006 3.283 902.962 Q 4.716 902.918 5.644 902.867 Q 6.573 902.817 7.278 902.771 Q 7.984 902.725 8.306 902.707 Q 8.627 902.690 8.817 902.677 Q 9.006 902.665 9.116 902.661 Q 9.111 902.661 9.034 902.660 "></path>
    <path id="STROKE_6a79446b-ae54-4098-8ea8-92e040224b4f" opacity="1.000" fill="none" stroke="#5a6edc" stroke-width="1.641" stroke-opacity="1.000" stroke-linecap="round" stroke-linejoin="round" d="M 11.309 877.161 Q 11.394 877.179 11.330 878.032 Q 11.266 878.885 11.168 879.750 Q 11.070 880.614 11.048 881.367 Q 11.026 882.120 11.014 882.465 Q 11.002 882.811 10.990 883.355 Q 10.978 883.899 10.955 884.224 Q 10.932 884.549 10.857 885.786 Q 10.782 887.024 10.741 888.547 Q 10.699 890.071 10.694 891.006 Q 10.688 891.942 10.697 892.568 Q 10.705 893.194 10.712 893.955 Q 10.719 894.717 10.714 895.921 Q 10.709 897.126 10.787 898.560 Q 10.866 899.994 10.875 900.792 Q 10.883 901.590 10.878 902.139 Q 10.825 902.142 10.734 902.102 "></path>
  </g>
</svg>