<?xml version="1.0" encoding="UTF-8" standalone="no"?><svg xmlns="http://www.w3.org/2000/svg" xmlns:xlink="http://www.w3.org/1999/xlink" clip-rule="evenodd" stroke-miterlimit="4.00" viewBox="0 0 229 117"><desc>SVG generated by Keynote</desc><defs></defs><g transform="matrix(1.00, 0.00, -0.00, -1.00, 0.0, 117.0)"><image xlink:href="3EF23AC981460F825A85368ADC9FDB2B.png" width="226.00" height="110.00" transform="matrix(1.00, 0.00, -0.00, -1.00, 1.4, 111.2)" opacity="0.50"></image><g><clipPath id="clip-513"><path d="M 4.4 110.2 L 52.6 77.1 C 35.3 69.6 24.5 59.4 24.5 48.2 C 24.5 25.1 69.2 6.5 124.4 6.5 C 179.5 6.5 224.2 25.1 224.2 48.2 C 224.2 71.2 179.5 89.9 124.4 89.9 C 106.2 89.9 89.5 87.7 74.9 84.2 L 4.4 110.2 Z M 4.4 110.2 "></path></clipPath><g clip-path="url(#clip-513)"><image xlink:href="../../E19FCD75-899F-402E-9A26-46334AFB3094/assets/D5BAA0E7A80E113D25EB92D00157B4C8.jpeg" width="300.00" height="300.00" transform="matrix(1.00, 0.00, -0.00, -1.00, 4.4, 110.2)"></image><path d="M 4.4 110.2 L 224.2 110.2 L 224.2 6.5 L 4.4 6.5 Z M 4.4 110.2 " fill="#009BFC" fill-opacity="0.50"></path></g></g><g><clipPath id="clip-514"><path d="M 24.5 6.5 L 224.2 6.5 L 224.2 89.9 L 24.5 89.9 Z M 24.5 6.5 "></path></clipPath><g clip-path="url(#clip-514)"><text xml:space="preserve" font-family="Helvetica-Bold" font-weight="bold" font-size="24.0" fill="#FEFFFE" transform="matrix(1.00, 0.00, -0.00, -1.00, 78.0, 39.0)">#</text><text xml:space="preserve" font-family="Helvetica-Bold" font-weight="bold" font-size="24.0" fill="#FEFFFE" transform="matrix(1.00, 0.00, -0.00, -1.00, 91.4, 39.0)">g</text><text xml:space="preserve" font-family="Helvetica-Bold" font-weight="bold" font-size="24.0" fill="#FEFFFE" transform="matrix(1.00, 0.00, -0.00, -1.00, 106.0, 39.0)">r</text><text xml:space="preserve" font-family="Helvetica-Bold" font-weight="bold" font-size="24.0" fill="#FEFFFE" transform="matrix(1.00, 0.00, -0.00, -1.00, 115.4, 39.0)">a</text><text xml:space="preserve" font-family="Helvetica-Bold" font-weight="bold" font-size="24.0" fill="#FEFFFE" transform="matrix(1.00, 0.00, -0.00, -1.00, 128.7, 39.0)">p</text><text xml:space="preserve" font-family="Helvetica-Bold" font-weight="bold" font-size="24.0" fill="#FEFFFE" transform="matrix(1.00, 0.00, -0.00, -1.00, 143.4, 39.0)">h</text><text xml:space="preserve" font-family="Helvetica-Bold" font-weight="bold" font-size="24.0" fill="#FEFFFE" transform="matrix(1.00, 0.00, -0.00, -1.00, 158.0, 39.0)">s</text></g></g></g></svg>