<?xml version="1.0" encoding="UTF-8" standalone="no"?><svg xmlns="http://www.w3.org/2000/svg" xmlns:xlink="http://www.w3.org/1999/xlink" clip-rule="evenodd" stroke-miterlimit="4.00" viewBox="0 0 139 90"><desc>SVG generated by Keynote</desc><defs></defs><g transform="matrix(1.00, 0.00, -0.00, -1.00, 0.0, 90.0)"><image xlink:href="16EF01E862257EA17620251B14308CA9.png" width="136.00" height="83.00" transform="matrix(1.00, 0.00, -0.00, -1.00, 1.7, 84.2)" opacity="0.50"></image><g><clipPath id="clip-509"><path d="M 69.7 83.2 C 33.8 83.2 4.7 68.8 4.7 51.2 C 4.7 42.1 12.4 34.0 24.6 28.2 L 5.5 6.4 L 44.9 21.6 C 52.5 20.0 60.9 19.2 69.7 19.2 C 105.6 19.2 134.7 33.5 134.7 51.2 C 134.7 68.8 105.6 83.2 69.7 83.2 Z M 69.7 83.2 "></path></clipPath><g clip-path="url(#clip-509)"><image xlink:href="D5BAA0E7A80E113D25EB92D00157B4C8.jpeg" width="300.00" height="300.00" transform="matrix(1.00, 0.00, -0.00, -1.00, 4.7, 83.2)"></image><path d="M 4.7 83.2 L 134.7 83.2 L 134.7 6.4 L 4.7 6.4 Z M 4.7 83.2 " fill="#009BFC" fill-opacity="0.50"></path></g></g><g><clipPath id="clip-510"><path d="M 4.7 19.2 L 134.7 19.2 L 134.7 83.2 L 4.7 83.2 Z M 4.7 19.2 "></path></clipPath><g clip-path="url(#clip-510)"><text xml:space="preserve" font-family="Helvetica-Bold" font-weight="bold" font-size="24.0" fill="#FEFFFE" transform="matrix(1.00, 0.00, -0.00, -1.00, 35.0, 42.0)">t</text><text xml:space="preserve" font-family="Helvetica-Bold" font-weight="bold" font-size="24.0" fill="#FEFFFE" transform="matrix(1.00, 0.00, -0.00, -1.00, 43.0, 42.0)">w</text><text xml:space="preserve" font-family="Helvetica-Bold" font-weight="bold" font-size="24.0" fill="#FEFFFE" transform="matrix(1.00, 0.00, -0.00, -1.00, 61.7, 42.0)">e</text><text xml:space="preserve" font-family="Helvetica-Bold" font-weight="bold" font-size="24.0" fill="#FEFFFE" transform="matrix(1.00, 0.00, -0.00, -1.00, 75.0, 42.0)">e</text><text xml:space="preserve" font-family="Helvetica-Bold" font-weight="bold" font-size="24.0" fill="#FEFFFE" transform="matrix(1.00, 0.00, -0.00, -1.00, 88.4, 42.0)">t</text><text xml:space="preserve" font-family="Helvetica-Bold" font-weight="bold" font-size="24.0" fill="#FEFFFE" transform="matrix(1.00, 0.00, -0.00, -1.00, 96.4, 42.0)">!</text></g></g></g></svg>